<svg width="15" height="12" viewBox="0 0 15 12" fill="none" xmlns="http://www.w3.org/2000/svg">
<path d="M13.6987 1.61581L13.8827 1.86682L13.9087 3.56781L13.9507 3.68881L13.8527 3.70682L13.7427 3.83582L13.6137 4.03482L13.4367 4.13782L13.2947 4.25381L13.1607 4.39783L13.0407 4.4288L12.8857 4.24582L12.7787 4.05881L12.8047 4.01782L12.8797 4.00482L12.9077 3.90781L12.8627 3.76782L12.7577 3.71481L12.6257 3.71082L12.4987 3.7738L12.3637 3.89783L12.2877 4.03082L12.2767 4.29782L12.3117 4.59781L12.3107 4.7438L12.2367 4.9248L12.2107 5.19083L12.2637 5.39682L12.3117 5.51981L12.3167 5.62381L12.1907 5.95181L12.2997 6.01382L12.6607 6.0368L12.7667 6.25882L12.8387 6.41083L12.8187 6.50082L12.5627 6.56781L12.2407 6.64182L12.0097 6.62082L11.5917 6.72083L11.3687 6.87482L11.4337 6.97083L11.5107 7.04483L11.5457 7.2478L11.4807 7.53583L11.3627 7.81482L11.2157 8.16281L11.0457 8.56183L10.8127 9.1618L10.6157 9.63281L10.5947 9.9718L10.5997 10.1928L10.5777 10.6338L10.3907 10.8768L10.3487 10.8838L10.1257 10.8548L10.0507 10.8448L9.83771 10.8168L9.50769 10.7738L9.07867 10.7168L8.57172 10.6508L8.00671 10.5758L7.40271 10.4958L6.77771 10.4138L6.15369 10.3318L5.54871 10.2518L4.9837 10.1778L4.47668 10.1108L4.04871 10.0538L3.71869 10.0108L3.50568 9.98282L3.43073 9.97281L3.1947 9.9418L3.06769 9.77783L2.9137 9.5798L2.75867 9.38083L2.60468 9.18182L2.45068 8.98282L2.29669 8.78381L2.1427 8.58481L1.98871 8.3858L1.83472 8.18683L1.68073 7.98682L1.52667 7.78781L1.3717 7.58783L1.21771 7.38782L1.06372 7.18781L0.909668 6.98782L0.755676 6.78781L0.601685 6.58783L0.497681 6.45383L0.440674 6.30283L0.429688 5.90683V5.81982L0.533691 5.65982L0.583679 5.7738L0.699707 5.9288L0.896667 5.89081L0.988708 5.91681L1.0567 6.46582L1.20172 6.66083L1.37769 6.73883L1.97467 6.78183L2.3457 6.70782L3.07672 6.34982L3.46069 6.22083L4.52271 6.24283L5.37372 6.39182L6.69867 6.47983L6.95569 6.45682L7.67072 6.16882L8.1087 5.91483L8.36969 5.84183L8.54169 5.59583L8.65472 5.27582L8.75568 5.0668L8.8847 4.96683L9.00671 4.78882L9.10571 4.49982L9.35168 4.20782L10.3377 3.49683L10.9137 2.89481L10.9647 2.69983L11.2777 2.40781L11.5287 2.08783L12.7037 1.17181L12.9387 0.792816L13.0777 0.367828L13.0947 0.33783L13.1957 0.319824L13.3397 0.38382L13.3547 0.701813L13.3017 1.00183L13.2957 1.31982L13.2747 1.49182L13.3837 1.63281L13.5697 1.69382L13.6507 1.68683L13.6987 1.61581ZM13.6527 2.8988L13.6697 2.76581L13.6407 2.69681L13.5207 2.68781L13.4707 2.80283L13.4537 2.9678L13.5367 2.98181L13.6527 2.8988ZM8.5567 5.33682L8.53168 5.39682L8.4527 5.39182L8.2547 5.33783L8.19067 5.25183L8.3147 5.1488L8.36969 5.14383L8.44867 5.25183L8.5567 5.33682ZM5.37567 5.90082L5.16772 5.91782L4.97968 5.80182L5.37671 5.64682L5.4837 5.57681L5.59967 5.43381L5.69269 5.55682L5.58972 5.74982L5.51672 5.83282L5.37567 5.90082ZM3.36768 5.80981L3.32068 5.83182L3.27069 5.66681L3.27368 5.61481L3.40271 5.53983L3.48169 5.6748L3.36768 5.80981ZM7.04669 6.14981L7.04767 6.25381L6.7627 6.22382L6.68671 6.27783L6.4527 6.2478L6.22369 6.17282L6.37872 6.04782L6.78271 5.90082L6.95068 6.03482L7.04669 6.14981Z" fill="#CCCCCC" stroke="white" stroke-width="0.5"/>
</svg>
