<svg width="42" height="32" viewBox="0 0 42 32" fill="none" xmlns="http://www.w3.org/2000/svg">
<path d="M40.8811 4.59186L40.7371 4.61484L40.5331 4.53085L40.4531 4.40286L40.4191 4.38486L40.2571 4.46884L39.9481 4.57486L39.4241 4.85184L39.4361 4.92285L39.7771 5.20386L39.8571 5.29684L39.8991 5.32584L39.5901 5.46085L38.9261 5.76486L38.4891 6.01285L38.3851 6.02185L38.1211 5.91785L37.7311 5.79385L37.6271 5.79584L36.7271 5.81683L35.9001 5.86285L35.5562 5.92285L34.9171 5.97986L34.5151 5.99985L34.2581 6.09586L33.9771 6.22183L33.6851 6.30383L33.4681 6.33084L33.2071 6.44885L33.0351 6.68286L32.5441 7.02884L32.2681 7.19586L32.1292 7.38486L31.9711 7.40286L31.7011 7.36884L31.4921 7.57285L31.2611 7.86484L30.8381 8.28784L30.6131 8.45886L30.4791 8.73483L30.5781 8.87784L30.9221 9.09186L31.0761 9.29385L31.1601 9.45386L31.3171 9.86386L31.4171 10.2668L31.5651 10.4409L31.6081 10.7358L31.6461 10.9168L31.5651 11.0458L31.4911 11.1888V11.3249L31.5801 11.4648L31.6581 11.5888L31.7011 11.6878L31.6481 11.7979L31.4911 11.9659L31.4111 12.1378L31.2371 12.4248L30.9651 12.6208L30.7851 12.7628L30.5941 13.0628L30.2781 13.3958L30.1451 13.6739L30.0061 13.8268L29.8631 13.9088L29.9001 14.0588L30.0241 14.2458L30.2291 14.4548L30.2201 14.7798L30.2101 15.0139L30.2171 15.2968L30.1051 15.5349L29.5351 15.7628L28.9891 15.8629L28.3201 15.8688L28.0671 15.8329L27.8651 15.7828L27.1391 15.5269L26.8441 15.6779L26.7831 16.0468L27.3131 16.6448L27.5302 16.9778L27.7711 17.5338L27.9511 17.8199L27.8871 18.0879L27.4071 18.3918L26.9301 18.6768L26.3221 18.7358L25.9401 18.8379L25.7551 18.9848L25.6191 19.6078L25.4821 19.8358L25.4851 20.1068L25.3561 20.4138L25.1611 20.6108L25.0241 20.9329L25.0671 21.5418L25.1311 22.5718L24.8721 22.8958L24.5801 23.2238L24.2721 23.4579L23.9791 23.5659L23.7361 23.5258L23.5441 23.3239L23.4301 23.1538L23.2181 23.0118L23.0021 23.0408L22.7851 23.1708L22.4381 23.1278L22.1422 22.9978L21.9921 23.0118L21.9061 23.1429L21.5891 23.4229L20.8111 23.8478L20.4931 23.8788L20.3571 23.9848L20.4111 24.1588L20.5501 24.3008L20.7932 24.4008L20.8051 24.5168L20.5911 24.6179L20.4081 24.7328L20.0051 24.8738L19.5401 24.9288L19.0601 24.8468L18.8131 24.6599L18.5211 24.6418L18.2551 24.7788L17.9801 25.0049L17.6801 25.4889L17.6001 25.5739L17.5191 25.6508L17.3231 25.7549L17.0421 25.9248L16.9011 26.2809L16.7321 26.9138L16.7721 27.2538L16.7851 27.8428L16.7191 28.2559L16.5971 28.5269L16.6211 28.7398L16.8071 28.9818L16.7321 29.1389L16.5761 29.3128L16.4251 29.4099L15.8201 29.5928L14.9911 29.8419L14.4431 30.0019L13.6281 30.2398L13.3901 30.2979L12.8941 30.3188L12.6371 30.2828L12.2891 30.2729L11.7771 30.2819L11.4201 30.3468L11.0621 30.4659L10.7981 30.6158L10.6461 30.7639L10.5921 30.8348L10.2331 30.7129L9.10211 30.4948L6.03912 30.7828L5.75012 30.7278L4.70514 30.3908L3.35809 29.9568L2.52515 29.6878L1.45612 29.3358L2.18811 28.4659L2.82611 27.7058L3.46613 26.9418L4.09613 26.1869L4.17114 25.9218L4.18115 25.4029L4.01514 24.7079L3.74811 24.3908L2.86713 24.2628L2.20612 24.1658L1.48511 24.0609L1.39313 24.0219L1.3111 23.4789L1.34613 23.2368L1.29913 22.7679L1.30615 22.4059L1.4101 21.8109L1.41614 21.5418L1.08313 20.3809L0.897095 19.7358L0.707092 19.0688L0.666138 18.8558L0.662109 18.5928L1.10413 17.9728L1.24115 17.8379L1.50012 17.5288L1.66211 17.3639L1.63409 17.2509L1.35211 17.1859L0.926147 17.1798L0.699097 17.0858L0.522095 16.9168L0.452148 16.6708L0.568115 16.2339L0.452148 15.3828L0.689148 14.9608L0.893127 14.6658L1.58514 14.6238L1.34509 14.2899L1.22913 14.0959L1.15515 14.0399L1.12714 13.9508L1.16412 13.8608L1.34113 13.8268L1.46112 13.7148L1.65613 13.5579L1.75812 13.4898L1.77612 13.2989L1.86914 13.1649L2.00909 12.9958L2.12012 12.8038L2.0921 12.5789L2.19409 12.3088L2.24115 12.1389L2.31512 11.9919L2.25012 11.7779L2.19409 11.5968L2.17615 11.3818L2.28711 11.3249L2.42712 11.2458L2.4541 11.0758L2.52814 10.8608L2.58411 10.6898L2.67712 10.5548L2.68713 10.4178L2.6311 10.1909L2.86212 10.1569L2.95514 10.2819L3.0791 10.4438L3.41815 10.7458L3.63812 10.8339L3.9151 10.8778L4.2561 10.8369L4.52814 10.7798L4.65613 10.7949L4.95312 11.0139L5.30011 11.3209L5.41113 11.4579L5.46313 11.6668L5.56512 11.7289L5.78711 11.5219L6.0011 11.4539L6.19812 11.4929L6.4151 11.5158L6.63312 11.4398L6.7301 11.3849L7.10913 11.1169L7.45312 10.9128L7.66711 10.7878L7.74414 10.3679L7.84314 10.1288L7.98413 9.98984L7.93213 9.81683L7.87311 9.68484L7.81311 9.50586L7.87311 9.41086L8.01013 9.36884H8.35413L8.95911 9.17984L9.46313 8.99084L9.92914 8.83685L10.1411 8.81186L10.3421 8.83786L10.4341 8.79285L10.4591 8.64584L10.5731 8.49084L10.8321 8.36484L11.3191 8.09784L11.7491 7.70084L11.9021 7.39883L12.0061 6.95786L12.2071 6.27585L12.4291 5.52686L12.5111 5.19586L12.6051 4.94086L12.9851 4.72586L13.3731 4.56985L13.9741 4.53885L14.6791 4.52286L14.8281 4.11185L14.9211 3.76184L15.0381 3.58084L15.2091 3.43384L15.2691 3.40485L15.6491 3.61984L16.2321 3.94885L16.9111 4.11285L17.2521 4.19485L17.3941 4.18185L18.2511 4.10184L18.9281 4.22986L19.2831 4.57983L19.6321 4.66885L19.9741 4.49985L20.1861 4.46884L20.2681 4.57785L20.4381 4.62384L20.6981 4.60684L20.8481 4.70386L20.8641 4.80084L20.8841 4.91284L21.0761 5.17883L21.4231 5.50186L21.7311 5.57983L22.1361 5.32886L22.2731 5.35785L22.3401 5.27686L22.3811 5.09384L22.6261 4.92184L23.0741 4.76083L23.3281 4.61685L23.4191 4.49783L23.5701 4.46384L23.7351 4.49985L23.8531 4.45483L23.8941 4.34186L23.9411 4.29285L24.0251 4.25284L24.1001 4.23285L24.2361 4.26385L24.4871 4.46985L24.8531 4.84985L25.0911 5.02383L25.2001 4.99484L25.3401 4.87784L25.5111 4.67584L25.5531 4.38385L25.4681 4.00284L25.5261 3.69485L25.7291 3.46085L26.1041 3.31683L26.6511 3.26184L26.9871 3.29486L27.1111 3.41583L27.2791 3.48184L27.4901 3.49484L27.6841 3.35785L27.8591 3.06885L27.8691 2.71185L27.7141 2.28485L27.7561 2.14883L27.8231 2.08984L28.0331 1.93484L28.3261 1.61386L28.6091 1.19986L28.8821 0.691833L29.2191 0.377838L29.6201 0.256836L30.1061 0.394836L30.6791 0.790833L30.8941 1.27686L30.7542 1.85385L30.7421 2.16986L30.8581 2.22885L31.0541 2.21286L31.3291 2.12283L31.5091 2.11786L31.5941 2.19986L31.5891 2.36185L31.4931 2.60486L31.3781 3.28586L31.3071 3.87384L31.2361 4.45084L31.1751 4.95685L31.2841 5.35086L31.4501 5.94485L31.6371 6.33685L31.8281 6.46185L32.0201 6.50684L32.2111 6.47183L32.6041 6.21985L33.1971 5.75186L33.7731 5.46384L34.6111 5.30185L34.8922 4.79886L35.2802 4.46585L36.1661 3.97086L36.6471 3.78085L36.9241 3.74884L37.2701 3.83786L37.3491 3.86984L37.4171 3.89386L37.5961 3.93484L37.6331 4.08585L37.5861 4.24884L37.3951 4.38284L37.3341 4.48685L37.4071 4.56485L37.6771 4.59186L38.2361 4.41086L38.5981 4.29486L38.8491 4.24884L38.9501 4.09784L39.1081 3.94586L39.3591 3.93484L39.6281 4.01584L39.8511 4.06284L40.2301 4.01984L40.4301 4.15186L40.7101 4.40085L40.8361 4.55585L40.8811 4.59186Z" fill="#CCCCCC" stroke="white" stroke-width="0.5"/>
</svg>
