<svg width="6" height="13" viewBox="0 0 6 13" fill="none" xmlns="http://www.w3.org/2000/svg">
<path d="M3.00854 1.20917L3.11957 1.29517L3.35059 1.66916L3.5036 1.99915L3.80658 2.11316L3.97455 2.24115L4.19159 2.43616L4.29559 2.63116L4.44354 3.22815L4.46057 3.58817L4.4176 3.75217L4.38159 3.79517L4.24658 4.37915L4.27856 4.67615L4.27759 4.87216L4.16357 4.94916L4.08759 5.07214L4.21057 5.55615L4.19556 5.76315L4.2016 5.99915L4.42255 6.53714L4.55359 6.70316L4.66956 6.78217L4.81958 7.27615L4.90759 7.36115L5.27057 7.31415L5.44855 7.36914L5.51959 7.48615L5.53558 7.56616L5.5116 7.84216L5.60156 8.05414L5.7226 8.27216V8.40515L5.64056 8.62314L5.49554 8.87616L5.30359 8.97415L5.09155 9.05615L4.98956 9.25314L4.9386 9.46216L4.84357 9.61716L4.78558 9.78714L4.69458 10.1331L4.67358 10.2581L4.53058 10.3852L4.30859 10.4372L4.10858 10.4482L3.97455 10.5071L3.90558 10.6252L3.77856 10.7202L3.70258 10.7621V10.8672L3.79456 11.0862L3.8996 11.2642L3.90259 11.4062L3.85059 11.4462L3.68756 11.4282L3.65356 11.4802L3.63556 11.6402L3.59259 11.7751L3.52557 11.8582L3.40955 11.9482L3.19659 11.9192L2.99658 11.7831L2.89258 11.7411L2.83258 11.7451L2.81659 11.4121L2.72955 11.1532L2.41357 10.5282L1.38257 9.92017L1.13959 9.64615L1.03357 9.41516L0.926575 9.19714L1.02856 9.19116L1.12958 9.24615L1.25854 9.31314L1.31158 9.20416L1.25555 8.96515L0.989563 8.40717L0.969543 8.25314L1.09955 7.78516L1.31659 7.25815L1.30255 6.61816L1.36957 6.13315L1.29456 5.81815L1.25854 5.43216L1.4176 4.91714L1.55457 4.79016L1.63855 4.62616L1.64355 4.07614L1.33655 3.81815L0.983582 3.77014L0.991577 3.58316L1.03558 3.28616L1.01056 3.18716L1.03656 3.01715L0.950562 2.79114L0.810547 2.62717L0.945557 2.33817L1.14355 1.98715L1.32758 1.70917L1.5506 1.41916L1.69958 1.14114L1.85858 0.900146L1.99658 0.827148L2.06458 0.878143L2.10156 0.983154L2.09259 1.29315L2.13959 1.40015L2.23456 1.47916L2.43555 1.44016L2.65759 1.36316L2.95758 1.19916L3.00854 1.20917Z" fill="#CCCCCC" stroke="white" stroke-width="0.5"/>
</svg>
