<svg width="10" height="11" viewBox="0 0 10 11" fill="none" xmlns="http://www.w3.org/2000/svg">
<path d="M9.17535 9.64618L8.69037 9.62518L8.27637 9.78119L8.12036 9.75018L8.01636 9.47318L7.92737 9.24817L7.66339 8.66919L7.73438 8.43219L7.58734 8.2952L7.23334 8.04819L7.1424 7.9462L7.19238 7.80518L7.22736 7.54819L7.19336 7.34018L7.09735 7.27719L6.92035 7.27319L6.70538 7.3252L6.27338 7.52618L5.97339 7.39819L5.80035 7.2692L5.69934 7.16119L5.47437 7.25119L5.41937 7.20819L5.40735 6.94019L5.33936 6.7952L5.20435 6.62619L5.07837 6.5452L4.61737 6.71219L4.34039 6.7692L4.24335 6.61319L3.75635 6.09918L3.30536 5.70419L2.99536 5.54117L2.68335 5.5582L2.19934 5.63718L2.02136 5.60419L1.59937 5.43219L1.24738 5.22717L1.29535 5.14218L1.36938 5.08017L1.2804 4.81317L1.08435 4.38318L1.10535 4.24817L1.0434 4.06219L0.975342 3.92117L1.25134 3.5842L1.37738 3.31317L1.4054 3.04819L1.33136 2.77319L1.14935 2.27417L1.03735 2.12918L0.829346 1.99319L0.654358 1.77118L0.610352 1.6142L0.757385 1.58319L1.18634 1.57919L1.60236 1.52518L1.92834 1.42117L2.40039 1.3342L2.59436 1.2562L2.82135 1.21918L3.51038 1.30219L3.76837 1.23819L4.54437 1.2262L4.56439 1.19318L4.45935 1.08719L4.46039 1.04718L4.92236 0.980194L4.99438 0.930176L5.05438 1.09818L5.22839 1.28519L5.41736 1.36017L5.51935 1.4632L5.52435 1.54117L5.18939 1.63617L5.16638 1.6832L5.18835 1.72919L5.28839 1.7522L5.75836 1.98618L6.02637 1.99118L6.16736 2.06219L6.23737 2.20218L6.46136 2.39218L6.64038 2.57617L6.65137 2.63919L6.61737 2.73218L6.11737 3.09119L6.05438 3.21518L6.04639 3.34619L6.26538 3.73517L6.58838 4.15918L7.05438 4.48117L7.69739 4.83017L7.70538 5.04617L7.60339 5.30219L7.51636 5.4762L7.47638 5.59418L7.39838 5.64319L6.75836 5.63217L6.66235 5.67419L6.62036 5.72418L6.61737 5.76617L6.84735 5.84418L7.20636 6.11719L7.41339 6.38217L7.62836 6.49817L7.86938 6.7092L8.06238 6.90518L8.36334 7.15918L8.69836 7.07617L9.14636 7.30219L9.16534 7.45517L9.13739 7.59219L8.85535 7.74118L8.82037 7.80319V7.85519L8.85736 7.92819L9.02234 8.05017L9.21735 8.23117L9.43634 8.50119L9.33838 8.58218L9.13336 8.59418L8.97437 8.56119L8.9184 8.61618L8.92139 8.70419L9.12939 8.90918L9.17035 9.0582L9.16138 9.31717L9.17535 9.64618ZM5.05835 1.91019L5.07239 1.81119L5.05139 1.72217L4.97638 1.69418L4.88434 1.71719L4.87738 1.81619L4.9054 1.91019L4.99835 1.95218L5.05835 1.91019ZM6.54236 3.42917L6.43536 3.49017L6.33539 3.4632V3.31119L6.40735 3.25018L6.49036 3.25317L6.56934 3.3082L6.54236 3.42917Z" fill="#CCCCCC" stroke="white" stroke-width="0.5"/>
</svg>
