<svg width="36" height="41" viewBox="0 0 36 41" fill="none" xmlns="http://www.w3.org/2000/svg">
<path d="M4.38846 1.60483L4.34543 1.64981L4.03745 1.7738L3.70645 1.88983L3.27145 2.36182L3.05145 2.56583L2.98746 2.61682L2.78845 2.72983L2.64447 2.82681L2.64944 2.87982L2.74545 2.9418L2.84344 3.04382L2.83347 3.81482L2.79144 4.57483L2.73746 4.63882L2.46146 4.66382L2.09445 4.71683L1.97745 4.75082L1.93646 4.67581L1.81345 4.39783L1.88245 4.13382L1.95645 3.93683L1.87344 3.53583L1.68646 3.1788L1.48846 2.72583L1.42746 2.63882L1.59445 2.49283L1.84546 2.17282L1.95047 2.00681L2.24146 1.96982L2.34946 1.85382L2.42645 1.66782L2.45645 1.55981L2.78445 1.4718L3.17847 1.31482L3.39645 1.14282L3.61746 1.03281L3.75745 1.02881L3.84946 1.07382L4.10245 1.37183L4.31747 1.55981L4.38846 1.60483ZM34.9615 19.1638L35.0235 19.5358L35.0844 20.0528L35.1275 20.4248L35.1715 20.5918L35.1864 20.6808L35.1375 20.7768L35.0974 20.9998L35.0185 21.1978L34.9745 21.3358L35.0114 21.5898L34.9815 21.9538L34.9505 22.3388L34.9405 22.7098L35.0454 23.3738L35.0305 23.5778L34.8994 23.9258L34.8004 24.1898L34.7365 24.4958L34.7245 24.6558L34.9644 25.1078L34.9505 25.1978L34.7664 25.2258L34.6145 25.2338H34.0324H33.1985H32.3645H31.5305H30.7635H30.0294H29.3825V25.6798V26.5998V27.5208V28.4428V29.3668V30.2918V31.2178V32.1448V33.0738V33.7448L29.5515 34.6368L29.8615 35.6088L29.9825 35.6988L30.2945 35.8778L30.7274 36.2438L30.9704 36.5208L31.4644 37.0018L32.1214 37.6158L32.7545 38.1668L33.3134 38.6528L32.4364 38.8238L31.1895 39.0658L30.3485 39.2298L29.3275 39.4288L28.6474 39.5538L27.8004 39.7088L27.6654 39.7058L27.4384 39.5988L26.9485 39.5778L26.3725 39.7258L25.9154 39.7658L25.5775 39.6978L25.2475 39.5688L24.9254 39.3778L24.3684 39.3078L23.5755 39.3598L22.8114 39.3228L22.0755 39.1968L21.5495 39.1468L21.2325 39.1738L20.8925 39.1328L20.5294 39.0238L20.2265 38.8388L19.8625 38.4488L19.5775 38.0768L19.5034 38.0238L19.4135 37.9668L19.3244 37.9498L18.5164 37.9398L17.7495 37.9308L17.3105 37.9298L16.2365 37.9288L15.1624 37.9278L14.0885 37.9258L13.0144 37.9248L11.9405 37.9228L10.8665 37.9218L9.79245 37.9198L8.71848 37.9188L8.14847 37.9178L7.61844 37.9478L7.03348 37.9798L6.94943 37.9658L6.81046 37.9208L6.71548 37.8388L6.40048 37.6278L6.12643 37.4678L5.75345 37.1978L5.51248 36.9028L5.30948 36.8088L4.95047 36.7558L4.68045 36.7038L4.46048 36.6918L4.07346 36.8308L3.78146 36.9688L3.57346 37.1018L3.21246 37.2538L2.90845 37.4058L2.37845 37.3858L2.26346 37.4078L1.96844 37.3978L1.69046 37.2648L1.40845 37.2768L1.09546 37.4458L0.647461 37.5118L0.751465 36.4088L0.860443 35.9218L0.863464 35.3398L0.799469 33.8358L0.722443 33.6288L0.670471 33.3868L0.947449 33.2028L1.08847 33.0618L1.27945 32.8128L1.41547 32.4638L1.57547 31.6958L2.15747 29.9328L2.43347 28.2098L2.78345 27.3958L2.91446 26.4838L3.88846 25.3088L4.12845 24.5878L4.63248 24.2348L5.34543 23.8588L5.85349 23.1898L6.09946 22.7268L6.37949 21.8398L6.37643 20.9148L6.55447 19.6818L6.51547 19.3278L6.24948 18.8378L6.20047 18.4878L5.95346 18.1438L5.68948 17.8838L5.56546 17.4198L5.10745 16.6888L4.98245 16.2018L4.76346 15.8518L4.72849 15.4208L4.61343 14.9648L4.38943 14.5148L4.18045 13.9998V13.8388L4.31644 13.6448L4.44547 13.5818L4.40244 13.6798L4.31644 13.7948L4.33743 13.8838L5.19345 12.9818L5.24747 12.8058L5.21848 12.6088L5.21445 12.3678L5.24844 12.0878L4.44046 10.4268L3.79947 8.88483L3.69046 8.1058L2.84247 7.08282L2.50845 6.41782L2.31845 5.95181L2.17545 5.77582L2.22946 5.68683L2.44745 5.66382L2.93347 5.55582L3.59946 5.43781L4.21445 5.16782L4.37845 5.04782L4.70444 5.0238L5.03647 5.09583L5.15945 5.04382L5.22946 5.03983H6.00845L6.33243 5.02182L6.93344 5.02682L7.31247 5.04883L7.52847 5.07883L8.11148 5.12582L8.83945 5.11481L9.09647 5.09082L10.0504 5.07483L10.9925 5.05881L11.8394 5.04483L12.7755 5.04782L13.4915 5.0498L13.8175 5.14682L14.1134 5.33081L14.2484 5.4978L14.3125 5.57181L14.4005 5.7478L14.5625 5.88782L14.6205 6.10382L14.5735 6.39682L14.5965 6.74982L14.6905 7.1618L14.8875 7.59381L15.1855 8.04782L15.3155 8.40781L15.2765 8.6748L15.3684 8.95682L15.5905 9.25381L15.7525 9.41083L15.8465 9.52982L16.0985 9.98581L16.5655 10.7138L16.9154 11.2598L17.0385 11.3248L17.2174 11.3018L17.5974 11.2478L17.9735 11.2368L18.2425 11.3488L18.3504 11.3298L18.7555 11.1128L19.1574 11.0468L19.5775 10.9568L19.7965 10.8648H20.0515L20.7384 11.0398L20.8684 11.0488H21.4245L21.9804 10.9508L22.0625 10.2188L22.0675 10.0738L22.2014 9.79883L22.3714 9.55881L22.3925 9.3298L22.3825 9.01682L22.5055 8.63782L22.8784 8.33582L23.4815 8.19281L23.8244 8.16483L24.3654 8.08081L25.1855 7.99582L25.4884 8.00681L25.5125 8.0498L25.3385 8.57382L25.3355 8.74481L25.3985 8.91782L25.5374 9.01181L26.3885 9.02182L27.1725 9.03183L28.0714 9.06482L28.7455 9.08881L28.8315 9.11481L28.8994 9.15381L28.9995 9.41382L28.9774 9.92181L28.8275 10.6638L28.8855 11.3578L29.1524 12.0038L29.1795 12.9968L29.0855 13.5898L28.9665 14.3378L28.9204 15.1868L29.0424 15.5418L29.3004 15.9128L29.6944 16.3018L29.9995 16.8048L30.2155 17.4238L30.2935 17.8138L30.2354 17.9748L30.2395 18.2528L30.3065 18.6488L30.2315 18.9118L30.0155 19.0408L29.9435 19.2188L30.0525 19.5608L30.0794 19.8718L30.1645 19.9908L30.2265 20.0768L30.3285 20.0898L30.5475 19.9788L30.8095 19.7718L31.0194 19.6848L31.3155 19.6958L31.7315 19.7548L32.4655 19.7758L32.6914 19.7388L33.3745 19.4598L33.5534 19.4388L33.8235 19.4648L34.2065 19.5478L34.5924 19.5648L34.7805 19.4788L34.7975 19.3658L34.8575 19.2188L34.9615 19.1638Z" fill="#CCCCCC" stroke="white" stroke-width="0.5"/>
</svg>
