<svg width="58" height="124" viewBox="0 0 58 124" fill="none" xmlns="http://www.w3.org/2000/svg">
<path d="M31.8701 2.28979L31.9411 2.3728L31.9401 2.45984L32.1771 2.63782L32.6511 2.90881L33.0951 3.43182L33.5091 4.2088L33.8981 4.78479L34.2611 5.1568L34.5951 5.42084L34.9001 5.57483L35.0631 5.69983L35.0841 5.79584L35.3691 5.99481L35.9181 6.29779L36.2651 6.60083L36.4111 6.90283L36.9531 7.21582L37.8921 7.53784L38.5751 7.69183L39.0011 7.6778L39.6121 7.93481L40.4081 8.46484L40.8941 8.83282L41.0691 9.03784L41.5901 9.37079L42.8901 10.0598L43.4631 10.2328L43.7351 10.3908L43.8961 10.5908L44.0551 10.6528L44.2121 10.5748L44.5381 10.6468L45.0341 10.8688L45.4221 11.1378L45.9211 11.7308L46.0801 11.9678L46.1471 12.1798L46.1231 12.3668L45.9711 12.5668L45.6911 12.7788L45.6081 12.8718L45.6021 12.9608L45.5311 13.1398L45.2991 13.5218L45.2401 13.6998L45.2271 13.8318L45.0801 13.9758L44.6891 14.2418L44.6081 14.3708L44.5881 14.5098L44.5391 14.5928L44.4861 14.6278L44.4111 14.7668L44.3501 14.9978L44.3441 15.2938L44.3921 15.6558L44.3821 15.7728L44.2961 15.8348L44.2471 15.9188L44.2301 16.0878L44.1561 16.2118L44.0271 16.2908L43.9791 16.3808L44.0131 16.4838L43.9181 16.5848L43.6941 16.6848L43.5571 16.8308L43.5061 17.0218L43.3811 17.1928L43.1821 17.3438L43.1171 17.5448L43.2211 17.9168L44.4471 17.7878L45.4461 17.9238L46.6281 18.2818L47.4121 18.4068L47.7991 18.2988L48.0861 18.3138L48.2731 18.4528L48.5241 18.4808L48.8391 18.3988L49.1001 18.4618L49.3061 18.6698L49.4931 18.6178L49.6611 18.3078L49.8541 18.0808L50.0721 17.9388L50.3431 17.8958L50.6681 17.9528L50.9271 18.0668L51.1211 18.2378L51.3321 18.2328L51.5611 18.0518L51.6711 17.8348L51.6611 17.5818L51.7521 17.4008L51.9431 17.2918L52.0721 17.1448L52.1391 16.9588L52.3661 16.8458L52.7531 16.8048L52.9561 16.7138L52.9741 16.5728L53.0881 16.4428L53.2991 16.3238L53.4441 16.1758L53.5221 15.9988L53.6491 15.8868L53.8271 15.8418L54.0251 15.4688L54.2421 14.7708L54.3711 13.8288L54.4161 12.4958L54.6351 12.4968L54.7371 12.5958L54.8991 12.6468L55.0691 12.5348L55.2141 12.4828L55.4431 12.4788L55.5671 12.3528L55.7121 12.3328L55.8111 12.4008L55.9071 12.4838L56.1111 12.5028L56.2731 12.7188L56.4511 12.7848L56.5271 13.0328L56.6421 13.6858L56.8561 14.0718L57.0681 14.5118L57.0761 14.7078L56.9571 14.9058L56.9371 15.1908L56.8631 15.8878L56.8381 16.1448L56.9121 16.3198L56.9391 16.5648L56.8241 16.8638L56.6001 17.3118L56.3831 17.4328L56.3271 17.4378L56.0331 17.6968L55.8261 17.7938L55.7061 17.7288L55.5691 17.8408L55.4151 18.1318L55.2271 18.2618L54.8871 18.3338L54.7851 18.3678L54.5871 18.3578L54.4171 18.4298L54.2751 18.5848L54.1241 18.6428L53.9631 18.6038L53.8171 18.6608L53.6861 18.8138L53.6101 18.9798L53.5891 19.1588L53.4611 19.2808L53.2251 19.3458L53.1431 19.4358L53.1581 19.5608L53.0521 19.6578L52.6531 19.7598L52.3641 19.9398L52.1861 20.1988L51.9981 20.3618L51.7021 20.4618L51.3001 20.7258L51.2421 20.8888L51.3951 21.0388L51.4501 21.1728L51.4071 21.2898L51.2821 21.3058L51.0741 21.2208L50.9261 21.2028L50.8381 21.2528L50.7961 21.3468L50.8011 21.4848L50.7271 21.5788L50.5731 21.6288L50.4761 21.7428L50.4351 21.9218L50.2421 22.1478L49.8981 22.4198L49.6271 22.7868L49.4281 23.2488L49.1961 23.5528L48.9301 23.6988L48.7471 23.9068L48.6471 24.1768L48.3631 24.5948L47.8971 25.1628L47.4741 25.5528L47.0941 25.7648L46.8811 26.0048L46.8341 26.2718L46.5881 26.5768L46.1431 26.9188L46.0171 27.0728L45.9131 27.1988L45.8981 27.4188L45.7251 27.7078L45.3921 28.0668L45.2761 28.3778L45.4271 28.7708L45.4491 29.2478L45.3831 29.4388L45.2371 29.5038L45.2041 29.6268L45.2831 29.8088L45.2871 30.0478L45.2171 30.3448L45.0631 30.6848L44.8241 31.0678L44.7661 31.3238L44.8901 31.4528L44.9511 31.5898L44.9491 31.7358L44.8981 31.9468L44.7991 32.2238L44.6491 32.4298L44.4481 32.5638L44.3871 32.7338L44.4681 32.9388L44.4791 33.1528L44.4211 33.3758L44.4551 33.5928L44.5811 33.8038L44.5721 34.0448L44.3531 34.5398L44.3001 34.8458L44.4371 36.1588L44.3541 36.3428L44.2151 36.5548L44.0501 36.5708L43.8621 36.5338L43.7261 36.6658L43.6411 37.2488L43.3821 38.5128L43.4281 38.8138L43.6361 39.3028L43.7121 39.6148L43.7701 39.8498L43.8161 40.2958L43.6951 40.4968L43.5831 40.5318L43.4421 40.6448L43.6091 41.1898L43.7421 41.4408L44.1221 41.9568L45.5811 42.6748L46.1861 43.0988L46.8711 43.6778L47.2451 44.2738L47.2781 44.7658L46.7311 45.5028L46.6701 46.1228L46.7821 46.5598L46.9801 46.9658L47.5101 47.4938L47.9001 47.6878L48.4271 47.6668L48.5171 47.8148L48.5711 47.9448L48.6541 49.0198L48.6441 49.4248L48.4891 49.7968L47.4771 51.5108L46.6131 52.5628L46.3001 53.1458L46.1891 53.7708L45.9121 54.0688L44.4141 55.0168L42.0901 55.8658L40.2121 56.3078L39.7851 56.4568L36.7661 56.9438L36.1821 57.0118L35.4221 56.9688L34.8051 57.0338L34.1171 56.9008L33.5031 56.7478L33.1591 56.3678L32.7511 56.3208L32.6401 56.5108L32.8391 56.9958L32.7421 57.5808L32.8631 57.9148L33.1041 57.9818L33.3361 58.1548L33.5411 58.3868L33.1881 58.4108L33.3251 58.5958L33.4761 58.7038L33.4591 59.0908L33.3221 60.0248L32.9781 60.2248L32.8861 60.2788L32.7821 60.4808L32.5631 61.3788L32.4931 61.9628L32.5871 62.3398L33.0001 63.1338L32.8441 63.6508L32.5831 63.9318L31.4521 64.5108L31.0001 64.7428L30.2881 64.9018L29.1411 64.9288L28.7171 64.8928L27.7341 64.3648L27.0041 64.0488L26.3361 63.7978L25.6861 63.6478L25.7791 63.5718L25.8221 63.4358L25.6391 63.3598L25.5061 63.3428L25.0781 63.6158L24.8981 63.8948L24.8461 64.1398L24.8371 64.7278L24.9131 65.2228L25.2211 66.4458L25.2531 67.1128L25.1071 67.9568L25.3111 68.4548L25.5591 68.6798L26.1161 68.9028L26.3321 69.0548L26.5701 69.0308L26.6431 69.0898L26.6081 69.1988L26.4681 69.4138L26.4771 69.6408L26.8991 69.7078L27.3371 69.6618L27.7961 69.5608L27.9041 69.4028L27.9071 69.0728L27.3691 69.0148L27.4371 68.8918L27.8451 68.7578L28.3791 68.5388L28.6521 68.4978L28.8381 68.6448L28.9631 68.7798L29.1171 69.1348L29.2131 69.6038L29.2171 70.1688L29.1531 70.7018L29.0771 70.8908L28.9421 71.1178L27.9821 71.4078L27.7131 71.3318L27.4631 70.9288L27.3841 70.5118L27.1701 70.2308L26.7111 70.0078L26.2541 70.0758L25.8011 70.4628L25.3561 70.5878L25.1981 70.9408L26.3141 71.5128L26.8411 71.6728L27.0131 71.6668L27.1841 71.7418L27.0251 71.9548L26.8661 72.0868L26.0721 72.3788L25.7221 72.5828L25.3131 72.9848L24.7401 73.8638L24.5641 74.0558L24.4761 74.2798L24.4171 74.8888L24.6031 75.9038L24.4071 76.3298L24.5281 76.8038L24.4601 77.1208L24.2601 77.5778L23.4561 78.3008L23.3131 78.8308L23.5921 79.1438L23.5731 79.4178L23.4801 79.6668L23.1461 79.6638L21.9321 79.4968L21.4901 79.7688L21.0801 80.1018L20.9681 80.2608L20.8231 80.3608L19.9881 80.5388L19.8231 80.6568L18.9351 81.9318L18.5551 82.7258L18.0961 83.5078L17.9761 83.8398L17.9501 84.3008L18.0141 84.7168L18.0781 85.0238L18.2381 85.4188L18.5741 85.8698L20.2851 87.7168L20.6401 87.8788L22.4701 88.0778L22.8761 88.3368L23.1131 88.7488L23.2001 89.1128L23.0951 90.0368L22.9861 90.3268L22.7841 90.5908L22.3511 90.9308L21.8331 91.1118L21.9811 91.2408L22.1911 91.2218L22.6491 91.1118L22.8471 91.2218L22.9971 91.5888L22.7101 91.7368L22.6231 91.9158L22.4161 92.1868L21.3601 93.2708L20.7911 93.5958L20.2681 94.0328L19.5661 94.4758L19.2911 94.7308L18.9191 95.2668L18.3501 95.8518L17.7361 97.1128L17.7121 97.3578L17.8011 97.5218L17.4601 99.7528L17.3411 100.017L17.0941 100.299L16.4441 100.765L16.1311 100.823L15.7171 100.553L15.4841 100.271L15.2551 99.7888L14.9791 99.2928L14.9651 99.4698L15.0611 99.7718L14.9961 100.088L14.2901 100.232L14.1031 100.38L14.7401 100.314L15.1741 100.41L15.3581 100.525L15.5231 100.766L15.6691 101.056L15.5471 101.217L15.1991 101.35L14.7491 101.595L14.2171 102.038L13.9221 102.552L13.7951 102.922L13.6511 103.67L13.6131 104.166L13.3881 104.548L13.0411 104.893L13.0611 104.972L13.2961 104.795L13.4841 104.739L13.6461 105.199L13.8641 106.122L13.9651 106.764L13.9491 106.954L13.8841 107.216L13.4361 107.279L13.0361 107.271L12.7421 107.383L12.9001 107.499L13.1701 107.458L13.5431 107.734L13.9571 107.616L14.1461 107.801L14.2821 107.97L14.9161 109.324L15.4701 110.165L15.7501 110.665L15.6111 110.893L15.5611 110.59L15.2001 110.511L14.8481 110.43L14.2611 110.213L13.4701 109.885H12.6781L12.0491 109.608L11.3541 109.302L9.88708 109.275L8.59509 109.256L7.27109 109.237L6.4241 109.224L5.85709 109.216L5.71008 109.101L5.7601 108.721L5.55008 108.441L5.24509 108.103L4.87408 107.865L4.69009 107.546L4.4841 107.188L4.6001 106.871L4.77811 106.102L4.7811 105.764L4.62009 105.528L4.57111 105.193L4.62009 105.036L4.76511 104.917L4.85208 104.37L4.78409 103.835L4.6731 103.358L4.52609 103.148L4.3371 103.048L4.19708 103.029L3.88708 103.207L3.37308 103.162L3.19809 103.23L2.94708 103.421L2.59109 103.703L2.3931 103.605L2.33209 103.303L2.2001 103.042L2.11609 102.812L2.0531 102.433L1.94809 101.948L1.7381 101.375L1.41608 100.913L1.3981 100.498L1.3381 99.9778L1.50211 99.4728L1.4061 99.0548L1.20508 98.5578L1.26709 98.0438L1.46509 97.7598L1.5271 97.3998L2.44308 97.3428L2.40509 96.8598L2.5571 96.4698L2.72809 96.1168L2.87408 95.9568L3.2001 95.8168L3.58411 95.6138L3.80109 95.3818L3.90509 95.1738L3.96808 94.9058L3.98508 94.6208L3.92209 94.0158L3.99408 93.8298L4.23209 93.5848L4.63409 93.3678L4.8071 92.7928L4.7081 92.2938L4.48508 91.8988L4.20108 91.7208L4.17609 91.3158L4.30408 90.9318L4.4711 90.5208L4.6701 90.0498L4.65808 89.7208L4.83508 89.5288L5.33908 89.1008L5.51208 88.6828L5.68909 88.5698L5.89609 88.5198L5.90808 88.2838L5.75708 88.0498L5.73309 87.7568L5.7511 87.4328L5.79709 86.9998L6.0321 86.8378L6.3801 86.4878L6.47308 86.2658L6.48508 85.9688L6.38409 85.3568L6.2981 84.9188L6.25409 84.7578L6.0961 84.4618L5.9791 84.2748L6.16608 84.0408L6.51608 83.7958L6.66409 83.4408L6.52811 83.1398L6.33008 82.9808L6.2681 82.5208L6.3421 81.9378L6.49008 81.7618L7.0101 81.6738L7.05908 81.3748L7.45508 80.9528L7.44308 80.5498L7.1911 80.3028L6.94409 79.9048L6.76208 79.5538L6.1561 79.3618L5.51208 79.2578L5.42508 78.9268L5.4501 78.7358L5.74908 78.8128L6.2381 78.7458L6.60608 78.7308L6.86209 78.6968L7.1571 78.6488L7.42908 78.7878L7.70108 78.7008L7.8121 78.1798L7.98508 77.9028L8.0101 77.6428L7.8371 77.4358L7.52008 77.3718L6.13309 77.2078L6.09109 77.0008L6.10309 76.6538L6.15509 76.2998V76.1258L6.2811 75.9728L6.42508 75.6528L6.52609 75.4398L6.42508 75.1638L6.2041 74.7568L6.36508 74.5688L6.37808 74.3448L6.32809 74.1258L6.09808 73.8828L5.89508 73.5478V73.1918L6.13309 73.0968L6.29108 72.9878L6.32809 72.7678L6.24109 72.4968L5.91208 72.4138L5.47409 72.2478L5.34009 72.1088L5.21609 71.8188L5.30811 71.0058L5.26208 70.5168L5.22308 70.2468L5.33008 70.0388L5.4761 69.8518L5.4071 69.4168L5.2771 69.1888L5.32309 69.0138L5.44611 68.8378L5.5531 68.6208L5.64508 68.5698L5.78308 68.6938L6.01608 68.6208L6.29709 68.4458L6.32709 68.2398L6.27109 67.9458L6.0621 67.2078L5.87408 66.7528L5.91309 66.5888L5.98709 66.4168L5.9281 65.7928L5.94708 65.4168L5.96109 64.3118L5.98209 63.9358L5.7901 63.5518L5.8161 63.1928L5.95108 62.9308L6.07809 62.5768L6.1731 62.2638L6.2731 62.1228L6.44208 62.0528L6.48108 61.8818L6.40408 61.7518L6.1861 61.5488L6.13608 61.3008L6.1821 61.1108L6.28909 61.0008L6.45508 61.0018L6.58008 60.7308L6.61609 60.3968L6.64209 60.2418L6.54608 60.0468L6.47708 59.5878L6.41208 59.3278L6.48911 59.2188L6.5961 59.1788L6.7851 59.2408L6.91809 59.2088L6.9411 59.0698L6.95609 58.9208L7.00708 58.8198L7.1261 58.4838L7.25308 58.0678L7.28308 57.7748L7.2381 56.9818L7.30508 56.7998L7.4411 56.6338L7.6301 56.4778L7.87909 56.3488L8.18808 56.1628L8.56808 56.0948L8.72208 55.8888L8.8291 55.6148L8.8591 55.3898L8.7131 55.2338L8.52109 55.0478L8.43008 54.5808L8.3811 54.1498L8.35309 53.6078L8.16208 53.1428L7.9621 52.6208L7.90808 52.1568L7.9751 51.9038L8.05408 51.5018L7.97009 51.3188L7.87009 50.9918L7.97409 50.7358L8.1001 50.3388L8.08508 50.1378L7.98508 49.6588L7.8931 49.3908L7.98508 49.1048L8.1311 48.8378L8.24609 48.6948L8.22708 48.4648L8.2771 48.2758L8.49509 48.1498L8.6991 47.9158L8.84509 47.8878H9.02109L9.13608 47.8218L9.1821 47.6418L9.2131 47.4428L9.49408 47.1958L9.65909 46.9688L9.9581 46.9218L10.1041 46.6758L10.1071 46.3608L10.0731 46.0428L10.1731 45.6758L10.0621 45.1158L10.0731 44.8198L9.9581 44.5758L9.98108 44.3128L9.9191 44.1448L9.74509 44.0818L9.68109 43.8728L9.76511 43.7698L9.92908 43.6908L10.1351 43.5308L10.2891 42.7628L10.3621 42.5348L10.4331 42.2618L10.4241 42.1198L10.5231 41.9148L10.6471 41.6038L10.8421 41.3038L10.9531 41.0978L11.0611 40.8208L11.0921 40.6538L11.2301 40.5708L11.3891 40.5498L11.5761 40.4978L11.6531 40.3958L11.6391 40.2478L11.6271 39.9208L11.5711 39.4018L11.5351 38.7348L11.5681 38.2968L11.6911 37.8578L11.8061 37.6198L11.7751 37.4368L11.7441 37.2358L11.5291 37.1258L11.3251 37.2208L11.1821 37.1948L10.9991 36.9618L10.9451 36.7148L10.9761 36.3778L11.1191 36.1678L11.1751 35.9038L11.0911 35.8218L10.9111 35.6468L10.7411 35.0448L10.7621 34.5328L10.5931 34.3968L10.5141 33.9978L10.3401 33.8548L10.2711 33.5568L10.2171 33.2498L10.2401 33.1148L10.4221 33.0768L10.5251 32.8348L10.4481 32.6998L10.3101 32.5828L10.1341 32.5918L9.9761 32.4538L9.76511 31.8768L9.59808 31.5588L9.65109 31.0958L9.68408 30.7348L9.7561 30.4258L9.7821 30.1828L9.91208 30.0668L10.0351 30.1198L10.1501 30.0928L10.2561 29.8958L10.3721 29.7718L10.3651 29.6738L10.2961 29.5678L10.2631 29.3808L10.3441 29.1578L10.4841 28.6488L10.6961 28.0888L10.7871 27.8798L10.7641 27.7028L10.8101 27.6228L10.9541 27.7118L11.3631 27.6138L11.5011 27.3658L11.5551 27.1448L11.6781 27.0208L11.6241 26.8448L11.4551 26.7918L11.3531 26.7088L11.3941 26.5088L11.4541 26.0498L11.4441 25.7128L11.2901 24.9938L11.1661 24.2838L11.2531 24.0468L11.5211 23.7228L11.7241 23.5768L11.7611 23.3918L11.9621 22.5578L11.9851 22.1028L12.1171 21.8518L12.2041 21.3798L12.5681 20.9738L12.6751 20.7048L12.8211 20.6788L12.8981 20.5918L13.0911 20.2928L13.3421 19.9858L13.5581 19.8308L13.6121 19.5888L13.7151 19.2588L13.9291 18.7118L14.0491 18.3308L14.2101 18.1938L14.3981 17.6958L14.4791 17.4038L14.6941 17.2838L14.8621 17.2498L15.0231 17.3868L15.1921 17.3608L15.3461 17.1898L15.7161 17.0728L15.8831 17.0098L15.9601 16.8388V16.5388L15.8061 16.3168L15.4931 15.8918L15.2231 15.4168L15.1941 15.2678L15.1921 15.1048L15.2381 14.8988L15.3671 14.6658L15.6911 14.2818L15.6561 14.0078L15.4201 13.0008L15.3331 12.7238L15.1691 12.2108L15.1921 12.0078L15.3361 11.4418L15.4611 11.2138L15.6451 11.1718L15.7451 11.0958L15.7761 10.9948L15.6531 10.8688L15.5991 10.7088L15.5451 10.4808L15.3751 10.4008L15.2771 10.2118V9.93481L15.4301 9.57379L15.5991 9.47284L15.6681 9.31281L15.8491 9.16681L16.0141 9.05383L16.1521 8.84479L16.7211 8.58881L17.1731 8.38983L18.0551 8.00983L18.6601 7.74884L18.7181 7.56879L18.7641 7.4458L19.0441 6.52881L19.4071 5.34583L19.6341 4.60583L19.1121 4.06183L19.2041 3.91681L19.5031 3.5448L19.5651 3.24683L19.6841 3.11884L20.2201 2.8158L20.3121 2.61481L20.3591 2.39185L20.4681 2.23181L20.6721 2.19879L21.0431 2.05682L21.4411 1.92181L21.5611 1.73883L21.6741 1.42084L21.7711 1.06879L21.8481 0.98584L21.9761 0.994812L22.1891 1.08282L22.3011 1.21582L22.8581 1.63782L23.1081 1.87885L23.3461 1.91083L23.8161 1.86383L23.9111 1.87482L25.1101 1.88879L25.2931 1.90979L25.7121 2.01282L25.9491 2.09583L26.1141 2.13879L26.3791 2.2688L26.6091 2.69983L26.7381 3.04285L26.8281 3.34479L27.0291 3.87579L27.1661 4.07782L27.2151 3.9798L27.3321 3.3988L27.4931 3.06079L27.7101 2.68182L28.1471 1.79779L28.3001 1.66583L28.4701 1.60181L28.5891 1.5968L28.7101 1.66284H28.8751L28.9921 1.59283L30.1381 1.58179L31.3271 1.57184L31.3521 1.57684L31.4061 1.72882L31.6041 2.06079L31.8261 2.23682L31.8701 2.28979ZM34.0461 57.6488L34.0741 57.8768L33.9281 57.8498L33.5811 57.6318L33.4641 57.4278L33.4371 57.3418L33.7911 57.4348L33.9581 57.5198L34.0461 57.6488ZM15.0251 122.675L15.0411 121.579L15.0631 120.115L15.0671 118.818L15.0711 117.562L15.0751 116.27L15.0791 114.987L15.0841 113.624L15.0891 112.249L15.2541 112.444L15.9061 113.394L16.0761 113.784L16.1831 114.24L15.9221 113.95L15.6471 114.116L15.5111 114.388L15.3951 114.684V114.893L15.4851 115.076L15.7531 115.235L16.4041 115.289L16.4521 115.349L16.8321 116.5L17.0231 116.758L17.2451 116.963L17.7591 117.555L18.2521 118.195L18.8371 118.804L19.4671 119.273L20.0411 119.629L20.5881 120.066L21.1721 120.678L21.8071 121.124L22.4891 121.439L23.1781 121.703L24.2391 121.6L24.5681 121.628L24.7731 121.822L24.5671 122.359L24.3041 122.792L23.9531 122.971L23.5821 123.037L23.2471 123.028L22.9131 122.948L22.5991 122.993L22.2991 123.176L21.9861 123.267L21.6641 123.279L21.3501 123.433L21.0351 123.544L20.7081 123.452L19.8581 123.02L19.3061 122.917L17.4361 122.746L16.8361 122.647L16.2381 122.498L15.9251 122.491L15.4781 122.588L15.1201 122.576L15.0251 122.675ZM26.5431 122.008L26.8531 122.12L27.4651 122.035L27.7881 122.034L27.9301 122.074L27.9931 122.134L28.4151 122.04L28.6021 122.051L28.5541 122.259L28.1651 122.466L28.0051 122.378L27.1781 122.397L26.8121 122.611L26.6561 122.609L26.2951 122.914L26.0311 122.721L25.9581 122.544L26.1491 122.292L26.3291 122.287L26.4521 122.185L26.5431 122.008Z" fill="#CCCCCC" stroke="white" stroke-width="0.5"/>
</svg>
