<svg width="24" height="12" viewBox="0 0 24 12" fill="none" xmlns="http://www.w3.org/2000/svg">
<path d="M22.2777 1.99222L22.2668 2.03522L22.2507 2.19421L22.1418 2.3952L22.0237 2.65723L22.0317 2.88721L22.3327 3.68121L22.6007 4.1622L22.6507 4.34521L22.8227 4.48621L22.6597 4.66321L22.6277 4.9252L22.5217 5.04221L22.4937 5.19122L22.5387 5.32721L22.5378 5.49722L22.5967 5.73022L22.3347 5.78122L22.0237 5.77322L21.9128 5.7872L21.8087 5.85123L21.7018 5.81921L21.4197 5.60022L21.2617 5.55121L21.1497 5.56421L21.0657 5.66022L20.9207 5.78223L20.7857 5.86823L20.8157 5.94321L21.3987 6.14023L21.5017 6.4422L21.3897 6.6882L21.3517 6.8092L21.2148 6.90323L21.0477 6.98621L20.8457 7.0072L20.8217 7.14023L20.9007 7.52921L20.8367 7.61322L20.7727 7.73422L20.8327 8.05322L20.9577 8.0762L20.9857 8.14822L20.9637 8.27823L20.9417 8.41522L20.8977 8.56021L20.8757 8.62521L20.7928 8.66522L20.5347 8.64423L20.3117 8.76822L19.8637 9.21222L19.7077 9.28821L19.5378 9.46622L19.5477 9.85522L19.5247 9.8912L19.4837 9.97122L18.9487 9.83322L18.9308 9.83621L18.5717 9.8862L18.3268 10.0642L18.0298 10.1672L17.4057 10.1122L16.7987 10.1812L16.6548 10.2332L16.4977 10.2632L16.3497 10.3672L16.2647 10.5132L16.1137 10.6972L15.8987 10.8422L15.6657 10.9542L15.6097 11.0472L15.5337 11.1012L15.4027 11.0312L15.2977 11.0352L15.1687 10.9872L14.7397 10.9352L14.2697 10.8492L14.0447 10.7672L13.7907 10.7012L13.5168 10.6482L13.2717 10.6362L13.1477 10.6112L12.5587 10.4682L12.1697 10.4582L11.6567 10.3982L10.6377 10.1822L10.3407 10.0942L10.0577 10.0672L9.72171 9.99222L9.46674 9.8692L9.30371 9.63522L9.12872 9.32523L8.80972 8.91821L8.74371 8.71521L8.84174 8.5372L8.94171 8.40222L8.93073 8.34521L8.85272 8.31522L8.29172 8.48923L7.74771 8.70923L7.53372 8.71521L7.32672 8.66721L7.05072 8.66321L6.78671 8.7222L6.25671 8.75223L5.94672 8.91422L5.74872 9.22922L5.64172 9.48322L5.55173 9.56522L5.36673 9.59622L5.09073 9.5722L4.89673 9.49921L4.69873 9.28223L4.39172 9.25122L4.10971 9.24622L4.03473 9.20621L4.03973 9.06421L3.92871 8.79822L3.74472 8.71521L3.26874 9.21622L3.13873 9.2612L2.75574 9.12222L2.42072 8.9082L2.38474 8.75122L2.32971 8.62222L2.04874 8.50021L1.69772 8.41721H1.58572L1.62973 8.34122L1.67072 8.21222L1.64471 8.1102L1.56271 8.0032L1.51773 7.89023L1.50372 7.78021L1.47873 7.69022L1.46371 7.60522L1.43771 7.53922L1.66672 7.03922L1.71371 6.72821L1.51373 6.54523L1.42871 6.49121L1.49872 6.45023L1.78372 6.48422L1.96472 6.38123L2.05972 6.27823L2.31271 6.37521L2.68472 6.56921L2.85971 6.7012L2.93173 6.80222L2.97272 6.88721L2.95071 7.0332L3.03473 7.09021L3.20972 7.11121L3.32672 7.15622L3.28574 7.34821L3.27774 7.50522L3.43872 7.48322L3.64172 7.36322L3.79971 7.14621L3.89774 6.93521L3.97171 6.4212L3.99771 6.3782L4.11972 6.41821L4.61273 6.39621L4.84573 6.49222L5.21472 6.50821L5.20773 6.58823L5.27274 6.7142L5.43674 6.8952L5.51672 7.01321L5.68771 7.03421L5.95273 6.96921L6.10672 6.90121L6.16571 6.94922L6.40674 6.90222L6.62073 6.75623L6.67374 6.6452L6.88974 6.56622L7.18173 6.38522L7.58273 6.24622L8.89774 6.09622L8.94873 5.98322L8.92972 5.72421L8.96472 5.68622L9.12973 5.75021L9.39572 5.81122L9.60074 5.90222L9.73172 6.02222L9.85474 6.02722L10.0447 5.94321L10.3017 5.88922L10.5417 6.01422L10.6117 6.14822L10.5697 6.21722L10.5737 6.3262L10.6487 6.41721L10.8437 6.56522L11.0937 6.6922L11.2237 6.68222L11.2717 6.5592L11.3177 6.26422L11.3347 5.94821L11.2777 5.76721L11.1427 5.72321L10.9817 5.70822L10.8957 5.67023L10.9267 5.57123L11.0547 5.3132L11.0537 4.9682L10.7627 4.57422L10.5097 4.19321L10.5107 4.0632L10.6627 3.83722L10.8957 3.65723L11.4147 3.35721L11.5777 3.29523L11.7878 3.24521L12.0898 3.12122L12.2347 2.9942L12.3327 2.8562L12.4747 2.13721L12.5077 2.1062L12.5497 2.06421L13.0787 2.3132L13.1257 2.27121L13.2157 2.2312L13.3877 2.04022L13.4258 1.89621L13.4217 1.62122L13.4377 1.36221L13.4707 1.27921L13.5497 1.31021L13.7777 1.44421L13.9587 1.59622L14.1277 1.9772L14.5227 2.07822L15.0217 2.08823L15.1997 1.91821L15.3617 1.87921L15.5447 1.93121L15.9308 1.9902L15.9737 1.68323L16.1957 1.36221L16.2967 1.25021L16.5797 1.2612L16.6487 1.02121L16.7187 0.356201L16.7777 0.283203L16.9837 0.297211L17.1888 0.418213L17.2497 0.517212L17.3567 0.509216L17.5057 0.441223L17.6687 0.398224L17.9277 0.469208L18.4787 0.77121L18.7637 0.882202L18.9437 0.861206L19.1127 0.865204L19.7637 1.33121L20.2187 1.39621L20.6337 1.39822L20.7677 1.25821L20.9437 1.13922L21.1288 1.15521L21.2897 1.21622L21.6037 1.41821L21.7487 1.47021L21.9417 1.5032L22.0827 1.54822L22.2077 1.89822L22.2777 1.99222Z" fill="#CCCCCC" stroke="white" stroke-width="0.5"/>
</svg>
