<svg width="131" height="158" viewBox="0 0 131 158" fill="none" xmlns="http://www.w3.org/2000/svg">
<path d="M49.679 4.39487L49.577 4.13889L49.6219 4.07489L49.674 4.04086L49.7399 4.04889L49.9999 4.32288L50.1129 4.39789L50.2789 4.59686L50.6539 4.62088L51.1039 4.40689L51.314 4.49387L51.4139 4.47787L51.744 4.27487L51.9589 4.21689L52.103 4.06686L52.249 4.22888L52.575 4.41687L52.6779 4.61389L52.8159 4.70688L52.8619 4.76889L52.663 4.97589L52.6379 5.19888L52.4249 5.18387L52.1699 5.54987L51.213 6.16388L50.3539 5.63989L49.981 5.28589L49.731 4.79587L49.679 4.39487ZM68.1459 17.0779L68.1779 17.2229L68.33 17.3639L68.45 17.2299L68.387 17.1139L68.3679 16.8959L68.2139 16.6989L68.1479 16.8659L68.085 16.9049L68.0259 17.0379L68.1459 17.0779ZM74.473 19.9619L74.5959 19.9639L74.796 19.8979L74.9 19.7579L75.0089 19.7939L75.226 19.5379L75.3719 19.4119L75.7599 19.3699L75.4979 19.0449L75.4509 19.0219L75.0889 19.1479L74.6229 19.2309L74.4429 19.4059L74.257 19.6929L74.215 19.9489L74.2479 20.0299L74.473 19.9619ZM82.6909 1.12787L82.7589 0.932892L82.6379 0.837891L82.494 1.03687L82.6179 1.20486L82.6909 1.12787ZM67.062 4.60388L67.463 4.08087L67.572 3.56287L67.4349 3.59787L67.4219 3.82587L67.3749 3.97888L67.312 4.03387L67.2029 4.13089L66.9529 4.54688L66.8459 4.64987L66.8599 4.77789L67.062 4.60388ZM55.5419 3.99289L55.7659 4.43188L55.822 4.38788L55.9229 4.00787L55.8319 3.82986L55.822 3.52087L55.7809 3.43887L55.666 3.60788L55.515 3.63287L55.606 3.85687L55.5419 3.99289ZM66.4459 5.18588L66.702 4.97589L66.7269 4.85287L66.642 4.91287L66.1309 5.16687L65.887 5.45288L66.3309 5.24088L66.4459 5.18588ZM67.7579 16.7919L67.8029 16.7709L67.8799 16.6809L67.843 16.4309L67.7549 16.5509L67.7579 16.7919ZM82.588 2.50787L82.5729 2.58688L82.6049 2.76688L82.757 2.85187L82.991 2.68887L82.775 2.36887L82.588 2.50787ZM66.793 16.6639L66.825 16.7919L66.8719 16.8069L67.0399 16.7949L67.101 16.5509L67.0269 16.5209L66.8489 16.5479L66.793 16.6639ZM67.8669 12.6649L67.5909 12.5519L67.4869 12.4289L67.4739 12.3069L67.5939 11.9419L67.6689 11.8319L67.7479 11.8009L67.924 11.6009L67.882 11.4849L67.825 11.4189L67.754 11.3819L67.64 11.6449L67.5089 11.6529L67.3879 11.5339L67.335 11.3109L67.3519 11.1829L67.2219 11.1669L67.0179 11.2969L66.8799 11.5049L66.5729 11.7099L66.5359 12.1299L66.5819 12.4609L66.4819 12.6029L66.3229 12.7069L66.4009 12.7559L66.6729 12.7719L67.2039 12.9039L67.5219 12.8829L67.89 12.9399L67.994 12.8049L68.049 12.6269L68.002 12.6119L67.8669 12.6649ZM108.147 40.9639L108.212 40.9229L108.309 40.7949L108.248 40.6369L108.12 40.4129L108.152 40.2149L108.073 40.1649L107.985 40.1739L107.889 40.0969L107.646 40.0049L107.571 40.2169L107.995 40.8578L108.147 40.9639ZM113.238 47.1208L113.309 47.0359L113.327 46.8239L113.489 46.2989L114.075 44.9109L114.1 44.6479L113.928 44.4559L113.883 43.9119L113.813 43.8829L113.718 43.9159L113.599 43.9939L113.495 44.1479L113.615 44.2029L113.771 44.4789L113.73 44.7349L113.623 44.9349L113.199 45.3119L113.262 45.6489L113.236 45.8099L113.09 46.1009L113.027 46.4189L113.112 46.9689L113.238 47.1208ZM114.273 51.9659L114.334 51.9189L114.289 51.5589L114.402 51.0459L114.305 51.0209L114.158 51.0818L114.116 51.3619L114.148 51.6649L114.273 51.9659ZM114.217 52.5159L114.203 53.0179L114.289 53.1479L114.362 53.1649L114.604 52.2979L114.556 52.2539L114.314 52.1999L114.217 52.5159ZM106.123 36.5569L106.213 36.5099L106.137 36.2729L106.043 36.2198L106.033 36.3919L105.97 36.5129L106.042 36.5639L106.123 36.5569ZM104.472 36.1669L104.471 36.0349L104.427 35.7319L104.323 35.8079L104.306 36.0379L104.373 36.2579L104.472 36.1669ZM93.7719 24.5649L93.9829 24.7719L94.1079 25.0299L94.2849 25.1299L94.364 25.0239L94.4059 24.8809L94.2849 24.6639L94.2269 24.3849L94.145 24.3689L94.0939 24.4139L93.9699 24.4549L93.723 24.4449L93.7719 24.5649ZM83.0049 1.41187L83.1719 1.23587L83.0599 1.08887L82.835 1.11487L82.7689 1.25589L82.8279 1.35889L83.0049 1.41187ZM101.686 30.0529L101.744 30.0079L101.777 29.7389L101.674 29.8119L101.604 29.9099L101.549 30.0339L101.623 30.0659L101.686 30.0529ZM101.831 30.5039L101.922 30.5059L101.989 30.4729L101.993 30.4309L101.879 30.2639L101.813 30.0619L101.695 30.4489L101.831 30.5039ZM75.09 20.9249L74.947 21.0459L74.9839 21.1659L75.0889 21.1159L75.4019 21.0569L75.3719 20.9039L75.184 20.7539L75.09 20.9249ZM92.0059 88.7209L91.8369 88.5759L91.4689 88.5929L91.4429 88.6719L91.4269 88.8489L91.5829 88.9568L92.0059 88.7209ZM99.895 94.6019L99.8179 94.5329L99.5599 94.4299L99.0609 93.7709L98.8729 93.6559L98.6089 94.0399L98.4069 94.1809L98.5339 94.3269L98.7139 94.3089L98.7969 94.5489L98.754 94.7059L99.1299 95.2809L99.1929 95.4299L99.2679 95.5329L99.3579 95.6109L99.6519 95.5069L99.9019 95.2829L99.9409 95.2869L99.968 95.1809L99.765 95.0159L99.874 94.8909L99.895 94.6019ZM99.7249 96.5409L99.6729 96.5039L99.6019 96.4969L99.3889 96.5639L99.416 96.6469L99.5869 96.8259L99.7249 96.5409ZM91.0009 89.3379L91.4 89.3099L91.6359 89.4429L91.619 89.3759L91.5209 89.2068L91.447 89.1409L91.2509 89.0929L91.0009 89.3379ZM90.0349 96.5099L90.0529 96.2659L90.0319 96.2458L89.942 96.3759L89.827 96.4309L89.9319 96.8139L90.0349 96.5099ZM65.83 11.3409L65.7589 11.3879L65.7249 11.4669L65.7269 11.5709L65.9819 11.6259L66.0479 11.5939L66.1539 11.4979L66.1039 11.2549L65.986 11.1349L65.83 11.3409ZM129.642 154.991L129.471 155.948L129.497 156.168L129.591 155.977L129.779 155.325L129.816 154.83L129.642 154.991ZM99.976 95.7759L99.616 95.9629L99.2249 95.9599L99.0889 96.0469L99.116 96.1329L99.3469 96.3069L99.6599 96.3289L99.9559 96.2449L100.05 96.4749L100.194 96.4359L100.391 96.2369L100.241 95.9969L99.976 95.7759ZM100.017 102.482L99.981 102.341L99.9069 102.214V102.079L99.9459 101.791L99.8679 101.371L99.8929 100.736L99.866 100.395L99.874 100.059L99.937 99.6289L99.9199 99.1949L99.879 98.9779L99.861 98.7579L99.882 98.1339L99.6639 97.7929L99.1519 97.5199L98.9709 97.5149L98.702 97.8589L98.5469 97.8559L97.9969 97.7559L97.8779 97.8699L97.6569 98.1979L97.528 98.3369L97.34 98.2769L97.1509 98.1699L97.0059 98.1819L96.8649 98.2699L96.5479 98.3099L96.223 98.3029L96.0259 98.3969L95.8489 98.5469L95.791 98.7359L95.825 98.9539L95.65 98.7519L95.4749 98.6199L95.27 98.7619L95.056 98.8589L94.335 98.9369L93.7559 98.7689L92.9429 98.4219L92.814 98.3199L92.697 98.1899L92.5629 98.1049L92.2549 97.9759L92.1349 97.8279L91.999 97.7859L91.843 97.8069L91.6179 97.6889L91.431 97.4809L91.2659 97.4629L91.0819 97.5569L90.757 97.5429L90.127 97.3029L89.8469 97.1208L89.822 97.5289L89.6429 98.2609L89.689 98.6239L89.7889 99.0389L89.976 99.5999L89.981 99.7809L90.015 99.8879L90.4009 100.729L90.7939 101.414L91.3069 102.139L91.366 102.469L91.299 102.807L91.4659 102.785L91.5689 102.619L91.593 102.784L91.6509 102.923L92.0889 103.403L92.119 103.53L91.9529 103.927L91.8589 103.599L91.6849 103.342L91.197 102.935L91.304 103.785L91.3909 104.122L92.007 105.577L92.0909 105.671L92.231 105.735L92.3499 105.851L92.551 106.148L92.8909 106.792L93.0889 106.978L93.3749 106.919L93.796 107.05L93.9399 107.014L94.0289 107.069L94.0809 107.219L93.7509 107.216L93.4299 107.299L93.395 107.424L93.4829 107.565L93.567 107.96L93.9699 107.827L94.606 107.853L94.986 107.811L95.4089 108.17L95.788 108.237L95.8989 108.211L96.1259 107.786L96.267 107.275L96.3539 107.08L96.4709 106.914L96.2189 106.695L96.2109 106.584L96.244 106.456L96.7379 106.838L96.9399 106.684L96.9819 106.341V106.129L97.041 105.978L97.1649 105.908L97.215 105.72L97.2289 105.575L97.101 105.247L97.0889 105.058L97.3989 105.451L97.5229 105.984L97.7599 105.843L97.7939 105.759L97.757 105.39L97.8629 105.267L98.1989 105.367L98.4979 105.581L98.5189 105.68L98.499 105.78L98.4249 105.868L98.1819 105.778L98.0709 105.934L98.215 106.324L98.4589 106.698L98.606 106.602L98.9059 106.551L99.0059 106.456L98.942 105.704L98.822 105.154L98.814 104.553L98.848 104.226L98.986 103.974L99.0869 103.708L99.0739 103.365L99.124 103.041L99.2469 102.705L99.4189 102.454L99.499 102.396L99.4569 102.326L99.53 102.109L99.6599 101.95L99.739 102.145L99.6349 102.221L99.5739 102.306L99.778 102.449L99.8389 102.576L99.8599 102.716L99.8389 102.89L99.8759 103.024L99.991 103.049L100.023 102.874L99.9899 102.662L100.017 102.482ZM114.708 54.8359L114.369 54.2279L114.294 53.7509L114.175 53.3429L113.648 52.1969L113.42 51.5359L113.547 50.8719L113.328 48.7509L113.555 47.6949L113.445 47.5659L113.172 47.4029L113.051 47.2359L112.87 46.8399L112.85 46.0469L112.5 45.5589L112.122 45.3359L111.866 44.9359L111.694 44.6029L111.67 44.4179L111.566 44.1049L111.276 43.8899L111.077 43.7879L110.65 43.4749L110.441 43.1589L110.012 42.2599L109.813 42.0209L109.417 41.7629L109.093 41.7479L108.884 41.6839L108.142 41.1119L107.911 40.9869L107.725 40.7189L107.447 40.4309L107.286 40.2189L107.039 39.9939L106.87 39.1389V38.3089L106.816 37.3199L106.559 36.8429L106.42 36.6889L106.268 36.7399L106.256 37.0479L106.298 37.2579L106.191 37.2679L105.809 36.9958L105.331 36.7059L105.073 36.3819L104.885 36.0779L104.729 36.0899L104.619 36.1379L104.509 36.5119L104.688 37.1569L104.6 37.2449L104.449 37.0959L104.174 36.7589L104.031 36.8689L103.842 36.9119L103.677 36.5739L103.538 36.3609L103.337 35.6559L103.157 34.8799L103.14 34.3188L102.789 34.0109L102.652 33.4819L102.543 33.3349L102.44 32.9599L102.035 32.4698L101.619 32.1239L101.274 31.7969L100.977 31.3339L101.107 30.9989L101.318 31.0699L101.542 31.0379L101.363 30.6969L101.189 30.4679L100.744 30.0389L100.537 29.9309L100.089 29.8679L99.5909 29.4769L99.2859 29.3079L99.0709 29.2809L98.822 29.2198L98.6459 28.9989L98.335 28.9259L97.8969 28.4889L97.6819 28.0489L97.5739 27.8869L97.4269 27.7649L97.2109 27.8379L97.033 27.8708L96.6409 27.8089L96.512 27.6299L96.2589 27.4029L95.7719 27.3429L95.387 27.1999L95.093 27.0589L94.7949 26.8789L94.5209 26.5789L94.278 26.1779L94.3199 25.6639L94.3809 25.3309L94.0709 25.2019L93.5359 24.5049L93.5099 24.2198L93.6539 23.6379L93.7999 22.6359L93.5869 21.8919L93.1719 20.9849L93.2 20.5249L92.991 20.5189L92.7589 20.4289L92.4319 19.9819L92.184 19.6879L92.017 19.4169L91.8359 19.0499L91.8649 18.7559L91.908 18.5579L91.926 18.0339L91.6949 17.5249L91.6219 17.0039L91.403 16.3529L91.4639 15.9209L91.416 15.5649L91.348 15.2569L91.4189 15.0609L91.4479 14.8119L91.1459 14.5629L90.822 14.3729L90.4039 14.0369L89.653 13.5129L89.4799 13.1169L89.1619 12.7629L88.7369 12.8999L88.424 12.9649L88.132 13.2319L87.728 13.4289L87.3359 13.2509L87.15 13.1009L87.012 12.5709L86.8329 11.9929L86.681 11.7029L86.567 11.3529L86.674 10.4999L86.5139 10.0989L86.4639 9.49988L86.312 8.81589L86.1429 8.47388L86.155 8.19888L85.8409 7.79587L85.741 7.50687L85.5629 7.40289L85.3369 7.23788L85.3049 7.01688L85.322 6.85587L85.4569 6.58887L85.53 6.24289L85.215 6.15689L84.9959 6.14188L84.843 6.03287L84.671 5.86389L84.6089 5.32587L84.6149 4.75589L84.5699 4.39987L84.476 4.13489L84.4099 3.85489L84.2509 3.55688L83.7729 3.16989L83.8079 3.01389L83.9189 2.81189L83.7499 2.69589H83.502L83.3619 2.96588L83.1359 3.19788L82.6929 3.37488L82.6099 4.30289L82.335 5.32288L82.085 6.07587L82.1309 6.30386L82.111 6.52689L81.976 6.42688L81.8569 6.30188L81.6749 6.59988L81.3459 7.37286L81.3159 7.77386L81.5089 7.88187L81.6439 7.98788L81.8049 8.02289L81.8779 8.12189L81.9189 8.31589L82.0229 8.48288L81.9969 8.66388L81.8719 8.59286L81.6089 8.59387L81.4749 8.75089L81.1359 9.06488L81.2249 9.96887L81.0659 10.4449L80.913 10.8139L80.7399 11.5139L80.7629 11.8849L80.916 12.1489L81.0809 12.5349L80.981 13.0669L80.8799 13.4479L81.106 14.5519L81.1689 15.1399L81.0449 15.5409L80.681 16.7269L80.517 17.5949L80.5699 18.0739L80.4119 18.5139L80.2319 19.2179L80.0289 19.7499L79.3179 20.8239L79.1769 21.3439L78.9379 21.9919L78.4269 22.3699L78.041 22.6059L77.1949 22.8399L76.7069 22.8349L76.455 22.6919L76.3099 22.5679L75.7349 22.3609L75.0359 21.8929L74.4979 21.7409L74.2319 21.2709L74.2059 21.0759L74.1099 20.8219L73.8279 20.4879L73.296 20.3749L72.7499 20.1339L72.413 20.1679L71.6819 19.9609L71.1949 19.6659L70.7499 19.2569L70.163 18.5489L69.6649 18.3579L69.028 18.0649L68.6619 17.8209L68.4399 17.7029L68.1939 17.5199L67.9699 17.5609L67.5829 17.5659L67.34 17.3939L67.309 17.2589L67.3459 17.1529L67.3599 16.9599L67.275 16.9309H67.189L67.1179 16.9829L67.0189 17.0209L66.6769 16.8729L66.1979 16.6259L66.1079 16.4089L65.9569 16.1439L65.2949 15.7589L64.9109 15.4409L64.0629 14.9799L63.8459 14.7569L63.775 14.5619L63.7119 14.2809L63.9019 13.9889L64.0869 13.7819L64.6639 12.9229L64.8369 12.7729L65.054 12.5399L65.2529 11.9129L65.3519 11.5549L65.1829 11.0129L65.1769 10.1029L65.8469 9.74988L66.0339 9.70389L66.2069 9.62589L66.405 9.73587L66.538 9.90689L66.676 9.87589L67.0499 9.24188L66.9899 8.97787L66.835 8.75287L66.8889 8.61389L68.041 7.37286L67.9 7.06888L67.7289 6.99887L67.4009 7.01987L67.0919 6.75488L66.8979 6.25388L66.6259 6.23587L66.14 6.74988L66.0829 6.86789L66.2009 6.93488L66.304 7.24689L66.114 7.61288L65.924 7.61588L65.6119 7.57986L65.4699 7.31888L65.4059 6.92087L65.2079 6.80887L64.9819 6.88388L64.7949 7.02386L64.663 7.06387L64.5529 6.97287L64.5469 6.80688L64.8319 6.53088L65.0709 6.35388L65.09 6.28787L64.916 6.23389L64.942 6.10587L65.1639 5.87888L65.0599 5.86688L64.7889 6.10986L64.4999 6.24988L64.116 6.54788L63.5649 6.74289L63.187 7.00687L62.6599 6.92688L62.1689 6.66687L62.062 6.52988L61.8199 6.32889L61.2809 6.54688L60.942 6.52386L60.7549 6.44687L60.4359 6.39487L60.1619 6.20187L59.502 5.89389L58.801 5.83487L58.4609 5.84888L58.2079 5.68988L57.9639 5.59888L57.4849 5.53488L57.2859 5.29587L57.0349 4.81488L56.8549 4.68588L56.564 4.63989L56.2549 4.86087L56.0739 4.96487L55.7209 4.56989L55.0939 4.16187L54.8939 4.10587L54.7889 4.20486L54.713 4.39288L54.5939 4.41089L54.455 4.32587L54.21 4.08487L54.0499 4.04086L53.6299 4.29788L53.6589 4.38586L54.002 4.51688L54.3619 4.87589L54.533 4.94989L54.937 4.85587L55.491 4.92389L56.0499 5.37189L55.968 5.59488L55.926 5.90488L55.9409 6.24289L55.9279 6.47186L56.158 6.72388L56.0549 6.74289L55.7949 6.68588L55.59 6.75589L55.3969 6.87488L55.3109 7.21387L55.202 7.05386L54.8679 6.90189L54.6699 7.01889L54.338 7.17288L54.0359 7.11087L53.8439 7.03287L53.39 7.16489L52.5809 7.16089L52.3109 6.97089L52.2319 6.64487L52.1689 6.56488L52.0949 6.71088L51.968 6.87888L51.4789 6.91287L51.4059 6.98187L51.4349 7.14487L51.416 7.34988L51.228 7.36487L50.9959 7.41888L51.0209 7.66989L51.064 7.86588L50.978 7.96387L50.723 7.78488L50.6089 7.59189L50.4299 7.53189L50.2899 7.60089L50.254 7.77289L50.275 8.21689L50.1479 8.26688L49.817 8.24988L49.6649 8.33389L49.4359 8.89188L49.015 9.10489L48.9509 9.39587L48.9229 9.64389L49.2729 10.0929L49.1039 10.3229L48.926 10.5109L48.7479 10.5909L48.3699 10.6639L48.0919 10.8689L47.9749 11.0849L47.9529 11.2909L47.8759 11.5549L47.7549 11.8679L47.731 12.0369L47.478 12.2049L47.028 12.7079L46.801 13.2229L47.0969 13.5029L47.4449 13.7039L47.6979 13.6979L47.7 13.7489L47.4359 13.9559L47.5999 14.1679L47.853 14.3659L48.007 14.3949L48.1199 14.4789L47.8809 14.5259L47.5269 14.5429L47.4589 14.7589L47.502 15.0079L47.5649 15.2239L47.5209 15.3769L47.3889 15.2719L47.3309 15.1099L47.0269 14.7799L46.809 14.6789L46.4899 14.6009L46.3939 14.7009L46.4069 15.2039L46.3439 15.4349L46.231 15.3039L46.2029 14.9359L45.9019 14.6379L44.7159 14.3399L44.5479 14.3209L44.2719 14.3599L44.0829 14.4779L44.064 14.5939L43.9379 14.6879L43.7329 14.7949L43.5449 14.9589L43.4229 15.0959L43.4169 15.2669L43.5689 15.5879L43.658 15.6809L43.6459 15.8339L43.4979 15.6749L43.3679 15.6239L43.2449 15.8739L43.127 15.9239L43.158 15.2259L43.2809 14.7529L43.3809 14.4739L43.491 14.2559L43.4379 14.1409L42.616 13.4879L42.2679 12.9529L42.0129 12.6529L41.616 12.3639L41.4089 12.1819L40.9479 11.9039L40.4039 11.7109L40.142 11.4499L39.853 11.3569L39.4949 11.4839L39.465 11.7269L39.5099 11.9629L39.2249 12.3489L38.918 12.5549L38.6729 12.3189L38.45 12.1469L38.2249 12.2709L38.1569 12.4839L38.0439 12.5629L37.9589 12.4179L37.8359 12.0979L37.653 11.9709L37.4699 12.0269L37.525 12.2809L37.6299 12.4209L37.601 12.6229L37.4689 12.7159L37.4439 12.9069L37.3649 13.1609L37.377 13.5159L37.168 13.5909L37.012 13.8719L36.8989 13.8119L36.8699 13.6289L36.8129 13.4419L36.585 13.3709L36.5009 13.5449L36.45 13.6039L36.369 13.6159L36.424 13.4739V13.2079L36.4899 12.9299L36.2739 12.8299L36.1879 12.8919L36.1909 13.1319L36.1389 13.4819L35.9249 13.5369L35.7349 13.6939L35.4539 13.6969L35.3109 13.7729L35.2599 13.9579L35.0129 14.1489L35.0179 14.3779L35.184 14.6099L35.1949 14.8119L35.59 15.0169L35.567 15.2229L35.5109 15.3189L35.3619 15.2809L35.043 15.1029L34.718 15.0649L34.6199 14.9829L34.5809 15.0419L34.5789 15.1789L34.4529 15.2789L34.2719 15.2889L34.0609 15.4359L34.2109 15.6659L34.184 15.7569L34.2579 15.8669L34.58 15.8869L34.7169 15.8579L34.731 16.0539L34.6899 16.2499L34.559 16.3199L34.434 16.1399L33.8129 15.7949L33.65 15.7619L33.616 15.8699L33.645 16.0109L33.5139 16.1819L33.283 16.4059L33.1259 16.3449L32.9399 16.3979L32.8199 16.7809L32.778 17.1639L32.9839 17.4319L33.1219 17.7849L33.4089 17.3509L33.5259 17.3009L33.5269 17.4889L33.4149 17.6839L33.3489 17.9239L33.327 18.1949L33.1389 18.2019L32.9279 18.1659L32.877 18.2519L32.7979 18.4539L32.8439 18.7329L32.9839 18.8379L33.309 18.8279L33.5859 18.8479L33.8329 18.9489L33.874 19.0339L33.6509 18.9859L33.1949 19.0119L32.978 18.9739L32.5469 18.9999L32.2269 18.8409L32.0689 18.6819L31.83 18.6409L31.5969 18.7049L31.4669 18.9279L31.3099 18.9819L30.9449 18.4299L30.7159 18.3929L30.603 18.5219L30.713 18.8679L30.655 19.0809L30.53 19.2399L30.3719 19.2299L30.2739 19.2969L30.3519 19.4429L30.6019 19.8139L30.8069 19.9759L30.989 20.2009L31.0819 20.3949L31.3019 20.3859L31.353 20.5429L31.2269 20.7709L31.231 21.1329L31.1409 21.1519L31.0139 21.0719L30.762 20.8489L30.632 20.8059L30.5649 20.8699L30.5439 21.0229L30.6049 21.4229L30.476 21.9939L30.502 22.1609L30.4789 22.3029L30.3729 22.1999L30.2429 21.9789L29.9739 21.6359L29.645 20.8889L29.2969 20.3829L29.1079 19.9519L28.817 19.1409L28.666 19.1289L28.473 19.4779L28.2599 19.9369L28.1149 20.1629L27.7709 20.3879L27.559 20.6159L27.3049 20.6959L27.0259 20.9559L26.825 21.1789L26.543 21.6989L26.4949 22.0339L26.507 22.3869L26.6299 22.8879L26.7599 23.6159L26.9509 23.6938L27.1049 23.8169L27.062 24.0369L26.8279 24.1759L26.1099 24.8649L25.627 25.1109L25.489 25.2839L25.312 25.6489L25.056 26.1099L24.9399 26.4009L24.671 26.9649L24.2329 27.5948L23.7899 28.0629L23.2789 28.4379L22.9439 28.6169L21.6959 29.1409L21.03 29.3409L19.827 29.4869L19.317 29.7239L18.679 29.6469L17.965 29.5959L16.9739 30.3879L16.1519 30.5809L15.424 30.7259L15.111 30.8559L14.395 31.3129L13.978 31.5219L13.2 31.7559L12.8809 31.7319L12.45 31.5169L12.0469 31.5669L11.601 31.5359L11.2369 31.5559L10.9539 31.7339L9.28491 32.6799L8.95496 32.9379L8.61194 33.3129L8.11993 33.6599L7.72693 34.0599L6.90094 34.4769L6.05096 34.7929L5.63092 35.0559L5.33191 35.4129L4.81091 36.3729L4.70093 36.6159L4.49292 36.8689L4.21692 36.9609L4.03796 37.0429L4.10095 36.5609L3.90192 36.1329L4.04193 35.3159L3.98993 35.0719L3.70593 35.2309L3.52496 35.4049L3.06592 36.5889L2.75195 37.5119L2.98993 38.0419L3.06696 38.3499L3.06592 38.6809L2.98193 39.1569L2.98792 39.4669L2.95996 39.8799L2.38794 40.8379L2.20996 41.2549L2.01794 42.0569L1.99493 42.4289L2.00891 42.9859L2.24994 43.4739L2.43396 43.7759L2.71893 44.6499L3.06091 45.2309L3.62396 46.4019L4.24493 47.3519L4.28491 47.7159L4.21497 48.2059L4.24896 48.7129L4.13794 48.8619L3.89795 49.0369L3.62292 48.8119L3.48291 48.6169L3.30695 47.8989L3.23492 47.8578L3.11694 48.1719L2.98694 48.3089L2.86896 48.2159L2.77893 48.0969L2.75696 47.9729L2.79694 47.8249L2.83997 47.2869L2.58191 46.9799L2.35297 46.6499L2.10596 46.5688L1.95392 46.7179L1.94891 46.9229L2.27997 47.4969L2.49292 48.1189L2.82196 48.5079L3.01593 48.6078L3.23291 48.8448L3.18591 49.3699L3.02893 49.5659L2.89795 49.6659L2.47095 49.5499L2.37195 49.1719L2.03796 48.4289L1.92993 48.1409L1.83795 48.0629L1.80096 48.2049L1.80792 48.4609L1.74591 48.5709L1.68097 48.5599L1.54895 48.4259L1.42993 48.3539L1.35791 48.3789L1.48792 48.5639L1.77393 49.1119L2.82996 50.4559L3.72491 52.0219L3.92194 52.6419L4.02094 54.0059L4.10992 54.3359L4.63794 55.0149L5.15497 55.8019L5.30695 56.1938L5.30396 56.5299L5.40894 56.8489L6.05096 57.7149L6.33691 58.6449L6.37195 58.9849L6.28992 59.5688L6.36493 60.6019L6.43695 61.1639L6.66992 62.2779L6.94794 63.0818L7.27692 63.5818L7.72693 64.6938L8.41095 65.9779L8.52191 66.6129L8.48694 68.3059L8.43793 68.8578L8.28796 68.9529L8.18695 69.1859L8.33295 70.2999L8.36694 70.9359L8.14594 71.5359L7.89594 72.0688L7.45691 72.4329L6.95996 72.4449L6.72894 72.2328L6.43396 72.0159L6.38196 72.9849L6.37592 73.8169L6.46594 74.1339L6.47595 74.5079L6.80994 74.7989L6.99792 74.6859L7.22992 74.6699L8.03693 75.0818L8.48993 75.4219L9.21991 76.3359L9.86597 76.5769L10.7079 76.9929L11.6859 77.1249L12.468 77.1489L13.697 77.3679L13.96 77.2899L14.486 77.2219L14.8879 77.0799L15.2499 76.9889L16.33 76.1399L17.3829 75.2659L17.9039 75.1969L18.3709 75.1869L18.9409 74.8889L19.4589 73.9859L19.723 73.7849L20.0739 73.5599L21.0709 73.4279L21.658 73.5209L21.9719 73.3749L22.7689 73.2119L24.4269 73.0619L25.3369 73.1829L25.9449 73.1629L26.267 73.2229L26.5189 73.6179L28.278 73.2779L28.778 73.2539L29.0909 73.3109L29.4849 73.6059L29.9269 73.3269L30.3239 73.3639L30.726 73.0948L31.3369 72.2889L31.6149 71.7859L32.0599 70.7269L32.39 70.3469L32.7529 70.1579L33.179 70.0969L33.8359 69.9059L35.2609 69.0149L35.814 68.8229L36.106 68.6549L37.0869 67.9639L37.702 67.8309L39.5059 68.0099L40.361 67.9639L41.0229 67.8559L42.028 67.4839L43.1219 67.2039L44.465 66.6159L45.5869 66.0079L46.2659 65.8679L47.335 65.7609L48.9089 65.6029L50.7419 65.6849L51.2059 65.5599L51.434 65.4489L51.7549 65.3299L52.1509 65.4129L52.455 65.5029L53.3749 65.9879L54.7609 67.0089L55.067 67.0519L55.9789 66.8188L56.2839 66.8419L57.5599 67.5919L58.0889 67.6078L58.512 67.5889L58.8319 67.6699L59.1719 67.8739L59.575 68.3459L60.4279 68.7989L60.4709 69.1649L60.408 69.4029L60.2159 69.4119L60.0529 69.4629L60.2579 70.2299L60.616 70.8499L61.476 70.9339L61.7889 71.1509L61.9899 71.3959L62.1469 71.7849L62.2639 72.3939L62.6949 72.9019L63.0969 73.3359L63.1909 73.5149L63.3799 74.1299L63.452 74.3099L63.6089 74.9189L63.838 75.6149L63.775 75.6859L63.6389 75.6709L63.3969 75.4939L63.184 75.2969L63.0699 75.3279L62.9399 75.4629L62.921 75.6299L63.111 75.5859L63.2219 75.6099L63.4849 75.8229L63.7299 76.0709L63.924 76.2159L64.392 76.8339L64.575 76.6959L64.799 76.5729L65.155 76.9089L65.2969 76.9759L65.3779 76.8469L65.2429 76.2439L65.1079 76.0979L65.0759 75.8839L65.2429 75.7309L65.3239 75.5479L65.7209 75.0969L66.59 73.7499L66.8569 73.5959L67.1649 73.3009L67.5809 73.0759L68.0109 72.8089L68.2849 72.7049L68.554 72.6499L68.8549 72.4029L69.1829 71.7349L69.4299 70.9438L69.6939 70.5959L70.098 70.2249L70.4089 69.7099L70.3839 69.3069L70.3879 68.8959L70.6119 69.2129L70.7529 69.5349L70.976 70.6119L70.7849 70.8489L70.5829 70.9679L70.6219 71.3459L70.757 71.8389L70.8069 72.2339L70.3829 72.6509L70.017 73.1749L69.5779 74.1929L69.5499 74.5009L69.481 74.9289L69.507 75.3059L69.575 75.6709L69.4669 76.2369L69.2899 76.7429L69.0579 76.7559L68.9 76.7369L68.5529 76.7819L68.2329 76.7519L67.866 77.8578L68.0989 77.9099L68.2769 77.8469H68.598L68.9569 77.6489L69.4819 77.4869L69.7819 77.5439L70.1339 77.5259L70.6459 76.1099L70.7729 75.1889L71.0339 74.7759L71.1149 74.4909L71.2499 74.2209L71.5219 74.6849L71.741 75.1359L72.223 75.8679L72.374 76.2328L72.434 77.1208L72.1209 78.1509L71.9329 78.4459L71.7059 78.7029L71.5159 79.1359L72.0909 79.2458L72.4639 79.2379L73.0469 78.9229L73.1619 78.8809L73.455 78.8759L73.567 78.7109L73.8539 78.5539L74.0679 78.3699L74.3449 78.2249L74.5969 78.3209L74.6539 78.4039L74.7169 78.4969L74.624 78.7009L74.616 79.1319L74.4509 79.0849L74.304 78.8289L74.1199 78.8949L73.9919 79.0879L73.7169 79.0269L73.7629 79.1529L73.9099 79.3999L74.491 79.8759L75.1119 80.5069L75.343 80.8049L75.8489 81.7559L76.2089 82.7669L76.1799 83.0659L76.0029 83.6059L75.8759 84.1549L75.887 84.4429L76.004 84.8079L76.2589 85.1819L77.205 86.2029L77.705 87.1029L78.3699 87.5699L79.447 87.7419L80.0159 88.0799L80.6069 88.7619L80.7949 88.8199L81.0819 88.8479L81.45 88.4329L82.0109 88.4769L82.749 88.8889L83.1879 88.7909L83.5009 88.8419L83.939 89.0749L84.58 89.5359L85.2599 89.7679L85.6639 90.1169L85.978 90.1689L86.541 90.3959L86.955 90.2019L87.3069 89.9579L88.1199 89.1129L88.757 88.7059L89.0919 88.5479L89.361 88.4779L89.702 88.2139L89.4899 88.0279L89.2889 88.0589L88.9449 87.9539L89.1409 87.8318L89.3459 87.7409L90.3359 87.1129L90.5989 87.2989L90.7809 87.5069L90.978 87.7919L90.83 88.1949L90.6979 88.3849L90.3929 88.6899L90.025 88.7019L89.8499 88.6769L90.213 89.0189L90.5269 89.2489L91.1769 88.8309L91.3389 88.5019L91.4619 88.3109L91.668 88.2689L91.976 88.3329L92.0949 88.5739L92.1619 88.8679L91.939 88.9479L91.8309 89.1659L91.7549 89.3729L92.1429 89.6389L92.3419 89.8079L92.5819 89.8039L92.8589 89.8448L93.0689 90.2359L93.265 90.6869L93.4969 90.5619L93.642 90.4438L93.89 90.5569L94.1599 90.9119L94.379 91.3149L94.4009 91.4849L94.5689 91.5629L94.728 91.4429L94.804 91.2729L94.7979 90.9599L94.7549 90.4659L94.6439 90.3909L94.3909 90.6589L94.2469 90.4649L94.0529 90.2589L94.056 90.0599L94.267 89.9609L94.4459 90.0039H94.6699L95.8519 89.8309L97.364 88.2458L98.0259 87.6649L98.7139 87.2339L99.426 86.9568L99.7969 86.8679L101.709 86.7189L102.704 86.7669L103.216 86.6579L103.453 86.5119L103.855 86.1129L104.137 85.8689L104.483 85.8009L104.567 85.5029L104.568 85.1839L104.634 84.8509L104.533 84.2259L104.56 83.4049L104.638 82.9769L104.847 82.3759L104.939 81.7589L105.033 80.8849L105.116 80.3669L105.22 79.8939L105.491 79.3729L105.721 79.0359L106.264 77.7679L106.452 77.6429H106.609L106.677 77.5659L106.698 77.4958L106.652 77.4449L106.583 77.2979L106.629 77.1789L106.794 77.0609L106.846 77.1059L106.93 77.0809L106.943 77.0159L106.865 76.6689L106.979 76.1829L107.118 75.3339L107.275 74.9529L107.368 74.6499L107.731 74.1949L108.128 73.7469L108.015 73.6989L107.829 73.6649L107.949 73.5579L108.044 73.5259L108.165 73.5969L108.265 73.3999L108.287 73.0909L108.384 72.6349L108.298 72.2379L108.482 72.1139L108.691 72.0389L108.779 71.6229L108.837 71.4559L108.967 71.3009L109.185 70.9698L109.356 70.6249L109.761 69.9669L110.157 69.6979L110.747 69.4899L110.813 69.3708L110.663 69.2979L110.669 69.2259H110.891L110.981 68.9958L111.215 68.8259L111.606 68.4339L111.736 68.0739L111.817 67.7859L111.856 67.1349L112.492 66.2809L112.935 65.1279L113.042 64.3889L113.152 63.9899L113.226 63.4059L113.159 62.7979L113.178 62.2889L113.62 60.9969L113.721 60.4639L113.857 60.1219L114.066 58.8489L114.07 58.1889L114.39 57.4209L114.789 56.7959L114.823 56.2179L114.689 55.7739L114.708 54.8359ZM48.9109 5.87387L49.4329 5.72287L49.9529 5.90488L50.244 5.85089L50.2339 5.72787L50.1699 5.62488L50.064 5.52789L49.8329 5.46088L49.7589 5.21188L49.6259 4.97787L49.6019 4.72186L49.4969 4.48587H49.3729L49.2499 4.55289L48.9739 4.88586L49.0709 5.06787L49.0999 5.40088L48.9359 5.51086L48.7479 5.46487L48.6669 5.76889L48.7609 5.87689L48.9109 5.87387ZM1.20294 47.6599L1.20197 47.4438L1.10193 47.2349L0.782959 46.3219L0.682922 46.3569L0.574951 46.4759L0.731934 47.1359L1.27094 48.1029L1.34491 47.9749L1.24792 47.7289L1.20294 47.6599ZM7.53491 32.1859L7.69794 31.9529L7.72894 31.7399L7.66492 31.5959L7.43994 31.8289L7.31091 32.0219L7.33691 32.1399L7.53491 32.1859ZM33.1749 16.1969L33.275 16.2219L33.3799 16.1399L33.4019 16.0089L33.288 15.8769L33.2499 15.7599L33.1609 15.7519L33.1179 15.8239L33.0579 15.9629L33.1729 16.0849L33.1749 16.1969ZM35.0679 13.7659L35.0529 13.6879L35.0659 13.4639L34.9589 13.4099L34.84 13.5139L34.767 13.8019L34.8889 13.9459L35.0679 13.7659ZM97.2429 106.164L97.1719 106.295L97.1489 106.413L97.085 106.476L97.202 106.559L97.2329 106.747L97.2969 106.779H97.473L97.369 106.309L97.2429 106.164ZM97.1299 106.931L97.0499 106.926L96.9099 107.124L96.8699 107.281L96.8099 107.311L96.7709 107.421L96.71 107.507L96.546 107.44L96.5469 107.51L96.684 107.776L96.9019 107.711L97.1199 107.779L97.252 107.379L97.2139 107.184L97.1299 106.931ZM99.4609 104.393L99.2639 104.306L99.1229 104.486L99.1459 104.573L99.142 104.769L99.1949 104.786L99.3519 104.752L99.3409 104.639L99.5339 104.529L99.4609 104.393ZM70.7949 79.5159L70.5339 79.6399L69.8619 79.5589L69.8669 79.5019L69.9709 79.2759L69.8289 79.1509L69.676 79.0989L69.1249 79.0559L68.4449 79.3009L67.174 79.5939L67.0059 79.7999L66.8989 80.0809L67.0359 80.2369L67.5009 80.5749L67.9429 80.6208L68.2599 80.5419L68.6019 80.5948L68.7759 80.3989L69.2599 80.5319L69.4459 80.7189L69.8439 80.5539L69.934 80.2469L70.0709 80.1078L70.533 80.0039L71.028 80.1409L71.181 80.1169L71.3409 79.9499L71.1249 79.6149L70.7949 79.5159ZM88.1729 93.8708L88.09 93.3359L87.8359 93.1259L87.6899 93.1389L87.663 93.4089L87.4949 93.5609L87.4459 93.6989L87.455 94.0119L87.3809 94.3029L87.5189 94.5929L87.486 94.8859L87.5499 95.0919L87.632 95.0769L87.9319 94.9389L88.1489 94.7339L88.2299 94.4839L88.132 94.1929L88.1729 93.8708ZM30.5679 7.61688L30.5659 7.58789L30.5029 7.58289L30.5049 7.61188L30.5679 7.61688Z" fill="#CCCCCC" stroke="white" stroke-width="0.5"/>
</svg>
