<svg width="18" height="14" viewBox="0 0 18 14" fill="none" xmlns="http://www.w3.org/2000/svg">
<path d="M12.019 0.86203L12.277 1.07904L12.7241 1.66702L13.3611 2.62103L13.5171 2.89102L13.6201 3.20303L13.709 3.58002L13.855 3.91302L14.501 4.75003L14.7801 5.05902L15.235 5.45703L15.397 5.54602L15.6091 5.57104L16.0001 5.57202L16.36 5.72803L16.5381 5.83704L16.722 5.99503L16.8871 6.17804L17.053 6.66403L16.428 6.50403L15.798 6.52902L15.4431 6.63303L15.097 6.77603L14.7661 6.97702L14.5591 7.36804L14.3851 8.27002L14.1301 9.11102L14.139 9.49902L14.2501 9.87204L14.2371 10.048L14.121 10.123L13.975 10.281L13.7801 11.047L13.683 11.2L13.558 11.295L13.524 11.205L13.532 11.004L13.2571 10.827L13.1121 11.026L13.011 11.447L12.8101 11.888L12.8 11.972L12.85 13.331L12.7701 13.325L12.1951 13.463L12.0751 13.419L11.5831 12.793L11.4811 12.724L11.269 12.696L11.144 12.593L11.0431 12.425L10.985 12.3L10.4761 11.96L10.4011 11.835L10.3901 11.725L10.4651 11.626L10.5511 11.543L10.8 11.458L11.0901 11.385L11.183 11.332L11.23 11.241L11.2271 11.095L11.1801 10.951L10.7631 10.69L10.717 10.577L10.704 10.439L10.7271 10.294L10.7921 10.181L11.1321 10.027L11.3141 9.86703L11.201 9.68903L10.834 9.28204L10.3981 8.83405L10.1071 8.83002L9.77203 8.96204L9.23608 9.34402L8.94006 9.50702L8.55304 9.77704L8.13208 10.077L7.78705 10.395L7.57208 10.658L7.19006 10.772L6.99506 10.992L6.35406 11.65L6.17407 11.642L6.16309 11.315L6.17206 11.056L6.13104 10.907L5.92303 10.702L5.92004 10.614L5.97607 10.559L6.13507 10.592L6.34009 10.58L6.43805 10.499L6.21906 10.229L6.02405 10.048L5.85907 9.92603L5.82208 9.85303V9.80103L5.85706 9.73904L6.13904 9.59003L6.16705 9.45303L6.14807 9.30002L5.70007 9.07404L5.36505 9.15704L5.06409 8.90305L4.87103 8.70703L4.63007 8.49603L4.41504 8.38004L4.20807 8.11502L3.84906 7.84204L3.61908 7.76404L3.62207 7.72202L3.66406 7.67203L3.76007 7.63004L4.40009 7.64102L4.47809 7.59204L4.51807 7.47403L4.60504 7.30002L4.70703 7.04404L4.69904 6.82803L4.05609 6.47903L3.59009 6.15704L3.26709 5.73303L3.04803 5.34402L3.05609 5.21304L3.11908 5.08902L3.61908 4.73004L3.65308 4.63702L3.64209 4.57404L3.46307 4.39005L3.23907 4.20004L3.16907 4.06003L3.02808 3.98904L2.76007 3.98404L2.29004 3.75003L2.19006 3.72702L2.16809 3.68103L2.19104 3.63403L2.52606 3.53903L2.52106 3.46103L2.41907 3.35803L2.23004 3.28302L2.05609 3.09604L1.99603 2.92804L2.60107 2.43604L2.78009 2.33704L3.17609 2.42804L3.99908 2.75504L3.94305 2.93604L4.02606 3.03802L4.21509 3.17603L4.57806 3.31604L4.88507 3.38803L5.04004 3.32602L5.27606 3.27402L5.58307 3.43604L5.86609 3.64102L6.00708 3.72403L6.08307 3.74902L6.29803 3.68103L6.55609 3.41702L6.65808 3.09802L6.68604 2.94403L6.53607 2.73203L6.22607 2.50204L5.87909 2.30002L5.65607 2.12103L5.51306 1.76804L5.36908 1.72903L5.33307 1.68304L5.30908 1.56204L5.31506 1.39404L5.36407 1.26404L5.50507 1.20804L5.64703 1.18802L5.77509 1.06403L5.93604 0.821045L6.00409 0.686035L6.30609 0.763031L6.34705 0.981018L6.40106 1.02704L6.52606 1.00104L6.73407 0.910034L6.90009 0.980042L7.11407 1.23904L7.40906 1.51202L7.56903 1.69604L7.63208 1.82202L7.78308 1.94504L8.00409 2.08902L8.18005 2.31503L8.33704 2.83902L8.49603 2.96002L9.06506 3.15903L9.26508 3.20004L9.82404 3.27002L10.0211 3.22003L10.3091 2.76904L10.5681 2.30402L10.8101 2.20703L11.2471 1.98203L11.509 1.76904L11.6191 1.53903L11.8661 1.10504L12.019 0.86203ZM3.54205 5.42902L3.57007 5.30704L3.49109 5.25204L3.40808 5.24902L3.33606 5.31003V5.46204L3.43604 5.48904L3.54205 5.42902ZM2.05804 3.91003L1.99707 3.95203L1.90405 3.91003L1.87604 3.81604L1.88306 3.71704L1.97504 3.69403L2.05005 3.72202L2.07104 3.81104L2.05804 3.91003ZM5.11908 11.749L4.57806 11.641L3.60504 11.408L3.33704 11.288L3.08405 10.965L2.93304 10.809L2.71008 10.609L2.52606 10.533L2.38708 10.393L2.30804 10.186L2.19104 10L1.99109 9.78104L1.53607 9.03604L1.47705 8.95804L1.38208 8.83405L1.34009 8.76505L1.61707 8.70804L2.07806 8.54102L2.20404 8.62204L2.33905 8.79102L2.40704 8.93604L2.41907 9.20404L2.47406 9.24704L2.69904 9.15704L2.80005 9.26505L2.97308 9.39404L3.27307 9.52203L3.70508 9.32104L3.92004 9.26904L4.09705 9.27304L4.19305 9.33603L4.22705 9.54404L4.19208 9.80103L4.14209 9.94202L4.23303 10.044L4.58704 10.291L4.73407 10.428L4.66309 10.665L4.92706 11.244L5.01605 11.469L5.11908 11.749Z" fill="#CCCCCC" stroke="white" stroke-width="0.5"/>
</svg>
