<svg width="12" height="12" viewBox="0 0 12 12" fill="none" xmlns="http://www.w3.org/2000/svg">
<path d="M4.18225 0.61084L4.76227 1.02686L5.00122 1.08884L5.13623 1.03186L5.31921 1.05786L5.72723 1.17984L5.82025 1.23083L5.94324 1.22183L6.24426 1.05984L6.34723 1.07983L6.69122 1.39786L6.86426 1.40186L7.07227 1.26486L7.20624 1.14584L7.60223 1.23483L7.82825 1.18085L8.01624 1.17584L8.22021 1.22986L8.40625 1.30383L8.58722 1.36786L9.07623 1.40085L9.31024 1.60284L9.40424 1.79785L9.40625 1.91684L9.42926 2.04385L9.56323 2.16885L9.85822 2.23984L10.0433 2.22485L10.1412 2.21585L10.3923 2.10385L10.6882 2.04584L10.9003 2.11285L11.0012 2.17786L11.0242 2.26685L10.9612 2.57385L10.8422 2.90384L10.6492 3.24686L10.4473 3.56985L10.3953 3.73984L10.3802 4.01184L10.3552 4.22485L10.3832 4.34085L10.4492 4.44986L10.6722 4.53586L10.9742 4.74985L11.2302 5.02786L11.5593 5.34283L11.6613 5.45984V5.58585L11.5652 5.67883L11.2842 5.71484L10.9922 5.68686L10.8802 5.65485L10.7753 5.69284L10.7103 5.76486L10.7452 5.84985L11.0443 6.23184L11.3932 6.77884L11.4122 7.01385L11.3702 7.19785L11.2892 7.32584L11.1453 7.30383L11.0342 7.20386L10.8672 7.21085L10.7372 7.23886L10.5682 7.43686L10.4843 7.42786L10.3392 7.45786L10.2482 7.49686L10.1033 7.43884L9.95026 7.40085L9.88422 7.46185L9.85522 7.57785L9.94922 7.78683L10.1262 8.11386L10.0983 8.36386L9.96326 8.39084L9.83923 8.18286L9.73022 8.14883L9.60522 8.15686L9.31921 8.39786L9.10822 8.60086L9.06024 8.74185L8.98425 8.89584L8.96124 9.00784L8.96625 9.37885L8.58722 9.43784L8.50824 9.49286L8.46222 9.60486L8.49323 10.0798L8.52423 10.3348L8.74127 10.7268L8.74927 10.8509L8.71826 10.9329L8.56323 11.0879L8.49023 11.1439L8.44122 11.1618L8.18927 11.0598L8.06921 11.0108L7.56427 10.6649L7.34125 10.4718L6.98822 10.2198L6.77124 10.0758L6.66125 9.85785L6.48724 9.80786L6.28326 9.87784L6.05225 9.71985L6.21625 9.63885L6.25623 9.56085L6.23523 9.45886L6.16327 9.32086L5.53925 8.72284L5.23224 8.31284L5.18323 8.16583L5.17822 7.77383L5.10626 7.67984L4.64722 7.50085L4.13525 6.98984L3.60522 6.48685L3.53326 6.34683L3.26123 5.96585L2.92822 5.61884L2.66327 5.39685L2.44623 5.14484L2.20526 4.79083L2.08026 4.25586L1.96924 3.77985L1.89423 3.59485L1.74127 3.52884L1.26727 2.96185L0.864258 2.63184L0.868225 2.27484L0.934265 1.67786L1.00922 0.99884L1.10626 0.903839L1.29022 0.852844L1.50024 0.871857L1.68323 0.956848L2.04523 1.42184L2.25226 1.60284L2.42725 1.67285L2.62823 1.47684L2.87622 1.06586L3.09326 0.848846L3.82324 0.927856L4.18225 0.61084Z" fill="#CCCCCC" stroke="white" stroke-width="0.5"/>
</svg>
