<svg width="14" height="19" viewBox="0 0 14 19" fill="none" xmlns="http://www.w3.org/2000/svg">
<path d="M13.5103 14.8208L13.5323 14.9348L13.5363 15.9308L13.5613 16.3557L13.6513 16.7057L13.6693 16.8387L13.5803 16.9467L13.4923 16.9677L13.4093 16.7988L13.2213 16.6698L12.9433 16.5318L12.8253 16.4398L12.6823 16.4767L12.4813 16.6858L12.4013 16.8798L12.4363 17.1518L12.4993 17.4198L12.6393 17.5728L12.6503 17.7418L12.7003 17.9608L12.7723 18.1608L12.8063 18.3777L12.7603 18.3817L12.5933 18.1038L12.4433 17.8028L12.0543 17.2328L11.9273 16.2108L11.9193 15.7047L11.6523 15.1088L11.4753 14.2827L11.4043 14.0677L11.4973 13.7997L11.5133 13.6998L11.4633 13.7217L11.3273 13.8597L11.1503 13.5298L11.0343 13.2338L10.5763 12.6208L10.4433 12.3498L10.4373 12.0847L10.2393 12.3508L9.97028 12.5378L9.69629 12.8188L9.51428 12.9037L8.93732 12.9557L8.60333 12.5797L8.12433 11.6588L8.06128 11.4507L8.12433 10.9077L8.01031 10.3928L8.01233 10.1218L7.97833 9.93976L7.89233 9.97977L7.85931 10.1048L7.8783 10.2957L7.84332 10.4557L7.42932 10.4247L7.03931 10.3517L7.38232 10.6227L7.75128 10.6858L7.94128 10.9278L7.96429 11.1168L7.95233 11.3297L7.76428 11.4788L7.59131 11.5728L7.62231 11.7768L7.83228 12.0247L7.57831 12.0948L7.50928 12.2567L7.5033 12.4878L7.63129 12.6917L7.68231 12.8427L7.65131 12.9818L7.77533 13.1308L7.95532 13.4438L8.01331 13.6657L7.93829 13.9788L7.83533 14.1008L7.67029 14.2188L7.28229 14.6128L7.09229 15.0608L6.93134 15.2697L6.72931 15.3087L6.65131 15.2168L6.48431 15.0967L6.48029 14.8777L6.53131 14.7047L6.87231 14.2858L6.68628 14.3418L6.47632 14.4618L6.15631 14.6888L6.05432 14.4077L5.9873 14.1478L5.98633 13.8288L6.24329 13.3517L5.95233 13.5898L5.87231 13.8867L5.90833 14.2368L5.8703 14.4847L5.75732 14.8078L5.60229 15.0018L5.35229 15.1268L5.24231 15.3177L5.07428 15.4578L5.06927 15.1778L5.01532 14.8078L4.83429 13.9287L4.79529 14.1178L4.88928 14.6628L4.8833 15.0168L4.74628 15.2968L4.47131 15.5967L4.26031 15.6388L4.13629 15.5927L3.9483 15.4068L3.74231 15.1407L3.70831 14.7128L3.62329 14.4778L3.63629 14.1967L3.61932 13.9308L3.39832 13.2177L3.25531 12.8517L3.27332 12.7338L3.26331 12.6837L3.19733 12.2118L3.10529 11.9228L3.05933 11.6147L3.27728 11.1718L3.18933 11.0998L2.93829 11.0407L2.70532 10.9637L2.64832 10.8488L2.75232 10.4117L2.63129 10.2408L2.45728 10.0677L2.40228 9.99875L2.3443 9.90875L2.26428 9.68875L2.41931 9.22577L2.63629 8.68774L2.67529 8.48276L2.7113 8.12677L2.73132 7.98975L2.70331 7.85477L2.4743 7.69876L2.07129 7.63574L1.78632 7.50476L1.6203 7.30676L1.47833 7.22775L1.30328 7.28674L1.08032 7.20975L0.893311 7.01276L0.737305 6.77374L0.757324 6.66174L0.798279 6.51276L1.09229 5.89276L1.20129 5.87375L1.4563 5.99277H1.55133L1.71832 5.74774L1.95233 5.04877L2.28229 5.05075L2.5733 5.07275L2.76929 5.10876L2.96429 5.08676L3.16931 5.03076L3.28033 4.94275L3.34131 4.83075L3.32031 4.73376L3.06927 4.60175L2.97229 4.50275L2.90228 4.22174L2.82928 4.11676L2.3363 4.10175L2.08032 3.97275L1.93933 3.85675L1.68933 3.47375L1.37933 3.18976L1.08331 3.12274L0.969299 3.03076L0.907288 2.88477L0.942322 2.67377L1.03131 2.48175L1.09332 2.26776L1.32928 1.98474L1.60632 1.73776L1.73029 1.56775L1.90533 1.38876L1.92633 1.29074L1.8963 1.17874L1.75433 1.07175L1.65533 1.03775L1.63928 0.96875L1.70728 0.783752L1.84229 0.760742L2.12329 0.928741L2.4093 1.19977L2.57831 1.44174L2.58533 1.63275L2.69531 1.66376L2.80634 1.67075L2.99231 1.75476L3.18433 1.72977L3.30829 1.77676L3.3913 1.75977L3.4223 1.64975L3.32928 1.48776L3.26129 1.37274L3.33929 1.25674L3.42828 1.23376L3.52728 1.26276L3.66229 1.36676L3.76129 1.57974L3.78033 1.91077L3.99933 2.20975L4.28833 2.42175L4.51428 2.51974L4.78632 2.58975L5.01929 2.52277L5.13531 2.31476L5.08228 2.12775L5.11932 1.96075L5.21228 1.86874L5.35828 1.87476L5.46631 2.00674L5.78333 2.72076L5.71832 3.03674L5.78931 3.90277L5.70929 4.47275L5.72229 4.59576L5.75928 4.69077L5.81329 4.72977L5.90631 4.72876L6.2923 4.83575L6.61731 4.95474L6.98431 5.06274L7.51428 5.14676L7.83929 5.11975L8.00128 5.11676L8.33032 5.14175L9.19427 5.09674L9.9093 5.08475L10.2003 5.16675L10.4333 5.19577L11.2293 5.13876L12.0333 5.11176L12.4683 5.29276L12.9423 5.58777L13.2093 5.80676L13.2573 5.93176L13.2283 6.03876L13.1393 6.09775L12.9753 6.09976L12.6003 5.95676L12.5363 5.99875L12.5433 6.29074L12.5313 6.33676L12.4513 6.59875L12.2253 7.18774L12.1813 7.45074L12.1333 7.51776L12.0743 7.55475L11.8973 7.56476L11.7583 7.60776L11.7003 7.70377L11.6103 7.90176L11.5473 8.10175L11.4613 8.16376L11.2543 8.05576L11.1253 8.07275L10.9633 8.11874L10.8013 8.23276L10.6903 8.37476L10.5643 8.42276L10.1883 8.39474L10.1173 8.41476L10.0693 8.51575L10.0313 8.64276L9.73828 8.94275L9.62732 9.42377L9.53729 9.73575L9.55231 9.97775L9.79932 10.6088L9.97229 11.4268L10.0383 11.5098L10.0963 11.5358L10.1223 11.5168L10.1163 11.3477L10.1273 11.1428L10.2083 11.0948L10.3123 11.1367L10.4113 11.3148L10.5223 11.6407L10.6413 11.7688L10.8273 11.8047L11.0383 11.7278L11.1953 11.5807L11.2593 11.4207L11.2143 11.1068L11.2043 10.8718L11.3053 10.6478L11.6673 10.3138L11.7193 10.2108L11.6963 9.92575L11.6973 9.65775L11.8343 9.63977L12.0193 9.68277L12.2513 9.55176L12.3223 9.54877L12.4203 9.68976L12.5853 9.66574L12.7073 10.2477L12.8323 10.7607L12.8333 10.9998L12.8543 11.5237L12.9113 11.9507L13.0003 12.0478L13.1043 12.2758L13.2003 12.5407L13.2753 12.6888L13.3263 13.1718L13.3893 13.5197L13.4723 14.6118L13.5103 14.8208ZM8.08533 11.8467L8.13531 11.9767L7.97931 11.8987L7.8623 11.8087L7.79028 11.6888L7.91229 11.6258L8.08533 11.8467ZM8.46631 14.4857L7.97833 14.5918L7.72931 14.5587L8.19427 13.7678L8.17828 13.4138L8.10632 13.1248L7.8703 12.8928L7.8573 12.7267L7.75128 12.4998L7.69629 12.2338L7.95831 12.1487L8.17133 12.3008L8.20129 12.3848L8.24731 12.6017L8.35229 12.8278L8.72028 13.2928L8.71332 13.5778L8.6123 14.2728L8.46631 14.4857ZM10.6523 13.6038L10.5223 13.6927L10.4003 13.6158L10.2443 13.3217L10.3213 12.9498L10.3703 12.8968L10.4483 13.0178L10.5573 13.2768L10.6283 13.4738L10.6523 13.6038ZM9.51331 14.2278L9.21631 14.4388L9.31329 13.1888L9.53528 13.6548L9.59131 13.9037L9.51331 14.2278ZM11.5423 15.2598L11.4403 15.5058L11.3903 15.3268L11.4333 15.0998L11.4773 14.9748L11.5063 14.9758L11.5663 15.1048L11.5423 15.2598ZM11.7543 16.2328L11.5853 16.2468L11.5023 16.1577L11.5413 16.0327L11.4953 15.6298L11.6383 15.5878L11.7113 15.5898L11.7523 15.7088L11.7903 15.9268L11.7543 16.2328Z" fill="#CCCCCC" stroke="white" stroke-width="0.5"/>
</svg>
