<svg width="12" height="10" viewBox="0 0 12 10" fill="none" xmlns="http://www.w3.org/2000/svg">
<path d="M7.21613 0.64386L7.22913 0.736847L7.30612 0.775848L7.57513 0.755859L7.71112 0.586853L7.81912 0.480835L7.89911 0.552856L7.93811 0.760834L8.01212 1.03085L8.33313 1.33286L8.60413 1.41885L8.93811 1.35983L9.07013 1.30585L9.16013 1.35086L9.24911 1.51083L9.44012 1.69284L9.84412 1.82285L9.96713 1.89584L10.0531 2.01886L10.0281 2.19284L9.83612 2.62784L9.81113 2.75586L9.83713 2.79886L9.79913 2.87885L9.54913 3.16986L9.52713 3.27185L9.61011 3.43884L9.67911 3.57684L9.68112 3.54984L10.0641 3.42484L10.2371 3.67584L10.5211 3.68484L10.5551 3.76584L10.8741 3.99985L10.9721 4.18484L11.2011 4.36386L11.0111 4.58984L11.0401 4.69086L11.1081 4.79385L11.3661 4.85385L11.4951 5.00186L11.5031 5.22885L11.5621 5.59683L11.0301 5.96286L10.8791 6.37085L10.8651 6.45084L10.8471 6.43884L10.7891 6.30383L10.6921 6.30585L10.4721 6.24884L10.1651 6.61685L10.0261 6.92285L9.94412 7.14685L9.82013 7.32785L9.79514 7.51886L9.81113 7.59985L9.76913 7.70285L9.76712 7.81186L9.94312 8.02484L9.98813 8.14084L10.2031 8.51984L10.1361 8.65686L10.0831 8.80585L10.0211 8.91183L9.94812 8.97885L9.72614 8.97485L9.44412 9.02185L9.25412 9.09683H9.15613L8.95212 8.90884L8.72412 8.62686L8.58011 8.49185L8.51413 8.37585L8.33511 8.32684L8.08011 8.18784L7.90314 8.03586L7.75113 7.94086L7.53711 7.89386L7.36011 7.89883L7.30911 7.64285L7.28711 7.35086L7.14313 7.15384L7.34113 6.38583L7.22311 6.31085L7.09512 6.37186L6.90912 6.55585L6.82013 6.77383L6.76712 6.96783L6.45511 7.15085L5.96011 7.21783L5.41913 7.15085L5.34512 7.10184L5.31012 7.04584V6.97885L5.34711 6.87485L5.44113 6.74783L5.46512 6.56784L5.36813 6.41183L5.30511 6.35086L5.33011 6.19986L5.40112 6.01083L5.41611 5.90186L5.04913 5.57486L4.78412 5.51083L4.52713 5.49884L4.33212 5.46185L4.21811 5.47784L4.13712 5.57285L4.05411 5.64185L3.99213 5.55984L3.87811 4.97784L3.79013 4.88986L3.45813 4.79184L3.00613 4.75684L2.88611 4.65085L2.82013 4.38785L2.77814 4.07184L2.63013 3.76785L2.55411 3.69086L2.41913 3.55685L2.18314 3.61185L1.90012 3.78885L1.73312 3.83685L1.66913 3.85583L1.44412 3.68384L1.19012 3.41486L0.987122 3.12885L0.93811 2.96985L1.00012 2.77686L0.926117 2.62885L0.817108 2.35785L0.786133 2.14584L2.00711 1.39386L2.75113 1.00784L3.10211 0.890839L3.18613 1.27884L3.25012 1.40186L3.33313 1.48184L3.44312 1.49783L3.57013 1.40186L3.74811 1.30084L4.03311 1.34784L4.24011 1.44086L4.31311 1.53784L4.45111 1.62985L4.65112 1.65186L5.03812 1.47586L5.41013 1.20786L5.51913 1.02084L5.56012 0.851837L5.78012 0.963837L5.97412 0.987854L6.06012 0.937836L6.00513 0.66684L6.16312 0.521851L6.33813 0.455841L6.41711 0.572845L6.57812 0.692841L6.70511 0.693848L7.04611 0.381836L7.12613 0.443848L7.20013 0.55484L7.21613 0.64386Z" fill="#CCCCCC" stroke="white" stroke-width="0.5"/>
</svg>
