<svg width="24" height="18" viewBox="0 0 24 18" fill="none" xmlns="http://www.w3.org/2000/svg">
<path d="M17.3102 1.61819L17.2712 1.7522L17.2693 1.9892L17.2192 2.3642L17.1592 2.81317L17.4033 3.10318L17.6953 3.41519L17.7733 3.53619L17.6953 3.84317L17.7502 4.02319L17.9042 4.32318L18.1662 4.70419L18.4352 5.09518L18.6212 5.14618L18.7982 5.17819L18.9062 5.24817L19.0632 5.31619L19.2202 5.36017L19.3562 5.4462L19.4432 5.53018L19.5562 5.77118L19.8593 5.93018L20.0713 6.08719L19.9862 6.16718L19.7222 6.13519L19.4742 6.06619L19.4413 6.18219L19.4312 6.62418L19.4702 6.99118L19.5283 7.04019L19.7783 7.10818L20.3732 7.58517L20.9113 8.03717L21.0923 8.15417L21.3893 8.19818L21.7232 8.21719L21.8662 8.17517L22.1892 7.94818L22.3612 7.92319L22.5202 7.92917L22.6062 7.96518L22.7612 8.15118L22.9062 8.43118L22.9472 8.63818L22.9342 8.74918L22.8853 8.79117L22.6202 8.84418L22.5052 8.88617L22.4772 8.9462L22.5182 9.08517L22.5692 9.17517L22.8582 9.57819L23.2762 10.1222L23.4052 10.2612L23.3322 10.4232L23.1192 10.8472L22.9602 11.0242L22.2572 11.6242L21.9132 11.5532L21.1902 11.6742L21.0822 11.5362L20.9132 11.5182L20.7043 11.5422L20.6282 11.5942L20.6053 11.6532L20.5302 11.7362L20.3962 11.9742L20.2932 12.0342L20.1653 12.0712L20.0072 12.0662L19.9153 12.0972V12.2152L19.8872 12.3172L19.7802 12.3692L19.7352 12.4832L19.7433 12.5962L19.6812 12.6482L19.5453 12.6202L19.4642 12.5882L19.3882 12.7342L19.2943 12.8332L19.2272 12.8322L18.5042 12.8612L18.2412 12.9392L18.0833 12.9412L18.0772 12.8752L18.0583 12.8362L17.1462 12.6152L16.5072 12.4842L15.8593 12.3392L15.8222 12.4752L15.7292 12.5632L15.5892 12.5692L15.4922 12.5482L15.4272 12.6532L15.3192 12.7922L15.1693 12.8592L15.0222 12.9452L14.9392 13.0202L14.8792 13.0212L14.7312 12.8452L14.5342 12.8272L14.1662 12.8562L14.0002 12.8082L13.7742 12.7852L13.2402 12.8212L12.3872 12.7492L12.2473 12.7882L12.2102 12.8202L11.3652 12.8282L10.4362 12.8372L9.65823 12.8452L8.97723 12.8522L8.97626 12.8222L8.75723 12.8182L8.73325 12.8772L8.54025 13.5852L8.51926 13.9702L8.62225 14.2092L8.73724 14.3612L8.86624 14.4242L8.87924 14.5102L8.77524 14.6212L8.78424 14.7342L8.90625 14.8512L8.93625 14.9752L8.87424 15.1042L8.88925 15.4142L8.97925 15.9052L8.98224 16.2232L8.89624 16.3682L8.93726 16.6172L9.10425 16.9682L9.13425 17.1162L9.07425 17.1852L8.93524 17.2762L8.79425 17.2732L8.63025 17.0612L8.55826 16.9662L8.42624 16.7502L8.31323 16.5342L8.16125 16.4392L8.01123 16.3512L7.82925 16.0762L7.65326 15.9452L7.46725 15.9822L7.19626 15.9312L6.64923 15.8632L6.06125 15.8832L5.81723 15.9462L5.57623 16.0462L4.96524 16.2672L4.72424 16.3752L4.54123 16.6512L4.33325 16.6452L4.12625 16.5572L3.99625 16.4322L3.71725 16.4592L3.44824 16.3382L3.18823 16.0992L2.99625 16.0202L2.75125 15.8472L2.68423 15.5172L2.52924 15.2862L2.38724 14.9642L2.17523 14.8202L1.93124 14.7432L1.59424 14.7592L1.37323 14.6302L1.19824 14.4422L1.24423 14.2792L1.32324 14.0472L1.33224 13.8242L1.38425 13.4622L1.35223 13.0092L1.29123 12.6932L1.47723 12.5612L1.69223 12.4432L1.82623 12.2282L1.96524 11.7452L2.02325 11.3282L1.98026 11.1732L1.90924 11.0502L1.85223 10.8702L1.81924 10.6502L1.85825 10.4582L2.02124 10.2802L2.22525 10.1322L2.37024 10.0602L2.75424 9.98618L3.23425 9.87619L3.51123 9.75018L3.71326 9.62518L3.82623 9.52518L3.94125 9.32217L4.12726 9.16418L4.27124 9.00418L4.29123 8.56119L4.29025 8.3082L4.18326 8.16818L4.12524 8.04919L4.83624 7.70117L4.84125 7.45618L4.74225 7.18219L4.60324 6.96118L4.55124 6.77118L4.74823 6.54617L4.92325 6.3772L5.05023 6.23419L5.33023 6.01617L5.62225 5.9592L5.88525 6.04117L6.66425 6.55518L6.79926 6.5882L6.96124 6.54919L7.16724 6.41318L7.43326 6.30719L7.53125 5.9632L7.52225 5.45718L7.58325 5.22519L7.72324 5.1832L8.17123 5.28018L8.28824 5.28519L8.41824 5.25317L8.51324 5.16418L8.50925 5.00018L8.48825 4.85519L8.63425 4.38519L8.90125 4.03119L9.44025 3.58917L9.60825 3.50018L9.80325 3.45517L10.7693 3.75919L10.9262 3.68417L11.1622 2.93018L11.4243 2.85818L11.7383 2.84518L11.9422 2.78018L12.0482 2.72818L12.5082 2.44119L13.3182 2.05118L13.7542 1.88318L13.8392 1.82019L14.1512 1.54318L14.5652 1.22519L14.8293 1.16119L15.1942 1.13818L15.4243 1.19019L15.4862 1.28018L15.5623 1.32617L16.0382 1.19119L16.7202 1.40619L17.3102 1.61819Z" fill="#CCCCCC" stroke="white" stroke-width="0.5"/>
</svg>
