<svg width="20" height="13" viewBox="0 0 20 13" fill="none" xmlns="http://www.w3.org/2000/svg">
<path d="M18.924 2.62912L18.8579 3.56012L18.5869 3.99112L18.1779 3.84711L17.6559 3.96713L17.3799 4.45712L17.223 4.60211L17.0819 4.77213L16.991 5.40613L16.9689 6.44012L16.7709 6.56512L16.59 6.60413L15.835 7.51013L16.27 7.76413L16.4619 7.95712L16.78 8.49411L17.2319 9.09912L17.322 9.39413L16.942 9.32812L16.8099 9.34811L16.7249 9.44113L16.5479 9.42212L16.33 9.42313L16.1019 9.53012L15.976 9.57513L15.8079 9.47711L15.4929 9.18314L15.3019 8.97812L15.1609 8.92612L15.0179 8.98712L14.5079 9.05713L14.387 9.17612L14.1509 9.30814L13.9149 9.37112L13.5739 9.41611L13.395 9.41013L13.2949 9.47311L13.2109 9.66611L13.1539 9.85413L13.1039 9.93011L12.6799 10.0231L12.5859 10.1311L12.5609 10.2361L12.5689 10.3411L12.231 10.2391L11.9699 10.3081L11.908 10.3881L11.8539 10.5041L11.8839 10.6271L11.9799 10.7471L12.0709 11.0711L12.1039 11.3941L12.0479 11.5781L11.8539 11.7081L11.4529 11.8531L11.064 11.7841L10.8939 11.8411L10.606 11.8591L10.3409 11.8971L9.93396 12.0291L9.56592 12.1071L9.23596 11.8381L8.84393 11.6551L8.43195 11.5461L8.28894 11.6251L8.22693 11.6881L7.88196 11.4501L7.72797 11.3651L7.65295 11.2731L7.50995 10.9551L7.42493 10.9451L7.14093 11.0631L6.86694 11.0581L6.70197 11.0361L6.21191 11.0501L6.14691 11.2671L6.08691 11.3001L5.98096 11.3291L5.72095 11.3151L5.38794 11.4761L5.03094 11.5741L4.75195 11.5761L4.46497 11.5291L4.29297 11.5631L3.92194 11.5801L3.68695 11.8141L3.32092 11.8011L3.01294 11.7621L3.05096 11.6881L3.11292 10.7571L3.26495 10.3401L3.25891 10.2541L3.22595 10.1891L3.09094 10.1221L2.99396 9.89612L2.79095 9.30112L2.67596 9.18112L2.35693 9.05511L2.07794 8.88312L1.84094 8.65512L1.40796 8.09311L1.62695 8.03711L1.69293 7.92212L1.91193 7.61212L1.93695 7.46011L1.91394 7.37411L1.76697 7.22513L1.66693 6.89813L1.74194 6.59311L1.74896 6.43613L1.67493 6.28012L1.75195 6.08612L1.90991 5.98013L2.00891 5.94913L2.42395 5.92813L2.68695 5.53912L2.84692 5.41513L3.01093 5.19412L3.08691 5.11313L3.15894 4.94113L3.18396 4.76514L2.85492 4.51813L2.74292 4.33212L2.59595 4.12613L2.39795 3.98413L1.99896 3.74011L1.84296 3.49213L1.77295 3.17014L1.66693 2.92612L1.54993 2.76712L1.52795 2.63712L1.47894 2.47812L1.46796 2.16513L1.56293 1.74811L1.62396 1.60013L1.75891 1.55911L2.11896 1.33612L2.13593 1.05112L2.20093 0.873108L2.31494 0.771118L2.42096 0.703125L2.61792 0.86911L3.09595 1.13412L3.32892 1.32611L3.31696 1.44513L3.20795 1.56311L2.99994 1.67911L2.87897 1.83212L2.84595 2.02112L2.87695 2.15512L3.02094 2.27213L3.87897 2.11911L4.74896 2.19812L5.91693 2.45712L6.69092 2.54712L7.26392 2.42712L8.32294 2.64413L9.30994 2.84613L10.257 2.90512L10.7869 2.74713L11.1599 2.53412L11.481 2.13211L12.2739 1.60114L13.041 1.30212L14.0469 1.06012L14.7189 0.978119L14.8129 1.06012L15.668 1.54913L16.049 1.55112L16.3569 1.63812L16.4699 1.76712L16.5469 1.79913L16.9569 1.67813L17.1379 1.94513L17.421 2.31912L17.9039 2.51111L18.3339 2.61911L18.4699 2.63611L18.924 2.62912Z" fill="#CCCCCC" stroke="white" stroke-width="0.5"/>
</svg>
