<svg width="7" height="8" viewBox="0 0 7 8" fill="none" xmlns="http://www.w3.org/2000/svg">
<path d="M5.44794 1.36313L5.39197 1.43613L5.13495 1.95813L5.08496 2.03711L5.11292 2.08511L5.22296 2.18411L5.15796 2.34912L5.13293 2.39313L5.08392 2.54611L5.11096 2.68713L5.17291 2.73914L5.33997 2.80713L5.58997 2.85611L5.88495 2.97412L6.08392 2.99512L6.13092 3.08011L6.12195 3.23111L6.16992 3.36212L6.17096 3.59711L6.11194 3.80411L5.80792 3.90112L5.65094 4.00711L5.60895 4.06113L5.64691 4.12311L5.66693 4.20612L5.38092 4.41312L5.08691 4.68213L5.01697 4.86313L4.95795 5.07812L4.87195 5.21512L4.64795 5.41312L4.41895 5.81113L4.30695 6.06912L3.74591 6.68912L3.24695 6.99911L3.10193 7.10413L2.21893 7.08612L2.15192 6.66812L2.01794 6.09711L1.71393 5.58212L1.68195 5.36612L1.69592 4.95013L1.69696 4.36612L1.67694 4.05212L1.68396 3.82312L1.72192 3.42511L1.71692 3.18713L1.51794 2.91312L1.26996 2.62112L1.13391 2.47812L1.12695 2.36313L1.12793 2.25613L1.16797 2.10114L1.26495 1.92813L1.37396 1.90912L1.64197 1.97812L1.92096 2.12512L2.06891 2.45612L2.18292 2.50311L2.38892 2.50214L2.91595 2.45914L3.04694 2.46411L3.28595 2.38513L3.52393 2.24612L3.59296 2.10211L3.64795 1.77713L3.69794 1.19412L3.81995 1.18811L4.15192 1.39511L4.22394 1.40912L4.29297 1.40213L4.40894 1.29913L4.54993 1.21512L4.65497 1.21713L5.04095 1.12012L5.24792 1.29611L5.37793 1.35114L5.44794 1.36313Z" fill="#CCCCCC" stroke="white" stroke-width="0.5"/>
</svg>
