<svg width="10" height="19" viewBox="0 0 10 19" fill="none" xmlns="http://www.w3.org/2000/svg">
<path d="M8.78979 2.83307L8.6738 3.01605L8.49579 3.39407L8.48779 3.68906L8.91177 4.31107L8.96078 4.37405L9.06979 4.47107L9.12878 4.58707L9.17978 4.89307L9.2088 5.23807L9.2428 5.47006L9.44778 5.79605L9.46078 5.92706L9.31879 6.41406L9.28479 6.46606L9.24777 6.47906L9.0278 6.43707L8.93378 6.49005L8.81378 6.65506L8.74078 6.82007L8.73679 6.88907L8.93179 7.19507L8.80878 7.63605L8.6828 7.91107L8.45679 8.06805L8.25479 8.10507L8.1138 8.17905L8.0318 8.27606L8.04379 8.59106L7.74579 8.87805L7.58078 9.07907L7.50079 9.20007L7.53479 9.57007L7.42877 9.94406L7.24478 10.2391L6.83279 10.3031L6.48679 10.3391L6.36877 11.0901L6.37479 11.5651L6.34277 12.05L6.2858 12.248L6.30978 12.5261L6.28378 13.1551L6.23779 13.6501L6.2988 13.7831L6.3338 14.0741L6.33179 14.3751L6.4198 14.5841L6.51578 14.7671L6.51279 14.8611L6.46179 14.9201L6.41879 14.9971V15.705L6.4368 15.9171L6.4108 16.0511L6.33679 16.1631L6.36578 16.5211L6.42578 16.7491L6.48578 16.9171L6.4278 17.0571L6.3768 17.2421L6.29977 17.7141L6.2948 17.8781L5.1178 17.9931L3.80179 18.1821L3.25278 18.3051L3.22079 18.2101L3.68878 18.0871L3.5918 17.718L3.29977 17.2821L3.18579 17.2021L3.1268 16.985L3.19778 16.843L3.16379 16.7471L3.1398 16.4531L2.99579 16.1281L3.25879 16.1151V15.0701V14.0661V13.2101V12.5321L3.20779 11.7191L3.20078 11.1221L3.18979 10.3341L3.09479 10.0881L2.69678 9.67105L2.5878 9.45505L2.56879 9.16806L2.4798 8.87305L2.47479 8.35605L2.46777 7.75406L2.43179 7.65707L1.99979 7.37006L1.38879 6.96307L0.922791 6.65308L0.888794 6.63007L0.841797 6.55405L0.90979 5.63605L1.0058 5.51605L1.15479 5.13806L1.22678 4.83206L1.29379 4.83307L1.38779 4.73407L1.46378 4.58807L1.5448 4.62006L1.68079 4.64807L1.7428 4.59607L1.73477 4.48306L1.77979 4.36905L1.88678 4.31705L1.91479 4.21506V4.09705L2.00677 4.06607L2.16479 4.07108L2.29279 4.03406L2.39578 3.97406L2.52979 3.73605L2.6048 3.65308L2.62778 3.59406L2.7038 3.54205L2.91278 3.51807L3.08179 3.53607L3.18979 3.67407L3.91278 3.55307L4.25677 3.62405L4.95978 3.02405L5.11877 2.84705L5.33179 2.42307L5.40479 2.26105L5.47079 1.96906L5.33179 1.43005L5.33978 1.33408L5.62979 1.21805L5.99179 1.12805L6.13177 1.12106L6.22479 1.07507L6.35678 0.958069L6.57178 0.873047L6.69879 0.901062L6.77679 0.91806L7.53879 1.63107L7.86978 1.99106L7.95779 2.17505L8.12878 2.30807L8.3808 2.39008L8.61078 2.57306L8.78979 2.83307Z" fill="#CCCCCC" stroke="white" stroke-width="0.5"/>
</svg>
