<svg width="36" height="40" viewBox="0 0 36 40" fill="none" xmlns="http://www.w3.org/2000/svg">
<path d="M33.4753 31.097L33.5312 30.6041L33.4742 30.1771L33.4172 30.0671L32.5923 29.5591L31.8432 29.097L30.8633 28.493L29.5992 28.5101L28.2903 28.527L27.0432 28.7971L25.8163 29.0621L25.2343 29.188L24.0672 29.4401L23.3802 29.5561L23.2003 30.0421L22.9312 30.772L22.6642 31.199L22.3562 31.6481L21.9222 32.2811L21.9212 33.0511V33.7841L21.6162 34.819L21.3562 35.699L21.1062 36.5511L20.9342 37.1401L20.8702 37.29L20.8302 37.2421L20.6082 37.066L20.4102 36.7341L20.3562 36.5831L20.3312 36.5771L19.1412 36.587L17.9962 36.5981L17.8792 36.6681L17.7142 36.6671L17.5932 36.6021L17.4753 36.6071L17.3042 36.6711L17.1512 36.8041L16.7142 37.688L16.4982 38.066L16.3372 38.4051L16.2202 38.9861L16.1712 39.0831L16.0352 38.8821L15.8343 38.3511L15.7442 38.048L15.6152 37.7051L15.3853 37.274L15.1202 37.144L14.9552 37.1011L14.7182 37.019L14.2993 36.9161L14.1162 36.8951L12.9172 36.881L12.8222 36.8701L12.3522 36.9171L12.1143 36.8851L11.8643 36.6451L11.3073 36.2231L11.1953 36.0891L10.9812 36.001L10.8542 35.9921L10.7762 36.0751L10.6802 36.4271L10.5663 36.7451L10.4472 36.928L10.0493 37.063L9.67825 37.204L9.47424 37.2371L9.36523 37.3961L9.31723 37.6191L9.22626 37.8201L8.69025 38.123L8.57126 38.2501L8.50925 38.5491L8.21024 38.92L8.11826 39.0651L7.64825 39.1671L7.03723 39.277L6.68024 39.2701L6.43625 39.2411L6.36224 39.1741L6.19724 39.069L6.16925 38.9521L6.16724 38.7861L6.21326 38.4871L6.19025 38.0731L5.99823 37.5911L6.01324 37.436L5.98825 37.2001L5.89124 36.7571L5.64325 36.5341L5.57324 36.1661L5.54425 35.8431L5.33524 35.4391L5.30124 34.925L5.30624 34.485L4.97824 33.9741L4.63623 33.4321L4.36023 33.358L4.29224 33.2931L4.26224 33.1381L4.25626 32.897L4.27826 32.751L4.49124 32.514L4.49924 32.4781L4.45624 32.428L3.90625 32.074L3.76724 31.9711L3.72424 31.845L3.72824 31.7311L3.85925 31.6151L3.92624 31.5291L3.79724 31.277L3.81024 31.0491L3.72824 30.951L3.73724 30.8771L3.81723 30.8141L4.17426 30.7411L4.28525 30.5101L4.28925 30.3181L4.23523 30.1821L3.90524 29.8391L3.89825 29.7811L4.24423 29.3041L4.49225 28.9911L4.56024 28.9271L4.53925 28.8591L4.47824 28.7761L4.32126 28.6561L4.11725 28.524L3.94824 28.3641L3.72824 28.1271L3.45123 27.9241L3.24625 27.722L3.14124 27.5541L3.13925 27.3821L3.11124 27.097L2.97723 26.6351L2.94125 26.3231L2.88324 25.9781L2.82526 25.7531L2.79324 25.5361L2.69724 25.3011L2.64426 25.1291L2.72125 25.0081L2.79825 24.9141L2.78925 24.855L2.26025 24.6041L2.17224 24.54L2.04724 24.0381L1.66324 23.592L1.61826 23.2601V23.256V23.126L1.58725 22.9171L1.47025 22.7541L1.29526 22.6411L1.24023 22.507L1.29825 22.3661L1.63925 22.0871L1.82224 22.0401L1.87024 21.8981L1.98123 21.7861L2.30225 21.3761L2.49124 21.1071L2.68024 20.9451L2.89923 20.8331L2.99423 20.7391L2.94424 20.4501L2.95926 20.2551L3.03525 20.132L3.25424 20.0021L3.45123 19.9031L3.49326 19.8541L3.47626 19.7811L3.29526 19.6331L2.92224 19.5041L2.67523 19.5171L2.52423 19.4031L2.44125 19.3061L1.95224 18.11L1.87125 17.8311L1.87726 17.7231L2.20523 17.1331L2.33826 16.9401L2.56824 16.662L2.52725 16.5521L2.12424 16.0911L2.00024 15.8721L2.00323 15.6531L2.04324 15.3881L2.27725 15.2451L2.34424 15.0291L2.39325 14.8161L2.49326 14.7461L2.59525 14.6251L2.71625 14.451L2.90424 14.2991L3.01526 14.1831L3.03925 13.86L3.13126 13.7721L3.38824 13.6691L3.41425 13.5861L3.35623 13.369L3.22824 13.1401L3.12424 13.0281L2.98724 12.4661L2.84424 12.1871L2.90424 12.0751L3.00323 11.9331L3.09924 11.6521L3.13025 11.3251L3.10623 10.123L3.11224 9.88605L3.23825 9.72107L3.42325 9.52905L3.58023 9.45605L3.72824 9.33505L3.71725 9.10806L3.81525 8.97406L3.93625 8.80606L3.56125 8.14505L3.23123 7.56406L2.92224 7.01907L2.56424 6.38907L2.32925 5.97406L2.03625 5.45908L1.77924 5.00705L1.42825 4.39105L1.75424 4.38007L2.41125 4.40207L3.04724 4.51205L3.47824 4.56006L3.65823 4.65405L3.69824 4.80505L3.81723 4.87506L3.95523 4.84805L4.11124 4.83807L4.46024 4.68405L4.74225 4.58105L4.98523 4.45807L5.11023 4.33807L5.41324 3.91705L5.65726 3.68506L5.88223 3.60406L6.32126 3.57007L6.46024 3.63605L6.63925 3.62805L6.79425 3.38907L7.03024 3.12506L7.49524 2.79605L7.73123 2.70605L7.87823 2.59106L8.13025 2.57407L8.35223 2.45407L9.42325 1.62305L9.85724 1.40906L10.1273 1.37006L10.3513 1.31906L10.7312 1.20007L11.6833 1.08408L12.2943 1.03705L12.4902 1.15207L12.7102 1.11905L12.8972 0.933075L13.0522 0.873047L13.1662 0.878052L13.3302 1.09805L13.4102 1.33206L13.3572 1.51007L13.3672 1.76907L13.4402 2.10706L13.3992 2.40906L13.1682 2.80307L13.0522 2.96405L13.0233 3.13007L13.0432 3.35406L13.1492 3.71805L13.3402 4.22406L13.3692 4.59805L13.2352 4.84106L13.1732 5.05106L13.1842 5.22806L13.2312 5.35205L13.3172 5.42307L13.3643 5.56406L13.3742 5.77606L13.4862 5.98105L13.6992 6.17905L13.7863 6.36707L13.7462 6.54706L13.7572 6.66006L13.8192 6.70407L13.8773 6.66806L13.9552 6.61807L14.0242 6.63605L14.1743 6.88705L14.1932 6.93805L14.2742 7.14606L14.2993 7.30307L14.5182 7.39105L14.7552 7.46005L14.8862 7.54205L15.1483 7.79105L15.3683 7.95505L15.6443 8.08905L15.7352 8.30405L15.9042 8.62805L16.3692 8.75208L16.9113 8.81406L17.2572 8.88507L17.6792 8.71307L17.9583 8.73706L18.2473 8.85406L18.3702 8.93405L18.5852 9.10107L18.9182 9.31506L19.1902 9.39407L19.3842 9.27505L19.5632 9.23306L19.7022 9.28305L19.7752 9.51605L19.8482 9.67307L20.0092 9.79205L20.3542 10.097L20.5493 10.222L20.7693 10.2131L21.2232 10.4141L21.7072 10.6091L21.9572 10.6411L22.2032 10.6121L22.3662 10.688L22.4323 10.9231L22.8532 11.3931L23.0512 11.5781L23.2872 11.7361L23.8882 11.7331L24.0682 11.7801L24.3362 11.7381L25.1422 11.6581L25.2882 11.6331L25.7442 11.8381L26.2832 12.1341L26.6403 12.3661L26.8893 12.494L27.0193 12.7021L27.1252 12.9191L27.1743 13.1531L27.1093 13.3851L27.0112 13.4791L26.9782 13.6291L27.0193 13.8541L27.1982 14.0551L27.2643 14.3021L27.3622 14.7401L27.4722 14.8781L27.5432 16.235L27.1823 16.2461L26.6732 16.2621L26.8222 16.3921L27.2433 16.8981L27.6302 17.3651L27.6922 18.1151L27.7303 18.5881L27.7852 19.2561L27.8172 19.6551L28.7842 19.6911L29.8983 19.7321L31.2372 19.7821L32.4142 19.826L32.5302 19.8211L32.7343 19.7671L32.8702 19.6961L32.9532 19.6981L32.9673 19.86L32.9392 20.0641L32.9402 20.2991L32.6032 20.7631L32.5822 20.9091L32.6332 21.5211L32.7523 22.0171L32.8123 22.4651L32.9472 22.6051L33.3463 22.8421L33.9492 23.2801L34.1902 23.337L34.3943 23.277L34.5162 23.4561L34.5403 23.7451L34.8732 24.5521L35.0843 25.0651L35.1812 25.2441L35.3392 25.3361L35.3092 25.4031L35.1783 25.4301L35.1192 25.5261L34.9362 26.1021L34.6953 26.8611L34.5323 27.3961L34.6792 27.4041L34.6852 27.5521L34.7182 27.7781L34.5372 27.8061L34.4832 27.8871L34.2752 28.326L34.0032 28.9011L33.7213 29.4971L33.5542 29.85L33.8392 30.1111L34.3142 30.5471L34.2393 30.6681L34.0352 30.7291L33.8643 30.7711L33.7332 30.936L33.6602 31.0571L33.4753 31.097Z" fill="#CCCCCC" stroke="white" stroke-width="0.5"/>
</svg>
