<svg width="112" height="117" viewBox="0 0 112 117" fill="none" xmlns="http://www.w3.org/2000/svg">
<path d="M50.1812 10.2548L50.2652 10.2818L50.4532 10.3048L50.8992 10.4118L51.4812 10.5328L51.6402 10.4908L51.7352 10.4058L51.7572 10.1568L51.7752 9.98077L51.6442 9.82578L51.4812 9.64978L51.3312 9.43079L51.1512 9.3678L51.1742 9.25479L51.2912 9.13779L51.4112 9.07379L51.4802 8.99478L51.5562 8.70279L51.6062 8.65079L51.6572 8.63779L51.7172 8.64877L51.8362 8.72479L52.2942 8.95679L52.4952 8.92178L53.2632 8.86078L53.3792 8.72678L53.5422 8.69678L53.8182 8.56277L53.9272 8.55377L54.0252 8.58578L54.1482 8.56079L54.3292 8.43579L54.4052 8.42279L54.4342 8.56079L54.5512 8.7038L54.6932 8.83478L54.7612 8.86478L54.9992 8.82278L55.1242 8.85977L55.1782 8.98178L55.1942 9.0878L55.2942 9.1778L55.4222 9.17978L55.4902 9.2168L55.6072 9.27478L55.7062 9.40778L55.9362 9.51379L56.3292 9.66177L56.5122 9.66379L56.6822 9.7088L56.7862 9.75378L56.8992 9.67078L57.3012 9.44177L57.4972 9.31378L57.6292 9.2168L57.7282 9.12479L57.8022 9.1008L57.8522 9.15579L57.8952 9.2298L58.0392 9.2728L58.3752 9.3588L58.5292 9.38278L58.7452 9.30978L58.9302 9.18478L59.0182 9.14178L59.1552 9.26678L59.2492 9.44177L59.3122 9.5188L59.4512 9.50079L59.7262 9.5278L59.9292 9.5838L60.0552 9.5788L60.2272 9.50079L60.3202 9.34677L60.5642 9.20578L60.7962 9.07578L60.9292 8.9028L61.1262 8.61478L61.1922 8.49179L61.2062 8.28378L61.4832 7.67978L61.5882 7.56879L61.6502 7.37778L61.7612 7.1568V6.97177L61.8422 6.79279L62.0012 6.63879L62.1182 6.54178L62.3062 6.2818L62.4372 6.03677L62.7642 5.49377L62.7892 5.33978L62.9192 5.24777L62.9622 5.1308L63.1012 4.98578L63.2472 4.8718L63.3102 4.70279L63.4172 4.5278L63.6512 4.39679L63.7382 4.33679L64.0042 3.8548L64.0342 3.6398L64.2742 3.63177L64.6512 3.8808L64.9522 4.24777L65.3552 5.42679L65.4222 6.51578L65.5852 7.08578L66.0542 8.27377L66.0842 8.49377L66.1592 8.7598L66.3072 9.04178L66.4712 9.5058L66.4772 9.5918L66.3712 9.71777L66.5272 9.72678L66.6682 9.80179L66.7602 10.0958L66.8772 10.2948L67.0892 10.5668L67.5232 10.6558L67.8512 10.6888L68.2242 10.8428L68.4982 11.0398L68.7102 11.7088L68.6412 12.1288L68.6622 12.4248L68.5522 12.5408L68.2452 12.7348L68.1782 12.8378L67.5512 13.3378L67.4142 13.5738L67.0782 13.8908L66.7452 14.4948L66.2582 15.0468L66.0862 15.1868L65.8232 15.2188L65.6632 15.3038L65.2852 15.7548L64.7772 15.9048L64.7302 16.1658L64.4372 16.7618L64.1782 17.0878L64.0132 17.1978L63.5982 17.7918L63.5452 18.0518L63.5472 18.5068L63.2702 18.7838L62.9822 18.9598L62.9462 19.3488L62.8162 19.4818L62.7052 19.5678L62.1192 19.4658L61.2092 19.8888L60.8982 19.9938L61.8912 20.0148L62.2102 20.2398L62.9092 20.0908L63.7552 19.5548L64.0782 19.4418L64.7342 19.0778L65.0012 18.8348L65.4872 18.5438L65.5912 18.4158L65.8632 18.2798L66.0112 18.4528L66.0232 18.5618L65.7992 18.7748L65.8572 18.9118L66.0042 19.0838L66.0572 19.3218L66.0772 19.5028L66.1682 19.8198L66.4692 20.2488L66.4792 20.3908L66.4372 20.5778L66.5812 20.7318L66.7302 20.8228L67.2422 21.2848L67.6422 21.0268L67.8892 20.9518L68.0462 20.8438L68.3762 20.7718L68.6462 20.8798L69.1612 21.0348L69.5382 20.8698L70.3002 20.4918L70.0622 21.1608L69.8892 21.7748L69.7582 22.0228L69.6282 22.6908L69.5002 22.8698L69.3962 23.0738L69.5662 23.0028L69.7122 22.9058L69.8992 22.6488L70.0392 22.2018L70.5912 21.0088L70.7492 20.9028L71.2082 20.7668L71.9982 19.8128L72.3072 19.8158L72.5052 20.0348L72.6922 20.1648L72.7402 19.9038L73.0102 19.7978L72.7252 19.6688L72.6792 19.5518L72.6522 19.3568L72.8462 19.0928L72.7302 18.8588L73.1322 18.5648L73.1012 18.3438L73.2452 18.1618L73.4272 17.9738L73.6332 17.8828L73.6712 17.7218L73.8012 17.6558L73.9032 17.6318L74.1042 17.8118L74.3222 17.5998L74.5342 17.5168L74.6292 17.5538L74.7482 17.6478L74.8732 17.6878L74.9742 17.6708L75.2372 17.5348L75.4802 17.7538L75.6262 17.8018L75.5862 17.6788L75.5092 17.5648L75.5692 17.4718L75.6842 17.4138L76.0482 17.4658L76.2392 17.5638L76.4462 17.7448L76.7332 17.7578L76.9592 17.7388L77.1012 17.8408L77.3322 17.8398L77.4482 17.9988L77.8002 18.2218L77.8762 18.3728L78.1592 18.4458L78.4252 18.5388L78.7082 18.5638L78.9942 18.5418L79.0062 18.7328L79.2152 18.7848L79.4842 18.7428L79.6872 18.9778L80.2302 19.1548L80.6062 19.4258L80.8532 19.3778L81.1292 19.4498L81.4252 20.0388L81.4922 20.4568L81.6242 20.3988L81.7472 20.2118L81.9052 19.8698L82.2022 19.7568L82.3442 19.8878L82.6412 20.0978L82.8972 20.3278L83.0052 20.4758L83.1982 20.4998L83.0372 20.6818L83.1992 20.6628L83.3942 20.5338L83.5612 20.8018L83.6872 21.0938L83.7122 21.3908L83.5932 21.5608L83.4892 21.6678L83.3732 21.8778L83.2362 21.9158L83.0992 21.9838L83.2552 22.1368L83.3622 22.2838L83.5962 21.8858L83.7612 21.7738L83.9992 21.7118L84.1232 21.9948L84.1492 22.2628L83.7612 22.3738L83.7602 22.5848L83.6442 22.7048L83.5682 22.8428L83.5072 23.1308L83.4282 23.3698L83.1972 24.4298L83.1932 24.6048L83.4752 24.4178L83.9952 23.8778L84.1532 23.3028L84.3582 22.7358L84.5812 22.5578H84.7202L84.9272 22.6198L84.9392 22.8058L84.9072 22.9128L84.6852 23.1948L84.5912 23.3488L84.6822 23.5008L85.1852 23.0338L85.4112 22.8698L85.6032 22.9028L85.9842 22.6868L86.7522 22.6418L86.8102 22.3948L86.9632 22.2898L87.3852 22.3178L88.2072 22.5378L88.5002 22.7178L88.9392 22.8848L89.1702 23.0838L90.1352 23.4498L90.8362 23.4888L91.1832 23.3228L91.6162 23.4968L91.8452 23.6918L92.2952 23.7968L92.7492 23.8518L93.0962 23.7118L93.9922 23.6658L95.1172 23.4588L95.7882 23.5078L96.5482 23.6428L97.0902 23.9898L97.5462 24.1858L97.8222 24.3788L98.2672 24.5798L99.2162 25.1188L99.5492 25.4308L100.137 25.8548L100.728 26.0328L101.047 26.4768L101.3 26.6768L101.926 27.4268L102.636 27.9518L103.111 28.4768L104.023 28.8148L104.379 29.3728L104.996 29.4408L105.259 29.5238L105.579 29.7588L106.018 29.8898L106.59 29.8528L107.221 29.8798L107.732 29.7698L108.94 29.9788L109.13 30.0818L109.38 30.3188L109.821 31.2038L110.084 32.1858L110.214 32.9368L110.515 33.5208L110.679 34.6188L110.819 34.9648L110.83 35.2318L110.949 35.2918L111.029 36.0338L110.998 36.3328L110.882 36.7218L110.874 36.8958L110.891 37.0058L110.84 37.1688L110.824 37.3248L110.941 37.6748L110.947 37.9548L110.79 38.2948L110.576 39.1838L110.04 40.6588L109.526 41.5068L108.807 42.3828L108.338 42.8408L108.152 42.8878L107.982 42.7968L108.103 43.0388L107.998 43.2518L107.522 43.8978L107.049 44.3198L106.558 45.0538L106.521 45.0708L105.892 45.3548L105.52 45.5868L105.044 46.0088L104.607 46.6748L104.517 46.7598L104.356 46.7128L104.361 47.0508L103.985 47.5868L103.87 47.6658L103.873 47.5138L103.938 47.3978L103.968 47.2748L103.966 47.1288L103.861 47.2348L103.638 47.6368L103.713 47.9308L103.552 48.3758L102.936 49.6478L102.182 50.7188L102.008 51.0498L101.389 51.7728L100.934 52.1218L100.806 52.1238L100.661 52.0938L100.588 51.5378L100.226 51.2018L100.122 51.1428L99.9742 51.4988L99.8502 51.5968L99.6712 51.6178L99.8622 51.7728L99.9182 51.9528L99.7232 52.3128L99.7172 52.6398L99.3692 53.0008L99.1672 53.2648L99.0652 53.5958L99.0032 53.9048L99.1562 53.8208L99.2292 53.8858L99.2862 53.9818L99.2512 54.1238L99.1392 54.3928L99.1562 55.0618L99.1192 55.2138L99.2302 55.3788L99.3482 55.0978L99.4162 55.1768L99.0872 56.9728L99.2162 57.7828L99.2642 58.7018L99.4122 59.6008L99.5752 60.4048L99.5882 60.4688L99.3632 61.4038L99.0752 62.3278L98.9022 63.0828L98.7932 63.8988L98.6842 64.2918L98.6492 64.6938L98.7742 65.6478L98.8212 65.8288L98.4722 66.2548L98.0952 66.4618L97.8872 66.6678L97.4272 67.4378L97.1772 68.5778L97.1712 69.1848L97.2892 70.4588L97.2012 70.9798L97.0552 71.3288L96.8832 71.5578L96.4442 71.8328L96.0502 72.5038L95.8792 73.2098L95.6092 73.4678L95.5542 73.8638L95.3372 74.2918L94.7742 74.9308L94.4082 75.1168L94.2342 75.2958L94.1232 75.6708L93.7702 76.2888L93.5102 77.0918L93.5782 77.3648L93.5822 77.4068L93.6772 78.3368L93.6422 78.5738L93.2992 78.8308L92.0072 79.3108L91.6632 79.5098L90.8922 80.3278L90.8442 80.5208L90.8762 80.7968L91.0022 80.9558L90.8722 81.1278L90.7182 81.4368L90.4932 81.4178H89.2062L88.5102 81.5158L88.1482 81.4968L87.9852 81.4228L87.8032 81.3018L87.7482 81.1428L87.8472 80.9028L87.7882 80.7598L87.5972 80.7648L87.3882 80.8328L87.3522 80.9758L87.3672 81.0788L87.4452 81.2278L87.4882 81.4118L87.4022 81.5708L86.9942 81.5918L86.5362 81.7378L85.9642 81.7988L85.5082 81.9048L85.2982 81.7708L85.5082 81.7038L85.8102 81.7358L86.1342 81.6248L86.0582 81.4938L85.6002 81.3258L85.0912 81.4288L84.8092 81.6298L84.1922 81.6108L83.4362 81.7638L83.3132 81.9198L83.3342 82.2218L83.4812 82.2878L83.6262 82.4258L83.4872 82.5548L83.3522 82.6118L82.5542 82.7528L81.8142 83.3438L81.5052 83.4178L81.2302 83.6788L81.2022 83.9018L81.1152 84.0368L80.9392 84.0438L80.5532 83.9218L80.0522 83.9188L79.6902 84.0158L77.8412 84.9768L77.1772 85.3628L76.4202 86.1498L75.1432 87.0338L74.4722 87.5628L74.3452 87.6998L74.2392 87.7068L74.0292 87.8168L74.1122 87.9078L74.2552 87.9158L74.1962 88.2248L73.9292 88.4358L73.4282 88.9908L73.3172 88.9498L73.4762 88.6608L73.2302 88.6498L72.8682 88.5438L72.7112 88.6628L72.7982 88.9488L72.6622 89.0718L72.4152 89.0858L72.1912 89.0518L71.9452 88.8428L72.0562 89.2218L72.5762 89.3138L72.7922 89.4028L72.8732 89.5488L72.4692 90.2258L72.1312 90.3138L72.0942 90.4098H72.2802L72.3832 90.5978L72.2622 91.3558L72.0952 91.4998L71.9972 91.5038L71.9002 91.6338L72.0332 91.8818L72.1712 92.0628L72.1522 92.4148L72.1002 92.7058L72.0972 92.9888L72.2712 93.5368L72.3342 94.0998L72.4042 94.3048L72.4442 94.5328L72.3282 94.7458L72.3942 95.0878L72.1962 95.6708L72.3002 96.5128L72.2582 97.3048L72.1802 97.7218L72.0542 98.0478L71.7622 98.4678L71.7562 98.8888L71.1272 99.2818L70.4322 99.8308L69.7902 100.483L69.0992 101.404L68.2932 102.81L67.5462 104.827L66.6472 106.359L66.2872 106.914L65.8012 107.536L65.1542 108.262L64.2882 108.99L63.3402 109.64L62.9982 109.933L62.6642 110.346L62.5812 110.175L62.6532 109.893L62.6072 109.682L62.5972 109.409L62.7882 109.358L63.0742 109.532L63.2202 109.414L63.3262 109.298L63.6712 109.225L64.3292 108.512L64.8172 108.249L65.0922 107.8L65.1392 107.562L65.1282 107.079L65.2842 106.956L65.6372 106.998L65.7092 106.86L65.6782 106.708L65.7472 106.376L66.2262 106.082L66.4532 105.728L66.3772 104.826L66.4652 104.785L66.6622 104.925L66.7552 104.867L66.8542 104.472L66.8062 104.267L66.5742 104.213L65.7722 104.658L65.5112 104.639L65.4682 104.29L65.0782 104.13L64.9262 103.84L64.8812 103.642L64.7462 103.561L64.7542 103.904L64.7912 104.237L65.1412 104.626L65.0562 104.781L64.8902 104.961L64.7742 105.362L64.7872 105.883L64.6932 105.724L64.5732 105.632L64.5242 106.192L64.2922 106.407L64.2192 106.618L64.2802 106.863L64.1602 107.032L63.5692 107.487L62.9802 107.798L62.8522 107.944L62.7892 108.292L62.6992 108.649L62.4382 108.964L62.2312 109.59L62.2362 109.86L62.3052 110.258L62.4162 110.52L62.2402 110.695L62.0032 111.035L61.8152 111.419L61.3472 112.864L60.9442 113.739L60.6332 114.168L60.1902 114.621L58.9282 115.762L58.8522 115.746L58.6672 115.654L58.5122 115.545L58.4772 115.472L58.4592 115.363L58.4802 114.952L58.4772 113.85L58.5322 113.642L58.6142 113.508L58.8602 113.314L59.0992 113.037L59.3692 112.684L59.6182 112.404L59.5292 112.216L59.3212 112.034L58.9522 111.888L58.5972 111.63L58.2822 111.298L58.1362 110.953L58.0022 110.581L57.8752 110.288L57.8332 110.154L57.7082 110.098L57.5102 109.949L57.3862 109.81L57.2052 109.73L56.8812 109.643L56.5442 109.49L56.1252 109.128L55.8232 108.727L55.6742 108.462L55.5152 108.276L54.6502 107.968L54.2572 107.601L54.1022 107.716L53.8712 107.604L53.6432 107.428L53.5752 107.292L53.4792 107.153L53.3892 106.994L53.3312 106.842L53.0972 106.575L52.7942 106.287L52.6662 106.205L52.5982 106.229L52.5332 106.339L52.4912 106.446L52.3772 106.517L52.2362 106.649L52.0912 106.811L51.9062 106.918L51.6862 106.955L51.5382 106.95L51.5082 106.886L51.5002 106.665L51.5552 106.162L51.4272 105.968L51.2562 105.76L51.0592 105.483L50.4112 104.896L49.5282 104.053L49.2162 103.796L48.9232 103.776L48.6552 103.805L48.4082 103.916L48.2212 104.305L48.1442 104.365L47.6682 104.357L47.1952 104.294L47.0362 104.057L47.1622 103.903L47.6072 103.561L47.8532 103.256L47.9002 102.989L48.1132 102.749L48.4932 102.537L48.9162 102.147L49.3822 101.579L49.6662 101.161L49.7662 100.891L49.9492 100.683L50.2152 100.537L50.4472 100.233L50.6462 99.7708L50.9172 99.4038L51.2612 99.1318L51.4542 98.9058L51.4952 98.7268L51.5922 98.6128L51.7462 98.5628L51.8202 98.4688L51.8152 98.3308L51.8572 98.2368L51.9452 98.1868L52.0932 98.2048L52.3012 98.2898L52.4262 98.2738L52.4692 98.1568L52.4142 98.0228L52.2612 97.8728L52.3192 97.7098L52.7212 97.4458L53.0172 97.3458L53.2052 97.1828L53.3832 96.9238L53.6722 96.7438L54.0712 96.6418L54.1772 96.5448L54.1622 96.4198L54.2442 96.3298L54.4802 96.2648L54.6082 96.1428L54.6292 95.9638L54.7052 95.7978L54.8362 95.6448L54.9822 95.5878L55.1432 95.6268L55.2942 95.5688L55.4362 95.4138L55.6062 95.3418L55.8042 95.3518L55.9062 95.3178L56.2462 95.2458L56.4342 95.1158L56.5882 94.8248L56.7252 94.7128L56.8452 94.7778L57.0522 94.6808L57.3462 94.4218L57.4022 94.4168L57.6192 94.2958L57.8432 93.8478L57.9582 93.5488L57.9312 93.3038L57.8572 93.1288L57.8822 92.8718L57.9562 92.1748L57.9762 91.8898L58.0952 91.6918L58.0872 91.4958L57.8752 91.0558L57.6612 90.6698L57.5462 90.0168L57.4702 89.7688L57.2922 89.7028L57.1302 89.4868L56.9262 89.4678L56.8302 89.3848L56.7312 89.3168L56.5862 89.3368L56.4622 89.4628L56.2332 89.4668L56.0882 89.5188L55.9182 89.6308L55.7562 89.5798L55.6542 89.4808L55.4352 89.4798L55.4502 89.0368L55.8362 88.3808L55.9402 88.0758L55.8902 87.9028L56.0052 87.2938L56.2862 86.2518L56.3762 85.5708L56.2742 85.2498L56.2712 85.0258L56.4162 84.8358L56.4862 84.7788L56.1242 84.5468L55.9292 84.3348L55.6792 84.1838L55.4102 84.0628L55.2802 84.1138L55.1412 84.1838L54.8722 84.2948L54.5662 84.4868L54.4082 84.5568L54.1292 84.6278L53.8142 84.6888L53.5542 84.6488L53.3312 84.6078L53.1912 84.4868L53.1172 84.2238V84.0018L53.0712 83.6798L52.9042 83.4978L52.8482 83.3568L52.8392 83.1858L52.8582 82.9948L52.9042 82.8538L52.8762 82.6828L52.8022 82.5618L52.8212 82.3508L52.7842 82.0588L52.6732 81.8778L52.6172 81.6678V81.4578L52.5342 81.2478L52.5252 81.0178L52.5992 80.8078L52.6272 80.5978L52.5442 80.4478L52.3862 80.3578L52.2652 80.1178L52.2462 79.8078L52.1162 79.6388L51.9772 79.4988H51.8192L51.5782 79.4188L51.3652 79.4288L51.0212 79.4188L50.8632 79.3688L50.7802 79.2598L50.5672 79.1108L50.4462 78.8518L50.2982 78.8018L50.0842 78.8818L50.0102 78.9818L49.9272 79.1218L49.7792 79.2818L49.5842 79.2718L49.3802 79.3618L49.1852 79.3718L48.9252 79.3918L48.6652 79.3118L48.3502 79.2218L48.0802 79.1618L47.8202 79.2218L47.6442 79.1718L47.4122 79.1418L47.1522 79.1218L46.9482 78.9618L46.7252 78.8728L46.6042 78.9028L46.4462 79.0028L46.2792 78.9828L46.0652 78.9028L45.9822 78.7138L46.0012 78.5938L46.0472 78.4738L46.1302 78.3048L46.0842 78.1258L46.1032 77.9668L46.1402 77.8278L46.1772 77.6688L46.1492 77.5198L46.1402 77.3608L46.1212 77.2118L46.0932 77.0528L46.2042 76.8248L46.2972 76.6368L46.2412 76.4788L46.2602 76.3698L46.3342 76.1918L46.4272 75.9738L46.4182 75.5678L46.3352 75.3308L46.2442 75.2668L46.2212 75.1958L46.2652 75.1018L46.2172 75.0058L46.1982 74.9068L46.2462 74.8208L46.1802 74.6508L46.0472 74.6018L46.0012 74.5528L45.9552 74.3648L45.9182 74.1478L45.9372 73.9808L45.8722 73.8338L45.7792 73.7448L45.6862 73.5878L45.5932 73.4698L45.5562 73.3028L45.4942 73.0868L45.6792 73.0468L45.7522 72.9258L45.8822 72.7618L46.0532 72.7188L46.2572 72.6588L46.3322 72.5378L45.8572 72.1018L45.5722 71.8408L45.7392 71.4868L46.0212 70.8918L46.2932 70.3158L46.5012 69.8778L46.5542 69.7968L46.7362 69.7688L46.7032 69.5428L46.6972 69.3948L46.5512 69.3868L46.7142 68.8528L46.9552 68.0928L47.1382 67.5178L47.1972 67.4218L47.3282 67.3948L47.3582 67.3288L47.2002 67.2368L47.1032 67.0578L46.8922 66.5448L46.5592 65.7368L46.5352 65.4478L46.4132 65.2698L46.2092 65.3298L45.9682 65.2728L45.3652 64.8348L44.9662 64.5978L44.8312 64.4578L44.7712 64.0088L44.6522 63.5138L44.6012 62.9018L44.6222 62.7558L44.9592 62.2918L44.9582 62.0578L44.9862 61.8528L44.9722 61.6908L44.8892 61.6888L44.7542 61.7598L44.5492 61.8138L44.4332 61.8188L43.2562 61.7748L41.9172 61.7248L40.8032 61.6828L39.8362 61.6468L39.8042 61.2478L39.7492 60.5808L39.7102 60.1068L39.6482 59.3568L39.2602 58.8898L38.8392 58.3838L38.6912 58.2538L39.2002 58.2378L39.5612 58.2268L39.4902 56.8698L39.3802 56.7318L39.2822 56.2938L39.2162 56.0458L39.0372 55.8458L38.9962 55.6198L39.0292 55.4698L39.1272 55.3768L39.1922 55.1448L39.1432 54.9118L39.0372 54.6948L38.9072 54.4868L38.6582 54.3588L38.3022 54.1268L37.7622 53.8318L37.3062 53.6258L37.1602 53.6508L36.3542 53.7308L36.0862 53.7728L35.9062 53.7258L35.3052 53.7278L35.0692 53.5698L34.8712 53.3848L34.4502 52.9148L34.3852 52.6798L34.2222 52.6048L33.9752 52.6338L33.7252 52.6018L33.2412 52.4068L32.7872 52.2068L32.5672 52.2148L32.3722 52.0898L32.0272 51.7848L31.8662 51.6658L31.7932 51.5078L31.7202 51.2758L31.5812 51.2258L31.4022 51.2678L31.2082 51.3868L30.9362 51.3078L30.6032 51.0938L30.3882 50.9268L30.2652 50.8478L29.9762 50.7308L29.6972 50.7068L29.2752 50.8788L28.9292 50.8078L28.3872 50.7458L27.9232 50.6208L27.7542 50.2968L27.6632 50.0828L27.3872 49.9488L27.1672 49.7848L26.9052 49.5358L26.7752 49.4528L26.5382 49.3838L26.3192 49.2958L26.2952 49.1388L26.2132 48.9318L26.1942 48.8808L26.0452 48.6298L25.9752 48.6118L25.8982 48.6618L25.8402 48.6978L25.7772 48.6538L25.7662 48.5418L25.8062 48.3618L25.7202 48.1738L25.5072 47.9758L25.3952 47.7708L25.3852 47.5588L25.3382 47.4178L25.2532 47.3458L25.2052 47.2218L25.1952 47.0458L25.2572 46.8358L25.3912 46.5928L25.3622 46.2178L25.1712 45.7118L25.0652 45.3478L25.0452 45.1238L25.0742 44.9578L25.1902 44.7968L25.4212 44.4018L25.4622 44.1008L25.3892 43.7618L25.3792 43.5028L25.4322 43.3248L25.3522 43.0918L25.1882 42.8718L25.0742 42.8668L24.9192 42.9268L24.7322 43.1128L24.5122 43.1458L24.3172 43.0308L23.7052 43.0788L22.7542 43.1938L22.3742 43.3128L22.1502 43.3638L21.8792 43.4028L21.4452 43.6168L20.3742 44.4478L20.1522 44.5688L19.9002 44.5858L19.7532 44.7008L19.5172 44.7908L19.0532 45.1198L18.8172 45.3838L18.6622 45.6228L18.4832 45.6308L18.3442 45.5648L17.9052 45.5978L17.6802 45.6798L17.4362 45.9118L17.1332 46.3318L17.0082 46.4518L16.7642 46.5758L16.4822 46.6788L16.1332 46.8328L15.9772 46.8428L15.8392 46.8698L15.7202 46.7998L15.6802 46.6488L15.5002 46.5538L15.0702 46.5058L14.4332 46.3958L13.7762 46.3748L13.4502 46.3848L13.1822 46.3918L12.7172 46.3328L12.3782 46.3228L12.0812 46.4718L11.6492 46.6568L11.4522 46.7038L11.3072 46.7108L11.1662 46.6878L11.0012 46.5918L10.7702 46.3708L10.5922 46.4558L10.4642 46.5508L10.4662 46.0698L10.4692 45.3468L10.4722 44.7098L10.4742 44.2008L10.4762 43.6068L10.4782 43.1878L10.5992 43.0288L10.6732 42.8508L10.5842 42.6128L10.6042 42.3948L10.6662 42.2428L10.7472 42.0948L10.5602 42.1688L10.4782 42.2098L10.3782 42.3218L10.1362 42.4738L9.97421 42.6258L9.7832 42.7498L9.5412 43.0228L9.34222 43.1728L9.13522 43.2688L8.7912 43.5898L8.50623 43.6538L7.75223 43.7028L6.9682 43.7018L6.25122 43.7008L6.14322 43.6968L6.15021 43.4318L6.16821 43.2448L5.92322 43.0478L5.90622 42.8048L5.84122 42.6368L5.75922 42.4318L5.58823 42.3008L5.3472 42.2498L4.95221 42.1368L4.36621 42.0188L3.80621 42.0108L3.2572 42.0218L3.59222 41.6098L3.92722 41.1988L3.91721 40.8408L3.64621 40.5288L3.50021 40.3348L3.2742 40.0678L2.99521 39.8828L2.8432 39.6368L2.85721 39.4878L2.83322 39.3898L2.7272 39.3328L2.62122 39.2428L2.47522 39.1438L2.3042 39.0128V38.8818L2.23923 38.7428L2.13321 38.5798V38.4488L2.03522 38.2438L1.9292 38.0968L1.82321 37.9988L1.66821 37.8598L1.67621 37.7458L1.79022 37.6888L1.8392 37.5578L1.82321 37.4268L1.69321 37.3448L1.53821 37.3038L1.33423 37.0668L1.18723 36.9438L1.0892 36.8698L1.03223 36.7878L1.0892 36.7308L1.15421 36.6488L1.1712 36.5178L1.13821 36.3958V36.2898L1.23621 36.2568L1.34222 36.2738L1.44821 36.2088L1.58722 36.1848L1.74222 36.1678L1.82422 36.0948L1.81622 35.9648L1.7182 35.7118L1.62021 35.6058L1.58722 35.4508L1.66721 35.1528L1.7182 34.9618L1.89722 34.7598L2.44321 34.3268L2.93323 34.0328L3.17221 34.0028L3.34921 33.8938L3.46121 33.7268L3.49222 33.5448L3.46722 33.3858L3.37622 33.1518L3.26721 32.8598L3.18521 32.6968L3.25821 32.5018L3.38821 32.2348L3.65421 31.8318L3.90222 31.3978L3.9292 31.2718L3.96121 31.0068L4.07523 30.4668L4.13821 30.1748L4.10522 30.0618L4.1622 29.9638L4.3172 29.8818L4.69122 29.8078L4.94522 29.6468L5.33621 29.3438L5.6622 29.0218L5.93222 28.9178L6.4212 28.6198L6.70221 28.4308L6.81223 28.3718L7.08823 28.2348L7.58322 28.1878L7.99521 28.1388L8.22821 28.0488L8.56921 28.0118L8.79822 27.9108L9.05322 27.9078L9.53223 27.8048L9.69522 27.6508L9.83423 27.4668L10.0212 27.3098L10.2402 27.2688L10.4842 27.2958L10.7762 27.2928L11.1302 27.2438L11.3012 27.3658L11.3762 27.5148L11.5942 27.6658L11.7492 27.6578L11.9042 27.6248L12.1162 27.7548L12.2552 27.7388L12.3442 27.6658L12.3612 27.4838L12.4112 27.3848L12.5152 26.8148L12.6872 25.8738L12.8432 25.0208L13.0152 24.0778L13.1942 23.1038L13.3752 22.1178L13.5232 21.3088L13.6502 20.6138L13.7292 20.1868L13.8512 19.6278L13.8992 19.1368L13.9482 18.9958L13.9172 18.8768L13.8112 18.7078L13.8122 18.6338L13.8242 18.5358L13.8122 18.4498L13.7012 18.3578L13.6152 18.3028L13.5472 18.2228L13.5162 18.1118L13.4602 18.0008L13.4352 17.8838L13.3542 17.7918L13.3302 17.6748L13.3862 17.5638L13.4102 17.4468L13.3862 17.3368L13.3552 17.2078L13.2932 17.0848L13.1992 17.0098L12.9742 16.9268L12.7482 16.7278L12.4812 16.5498L12.1412 16.2118L12.0672 16.0518L12.0662 15.6128L12.0812 15.1368L12.1032 14.4178L12.1142 14.0518L12.3062 14.0308L12.4752 14.0208L12.6522 13.9958L12.8062 13.9708L12.9482 13.9178L13.0542 13.8528L13.1802 13.8108L13.2792 13.8258L13.3782 13.7678L13.4872 13.7128L13.5932 13.6678L13.7472 13.6298L13.8912 13.7178L13.9722 13.8058L14.0662 13.8478L14.1542 13.8378L14.2152 13.8458L14.2782 13.9158L14.3592 13.9208L14.4752 13.9078L14.5842 13.8928L14.6342 13.8718L14.6422 13.8268L14.6142 13.7488L14.5762 13.6758L14.6062 13.5628L14.6092 13.4268L14.6142 13.2538L14.5282 13.1578L14.4422 12.9768L14.3462 12.8308L14.1972 12.7328L14.0582 12.6948L13.9422 12.7558L13.8342 12.7658L13.7532 12.7108L13.6222 12.7088L13.4802 12.6908L13.3312 12.6698L13.0612 12.7098L12.9652 12.6608L12.8342 12.6558L12.6822 12.7088L12.6862 12.0138L12.6902 11.3588L12.6922 10.8988L12.8282 10.9088L12.9972 10.8258L13.2482 10.8128L13.4412 10.7258L13.5492 10.7188L13.7532 10.7608L13.9662 10.8508L14.1752 10.8638H14.7232H15.3152H15.9742H16.6342H17.2062L17.3832 10.8688L17.2802 10.7158L17.1602 10.5178L17.2062 10.3618L17.2652 10.2048L17.3342 10.1228L17.5122 10.2098L17.6612 10.4768L17.7852 10.6778L17.9062 10.7768L18.0562 10.7878L18.2262 10.7538L18.3962 10.6708L18.6862 10.3028L18.9742 9.98779L19.1232 9.88177L19.2812 9.78479L19.3992 9.74777L19.5602 9.7598L19.6962 9.84579L19.7842 9.99579L20.1062 10.5178L20.3492 10.9118L20.4312 11.1578L20.4362 11.7578L20.4212 12.2888L20.4532 12.3578L20.5012 12.3778L21.0322 12.2528L21.7532 12.8968L22.2862 13.3728L22.5162 13.5248L22.6442 13.5668L22.9542 13.5348L23.3222 13.4728L23.5012 13.4048L23.6992 13.2558L24.0202 13.0488L24.2822 12.9348L24.3852 12.9198L24.4892 12.9568L24.7102 13.0808L24.8312 13.3108L24.7202 13.5778L24.7392 13.7438L24.9712 13.7348L25.1572 13.4588L25.2872 13.2408L25.5592 13.0638L25.8242 12.8128L26.0092 12.5728L26.2262 12.4328L26.5532 12.2618L26.8122 12.1578L27.0542 12.1688L27.2342 12.0558L27.4672 11.8438L27.6302 11.6738L27.7432 11.6128L27.9702 11.6298L28.2532 11.6068L28.5312 11.3998L28.7842 11.1498L28.9182 10.7278L29.0062 10.3538L29.0822 10.2778L29.1742 10.2178L29.2822 10.1788L29.5422 10.1518L29.9982 9.95279L30.3122 9.75079L30.6102 9.70779L30.6982 9.65378L30.8062 9.4668L30.8602 9.13779L30.8192 8.93878L30.2712 8.8768H29.9122L29.3182 8.82578L29.0352 8.74377L28.9742 8.6868L28.9682 8.62378L29.0252 8.48077L29.0802 8.21378L28.9992 7.85178L28.7032 7.28479L28.4922 6.72678L28.4642 6.3378L28.4692 5.92679L28.4862 5.65778L28.3342 5.44778L27.5132 4.78479L27.2292 4.47177L27.1352 4.25479L26.8112 3.85577L26.8932 3.73279L27.0802 3.73679L27.2392 3.84079L27.3852 4.06277L27.4892 4.11279H27.6322L28.3892 4.11179L28.5662 4.14978L28.6732 4.22479L28.7642 4.31778L28.9002 4.57678L29.0462 4.70279L29.3462 4.69879L29.8162 4.69379L30.0802 4.67078L30.2382 4.7428L30.4342 4.8028L30.8472 4.66479L30.9622 4.66177L31.0862 4.72278L31.5312 5.18579L31.7862 5.3808L32.0012 5.6398L32.3142 5.64078L32.5742 5.41879L32.6432 4.67178L32.7212 4.45477L32.8522 4.3938L33.0082 4.38678L33.1932 4.26978L33.3932 4.1178L33.5672 4.06677L34.2902 4.2298L34.4912 4.15179L35.2232 3.95477L35.9712 3.70078L36.1812 3.3808L36.4942 3.2948L36.7402 3.06079L36.9382 3.08478L37.2382 3.09479L37.4242 3.05377L37.5182 3.0098L37.6212 2.89978L37.7902 2.58679L37.9952 2.46777L38.2522 2.3418L38.4282 2.19379L38.5732 2.01077L38.6402 1.85178L38.6382 1.7258L38.5532 1.48077L38.4492 1.25079L38.3372 1.17477L38.2532 1.14578L38.5082 1.0918L38.7182 1.17279L39.0462 1.18478L39.1892 1.12277L39.3962 1.1528L39.6582 0.987793L39.8262 1.04178H39.9372L40.0382 1.16678L40.1172 1.3078L40.3622 1.47879L40.3382 1.7388L40.2932 1.96878L40.2612 2.23477L40.2472 2.4368L40.1432 2.6438L39.9872 2.83679L39.9412 2.91479L39.9192 3.01678L40.0242 3.0788L40.2102 3.09677L40.4422 3.1048L40.6002 3.16479L40.8042 3.17679L41.0502 3.34277L41.1692 3.44278L41.1792 3.51978L41.1012 3.7038L41.0702 3.87378L41.1312 3.98178L41.2032 4.05978L41.4022 4.44379L41.4972 4.57678L41.5772 4.61978L41.5962 4.69379L41.5282 4.8338L41.4462 5.01178L41.2612 5.19879L41.2362 5.34677L41.0892 5.43979L40.7442 5.6608L40.8042 6.01077L40.8162 6.18777L40.8102 6.32578L40.6922 6.51077L40.4882 7.05579L40.4132 7.32779L40.3472 7.95578L40.3512 8.16678L40.4452 8.4498L40.6452 9.0788L40.7592 9.17978L41.0222 9.32678L41.0552 9.7518L41.0322 10.1958L41.0202 10.3678L41.0632 10.4418L41.1812 10.4778L41.2652 10.5308L41.2782 10.6618L41.2702 10.7988L41.4662 10.8778L41.6372 10.9278L41.7952 11.1158L42.0802 11.4088L42.1942 11.4628L42.2512 11.5838L42.4922 11.8308L42.8592 11.9208L43.2292 12.0298L43.3752 12.1848L43.5272 12.3108L43.6422 12.3168L43.7392 12.2968L43.8992 12.1878L44.0272 12.0938L44.2502 12.0998L44.5122 12.0838L44.5572 12.0068L44.5822 11.9078L44.5282 11.6548L44.6212 11.5778L44.8382 11.5348L44.8812 11.3998L44.9302 11.3258L44.9922 11.2398L45.0662 11.2278L45.1592 11.2768L45.3022 11.3078L45.4632 11.3508L45.5492 11.4368L45.6922 11.4438L45.8512 11.4278L45.9152 11.3728L45.9622 11.2768L45.9972 11.0698L46.0992 11.0638L46.3042 11.0178L46.5222 10.9268L46.8142 10.9128L47.0872 10.9148L47.2242 10.8538L47.3512 10.7208L47.5972 10.3438L47.7262 10.2568L47.8652 10.1918L47.9832 10.2038L48.2242 10.1408L48.4222 10.0508L48.4962 10.0738L48.6502 10.2668L48.7282 10.3088L48.8422 10.3228L49.2152 10.4208L49.4132 10.3898L49.6272 10.3278L49.8332 10.3048L49.9812 10.3478L50.0882 10.2918L50.1812 10.2548ZM67.5362 10.2648L67.2562 10.3918L67.0952 10.3428L66.9472 10.0108L66.9972 9.73477L67.2002 9.64279L67.3572 9.66278L67.4152 9.69778L67.5552 10.1508L67.5362 10.2648ZM67.9462 14.5748L67.6412 14.6688L67.5842 14.5808V14.2298L67.6702 14.0378L68.0582 13.9838L68.0982 13.9268L68.2092 13.8908L68.2712 14.0118L68.2622 14.2128L67.9462 14.5748ZM67.1792 15.2818L67.1292 15.6918L66.6242 15.5188L66.6622 15.0998L66.8982 14.9818L67.1072 14.7588L67.1792 14.4858L67.1832 14.1138L67.2612 14.0498L67.3292 14.0238L67.3902 14.0488L67.4142 14.6068L67.4432 14.9488L67.1792 15.2818ZM69.1102 14.9228L69.2252 15.0688L68.8282 15.6518L68.6092 15.7358L68.3692 15.7528L68.0582 15.5788L67.5742 15.5918L67.4232 15.5508L67.4072 15.2968L67.6102 15.0258L68.0162 15.0408L68.7152 14.8228L69.1102 14.9228ZM69.9362 15.9838L69.1922 16.0708L68.8522 15.9318L68.9292 15.8148L69.1832 15.6278L69.4922 15.4958L69.7692 15.4368L70.0582 15.5108L70.1372 15.6678L70.1132 15.8258L69.9362 15.9838ZM66.5432 16.0368L65.7752 16.5828L65.5152 16.4038L65.4612 16.2998L65.5052 16.1948L65.4962 16.1508L65.5822 15.9638L66.0112 15.8108L66.2272 15.7848L66.5032 15.8328L66.5492 15.9668L66.5432 16.0368ZM69.4172 16.3098L69.6792 16.3218L70.0502 16.2688L70.2992 16.1388L70.5772 16.1128L70.8522 16.1268L71.7792 16.2718L72.3362 16.3168L72.5402 16.3628L72.7392 16.4288L72.8852 16.4998L72.9212 16.6538L72.7862 16.9018L72.6852 17.1618L72.5912 17.5248L72.5182 17.5978L72.3962 17.5788L72.4722 17.9038L72.4452 18.0338L72.3842 18.1598L72.2352 18.4218L72.0092 18.7558L71.9422 18.8258L71.7702 18.9418L71.6302 19.0898L71.6602 19.2298L71.7302 19.3708L71.6472 19.5468L71.3802 19.8038L71.2202 19.8658L71.0732 19.8918L70.9372 19.8668L70.6962 19.6088L70.6712 19.8108L70.6062 20.0178L70.5242 20.1308L70.2132 20.1188L70.0402 20.0078L69.7592 19.8848L69.7062 20.2168L69.5312 20.4458L69.3552 20.5178L69.0792 20.5658L68.9212 20.6638L68.6232 20.5878L68.3462 20.4358L68.1892 20.4228L68.0672 20.5458L67.4242 20.5688L67.1292 20.6938L66.9492 20.6588L66.6842 20.4068L66.6422 20.2398L66.4842 19.9008L66.3422 19.4978L66.2412 19.1318L66.3262 18.8158L66.4982 18.8258L66.7012 18.8728L66.7442 18.8508L66.7542 18.7488L66.7092 18.6648L66.3822 18.6778L66.1752 18.4898L66.1392 18.1998L66.1812 17.5958L66.2082 17.4718L66.3532 17.2988L66.4002 17.1458L66.3642 16.9838L66.4262 16.6888L66.5612 16.4338L67.0772 16.1118L67.6762 15.9968L69.4172 16.3098ZM63.2322 19.6678L62.9352 19.7208L63.3182 19.0228L63.6602 18.6978L63.6652 18.0538L64.0362 17.4808L64.3772 17.2478L64.8562 17.1798L65.1182 17.5288L64.7932 18.5188L64.6982 18.5248L64.2632 19.0468L63.7792 19.4118L63.2322 19.6678ZM82.7362 19.3448L82.5562 19.4788L82.4972 19.5478L82.3492 19.4958L82.3762 19.4188L82.4202 19.4268L82.4682 19.2028L82.7212 19.2298L82.7362 19.3448ZM83.8132 23.8688L83.5372 24.1428L83.6282 23.8258L83.5822 23.6068L83.6182 23.4378L83.8072 23.2738L83.8642 23.2498L83.8482 23.4518L83.8612 23.5138L83.8132 23.8688ZM99.9652 52.5078L99.8552 52.5698L99.8442 52.3878L100.131 52.1588L100.178 51.8878L100.328 52.0128L100.368 52.1518L100.366 52.2098L99.9652 52.5078ZM99.5172 53.5858L99.4212 53.7548L99.3102 53.7298L99.2662 53.6168L99.1842 53.5068L99.2282 53.4208L99.3022 53.3718L99.5072 53.3788L99.5172 53.5858ZM84.8512 82.0358L84.9392 82.1188L84.7772 82.1108L84.5952 82.1838L84.3162 82.2488L84.2042 82.1268L84.4452 81.9568L84.5332 81.8298L84.5962 81.8568L84.6772 81.9488L84.8512 82.0358ZM81.6772 84.3108L81.6752 84.4698L81.5582 84.3888L81.2482 84.4508L81.1402 84.3308L81.5582 83.8178L81.6422 83.8928L81.7072 83.9858L81.7522 84.1158L81.7042 84.1998L81.6772 84.3108ZM72.3482 92.0578L72.2962 92.0958L72.1202 91.7088L72.4742 91.3378L72.5922 91.4878L72.4982 91.7818L72.3942 91.9898L72.3482 92.0578ZM72.6252 96.3388L72.4322 96.4818L72.4672 95.7328L72.5712 95.4828L72.6842 95.2958L72.8242 95.1808L72.9282 95.3438L72.8392 95.7048L72.5942 96.1478L72.6252 96.3388Z" fill="#CCCCCC" stroke="white" stroke-width="0.5"/>
</svg>
