<svg width="11" height="6" viewBox="0 0 11 6" fill="none" xmlns="http://www.w3.org/2000/svg">
<path d="M8.8631 2.02377L8.84711 2.09479L8.76813 2.2858L8.71613 2.49179L8.75909 2.66177L8.93713 2.86279L9.17615 3.02377L9.47913 3.0358L9.75909 2.97379L9.87012 2.99979L10.0221 3.2688L10.1311 3.50079L9.98309 3.74078L9.90314 3.95078L9.87512 4.09979L9.89313 4.16479L9.98309 4.28479L10.0881 4.49078L10.1031 4.67978L10.0361 4.80478L9.89215 4.86679L9.7381 4.84879L9.61115 4.85178L9.45312 4.87378L9.20514 4.94278L8.9751 5.03278L8.54211 5.01678L8.36914 4.82977L8.28815 4.8288L7.89514 5.0708L7.46613 5.0278L6.6861 5.1088L6.35913 5.12778L6.02411 5.1008L5.85413 5.04977L5.5401 4.87979L5.25415 4.75677L4.96411 4.86978L4.86115 4.89078L4.62915 5.18079L4.12415 5.27679L3.62109 5.34677L3.47211 5.30878L3.18811 5.29077L3.1781 5.22278L3.18713 5.1568L3.12213 5.1048L3.00714 5.05078L2.80914 5.0278L2.55511 4.95578L2.40912 4.88678L1.89313 4.9888L1.5921 4.83578L1.25012 4.62479L1.07715 4.53378L1.01514 4.20779L0.954102 4.10278L0.819092 3.99179L0.744141 3.86179L0.805115 3.72879L1.14514 3.4798L1.17212 3.42078L1.33014 2.95679L1.54913 2.78677L1.76514 2.55179L1.9281 2.1778L2.24213 1.79279L2.58813 1.3978L2.82611 1.07578L2.98309 0.925781L3.30914 0.764801L3.58112 0.6698L3.77014 0.454773L3.99713 0.333801L4.2301 0.279785L4.57715 0.309784L4.90314 0.385773L5.26111 0.493774L5.30212 0.58078L5.27112 0.732788L5.22009 0.888794L5.21912 0.967773L5.27313 1.01178L5.62311 1.04178L6.05212 1.01779L6.29211 1.03879L6.82812 1.18179L6.98413 1.28278L7.14813 1.35977L7.30914 1.34677L7.51111 1.18079L7.72412 1.04077L7.85614 1.01779L7.95111 1.06277L8.12109 1.19678L8.4751 1.32278L8.78912 1.41779L8.89215 1.50778L8.85614 1.89478L8.8631 2.02377Z" fill="#CCCCCC" stroke="white" stroke-width="0.5"/>
</svg>
