<svg width="28" height="29" viewBox="0 0 28 29" fill="none" xmlns="http://www.w3.org/2000/svg">
<path d="M15.5876 1.10199L15.5327 1.24701L15.4896 1.45801L15.5416 1.61603L15.6536 1.828L15.8156 2.013L15.9396 2.12299L16.0866 2.396L16.2346 2.73798L16.4286 3.00403L16.9976 3.61401L17.0606 3.83301L17.1396 4.04999L17.4976 4.46698L17.5536 4.60602L17.5297 4.88898L17.8976 5.74103L18.1396 6.23901L18.3446 6.33099L18.9996 6.862L19.5717 7.28998L20.2407 7.57898L20.7316 7.76898L20.9746 7.90802L21.0966 8.04102L21.1946 8.297L21.2456 8.74298L21.2626 9.03101L21.7906 9.02002L22.2277 9.04602L22.3806 9.104L22.4376 9.18597L22.4246 9.37598L22.4307 9.65997L22.4506 9.88898L22.4056 10.133L22.3746 10.421L22.3536 10.779L22.4207 10.918L22.8436 11.369L23.0206 11.661L23.2097 12.104L23.3196 12.246L23.4086 12.303L23.7906 12.351L24.7736 12.537L25.3796 12.707L25.8607 12.882L26.0616 12.928L26.1586 12.975L26.1917 13.018L26.1317 13.404L26.1526 13.529L26.2066 13.641L26.2886 13.729L26.3876 13.783L26.7526 13.825L26.9727 14.06L27.1107 14.169L26.4517 14.228L26.1246 14.424L25.9356 14.776L25.6376 15.035L25.2326 15.2L24.8046 15.313L24.3527 15.375L23.8706 15.678L23.3596 16.223L23.0986 16.566L23.0876 16.708L22.9736 16.83L22.7546 16.933L22.6306 17.058L22.6027 17.203L22.4857 17.272L22.2816 17.266L22.1376 17.373L22.0546 17.591L21.8746 17.724L21.5946 17.771L21.3536 17.894L21.1506 18.094L20.9956 18.196L20.8856 18.199L20.7147 18.362L20.4376 18.748L20.3917 18.927L20.0117 20.385L19.8036 20.558L19.4016 20.859L19.0756 21.22L18.9356 21.433L18.7827 21.528L18.0346 21.706L17.7576 21.801L17.4207 21.939L17.3366 22.063L17.2537 22.517L17.0216 23.167L16.8336 23.648L16.7116 24.067L16.4996 24.588L16.3156 24.763L16.1066 24.923L15.8326 25.002L15.4597 25.052L15.1206 25.038L14.8586 25.045L14.4946 25.229L14.1547 25.242L13.6146 25.135L13.1776 25.032L12.9826 25.011L12.5966 24.67L12.3486 24.676L11.9696 24.649L11.7567 24.571L11.5596 24.397L11.1306 24.055L10.7116 23.778L10.3406 23.614L9.99463 23.538L9.66565 23.606L9.40961 23.679L9.31061 23.715L9.11163 23.858L8.90863 24.129L8.73962 24.553L8.67566 24.813L8.48761 25.366L8.23865 26.03L8.11963 26.221L7.98163 26.363L7.76361 26.489L7.05261 27.018L6.69666 27.615L6.47266 27.789L6.20264 27.87L5.97363 27.921L5.84766 28.021L5.7066 28.323L5.58466 28.43L5.44965 28.471L5.04266 28.435L4.91266 28.404L3.83466 28.463L3.50562 28.368L3.27264 28.329L2.90564 28.455L2.75165 28.372L2.62866 28.121L2.5686 27.617L2.58765 27.189L2.78766 26.866L2.95361 26.63L3.11664 26.321L3.13763 26.183L3.10461 26.059L3.07263 25.806L3.05463 25.546L2.82361 24.98L2.53961 24.231L2.15662 23.398L2.03766 23.169L1.79761 22.808L0.909607 22.122L0.773621 22.029V21.953V21.289L0.772644 20.411L0.771606 19.534L0.77063 18.66L0.769653 17.787L0.768616 16.917L0.767639 16.048V15.181L0.766663 14.316L0.765625 13.586H1.40564H2.19666H3.13763H3.55365L3.57764 13.471V12.936L3.57562 11.712L3.57361 10.491L3.57166 9.27399L3.57062 8.06L3.5686 6.84998L3.56665 5.64203L3.56464 4.43799L3.56366 3.23499L3.56262 2.64301L4.28864 2.60699L5.12164 2.48602L6.47363 2.28998L7.7326 2.04602L8.55463 1.90399L9.52863 1.73499L9.86365 1.70599L9.95465 1.729L10.0866 1.78699L10.5386 2.38501L10.8206 2.841L10.8776 3.03699L10.9316 3.05798L11.0646 3.026L11.2147 2.953L11.6736 2.49799L11.7697 2.37903L12.0626 2.159L12.4177 1.93402L12.7396 1.77502L13.0626 1.64301L13.2116 1.67603L13.3876 1.78998L13.5436 1.86102L14.2776 1.31L14.6057 1.18298L15.4677 1.08398L15.5876 1.10199Z" fill="#CCCCCC" stroke="white" stroke-width="0.5"/>
</svg>
