<svg width="28" height="24" viewBox="0 0 28 24" fill="none" xmlns="http://www.w3.org/2000/svg">
<path d="M14.6962 0.290863L15.0792 0.727875L15.1693 0.744873L15.3823 0.572876L15.4243 0.56189L15.8643 0.546875L16.0682 0.698883L16.2202 0.994873L16.3602 1.23087L16.5123 1.29489L16.9402 0.997864L17.1772 0.898865L17.3333 0.901886L17.8823 1.16888L18.1403 1.31488L18.1992 1.44687L18.2053 1.60287L18.1353 1.83389L18.0803 2.08487L18.2473 2.38089L18.4412 2.58188L18.8563 2.24988L19.0092 2.15787L19.1763 2.15488L19.4003 2.03189L19.5623 1.84589L19.7172 1.78189L20.0142 1.82587L20.5502 1.78189L21.1752 2.07288L21.2292 2.16287L21.5413 2.50287L21.6503 2.67188L21.7532 2.72589L21.9193 2.89188L22.1423 2.99588L22.2963 2.96387L22.3702 3.01889L22.4393 3.14886L22.4442 3.37088L22.4222 4.00287L22.3132 4.18488L22.1982 4.33289L22.1693 4.44788L22.1802 4.58688L22.3572 4.85889L22.5853 5.27988L22.6382 5.52289V5.70587L22.3273 6.24188L22.2242 6.36688L22.1522 6.62988L22.1143 6.89688L22.1362 7.00787L22.6562 7.43188L23.0413 7.66089L23.1273 7.77289L23.1353 7.84286L22.9313 8.29587L22.9113 8.41788L23.2192 8.60489L23.3903 8.89987L23.5402 9.37988L23.8333 9.83887L24.4642 10.2449L24.9232 10.5089L25.0192 10.6289L25.0522 10.7709L25.0173 11.0839L24.8983 11.4649L24.8173 11.6759L25.0043 11.7639L25.4852 11.7399L26.0703 11.8139L26.7712 12.2319L26.7733 12.4189L26.7012 12.5899L26.7493 12.7689L26.8253 12.9209L27.4323 13.3859L27.4902 13.5209L27.5002 13.7469L27.4843 13.9119L27.3162 13.9459L27.1293 14.0229L26.8242 14.2209L26.7042 14.4999L26.2103 14.8839L25.9062 15.0579L25.6633 15.0649L25.0853 14.9869L24.8823 14.7979L24.7982 14.6239L24.5762 14.5449L24.2812 14.5379L23.8743 14.5679L23.7913 14.6209L23.7242 14.8339L23.5513 15.1989L23.4272 15.4039L23.5292 15.5299L23.6912 15.7919L23.9432 16.1239L24.2032 16.4189L24.2863 16.5989L24.2822 16.7279L24.1592 16.8789L24.1772 17.1829L24.4293 17.5819L24.3442 17.6459L24.3182 18.1349L24.3212 18.6559L24.3892 18.7819L24.5242 18.8859L24.6392 19.0759L24.8303 19.5079L24.8433 19.6209L24.3112 19.5889L23.6722 19.6019L23.3132 19.8529L23.1732 19.7949L22.9232 19.7309L22.6462 19.8709L22.2682 20.2939L22.0142 20.5569L21.7673 20.9249L21.6893 21.1239L21.5333 21.4899L21.3903 21.9079L21.4683 22.1999L21.5853 22.4709L21.6113 22.7629L21.6693 22.9909L21.5132 23.1569L21.4222 23.3959L21.1562 23.3539L20.8303 23.1249L20.7612 22.7929L20.5103 22.5619L20.3452 22.4409L20.0732 22.4229L19.6382 22.5309L19.0692 22.6139L18.6403 22.6359L18.4062 22.7539L18.0602 22.8699L17.9263 22.7319L17.7343 22.3549L17.5773 21.9789L17.4683 21.8139L17.3743 21.7679L17.2582 21.7769L17.1252 21.8959L17.0253 22.0189L16.8842 22.0619L16.6663 22.1609L16.5073 22.2949L16.3333 22.6409L16.2183 22.6169L16.0992 22.5369L15.9622 22.1499L15.7742 22.0609L15.4733 22.0559L15.1002 21.9739L14.7972 21.8559L14.6873 21.8839L14.5062 22.0489L14.3123 22.0729L13.8842 21.9259L13.8013 21.9939L13.6882 22.2109L13.5552 22.4199L13.4393 22.4409L13.3743 22.3869L13.4102 22.0159L13.1622 21.8849L12.7443 21.8639L12.4503 21.9179L12.3073 21.9029L12.2332 21.8309L11.8732 21.2059L11.6832 21.1659L11.3422 21.1969L10.8392 21.1209L10.2592 20.9799L9.94025 20.9279L9.77527 20.7869L9.41827 20.7389L8.45825 20.4739L8.06726 20.4269L7.49023 20.4229L6.61224 20.3639L6.04926 20.3969L5.78827 20.4849L5.48724 20.5399L4.97827 20.5879L4.77124 20.5829L4.44525 20.6119L4.07123 20.6829L3.96423 20.8139L3.84125 21.1029L3.41125 21.6009L2.99426 21.9309L2.91827 21.9589L2.67426 21.7839L2.47125 21.7249L2.23224 21.7059L2.06323 21.7619L1.95721 21.8449L1.97125 22.2279L1.94727 22.2609L1.76324 21.8069L1.77826 21.3949L1.88025 21.1589L2.00525 20.9459L1.95422 20.6269L2.07623 20.2039L2.08026 19.8969L2.02625 19.7649L1.92725 19.6119L1.65527 19.4419L1.53522 19.3089L1.16724 19.1309L0.802246 18.9099L0.740234 18.7739L0.757263 18.6809L0.821228 18.5389L1.10022 18.1239L1.40222 17.7199L1.59521 17.5579L2.62024 17.0379L2.77826 16.8559L2.81824 16.5479L2.82025 16.3239L2.80127 15.9239L2.73822 15.3539L2.66022 14.9599L2.46423 14.2179L1.93024 12.6749L1.60925 11.0619L1.81824 11.1569L2.30823 11.1919L2.69727 11.0809L2.89923 11.0649L3.07922 11.1009L3.34723 11.0369L3.59222 11.0109L3.71924 11.1559L3.94727 11.2839L4.39825 11.0999L4.79724 10.8709L5.21124 10.8959L5.27026 10.7829L5.37323 10.2079L5.49622 10.0819L5.99127 10.1399L6.17426 10.0359L6.36627 9.75189L6.65826 9.57388L6.90222 9.57489L7.15625 9.37488L7.28125 9.50888L7.34222 9.74786L7.25824 9.93787L7.29425 10.0129L7.47021 10.1069L7.77124 10.1039L7.96423 10.0259L8.00922 9.91687V9.71887L7.96124 9.53387L7.83325 9.37488L7.59326 9.29187L7.42627 9.28989L7.39825 9.18787L7.45526 8.97089L7.60327 8.56888L7.78522 8.20587L7.89624 8.06888L7.91522 7.94186L7.89423 7.72186L7.89026 7.32489L8.05322 6.76489L8.27325 6.34686L8.56824 6.20987L8.92926 6.13687L9.16022 5.93689L9.27423 5.70688L9.31726 5.51187L9.37225 5.34387L9.48724 5.26987L10.3552 5.31589L10.4882 4.95288L10.5632 4.85187L10.7292 4.74387L10.8452 4.61487L10.8022 4.51489L10.5803 4.45087L10.0582 4.39389L9.95325 4.27289L9.98627 4.12787L10.1252 3.75189L10.2582 3.26587L10.3273 2.88889L10.3342 2.66586L10.4092 2.60587L10.8342 2.53488L10.9772 2.45889L11.3433 1.94287L11.6223 1.85489L12.3433 1.98788L12.6732 1.97787L12.7632 1.98987L13.0933 2.01288L13.1293 1.96088L13.2772 1.44989L13.4232 1.30087L13.9902 0.625885L14.3712 0.338867L14.6122 0.275879L14.6962 0.290863Z" fill="#CCCCCC" stroke="white" stroke-width="0.5"/>
</svg>
