<svg width="5" height="10" viewBox="0 0 5 10" fill="none" xmlns="http://www.w3.org/2000/svg">
<path d="M2.89888 1.2468L2.74887 1.58078L2.89888 1.62378L3.03488 1.59277L3.36388 1.6048L3.48988 1.97079L3.45688 2.2778L3.14688 3.08578L3.10788 3.36279L2.96687 3.7778L3.15788 4.05078L2.97888 4.41278L2.91788 4.64679L2.90388 4.99878L2.99388 5.66678L2.84888 6.62878L2.59288 7.0488L2.43388 7.20779L2.14987 7.62479L1.77687 7.74878L1.25987 8.4198L1.16888 8.59579L1.21887 8.7858L1.09789 8.78778L0.602875 8.75677L0.267883 8.79178L0.254883 8.77478L0.281876 8.05377L0.324875 6.9368L0.355881 6.11578L0.38588 5.3118L0.408875 4.7088L0.43988 3.88678L0.466873 3.17679L0.463882 2.92178L0.544876 2.71979L0.777878 2.63577L1.07988 2.8118L1.20587 2.8848L1.31888 2.84277L1.46288 2.73578L1.63889 2.42477L2.08087 1.7818L2.25787 1.3248L2.43088 1.2338L2.68088 1.21777L2.89888 1.2468ZM3.86688 2.85379L3.73387 2.90778L3.84387 2.7388L3.85988 2.6308L4.01389 2.17877L4.12387 2.18079L4.15288 2.22079L3.86688 2.85379ZM4.14188 4.32379L3.92587 4.73279L3.91188 4.61578L4.00188 4.31277L4.12387 4.20679L4.19987 4.09479L4.21687 3.9628L4.32288 4.02679L4.29588 4.1568L4.14188 4.32379Z" fill="#CCCCCC" stroke="white" stroke-width="0.5"/>
</svg>
