<svg width="55" height="54" viewBox="0 0 55 54" fill="none" xmlns="http://www.w3.org/2000/svg">
<path d="M43.6056 1.40784L43.7076 1.60385L43.8526 1.80484L44.3386 2.14484L44.4926 2.33386L44.6116 2.54385L44.6866 2.70786L44.8365 2.83884L45.0466 2.92285L45.2266 3.02286L45.3365 3.16986L45.5016 3.32285L45.8196 3.53085L45.9745 3.53586L46.1536 3.56485L46.3116 3.61984L46.4806 3.60385L46.7536 3.46783L47.0756 3.23984L47.3216 3.09885L47.9166 3.14883L48.2486 3.26385L48.5126 3.42484L48.7186 3.41486L49.1676 3.11685L49.4056 2.79984L49.6366 2.73184L49.9866 2.86984L50.2756 3.16583L50.5296 3.59586L50.7086 3.75986L50.9536 4.01385L51.4406 4.56085L52.0746 4.83484L52.3206 4.96985L52.4006 5.10486L52.4476 5.28485L52.4636 5.47986L52.5406 5.56085L52.7115 5.53284L52.8575 5.50485L53.0186 5.56085L53.1306 5.70285L53.1866 5.81384L53.2476 5.93286L53.4066 6.00885L53.4376 6.16183L53.3286 6.34784L53.2166 6.51486L53.0806 6.84683L53.0096 7.18686L53.1016 7.29984L53.1985 7.39386L53.2505 7.48886L53.2816 7.59985L53.2696 7.72986L53.0536 8.20184L52.9426 8.61386L52.9386 8.82285L53.2236 8.97684L53.5936 8.96884L53.7106 9.06284L53.8276 9.21286L53.9306 9.28986L54.0865 9.28784L54.1946 9.33984L54.2375 9.44586L54.3636 9.55984L54.4695 9.68585L54.4186 9.84683L54.4095 9.96985L54.1456 10.3119L53.5396 10.9789L52.2356 12.2159L52.2346 12.2169L51.7946 12.3658L51.5676 12.5959L51.4066 12.9568L51.0266 13.2628L50.7336 13.3868L50.7026 13.4598L50.6796 13.7918L50.7096 14.2788L50.5726 14.5019L50.3736 14.9359L50.2706 15.2068L50.1906 15.2599L50.1016 15.3958L50.0456 15.8379L50.0076 15.9868L49.8646 16.9019L49.9056 17.1628L49.7946 17.5978L49.7896 17.8539L49.7436 18.1439L49.6646 18.3948L49.6696 18.7968L49.7146 19.4529L49.7065 19.5399L49.5966 19.6009L49.4006 19.7639L49.2156 19.8728L49.0746 19.9008L48.8396 20.1909L48.6396 20.4659L48.4896 20.7339L48.4506 20.8568L48.4816 21.2039L48.5026 21.6148L48.4565 21.7918L48.3866 21.8969L48.0586 22.1198L47.8426 22.2798L47.7406 22.3639L47.6876 22.4929L47.7826 22.7968L47.7896 23.0189L47.8676 23.1498L48.1276 23.2559L48.1266 23.3629L48.1335 23.4778L48.2696 23.6208L48.5176 23.9128L48.7166 24.1869L48.7216 24.4248L48.6836 24.8228L48.6766 25.0518L48.6966 25.3658L48.6956 25.9499L48.6816 26.3658L48.7136 26.5818L49.0176 27.0968L49.1516 27.6678L49.2186 28.0858L49.2216 28.2188L49.1186 28.6999L49.0016 29.1668L48.9946 29.3438L49.0496 29.5798L49.2666 30.1198L49.4246 30.5128L49.5005 30.7498L49.6096 31.0258L49.7546 31.4489L49.7906 31.6498L49.7606 31.7998L49.4646 32.3308L49.4346 32.4978L49.5076 32.9099L49.6046 33.3079L49.7446 33.5338L50.0786 34.1578L50.3276 34.3688L50.7866 34.6808L51.1916 34.9948L51.3476 35.1578L51.4906 35.3398L51.7726 35.8058L51.9446 36.1848L52.0356 36.5279L52.2566 36.9969L52.4626 37.4319L52.7286 37.9638L52.9166 38.3398L53.0016 38.5909L52.5156 38.6658L51.8126 38.7729L51.0376 38.8918L50.2375 39.0139L49.4446 39.1358L48.6926 39.2509L48.0096 39.3549L47.8016 39.4128L47.9036 39.7089L47.8566 40.0198L47.7216 40.2608L47.5076 40.5569L47.4106 40.6748L47.1926 40.9059L47.0106 41.0688L46.6396 41.3428L46.4056 41.4998L46.4036 41.6418L46.7975 42.3058L46.9766 42.7828L47.0496 43.2138L47.0456 43.4619L47.0306 43.9718L47.0126 44.5789L46.9856 44.8178L47.0926 45.2509L47.0735 45.5888L46.8086 45.9669L46.7346 46.3379L46.6006 46.8388L46.4156 47.5349L46.2836 47.9008L46.3566 48.1389L46.4225 48.2989L46.4926 48.5139L46.6346 48.8379L46.8006 49.0288L46.8936 49.1108L47.4396 49.5198L47.6666 49.7169L48.0126 50.1089L48.2686 50.3688L48.6246 50.4298L49.0516 50.5279L49.2876 50.6039L49.4496 50.5668L49.5046 50.4749L49.4966 50.2788L49.4686 50.1349L49.5135 50.0238L49.6586 49.9508L50.0296 49.9388L50.1906 49.8409L50.3185 49.8168L50.3196 50.2469V50.6588L50.3206 51.1599V51.7348L50.3216 52.2068V52.7089L50.3226 53.2888L50.3196 53.3539L50.2626 53.4848L50.1156 53.5298L49.9166 53.4168L49.9046 53.2979L49.8556 53.0848L49.7635 52.9759L49.6426 52.9418L49.4386 52.9969L49.1586 53.1538L48.7996 53.2918L48.6536 53.3708L48.4006 53.3608L48.1266 53.2859L47.9256 53.1089L47.8676 52.8438L47.6906 52.5718L47.4506 52.1779L47.3296 52.0168L47.1696 51.8329L47.0076 51.8119L46.8266 51.7608L46.7156 51.4919L46.6116 51.1519L46.5475 51.0208L46.4396 50.8518L46.2845 50.7488L45.9466 50.6129L45.4745 50.4239L44.8806 50.1859L44.5986 50.1739L44.2826 50.1339L44.0846 50.0208L43.9716 49.9308L43.8416 49.6009L43.6636 49.2148L43.1426 48.7559L43.0256 48.2478L42.9206 48.1748L42.7416 48.2159L42.6036 48.2788L42.5486 48.4158L42.4095 48.8738L42.3326 49.0848L42.2806 49.1439L42.1666 49.2119L41.9806 49.2738L41.7156 49.3048L41.3416 49.2928L40.8736 49.2249L40.6216 49.1739L39.9386 49.0978L39.7406 49.0609L39.4615 48.9608L39.2606 48.8608L38.5986 48.6448L38.2975 48.6708L38.1526 48.5179L38.0215 48.4428L37.8416 48.2989L37.7616 48.1018L37.6546 47.6788L37.6806 47.4529L37.7576 47.2008L37.6716 47.1309H37.5516L37.3796 47.2178L37.0746 47.2668L36.5156 47.3778L36.3176 47.4398L36.0986 47.4879L35.9306 47.5309L35.5106 47.7738L35.3646 47.7998L35.1156 47.7129L34.9955 47.5829L35.1156 47.4359L35.1666 47.2528L35.0815 46.8958L34.9526 46.7308L34.5806 46.6129L34.4376 46.6018L34.3776 46.4019L34.2746 46.2198L34.0626 46.1848L33.9606 46.1638L33.8546 46.2198L33.7946 46.3669L33.7776 46.4799L33.5886 46.5659L33.2026 46.5489L32.8196 46.4669L32.5506 46.4398L32.3716 46.4608L31.6876 46.7398L31.4626 46.7769L30.7286 46.7559L30.3126 46.6968L30.0166 46.6869L29.8066 46.7738L29.5446 46.9808L29.3256 47.0919L29.2245 47.0798L29.1626 46.9929L29.0766 46.8748L29.0496 46.5628L28.9406 46.2218L29.0126 46.0428L29.2286 45.9149L29.3036 45.6508L29.2366 45.2549L29.2325 44.9768L29.2906 44.8159L29.2126 44.4258L28.9966 43.8069L28.6916 43.3038L28.2975 42.9149L28.0396 42.5439L27.9176 42.1888L27.9636 41.3398L28.0826 40.5928L28.1766 39.9998L28.1496 39.0068L27.8826 38.3608L27.8246 37.6668L27.9756 36.9248L27.9976 36.4168L27.8976 36.1569L27.8296 36.1179L27.7436 36.0919L27.0685 36.0668L26.1696 36.0338L25.3856 36.0238L24.5345 36.0139L24.3956 35.9199L24.3326 35.7469L24.3356 35.5758L24.5096 35.0518L24.4846 35.0089L24.1826 34.9978L23.3625 35.0829L22.8216 35.1668L22.4786 35.1949L21.8755 35.3379L21.5026 35.6399L21.3806 36.0189L21.3906 36.3318L21.3696 36.5609L21.1996 36.7998L21.0656 37.0749L21.0605 37.2198L20.9786 37.9518L20.4225 38.0498H19.8666L19.7366 38.0408L19.0496 37.8658L18.7946 37.8648L18.5766 37.9568L18.1556 38.0468L17.7536 38.1129L17.3486 38.3298L17.2406 38.3488L16.9716 38.2358L16.5956 38.2469L16.2146 38.3008L16.0366 38.3249L15.9136 38.2589L15.5636 37.7129L15.0976 36.9858L14.8445 36.5298L14.7505 36.4109L14.5886 36.2538L14.3666 35.9568L14.2746 35.6748L14.3136 35.4078L14.1836 35.0479L13.8846 34.5948L13.6876 34.1628L13.5936 33.7498L13.5706 33.3979L13.6176 33.1039L13.5605 32.8878L13.3976 32.7488L13.3096 32.5718L13.2455 32.4988L13.1106 32.3318L12.8136 32.1479L12.4875 32.0508L11.7715 32.0489L10.8365 32.0458L9.98956 32.0598L9.04755 32.0758L8.09357 32.0919L7.83655 32.1158L7.10858 32.1269L6.52557 32.0798L6.30957 32.0498L5.92957 32.0269L5.32959 32.0219L5.00458 32.0399L4.22656 32.0408L4.15558 32.0449L4.03259 32.0968L3.70056 32.0248L3.37457 32.0489L3.19257 31.9688L2.79257 32.0189L2.59857 32.0848L2.28757 32.3178L1.82059 32.4388L1.64758 32.4288L1.53256 32.3899L1.26157 32.1339L1.05157 31.8878L0.976562 31.7509L1.09357 31.7169L1.46057 31.6649L1.73657 31.6399L1.79056 31.5749L1.83258 30.8148L1.84256 30.0439L1.74457 29.9418L1.64856 29.8799L1.64456 29.8268L1.78757 29.7299L1.98657 29.6169L2.05057 29.5659L2.27057 29.3618L2.70557 28.8899L3.03656 28.7738L3.34454 28.6498L3.38757 28.6049L3.42859 28.5128L3.56659 28.5198L3.6106 28.5638L3.67859 28.6638L3.79956 28.8038L4.01855 28.9698L4.23859 29.1488L4.34857 29.1718L4.52557 29.0808L4.73157 28.9459L5.03455 28.8478L5.10657 28.7559L5.14557 28.5588L5.16956 28.3488L5.19556 28.1009L5.25757 28.0668L5.36658 28.0428L5.56757 28.1129L5.65955 28.1859H5.82458L5.92957 28.1198L6.12158 27.9978L6.3656 27.9489L6.62659 27.8308L6.87756 27.6808L6.99554 27.6668L7.12054 27.8639L7.23254 28.0009L7.25256 28.0869L7.14056 28.2509L7.01556 28.4669L7.12054 28.7358L7.14557 28.9969L7.14258 29.1548L7.2276 29.2188L7.28558 29.2488L7.37555 29.2119L7.55457 29.2228L7.76959 29.3048L7.97656 29.2958L8.17657 29.1949L8.54956 28.8029L9.09454 28.1188L9.54657 27.6898L9.90356 27.5149L10.1456 27.3109L10.2726 27.0758L10.4806 26.9168L10.9146 26.7899L11.2446 26.6458L11.5746 26.1768L12.0146 25.3329L12.1376 24.5798L12.2126 24.1219L12.1696 22.5428L12.1406 22.0248L12.2076 21.7429L12.3716 21.5489L12.8196 21.1378L13.1205 20.8008L13.3506 20.4069L13.7916 19.5078L13.9856 19.2178L14.0726 19.0879L14.3386 18.8488L14.7115 18.6378L15.1916 18.4568L15.9326 17.8308L16.5215 17.2008L16.4416 16.4438L16.5796 15.8159L16.9006 15.0179L17.0056 14.1729L16.8956 13.2819L16.9416 12.5529L17.2496 11.7058L17.3776 11.3908L17.4206 10.8759L17.4186 10.0569L17.8096 8.93686L18.1796 8.26486L18.5936 7.51486L18.7516 7.06085L18.9615 6.45483L18.9286 5.96783L18.8906 5.40784L18.9946 4.63785L18.9556 4.18484L18.8086 3.79083L18.8835 3.54184L19.1806 3.44086L19.5506 3.04684L20.2146 2.01785L20.9306 1.51584L21.4286 1.35684L21.9476 1.37384L22.2866 1.46384L22.4426 1.62585L22.8356 1.86884L23.4636 2.18985L23.9336 2.59186L24.1935 2.99686L24.3956 3.21686L24.6456 3.29285L25.0546 3.25986L25.5116 3.35486L25.9875 3.58185L26.2806 3.66583L26.3885 3.60684L26.6186 3.63986L27.1446 3.82584L27.5636 3.72385L28.1846 3.80084L29.6266 4.13284L29.7036 4.07684L29.7375 4.06384L29.8606 3.92984L30.1736 3.26486L30.4386 2.85583L30.5626 2.70184L30.8686 2.48584L31.2286 2.43085L31.5735 2.44986L31.8625 2.54486L32.1266 2.65485L32.4186 2.65585L32.7176 2.54984L33.1616 2.35486L33.6296 2.22784L34.0316 2.08786L34.6935 1.84283L34.9526 1.72986L35.2816 1.68585L36.2036 1.90985L36.8006 1.76184L37.0446 1.80484L37.5616 1.64584L37.6556 1.53885L37.9846 0.997833L38.3346 0.839844L38.8646 0.919861L39.1626 1.00385L40.1546 1.23483L41.4426 1.47586L41.8216 1.51285L41.9756 1.53986L42.1096 1.50186L42.5326 1.19785L42.6756 1.15485L42.7966 1.15985L43.6056 1.40784Z" fill="#CCCCCC" stroke="white" stroke-width="0.5"/>
</svg>
