<svg width="39" height="26" viewBox="0 0 39 26" fill="none" xmlns="http://www.w3.org/2000/svg">
<path d="M24.856 1.0412L25.054 1.39423L25.1489 1.51822L25.9669 2.3522L26.1249 2.5502L26.53 3.15521L26.778 3.5632L27.0629 4.15021L27.09 4.46921L27.0529 4.74121L26.9959 5.51422L26.9219 5.73621L26.5629 6.15222L26.5469 6.3392L26.6219 6.49521L26.7299 6.5592L26.7979 6.6362L26.757 6.99622L26.8859 7.13721L27.155 7.2312L27.8359 7.29523L28.1899 7.3472L28.4689 7.41922L28.6019 7.45422L28.6749 7.58121L28.5609 7.99622L28.64 8.25522L28.8729 8.47421L29.1089 8.5672L29.335 8.62122L30.1229 8.75623L30.45 8.9082L30.882 9.39423L31.424 9.83621L31.556 10.0702L31.5319 10.2832L31.3709 10.5412L31.3959 10.6472L31.645 10.9062L31.9299 11.1702L32.452 11.4642L33.356 11.9252L33.7709 12.2332L33.9119 12.4662L34.1439 12.7202L34.4669 12.9522L34.684 13.1312L34.5339 13.6362L34.5789 13.8022L34.6599 13.9462L34.8489 14.1452L34.924 14.4002L35.111 14.7192L35.3339 14.8642L35.7069 14.9182L35.903 15.0662L36.3129 15.3202L36.7089 15.5392L36.8779 15.6892L36.9829 15.8232L37.0729 15.9812L37.1179 16.1392L37.127 16.4802L37.1949 16.9032L37.408 17.1922L37.606 17.4082L36.7969 17.1602L36.676 17.1552L36.533 17.1982L36.1099 17.5022L35.976 17.5402L35.822 17.5132L35.4429 17.4762L34.155 17.2352L33.163 17.0042L32.8649 16.9202L32.335 16.8402L31.9849 16.9982L31.6559 17.5392L31.562 17.6462L31.0449 17.8052L30.801 17.7622L30.2039 17.9102L29.2819 17.6862L28.9529 17.7302L28.6939 17.8432L28.0319 18.0882L27.6299 18.2282L27.1619 18.3552L26.718 18.5502L26.4189 18.6562L26.127 18.6552L25.8629 18.5452L25.5739 18.4502L25.2289 18.4312L24.869 18.4862L24.5629 18.7022L24.439 18.8562L24.174 19.2652L23.861 19.9302L23.7379 20.0642L23.7039 20.0772L23.627 20.1332L22.1849 19.8012L21.564 19.7242L21.145 19.8262L20.619 19.6402L20.3889 19.6072L20.2809 19.6662L19.9879 19.5822L19.512 19.3552L19.0549 19.2602L18.6459 19.2932L18.3959 19.2172L18.1939 18.9972L17.934 18.5922L17.4639 18.1902L16.8359 17.8692L16.4429 17.6262L16.2869 17.4642L15.9479 17.3742L15.429 17.3572L14.931 17.5162L14.215 18.0182L13.551 19.0472L13.181 19.4412L12.8839 19.5422L12.809 19.7912L12.9559 20.1852L12.9949 20.6382L12.8909 21.4082L12.929 21.9682L12.7709 21.8792L12.619 21.6172L12.5479 21.5642L12.1089 21.6822L11.882 21.7882L11.7609 21.8922L11.668 21.9082L11.5289 21.7652L11.4189 21.7392L11.2469 21.7652L11.0699 21.7632L10.9559 21.7442L10.8799 21.7572L10.6729 21.6722L9.91895 21.4562L9.78992 21.3842L9.63892 21.3922L9.24792 21.5802L9.04095 21.6322L8.41693 21.7492L7.74896 21.8062L7.49292 21.8092L7.31696 21.8932L7.20392 22.0102L7.12695 22.2712L6.99591 22.7212L6.94092 22.8422L6.95093 23.0212L6.91193 23.3222L6.89294 23.5922L6.91797 23.7732L6.72894 24.1382L6.49994 24.5802L6.30994 24.9592L6.11792 25.3402L5.98492 25.0792L5.90295 24.7732L5.87091 24.4222L5.88892 24.3292L5.83795 24.2252L5.83392 24.2022L5.76996 23.9372L5.83496 23.7522L5.78192 23.5592L5.62592 23.3692L5.48492 23.2232L5.40295 23.0922L5.33594 23.0362L5.18097 23.0162L4.97192 22.9482L4.69495 22.6622L4.42694 22.3842L4.08295 22.0282L3.80792 21.7202L3.46991 21.3432L3.15796 20.9942L2.97095 20.6582L2.89496 20.4652L2.98596 20.4462L3.12091 20.4422L3.17792 20.4072L3.18097 20.3172L3.04193 20.0522L2.97595 19.7142L2.86096 19.5082L2.49792 19.1912L2.15192 18.9502L2.04193 18.8262L1.97992 18.6492L1.84692 17.5312L1.78796 17.2132L1.67896 17.0742L1.59991 17.0092L1.56995 16.9302L1.58392 16.7312L1.62994 16.5532L1.62793 16.4832L1.72192 16.3272V15.2912L1.67096 15.2382L1.60992 15.1482L1.51294 15.1552L1.40192 15.1462L1.29193 14.9952L1.19995 14.8052L1.22693 14.6702L1.32294 14.5582L1.42792 14.4592L1.56091 14.3772L1.95392 14.2112L2.06494 14.1282L2.13495 14.0262L2.18097 13.8882L2.40894 13.3542L2.74896 12.8222L2.89392 12.7122L3.03894 12.3602L3.23792 11.9292L3.31793 11.7282L3.37695 11.5282L3.48694 11.3672L3.86096 11.1012L4.14392 10.6352L4.45093 10.6602L4.76495 10.7342L5.16797 10.7712L5.48395 10.6812L5.68896 10.4992L6.13995 10.3542L6.66693 10.1862L6.73792 9.93622L6.89294 9.80521L7.07196 9.68921L7.13391 9.67422L7.14691 9.7572L7.25592 10.0182L7.47894 10.2752L7.80597 10.5592L7.89893 10.5412L8.10193 10.3262L8.61194 10.1932L8.74097 10.1342L9.10297 9.82123L9.53894 9.62021L9.63495 9.6022L9.79193 9.54922L10.2319 9.34122L10.5449 9.3692L11.0479 9.33621L11.887 9.23822L12.4929 9.2052L12.7999 9.1662L12.8759 9.12421L12.9949 8.82321L13.0859 8.73822L13.314 8.60822L13.7599 8.15421L14.0529 7.7702L14.1349 7.64221L14.142 7.6322L14.202 7.60822L14.3279 7.44623L14.2029 7.27921L13.7029 6.9382L13.71 6.89221L13.6819 6.83423L13.7089 6.7872L13.9 6.64822L14.1569 6.4902L14.431 6.43121L15.1459 6.44321L15.7559 6.40921L15.8979 6.41721L16.374 6.33621L16.6989 6.26422L17.033 6.10022L17.7899 6.11722L18.4199 5.69922L18.6019 5.62521L18.681 5.56021L18.705 5.49622L18.9999 5.3302L19.33 4.98721L19.5909 4.67822L19.6619 4.46021L20.3759 3.72122L20.6249 3.73621L20.7469 3.6452L21.03 3.15121L21.1179 3.06122L21.2509 3.03021L21.4119 2.97421L21.5519 2.82822L21.6729 2.6102L21.674 2.34122L21.619 2.12521V2.0202L21.687 1.92422L21.801 1.82721L22.343 1.56122L22.481 1.43222L22.5629 1.31622L22.715 1.29523L22.8809 1.30722L22.986 1.2352L23.1039 1.11423L23.4799 0.951202L23.8279 0.824219L24.1939 0.877228L24.4919 0.943207L24.736 1.0202L24.856 1.0412Z" fill="#CCCCCC" stroke="white" stroke-width="0.5"/>
</svg>
