<svg width="23" height="25" viewBox="0 0 23 25" fill="none" xmlns="http://www.w3.org/2000/svg">
<path d="M21.9286 0.967773L21.9615 1.45477L21.7516 2.06079L21.5935 2.5148L21.1795 3.2648L20.8095 3.9368L20.4185 5.05679L20.4206 5.87579L20.3775 6.39078L20.2495 6.70578L19.9416 7.5528L19.8955 8.2818L20.0055 9.17279L19.9005 10.0178L19.5796 10.8158L19.4416 11.4438L19.5215 12.2008L18.9325 12.8308L18.1916 13.4568L17.7115 13.6378L17.3385 13.8488L17.0725 14.0878L16.9856 14.2178L16.7915 14.5078L16.3506 15.4068L16.1205 15.8008L15.8195 16.1378L15.3716 16.5488L15.2076 16.7428L15.1405 17.0248L15.1695 17.5428L15.2126 19.1218L15.1375 19.5798L15.0146 20.3328L14.5746 21.1768L14.2445 21.6458L13.9145 21.7898L13.4806 21.9168L13.2726 22.0758L13.1455 22.3108L12.9035 22.5148L12.5465 22.6898L12.0945 23.1188L11.5495 23.8028L11.1765 24.1948L10.9765 24.2958L10.7696 24.3048L10.5545 24.2228L10.3755 24.2118L10.2856 24.2488L10.2276 24.2188L10.1425 24.1548L10.1455 23.9968L10.1205 23.7358L10.0155 23.4668L10.1405 23.2508L10.2525 23.0868L10.2325 23.0008L10.1205 22.8638L9.99551 22.6668L9.87753 22.6808L9.62656 22.8308L9.36557 22.9488L9.12155 22.9978L8.92953 23.1198L8.82455 23.1858H8.65952L8.56754 23.1128L8.36655 23.0428L8.25754 23.0668L8.19553 23.1008L8.16953 23.3488L8.14554 23.5588L8.10654 23.7558L8.03452 23.8478L7.73154 23.9458L7.52554 24.0808L7.34854 24.1718L7.23856 24.1488L7.01852 23.9698L6.79953 23.8038L6.67856 23.6638L6.61057 23.5638L6.56656 23.5198L6.42856 23.5128L6.38754 23.6048L6.31851 23.5618L6.10355 23.3728L5.84955 23.0748L5.75754 23.0288L5.61755 23.0338L5.39554 23.1438L5.17755 23.3148L4.78455 23.4728L4.45654 23.5608L4.42654 23.6688L4.34955 23.8548L4.24155 23.9708L3.95053 24.0068L3.84555 24.1728L3.59454 24.4928L3.42853 24.6388L3.38455 24.5768L3.28354 24.4988L3.07755 24.2508L2.87354 23.9418L2.81955 23.8018L2.76154 23.7218L2.75253 23.4118L2.44556 23.0438L1.67554 22.3898L1.59354 22.1948L0.935547 21.5968L1.10355 21.1658L1.22855 20.9658L1.37955 20.8278L1.98553 20.4898L2.07755 20.5028L2.49554 20.9418L2.62854 20.9768L2.77756 20.9648L2.95355 20.9828L3.04053 20.8968L3.05353 20.7838L2.92654 20.6568L2.90753 20.5208L2.99753 20.3738L3.04755 20.2098L3.17853 20.0178L3.19254 19.9268L3.05453 19.8278L2.77155 19.6768L2.57855 19.5308L2.50455 19.3918L2.55756 19.2138L2.71255 19.0688L2.70355 18.9898L2.56653 18.8598L2.46655 18.7208L2.36453 18.6338L2.07953 18.5818L2.13455 18.3948L2.23856 18.1188L2.26456 17.9078L2.18555 17.3538L2.19153 17.2538L2.26953 17.2028L2.43854 17.2638L2.60953 17.3478L3.07553 17.2278L3.23755 17.2088L3.37253 17.3148L3.55756 17.3978L4.62955 17.1668L4.65054 16.9318L4.71155 16.7188L4.71954 16.5598L4.67554 16.4568L4.62253 16.3798L4.59055 16.2198L4.58954 16.0488L4.69254 15.9678L5.03455 15.7638L5.14053 15.7708L5.37955 15.8828L5.60355 16.0568L5.80353 16.4228L5.94055 16.7388L6.16153 17.1208L6.62857 17.2768L7.18655 17.3758L7.48856 17.3498L7.91953 17.0238L8.16354 16.7698L8.24252 16.6328L8.38455 16.7038L8.54556 17.0378L8.64853 17.1678L8.67453 17.2918L8.60257 17.4458L8.67252 17.5448L8.97256 17.6158L9.23557 17.5488L9.35355 17.4128L9.55057 17.2348L9.55252 17.0848L9.44656 16.9878V16.8538L9.55655 16.7488L9.66257 16.4608L9.69553 16.2508L9.79953 16.1168L9.99655 16.0238L10.0675 15.9398L10.1775 15.4418L10.1205 15.2618V15.1128L10.2455 14.9218L10.2685 14.6098L10.2155 14.0988L10.1806 13.7478L10.1425 13.3798L10.2386 12.8968L10.3385 12.3938L10.3205 12.2688L10.1815 12.1158L10.0105 11.9768L9.57053 11.8618L9.40652 11.6788L9.27853 11.4848L9.18552 11.4228L8.70352 11.3468L8.59756 11.2368L8.64053 10.9228L8.68356 10.4598L8.66653 10.1388L8.75156 9.87878L8.84854 9.68378L9.06155 9.47778L9.17355 9.23477L9.23557 9.17477L9.63852 9.13379L9.78452 9.03278L9.89957 8.92978L9.94852 8.79178L10.0865 8.56277L10.2085 8.40778L10.2226 8.3028L10.1966 8.1568L10.0746 7.86978L9.92856 7.6308L9.84055 7.5448L9.66257 6.98279L9.49753 6.8508L9.17557 6.77878L8.57254 6.71478L8.20755 6.8158L7.65256 7.00479L7.22855 7.13577L6.95255 7.20978L6.79056 7.18979L6.71652 7.10379L6.82455 7.03079L6.87753 6.85977L6.80856 6.61478L6.70157 6.39078L6.64053 6.0748L6.66653 5.68378L6.77054 5.3158L6.99356 4.8378L7.00754 4.64279L7.68057 4.64877L8.35257 4.65479L9.08652 4.64978L9.79556 4.64578L10.3485 4.66177L10.6145 4.53778L10.8675 4.7258L10.9915 4.76678L11.0335 4.7518L11.1305 4.88379L11.4455 4.86978L11.4955 4.89978L11.5226 5.05978L11.8145 5.05579L11.9585 5.09079L12.0755 5.08679L12.2455 4.99478L12.3675 5.02478L12.5896 5.14478L12.7475 5.24777L12.9685 5.21378L13.4806 5.23178L13.8775 5.33078L14.2705 5.6048L14.5335 5.76279L14.7696 5.9968L14.8565 5.95477L14.9386 5.89078L14.9845 5.86279L14.9815 5.66278L14.8495 5.32178L14.7986 5.03278L14.8275 4.79578L14.9275 4.62479L15.0985 4.52179L15.1156 4.36179L15.1175 4.33978L15.3095 3.9588L15.4995 3.57977L15.7285 3.13779L15.9176 2.7728L15.8925 2.5918L15.9115 2.32178L15.9505 2.02078L15.9405 1.8418L15.9955 1.72079L16.1266 1.27078L16.2035 1.0098L16.3166 0.892792L16.4925 0.808777L16.7486 0.805786L17.4165 0.748779L18.0406 0.631775L18.2475 0.579773L18.6385 0.391785L18.7895 0.383789L18.9185 0.45578L19.6725 0.671783L19.8795 0.756775L19.9555 0.743774L20.0695 0.762787L20.2466 0.764801L20.4185 0.7388L20.5285 0.764801L20.6676 0.907776L20.7605 0.891785L20.8816 0.787781L21.1086 0.681793L21.5475 0.563782L21.6186 0.616791L21.7705 0.878784L21.9286 0.967773Z" fill="#CCCCCC" stroke="white" stroke-width="0.5"/>
</svg>
