<svg width="14" height="9" viewBox="0 0 14 9" fill="none" xmlns="http://www.w3.org/2000/svg">
<path d="M10.4291 1.49078L10.5141 1.5448L10.7141 1.72778L10.6671 2.03879L10.4381 2.53879L10.3171 2.94278L10.3041 3.2518L10.3271 3.39679L10.3681 3.39478L10.5861 3.41678H10.6981L11.0491 3.49979L11.3301 3.6218L11.3851 3.75079L11.4211 3.90778L11.7561 4.1218L12.1391 4.26077L12.2691 4.21579L12.7451 3.71478L12.9291 3.79779L13.0401 4.06378L13.0351 4.20578L12.9041 4.73679L12.8811 5.02179L12.9941 5.20978L13.0061 5.35678L12.9731 5.48978L12.7831 5.5018L12.5281 5.42978L12.3131 5.20078L12.1501 5.22879L12.0091 5.28778L11.9361 5.50378L11.8721 5.76178L11.8931 5.90479L11.9941 6.01578L12.0721 6.24979L12.1291 6.55377L12.1721 6.69278L12.1251 6.75479L11.9911 6.79678L11.8791 6.7558L11.6851 6.39279L11.5941 6.25479L11.4401 6.2298L11.1691 6.31879L10.7531 6.52179L10.5841 6.52078L10.4421 6.4798L10.3081 6.3078L10.1941 5.97479L10.1581 5.76578L10.0791 5.77179L9.8121 5.71179L9.68808 5.7948L9.6871 6.1348L9.66309 6.55878L9.52908 6.83179L9.1571 7.30377L9.02109 7.50879L8.96609 7.6568L8.95508 7.78479L9.01208 8.0058L9.08908 8.2168L9.02408 8.33679L8.82809 8.39978L8.68909 8.27179L8.63608 8.04379L8.33508 7.73178L8.47208 7.47079L8.4491 7.40579L7.95209 7.26978L7.7381 7.07178L7.43808 6.72379L7.38208 6.5748L7.39508 6.08878L7.37711 5.97079L7.3371 5.91278L7.19208 5.91678L6.98911 6.08578L6.80209 6.3378L6.4201 6.62277L6.3801 6.6828L6.50909 6.95978L6.50308 7.06677L6.1911 7.50778L6.13208 7.6528L5.73709 7.9278L5.55609 8.03079L5.00809 7.8288L4.85608 7.80478L4.61209 7.93979L4.26608 8.06879L3.70709 8.19778L3.5011 8.10379L3.40408 8.01578L3.35608 7.88177L3.21509 7.64679L3.0571 7.50778L2.94708 7.35577L2.80008 7.18979L2.70508 7.05078L2.83109 6.6048L2.73911 6.44879L2.69208 6.22479L2.71609 6.07278L2.66608 6.0358L2.1611 5.94778L1.7421 5.9758L1.44208 6.12479L1.19708 6.37277L1.16708 6.42679L1.18311 6.47079L1.30508 6.69778L1.09808 6.93777L0.781097 7.12378L0.557098 7.14279L0.458099 7.10678L0.454102 6.8508L0.640106 6.7558L0.808105 6.58878L0.864105 6.35278L0.884094 6.1868L0.708099 5.98578L0.729095 5.86179L0.839081 5.62778L0.9021 5.42078L0.990082 5.24179L1.33908 4.94879L1.68909 4.6528L1.7421 4.33878L1.77008 3.95578L1.81909 3.8638L2.29208 3.63379L2.4101 3.54279L2.47009 3.41278L2.8421 2.98178L3.21008 2.55377L3.2851 2.40979L3.34708 2.3248V2.25479L3.30008 2.20078L3.12509 2.16577L3.06509 2.02878L3.2561 1.78479L3.49509 1.63577L3.72708 1.63278L3.8201 1.70178L3.81509 1.78278L3.9151 1.86978L4.09109 1.8978L4.30811 1.8678L4.52408 1.77679L4.6571 1.55978L4.7341 1.39478L5.07309 1.20679L5.30408 1.30179L5.94708 1.32678L6.4151 1.27579L6.7081 1.1478H7.07111L7.31509 1.21979L7.35809 1.2088L7.42609 1.19278L7.4921 1.12378L7.72208 1.07678L7.75211 1.01978L7.7431 0.960785L7.70209 0.931793L7.4191 0.961792L7.3121 0.916779L7.28409 0.812775L7.37509 0.630798L7.5831 0.482788L7.75909 0.446777L7.88608 0.486786L8.1951 0.760773L8.27008 0.769775L8.31308 0.720795L8.37711 0.69278L8.4841 0.746796L8.6041 0.916779L8.62509 0.94278L9.3161 0.882782H9.4711L9.94009 1.18179L10.4291 1.49078Z" fill="#CCCCCC" stroke="white" stroke-width="0.5"/>
</svg>
