<svg width="18" height="19" viewBox="0 0 18 19" fill="none" xmlns="http://www.w3.org/2000/svg">
<path d="M9.19778 1.44214L9.37277 1.63016L9.59479 1.75916L9.93179 1.74316L10.1758 1.82016L10.3868 1.96515L10.5288 2.28616L10.6838 2.51715L10.7508 2.84714L10.9958 3.02014L11.1878 3.09915L11.4478 3.33817L11.7168 3.46014L11.9948 3.43216L12.1248 3.55716L12.3328 3.64514L12.5408 3.65115L12.7238 3.37515L12.9658 3.26614L13.5768 3.04614L13.8178 2.94617L14.0618 2.88315L14.6498 2.86316L15.1968 2.93115L15.4678 2.98215L15.6538 2.94415L15.8298 3.07516L16.0118 3.35016L16.1608 3.43814L16.3128 3.53314L16.4258 3.75015L16.5578 3.96515L16.6298 4.06015L16.7938 4.27216L16.9348 4.27515L17.0738 4.18317L17.1338 4.11514L17.1608 4.25516L17.1058 4.48215L17.1168 4.62314L17.1938 4.67715L17.1518 4.85815L16.9908 5.16614L16.9898 5.34814L17.1498 5.40515L17.2638 5.59814L17.3318 5.92816L17.4008 6.03815L17.4078 6.10614L17.5238 6.90515L17.6668 7.70615L17.5758 7.81015L17.4508 7.84116L17.3698 7.87814L17.3468 7.95316L17.3998 8.06216L17.3648 8.16214L17.2088 8.23114L16.8698 8.48514L16.8468 8.58615L16.7568 8.80215L16.6818 8.93414L16.5708 9.17914L16.3948 9.82715L16.3298 10.3642L16.3198 10.5302L16.2518 10.6451L16.1748 10.8122L15.8068 11.2711L15.6188 11.6461L15.6428 11.8091L15.6518 11.9731L15.5958 12.0912L15.6058 12.4081L15.6508 12.6732L15.7168 12.9332L15.9838 13.6692L16.1228 14.1161L16.2088 14.4762L16.2848 14.7181L16.3558 14.8162L16.3848 14.9091L16.7808 14.9762L16.8588 15.0291L16.9668 15.4981L16.9468 15.7101L16.8688 15.7911L16.8708 15.9702L16.8528 16.1931L16.7948 16.2812L16.5728 16.2921L16.4218 16.3762L16.2238 16.3422L16.2048 16.2871L16.0978 16.2672L15.8038 16.1402L15.8518 15.7332L15.7158 15.7162L15.6108 15.7701L15.4018 16.2581L15.3018 16.3422L13.8338 16.0901L13.5148 15.8871L13.1328 15.8412L12.4668 15.8642L11.9178 15.9251L11.7608 16.0482L13.1468 15.9762L13.2958 15.9901L13.3658 16.0641L11.6138 16.2252L10.9458 16.3212L10.7478 16.2952L10.5978 16.1392L9.8718 16.1201L9.72278 16.1711L9.63278 16.2862L9.91879 16.2611L10.3698 16.2552L10.4908 16.3431L9.0788 16.4582L8.09979 16.6782L7.68478 16.8412L6.31879 17.3762L5.48578 17.6281L5.26779 17.7212L4.88879 17.9832L4.40179 18.1482L3.85577 18.4561L3.5228 18.5251L3.44778 18.4272L3.43878 17.9072L3.39279 17.2101L3.40979 16.9431L3.4538 16.6921L3.45477 16.4842L3.62079 16.4062L3.66479 16.3192L3.68979 16.0482L3.84479 15.8011L3.84778 15.3712L3.8938 15.2822L3.92877 15.1682L3.86279 14.8861L3.77679 14.3542L3.73477 14.3192L3.69678 14.3422L3.60977 14.3521L3.26678 14.1682L3.0018 14.1361L2.8158 13.9792L2.8028 13.8001L2.7128 13.6952L2.64978 13.4882L2.55679 13.2512L2.29578 13.1071L2.05078 13.0721L1.8768 13.1031L1.67279 13.0941L1.43878 13.0142L1.27679 12.9242L1.12378 12.7502L0.981781 12.6122L0.868774 12.6292L0.730774 12.5962L0.594788 12.5331L0.550781 12.4842L1.11877 11.9301L1.3118 11.6591L1.33279 11.4932L1.33478 11.3261L1.39679 11.1552L1.41278 10.8942L1.09879 9.94415L1.0188 9.65015L0.934784 9.56415L0.880798 9.53116L1.03979 9.40915L1.25879 9.44116L1.59479 9.53616L1.66779 9.44214L1.92178 8.96216L1.91479 8.78415L1.8898 8.66116L2.03879 8.33215L2.1568 8.20514L2.21777 8.06815L2.19879 7.88016L2.10977 7.81015L1.99179 7.82315L1.8508 7.77716L1.63577 7.66916L1.52679 7.57315L1.56079 7.13815L1.58078 7.00314L1.6568 6.92514L1.77478 6.90414L2.10779 6.89114L2.37778 6.94116L2.61478 6.97015H2.74078L2.84277 7.09915L2.97879 7.23114L3.09879 7.23016L3.14078 7.13214L3.11279 6.70316L3.03278 6.47617L2.85178 6.25714L2.38379 6.07016L2.37277 5.80914L2.4198 5.52615L2.52078 5.42114L2.86877 5.24115L2.8078 5.14417L2.69678 5.04114L2.4758 4.93716L2.52679 4.59814L2.53778 4.29517L2.3508 4.32916L2.15878 4.34714L1.9968 4.25415L1.86078 4.07016L1.83578 3.56415V2.97916L1.80978 2.72015L1.86179 2.58215L2.02679 2.45514L2.20679 2.29016L2.27078 2.18515L2.35379 2.18317L2.56979 2.12015L2.76578 1.97617L2.94879 1.67615L3.1958 1.43515L3.47379 1.45316L3.55579 1.40915L3.65378 1.40115L3.76978 1.56015L3.88678 1.68115L3.96979 1.68414L4.0318 1.91315L4.53879 2.00916L4.7558 2.07214L4.93878 2.23917L5.00278 2.24316L5.07977 2.20816L5.1398 2.15015L5.15179 2.08615L5.07278 1.93616L5.10779 1.80115L5.18979 1.68015L5.3208 1.67215L5.51779 1.63815H5.74377L5.91177 1.66016L5.97879 1.53915L5.91479 1.19916L5.93179 1.01114L5.9588 0.853149L6.02179 0.789154L6.2728 0.988159L6.50278 1.06015L6.66779 1.06616L6.71378 1.02817L6.6438 0.811157L6.66278 0.746155L6.72379 0.70816L6.83179 0.686157L7.12479 0.598145L7.15479 0.615143L7.20978 0.957153L7.18478 1.06915L7.2468 1.30115L7.32278 1.51614L7.31677 1.60416L7.25378 1.73715L7.17978 1.85916L7.18777 1.90915L7.30478 1.99216L7.52878 2.07816L7.76077 2.09814L7.8898 1.97314L8.02377 1.87115L8.11679 1.78015L8.14877 1.64514L8.29578 1.54614L8.71579 1.42215L9.10178 1.40317L9.19778 1.44214ZM16.0368 16.3552L15.9598 16.4662L15.5878 16.3951L15.6758 16.3022L16.0368 16.3552Z" fill="#CCCCCC" stroke="white" stroke-width="0.5"/>
</svg>
