<svg width="122" height="142" viewBox="0 0 122 142" fill="none" xmlns="http://www.w3.org/2000/svg">
<path d="M119.118 17.0649L119.64 17.6089L119.413 18.3489L119.05 19.5319L118.77 20.4489L118.724 20.5719L118.666 20.7519L118.061 21.0129L117.179 21.3929L116.727 21.5919L116.158 21.8479L116.02 22.0569L115.855 22.1699L115.674 22.3159L115.605 22.4759L115.436 22.5769L115.283 22.9379V23.2149L115.381 23.4039L115.551 23.4839L115.605 23.7119L115.659 23.8719L115.782 23.9979L115.751 24.0989L115.651 24.1749L115.467 24.2169L115.342 24.4449L115.198 25.0109L115.175 25.2139L115.339 25.7269L115.426 26.0039L115.662 27.0109L115.697 27.2849L115.373 27.6689L115.244 27.9019L115.198 28.1078L115.2 28.2709L115.229 28.4199L115.499 28.8949L115.812 29.3199L115.966 29.5419V29.8419L115.889 30.0129L115.722 30.0759L115.352 30.1929L115.198 30.3639L115.029 30.3899L114.868 30.2529L114.7 30.2869L114.485 30.4069L114.404 30.6989L114.216 31.1969L114.055 31.3339L113.935 31.7149L113.721 32.2619L113.618 32.5919L113.564 32.8339L113.348 32.9889L113.097 33.2959L112.904 33.5948L112.827 33.6819L112.681 33.7079L112.574 33.9769L112.21 34.3829L112.123 34.8549L111.991 35.1059L111.968 35.5609L111.767 36.3949L111.73 36.5799L111.527 36.7259L111.259 37.0499L111.172 37.2869L111.296 37.9969L111.45 38.7159L111.46 39.0529L111.4 39.5119L111.359 39.7119L111.461 39.7949L111.63 39.8479L111.684 40.0239L111.561 40.1479L111.507 40.3689L111.369 40.6169L110.96 40.7149L110.816 40.6259L110.77 40.7059L110.793 40.8829L110.702 41.0919L110.49 41.6519L110.35 42.1609L110.269 42.3839L110.302 42.5709L110.371 42.6769L110.378 42.7749L110.262 42.8989L110.156 43.0959L110.041 43.1229L109.918 43.0699L109.788 43.1859L109.762 43.4289L109.69 43.7379L109.657 44.0989L109.604 44.5619L109.771 44.8799L109.982 45.4568L110.14 45.5948L110.316 45.5859L110.454 45.7029L110.531 45.8379L110.428 46.0799L110.246 46.1179L110.223 46.2529L110.277 46.5599L110.346 46.8578L110.52 47.0009L110.599 47.3999L110.768 47.5359L110.747 48.0479L110.917 48.6499L111.097 48.8249L111.181 48.9069L111.125 49.1709L110.982 49.3809L110.951 49.7179L111.005 49.9649L111.188 50.1979L111.331 50.2239L111.535 50.1289L111.75 50.2389L111.781 50.4399L111.812 50.6229L111.697 50.8609L111.574 51.2999L111.541 51.7379L111.577 52.4049L111.633 52.9239L111.645 53.2509L111.659 53.3989L111.582 53.5009L111.395 53.5529L111.236 53.5739L111.098 53.6569L111.067 53.8239L110.959 54.1009L110.848 54.3069L110.653 54.6069L110.529 54.9179L110.43 55.1229L110.439 55.2649L110.368 55.5379L110.295 55.7659L110.141 56.5339L109.935 56.6938L109.771 56.7729L109.687 56.8759L109.751 57.0849L109.925 57.1479L109.987 57.3159L109.964 57.5789L110.079 57.8229L110.068 58.1189L110.179 58.6789L110.079 59.0459L110.113 59.3639L110.11 59.6789L109.964 59.9249L109.665 59.9719L109.5 60.1989L109.219 60.4459L109.188 60.6449L109.142 60.8249L109.027 60.8909H108.851L108.705 60.9189L108.501 61.1529L108.283 61.2789L108.233 61.4679L108.252 61.6979L108.137 61.8409L107.991 62.1078L107.899 62.3939L107.991 62.6619L108.091 63.1409L108.106 63.3419L107.98 63.7389L107.876 63.9949L107.976 64.3219L108.06 64.5049L107.981 64.9069L107.914 65.1599L107.968 65.6239L108.168 66.1459L108.359 66.6109L108.387 67.1529L108.436 67.5839L108.527 68.0509L108.719 68.2369L108.865 68.3929L108.835 68.6179L108.728 68.8919L108.574 69.0979L108.194 69.1659L107.885 69.3519L107.636 69.4809L107.447 69.6369L107.311 69.8029L107.244 69.9849L107.289 70.7779L107.259 71.0709L107.132 71.4869L107.013 71.8229L106.962 71.9239L106.947 72.0729L106.924 72.2119L106.791 72.2439L106.602 72.1819L106.495 72.2219L106.418 72.3309L106.483 72.5909L106.552 73.0499L106.648 73.2449L106.622 73.3999L106.586 73.7339L106.462 73.9999L106.296 73.9989L106.189 74.1089L106.143 74.2989L106.193 74.5469L106.411 74.7499L106.488 74.8799L106.449 75.0509L106.28 75.1208L106.18 75.2619L106.085 75.5749L105.958 75.9289L105.823 76.1909L105.797 76.5499L105.989 76.9339L105.968 77.3099L105.954 78.4149L105.935 78.7909L105.994 79.4149L105.92 79.5869L105.881 79.7509L106.069 80.2059L106.278 80.9438L106.334 81.2379L106.304 81.4438L106.023 81.6189L105.79 81.6919L105.652 81.5679L105.56 81.6189L105.453 81.8359L105.33 82.0119L105.284 82.1869L105.414 82.4149L105.483 82.8499L105.337 83.0369L105.23 83.2449L105.269 83.5149L105.315 84.0039L105.223 84.8169L105.347 85.1069L105.481 85.2458L105.919 85.4119L106.248 85.4949L106.335 85.7659L106.298 85.9859L106.14 86.0948L105.902 86.1899V86.5459L106.105 86.8809L106.335 87.1239L106.385 87.3429L106.372 87.5669L106.211 87.7549L106.432 88.1619L106.533 88.4379L106.432 88.6509L106.288 88.9709L106.162 89.1239V89.2979L106.11 89.6519L106.098 89.9989L106.14 90.2059L107.527 90.3699L107.844 90.4339L108.017 90.6409L107.992 90.9009L107.819 91.1779L107.708 91.6989L107.436 91.7859L107.164 91.6469L106.869 91.6949L106.613 91.7289L106.245 91.7439L105.756 91.8109L105.457 91.7339L105.432 91.9249L105.519 92.2559L106.163 92.3599L106.769 92.5519L106.951 92.9029L107.198 93.3009L107.45 93.5479L107.462 93.9509L107.066 94.3729L107.017 94.6719L106.497 94.7599L106.349 94.9359L106.275 95.5189L106.337 95.9789L106.535 96.1379L106.671 96.4389L106.523 96.7939L106.173 97.0389L105.986 97.2729L106.103 97.4599L106.261 97.7559L106.305 97.9169L106.391 98.3549L106.492 98.9669L106.48 99.2639L106.387 99.4859L106.039 99.8359L105.804 99.9979L105.758 100.431L105.74 100.755L105.764 101.048L105.915 101.282L105.903 101.518L105.696 101.568L105.519 101.681L105.346 102.099L104.842 102.527L104.665 102.719L104.677 103.048L104.478 103.519L104.311 103.93L104.183 104.314L104.208 104.719L104.492 104.897L104.715 105.292L104.814 105.791L104.641 106.366L104.239 106.583L104.001 106.828L103.929 107.014L103.992 107.619L103.975 107.904L103.912 108.172L103.808 108.38L103.591 108.612L103.207 108.815L102.881 108.955L102.735 109.115L102.564 109.468L102.412 109.858L102.45 110.341L101.534 110.398L101.472 110.758L101.274 111.042L101.212 111.556L101.413 112.053L101.509 112.471L101.345 112.976L101.405 113.496L101.423 113.911L101.745 114.373L101.955 114.946L102.06 115.431L102.123 115.81L102.207 116.04L102.339 116.301L102.4 116.603L102.598 116.701L102.954 116.419L103.205 116.228L103.38 116.16L103.894 116.205L104.204 116.027L104.344 116.046L104.533 116.146L104.68 116.356L104.791 116.833L104.859 117.368L104.772 117.915L104.627 118.034L104.578 118.191L104.627 118.526L104.788 118.762L104.785 119.1L104.607 119.869L104.491 120.186L104.697 120.544L104.881 120.863L105.252 121.101L105.557 121.439L105.767 121.719L105.717 122.099L105.864 122.214L106.431 122.222L107.278 122.235L108.602 122.254L109.894 122.273L111.361 122.3L112.056 122.606L112.685 122.883H113.477L114.268 123.211L114.855 123.428L115.207 123.509L115.568 123.588L115.618 123.891L114.035 123.461L113.68 123.227L113.379 123.2L112.801 123.492L112.482 124.189L112.315 124.387L111.914 124.575L111.51 124.612L110.153 125.291L109.67 125.349L109.34 125.53L109.018 125.79L108.894 126.351L108.944 126.693L108.577 127.922L108.486 128.61L108.484 128.961L108.589 129.536L108.454 130.523L108.21 130.739L107.607 131.016L107.197 130.815L106.495 130.635L105.995 130.254L105.352 129.985L105.146 129.827L104.578 129.067L104.517 128.816L104.476 128.499L104.776 128.048L104.937 128.015L105.407 128.029L105.798 127.956L106.048 128.198L106.117 128.726L106.007 129.008L105.907 129.182L105.938 129.315L106.219 129.13L106.362 127.948L107.317 127.362L107.63 127.02L107.935 126.494L107.982 126.344L108.005 126.147L107.802 125.985L107.351 125.77L105.919 126.873L105.27 127.164L104.852 127.481L104.346 128.051L104.25 128.22L104.143 128.6L104.092 129.019L103.593 128.828L102.831 128.222L102.678 128L102.831 127.69L103.063 127.432L103.079 126.569L103.138 126.267L103.299 126.026L103.591 125.761L103.736 125.699L103.859 125.814L103.875 126.016L104.361 126.001L105.304 125.24L105.692 125.222L106.204 125.392L106.782 125.289L106.886 125.212L107.006 125.034L106.575 124.825L106.162 124.719L105.001 124.646L104.75 124.727L104.406 125.128L104.292 125.028L104.219 124.825L103.825 124.682L103.636 124.711L103.455 124.904L103.484 125.205L103.383 125.527L103.018 125.847L102.77 126.357L102.782 126.755L102.762 126.962L102.671 127.072L102.483 127.204L101.878 127.114L101.536 126.696L101.403 126.411L101.016 126.102L101.856 125.719L102.151 125.501L102.421 125.016L102.622 124.707L102.479 124.491L102.311 124.49L102.327 124.835L102.142 125.117L101.755 124.983L101.184 125.402L100.833 125.29L100.261 125.413L99.9812 125.187L99.9212 124.901L100.022 124.603L99.9172 124.099L99.7592 123.977L99.5982 124.005L99.5262 123.706L99.3522 123.181L99.2752 123.039L99.1922 122.796L99.2782 122.736L99.4752 122.805L99.6472 122.963L99.9092 122.983L100.486 123.325L100.726 123.243L100.856 123.165L100.905 122.881L100.908 122.612H101.007L101.335 122.956L101.543 122.924L101.911 123.015L102.098 122.978L102.443 122.85L102.986 122.472L103.268 122.082L103.403 122.029L103.57 122.079L103.682 122.191L103.684 122.462L103.811 122.714L103.984 122.919L104.032 123.171L103.997 123.418L103.688 123.766L103.63 123.887L103.734 124.016L103.862 123.955L104.038 123.783L104.138 123.547L104.165 123.424L104.176 123.248L104.163 123.034L103.912 122.427L103.88 122.29V122.016L104.166 121.763L104.247 121.567L104.26 121.188L104.112 120.927L103.498 120.327L102.472 119.727L102.354 119.79L102.274 119.899L102.369 119.977L102.505 120.017L103.419 120.512L103.657 120.799L103.813 120.876L103.998 121.066L103.951 121.346L103.03 121.62L102.3 122.214L101.754 122.575L101.375 122.443L101.195 122.077L101.004 121.604L100.717 121.329L100.554 121.354L100.423 121.303L100.319 121.157L100.098 121.278L99.6122 120.951L99.4712 120.808L99.8272 120.348L100.219 120.525L100.314 119.238L100.192 118.947L99.6822 118.63L99.4322 118.671L99.0902 118.628L98.8602 118.483L98.5982 118.425L98.3762 118.34L98.0862 118.144L97.7362 118.039L97.2632 117.23L97.0602 116.807L96.9502 116.345L97.6742 116.335L98.0982 116.26L98.2012 116.069L98.0522 115.702L97.8442 115.415L97.9962 115.144L98.2132 114.935L98.4392 115.028L98.9962 115.494L99.0922 115.809L99.4882 116.773L99.5842 116.86L99.6312 116.95L100.45 117.492L100.565 117.484L100.514 117.03L100.75 116.414L100.979 116.211L101.094 116.213L101.106 116.11L100.883 115.855L100.992 115.514L100.921 115.503L100.724 115.722L100.328 116.794L100.085 116.99L99.7522 116.504L99.5632 116.153L99.4702 116.029L99.5032 115.481L100.163 115.592L99.9362 115.412L99.1662 115.097L98.9742 114.944L98.8312 114.887L98.5752 114.517L98.2572 114.204L98.8052 113.641L99.0872 113.246L99.9692 113.456L100.14 113.334L99.9922 113.045L99.8182 113.133L99.5432 112.953L99.1152 112.415L99.1302 112.142L99.2082 111.64L99.3782 111.534L99.7382 111.43L100.149 111.593L100.328 111.725L100.483 111.662L100.326 111.292L100.058 111.151L99.7592 110.887L99.7902 110.595L99.8862 110.354L99.9582 110.091L100.008 109.722L99.9812 109.435L100.066 109.303L100.198 109.243L100.206 109.136L99.9462 109.158L99.8522 109.52L99.8162 109.851L99.6312 110.117L99.5522 110.418L99.5052 110.778L99.4022 111.192L99.1772 111.034L99.0452 110.872L98.9942 110.762L99.0172 110.551L98.9562 109.25L98.9502 108.168L99.0652 107.329L99.3832 106.996L99.5282 106.899L99.6602 106.942L99.8632 106.939L99.9972 106.818L99.5412 106.618L99.2652 106.732L99.0602 106.892L98.6912 106.772L98.6212 106.343L98.4032 105.973L98.3652 105.5L98.3822 104.818L98.8992 104.877L99.3202 105.01L100.433 104.999L101.347 105.652L101.75 105.565L101.731 105.433L101.422 105.268L101.23 104.903L101.117 104.797L101.064 104.578L101.046 104.322L100.819 103.386L100.728 103.41L100.641 103.73L100.452 104.265L100.188 104.526L99.7842 104.631L99.3852 104.691L99.0382 104.588L98.9572 104.366L98.9662 104.109L98.8162 103.983L98.4242 103.873L98.3132 103.81L98.1842 103.579L98.3712 103.228L98.5242 103.019L98.7122 103.061L98.8902 103.156L99.1182 103.43L99.3422 103.483L99.5972 103.264L99.6472 103.116L99.4872 103.023L99.3412 102.986L99.1142 102.87L98.6682 102.451L98.8912 102.026L99.4172 101.54L99.5782 101.429L99.4392 101.02L99.5972 100.574L99.4352 100.207L99.1432 99.8119L98.7482 99.7249L98.6642 99.8399L98.6502 100.002L98.7132 100.124L98.6762 100.212L98.5862 100.209L98.0852 100.122L97.7492 99.8589L97.2012 99.6199L97.1302 99.4329L97.0702 99.1589L97.2622 98.6869L97.1652 98.6799L96.8092 99.0449L96.2712 99.2359L95.8752 99.2989L95.7012 99.4469L95.6322 99.5699L95.7372 99.6419L95.9662 99.6599L96.1332 100.118L96.0912 100.294L96.0092 100.412L95.8232 100.435L95.4342 100.119L95.2292 99.7599L95.2342 99.4759L95.3732 99.0889L95.9902 98.5699L96.1612 98.3509L96.5232 98.1089L97.0062 97.5629L97.4282 97.2599L97.2232 97.0099L97.0072 96.6339L97.0292 96.1129L97.8812 95.9069L98.2502 95.9999L98.7212 95.9839L98.9842 95.8599L99.1752 95.8329L99.5772 95.6899L99.7502 95.4879L99.7912 95.3339L99.7892 95.1999L99.7422 95.0339L99.6772 94.6059L99.7432 94.4629L99.9152 94.2929L100.141 94.2399L100.245 94.2529L100.513 94.4089L100.459 94.6309L100.352 94.8979L100.133 95.9629L100.023 96.2039L99.8502 96.4129L99.9652 96.8499L99.7922 97.1569L99.0202 97.4839L98.9182 97.5029L98.9762 97.6199L99.4232 97.5919L99.7692 97.5229L100.112 97.2469L100.22 96.8269L100.362 96.0099L100.548 95.8949L100.765 95.8689L100.878 96.0609L100.841 96.4919L100.84 96.9089L100.552 98.1499L100.204 98.6499L100.165 98.7819L100.179 98.9379L100.455 98.9149L100.665 98.6459L100.817 98.3019L100.969 97.8239L100.952 97.4789L100.998 97.2659L101.061 96.5688L101.166 96.2169L101.159 95.7259L100.969 95.5409L100.703 95.4289L100.636 95.1289L100.775 94.5379L101.283 94.5529L101.764 94.1509L102.079 94.0049L102.258 94.0349L102.887 94.4229L103.012 94.4279L102.992 94.2879L102.894 94.1889L102.646 94.0579L102.19 93.6419L101.576 93.5739L101.689 93.0349L101.808 92.5439L102.106 92.4759L102.606 92.3149L103.559 91.5809L103.725 91.0299L103.77 90.4119L103.311 90.2509L102.824 89.8479L102.431 89.6339L102.083 89.3649L102.151 88.9639L102.196 88.3119L102.633 88.1719L102.836 87.2799L102.543 86.5989L102.613 86.0929L102.995 85.6619L103.063 85.3639L103.168 85.0369L103.504 85.0039L103.512 84.8259L103.482 84.5019L103.261 84.1199L103.252 83.5919L103.46 82.9689L103.794 83.0119L103.858 82.9859L103.621 82.6099L103.428 82.1969L103.461 82.0319L103.646 81.8919L103.86 81.8139L104.092 82.0249L104.424 82.6989L104.474 82.5259L104.34 81.8399L104.23 80.9889L103.88 81.0999L103.559 81.0399L103.438 80.9089L103.318 80.7179L103.431 80.4849L103.544 80.3119L103.779 80.0939L104.267 80.0169L104.62 79.7439L104.738 79.1829L104.622 79.2379L104.431 79.7319L104.109 79.8989L103.945 79.8739L103.752 79.7819L103.372 79.3519L103.162 79.2519L102.958 79.2409L102.783 79.3499L102.337 80.1078L102.147 80.2359L101.362 80.2969L101.074 80.2089L100.762 80.0919L100.8 79.9049L100.895 79.7059L101.072 79.6029L101.075 79.4889L100.831 79.4599L100.55 79.2509L100.425 78.9859L100.366 78.5119L100.114 77.7649L100.064 77.2309L100.242 76.8509L100.624 75.3649L100.741 74.6109L100.946 73.9499L100.942 73.5149L101.472 73.1179L101.674 72.8809L102.124 71.5499L102.19 70.8349L101.476 68.6779L101.366 68.2679L101.331 67.7589L101.501 66.9169L101.521 66.5979L101.375 66.1379L100.968 65.3879L100.96 65.0059L101.131 64.6139L100.965 64.1279L101.046 63.8279L101.135 63.5929L101.773 63.7189L102.063 63.6589L102.218 63.5169L102.339 63.1199L102.4 62.4999L102.438 62.2328L102.493 61.8439L102.806 61.6879L102.914 61.3199L103.176 60.8079L103.446 59.3819L103.713 59.0309L103.983 58.6269L103.88 58.0289L104.054 57.7529L104.214 57.5519L104.355 57.1879L104.547 56.8439L105.004 56.3509L105.12 55.7499L105.475 54.7149L105.545 54.0529L105.655 53.6059L105.623 53.1899L105.836 52.6849L106.041 52.2599L106.105 52.0239L106.572 51.4639L106.651 51.0169L106.484 50.7139L106.481 50.2458L106.351 49.5989L106.652 49.3569L106.774 49.1799L107.166 48.1499L107.141 47.7469L107.254 47.2469L106.996 46.6559L106.96 45.3318L106.816 44.3169L106.578 43.2479L106.6 42.6519L106.455 41.9119L106.446 41.4859L106.557 40.5219L107.312 39.9169L107.459 39.2399L107.549 38.3279L107.518 37.6649L107.444 37.3679L107.072 36.8809L106.978 36.0119L107.05 35.7849L107.358 35.5409L107.575 35.2029L107.687 34.6789L107.913 34.2669L108.002 33.2729L108.193 32.4839L108.288 32.2089L108.588 31.8639L108.644 31.7719L108.69 31.5089L108.676 30.8889L108.722 30.5109L108.961 29.7679L108.989 29.4249L109.254 28.6629L109.314 28.1159L109.427 27.8279L109.383 27.5039L109.458 26.7799L109.278 26.3719L109.238 26.1339L109.465 25.3949L109.619 25.2149L109.868 24.8719L109.973 24.4869L109.992 24.2429L109.674 23.0299L109.631 22.6169L109.709 21.6579L109.818 21.0399L109.782 20.5479L109.818 20.2949L109.873 19.9779L110.091 19.5939L110.141 19.3209L110.064 19.2068L109.805 19.0679L109.591 18.7198L109.576 18.3769L109.645 18.1269L109.661 17.7739L109.979 17.7049L110.149 17.5089L110.31 17.1429L110.513 16.2579L110.6 15.1629L110.721 14.5049L110.806 14.1799L110.878 13.5019L110.996 13.0589L111.017 12.6509L110.994 12.3399L110.689 10.7629L110.699 10.1839L110.828 9.28687L110.826 8.02588L110.8 7.73187L110.685 7.45685L110.651 7.08289L110.467 6.43488L110.301 5.13586L110.298 4.45087L110.226 3.87085L110.067 3.71686L110.181 3.68188L110.448 3.6579L110.724 3.65686L111.074 3.53387L111.447 3.30591L111.69 2.97485L111.794 2.67285V2.4079L111.685 2.07086L111.655 1.83289L111.784 1.71887L112.125 1.67487L112.401 1.44989L112.613 1.25391L112.657 1.58588L113.042 2.03186L113.167 2.53387L113.254 2.59686L113.783 2.8479L113.792 2.90686L113.715 3.00085L113.638 3.12286L113.692 3.29388L113.788 3.52887L113.82 3.74689L113.879 3.97186L113.937 4.31689L113.972 4.62988L114.107 5.09088L114.134 5.37585L114.136 5.54785L114.241 5.71588L114.446 5.91791L114.723 6.12085L114.943 6.35785L115.111 6.51886L115.315 6.6499L115.472 6.77087L115.534 6.85388L115.555 6.9209L115.487 6.98486L115.239 7.29785L114.893 7.7749L114.899 7.83289L115.23 8.1759L115.283 8.31189L115.279 8.50391L115.168 8.73486L114.811 8.80786L114.731 8.87085L114.721 8.94489L114.803 9.04291L114.79 9.27087L114.919 9.52289L114.853 9.60889L114.721 9.72485L114.718 9.83887L114.761 9.9649L114.9 10.0679L115.45 10.4219L115.493 10.4709L115.485 10.5079L115.272 10.7449L115.25 10.8909L115.256 11.1319L115.286 11.2879L115.355 11.3529L115.631 11.4259L115.972 11.9679L116.3 12.4789L116.296 12.9189L116.33 13.4329L116.538 13.8369L116.567 14.1599L116.637 14.5279L116.885 14.7519L116.982 15.1938L117.007 15.4299L116.992 15.5849L117.185 16.0669L117.207 16.4819L117.161 16.7799L117.163 16.9469L117.19 17.0639L117.356 17.1689L117.429 17.2349L117.673 17.2639L118.03 17.2709L118.641 17.1609L119.118 17.0649ZM1.00722 30.3679L0.574219 30.4649L0.588211 30.2919L0.69722 30.1419L1.01721 30.2279L1.16722 30.2439L1.00722 30.3679ZM86.5372 51.4499L86.0342 51.5219L86.0172 51.5009L86.0462 51.4419L86.1612 51.3389L86.3012 51.2139L86.3312 51.2099L86.3832 51.2198L86.4412 51.2429L86.5912 51.3269L86.6352 51.3849L86.6192 51.4329L86.5372 51.4499ZM100.655 86.1829L100.444 86.2639L100.247 86.2839L100.047 86.2249L99.6972 86.2299L99.3492 86.0799L99.0222 85.8679L98.9312 85.7449L98.9712 85.5688L99.2062 85.1619L99.4302 84.3939L99.5792 83.2969L99.4592 82.8819L99.4742 82.7109L99.5292 82.5039L99.5562 82.2919L99.5392 82.0779L99.5672 81.8799L99.8142 81.4629L99.8512 81.2759L99.8582 81.0729L99.9652 80.6539L99.9322 80.5149L99.8412 80.3979L99.9152 80.2949L100.773 80.6019L101.343 80.6729L101.373 80.9909L101.483 81.2409L101.548 81.6889L101.637 81.7909L101.591 82.1119L101.328 82.2509L101.351 82.5469L101.502 82.8259L101.282 82.9259L101.044 82.9859L100.989 83.0639L100.817 83.1249L100.608 83.2799L100.671 83.4179L100.934 83.7309L101.228 83.9489L101.389 84.2749L101.598 84.6159L101.496 84.8329L101.305 85.1409L101 85.3459L100.719 85.4689L100.752 85.9759L100.655 86.1829ZM98.1432 87.1919L97.7462 87.2599L97.6562 87.1449L97.6572 87.0469L97.7252 86.9669L97.9292 86.9139L98.0622 86.9799L98.1322 87.0739L98.1542 87.1599L98.1432 87.1919ZM100.551 88.0409L100.61 88.2319L100.486 88.2579L100.288 88.2279L100.192 88.3789L100.143 88.4089L99.6882 88.2749L99.6172 88.2149L99.6262 88.0159L100.111 87.9989L100.42 87.8719L100.463 87.8919L100.551 88.0409ZM100.762 90.2509L100.624 90.4189L100.406 90.4489L100.067 90.6439L100.031 90.8129L100.014 91.0209L100.248 91.2719L100.364 91.5639L100.503 92.0019L100.604 92.4199L100.595 92.5489L100.62 92.7669L100.787 93.1049L100.803 93.2579L100.784 93.4099L100.717 93.6919L100.664 93.7299L100.499 93.7579L100.486 93.9289L100.445 93.9849L99.9752 94.0029L99.7432 93.9249L99.7712 93.4099L99.4742 93.2079L99.2702 92.8679L99.0402 92.2819L98.8472 92.1019L98.6222 91.6399L98.2882 91.2458L98.6732 90.9958L98.6132 90.5599L98.8382 90.4109L99.1762 90.2549L99.4252 90.3779L99.6492 90.3349L99.7492 90.2309L99.7192 89.7869L99.7902 89.4379L100.037 89.2579L100.303 89.2369L100.403 89.4339L100.534 89.6279L100.856 89.7809L100.855 89.9809L100.762 90.2509ZM102.865 91.7649L102.185 92.0799L101.844 91.9739L101.712 91.7419L101.648 91.5469L101.578 91.2169L101.694 91.0399L101.944 90.7859L102.036 90.6219L102.081 90.4289L102.065 90.2489L102.097 90.0769L102.244 90.0169L102.747 90.2089L103.269 90.4969L103.455 90.6959L103.49 90.8549L103.262 91.2059L103.116 91.4949L102.865 91.7649ZM101.052 91.9279L100.96 91.9729L100.877 91.9659L100.792 91.8309L100.764 91.6529L100.581 91.3869L100.529 91.2619L100.533 91.1119L100.638 90.8969L100.794 90.8379L100.899 90.8459L101.026 91.0989L101.063 91.3739L101.096 91.6579L101.052 91.9279ZM97.0942 92.1989L97.0242 92.2629L96.9372 92.2439L96.8652 92.1189L96.8152 91.9049L96.9132 91.8239H96.9912L97.0782 91.9379L97.1232 92.1219L97.0942 92.1989ZM99.1422 95.3849L98.9862 95.5629L98.7142 95.6479L98.4442 95.5089L98.1182 95.5739L98.0842 95.2689L98.2062 95.0189L98.4532 94.7219L98.6322 94.3249L98.6112 93.7649L98.7582 93.6369L98.8372 93.4399L99.1502 93.3188L99.2212 93.7349L99.1372 94.4789L99.3482 94.9189L99.3782 95.0659L99.3372 95.2349L99.1422 95.3849ZM96.8982 104.152L96.6912 104.206L96.6672 104.07L96.4802 103.844L96.6432 103.695L96.9612 103.54L97.2022 103.558L97.4192 103.676L97.4482 103.815L97.0692 103.998L96.9762 104.099L96.8982 104.152ZM98.4272 107.32L98.3742 107.421L98.0282 107.359L97.4292 107.465L97.1772 107.081L97.0672 106.472L96.9922 106.347L96.8432 106L96.7682 105.773L96.6162 105.421L96.5572 105.052L96.5192 104.941L96.6562 104.722L97.2832 104.506L97.5062 104.157L97.6972 104.203L97.6442 104.915L97.7592 105.155L97.9722 105.355L98.0122 105.437L98.0482 105.69L98.1552 106.083L98.2932 106.268L98.3292 106.382L98.3352 106.479L98.2852 106.614L98.4272 107.32ZM95.7812 108.047L95.4652 108.052L95.3862 107.296L95.7582 106.21L95.7842 105.797L95.6592 105.486L95.6082 105.231L95.6392 105.127L96.1142 104.912L96.2622 105.14L96.4392 105.745L96.7752 106.615L96.7672 107.45L96.5802 107.656L95.9942 107.867L95.7812 108.047ZM98.6832 109.685L98.7092 110.314L98.6622 110.947L98.5542 111.727L98.5722 111.886L98.6982 111.924L98.7322 112.022L98.6952 112.434L98.6282 112.751L98.4972 113.011L98.4212 113.323L98.3512 113.392L98.0462 113.447L97.8792 113.413L97.7452 113.058L97.7062 112.84L97.7142 112.555L97.5492 112.173L97.5442 112.027L97.6082 111.776L97.7412 111.652L97.7612 111.266L97.8282 111.151L97.9792 110.992L98.0022 110.927L97.9882 110.87L97.9322 110.864L97.3252 111.34L97.2662 111.475L97.2392 111.654L97.2322 112.286L97.1252 112.652L97.0282 112.722L96.7452 112.738L96.3712 112.701L95.9472 112.365L95.6702 112.458L95.6132 112.05L95.7522 111.724L96.2682 111.752L96.3552 111.173L96.1912 111.037L96.0092 110.805L95.9012 110.592L95.9982 110.434L96.2972 110.205L96.4572 110.181L96.6052 110.309L96.9722 110.212L96.9512 109.849L96.6242 109.689L96.6972 109.414L97.1102 109.151L97.3572 108.886L97.3682 108.585L97.2682 108.285L97.2992 108.168L97.5052 107.921L97.7932 107.802L97.9242 107.819L98.1912 107.993L98.4292 108.014L98.4872 108.066L98.5302 108.259L98.6832 109.685ZM96.9142 108.357L96.8912 108.695L96.4762 109.347L96.1192 109.733L95.7932 110.039L95.5852 110.036L95.4142 109.889L95.6062 109.647L95.8452 109.406L95.7692 109.094L95.6972 109.004L95.5962 108.971L95.4232 108.809L95.4762 108.568L95.5772 108.453L95.7112 108.365L95.8362 108.417L96.3782 108.248L96.5492 108.111L96.8792 108.088L96.9142 108.357ZM97.0592 114.655L96.5102 115.007L96.3492 114.861L95.9532 114.863L96.0572 114.482L96.0972 114.203L96.1572 114.095L96.1792 113.854L96.2982 113.415L96.6262 113.561L96.8712 113.604L97.2032 113.75L97.5632 113.843L97.6682 114.225L97.3182 114.4L97.0592 114.655ZM96.3652 116.345L96.2852 116.753L96.0582 116.718L95.9822 116.614L95.9422 116.355L95.8722 116.23L95.9702 115.971L96.0342 115.684L96.0122 115.464L96.3602 115.48L96.7742 115.537L96.8892 115.597L96.7622 115.791L96.6412 115.906L96.3912 115.977L96.3652 116.345ZM98.4522 118.999L98.4462 119.374L98.3572 119.494L98.2792 119.53L98.0822 119.416L97.9692 119.403L97.7822 119.602L97.6252 119.703L97.3912 119.677L97.0802 119.542L96.8032 120.108L96.6732 120.298L96.4022 120.563L96.3722 120.252L96.5442 119.789L96.6242 119.474L96.7822 119.006L97.1002 119.182L97.5462 119.009L97.9522 118.688L98.3032 118.686L98.4182 118.857L98.4522 118.999ZM97.7102 120.585L97.8302 121.464L97.9162 121.587L98.2022 121.652L98.5132 122.1L98.5272 122.223L98.1512 122.988L98.0712 123.533L97.6302 123.494L97.4452 122.953L97.1662 122.432L97.0722 121.824L96.9192 121.303L97.1922 121.009L97.4532 121.074L97.4682 120.676L97.7102 120.585ZM99.6212 121.946L99.5372 121.996L99.2252 121.891L99.0692 121.796L98.8312 121.557L98.7932 121.31L98.6862 121.017L98.7552 121.013L99.0042 121.129L99.1062 121.218L99.2422 121.406L99.6452 121.675L99.6962 121.754L99.6862 121.857L99.6212 121.946ZM115.09 125.249L115.085 126.624L115.08 127.987L115.076 129.27L115.072 130.562L115.068 131.818L115.064 133.115L115.042 134.579L115.026 135.675H114.604L114.493 135.787L113.825 135.948L112.689 135.7L112.405 135.476L112.024 134.987L111.888 135.119L111.53 135.326L111.162 135.49L110.86 135.508L110.58 135.305L110.52 135.202L110.456 135.18L109.852 135.461L109.184 135.174L108.652 134.999L107.797 134.9L107.203 134.54L106.107 134.571L105.91 134.452L105.837 134.1L105.895 133.937L106.129 133.838L106.194 133.643L106.431 133.69L106.738 133.948L106.832 133.939L107.035 133.696L107.335 133.481L107.442 133.459L107.993 133.724L108.215 133.694L108.533 133.575L108.59 133.471L108.641 133.289L108.725 133.183L109.008 133.131L109.284 133.235L109.316 133.552L109.278 133.892L109.637 133.984L110.073 133.973L110.373 134.1L110.411 133.893L109.932 133.352L109.731 133.017L109.461 132.82L109.114 132.719L108.824 132.093L108.842 131.546L108.811 131.015L109.437 130.724L109.293 130.272L109.509 129.93L109.755 129.799L110.003 131.059L110.181 131.503L109.954 131.593L109.479 131.592L109.744 132.215L110.18 132.429L110.555 132.892L110.563 133.229L110.771 133.381L111.273 133.391L111.619 133.325L111.782 133.1L111.97 133.029L112.307 133.308L112.875 133.515L113.028 133.661L113.139 133.905L113.146 134.168L113.175 134.308L113.34 134.24L113.576 133.883L113.692 133.759L113.834 133.698L113.924 133.618L113.927 133.514L113.502 133.262L111.278 132.087L111.005 131.62L110.821 131.034L110.827 130.431L110.989 130.245L111.386 130.008L112.115 129.674L112.956 129.195L113.061 129.103L113.051 128.804L112.946 128.603L112.612 128.456L112.263 128.419L111.93 128.434L111.597 128.497L110.99 128.814L110.646 128.794L110.319 128.623L110.077 128.281L109.952 127.82L109.953 127.526L109.999 127.256L110.147 126.981L110.346 126.861L110.524 126.877L110.692 126.813L110.792 126.719L110.877 126.593L110.852 126.484L110.787 126.39L110.516 126.196L110.409 126.009L110.177 125.708L110.304 125.624L110.712 125.577L110.997 125.784L111.263 126.029L111.426 126.028L111.572 125.925L111.908 125.612L112.189 125.219L112.445 124.773L112.652 124.506L112.888 124.482L113.581 125.318L113.826 125.349L114.64 124.899L114.731 124.923L115.007 125.151L115.09 125.249ZM98.9372 126.498L98.9832 126.54L99.0942 126.53L99.2492 126.605L99.8352 126.697L100.359 126.915L100.632 127.12L100.991 127.183L101.285 127.444L101.41 127.51L101.561 127.531L101.955 128.014L101.977 128.069L102.424 128.451L102.446 128.512L102.192 128.533L101.677 128.355L101.42 128.345L101.234 128.29L101.191 128.259L101.154 128.038L101.095 127.929L100.6 127.42L100.394 127.309L100.037 127.21L99.6312 127.279L99.3572 127.214L99.2622 127.237L98.8572 126.834L98.4532 126.494L98.2802 126.091L98.0232 125.782L98.0222 125.692L98.1402 125.623L98.4162 125.797L98.6882 126.095L98.8352 126.208L98.9372 126.498ZM103.042 129.111L103.118 129.494L103.158 129.567L103.362 129.505L103.71 129.47L104.28 129.613L104.345 129.664L104.587 130.083L104.773 130.262L105.057 130.651L104.774 130.911L104.607 131.285L104.598 131.474L104.487 131.584L104.313 131.698L104.054 131.917L103.735 131.941L103.421 132.057L103.275 132.162L103.189 132.169L103.087 132.112L102.978 132.004L102.943 131.879L103.158 131.763L103.439 131.35L103.489 130.922L103.186 130.845L103.005 130.904L102.87 130.902L102.715 130.771L102.621 130.972L102.586 131.165L102.627 131.46L102.599 131.556L102.489 131.61L102.235 131.498L101.971 131.299L101.95 131.184L102.004 130.786L101.999 130.579L101.944 130.281L101.915 130.25L101.816 130.257L101.505 130.314L101.194 129.933L101.026 129.531L100.454 129.416L100.9 128.856L101.572 128.777L101.8 129.06L102.548 129.255L102.503 128.955L102.515 128.848L102.618 128.714L102.676 128.703L102.764 128.797L102.908 128.837L102.974 128.929L103.042 129.111ZM107.343 131.722L107.965 132.103L108.377 132.1L108.375 132.338L108.425 132.744L108.36 132.909L108.206 133.078L108.109 133.318L108.037 133.355L107.584 133.065L107.111 132.669L106.873 132.738L106.558 132.641L106.304 132.662L106.146 132.886L105.778 133.003L105.711 132.555L105.377 132.131L105.044 131.792L105.225 131.273L105.441 131.19L105.645 131.017L106.462 131.2L106.886 131.355L107.343 131.722ZM108.462 135.745L108.592 136.053L108.64 136.11L108.986 136.231L109.142 136.158L109.518 136.124L109.744 136.005L110.073 135.944L110.45 136.711L110.408 136.945L110.11 137.199L109.909 137.255L109.719 137.178L109.732 137.049L109.697 136.937L109.567 136.791L109.445 136.805L109.248 136.913L109.154 136.899L108.955 136.78L108.606 136.692L108.537 136.584L108.529 136.424L108.463 136.344L108.099 136.087L107.866 135.868L107.669 135.839L107.597 135.865L107.524 135.969L107.347 136.069L107.296 136.052L107.239 135.969L107.21 135.849L107.285 135.607L107.387 135.584L107.884 135.632L108.189 135.744L108.462 135.745ZM112.079 135.993L114.33 136.474L115.024 136.182L115.573 136.191L115.736 136.592L115.179 137.015L115.137 137.149L115.215 137.257L115.787 137.325L115.932 137.461L116.065 137.637L115.952 137.898L115.941 138.019L116.001 138.136L116.43 138.532L116.606 138.736L116.695 138.932L116.731 139.276L116.723 139.552L116.627 139.589L116.418 139.505L116.214 139.345L116.035 138.949L115.91 138.87L115.549 138.79L115.191 138.597L114.912 138.608L114.655 138.526L114.425 138.598L114.343 138.468L114.244 138.205L114.242 138.091L114.363 137.677L114.36 137.569L114.297 137.556L114.029 137.64L113.921 137.584L113.629 137.284L113.511 137.227L113.218 137.198L113.052 137.728L113.043 137.86L113.212 138.198L113.544 138.719L113.376 138.729L112.896 138.569L112.773 138.469L112.625 138.206L112.34 138.054L112.24 137.96L112.211 137.85L112.208 137.509L112.145 137.459L111.74 137.546L111.657 137.463L111.623 137.319L111.564 137.239L111.303 137.108L111.28 137.026L111.396 136.929L111.468 136.686L111.57 135.812L112.079 135.993ZM119.44 137.141L119.357 137.329L119.18 137.577L118.942 137.769L118.711 137.822L118.544 137.722L118.46 137.546L118.421 137.372L118.364 137.277L118.276 137.256L118.162 137.261L118.022 137.326L117.724 137.577L117.596 137.642L117.51 137.658L116.662 137.47L116.579 137.4L116.479 137.233L116.369 136.736L116.013 136.294L116.558 136.044L117.212 136.045L118.474 136.236L118.977 136.279L119.364 136.699L119.425 136.951L119.44 137.141ZM121.146 137.51L120.922 137.725L120.755 137.711L120.701 137.633L120.683 137.535L120.716 137.431L120.786 137.336L120.95 137.217L121.001 137.198L121.247 137.316L121.146 137.51ZM118.854 140.219L118.751 140.258L118.675 140.164L118.56 140.098L118.092 139.959L118.082 139.875L118.131 139.755L118.224 139.648L118.404 139.542L118.549 139.267L118.614 139.288L118.68 139.4L118.792 139.78L118.927 140.054L118.913 140.149L118.854 140.219ZM118.051 140.781L117.949 140.791L117.701 140.698L117.33 140.657L117.288 140.619L117.279 140.546L117.323 140.471L117.525 140.414L118.134 140.463L118.212 140.497L118.233 140.555L118.134 140.72L118.051 140.781Z" fill="#CCCCCC" stroke="white" stroke-width="0.5"/>
</svg>
