<svg width="23" height="34" viewBox="0 0 23 34" fill="none" xmlns="http://www.w3.org/2000/svg">
<path d="M20.1444 16.6348L19.8615 17.1008L19.4875 17.3668L19.3775 17.5278L19.3185 17.7278L19.2384 17.9287L19.0395 18.3597L18.8944 18.7118L18.7495 18.8217L18.4095 19.3538L18.1815 19.8878L18.1355 20.0258L18.0655 20.1277L17.9544 20.2108L17.5614 20.3768L17.4284 20.4588L17.3235 20.5578L17.2274 20.6698L17.2005 20.8047L17.2924 20.9948L17.4024 21.1458L17.5135 21.1548L17.6104 21.1478L17.6715 21.2378L17.7224 21.2907V22.3268L17.6284 22.4828L17.6305 22.5528L17.5844 22.7307L17.5705 22.9297L17.6004 23.0088L17.6795 23.0738L17.7885 23.2128L17.8474 23.5308L17.9804 24.6487L18.0424 24.8257L18.1524 24.9498L18.4984 25.1908L18.8615 25.5078L18.9765 25.7137L19.0424 26.0518L19.1815 26.3167L19.1784 26.4068L19.1214 26.4417L18.9865 26.4458L18.8955 26.4648L18.9715 26.6577L19.1585 26.9937L19.4704 27.3427L19.8084 27.7198L20.0835 28.0278L20.4275 28.3838L20.6955 28.6617L20.9724 28.9478L21.1815 29.0157L21.3365 29.0358L21.4035 29.0918L21.4854 29.2227L21.6264 29.3687L21.7824 29.5587L21.8355 29.7518L21.7705 29.9368L21.8344 30.2018L21.8385 30.2248L21.8894 30.3288L21.8714 30.4218L21.9035 30.7728L21.9854 31.0788L22.1184 31.3398L22.1165 31.3618L22.0995 31.5218L21.9284 31.6248L21.8285 31.7957L21.7995 32.0327L21.8504 32.3217L21.9825 32.6628L21.9854 32.8628L21.9395 32.8907L21.8575 32.9547L21.7705 32.9968L21.5345 32.7628L21.2715 32.6048L20.8784 32.3307L20.4815 32.2318L19.9695 32.2137L19.7484 32.2477L19.5905 32.1447L19.3684 32.0247L19.2464 31.9948L19.0764 32.0868L18.9594 32.0908L18.8155 32.0558L18.5235 32.0598L18.4964 31.8997L18.4464 31.8698L18.1314 31.8838L18.0345 31.7518L17.9925 31.7668L17.8684 31.7258L17.6154 31.5378L17.3495 31.6617L16.7965 31.6458L16.0874 31.6497L15.3535 31.6548L14.6815 31.6487L14.0085 31.6428L13.9414 31.4677L13.8025 31.3777L13.5515 31.3698L12.8125 31.4048L12.2465 31.3768L12.0655 31.3538L11.8645 31.3087L11.3925 31.2678L10.8085 31.3008L10.6754 31.2917L10.2085 31.2978L9.14047 31.2508L8.54947 31.2578L8.56345 31.3647L8.52545 31.4408L8.49445 31.6268L7.84247 31.6258H6.98447H6.17447H5.62646H4.70847L4.40045 31.4987L4.30746 31.4167L4.28845 31.3248L4.27747 31.2628L4.20544 31.2448L4.26447 30.5887L4.39346 30.0428L4.44345 29.5358L4.62045 29.0828L4.52646 28.6338L4.41745 28.4377L3.84445 27.8018L4.10745 27.5618L3.76144 27.5948L3.68747 27.3578L3.51947 27.0748L3.62247 27.0287L3.72147 26.8737L4.03445 26.9207L4.02444 26.8448L3.75446 26.6068L3.78046 26.4868L3.89145 26.3528L3.83746 26.2957L3.64346 26.4358L3.50345 26.4308L3.39545 26.3408L3.31546 26.3257L3.36346 26.5078L3.25446 26.6707L3.15146 26.7278L2.97546 26.7177L2.83145 26.6768L2.79245 26.5858L2.65747 26.5168L2.27747 26.3958L1.95847 26.2538L1.89447 25.8658L1.76746 25.6988L1.71545 25.5098L1.68546 25.2938L1.72946 24.9618L1.64746 24.9088L1.55545 24.8907L1.41745 24.9068L1.29047 24.8888L1.13846 24.7047L1.00546 24.6338L1.08746 24.9717L0.993469 25.0667L0.764465 25.0398L0.666443 24.9117L0.647461 24.8158L0.752472 24.4077L0.711456 24.3987L0.793457 24.1818L0.949463 23.9178L1.16046 23.5828L1.39944 23.1608L1.56345 22.4157L1.67447 21.9507L1.77545 21.5268L1.95047 21.1438L2.12747 20.8878L2.62845 20.3918L3.00647 20.0168L3.19946 19.8658L3.33347 19.7388L3.56946 19.5938L3.81046 19.4207L3.99545 19.0898L4.14645 18.7808L4.26144 18.7137L4.41245 18.6598L4.87445 18.3278L5.16745 18.1168L5.23544 18.2217L5.28546 18.3517L5.34146 18.4117L5.58746 18.4528L5.92447 18.4507L6.11847 18.4128L6.22147 18.3028L6.32645 18.0018L6.38745 17.9448L6.46646 17.9297L6.83447 18.1398L7.14047 18.4388L7.44244 18.7347L7.59546 18.8398L7.66245 18.9557L7.79446 19.4948L7.87045 19.6288L8.00146 19.6848L8.23746 19.6487L8.48245 19.5537L8.69846 19.4157L8.91147 19.2368L9.05646 19.0757L9.11945 18.9568L9.15146 18.5157L9.19946 18.4188L9.41644 18.2428L9.78046 17.9488L9.98846 17.7798L9.97046 17.7198L9.84045 17.5398L9.72546 17.3418L9.84247 17.1378L9.96347 16.9807L10.4225 16.4498L10.4245 16.2737L10.4485 16.0608L10.8155 15.4568L11.0265 14.6548L11.0325 14.4998L11.2515 14.1128L11.5105 13.6168L12.0135 13.5367L12.2065 13.4128L12.4294 13.1938L12.5735 12.9897L12.6414 12.7957L12.6915 12.4207L12.7805 11.9937L12.8354 11.6187L12.9865 11.2718L13.2384 11.0967L13.6765 10.9507L13.7425 10.8828L13.8055 10.6528L13.8545 10.1747L13.8684 9.88675L13.8855 9.76175L13.9414 9.54575L14.3474 9.16275L14.5274 8.56274L14.6875 7.93375L15.1485 7.17276L15.6884 6.41476L15.9384 6.21075L16.1494 6.11676L16.3935 6.10675L16.5595 6.05075L17.1405 5.67276L17.3835 5.54477L17.5625 5.41376L17.6054 5.29877L17.6234 5.13174L17.5675 4.73975L17.6674 4.45276L17.7265 4.00577L17.7505 3.65775L17.7295 3.53674L17.6385 3.36975L17.6214 3.33377L17.4475 3.11676L17.1565 2.98575L16.7564 2.94977L16.5445 2.87274L16.5094 2.69077L16.4895 2.58575L16.4685 2.47174L16.4395 2.21875L16.1704 0.885742L16.6784 0.889771L17.2865 1.04877L17.4395 1.16876L17.5205 1.62476L17.7404 1.88376L18.1275 2.09576L18.3684 2.53476L18.4624 3.19876L18.6754 3.59576L18.7245 3.65875L18.9655 4.23175L19.0255 4.40775L19.0435 4.75275L19.0164 4.98575L19.1394 5.27374L18.9535 5.76575L18.8974 6.06674L18.8814 6.48975L18.9904 7.23575L19.1685 7.81076L19.3615 8.27576L19.5725 8.63675L19.9195 9.03476L20.2904 9.39777L20.6355 9.62677L20.3155 9.76074L19.6955 9.77777L19.3394 9.70074L19.1695 9.69675L18.9984 9.74475L18.3365 9.81375L17.6685 9.78177L17.0495 9.69077L16.6734 9.70575L16.3835 9.92676L16.1474 10.2588L15.9275 10.5218L16.0045 10.8127L16.1704 10.9738L16.4904 11.3278L16.7765 11.6707L16.9234 11.9008L17.4955 12.4048L18.0475 12.8548L18.1555 12.9297L18.3105 13.0107L18.4065 13.0438L18.7074 13.3018L19.1234 13.7248L19.5055 14.3867L19.7765 15.0587L20.0404 15.7118L20.1565 15.8217L20.3405 15.8918L20.3625 16.0318L20.3485 16.2388L20.2915 16.4077L20.1444 16.6348Z" fill="#CCCCCC" stroke="white" stroke-width="0.5"/>
</svg>
