<svg width="173" height="128" viewBox="0 0 173 128" fill="none" xmlns="http://www.w3.org/2000/svg">
<path d="M104.907 121.757L105.047 121.889L105.138 122.08L105.213 122.432L105.258 122.756L104.975 122.962L104.721 123.045L104.212 123.834L104.106 124.083L104.02 124.187L103.993 124.295L104.003 124.403L103.871 124.781L103.755 125.246L103.681 125.436L103.535 125.582L103.35 125.656L103.23 125.667L103.121 125.707L102.852 125.96L102.549 126.15L102.6 126.237L102.603 126.32L102.47 126.412L102.323 126.394L101.896 126.469L101.74 126.611L101.58 126.873L101.519 126.909L101.261 126.97L101.065 126.993L100.73 126.808L100.564 126.754L100.122 126.679L99.6913 126.554L99.3893 126.411L98.7704 126.061L98.6984 125.428L98.5923 125.086L98.5854 124.964L98.6263 123.909L98.6694 123.793L98.7484 123.692L99.0214 123.456L99.3344 123.269L99.7834 122.877L100.109 122.698L100.382 122.44L100.222 122.451L100.104 122.418L100.22 122.197L100.345 122.079L100.49 122.015L100.78 122.061L101.048 122.015L101.246 121.819L101.434 121.777L102.15 121.841L102.646 121.751L102.894 121.57L103.011 121.563L103.377 121.614L103.513 121.802L103.501 121.676L103.517 121.553L103.584 121.566L104.063 121.799L104.064 121.514L104.091 121.439L104.24 121.32L104.315 121.322L104.501 121.552L104.682 121.686L104.907 121.757ZM103.494 118.476L103.598 118.58L103.876 118.507L103.927 118.639L103.925 118.701L103.826 118.853L103.596 118.736L103.367 118.763L103.201 118.753L103.156 118.681L103.283 118.533L103.494 118.476ZM109.833 116.838L109.558 116.901L109.499 116.888L109.595 116.733L109.844 116.626L109.833 116.838ZM110.244 116.952L110.19 117.012L110.108 116.903L110.085 116.747L110.026 116.663L110.161 116.557L110.221 116.44L110.381 116.463L110.447 116.498L110.306 116.62L110.273 116.672L110.244 116.952ZM112.391 113.328L112.414 113.468L112.195 113.255L112.132 113.243L112.028 113.163L111.967 113.029L112.137 113.024L112.293 113.183L112.391 113.328ZM125.379 108.173L125.285 108.358L125.119 108.327L125.114 108.196L125.08 108.158L125.126 108.036L125.156 108.002L125.344 108.106L125.379 108.173ZM129.976 105.215L129.767 105.358L129.637 105.29L129.635 105.098L129.701 104.925L129.625 104.8L129.699 104.652L129.854 104.608L129.91 104.701L129.997 104.75L130.024 104.801L130.025 104.898L129.942 105.058L130.007 105.145L129.976 105.215ZM133.99 96.9931L133.745 97.0691H133.653L133.661 96.8391L133.861 96.6201L133.942 96.6931L133.988 96.8071L133.99 96.9931ZM136.575 91.9141L136.565 91.9741L136.326 91.7651L136.211 91.731L136.266 91.6121L136.427 91.5821L136.555 91.8441L136.575 91.9141ZM137.225 91.2281L137.198 91.3771L137.123 91.356L137.023 91.0911L137.077 91.0261L137.219 91.0421L137.225 91.2281ZM136.922 90.9991L136.881 91.0621L136.534 90.8771L136.158 90.8381L136.028 90.675L136.005 90.4191L136.401 90.4301L136.889 90.6611L136.994 90.7791L136.922 90.9991ZM135.705 86.0311L135.475 86.1251L134.745 85.8441L134.229 85.5351L133.921 85.1601L133.877 85.0051L134.236 85.0311L134.587 85.166L134.665 85.3721L134.807 85.4371L134.903 85.5571L135.553 85.8361L135.653 85.9201L135.705 86.0311ZM140.271 1.00406L140.398 1.01807L140.468 1.01706L140.603 0.923065L140.976 1.09006L141.689 1.58606L142.136 1.80606L142.321 1.75208L142.521 1.88907L142.74 2.21707L143.011 2.41006L143.499 2.49905L143.983 2.85706L144.178 2.87708L144.246 2.67606L144.427 2.56107L144.719 2.53107L145.142 2.70807L145.695 3.09106L146.042 3.25906L146.183 3.21307L146.331 3.28406L146.45 3.46307L146.461 3.68405L146.42 3.80206L146.553 3.98807H146.706L146.956 4.07706L147.152 4.40506L147.328 4.55707L147.451 4.68805L147.473 4.79706L147.484 4.90707L147.448 4.99207L147.381 5.13306L147.36 5.28406L147.445 5.45407L147.756 5.57706L147.861 5.70407L147.885 5.86606L147.982 6.04507L148.194 6.25208L148.274 6.42505L148.225 6.56406L148.288 6.68005L148.392 6.77106L148.414 7.10007L148.423 7.28906L148.594 7.50107L148.629 7.93506L148.748 8.41406L149.149 9.06906L149.282 9.42307L149.248 9.84305L149.306 10.0401L149.489 10.1351L149.576 10.3121L149.566 10.5711L149.637 10.7321L149.695 10.9031L149.656 11.1691L149.714 11.4081L149.808 11.5481L149.874 11.8061L149.911 12.1281L150.18 12.636L150.679 13.33L150.985 13.8681L151.096 14.2501L151.097 14.5641L150.988 14.8101L150.982 14.9891L151.08 15.1011L151.109 15.2521L151.07 15.4431L151.232 15.6691L151.78 16.0611L151.561 16.6611L151.503 17.0821L151.532 17.524L151.668 17.8351L151.909 18.0151L152.059 18.2031L152.118 18.399L152.408 18.6121L152.928 18.843L153.595 18.8841L154.408 18.7331L154.905 18.7081L155.088 18.8081L155.151 18.9601L155.092 19.1631L155.23 19.2961L155.564 19.36L155.793 19.4871L155.919 19.679L156.073 19.7331L156.256 19.6501L156.434 19.662L156.607 19.7681L156.719 19.731L156.817 19.6151H156.974L157.135 19.6171L157.235 19.8981L157.397 20.0561L157.621 20.0911L157.962 20.4321L158.648 21.4011L159.094 21.744L159.541 21.8511L160.097 21.873L160.277 22.2471L160.131 22.6421L160.094 22.9711L160.22 23.0891L160.394 23.4751L160.64 23.6991L160.687 23.8761L160.801 24.0741L160.753 24.4391L160.542 24.972L160.6 25.4261L160.926 25.8011L161.114 26.162L161.163 26.5081L161.244 26.718L161.359 26.7921L161.693 26.7661L162.248 26.6411L162.654 26.662L162.914 26.8311L163.555 26.8371L164.578 26.6811L165.224 26.6331L165.494 26.6931L165.734 26.4701L165.945 25.9631L166.142 25.7251L166.327 25.7551L166.619 25.5921L167.02 25.235L167.368 25.0621L167.809 25.08L168.279 25.0981L168.573 24.9481L168.849 24.6351L169.328 24.3581L170.349 23.9951L170.594 23.938L170.711 23.9581L171.051 24.0151L171.353 24.1571L171.638 24.442L171.682 24.6251L171.65 24.8651L171.587 25.0041L171.47 25.1601L171.36 25.4131L171.431 25.61L171.596 26.0311L171.732 26.3351L171.882 26.6931L171.815 26.8211L171.724 27.0691L171.445 27.4881L171.293 27.6481L171.129 27.804L170.846 27.8421L170.725 27.8781L170.588 27.9441L170.502 28.0921L170.404 28.1961L170.242 28.4041L170.229 28.5831L170.302 28.8491L170.338 29.1211L170.155 29.3641L170.013 29.7371L169.97 29.8491L169.9 30.1311L169.879 30.2291L169.834 30.8211L169.651 31.2241L169.396 31.692L169.453 31.9711L169.498 32.2291L169.435 32.3541L169.419 32.4631L169.382 32.7111L169.302 32.8061L169.07 32.9611L168.931 33.1481L168.96 33.4311L168.889 33.6761L168.783 33.8921L168.672 34.0331L168.512 34.123L168.406 34.1991L168.326 34.4731L168.302 34.6851L168.227 34.8961L168.273 35.1111L168.192 35.2971L167.964 35.4271L167.835 35.5041L167.716 35.5351L167.488 35.7371L167.284 36.4281L167.238 36.8291L167.285 37.1851L166.999 37.4081L166.787 37.5851L166.654 37.5211L166.513 37.4611L166.189 37.3841L166.027 37.3321L165.701 37.2161L165.179 37.0691L164.669 36.8981L164.349 36.8081L164.097 36.7361L163.906 36.6181L163.745 36.4071L163.585 36.4921L163.437 36.7421L163.19 36.8901L163.078 37.1631L162.979 37.3721L162.723 37.6511L162.609 37.7661L162.108 37.955L161.995 38.0181L161.586 38.0581L161.447 38.1411L161.303 38.317L161.264 38.4921L161.366 38.6761L161.525 39.0441L161.599 39.2951L161.707 39.7921L162.07 41.3451L161.953 41.6121L161.844 42.7691L161.87 42.9771L161.859 43.3011L161.866 43.5381L161.941 43.597L162.039 43.6801L162.089 43.8181L162.076 44.0301L162.026 44.1851L161.949 44.4921L161.847 44.9351L161.734 45.1051L161.66 45.2401L161.597 45.3331L161.589 45.6461L161.547 45.8521L161.37 45.925L161.194 46.0451L160.985 46.0011L160.801 46.0251L160.574 46.1051L160.167 46.1981L159.931 46.3221L159.818 46.412L159.74 46.5201L159.726 46.6241L159.78 46.679L160.009 46.7211L160.166 46.9151L160.188 47.1271L160.026 47.248L159.946 47.1151L159.811 47.0731L159.56 46.886L159.376 46.6801L159.239 46.4521L159.245 45.9651L159.222 45.8921L158.972 45.7921L158.898 45.6461L158.779 45.5771L158.61 45.6211L158.483 45.5751L158.382 45.4951L158.262 45.4861L158.158 45.6121L158.102 45.8831L157.927 46.3321L157.911 46.6031L157.836 46.9891L157.761 47.4781L157.698 47.58L157.503 47.5951L157.436 47.6271L157.333 47.7931L157.21 47.8211L157.101 47.7241L156.93 47.6271L156.767 47.6141L156.621 47.7111L156.449 47.9221L156.351 48.0921L156.316 48.2521L156.289 48.4491L156.115 48.6371L155.957 48.7361L155.63 49.0131L155.526 49.1281L155.292 49.1291L155.037 49.1181L154.693 49.1931L154.133 49.231L153.798 49.1741L153.384 49.2271L153.061 49.317L153.015 49.4521L153.027 49.6521L153.091 49.7821L153.17 49.869L153.304 50.1371L153.445 50.3961L153.658 50.563L153.747 50.7431L153.751 50.9101L153.65 51.1201L153.497 51.3941L153.354 51.563L153.247 51.5571L153.083 51.4591L152.972 51.3351L152.707 51.2891L152.059 51.3681L151.735 51.313L151.58 51.2121L151.309 51.205L150.89 51.0701L150.634 51.0271L150.513 50.9411L150.49 50.7431L150.37 50.6071L150.302 50.4441L150.15 50.2391L150.004 50.136L149.86 50.093L149.703 50.2171L149.535 50.3291L149.41 50.304L149.349 50.3351L149.281 50.4281L149.011 50.6181L148.948 50.7921L148.841 51.1611L148.766 51.5401L148.702 51.6741L148.593 51.6971L148.482 51.8111L148.249 52.166L148.038 52.4931L147.732 52.7141L147.587 52.916L147.513 53.1001L147.295 53.3571L146.975 53.4031L146.72 53.4781L146.564 53.498L146.452 53.6021L146.37 53.7601L146.331 53.8231H146.186L146.042 53.9571L145.689 54.2621L145.401 54.3191L145.041 54.5221L144.724 54.6761L144.592 54.7631L144.557 54.8591L144.511 54.981L144.358 55.0051L144.21 54.9991L143.88 55.2781L143.713 55.5151L143.064 56.0191L142.799 56.3021L142.731 56.6681L142.697 56.6411L142.466 56.9601L142.012 57.2631L141.042 57.3311L140.735 57.1161L140.624 57.2641L140.538 57.4631L140.283 57.5291L139.886 57.5471L139.663 57.6781L139.544 57.8241L138.999 57.8711L138.799 58.0661L138.459 58.1351L137.042 58.985L136.733 59.3421L136.44 59.7591L136.235 59.968L136.051 60.1141L135.884 60.1741L135.72 60.3181L135.554 60.3361L135.385 60.2701L135.196 60.2931L135.071 60.4671L135.176 60.6941L135.118 60.7901L134.746 60.9131L134.192 60.994L133.958 61.1421L133.876 61.2261L133.754 61.2681L133.636 60.9761L133.594 60.5901L133.823 60.4971L134.034 60.4481L135.203 59.9141L135.057 59.5121L135.161 59.3371L135.423 59.0521L135.593 58.9111L135.501 58.8591L134.734 58.9531L134.295 58.9461L134.069 58.9171L134.137 58.6731L134.099 58.429L134.046 58.3381L134.437 58.0601L134.614 57.9921L134.749 57.9961L134.739 57.8281L134.627 57.5751L134.748 57.248L135.544 56.8631L135.735 56.5131L136.054 56.1861L136.638 55.3721L136.673 55.2331L136.843 54.8501L136.873 54.6971L136.603 54.4731L136.496 54.1591L135.706 53.5911L135.639 53.1021L135.565 53.123L135.445 53.4651L135.342 53.5751L134.976 53.5851L134.803 53.4561L133.785 53.3721L133.536 53.593L133.304 53.9341L133.077 54.1781L132.849 54.3031L132.651 54.5251L131.833 55.8391L131.524 55.9391L130.069 56.7301L129.34 57.0401L128.779 57.5861L128.586 57.916L128.415 58.2821L128.311 58.8351L127.793 59.5061L127.615 59.6501L127.434 59.7081L127.193 59.6871L126.985 59.7291L126.631 59.6701L126.197 59.882L125.709 60.0651L125.288 59.6041L124.987 59.4901L124.496 59.6181L124.268 59.8231L123.796 60.8361L123.619 61.4151L123.631 61.6521L123.906 62.3701L124.217 62.7711L124.914 63.2281L126.396 63.5421L126.744 63.4301L127.117 63.429L127.51 63.7271L127.756 64.2191L127.778 64.554L127.786 64.6701L127.876 64.7691L127.929 64.938L127.773 65.0781L127.653 65.1481L127.552 65.6671L127.546 66.2401L127.673 66.4301L127.992 66.6971L128.485 66.9171L128.941 66.9641L129.812 66.8581L130.168 66.5131L130.147 66.3641L130.156 66.1711L130.923 65.6641L131.36 65.2141L131.292 65.0951L131.208 65.0161L131.285 64.9701L131.524 64.938L132.59 64.468L133.429 64.8521L133.908 65.2941L134.382 65.3681L134.71 65.5941L135.089 65.7861L135.583 65.7991L136 65.8391L136.127 65.6611L136.258 65.5441L136.406 65.567L136.573 65.8L137.047 65.9791L137.484 65.9701L137.79 65.9051L137.972 65.9881L137.709 66.2861L137.748 66.7661L137.547 66.9181L137.354 67.162L137.468 67.3231L137.569 67.3911L137.559 67.5861L137.383 67.6971L137.057 67.9871L136.869 67.9821L136.78 67.9261L136.717 67.8221L136.67 67.6551L136.556 67.5451L136.24 67.5031L135.912 67.5431L135.174 67.9731L134.453 68.3151L133.698 68.5861L133.445 68.757L133.265 68.804L132.952 68.675L132.763 68.6831L132.723 68.7721L132.964 69.0101L133.027 69.1961L133.002 69.3391L132.865 69.4021L132.666 69.2981L132.484 69.4471L132.402 69.6981L132.398 70.2951L132.278 70.4281L131.945 70.5011L131.591 70.6911L131.465 70.6031L131.415 70.4961L131.452 70.222L131.408 70.0881L131.246 70.0951L131.002 70.1771L130.816 70.3571L130.752 70.4661L130.997 70.817L131.23 70.8531L131.287 70.9321L131.102 71.1031L130.641 71.3571L130.564 71.5701L130.427 71.774L130.239 71.9361L130.111 72.1071L129.955 72.1961L129.7 72.2961L129.387 72.7041L129.158 73.0851L128.886 73.2811L128.671 73.9231L128.286 74.2711L128.144 74.8271L128.244 75.1681L128.667 75.1651L128.878 75.2851L129.316 75.7331L129.84 76.0251L130.384 76.1891L131.051 76.6021L131.235 76.7771L131.392 77.132L131.681 78.1521L131.889 78.6561L131.903 78.9191L132.215 79.4141L132.548 80.2641L132.932 80.998L133.005 81.5751L132.881 81.8381L132.882 82.179L133.265 82.4921L134.117 82.8551L134.253 82.9621L134.42 83.1381L134.428 83.6851L134.56 83.8591L134.671 83.9651L135.187 84.1961L135.403 84.3881L135.632 84.6941L135.698 84.968L135.726 85.3391L135.438 85.3521L135.206 85.3101L134.283 84.8281L134.043 84.8151L133.704 84.882L133.221 84.7931L132.711 84.2581L132.343 84.0961L131.948 84.0141L131.006 84.4741L130.766 84.4411L130.697 84.4931L130.591 84.5721L131.028 84.6711L131.466 84.5201L131.886 84.2971L132.499 84.416L132.602 84.6171L132.703 84.9561L133.123 85.1851L133.453 85.2861L133.873 85.5861L134.283 86.054L135.152 86.5961L135.504 87.1081L135.64 87.438L135.762 87.9091L135.458 88.0611L135.193 88.0821L134.778 88.1561L134.473 88.3231L134.167 88.6151L133.29 89.0741L133.124 89.3611L133.01 89.6111L132.796 89.7341L132.259 89.6171L131.753 89.6271L131.18 89.9641L131.037 90.1011L131.132 90.0741L131.222 90.0311L131.48 90.0821L131.879 89.9021L132.269 90.451L133.03 90.3621L133.745 89.9061L134.022 89.8981L134.253 89.968L134.512 90.1481L135.2 90.9471L135.578 91.0341L135.948 91.2211L136.153 91.2421L136.338 91.2981L135.84 91.5901L135.197 92.2201L134.911 92.3701L134.719 92.5381L135.237 92.4541L135.605 92.1531L135.791 92.0791L135.94 92.149L136.016 92.5201L135.874 93.6581L135.693 93.6781L135.517 93.369L135.311 93.2711L135.138 93.3351L134.795 93.3331L134.664 93.4731L134.554 93.6711L134.759 93.7121L135.163 94.0571L135.204 94.2401L135.096 94.3591L134.813 94.3081L135.157 94.5651L135.066 94.8311L134.955 94.9361L134.755 95.0031L134.632 95.2331L134.809 95.6161L134.988 96.106L135.01 96.3421L134.73 96.2401L134.293 96.5391L134.063 96.5641L133.907 96.1701L133.708 96.2321L133.575 96.3461L133.398 96.7681L133.182 97.149L132.996 97.2531L132.773 97.2231L132.589 97.2341L132.634 97.3371L132.828 97.4621V97.6081L132.414 98.0711L132.347 98.2501L132.357 98.4021L132.14 98.5871L132.257 98.8981L132.196 99.1171L132.006 99.4131L131.806 99.6081L131.571 99.9241L131.273 100.107L130.88 100.768L130.764 101.098L130.735 101.439L130.612 101.557L130.401 101.705L130.161 101.63L130.153 101.403L130.049 101.383L129.99 101.234L129.972 101.045L129.997 100.892L129.897 100.939L129.835 101.116L129.677 101.26L129.512 101.202L129.334 101.084L129.339 101.254L129.434 101.425L129.475 101.596L129.721 101.633L129.886 101.829L130.016 102.13L130.042 102.243L130.143 102.377L130.157 102.492L129.922 102.598L129.628 102.796L129.275 103.135L128.984 103.361L128.721 103.363L128.562 103.337L128.335 103.207L128.074 103.153L128.424 103.61L128.615 103.691L128.855 103.674L129.088 103.504L129.419 103.522L129.502 103.785L129.414 104.082L129.233 104.467L129.196 104.8L129.42 105.276L129.43 105.419L129.346 105.49L129.083 105.365L128.866 105.207L128.647 105.249L128.42 105.182L128.187 105.238L128.092 105.348L128.156 105.529L128.365 105.679L128.482 105.91L128.342 105.991L127.749 105.937L127.617 105.981L127.44 106.235L127.555 106.611L127.424 106.844L127.18 106.899L126.859 107.087L126.661 107.131L126.671 107.213L126.816 107.295L126.893 107.406L126.718 107.789L126.447 107.915L126.031 107.852L125.704 107.938L125.421 107.775L125.119 107.772L124.914 107.978L124.892 108.217L124.693 108.241L124.586 108.223L124.435 108.24L124.451 108.368L124.537 108.48L124.945 108.53L125.018 108.691L125.034 108.939L124.607 109.366L124.425 109.654L124.151 109.646L123.944 109.877L123.833 110.19L123.696 110.128L123.379 110.178L123.286 110.327L123.36 110.389L123.367 110.496L123.24 110.847L123.102 110.946L123.042 110.802L122.997 110.579L122.886 110.562L122.701 110.767L122.485 110.914L122.3 110.975L122.16 110.839L121.817 110.768L121.677 111.357L121.393 111.571L121.26 111.638L121.028 111.658L121.176 111.739L121.222 111.89L121.139 112.04L120.907 112.07L120.772 112.187L120.72 112.712L120.582 112.896L120.23 112.911L119.967 112.789L119.883 112.885L119.839 112.979L119.701 113.074L119.435 113.099L118.844 113.334L118.573 113.266L118.25 113.177L118.027 113.264L117.953 113.444L117.85 113.584H117.526L117.266 113.411L117.001 113.286L116.708 113.394L116.485 113.614L116.211 113.688L116.16 113.825L116.041 113.893L115.751 113.864L115.641 113.524L115.474 113.474L115.309 113.646L115.25 113.78L115.173 113.882L115.2 114.159L115.037 114.165L114.824 113.995L114.6 113.965L114.391 114.123L114.285 114.084L114.173 114.051H113.99L113.92 114.093L113.786 114.118L113.696 114.204L113.688 114.211L113.452 114.153L113.163 113.923L112.956 113.541L112.693 113.335L112.577 113.154L112.532 112.829L112.484 112.674L112.5 112.502L112.58 112.349L112.297 112.426L112.088 112.569L112.131 112.749L112.079 112.916L111.767 113.003L111.786 113.073L111.807 113.147L112.051 113.375L112.101 113.566L112.2 113.668L112.391 113.965L112.386 114.539L112.491 114.701L112.456 114.862L112.38 115.079L112.373 115.082L112.317 115.016L112.225 115.029L112.188 115.102L112.182 115.168L112.166 115.171L112.004 115.219L111.868 115.26L111.758 115.318L111.585 115.489L111.256 115.531L111.087 115.131L110.86 115.398L110.792 115.943L110.708 116.036L110.567 116.114L110.3 115.924L110.067 116.051L109.885 116.18L109.81 116.299L109.676 116.428L109.419 116.303L109.212 116.116L109.264 115.975L109.235 115.883L109.142 115.813L109.039 115.823L109.09 116.006L109.124 116.356L109.03 116.457L108.885 116.535L108.572 116.471L108.359 116.341L108.1 116.231L107.872 116.211L107.822 116.432L107.674 116.61L107.537 116.632L107.4 116.604L107.22 116.796L107.135 116.936L106.913 117.084L106.323 117.156L106.117 117.302L105.841 117.279L105.627 117.314L105.504 117.306L105.394 117.227L105.27 117.225L105.213 117.469L104.879 117.572L104.579 117.6L104.245 117.922L104.007 118.117L103.83 118.137L103.7 118.068L103.635 117.78L103.569 117.746L103.531 118.017L103.468 118.242L103.346 118.365L102.96 118.645L102.849 118.923L102.923 119.18L103.442 119.243L103.506 119.384L103.456 119.499L103.332 119.595L103.295 119.739L103.852 120.197L103.869 120.37L103.783 120.469L103.679 120.682L103.385 120.862L102.763 120.954L102.244 120.861L102.087 120.656L102.097 120.51L102.226 120.552L102.372 120.539L102.328 120.405L102.266 120.327L102.027 120.208L101.833 119.887L101.87 119.62L101.765 119.413L101.649 119.24L101.533 119.136L101.47 119.007L101.588 118.601L101.523 118.365L101.745 118.075L101.8 117.748L102.196 117.631L102.223 117.319L101.939 117.31L101.742 117.081L101.697 117.178L101.539 117.188L101.279 116.746L101.201 116.69L101.075 116.682L101.138 117.148L100.833 117.323L100.583 117.4L100.229 117.432L100.027 117.486L99.8394 117.442L99.8854 117.301L99.9854 117.133L99.8964 116.992L99.6964 116.884L99.3904 116.89L99.1794 116.86L98.9694 116.872L98.8924 116.809L98.6974 116.588L98.5323 116.451L98.4584 116.314L98.5323 116.155L98.4703 116.058L98.1514 116.047L98.1534 116.275L98.1863 116.544L98.2794 116.748L98.2134 116.862L98.0514 116.94L97.8784 116.724L97.7994 116.671L97.7164 116.681L97.6534 116.896L97.4963 117.087L97.2144 117.066L96.9944 117.184L96.7284 117.238L96.5474 117.08L96.2484 116.826L96.1294 116.797L95.7974 116.921L95.3204 116.967L95.2144 116.835L94.9844 116.935L94.7624 116.63L94.4994 116.61L94.1714 116.379L94.0533 116.256L94.0164 116.08L93.9164 115.988L93.7884 116L93.6454 115.906L93.4194 115.813L93.2374 115.758L93.1473 115.8L93.0524 115.822L93.0353 115.704L93.0424 115.348L93.0254 115.032L92.9753 114.889L92.8534 114.781L92.7433 114.729L92.6943 114.566L92.7344 114.246L92.8243 114.029L92.9664 113.99L93.1584 113.834L93.2563 113.612L93.3794 113.406L92.9413 113.117L92.7114 113.013L92.4564 113.057L92.1393 113.149L91.9744 113.167L91.8914 113.131L91.7064 112.871L91.6064 112.826L91.3824 112.809L91.1934 112.811L91.0854 112.924L90.9174 112.962L90.7494 112.968L90.5793 112.827L90.3234 112.643L89.9224 112.513L89.8734 112.364L89.7714 112.185L89.6194 112.019L89.3674 111.799L89.1564 111.685L89.0533 111.755L88.9134 111.88L88.3713 112.143L88.1313 112.246L88.0034 112.319L87.8964 112.429L87.8633 112.7L87.8104 113.002L87.6544 113.155L87.5063 113.271L87.3514 113.283L87.1993 113.278L87.0564 113.326L86.6204 113.629L86.4153 113.605L86.2463 113.434L86.1744 113.31L85.9794 113.338L85.7294 113.483L85.6133 113.743L85.5524 113.986L85.4974 114.094L85.4134 114.125L85.3394 114.13L84.5604 113.429L84.5124 113.393L84.3724 113.537L84.2454 113.909L84.1544 113.98L84.0923 113.951L83.7704 113.475L83.6874 113.43L83.6144 113.446L83.5174 113.6L83.3134 113.827L83.1573 113.965L83.1534 114.118L82.9833 114.253L82.7864 114.388L82.7203 114.402L82.5894 114.348L82.4184 114.169L82.2944 113.982L81.9874 113.796L81.6434 113.639L81.4153 113.516L81.2853 113.486L81.1644 113.541L81.1034 113.616L81.0174 113.802L80.8113 114.106L80.6274 114.348L80.4564 114.503L80.3204 114.61L80.2184 114.51L80.0304 114.428H79.8094L79.5184 114.582L79.2894 114.274L79.2294 114.259L79.1414 114.285L79.0394 114.358L78.9694 114.53L78.8954 114.765L78.7494 114.919L78.6284 114.987L78.6634 115.119L78.7324 115.262L78.7274 115.387L78.7714 115.584L78.8474 115.781L79.1183 116.104L79.2224 116.272L79.2433 116.418L79.2534 116.936L79.2424 117.152L79.1884 117.568L79.1844 117.808L79.2974 117.916L79.4064 118.045L79.4014 118.115L79.3534 118.14L79.1984 118.283L79.1334 118.302L79.0314 118.243L78.8994 118.199L78.7944 118.142L78.6774 118.05L78.4004 118.06L77.9454 118.2L77.8514 118.16L77.7864 118.081L77.7504 117.917L77.7723 117.725L77.7324 117.602L77.6473 117.529L77.7084 117.186L77.5464 117.05L77.5693 117.008L77.5154 116.637L77.5223 116.545L77.4944 116.514L77.3804 116.485L77.2104 116.543L76.6934 116.787L76.2494 117.238L76.0464 117.338L75.8414 117.379L75.6003 117.301L75.3334 117.25L74.9524 117.364L74.7643 117.311L74.6774 117.219L74.6003 117.079L74.6473 116.901L74.6183 116.77L74.4664 116.704L74.2894 116.647L74.1844 116.476L74.1424 116.289L74.1833 116.046L74.2043 115.785L74.1194 115.665L73.8604 115.6L73.2073 115.481L72.6354 115.416L72.3954 115.447L72.1993 115.418L72.0864 115.37L72.0314 115.288L72.0284 115.17L72.1213 114.899L72.2264 114.634L72.4924 114.248L72.5084 113.98L72.4944 113.671L72.6263 113.258L72.8553 112.949L72.9684 112.852L72.9413 112.714L72.8494 112.588L72.7184 112.518L72.5013 112.437L72.1634 112.415L71.6993 112.332L71.1624 112.148L71.2244 111.795L71.2154 111.574L71.1494 111.392L71.0403 111.263L70.9784 111.148L71.0754 110.832L70.9504 110.486L70.8033 110.348L70.6514 110.169L70.6393 109.976L70.7084 109.796L71.0804 109.409L71.0834 109.315L70.9914 109.323L70.8854 109.331L70.3774 109.472L70.3224 109.383L70.1404 109.332L69.7693 109.322L69.3354 109.348L68.7864 109.486L68.2823 109.728L68.0533 109.894L67.8583 109.997L67.7004 110.031L67.5174 109.958L67.5273 109.721L67.8713 109.286L67.9203 108.987L67.8163 108.73L67.8044 108.524L67.6833 108.393L67.5143 108.329L67.4244 108.183L67.4184 107.755L67.5693 107.314L67.8144 107.175L67.9634 107.108L68.0034 107.022L67.9274 106.712L67.9394 106.515L68.0854 106.134L68.2314 105.845L68.5074 105.893L68.6313 105.821L68.7684 105.718L68.9174 105.544L69.0174 105.337L69.1393 104.857L69.2224 104.785L69.5704 104.865L69.6744 104.809L69.8644 104.527L70.0444 104.183L70.3054 104.077L70.4933 104.066L70.5804 103.952L70.5754 103.784L70.3964 103.517L70.3214 103.304L70.3434 103.174L70.5994 103.095L70.6624 102.94L70.6244 102.6L70.7294 102.191L70.7924 101.712L70.8134 101.354L70.8104 101.081L70.7853 100.794L70.7494 100.27L70.6324 99.813L70.6534 99.6411L70.6374 99.0861L70.5654 98.6121L70.4214 98.5291L70.1534 98.3751L70.0074 98.3451L69.8854 98.4011L69.8394 98.5661L69.7214 98.7201L69.5764 98.6821L69.5074 98.5281L69.4144 98.326L69.1034 97.3651L69.0693 97.0881L69.0143 96.8121L68.9103 96.6741L68.8004 96.5921L68.5524 96.2681L68.4224 96.1331L68.3594 96.1111L68.2234 96.1341H68.0894L67.9803 95.972L67.8804 95.774L67.7804 95.6771L67.6124 95.623L67.4404 95.6441L67.3394 95.8151L67.2714 95.912L67.1414 96.1401L66.9314 96.455L66.8354 96.5711L66.7424 96.511L66.3373 96.1831L66.1424 96.0921L65.8763 96.1911L65.4614 96.1131L65.3014 96.0981L64.9554 95.8361L64.8144 95.804L64.3234 95.9751L64.2154 96.0961L64.1523 96.0981L64.0214 96.037L63.9144 95.9561L63.9073 95.9051L64.0403 95.7771L64.0504 95.6871L64.0434 95.5961L64.2344 95.3381L64.7554 94.8381L64.6684 94.6281L64.4634 94.2141L64.4363 94.0131L64.3474 93.9221L64.0984 93.9961L63.5804 94.3721L63.5093 94.3311L63.5223 94.201L63.4684 93.8221L63.6324 93.7081L63.8843 93.5691L64.0784 93.4141L64.1234 93.2891L64.0704 93.2501L63.7844 93.2991L63.6714 93.2141L63.4844 92.8651L63.3474 92.7281L63.2234 92.6541L62.8014 92.8341L62.3113 93.0811L61.7654 93.425L61.7684 93.6011L61.7034 93.6461L61.5994 93.757L61.4974 93.9101L61.4103 93.9641L61.3083 93.9691L61.1003 93.9261L60.7234 93.7521L60.3144 93.6081L60.2264 93.6241L59.6703 93.5221L59.6523 93.4401L59.5684 93.2791L59.4103 93.1331L59.2593 93.0841L58.8243 93.3921L58.3334 93.6211L58.0544 93.8921L57.8243 94.1611L57.5604 94.2131L57.5483 94.3791L57.4374 94.5281L57.2374 94.7121L56.8404 94.9461L56.5714 95.0721L55.7173 95.1871L55.4124 95.2651L55.2844 95.3881L55.1473 95.7001L55.0394 95.9871L54.8033 96.2241L54.3734 96.5401L53.8683 96.7961L53.7294 96.9661L53.7043 97.067L53.7674 97.1041L53.8293 97.1811V97.2971L53.7643 97.4231L53.4344 97.6431L53.2484 97.748L53.0634 97.8151L52.8564 97.8271L52.6573 97.7971L52.6024 97.761L52.5234 97.8071L52.3414 97.8531L52.1833 97.8681L51.8364 98.1121L51.6454 98.1141L51.4073 98.0611L51.0934 98.0191H50.8664L50.8594 97.8901L50.8943 97.5031L50.7914 97.4131L50.4774 97.3181L50.1234 97.192L49.9534 97.0581L49.8583 97.0131L49.7253 97.0351L49.5124 97.1761L49.3104 97.3421L49.1504 97.356L48.9864 97.2791L48.8304 97.1771L48.2944 97.0341L48.0544 97.0131L47.6254 97.037L47.2754 97.007L47.2203 96.9631L47.2214 96.8831L47.2734 96.7281L47.3033 96.5751L47.2624 96.4881L46.9054 96.3811L46.5793 96.304L46.2324 96.2751L45.9994 96.3291L45.7714 96.4491L45.5834 96.6651L45.3113 96.7591L44.9864 96.9201L44.8293 97.0701L44.5914 97.3921L44.2454 97.787L43.9314 98.1721L43.7684 98.5461L43.5524 98.7811L43.3334 98.9501L43.1754 99.4151L43.0104 99.2681L42.8214 99.0571L42.7764 98.7681L43.0004 98.0001L43.0533 97.6801L42.9963 97.5581L42.9264 97.2431L42.7934 97.1391L42.4134 96.9741L42.2924 96.9691L42.1624 97.0831L42.0353 97.1551L41.8664 97.2271L41.4424 97.3621L41.0663 97.425L40.9764 97.4751L40.9484 97.5651L40.9784 97.6721L40.7364 97.6311L40.4833 97.6081L40.2794 97.623L39.7804 97.8271L39.6114 97.847L39.4233 97.826L39.1674 97.8201L38.6804 97.826L38.2614 97.774L37.9203 97.4891L37.6794 97.3631L37.4224 97.2661L37.1634 97.1931L37.0774 97.0401L36.9954 96.9631L36.7823 96.938L36.6133 96.994L36.5084 97.3791L36.4184 97.455L36.2043 97.4891L35.9794 97.3911L35.6684 97.1931L35.5464 96.9731L35.4424 96.9021L35.2784 96.9991L35.2693 97.2811L35.2374 97.4701L35.0424 97.5471L34.9294 97.4911L34.8384 97.2971L34.6094 96.8361L34.3824 96.5661L34.1534 96.386L33.4023 96.3911L32.8453 96.3381L32.5934 96.2641L32.4984 96.0861L32.5904 95.7301L32.6984 95.4521L32.6954 95.3871L32.6034 95.3541L32.4434 95.3321L31.8423 95.5101L31.6783 95.4891L31.5743 95.4281L31.4474 95.3761L31.3423 95.2931L31.2693 95.1721L30.7494 94.8751L30.5964 94.7121L30.3193 94.5081L30.0854 94.369L29.9374 93.9711L29.8024 93.5881L29.7284 93.3841L29.5054 93.2761L29.2643 93.1941L28.8564 93.3611L28.5214 93.4881L28.2754 93.5011L27.9203 93.1081L27.6354 92.6831L27.2983 92.3121L27.0743 92.1251L26.6774 92.1071L26.2303 91.8981L25.6304 91.4221L25.1974 91.067L24.4514 90.6721L24.2773 90.5061L24.2114 90.3651L24.1094 90.0871L23.9534 89.8231L23.4244 89.7081L22.8264 89.6261L22.1954 89.7881L21.7414 90.5781L21.5223 90.7501L21.3344 90.7601L21.1804 90.5591L21.0533 90.3481L20.9844 90.1141L20.6703 89.9411L20.3154 89.7151L20.1334 89.5391L19.9283 89.429L19.7374 89.382L19.3694 89.2331L18.9524 89.0651L18.7563 89.0421L18.7424 88.9221L18.8014 88.6671L18.7654 88.4221L18.6393 88.3221L18.4493 88.3481L18.0093 88.0001L17.9874 87.9821L17.8624 87.8831L17.6454 87.7411L17.2794 87.7511L17.0024 87.8031L16.7994 87.6581L16.5054 87.4281L16.4524 87.3771L16.3654 87.2931L16.0674 86.8491L15.7154 86.3231L15.5374 86.2461L15.4454 86.2861L15.3414 86.5651L15.2634 86.537L15.1324 86.5561L14.9784 86.6541L14.8304 86.679L14.7354 86.6501L14.6954 86.5811L14.7374 86.2121L14.6473 86.097L14.7274 85.8401L14.8624 85.6181L14.7244 85.4531L14.5544 85.2171L14.5353 85.0031L14.6274 84.7331L14.6724 84.5021L14.6443 84.4171L14.5104 84.2881L13.9994 83.6521L13.9724 83.5851L13.8864 83.373L13.8464 83.0531L13.7804 82.8241L13.7024 82.6481L13.7084 82.5651L13.7674 82.5221L14.0864 82.4791L14.3813 82.4521L14.5754 82.3921L14.6764 82.5201L14.7234 82.7161L14.7744 82.8191L14.9614 83.0051L15.1894 83.1831L15.4103 83.1601L15.6053 83.0841L15.7744 82.7941L15.8934 82.7231L16.0323 82.7101V82.6891L16.0244 82.5021L16.0734 82.041L16.0564 81.856L15.9933 81.6891L16.0044 81.5031L15.9833 81.2331L15.8243 81.0481L15.7203 80.9771L15.7034 80.8771L15.7574 80.692L15.7944 80.4791L15.7394 80.3221L15.7303 80.2981L15.6014 80.2171L15.4504 80.08L15.2704 79.8951L15.1814 79.761L15.0353 79.6131L14.8574 79.3831L14.8243 78.8781L14.8064 78.3461L14.7444 78.0811L14.6454 77.6581L14.6603 77.5161L14.7203 77.4081L15.2224 77.0661L15.3314 76.9331L15.3494 76.8321L15.3293 76.6821L15.2344 76.5151L15.0344 76.3851L14.7484 76.1731L14.4894 75.9521L14.0533 75.817L13.5244 75.6521L13.3973 75.4911L13.2693 75.097L13.0514 74.4951L12.8193 73.8521L12.6404 73.455L12.6313 73.2641L12.7383 72.7761L12.7253 72.6721L12.6313 72.636L12.4524 72.7001L12.3094 72.7771L12.1874 72.7371L12.0743 72.6551L12.0514 72.6271L12.0424 72.6161L11.8304 72.6691L11.4054 72.6991L11.2584 72.6941L11.0524 72.6871L10.6263 72.5751L10.0514 72.4241L9.45837 72.2141L9.14435 72.0471L9.03436 71.9891L8.76538 71.8151L8.57434 71.6651L8.54034 71.2721L8.40137 71.3021L8.07538 71.4441L7.69934 71.5341L7.49139 71.5351L7.40735 71.472L7.28235 71.0571L7.19135 70.9401L7.02234 70.8941L6.83838 70.8211L6.74536 70.7131L6.72437 70.576L6.8064 70.4191L6.90338 70.2981L6.92035 69.5581L6.85736 69.2951L6.80438 69.0741L6.66937 68.7991L6.5434 68.6291L6.35339 68.4711L6.05835 68.3071L5.79535 68.2461L5.47736 68.3661L5.37634 68.3201L5.24335 67.8121L5.15839 67.7081L4.59338 67.4991L4.33734 67.451L4.04236 67.5161L3.87439 67.5721L3.73938 67.4791L3.52838 67.3611L3.32135 67.2801L3.06439 67.2771L2.89838 67.3271L2.85638 67.2981L2.77637 67.205L2.43439 66.9241L2.42236 66.8531L2.94635 66.576L3.25537 66.4711L3.41736 66.3871L3.45135 66.4051L3.53137 66.5331L3.73535 66.6171L3.87939 66.5941L3.95435 66.5301L4.20837 66.3771L4.40637 66.1991L4.5174 66.0531L4.45734 65.8231L4.14539 65.5441L3.94739 65.3951L3.88635 65.2941L3.93738 64.9911L4.00934 64.6901L3.96136 64.5751L3.90234 64.4771L3.87634 64.1481L3.74036 63.7501L3.59235 63.5181L3.55139 63.2041L3.5434 62.9101L3.72235 62.4481L3.65637 62.248L3.46838 62.0701L2.82037 61.748L2.15637 61.5351L1.90338 61.5431L1.74634 61.5301L1.56036 61.718L1.44934 61.9641L1.29437 61.9861L1.01135 61.882L0.822388 61.7241L0.688354 61.3951L0.584351 60.9711L0.525391 60.8381L0.555359 60.7231L0.620361 60.6211L0.801392 60.5251L0.83136 60.4271L0.804382 60.3061L0.658386 60.1531L0.509338 59.9371L0.276367 59.4881L0.32135 59.2401L0.358337 58.8831L0.34436 58.6951L0.580383 58.6461L0.881348 58.5491L1.02136 58.3881L1.11835 58.2241L1.13934 58.1221L1.04834 57.7291L0.928345 57.554L0.916382 57.4181L0.975342 57.3141L1.05438 57.1351L1.20636 56.7671L1.35437 56.5321L1.43536 56.4731L1.61639 56.4181L2.05835 56.3531L2.53339 56.188L3.09735 55.6941L3.28534 55.5531L3.53137 55.4821L3.70734 55.4871L3.73938 55.4271L3.62537 55.1201L3.65338 55.0091L3.72034 54.9221L3.80536 54.882L4.19635 55.0441L4.49536 55.0271L4.85938 54.9311L5.64435 54.3891L5.74237 54.3971L5.82135 54.4701L5.91638 54.7971L6.02435 55.485L6.08435 55.5711L6.63037 55.58L7.00238 55.33L7.16534 55.2711L7.42938 55.3121L7.56934 55.1951L7.71539 55.1131L7.88434 55.4011L8.10236 55.2631L8.33734 55.0441L8.45239 54.817L8.61139 54.5721L8.73535 54.261L8.78534 53.9671L8.84637 53.8291L8.97839 53.6871L9.30334 53.08L9.53735 52.925L9.75934 52.8701L10.3083 52.9751L10.5934 52.9621L11.4294 53.0421L11.8154 52.925L12.0854 52.8091L12.4814 52.8271L12.9504 52.735L13.5754 51.9701L13.5834 51.8071L13.6213 51.6341L13.8474 51.4631L14.1284 51.3061L14.6884 50.9311L15.8274 50.3361L16.2354 50.097L16.4054 50.1031L16.8254 49.9531L17.5613 49.6611L17.7693 49.2971L17.9634 49.2241L18.8234 49.1591L18.8774 49.1171L18.9073 49.0551L18.8594 48.791L18.8033 48.5641L18.8704 48.4971L18.9424 48.3931L18.9314 48.2471L18.7924 47.7731L18.7184 47.3231L18.6694 46.916L18.6783 46.7641L18.7823 46.5011L18.9174 46.2621L19.4044 46.0391L19.7274 45.972L19.7404 45.826L19.4794 45.735L19.2903 45.5891L19.2574 45.5061L19.2664 45.4111L19.3104 45.3241L19.6384 45.1601L19.9474 44.9971L20.3243 45.0961L20.3984 45.0331L20.4203 44.8701L20.3394 44.7061L20.2634 44.4371L20.0894 44.2991L20.0823 44.1341L20.1894 43.8491L20.0414 43.3211L19.8804 42.8541L19.6074 42.0521L19.4264 41.8201L19.3254 41.4491L19.2123 41.2541L19.2224 40.9651L19.2414 40.7621L19.2123 40.3591L19.1594 39.9211L19.2123 39.4761L19.3144 39.1821L19.2874 39.0691L19.3414 38.985L19.4954 38.9571L19.5684 38.8361L19.4954 38.7121L19.2294 38.6161L18.9324 38.4671L18.5754 38.4841L18.2094 38.5101L18.0264 38.4001L17.8664 38.2591L17.8574 38.1691L18.0774 37.9311L18.3834 37.6841L18.8583 37.5751L19.3813 37.412L19.6464 37.2941L19.9994 37.2091L20.4073 37.1731L20.6124 37.1971L21.1374 37.0391L21.9634 36.7331L22.7134 36.4761L22.9654 36.3231L23.1534 36.4761L23.2404 36.813L23.4594 36.9871L23.6764 37.0711L23.8014 37.067L24.1754 36.9361L24.5793 36.8401L24.7383 36.8921L24.9434 37.0641L25.1733 37.218L25.2934 37.2111L25.3984 37.0921L25.5044 36.8521L25.5714 36.5461L25.5854 36.222L25.5453 36.024L25.4644 35.951L25.0964 35.8341L24.7454 35.6431L24.7054 35.468L24.7134 35.343L24.8064 35.037L25.0353 34.4741L25.2654 33.6951L25.3874 33.0781L25.7723 32.1551L26.0754 31.1891L26.5654 29.7931L26.6473 29.5161L26.6924 29.0731L26.7184 28.8901L26.8893 28.7941L27.1774 28.8881L27.8804 29.2081L28.4153 29.4771L28.6393 29.5681L28.9724 29.6631L29.4874 29.7751L29.7853 29.7421L30.0464 29.6761L30.3943 29.6701L30.9374 29.7531L31.1053 29.7561L31.3144 29.7671L31.4623 29.9031L31.5364 30.2101L31.6484 30.3481L31.8514 30.2971L32.2834 30.0261L32.5594 29.813L32.9044 29.5041L33.2463 29.4621L33.6094 29.3931L33.7354 29.2401L33.8694 28.8801L34.0923 28.6081L34.1294 28.2621L34.0514 28.0181L33.8964 27.6201L33.9014 27.3511L33.8264 26.5701L33.7264 25.8651L33.8284 25.2961L34.0084 24.6581L34.0784 24.4621L34.1924 24.205L34.3534 23.8961L34.5793 23.7991L35.2144 23.7331L35.8024 23.6031L36.1024 23.4691L36.4144 23.3881L36.6003 23.2901L36.9203 22.8371L37.0724 22.576L37.1844 21.882L37.1024 21.5481L37.1703 21.2521L37.3254 21.0781L37.5434 20.9031L37.6894 20.873L38.0004 20.8201L38.5104 20.8381L38.7704 20.9231L39.0344 20.9631L39.2014 20.9001L39.3124 20.7671L39.4833 20.7251L39.7404 20.6611L40.0054 20.5811L40.1514 20.5961L40.1814 20.7931L40.1573 20.9471L40.2084 21.1531L40.3134 21.2891L40.2794 21.4361L40.1313 21.5211L39.9854 21.636L39.9534 21.7931L40.1384 21.9881L40.2014 22.175L40.5114 22.287L40.7524 22.4131L40.8423 22.5341L40.8154 22.6701L40.7043 22.8161L40.5974 22.9731L40.5834 23.067L40.6174 23.1771L40.8494 23.2501L41.1183 23.3711L41.5444 23.5271L41.8364 23.817L42.1263 23.8971L42.2664 24.179L42.2914 24.5881L42.5884 24.7961L43.0273 25.0851L43.2504 25.1381L43.3994 25.3021L43.6144 25.5001L43.8054 25.5621L44.0323 25.5911L44.4064 25.4071L44.8264 25.3891L45.0554 25.494L45.2734 25.8901L45.4274 26.0151L45.5184 26.1261L45.6653 26.2321L45.8144 26.248L46.0364 26.1601L46.1714 25.985L46.3654 26.0211L46.4384 26.1351L46.4744 26.33L46.5774 26.5721L46.8234 26.7521L47.1674 26.8591L47.2154 26.9471L47.2634 27.188L47.3564 27.3551L47.4814 27.5731L47.6003 27.9701L47.6254 28.2981L47.6804 28.4781L47.8394 28.7711L48.0934 29.2391L48.2953 29.6351L48.5294 29.7121L48.7284 29.8371L48.8423 30.1291L49.0533 30.6781L49.0873 31.0361L49.1053 31.3031L49.1744 31.4241L49.1894 31.5751L49.0134 32.1481L48.8644 32.4061L48.8453 32.623L48.9464 33.0001L49.0854 33.2921L49.0994 33.5711L48.9814 33.7751L48.7784 34.0301L48.6804 34.1761L48.5223 34.304L48.2804 34.7961L48.1714 35.3391L48.1464 35.6181L48.2383 35.8201L48.3924 36.0421L48.4304 36.2341L48.6833 36.6631L48.7504 36.9281L48.8544 36.9371L48.9654 36.8501L49.2364 36.8441L49.4824 36.938L49.7184 37.1341L49.9714 37.2381L50.3334 37.2121L50.5264 37.317L50.7344 37.4031L51.1653 37.4331L51.4883 37.4321L51.9844 37.4351L52.3854 37.567L53.0904 37.6711L53.5264 37.6631L54.1124 37.5651L54.4714 37.6271L55.5344 37.7731L56.1564 37.9261L56.5504 38.0981L56.8274 38.3701L57.1443 38.7941L57.3964 38.9881L58.0734 39.1051L58.5384 39.5991L58.9014 39.7831L59.5124 40.2601L59.9443 40.4461L60.4614 40.6171L61.3044 40.5441L61.3514 40.6081L61.2864 40.8661L61.2354 41.2191V41.4741L61.3224 41.6041L61.6443 41.6811L61.7964 41.8061L61.9124 42.0461L61.9794 42.1951L62.2504 42.929L62.6844 44.0101L62.7344 44.425L62.8824 44.692L63.3534 45.1151L63.6003 45.4281L63.9684 45.7561L64.0894 46.0591L64.1164 46.4501L64.2094 46.5511L64.8824 46.4611L65.4654 46.3981L66.5114 46.2861L67.9514 46.4901L69.4363 46.6871L70.7494 46.8611L71.3964 46.9461L72.8583 47.1291L73.6714 46.8961L74.3064 46.7141L74.5944 46.7391L75.8083 46.9441L76.5204 47.054L77.4164 47.192L78.0384 47.2431L78.5483 47.2401L78.7834 47.2981L79.0104 47.3871L79.1614 47.5171L79.6274 48.1731L79.8884 48.4621L80.4054 48.6801L81.5793 48.929L82.2294 49.08L82.9753 49.2531L83.4673 49.5141L84.0334 49.817L84.7664 50.2091L85.5693 50.0381L86.4333 49.8531L86.9753 49.7371V50.5551L87.7484 50.6201L87.9904 50.6111L88.3323 50.791L88.5244 50.7151L88.7073 50.5381L88.9363 50.2581L89.2654 50.1351L89.8344 49.8211L89.9734 49.7451L90.8184 49.2981L92.0804 48.7461L92.6464 48.4781L92.8154 48.4181L93.1354 48.2811L93.3514 48.1861L93.7333 48.11L94.2513 48.0621L94.8174 47.9581L96.0974 47.7621L96.2584 47.744L96.9774 47.6631L97.2834 47.5871L97.7404 47.6271L98.3373 47.6551L98.7333 47.705L99.2584 47.666L99.9803 47.6131L100.564 47.6211L100.854 47.5551L101.282 47.3481L101.569 47.1841L102.02 46.985L102.58 46.7781L102.97 46.5901L103.228 46.4651L103.541 46.347L103.623 46.1951L103.713 46.0781L103.879 45.8831L104.178 45.5191L104.406 45.2001L104.518 45.0581L104.774 44.7391L104.981 44.498L105.245 44.1731L105.467 44.0681L105.749 43.9791L106.49 43.6601L106.637 43.5911L106.76 43.5771L107.022 43.3191L107.244 43.0951L107.389 42.9281L107.69 42.8671L107.844 42.7461L107.871 42.5881L107.84 42.3461L107.695 42.0981L107.573 41.8811L107.143 41.4671L106.915 41.2101L106.683 40.8791L106.588 40.5681L106.429 40.3701L106.353 40.1941L106.377 39.9911L106.598 39.6291L106.668 39.4001L106.76 38.9951L106.967 38.3881L107.136 38.1031L107.331 37.8251L107.744 37.451L108.122 37.382L108.347 37.4561H108.85L109.185 37.4761L109.432 37.6631L109.705 38.0321L110.014 38.1671L110.976 38.4561L111.387 38.5171L111.681 38.5301L112.116 38.6251L112.262 38.6461L112.485 38.7111L112.669 38.6411L112.948 38.3941L113.299 38.1171L113.45 38.0531L113.729 37.9331L113.869 37.8201L114.114 37.5081L114.432 37.2661L114.82 36.9021L115.011 36.6281L115.053 36.451L115.095 36.2591L115.215 36.1581L115.451 36.0651L115.717 36.0401L116.223 36.205L116.907 36.1581L117.06 36.1341L117.683 36.0391L117.964 35.9611L118.36 35.886L118.664 35.58L119.071 35.2151L119.367 35.0121L119.564 34.9731L119.81 34.7621L119.931 34.5351L119.899 34.3351L119.853 34.1701L119.998 33.8631L120.26 33.3251L120.504 33.0741L120.706 32.8711L120.835 32.5441L120.994 32.4501L121.189 32.4141L121.464 32.192L121.666 32.1471L122.002 32.2531L122.499 32.2801L122.816 32.291L122.997 32.2511L123.063 32.132L123.061 31.9481L123.162 31.5381L123.2 31.4031L123.291 31.3401L123.597 31.3321L123.803 31.4791L123.945 31.6011L124.142 31.6171L124.345 31.537L124.616 31.205L125.068 31.0121L125.308 30.9631L125.734 30.8061L126.003 30.8631L126.497 30.9091L126.688 30.869L126.896 30.9091L127.085 30.6841L127.235 30.6301L127.553 30.7341L127.753 30.9081L128.127 31.1261L128.604 31.2281L129.003 31.1761L129.413 31.2681L129.655 31.2601L129.77 31.1741L130.106 30.9911L130.186 30.7431L130.153 30.5041L130.192 30.2331L130.093 30.0331L129.885 29.7371L129.804 29.5391L129.797 29.2801L129.667 29.0331L129.355 28.735L129.15 28.597L128.728 28.0811L128.585 27.9601L128.536 27.8751L128.487 27.7021L128.331 27.619L128.126 27.4841L128.016 27.3461L127.944 27.106L127.901 26.9491L127.72 26.8191L127.539 26.7461L127.335 26.6541L126.997 26.5191L126.802 26.2501L126.458 25.7451L126.263 25.5751L125.537 25.5101L125.276 25.3871L124.981 25.429L124.805 25.5101L124.415 25.5091L124.213 25.5591L123.956 25.8921L123.615 26.3241L123.334 26.5871L123.134 26.86L123.041 26.9581L122.859 26.899L122.609 26.5921L122.252 26.317L121.921 26.192L121.779 26.123L121.384 26.0531L121.079 26.0751L120.69 26.179L120.31 26.1601L120.139 26.0941L119.897 26.1011L119.459 26.3871L119.232 26.7121L118.963 26.8141L118.72 26.6011L118.44 26.3491L118.172 26.0331L118.007 25.7401L117.915 24.9621L118.236 24.7301L118.646 24.4691L118.677 24.0561L118.662 23.5951L118.743 23.0811L119.117 22.606L119.318 22.2121L119.343 21.9661L119.523 21.5571L119.695 21.1251L119.93 20.5571L120.375 19.5451L120.901 18.343L121.164 17.7411L121.741 18.1141L122.113 18.3081L122.742 18.6021L123.391 18.6681L124.012 18.9861L124.332 19.0821H124.503L125.382 18.3081L126.125 17.6511L126.979 17.1371L127.607 17.067L128.079 16.9171L128.393 16.6861L128.58 16.3L128.637 15.7581L128.511 15.429L128.203 15.3151L128.124 15.2001L128.272 15.0831L128.382 14.856L128.451 14.5181L128.629 14.1961L128.914 13.8921L129.072 13.554L129.101 13.1821L129.273 12.8101L129.586 12.4391L129.758 12.093L129.787 11.7731L129.946 11.3811L130.378 10.6861L130.658 9.88306L131.136 9.33105L131.904 8.76306L132.383 8.19806L132.574 7.63605L132.559 7.13806L132.337 6.70605L132.294 6.26605L132.432 5.81705L132.311 5.48105L131.932 5.25806L131.48 5.20306L130.955 5.31607L130.66 5.17505L130.595 4.78107L130.736 4.46207L131.083 4.21805L131.653 3.62305L132.447 2.67307L133.237 2.14606L134.415 1.99405L135.365 1.68106L136.333 1.36307L137.032 1.20505L137.151 1.31107L137.532 1.33707L138.175 1.28305L138.772 1.14606L139.324 0.925049L139.761 0.873047L140.082 0.990051L140.271 1.00406Z" fill="#CCCCCC" stroke="white" stroke-width="0.5"/>
</svg>
