<svg width="36" height="48" viewBox="0 0 36 48" fill="none" xmlns="http://www.w3.org/2000/svg">
<path d="M22.5418 2.36096L22.4409 2.39597L22.3159 2.47098L21.9348 2.61197L21.4199 2.74597L20.7498 2.91797L20.5978 3.10196L19.9348 4.25497L19.3799 4.48798L19.1779 4.65997L19.0258 4.87796L18.6949 5.27896L18.5569 5.58698L18.1918 6.25598L17.9919 7.09396L17.9158 7.56396L17.8058 8.24496L17.6439 8.58698L17.4279 8.90796L17.1949 9.22098L16.9948 9.56497L16.8249 9.83398L16.7968 9.92596L16.8799 9.99997L17.2828 9.92596L17.4418 9.84497L17.6618 9.74097L17.7998 9.79697L17.9378 10.093L18.0938 10.13L18.2408 10.093L18.3969 10.167L18.5959 10.903L18.7649 11.526L19.1569 11.915L19.4629 12.218L19.5368 12.486L19.6098 12.864L19.6288 13.049L19.5328 13.16L19.3809 13.39L19.3428 13.829L19.3168 13.975L19.2888 14.382L19.3088 14.632L19.3908 14.827L19.5269 14.939L19.8029 14.997L20.0518 15.065L20.1949 15.403L20.3979 15.833L20.6158 16.014L20.9359 16.133L21.1649 16.09L21.6989 16.014L22.1578 16.033L22.8298 16.148L23.0798 16.144L23.4029 16.122L23.9718 15.889L24.1788 15.854L24.4088 15.875L24.7448 15.994L24.9268 16.088L25.1599 16.185L25.4998 16.254L25.7188 16.242L25.8849 16.238L25.9808 16.282L26.5158 16.949L26.9799 17.527L27.3839 18.012L27.8209 18.535L27.8549 18.566L28.0518 18.499L28.1819 18.528L28.3018 18.634L28.5089 18.59L28.8029 18.396L29.2308 18.357L29.7939 18.473H30.5368L31.4589 18.358L32.0319 18.233L32.2559 18.098L32.6259 18.112L33.0728 18.233L33.3138 18.405L33.3428 18.574L33.4329 18.839L33.3358 19.107L33.0518 19.378L32.8939 19.725L32.8629 20.147L32.7159 20.459L32.4529 20.661L32.3499 20.955L32.4078 21.341L32.3799 21.905L32.2649 22.647V23.09L32.3799 23.235L32.4329 23.443L32.4239 23.714L32.4669 23.954L32.6098 24.266L32.8088 24.887L32.9749 25.154L33.1198 25.252L33.2668 25.372L33.6909 26.007L33.7939 26.141L33.7628 26.258L33.7228 26.345L33.6739 26.401L33.2218 26.779L32.3239 27.601L32.2498 27.705L32.2559 27.877L32.5158 27.766L32.7949 27.859L32.9308 27.877L32.9929 27.945L33.0739 28.167L33.1668 28.204L33.3029 28.296L33.5688 28.53L33.7918 28.776L33.9589 28.894L34.0768 29.004L34.1139 29.164L34.0648 29.324L34.2048 29.695L34.2998 29.81L34.3499 29.951L34.2998 30.093L34.4178 30.259L34.5458 30.586L34.7018 30.985L34.7209 31.207L34.7859 31.309L34.8629 31.605L34.9938 31.883L34.9629 32.073L35.0179 32.26L34.4868 32.385L34.4388 32.365L34.4069 32.296L34.4218 31.765L34.4168 31.165L34.3348 30.919L34.0919 30.525L33.7698 30.003L33.6819 29.853L33.5458 29.767L33.3849 29.755L33.2668 29.792L33.1089 29.889L32.9598 29.995L32.6718 30.31L32.3818 30.678L32.2119 30.761L32.0418 30.795L31.8918 30.784L31.7708 30.685L31.6469 30.484L31.4978 30.217L31.3199 30.13L31.2509 30.212L31.1918 30.369L31.1458 30.525L31.2658 30.723L31.3688 30.876L31.1918 30.871H30.6198H29.9598H29.3008H28.7089H28.1609L27.9518 30.858L27.7389 30.768L27.5349 30.726L27.4268 30.733L27.2339 30.82L26.9828 30.833L26.8138 30.916L26.6779 30.906L26.6758 31.366L26.6718 32.021L26.6678 32.716L26.8199 32.663L26.9508 32.668L27.0468 32.717L27.3168 32.677L27.4659 32.698L27.6078 32.716L27.7389 32.718L27.8199 32.773L27.9279 32.763L28.0439 32.702L28.1829 32.74L28.3318 32.838L28.4279 32.984L28.5139 33.165L28.5999 33.261L28.5948 33.434L28.5919 33.57L28.5619 33.683L28.5999 33.756L28.6278 33.834L28.6198 33.879L28.5699 33.9L28.4608 33.915L28.3448 33.928L28.2639 33.923L28.2008 33.853L28.1399 33.845L28.0518 33.855L27.9579 33.813L27.8769 33.725L27.7328 33.637L27.5789 33.675L27.4728 33.72L27.3639 33.775L27.2649 33.833L27.1658 33.818L27.0399 33.86L26.9338 33.925L26.7918 33.978L26.6378 34.003L26.4608 34.028L26.2918 34.038L26.0999 34.059L26.0888 34.425L26.0668 35.144L26.0518 35.62L26.0529 36.059L26.1269 36.219L26.4669 36.557L26.7339 36.735L26.9598 36.934L27.1848 37.017L27.2788 37.092L27.3409 37.215L27.3719 37.344L27.3958 37.454L27.3719 37.571L27.3159 37.682L27.3398 37.799L27.4208 37.891L27.4459 38.008L27.5019 38.119L27.5328 38.23L27.6009 38.31L27.6869 38.365L27.7979 38.457L27.8098 38.543L27.7979 38.641L27.7968 38.715L27.9029 38.884L27.9338 39.003L27.8849 39.144L27.8369 39.635L27.7148 40.194L27.6358 40.621L27.5089 41.316L27.3608 42.125L27.1798 43.111L27.0009 44.085L26.8289 45.028L26.6729 45.881L26.5009 46.822L26.3969 47.392L26.3468 47.491L26.2029 47.284L25.9848 47.089L25.7809 46.972L25.6938 46.818L25.5768 46.504L25.4128 46.397L25.2979 46.314L25.1869 46.326L25.0688 46.412L24.8868 46.467L24.7639 46.459L24.2689 46.243L24.1878 46.222L24.5059 45.728L25.0749 44.845L25.4369 44.283L25.8379 43.66L26.0428 43.342L26.0699 43.288V43.206L25.9828 43.085L25.7899 43.034L25.5659 42.941L25.4248 42.79L25.2299 42.725L25.0779 42.618L24.8008 42.513L24.6349 42.416L24.4319 42.381L24.2708 42.203L23.6838 41.858L23.5328 41.826L23.3679 41.879L23.1259 41.934L22.8929 42.122L22.6018 42.183L22.3298 42.181L22.1878 42.069L22.0518 42.028L21.8738 41.875L21.5598 41.757L21.3318 41.675L21.1909 41.713L21.0099 41.884L20.8268 42.054L20.6819 42.16L20.4868 42.154L20.2538 42.31L20.0248 42.366L19.7939 42.39L19.5279 42.445L19.2328 42.351L18.9908 42.268L18.8828 42.23L18.7849 42.256L18.6328 42.343L18.3608 42.38L18.1479 42.389L17.9969 42.348L17.8608 42.197L17.6408 42.12L17.3988 42.026L17.3478 41.831L17.3828 41.685L17.4768 41.475L17.4248 41.258L17.3228 40.916L17.2798 40.776L17.2039 40.657L17.0848 40.614L16.8518 40.646L16.5968 40.517L16.4398 40.393L16.3589 40.242L16.4449 39.957L16.3688 39.714L16.2169 39.58L16.1188 39.343L15.9669 39.155L15.7668 39.058L15.5659 39.069L15.4088 39.01L15.2299 38.81L15.0619 38.735L14.8719 38.541L14.5179 38.455L14.3339 38.379L14.2289 38.259L14.0869 38.045L14.1028 37.927L14.0338 37.81L13.9728 37.601L13.8518 37.292L13.7188 37.116L13.5818 36.984L13.4659 36.872L13.2939 36.705L13.0829 36.608L12.9038 36.506L12.8339 36.355L12.7738 36.231L12.6729 36.24L12.5288 36.229L12.3708 36.197L12.2039 36.107L12.0638 35.998L11.8289 35.813L11.7008 35.789H11.5869L11.4189 35.97L10.9158 35.78L10.4848 35.498L10.0378 35.425L9.74884 35.253L9.48184 34.983L9.33786 34.8L9.22086 34.71L8.65186 34.448L8.53885 34.423L8.32184 34.545L8.25186 34.618L8.23886 34.827L8.21286 34.946L8.02383 35.018L7.71884 35.002L7.50784 34.926L7.36584 34.915L7.33685 34.975L7.25684 35L7.08386 34.983L6.82886 34.925L6.59784 34.848L6.28485 34.684L6.13986 34.705L5.78384 34.67L5.49286 34.576L5.41885 34.49L5.29285 33.9L5.25385 33.859L5.12885 33.834L4.91785 33.752L4.78485 33.657L4.71585 33.493L4.63284 33.338L4.27786 33.373L3.69586 33.168L3.29285 32.973L2.92384 32.757L2.36385 32.331L2.15085 32.226L1.88684 32.096L1.73085 31.886L1.47385 31.674L1.38785 31.616L1.30685 31.425L0.922852 31.147L1.11285 30.789L1.57484 30.519L2.18085 30.728L2.25485 30.31L2.03584 29.94L2.06885 29.241L2.13985 29.101L2.29985 28.914L2.50784 28.784L2.62985 28.747L2.83784 28.811L2.96884 28.671L3.46286 28.734L3.61285 28.675L3.71585 28.58L3.83685 28.508L3.99084 28.34L4.07983 28.146L4.15384 28.07L4.32486 28.097L4.34085 28.013L4.42883 27.899L4.72784 27.644L4.72485 27.531L4.64084 27.285L4.66183 27.195L4.83484 27.164L5.03986 27.095L5.14883 26.86L5.28384 26.655L5.43784 26.353L5.60785 26.334L5.69785 25.981L5.92685 25.672L6.39285 24.756L6.25186 24.776L6.13986 24.899L6.01285 24.884L5.86786 24.812L5.90985 24.399L5.82684 24.35L5.60184 24.668L5.40784 24.344L5.38986 24.147L5.47183 23.952L5.45984 23.821L5.14584 23.919L5.16086 23.797L5.35583 23.672L5.44485 23.542L5.61484 23.4L5.68585 23.186L5.72684 22.853L5.80383 22.496L5.74686 22.32L5.65485 22.17L5.57785 21.504L5.59885 21.116L5.55884 20.811L5.47885 20.553L5.10583 20.214L5.69485 19.826L5.90585 19.533L5.63785 18.93L5.28784 18.421L5.27786 18.116L5.36984 18.155L5.48785 18.146L5.59485 17.502L5.56985 17.303L5.37283 16.981L5.12885 16.973L4.91486 16.568L4.79184 16.477L4.69284 16.222L4.34784 15.725L4.07486 15.466L4.27985 14.866L4.45886 14.751L4.51685 14.602L4.44684 14.233L4.46686 14.147L4.50885 14.11L4.55084 14.112L4.62283 14.168L4.75684 14.327L4.86884 14.524L4.95886 14.584L5.09485 14.519L5.62085 14.126L5.58685 14.004L5.63486 13.758L5.81085 13.557L5.99884 13.488L6.05484 13.376L6.00986 13.203L5.81186 12.772L5.63583 12.54L5.52286 12.309L5.46286 12.096L5.26285 11.895L5.34683 11.705L5.50186 11.483L5.55484 11.444L5.63885 11.505L5.87085 11.908L6.23984 12.17L6.62686 12.593L6.78586 12.885L6.91183 12.938L7.02084 13.043L6.97284 13.122L6.85184 13.205L6.81683 13.374L6.89584 13.469L6.97885 13.53L7.20483 13.491L7.32886 13.293L7.24585 12.424L7.11584 11.989L6.96484 11.854L6.82983 11.682L6.92084 11.552L7.16183 11.493L7.47784 11.341L8.63583 10.51L9.03284 9.72897L9.33685 9.44598L9.67984 9.26196L10.0999 9.30496L10.4258 9.20697L10.5269 8.95798L10.4378 8.62097L10.3128 8.41696L10.4329 8.12198L10.5579 7.67297L10.5489 7.29596L10.7098 7.07098L10.6538 6.98297L10.4189 7.16498L10.2328 7.24698L10.3379 7.09695L10.6668 6.72498L10.8379 6.15796L10.9688 5.92197L11.4329 5.59198L11.5248 5.43298L11.8759 5.18497L12.4409 4.65298L12.6569 4.50497L13.7519 4.84796L14.0999 4.82596L14.0378 4.88898L13.8769 4.90997L13.6448 5.00296L13.5779 5.20798L13.7348 5.42197L13.9019 5.48398L14.0439 5.34598L14.1848 4.95297L14.4118 4.51797L14.4648 4.06198L14.6259 3.90497L14.8608 3.84796L15.2809 3.93796L15.5999 4.03198L15.9329 4.04398L16.9539 3.97498L18.6139 2.78998L19.3849 2.53497L19.8679 2.28497L20.1758 1.79797L20.2589 1.43198L20.4858 1.28998H20.7238L20.8329 1.20096L20.8669 1.08798L21.4409 0.770966L21.7698 0.72998L22.0609 0.735962L22.7108 1.01196L23.0118 1.49997L23.0619 1.83597L22.6498 2.20096L22.5418 2.36096ZM3.47485 28.583L3.39883 28.645L3.25385 28.535L3.20483 28.395L3.29385 28.291L3.40784 28.325L3.45984 28.41L3.47485 28.583Z" fill="#CCCCCC" stroke="white" stroke-width="0.5"/>
</svg>
