<svg width="11" height="10" viewBox="0 0 11 10" fill="none" xmlns="http://www.w3.org/2000/svg">
<path d="M6.9586 1.04791L7.02861 1.16092L7.1096 1.33792L7.1456 1.56592L7.50261 2.32892L7.7876 2.75491L8.41161 3.53091L8.6806 3.67392L9.1356 4.29691L9.2926 4.3999L9.3826 4.58392L9.8546 4.73489L9.9856 4.84689L9.9696 4.8989L9.92061 4.95392L9.85161 5.00891L9.7596 5.04691L9.5376 4.93292L9.3186 4.80389L9.19861 4.86292L9.15361 5.03091L9.0726 5.11691L8.9716 5.15091L8.9296 5.20691L8.92061 5.77292L8.9286 6.30591L9.0936 6.3179L9.3696 6.5029L9.48761 6.61191L9.5246 6.71292L9.4906 6.7619L9.2886 6.8779L9.0916 7.0249L8.99361 7.20792L9.1656 7.50491L9.20261 7.7059L9.19661 7.9169L9.14861 8.01791L8.76761 8.25891L8.6846 8.3439L8.69461 8.40491L8.90561 8.5719L9.00461 8.73291L9.0876 8.92691L9.09961 9.09592L8.9086 8.7829L8.64461 8.48392L8.4146 8.2999L8.39661 7.87091L8.3046 7.63791L7.9586 7.42291L7.6626 7.27191L7.4426 7.30292L7.57761 7.5499L7.92461 7.86691L7.9476 7.98792L7.9426 8.15091L7.7036 8.12592L7.49161 8.05991L7.2346 8.03891L7.0636 7.94189L6.70061 7.5629L6.9586 7.24091L7.0386 7.0289L7.0316 6.5889L6.97261 6.37592L6.6926 6.05191L6.2476 5.69492L5.6236 5.4039L5.3306 5.16891L4.59961 4.98892L4.32161 4.8699L4.1046 4.6489L4.0726 4.4899L4.1496 4.2449L3.9476 3.9339L3.07761 3.32092L2.59061 3.09592L2.4866 2.96292L2.40961 2.92191L2.4836 3.34491L2.69661 3.59991L3.2516 3.83691L3.4046 3.97592L3.4666 4.15591L3.14461 4.49991L2.9796 4.58691L2.93161 4.7749L2.8266 4.83191L2.71561 4.72391L2.26561 4.1839L1.39461 3.9249L1.2366 3.7659L0.912598 3.27191L0.763611 2.8219L0.816605 2.5209L1.17461 2.05191L1.28661 1.8479L1.26361 1.72189L1.2746 1.5369L1.1416 1.4079L0.810608 1.23892L0.599609 1.10391L0.657608 1.0369L1.03661 0.854919L1.06061 0.690918L1.05861 0.636902L1.12061 0.624908L1.1756 0.581909L1.20961 0.535919L1.31261 0.377899L1.40361 0.28891L1.50861 0.274902L1.6356 0.339905L2.1136 0.510895L2.6456 0.699921L3.4026 0.967896L3.7166 0.795898L3.9866 0.664917L4.17461 0.683899L4.5816 0.836914L4.8266 0.885895L4.97661 0.869904L5.2366 1.09491L5.3786 1.26392L5.4026 1.37592L5.4816 1.43692L5.6846 1.44992L6.1806 1.5639L6.4836 1.5419L6.7596 1.4209L6.91161 1.27591L6.9586 1.04791Z" fill="#CCCCCC" stroke="white" stroke-width="0.5"/>
</svg>
