<svg width="31" height="12" viewBox="0 0 31 12" fill="none" xmlns="http://www.w3.org/2000/svg">
<path d="M9.02406 1.24081L9.75906 1.38181L10.3531 1.34183L10.6371 1.25882L10.6111 1.34381L10.8721 1.55283L10.9671 1.5668L11.3511 1.46082L12.3541 1.42081L12.4571 1.47983L12.6341 1.68381L12.8901 1.80981L13.1551 1.90582L13.4321 1.93082L13.7081 1.88782L13.9671 1.90881L14.2911 2.10681L14.3931 2.12982L14.6831 2.07581L14.5981 2.25781L15.0861 2.51181L15.4441 3.01181L15.7041 3.21683L15.9791 3.40082L16.2111 3.52582L16.4711 3.58582L17.2601 3.56183L17.4471 3.57681L17.6141 3.64783L17.7731 3.67581L17.8651 3.6488L19.3891 4.4248L19.8741 4.83881L20.1701 5.0538L20.8111 5.36383L21.0681 5.43182L21.2031 5.39081L21.1771 5.32281L20.9891 5.15082L20.9611 5.08783L21.2021 5.14081L21.6371 5.49081L21.757 5.61981L21.9741 5.73981L22.1931 5.82581L22.0891 5.96381L21.9111 5.97583L21.5701 5.91882L21.8411 6.14383L21.8871 6.30682L22.0131 6.32083L22.201 6.14182L22.3201 5.99081L22.7991 6.38083L23.0571 6.55881L22.9911 6.66281L22.9701 6.76581L23.2581 6.66983L23.3671 6.68082L23.472 6.73581L23.5871 6.90283L23.856 6.93982L24.1271 6.93582L24.6771 7.07382L25.1981 7.35483L25.688 7.4118L26.1821 7.42181L26.4321 7.56982L26.5381 7.76981L26.4181 7.91083L26.3501 8.05783L26.5341 8.23883L26.1331 8.31583L26.076 8.4248L26.097 8.54181L26.1771 8.6058L26.4061 8.5498L26.7381 8.59982L27.261 8.64383L27.6111 8.60782L28.3231 8.7308L28.5391 8.79681L28.9611 9.02783L29.1561 9.17981L29.5751 9.58981L29.9361 9.75082L30.2491 9.78983L30.3581 9.76282L30.4571 9.80783L30.5441 9.86481L30.6301 10.0438L30.5821 10.2318L30.4031 10.3848L30.304 10.4958L29.8571 10.5088L29.2321 10.5598L28.6281 10.7258L28.3331 10.8578L28.1981 10.9448L27.8801 11.0258L27.8591 10.9568L27.8651 10.8698L27.7821 10.7088L27.7101 10.8538L27.5921 10.9598L27.3931 11.0498L26.6591 11.0558L26.3641 10.9338L26.0611 10.8508L24.9571 10.7638L24.692 10.7708L23.955 10.8618L23.2141 10.9108L22.9041 10.9668L22.597 11.0508L22.0001 11.0478L21.2951 11.1438L20.5881 11.1618L21.041 10.4888L21.9961 9.83981L22.1761 9.69983L22.304 9.52081L22.3341 9.3858L22.2921 9.27081L22.0641 9.0668L22.0181 8.9158L21.9501 8.81781L21.619 8.73282L21.2841 8.68182L20.9311 8.68082L20.1901 8.61081L19.7961 8.6058L19.4621 8.46683L18.9081 7.97281L18.6491 7.83383L18.5161 7.72281L18.4121 7.59482L18.2821 6.86682L18.1721 6.51682L18.0041 6.21182L17.7481 5.9808L17.4801 5.90182L16.4521 6.09982L16.2131 6.06982L15.9801 6.00281L14.4281 5.52982L13.7881 5.26981L13.5271 5.14081L13.3041 4.95682L13.0731 4.65482L12.8141 4.38483L12.8151 4.4938L12.7751 4.56482L11.4761 4.5968L11.2691 4.53482L11.1361 4.46082L11.0421 4.35181L10.9721 4.13281L10.8481 3.94882L10.8081 4.14481L10.7441 4.32581L10.5701 4.42682L10.3711 4.44382L10.1301 4.20383L9.07706 4.15381L8.98405 4.11282L8.63806 3.87982L8.34306 3.58783L8.63606 3.4848L9.24207 3.34982L9.37306 3.25983L9.44907 3.14383L9.39406 2.9718L9.27306 2.8468L9.14906 2.7738L9.01205 2.72781L8.83105 2.70782L6.48807 2.67682L6.35306 2.77081L6.14307 2.96182L5.72707 3.20682L5.45306 3.46082L5.35007 3.59183L5.22206 3.68582L4.93407 3.8428L4.68806 4.08481L4.39006 4.19281L4.22707 4.12683L4.06606 4.12781L3.94907 4.18781L3.82607 4.21481L3.22507 4.2438L3.13506 4.30582L3.04906 4.47882L2.95107 4.81583L2.85905 4.92682L2.55806 4.96881L2.27106 5.06082L1.68706 5.38083L1.53606 5.42783L1.56906 5.19281L1.54005 4.96381L1.37506 4.95581L1.18706 4.9938L1.03006 5.05783L0.740067 5.22882L0.593063 5.27182L0.456055 5.18481L0.484055 5.07281L1.45107 4.66083L1.55907 4.62982L1.73106 4.66083L1.89906 4.64682L2.03006 4.53082L1.87106 3.9848L1.93207 3.61282L2.15607 3.32483L2.60406 2.88782L2.82007 2.7438L5.02907 1.83081L5.25507 1.78381L6.69106 1.59982L6.91006 1.53583L7.57607 1.26483L8.27505 1.15381L9.02406 1.24081ZM16.0061 2.75183L16.0111 2.83182L15.5201 2.6098L15.3091 2.37881L15.2241 2.32581L15.3621 2.32083L15.9151 2.69983L16.0061 2.75183ZM18.0251 3.08981L18.4101 3.15381L18.5441 3.11481L18.6721 3.10382L18.8071 3.13083L18.9961 3.38181L18.8301 3.41281H18.6981L18.6011 3.36783L18.2551 3.35681L18.0271 3.28381L17.9021 3.22083L17.8411 3.14481L18.0251 3.08981ZM19.7171 3.89581L19.6601 3.94583L19.5081 3.83383L19.2881 3.78482L19.1591 3.6098L19.0351 3.54282L19.0251 3.47882L19.2291 3.43683L19.3711 3.45581L19.5291 3.58881L19.6201 3.83481L19.7171 3.89581ZM20.132 4.37183L20.0401 4.37982L19.761 4.25482L19.6781 4.14981L19.7761 4.00882L19.7971 3.8558L19.8351 3.84583L19.8801 4.03183L20.093 4.11081L20.106 4.15182L20.2371 4.30881L20.132 4.37183ZM20.7231 4.89981L20.6081 4.99182L20.4821 4.85883L20.4021 4.84482L20.291 4.79181L20.076 4.64383L20.024 4.49081L20.2031 4.47882L20.429 4.50583L20.8241 4.5928L20.7891 4.76581L20.7231 4.89981ZM6.99106 6.04181L6.73006 6.20081L6.17307 6.4248L5.87405 6.43283L5.57207 6.34882L5.36406 6.1618L5.24506 5.97681L5.25507 5.88782L5.44406 6.03583L5.60706 6.10883L5.74106 6.05981L5.83606 5.97983L5.53006 5.38181L5.54407 5.25583L5.78706 4.92682L6.44806 5.02682L6.56306 5.08481L6.65506 5.29282L6.80206 5.45581L6.97507 5.89182L6.99106 6.04181Z" fill="#CCCCCC" stroke="white" stroke-width="0.5"/>
</svg>
