<svg width="20" height="12" viewBox="0 0 20 12" fill="none" xmlns="http://www.w3.org/2000/svg">
<path d="M8.26193 1.20416L8.50394 1.19315L8.74893 1.08215L8.76889 0.901154L8.7529 0.563141L8.7789 0.51416L9.14993 0.610138L9.52188 0.762146L9.57388 1.09814L9.67392 1.26315L9.7919 1.41415L9.9039 1.48215L10.0989 1.49316L10.6039 1.69214L10.8469 1.73215L11.0959 1.87015L11.3059 2.01016L11.4589 2.04016L11.5299 2.19315L11.6239 2.29816L11.7899 2.21716L12.3959 2.10416L12.6139 2.25516L12.7609 2.41516L12.7809 2.46515L12.7039 2.60614L12.6669 2.71515L12.6039 2.78815L12.3959 2.86514L12.2789 2.98917L12.1929 3.12515L12.2509 3.25516L12.4209 3.35315L12.5409 3.37515L12.5869 3.47015L12.9719 3.89417L13.2779 4.44714L13.3969 4.53314L13.5089 4.55414L13.6389 4.47314L13.7889 4.29315L13.9659 4.16415L14.1159 4.09714L14.3809 3.94415L14.3919 3.84515L14.1699 3.47015L14.0429 3.16614L14.0729 3.11115L14.3559 3.15915L14.8359 3.32516L15.5749 3.86615H15.7079L15.9659 3.82516L16.2469 3.73715L16.3809 3.63715L16.4309 3.67416L16.4739 3.97116L16.3999 4.13416L16.0639 4.29214L16.0829 4.37015L16.1699 4.47116L16.3209 4.53915L16.5049 4.73114L16.6319 4.95016L16.7429 5.05115L16.8649 5.09915L17.1709 4.98215L17.2569 4.89017L17.2959 4.82516L17.3549 4.83914L17.4619 4.94714L17.4949 5.01016L17.7919 5.13214L17.9639 5.28217L18.0729 5.35214L18.1939 5.28415L18.6649 5.40317L18.7949 5.50314L18.8359 5.66916L18.8129 5.77014L18.8849 6.03015L19.4809 6.65317L19.5429 6.97116L19.5519 7.09814L19.4809 7.10416L19.3199 7.17017L19.1139 7.19415L18.8909 7.18115L18.7169 7.29614L18.5529 7.48416L18.3829 7.61417L18.2919 7.72916L18.2399 7.84915L17.6679 8.18716L17.5879 8.32816L17.5249 8.52014L17.4979 8.77817L17.4579 9.01016L17.3589 9.13214L17.0499 9.23715L16.9729 9.29315L16.9149 9.41116L16.7419 9.59216L16.5389 9.76416L16.1649 9.96115L15.7639 10.0211L15.2429 9.95715L14.9379 9.88016L14.7909 9.96515L14.5869 10.2212L14.3689 10.6612L14.2779 10.9922L14.2079 10.8982L14.0829 10.5482L13.9419 10.5031L13.7489 10.4702L13.6039 10.4182L13.2899 10.2162L13.1289 10.1552L12.9439 10.1392L12.7679 10.2581L12.6339 10.3982L12.2189 10.3961L11.7639 10.3311L11.1129 9.86514L10.9439 9.86115L10.7639 9.88214L10.4789 9.77115L9.92789 9.46915L9.66891 9.39816L9.50589 9.44116L9.3569 9.50916L9.24991 9.51715L9.18893 9.41815L8.98392 9.29715L8.77792 9.28314L8.7189 9.35614L8.6489 10.0211L8.57993 10.2611L8.29691 10.2502L8.19589 10.3622L7.97391 10.6832L7.93094 10.9901L7.54489 10.9312L7.36191 10.8792L7.19992 10.9182L7.02188 11.0882L6.52292 11.0782L6.1279 10.9771L5.95889 10.5962L5.77792 10.4442L5.5499 10.3102L5.47092 10.2791L5.34488 10.0712L5.10593 9.81314L4.72092 9.45917L4.42093 9.47714L4.30991 9.38315L4.26089 9.25314L4.13589 9.02817L3.99393 8.87216L3.82291 8.81116L3.57791 8.61115L3.24991 8.17514L2.94992 7.87314L2.65991 7.87814L2.4769 7.72015L2.28891 7.51215L2.15091 7.31116L1.93692 6.82117L1.78091 6.54114L1.65991 6.36816L1.52292 6.22415L1.4729 6.10916L1.6409 5.84714L1.7019 5.71716L1.7739 5.61716L1.81592 5.51114L1.8139 5.43216L1.6619 5.17215L1.4559 4.98416L1.15292 4.79416L0.9599 4.55316L0.889923 4.33316L0.868896 4.21115L0.735901 4.04715L0.628906 3.80615V3.66116L0.655914 3.62015H0.75592L0.86792 3.71915L1.02591 3.90915L1.15591 4.18716L1.23489 4.08115L1.38391 3.78516L1.64792 3.45016L1.91791 3.25815L2.16092 3.24216L2.35989 3.18915L2.5249 3.09314L2.8139 3.13214L3.02292 3.20114L3.09091 3.15814L3.17593 2.98315L3.22989 2.83215L3.69193 2.74414L3.85092 2.45215L3.93991 2.45316L4.04294 2.41016L4.1409 2.29916L4.23489 2.25314L4.30991 2.30914L4.40793 2.34515L4.50992 2.27515L4.6619 1.93915L4.74588 1.88715L5.15189 1.83514L5.7059 1.63715L5.98593 1.46115L6.26089 1.36514L6.55692 1.19415L7.02591 1.02817L7.04788 0.960144L6.8309 0.789154L6.7579 0.681152L6.70792 0.57016L6.78488 0.447144L6.88791 0.410156L7.0209 0.461151L7.41391 0.534149L7.52188 0.605164L7.56088 0.778168L7.66092 0.939148L7.74094 0.957153L7.71188 1.21915L7.83688 1.32117L8.0209 1.40015L8.14194 1.38416L8.22891 1.27817L8.26193 1.20416Z" fill="#CCCCCC" stroke="white" stroke-width="0.5"/>
</svg>
