<svg width="28" height="36" viewBox="0 0 28 36" fill="none" xmlns="http://www.w3.org/2000/svg">
<path d="M8.01468 1.99002L7.94968 2.08603L7.98065 1.39902L8.28766 0.665039L8.41766 0.682037L8.28467 0.881042L8.24567 1.02002L8.19165 1.29703L8.21567 1.44104L8.91666 1.48102L8.83466 1.60904L8.12366 1.69504L8.01468 1.99002ZM12.0337 1.80304L12.0507 1.89203L12.4617 2.02103L12.6347 2.22702L12.8267 2.53903L12.8457 2.98703L12.5997 3.30902L12.3957 3.51303L13.1667 3.43604L13.2437 3.62003L13.3607 3.81903L13.7757 3.67703L14.8177 4.26404L15.4477 3.97803L15.6087 3.96103L15.7517 4.43503L15.5947 4.91104L15.0397 5.41702L15.1627 5.72903L15.3407 5.79803L15.8637 5.73203L16.6927 6.03903L16.8657 5.94302L17.5377 5.23404L17.8067 5.08102L18.6907 4.97202L18.8517 4.69604L19.2097 4.41904L19.4397 4.11603L19.9927 3.53702L20.5647 3.64102L20.8987 3.75204L21.2647 3.80804L21.5977 4.42502L22.4417 5.10403L23.2166 5.04504L23.4917 5.68604L23.6137 6.47403L23.8517 6.72104L24.0606 6.88202L24.6917 7.05002L24.7166 7.06003L24.7376 7.16602L24.7766 7.55603L24.8297 7.87802L25.1547 9.16003L25.1487 9.47202L25.1447 9.55502L25.0257 9.99203L24.8147 10.359L24.5357 10.566L24.3817 10.796L24.3537 11.049L24.7047 11.492L25.4356 12.125L25.7307 12.665L25.5916 13.113L25.5497 13.441L25.6037 13.649L25.7207 13.816L25.9007 13.942L25.9727 14.136L25.9356 14.398L25.9696 14.58L26.1046 14.709L26.0916 14.759L26.0266 14.941L25.9377 15.272L25.8867 15.514L25.6807 15.842L25.7437 16.121L25.9047 16.449L26.0277 16.614L26.0667 16.77L25.9887 17.14L26.0277 17.235L26.5367 17.507L26.6197 17.632L26.6687 17.893L26.8477 18.45L26.6997 19.154L26.5697 19.539L26.2797 20.148L26.2657 20.204L26.2326 20.278L26.1457 20.384L26.0247 20.4L25.8416 20.321L25.7166 20.219L25.7456 19.957L25.6646 19.939L25.5647 19.778L25.5257 19.605L25.4177 19.534L25.0247 19.461L24.8907 19.41L24.7877 19.447L24.7107 19.57L24.7597 19.681L24.8327 19.789L25.0507 19.96L25.0287 20.028L24.5587 20.195L24.2636 20.365L23.9887 20.461L23.7086 20.637L23.1557 20.835L22.7497 20.887L22.6657 20.939L22.5147 21.274L22.4127 21.344L22.3137 21.308L22.2397 21.253L22.1457 21.298L22.0476 21.409L21.9447 21.452L21.8557 21.451L21.6967 21.743L21.2346 21.831L21.1807 21.982L21.0957 22.157L21.0277 22.2L20.8197 22.131L20.5307 22.092L20.3647 22.188L20.1656 22.241L19.9227 22.257L19.6517 22.448L19.3877 22.783L19.2397 23.079L19.1597 23.185L19.0307 22.907L18.8727 22.717L18.7607 22.618H18.6607L18.6347 22.659V22.804L18.7417 23.045L18.8737 23.21L18.8947 23.332L18.9657 23.552L19.1587 23.793L19.4607 23.983L19.6667 24.171L19.8197 24.431L19.8207 24.511L19.7787 24.617L19.7067 24.717L19.6457 24.847L19.4777 25.109L19.5277 25.224L19.6647 25.368L19.7857 25.541L19.9417 25.821L20.1557 26.311L20.2937 26.512L20.4817 26.72L20.6656 26.878L20.9557 26.873L21.2556 27.175L21.5836 27.611L21.8286 27.81L21.9997 27.871L22.1417 28.028L22.2667 28.253L22.3156 28.383L22.4267 28.477L22.7267 28.459L23.1126 28.813L23.3507 29.071L23.4767 29.279L23.4436 29.362L23.4276 29.621L23.4317 29.895L23.3936 30.04L23.2216 30.231L23.1327 30.272L23.0847 30.313L22.5557 30.064L22.5136 30.106L22.4807 30.137L22.3387 30.856L22.2417 30.994L22.0957 31.121L21.7937 31.245L21.5836 31.295L21.4196 31.358L20.9007 31.658L20.6677 31.838L20.5167 32.064L20.5157 32.194L20.7677 32.575L21.0587 32.969L21.0597 33.314L20.9317 33.572L20.9017 33.671L20.9877 33.709L21.1487 33.723L21.2837 33.767L21.3407 33.949L21.3236 34.264L21.2777 34.559L21.2296 34.683L21.0996 34.693L20.8497 34.566L20.6547 34.418L20.5797 34.327L20.5757 34.218L20.6177 34.149L20.5487 34.015L20.3087 33.89L20.0517 33.944L19.8627 34.027L19.7397 34.022L19.6077 33.902L19.4037 33.81L19.1377 33.749L18.9716 33.685L18.9367 33.723L18.9557 33.982L18.9047 34.095L17.5887 34.245L17.1877 34.385L16.8957 34.566L16.6797 34.644L16.6267 34.755L16.4127 34.901L16.1717 34.947L16.1127 34.9L15.9577 34.967L15.6937 35.032L15.5227 35.011L15.4417 34.893L15.2787 34.712L15.2127 34.587L15.2197 34.506L14.8507 34.49L14.6187 34.394L14.1247 34.416L14.0027 34.375L13.9777 34.418L13.9037 34.932L13.8057 35.142L13.6477 35.359L13.4447 35.48L13.2837 35.502L13.2906 35.344L13.3317 35.153L13.2147 35.108L13.0397 35.087L12.9557 35.03L12.9777 34.884L12.9367 34.799L12.8647 34.697L12.6887 34.566L12.3167 34.372L12.0637 34.275L11.9687 34.378L11.7877 34.481L11.5027 34.447L11.4327 34.488L10.9437 34.178L10.4747 33.88H10.3197L9.62866 33.94L9.60867 33.914L9.48767 33.744L9.38165 33.69L9.31766 33.718L9.27466 33.767L9.20065 33.759L8.89066 33.485L8.76367 33.445L8.58768 33.482L8.37967 33.63L8.28867 33.811L8.31665 33.915L8.42368 33.96L8.70667 33.93L8.74765 33.96L8.75766 34.019L8.72665 34.076L8.49765 34.123L8.43167 34.192L8.36465 34.209L8.32166 34.22L8.07767 34.148H7.71466L7.42166 34.275L6.95367 34.326L6.31067 34.301L6.07965 34.206L5.93866 34.149L5.83667 33.869L5.86267 33.454L6.01566 32.903L6.05865 32.498L5.99066 32.24L6.08167 31.852L6.33167 31.334L6.49866 30.787L6.58167 30.209L6.70267 29.832L6.94067 29.567L7.50568 28.825L7.55167 28.769L7.53568 28.398L7.38367 28.345L7.16068 28.238L6.59366 28.106L6.06567 28.021L5.82565 27.916L5.61566 27.635L5.48566 27.631L5.23065 27.732L4.91266 27.8L4.68066 27.741L4.53568 27.752L4.45465 27.804L4.41367 27.758L4.35565 27.517L4.23465 27.454L4.04666 27.398L3.92966 27.422L3.84866 27.542L3.72366 27.626L3.60965 27.599L3.25067 27.041L3.15866 26.917L3.13565 26.803L3.04565 26.595L2.83167 26.387L2.61865 26.321L2.51266 26.344L2.52466 26.086L2.60767 25.711L2.68765 25.515L2.79367 25.355L2.90668 25.243L2.93167 25.041L2.91367 24.85L2.78366 24.82L2.45767 24.679L2.26468 24.53L2.12167 24.343L1.93365 24.086L1.85367 23.824L1.84967 23.563L1.87167 23.446L1.88565 23.365L2.03665 22.957L2.56866 22.591L2.50967 22.222L2.50168 21.995L2.37265 21.847L2.11465 21.787L2.04666 21.684L2.01767 21.583L2.20667 21.356L1.97766 21.177L1.87366 21L1.55566 20.766L1.52167 20.685L1.67465 20L1.55768 19.8L1.41266 19.698L1.24365 19.648L1.16565 19.553L1.13867 19.444L1.16867 19.377L1.36768 19.397L1.42966 19.326L1.90366 18.922L1.92368 18.844L1.85767 18.8L1.77167 18.777L1.74966 18.692L1.75266 18.58L2.00568 17.995L2.08066 17.745L2.09766 17.568L2.08167 17.393L1.93567 17.118L1.79468 16.898L1.78967 16.723L1.68668 16.631L1.39465 16.16V15.978L1.55966 15.836L1.79065 15.746L1.86768 15.671L2.00568 15.624L2.37265 15.76L2.53665 15.878L2.58267 15.854L2.73065 15.726L2.99066 15.746L3.61966 15.488L3.71365 15.364L3.78366 15.232L3.78967 15.174L3.54565 14.919L3.53867 14.825L3.57068 14.719L3.63968 14.635L3.78366 14.578L3.93668 14.466L4.27966 14.148L4.39865 13.872L4.43567 13.572L4.44266 13.348L4.34866 13.17L4.25366 13.055L4.12466 13.073L3.87366 13.064L3.63867 12.964L3.50967 12.802L3.47766 12.66L3.53665 12.57L3.55466 12.46L3.51666 12.349L3.53168 12.256L3.63766 12.181L4.38068 12.183L4.43668 12.101L4.48666 11.669L4.67267 11.01L4.84766 10.642L4.87668 10.487L4.87366 9.61203L4.89767 9.16702L4.77066 8.95804L4.49365 8.72903L4.55267 8.25104L4.64465 7.87704L4.92368 7.41702L5.14465 7.29102L6.10965 7.21603L7.17566 7.24704L7.61865 7.94202L7.45465 8.29803L7.71365 8.46402L7.83865 8.40305L7.93365 8.09302L7.99667 7.74902L8.08768 7.64502L8.41766 7.90204L8.53366 8.07803L8.54065 8.64203L8.66266 7.87704L8.57166 7.34003L8.63367 6.81802L8.76666 6.54602L8.88867 6.37302L9.67065 6.56003L10.5347 6.46402L10.8617 6.66602L11.6007 7.67303L11.8477 7.83804L12.1587 7.89005L11.7297 7.67502L10.8337 6.44904L10.5657 6.29703L10.1537 6.25104L9.89667 6.13104L9.73465 5.94504L9.68765 5.77805L9.69666 4.53302L9.54266 4.34702L9.34265 4.28302L9.21765 4.36804L8.96167 4.36902L8.90765 4.08603L8.97067 3.87604L9.48465 3.73203L9.82367 3.53903L9.83865 3.19803L9.62466 2.92902L9.36865 2.43503L9.06766 1.97003L9.03366 1.42804H9.03467L9.55865 1.43802L9.68668 1.45905L10.4807 1.71304L10.6747 1.89102L10.9187 1.89902L11.3587 1.73303L11.6877 1.66003L11.8147 1.76303L11.9937 1.80603H12.0337V1.80304ZM8.80066 2.35104L8.69165 2.47003L8.42368 2.45602L8.27365 2.34402L8.32266 2.22504L8.46466 2.13403L8.58267 2.12003L8.76065 2.17603L8.80066 2.35104ZM23.1737 3.94302L23.2437 4.26602L23.1687 4.43103L22.8537 4.15704L22.5367 4.16104L22.3477 4.58203L22.2066 4.60004L21.7177 4.21704L21.6386 4.03003L21.6227 3.87402L21.6927 3.33405L21.6797 3.16403L21.8336 2.97803L21.8576 2.70804L22.1287 2.42404L22.3706 2.41302L22.4467 2.65402L22.5627 2.82004L22.9687 3.00604L23.0297 3.09003L23.0667 3.20703L22.8777 3.43503L22.8137 3.55203L22.8737 3.73904L23.1737 3.94302ZM16.3647 3.77402L15.9337 3.78302L15.7687 3.59103L15.6037 3.54202L15.6927 3.30502L15.8087 3.21802L16.2257 3.37302L16.3567 3.67603L16.3647 3.77402ZM24.5827 6.01102L24.5457 6.16003L24.5887 6.38904L24.4727 6.37204L24.1247 6.42603L23.7807 6.35004L23.7147 6.06503L23.7697 5.79102L23.6317 5.60202L23.5047 5.49103L23.4857 5.33304L23.5067 5.16803L24.0996 5.61002L24.5827 6.01102Z" fill="#CCCCCC" stroke="white" stroke-width="0.5"/>
</svg>
