<svg width="21" height="18" viewBox="0 0 21 18" fill="none" xmlns="http://www.w3.org/2000/svg">
<path d="M5.03421 15.8029H4.99222L4.8132 15.7599L4.68622 15.6569L4.35721 15.7299L3.91721 15.8959L3.67322 15.8879L3.47922 15.7099L2.68521 15.4559L2.55722 15.4349L2.0332 15.4249H2.03223L2.0072 15.0229L1.9422 14.7319L1.75821 14.2979L2.03021 14.1929L1.9772 13.3429L1.8782 12.9019L1.1192 12.4469L0.52121 12.0039L0.65921 10.5039L0.718201 10.0979L0.491211 9.30789L0.515228 8.39389L0.611206 6.94589L0.801208 6.88889L0.941223 6.89587L1.47922 7.15689L1.70322 7.18289L1.85721 7.41586L2.0372 7.51187L2.16721 7.26489L2.2182 6.84189L2.64423 6.29288L2.94321 6.08987L3.14722 5.99289L3.35321 6.21487L3.51022 6.46387L3.54721 5.91888L3.67422 4.87589L3.26923 4.71188L2.9382 4.85388L2.61121 5.51587L2.31921 6.34488L1.84521 6.42087L1.46722 6.65488L1.12622 6.41187L0.906219 6.19788L0.901215 5.88489L0.951202 5.69589L1.3522 5.01788L1.89023 4.36487L2.43222 4.37088L2.82721 4.16187L3.0632 4.13687L3.8002 4.18188L4.17822 4.03787L4.51721 3.73788L5.24921 2.46088L5.6622 1.92587L6.49521 1.73788L7.26523 1.11789L7.48022 1.10986L7.11823 1.57187L7.06021 1.75089L7.0162 2.02386L7.27521 2.61588L7.22021 2.97589L7.23923 3.68188L6.9942 4.04889L6.7182 4.82687L6.59921 4.94089L6.57321 5.84488L6.60022 6.05988L6.56021 6.87787L6.8432 7.21188L7.14221 7.38586L8.14023 7.37988L8.2442 7.52588L8.36621 7.77689L8.27722 8.20288L8.17023 8.52386L7.88123 8.79388L7.51022 8.99487L7.27921 9.00388L6.96521 8.62189L6.81622 8.74588L6.6622 8.94089L6.40323 9.98288L6.28021 10.6839L6.2142 10.7409L6.06821 10.6369L5.81622 10.6289L5.49722 10.7949L5.66122 10.9429L5.83423 11.1999L5.76523 11.3289L5.48422 11.4679L5.2352 11.7489L5.13123 11.9609L4.81821 12.2119L4.62021 12.5299L4.71722 12.9229L4.75821 13.2679L4.84421 13.6479L4.7662 13.9509L4.37723 14.3849L4.23422 14.7599L4.5672 14.7549L4.77222 14.8409L4.89221 14.9519L5.0162 15.1089L4.94022 15.3029L5.03421 15.8029ZM8.71722 3.62988L8.60321 3.75089L8.21722 3.57986L8.38721 3.33987L8.81122 3.22888L9.06021 3.26587L8.78622 3.50388L8.71722 3.62988ZM12.9742 11.0819L12.9812 11.5799L12.9082 11.7249L12.8012 11.8209L12.5212 11.9219L12.2782 12.0629L12.0612 12.3099L11.9812 12.6629L12.1502 12.9209L12.4582 13.0619L12.5372 13.5519L12.2832 13.7929L11.6312 14.0329L11.5632 14.6119L11.5842 15.0669L11.5722 15.3969L11.5202 15.8529L10.9932 16.0599L10.6522 15.3659L10.6492 15.0869L10.5472 14.7609L10.5282 14.4829L10.4072 14.0379L9.9082 13.9169L9.7142 13.9009L9.44321 13.9839L9.37622 13.9519L9.05121 13.3419L9.10522 12.6659L8.93222 12.3239L8.9082 12.1689L8.9122 11.9969L8.76923 11.8549L8.5972 11.7799L8.51321 11.3969L8.71121 11.3039L9.20221 11.3489L9.34622 11.3229L9.4772 11.2429L9.87421 10.6109L9.86221 10.4709L9.90421 10.2899L10.3332 10.2229L10.5242 10.4679L10.4852 10.8599L10.5092 11.3599L10.7692 11.4959L10.8702 11.5159L10.9792 11.1469L11.0552 10.9669L11.1582 10.8659L11.1932 10.5279L11.1322 10.3209L11.0022 10.1659L11.4882 9.74588L11.9912 9.41187L12.2842 9.39389L12.5782 9.47589L12.8522 9.58789L13.0002 9.68488L13.0832 9.84088L12.8992 10.2119L12.8482 10.4139L12.9742 11.0819ZM7.46921 11.0919L7.4212 11.1809L7.24323 11.0879L7.22421 10.7659L7.2912 10.4759L7.21222 10.2159L7.29922 10.0489L7.54922 10.4379L7.62021 10.6209L7.52322 10.8389L7.46921 11.0919ZM13.2462 12.0179L12.9822 12.2289L12.9242 12.2179L12.8382 11.9289L12.9782 11.7529L13.0602 11.6039L13.1192 11.6079L13.1992 11.7699L13.2462 12.0179ZM7.57523 11.9529L7.6922 12.2109L7.83621 12.7609L8.06421 13.3749L7.96921 13.6309L8.03421 13.9589L7.96921 14.2999L7.5162 14.6959L7.00821 14.7139L6.48022 14.5229L5.73422 14.1539L5.67422 13.9469L5.57022 13.8319L5.37021 13.2009L5.37421 12.4199L5.74921 12.3209L6.56821 11.9469L6.7572 12.0059L6.9552 12.1969L7.18323 12.2079L7.51321 11.9369L7.57523 11.9529ZM20.0432 14.8459L19.9392 14.9289L19.4752 14.7919L18.9102 14.4529L18.9932 13.7869L19.1382 13.4979L20.1692 14.2449L20.1822 14.5259L20.0432 14.8459ZM7.82523 16.1659L7.70023 16.1929L7.53122 15.7999L7.50922 15.6759L7.70822 15.4239L7.83621 15.1379L8.16922 14.6979L8.3602 14.1809L8.43323 14.1889L8.34821 14.6499L7.91122 15.9289L7.82523 16.1659ZM5.93622 15.5069L5.64423 15.5739L5.49521 15.4559L5.22122 15.4109L5.1232 14.6599L5.15121 14.6149L5.28922 14.6679L5.76221 15.0189L5.92722 15.4019L5.93622 15.5069ZM12.9192 15.1199L12.8122 15.1929L12.3812 15.1399L11.8952 15.4779L11.7112 15.3709L11.7812 15.1549L11.8322 15.0759L11.9952 14.9839L12.1042 14.8499L12.1472 14.6399L12.2482 14.7529L12.5492 14.7999L12.6962 14.8669L12.8192 14.9659L12.9192 15.1199ZM7.12421 15.6949L6.93622 15.7459L6.72122 15.6399L6.37021 15.2409L6.3262 15.1349L6.51022 15.2019L6.73923 15.4109L6.92621 15.4559L7.18222 15.6319L7.12421 15.6949ZM9.58521 15.4809L10.0822 15.7829L10.4182 15.7649L10.6472 15.8899L10.7022 16.0829L10.7222 16.5109L10.4822 16.6359L10.2172 16.5939L9.8562 16.7569L8.67221 16.0579L8.68921 15.4729L8.73621 15.2429L9.29721 15.1879L9.58521 15.4809Z" fill="#CCCCCC" stroke="white" stroke-width="0.5"/>
</svg>
