<svg width="12" height="8" viewBox="0 0 12 8" fill="none" xmlns="http://www.w3.org/2000/svg">
<path d="M1.28284 6.51978L1.29486 6.0358L1.36984 5.83878L1.30084 5.63177L0.989838 5.41177L0.799835 5.12778L0.630859 4.8768L0.668854 4.84079L1.00684 4.82977L1.12585 4.73679L1.35284 4.4798L1.39786 4.2728L1.37985 4.11578L1.23184 3.92877L1.17386 3.73077L1.35583 3.55878L1.59485 3.30679L1.62784 3.20978L1.62283 3.1138L1.34384 2.84879L1.32486 2.7338L1.45483 2.4458L1.44183 2.25479L1.31284 1.65778L1.25186 1.56879L1.37585 1.5188L1.45786 1.34079L1.56586 1.18179L1.70984 1.09677L1.87384 1.04279L2.19885 1.04779L2.64883 1.18579L2.77686 1.18378L3.20886 1.0578L3.56683 0.987793L3.90485 1.06778L4.04184 1.17578L4.31985 1.34677L4.45984 1.3978L4.89984 1.39478L5.02084 1.41177L5.38986 1.69379L5.70084 1.80679L5.88184 1.8118L6.20584 1.70279L6.36685 1.70578L6.55084 1.94879L6.58685 2.29379L6.74084 2.60779L6.97684 2.80878L8.13986 2.72479L8.39883 2.8898L8.31085 3.02579L8.14584 3.09879L7.59283 3.06677L7.35184 3.08279L7.30286 3.21878L7.30185 3.34479L7.62485 3.37479L7.94183 3.43777L8.26584 3.53979L8.59384 3.6088L8.96384 3.65378L9.32886 3.72678L9.93686 3.97379L10.6078 4.53378L10.7878 4.66177L10.9069 4.83679L10.8499 5.05377L10.6098 5.40778L10.4738 5.52078L10.2758 5.59079L10.1399 5.73477L10.0089 5.98178L9.92883 6.00278L9.83484 5.9928L9.67386 5.85278L9.55884 5.63779L9.23386 5.43579L8.84885 5.46179L8.28085 5.34277L7.93784 5.39978L7.59384 5.41379L7.24286 5.35278L6.88885 5.33179L6.53586 5.40778L6.19385 5.53677L6.06784 5.61978L5.84784 5.8208L5.73083 5.89578L4.89786 5.9968L4.65884 5.84879L4.43585 5.64679L4.11584 5.61978L3.65085 5.77579L3.36084 5.83279L3.24286 5.89877L3.20786 5.9758L3.20685 6.25778L3.14185 6.42877L2.68884 7.0748L2.43384 7.53079L2.32886 7.67078L2.20685 7.70178L1.98386 7.43979L1.84186 7.34579L1.66583 7.29779L1.59085 7.15878L1.59384 6.96078L1.54785 6.7688L1.43884 6.6178L1.28284 6.51978Z" fill="#CCCCCC" stroke="white" stroke-width="0.5"/>
</svg>
