<svg width="59" height="59" viewBox="0 0 59 59" fill="none" xmlns="http://www.w3.org/2000/svg">
<path d="M48.7701 1.62405L48.8291 1.81006L48.8391 1.98407L48.5731 2.14606L48.3981 2.24005L48.1881 2.68707L47.7991 2.99005L47.7341 3.08206L47.7371 3.16507L48.0011 3.30206L48.0891 3.43207L48.1301 3.60605L48.0121 4.22806L47.9381 4.70407L47.8411 5.32706L47.8451 5.56406L47.9451 5.84805L48.0441 6.06906L48.0751 6.31906L48.0401 6.93405L48.1611 7.28906L48.2581 7.61606L48.0271 8.02307L47.9281 8.38205L47.8661 8.89505L47.8411 9.21805L47.6921 9.51605L47.4981 9.79507L47.2791 9.96906L47.0091 10.119L46.6981 10.3161L46.4461 10.843L45.9011 11.2811L45.7871 11.4311L45.7361 11.7811L45.7491 12.2661L45.8451 12.6511L46.1061 13.2191L46.3351 13.843L46.3971 14.1561L46.4851 14.2751L46.8071 14.4791L47.3641 14.7551L47.4671 14.8681L47.7431 15.2961L48.0051 16.0621L48.0871 16.5681L48.5971 16.9701L49.0681 17.3401L49.5201 17.6651L50.0111 18.0171L50.0821 18.1251L50.2451 18.8701L50.4081 19.6081L50.5861 20.4191L50.7661 21.231L50.9781 22.1841L51.0981 22.7231L51.2431 23.3761L51.4141 24.1401L51.1391 24.3021L50.8291 24.5091L51.0551 24.9011L51.4911 25.5381L51.7541 26.0511L51.8461 26.274L52.0511 26.9091L52.2181 27.5231L52.2611 27.722L52.3221 28.1941L52.2471 29.4901L52.3671 31.1291L52.5291 31.9431L52.2741 32.6761L52.0561 33.3751L52.0701 33.7261L52.1901 34.2731L52.3081 34.6771L52.4681 34.8891L52.4371 35.5681L52.3701 35.8141L51.8801 36.1691L51.3371 36.494L51.1871 36.7691L51.1441 37.0751L51.2161 37.3241L51.5891 37.8741L52.1501 38.6971L52.7671 39.6011L52.8181 39.8281L52.8431 40.468L53.1001 41.2711L53.3781 41.6211L53.4821 41.882L53.6791 42.0691L53.8751 42.2061L53.9971 42.222L54.6901 42.0041L55.8751 42.3641L56.9961 42.7301L57.0781 42.8021L57.3231 43.2651L57.7241 44.0201L58.0211 44.623L58.2871 45.162L56.8341 46.0901L55.3801 47.0161L53.9271 47.9401L52.4741 48.8611L51.0211 49.7811L49.5671 50.6991L48.1141 51.6151L46.6611 52.5281L45.6971 53.1331L45.0841 53.6671L44.3151 54.3341L43.5891 54.9961L43.0181 55.5171L42.2781 56.1891L41.9051 56.5281L41.0801 57.2771L40.8321 57.4101L39.7391 57.6311L38.7361 57.8331L37.8101 58.0201L37.1771 58.1481L36.5641 58.2711L35.6731 58.4451L35.0371 58.5701L34.3511 58.7041L34.2441 58.7271L34.1201 58.7321L34.0271 58.7271L33.8371 58.6531L33.6081 58.4781L33.4551 58.3881L33.4171 58.2501L33.5061 58.0661L33.6171 57.9011L33.6591 57.7711L33.7351 57.6721L33.8331 57.5921L33.8371 57.4791L33.7561 57.2931L33.6851 57.0361L33.6881 56.5691L33.6901 56.4131V56.3571L33.4851 56.1781L33.0981 55.9801L32.7421 55.8641L32.5801 55.8241L32.1871 55.7541L31.6441 55.6291L31.4531 55.5431L31.1011 55.1081L30.9281 54.9971L30.1131 54.9231L29.8421 54.8511L29.6201 54.748L29.4301 54.6081L29.3231 54.369L29.2911 54.1741L29.2201 54.0811L28.3211 53.6091L28.0921 53.4491L27.9711 53.3L27.9671 53.0791L27.9911 52.8081L27.9531 52.567L27.9151 52.4491L27.5041 52.1631L26.5851 51.5211L25.6661 50.8791L24.7471 50.2361L23.8281 49.5921L22.9091 48.9471L21.9901 48.3011L21.0711 47.6541L20.1521 47.0061L19.2331 46.356L18.3131 45.7071L17.3951 45.0551L16.4761 44.4031L15.5571 43.7501L14.6371 43.0951L13.7181 42.4391L12.7991 41.7821L12.0221 41.2271L11.1651 40.6391L10.5281 40.2081L9.89609 39.7781L9.21609 39.317L8.77408 39.0311L8.2471 38.6891L7.71909 38.3461L7.1911 38.0031L6.66309 37.6601L6.1351 37.317L5.60709 36.9731L5.08008 36.6291L4.55209 36.2841L4.02408 35.9391L3.4971 35.5941L2.96909 35.2491L2.4411 34.9031L1.91309 34.5571L1.3851 34.2101L0.857086 33.8631L0.330078 33.5161V32.8741V32.3511V31.5811V30.9111V30.2411V29.7791V29.2971L0.344086 29.0791L0.396088 28.9861L0.681091 28.8291L1.12711 28.4711L1.29208 28.3121L1.50308 28.1511L2.25009 27.666L2.40509 27.5301L3.1311 26.9711L3.30109 26.8891L3.6911 26.8341L3.8541 26.7291L4.07309 26.5051L4.39508 26.2491L4.6041 26.1271L4.65408 26.1051L4.78809 26.0871L5.45911 26.1631L5.74109 26.2201L6.07809 26.2681L6.18311 26.235L6.2731 26.1551L6.40009 25.9761L6.42709 25.7631L6.43509 25.5771L6.45508 25.4961L6.5141 25.4591L6.6611 25.4731L6.85709 25.498L7.25809 25.4901L7.3941 25.4641L7.84909 25.4241L8.4921 25.3031L9.00211 25.1451L9.40808 25.0201L9.84308 24.6911L10.1621 24.3441L10.4931 23.826L10.7561 23.3761L11.2891 23.0951L11.7341 22.9241L11.9891 22.8571L12.5671 22.619L13.0561 22.2591L13.5151 21.9211L13.8661 21.8761L14.3101 21.8201L14.4091 21.757L14.5211 21.6371L14.5271 21.425L14.3931 21.2761L14.2311 21.1981L14.1161 21.1121L14.0021 21.0961L13.9411 20.994L13.9751 20.8061L13.9921 20.632L14.0651 20.4581L14.0451 20.2121L13.9311 19.9661L13.8961 19.7891L13.9041 19.6131L13.9601 19.4761L14.1241 19.3851L14.3151 19.3501L14.5831 19.3941L15.0461 19.3351L16.2311 18.9091L16.3131 18.7781L16.3891 18.4831L16.4741 18.2241L16.5971 18.1371L16.6641 18.1181L17.0591 18.0481L17.6181 17.9501L17.8281 17.9361L18.4381 17.9641L18.8821 17.985L19.6001 18.0191L20.1101 18.0361L20.5541 18.0511L21.1201 18.0711L21.2591 18.011V17.8221L21.1571 17.4701L21.2191 17.2501L21.4371 17.0461L21.7091 16.8181L21.5821 16.5401L21.3651 16.3541L21.0621 16.1301L20.9051 16.0391L20.6301 15.7681L20.4621 15.4591L20.3481 14.8071L20.1391 14.4411L19.9871 13.9891L20.1221 13.1581L19.9201 12.6551L19.8891 12.4371L19.8871 12.1801L19.9491 11.735L19.9091 11.1081L19.6711 10.4601L19.7831 10.2391L19.8351 10.1241L19.8181 10.0251L19.6011 9.81906L19.5091 9.64807L19.5571 9.48807L19.6701 9.25507L19.6601 9.15707L19.3091 8.87305L18.7171 8.41205L18.5511 8.21005L18.4701 7.95706L19.0371 8.02206L19.3301 7.99106L20.0021 7.68707L20.5361 7.27606L20.9511 7.06705L21.3161 6.61606L21.6471 6.33105L22.1251 6.02307L23.5041 5.35806L23.7151 5.35306L24.1691 5.50406L24.5641 5.45706L24.8341 5.22406L25.1251 4.66205L25.5761 4.31906L26.1451 3.97507L26.9191 3.64606L27.4261 3.34305L28.2281 3.08005L30.2411 2.91306L31.2751 2.76407L31.9781 2.79807L32.6881 2.31607L33.0431 2.15707L34.5801 2.12006L35.3051 1.76706H38.0531L38.3891 1.88507L38.7191 2.07507L39.2811 2.53207L39.5611 2.63205L39.9241 2.53705L40.7681 2.10406L41.7201 1.87805L42.2381 1.62006L42.4581 1.24307L42.9041 1.10406L43.1551 1.39407L44.1421 1.68607L44.7481 1.60205L45.0141 1.51407L44.9181 1.08105L45.5591 1.19608L46.0511 1.40506L46.5661 1.82306L46.9001 1.90607L47.5081 1.71805L48.7701 1.62405Z" fill="#CCCCCC" stroke="white" stroke-width="0.5"/>
</svg>
