<svg width="47" height="19" viewBox="0 0 47 19" fill="none" xmlns="http://www.w3.org/2000/svg">
<path d="M46.4147 4.96692L46.2576 5.06689L46.0947 5.07791L45.8776 5.10892L45.5747 5.01291H45.4556L45.4386 5.10989L45.6397 5.22791L45.8346 5.36292L45.9046 5.5679L46.0206 5.81091L46.2996 6.08292L46.4736 6.2189L46.4846 6.31592L46.4296 6.4939L46.4156 6.64191L46.5116 7.32492L46.4476 7.36691L46.3447 7.3699L46.2356 7.36691L46.1456 7.29291L46.0676 7.2489L46.0326 7.35391L45.9516 7.6579L45.7696 8.34192L45.6106 8.94092L45.4107 9.15292L45.1217 9.4899L44.7257 9.9509L44.1517 10.6189L43.7276 10.9289L43.3937 11.1729L43.0026 11.4549L42.4986 11.8189L41.9327 12.0229L41.1446 12.3069L40.5867 12.5079L40.1756 12.6479L39.7476 12.7939L39.1817 12.9869L38.9636 13.1689L38.6007 13.6149L38.4317 13.8299L38.2777 14.0149L38.2457 14.0989L38.2666 14.1529L38.3407 14.2429L38.3476 14.3359L38.2457 14.3939L38.1576 14.4029L38.1186 14.3569L38.0896 14.2549L37.9957 14.1509L37.8866 14.1209L37.8237 14.1459L37.8186 14.2409L37.6756 14.6979L37.6707 14.9199L37.6106 15.0079L37.6147 15.2069L37.4706 15.3919L37.4077 15.5569L37.3636 15.6969L37.2477 15.7939L37.2056 15.9459L37.0986 16.2699L36.9736 16.5239L36.8857 16.7409L36.8696 16.9039L36.9366 17.0189L36.9597 17.1119L36.8996 17.2789L36.8667 17.4039L36.7066 17.4889L36.3746 17.6909L36.2457 17.8299L36.1947 17.9869L36.2276 18.1209L36.2137 18.2319L36.0556 18.2739L35.9996 18.3689L35.8927 18.5399L35.7717 18.5999L35.4617 18.5089L35.2327 18.5079L35.0556 18.4249L34.8636 18.1789L34.7056 17.9719L34.5766 17.7039L34.5367 17.3369L34.3636 17.2289L34.1936 17.1009L33.9897 17.1369L33.7477 17.1609L33.6136 17.0759L33.2827 16.9209L33.0007 16.7449L32.7876 16.6569L32.6246 16.6989L32.5266 16.8049L32.3557 16.9939L32.1026 17.1249L31.9886 17.1189L31.8356 17.0319L31.8076 16.9299L31.9326 16.7679L32.1877 16.4119L31.9046 16.4029L31.8067 16.2919L31.7926 16.1629L31.7466 16.0239L31.8026 15.8569L31.9507 15.7689L32.1736 15.8379L32.3266 15.8429L32.4286 15.6859L32.5307 15.6169L32.6326 15.5659L32.6747 15.4869L32.5667 15.2359L32.5347 15.0989L32.5676 15.0199L32.5627 14.8629L32.5587 14.7469L32.4937 14.6449L32.4886 14.4929L32.4326 14.4099L32.4137 14.3219L32.4097 14.2199L32.3396 14.1689L32.2657 14.1169L32.3266 14.0809L32.7287 13.9399L32.8956 13.7989L33.1026 13.6709L33.2807 13.4739L33.3976 13.2859L33.6747 12.4109L33.9357 11.8589L33.8916 11.5949L33.6756 11.2379L33.6266 10.7119L33.6467 10.5519L33.6196 10.4309L33.4756 10.6489L33.5126 11.4239L33.3857 11.7729L33.2076 11.8569L33.0916 11.7959L33.1577 11.2299L33.0276 11.3329L32.8197 11.7169L32.4787 12.0019L32.4597 12.0969L32.3766 12.2139L32.1136 12.1059L31.9126 11.9889L31.2536 11.3499L30.8206 11.2159L30.5596 10.9929L30.5047 10.8989L30.4736 10.7699L30.7406 10.6359L31.0137 10.4559L31.0406 10.0599L31.0336 9.7489L30.8316 9.21692L30.9267 8.52292L30.8746 8.25092L30.6436 7.67392L30.8147 7.3829L31.4256 7.1709L31.6216 7.0289L31.7587 6.57092L31.8976 6.29691L32.1696 6.40692L32.3826 6.39392L32.0947 6.2919L31.8606 5.87891L31.8217 5.69092L32.2737 5.12692L32.5107 4.97992L32.8017 4.68192L33.0466 4.2319L33.1057 3.52191L33.0047 3.01492L32.9286 2.47791L33.0746 2.3389L33.4467 2.26791L33.7486 2.09491L33.9016 1.93491L34.2607 1.95892L34.6756 1.71091L35.3387 1.58591L36.2626 1.30292L36.4666 1.05292L36.3746 0.60791L36.4606 0.665894L36.7177 0.877899L36.8736 1.08792L37.1376 1.2179L37.3506 1.32291L37.9106 1.7489L38.2796 1.9649L38.6827 2.15991L39.2647 2.3649L39.6196 2.3299L39.7027 2.48489L39.7717 2.6489L39.9046 2.7439L40.1156 2.8259L40.2406 2.85092L40.2796 2.89191L40.4057 3.4819L40.4797 3.5679L40.7706 3.6619L41.1267 3.6969L41.2717 3.6759L41.5846 3.8399L41.8157 3.9169L42.0707 3.97491L42.2436 3.99191L42.3237 3.96692L42.3526 3.90692L42.4946 3.91791L42.7056 3.9939L43.0106 4.00992L43.1997 3.9379L43.2257 3.81891L43.2387 3.60989L43.3086 3.5369L43.5257 3.41492L43.6387 3.43991L44.2077 3.7019L44.3247 3.7919L44.4686 3.97491L44.7356 4.2449L45.0246 4.4169L45.4716 4.4899L45.9027 4.77191L46.4147 4.96692ZM36.2417 1.17792L36.0836 1.19891L36.0107 1.06592L36.2027 0.910919L36.2686 0.88092L36.2417 1.17792ZM1.54465 4.59991L1.71864 4.77991L1.81364 5.2919L2.37665 5.83191L2.44666 6.13391L2.39665 6.2739L2.42265 6.32892L2.69365 6.5419L2.87065 6.7659L2.57365 7.29089L1.94064 7.5119L1.26566 7.50491L1.13264 7.44791L0.951645 7.24692L0.918655 7.06992L1.02264 6.8989L1.37164 6.63892L1.90366 6.40692L1.96965 6.22891L1.75665 6.05591L1.60965 5.71191L1.27365 5.47092L1.10664 4.7359L0.994644 4.69891L0.766647 4.7999L0.654648 4.71091L0.635651 4.66391L0.881653 4.49692L0.932648 4.37692L1.29665 4.31891L1.45265 4.41492L1.54465 4.59991ZM3.50465 5.6019L3.37465 5.68591L2.84564 5.5889L2.68065 5.42691L2.81364 5.2059L2.92564 5.11792L3.24165 5.19992L3.56265 5.4469L3.50465 5.6019ZM1.11365 5.9549L0.83165 6.00391L0.59465 5.9079L0.493652 5.75992L0.472656 5.5369L0.493652 5.46292L1.01665 5.3819L1.18765 5.56891L1.18565 5.8429L1.11365 5.9549ZM4.17564 6.82092L4.02965 6.8259L3.59465 6.55591L3.62364 6.29089L3.79765 6.11292L4.36064 6.02191L4.59665 6.18991L4.57565 6.5069L4.38365 6.73892L4.23164 6.78091L4.17564 6.82092ZM6.74664 7.2099L6.41565 7.32492L6.30165 7.27292L6.23065 7.21591L6.21365 7.14691L6.39665 6.97491L6.57465 6.8819L6.73465 6.6839L7.02765 6.56592L7.11365 6.5929L7.17165 6.63391L7.19365 6.69992L7.09364 6.85989L6.91565 6.97189L6.74664 7.2099ZM3.92564 8.40591L3.81265 8.41092L3.65765 8.29089L3.77664 8.07291L3.90366 8.12592L3.99664 8.1889L4.05165 8.27292L3.92564 8.40591ZM32.8116 12.9619L32.7576 13.0699L32.4906 13.0599L32.4137 13.0249L32.4156 12.9019L32.4787 12.5109L32.5517 12.3469L32.7706 12.1879L32.9536 12.1109L33.1877 12.1249L33.4357 12.2699L33.1436 12.5319L32.9807 12.5719L32.9176 12.6059L32.8116 12.9619Z" fill="#CCCCCC" stroke="white" stroke-width="0.5"/>
</svg>
