<svg width="19" height="13" viewBox="0 0 19 13" fill="none" xmlns="http://www.w3.org/2000/svg">
<path d="M18.3159 1.70512L18.465 1.87613L18.653 2.15211L18.7039 2.31012L18.64 2.40312L18.452 2.48212L18.4089 2.56712L18.3259 2.71013L18.106 2.73611L17.9929 2.84212L17.8579 3.30713L17.5999 4.07513L17.2189 4.65714L16.9139 4.97513L16.778 5.21912L16.6929 5.51111L16.6729 5.80411L16.965 7.40411L16.9619 7.69211L16.8929 7.98712L16.843 8.28613L16.8839 8.54514L17.077 8.98712L17.2819 9.64511L17.3649 10.0641L17.5009 10.2171L17.632 10.3301L17.6589 10.4011L17.655 10.4741L17.5869 10.5571L16.9959 10.7761L16.9189 10.9611L16.8549 11.1681L16.5969 11.4731L16.5179 11.7571L16.4689 12.0821L16.463 12.1981L16.392 12.2121L15.9999 12.1451L15.5679 11.9341L15.379 11.7751L15.1929 11.7771L14.968 11.8811L14.1619 12.1821L13.9639 12.1121L13.504 11.8161L13.2709 11.4931L12.752 10.8491L12.71 10.6951L12.642 10.5721L12.088 10.4121L11.8829 10.1731L11.713 10.1401L11.463 10.0201L10.814 9.50912L10.653 9.46112L10.614 9.54712L10.6249 9.66812L10.5839 9.73813L10.5009 9.73611L10.351 9.54813L10.171 9.38211L9.60992 9.69412L9.40692 9.77713L9.22894 9.79611L8.33997 10.2041L8.06891 10.4241L7.95691 10.4011L7.98291 10.1941L8.35297 9.15714L8.41895 8.33011L8.55396 8.21613L8.59393 8.10114L8.53595 7.83612L8.15192 7.66611L7.99695 7.69113L7.85693 7.97614L7.71191 8.18112L7.37292 8.30612L7.08093 8.09012L6.39795 7.80112L6.22595 7.41513L6.18494 7.02612L5.82391 6.65012L5.67395 6.20511L5.73395 5.89413L6.06195 5.68912L6.15497 5.51111L5.74194 5.53912L5.65796 5.49612L5.63995 5.33612L5.45691 4.78812L5.61896 4.57211L5.68994 4.36212L5.55695 4.18314L5.59192 3.97812L5.69592 3.77112L5.63293 3.29013L6.04297 3.03513L6.44092 2.85512L7.28595 2.76312L7.20294 2.32112L7.54395 2.30112L8.11896 1.76813L8.68896 1.86212L9.51392 1.49612L11.103 1.50113L11.3199 1.28912L11.2819 1.07613L11.2869 0.849121L11.5859 0.912125L12.0859 0.872116L13.9579 1.31912H14.4189L15.056 1.77213L15.4 1.88913H16.413L17.976 2.08913L18.283 1.78313L18.3159 1.70512ZM4.03491 5.29712L3.80493 5.56412L3.66797 5.45813L3.59595 5.33011L3.29895 5.93411L2.96497 6.03711L2.76996 5.91812L2.78796 5.69312L2.59796 5.10013L2.30695 4.92612L1.89795 4.91013L1.60193 4.66513L2.74292 4.49811L2.86096 4.21411L3.09296 3.91611L3.26697 3.88412L3.41492 3.95312L3.44293 4.18411L3.47992 4.27612L3.99695 4.40613L4.19891 4.79413L4.27496 5.25912L4.03491 5.29712ZM5.21295 6.78812L4.97992 6.84412L4.42694 6.46213L4.55493 6.20312L4.71295 6.10114L5.18292 6.26013L5.24896 6.65314L5.21295 6.78812ZM3.17493 6.40714L3.37396 6.53711L3.55792 6.49612L3.74493 6.40512L4.14893 6.49011L5.07092 7.14612L5.15594 7.32114L4.60492 7.40112L4.47992 7.60114L4.34796 7.74112L4.19196 7.78613L3.92596 8.06711L3.56696 8.33612L3.49194 8.49713L2.84094 8.46713L2.48596 8.56912L2.19891 8.86911L2.08093 9.44711L1.87091 9.89713L1.65692 10.0591L1.43396 10.0841L1.38092 9.91611L1.40192 9.74811L1.87091 9.11212L1.96893 8.90512L1.73492 8.81311L1.53894 8.59113L1.11096 8.33112L1.03394 8.12213L1.13593 8.10611L1.22992 8.04611L1.34393 7.87012L1.39691 7.66812L1.05493 7.07611L1.22894 6.98413L1.44696 7.00513L1.66992 7.17712L1.91492 6.97513L2.01892 6.94513L2.18994 7.01712L2.36292 6.62512L2.77393 6.49612L2.97797 6.37512L3.17493 6.40714Z" fill="#CCCCCC" stroke="white" stroke-width="0.5"/>
</svg>
