<svg width="36" height="32" viewBox="0 0 36 32" fill="none" xmlns="http://www.w3.org/2000/svg">
<path d="M27.6763 1.58707L27.7173 1.68607L27.8093 1.96005L28.0423 2.65607L28.2463 3.20007L28.4953 3.95206L28.5733 4.24005L28.6063 4.43906L28.9683 5.26306L29.1833 5.93805L29.3403 6.48605L29.5623 7.28406L29.6583 7.56207L29.5013 7.70706L29.1873 8.22406L28.8523 9.86105L28.3733 11.1341L28.3193 11.929L28.2423 12.2151L28.0143 12.6171L27.7383 13.0101L27.2473 12.8071L26.4473 12.1151L25.9813 11.4571L25.4813 11.0311L25.0093 10.4661L24.8803 10.0591L24.8853 9.79706L24.6793 9.15805L24.5263 8.85507L23.9503 8.17407L23.7853 7.81006L23.6593 7.64905L23.5323 7.41907L23.3233 6.53006L23.0953 5.96405L22.8353 6.12106L22.8813 6.35907L22.6543 6.68805L22.5173 7.06906L22.6223 7.38007L23.0933 7.85306L23.1883 8.06006L23.2983 8.50705L23.2803 9.11407L23.3563 9.31906L23.7093 9.76907L23.8353 10.0361L23.9113 10.2661L24.0283 10.4741L24.3783 10.8641L24.8813 11.606L25.3583 12.106L25.7033 12.347L25.8493 12.5881L25.8823 13.2091L25.8563 13.5051L26.1593 14.0621L26.2713 14.343L26.5633 14.5721L26.6973 14.8331L26.8203 15.2581L27.0053 16.511L27.2593 16.8181L28.0443 18.4571L28.7063 19.4901L29.0263 20.2601L29.5153 21.1941L30.4723 23.2381L31.0413 23.8661L31.2683 24.2191L31.6803 24.4901L32.1263 24.882L31.7013 24.8441L31.5933 24.8671L31.4443 24.9341L31.3733 25.1721L31.3423 25.3661L31.3943 26.3911L31.5113 26.9131L31.8853 27.8981L32.1643 28.1931L32.3003 28.3841L32.4903 28.5231L33.3773 28.8591L33.8963 29.567L35.0623 30.4611L35.1763 30.7081L35.1793 30.7651L34.2583 30.7661H33.3373H32.4163H31.4953H30.5753L29.6533 30.7671H28.7333H27.8123H26.8913H25.9703H25.0493H24.1293L23.2083 30.7681H22.2873H21.3663H20.4453H19.9203L20.0103 30.5001L20.0653 30.3111L20.0033 30.179L19.8243 30.1461L19.7073 30.188L19.4323 30.7491L19.2883 30.7711H18.9613H17.8893H16.8163H15.7443L14.6723 30.7701H13.6003H12.5283H11.4563H10.3843L9.31232 30.7691H8.23932H7.1673H6.09528H5.02332H3.95129L2.8783 30.7681H1.80634V30.0921V29.4141V28.735V28.0561V27.3751V26.6931V26.0101V25.326V24.6401V23.9541V23.2661V22.576V21.886V21.1941V20.5011V19.8071V19.1111V18.4141V17.7161V17.0171V16.3151V15.6131V14.9091V14.2041V13.4971V12.7891V12.0791V11.3681V10.6551V9.94107V9.22507V8.50806L1.78229 8.37405L1.62628 7.88507L1.48529 7.26306L1.3313 6.49707L1.31128 6.24805L1.05328 5.45605L1.0293 5.23105L1.0943 5.07108L1.51831 4.40207L1.6463 4.07605L1.7533 3.68506L1.78931 3.36707L1.66431 2.87906L1.51831 2.44006L1.4693 1.99005L1.4483 1.54706L1.66528 1.24405L1.92529 0.960052L2.02228 0.786072L2.17633 0.590057L2.2843 0.498047L2.4953 0.896057L2.9353 0.96405L4.36932 0.610046L5.95233 0.967072L6.82532 1.10306L8.17133 1.40607L8.9903 1.94608L9.21533 2.01407L9.80432 2.00305L10.1903 2.32205L11.7263 2.47507L12.5463 2.82605L13.0113 3.10605L13.2903 3.19205L13.5373 3.17807L13.8703 3.07306L14.2913 2.87607L14.7483 2.60205L15.6973 1.89706L16.0333 1.77307L16.2523 1.80606L16.5193 1.79605L16.6303 1.60507L16.7713 1.47406L16.8593 1.32507L17.0033 1.14505L17.4973 1.09506L18.4863 0.787048L18.3753 0.933075L17.4743 1.27808L17.8603 1.32108L18.2553 1.20306L18.7063 1.12805L18.7883 0.981049L18.8473 0.706055L18.9333 0.667053L19.2453 0.719055L20.1723 1.14307L20.4033 1.15106L21.0563 0.920074L21.1953 0.871063L21.4073 0.999054L21.8893 1.52606L21.7213 1.51508L21.2053 1.06305L21.1593 1.28906L20.8653 1.68506L21.2323 1.85605L21.5313 1.92007L21.6913 2.14105L21.7923 2.33707L22.0873 2.25107L22.2983 1.98407L22.1883 1.83505L22.1143 1.68106L22.2103 1.67706L22.4153 1.80405L23.0023 2.31107L23.2003 2.41605L23.4283 2.39807L23.9053 2.25607L24.0383 2.27808L24.6783 2.09106L24.7533 2.22806L24.8593 2.36407L25.3753 2.21207L26.1843 2.21405L26.8473 2.04907L27.6153 1.64706L27.6763 1.58707Z" fill="#CCCCCC" stroke="white" stroke-width="0.5"/>
</svg>
