<svg width="25" height="23" viewBox="0 0 25 23" fill="none" xmlns="http://www.w3.org/2000/svg">
<path d="M24.3299 1.51605L24.3309 2.03906V2.66006L24.3319 3.27905L24.3329 3.98306V4.68307V5.19205V5.54605H23.7619H23.2389H22.7159H22.1939H21.6709H21.1479H20.6249H20.1019H19.5789H19.0559H18.5329H18.0099H17.4869H16.9639H16.4409H15.9189H15.3959H14.9759V5.91705V6.33807V6.76007V7.18106V7.60205V8.02206V8.44205V8.86105V9.28006V9.69806V10.1161V10.5341V10.9501V11.3671V11.7831V12.1991V12.6141V12.9841L14.9559 13.3151L14.7879 13.4131L14.3869 13.5891L13.9749 13.7701L13.4519 13.8531L13.2799 13.912L12.9459 14.1501L12.5069 14.4631L12.1269 14.7341L11.8759 15.0861L11.7849 15.2791L11.7479 15.4821L11.7769 15.6761L11.9139 16.0641L11.9509 16.2601L11.9719 16.6011L11.9949 16.9711L12.0199 17.3701L12.0449 17.7691L12.0709 18.192L12.0979 18.6161L12.1249 19.041L12.1449 19.3571L12.1699 19.7551L11.7449 19.7561H11.1019L10.4579 19.757L9.8139 19.7581L9.1709 19.7591L8.52792 19.7601L7.88391 19.761H7.2399L6.59689 19.7621L5.95291 19.7631L5.30991 19.7641L4.6669 19.7651L4.02292 19.7661L3.37891 19.7671H2.7359L2.09192 19.7681L1.44891 19.7691L1.0889 19.7701L0.9729 20.3291L0.869904 20.7301L0.809906 21.0571L0.853912 21.3331L0.711914 21.1821L0.961914 19.6261L0.979919 19.4951L1.1839 18.0561L1.56891 17.274L1.87592 16.929L2.3519 16.7501L2.78891 15.9621L2.94189 15.235L3.22891 14.9001L3.31891 14.6381L3.2059 14.438L3.4769 14.0451L3.8049 13.4431L3.95691 13.0561L4.3399 12.4571L4.3869 12.3241L4.35291 12.1741L4.2019 12.3011L4.04089 12.5231L3.84991 12.6981L3.92792 12.4831L4.07791 12.1671L4.41891 11.8351L4.95691 11.4701L6.07291 10.2271L6.49292 10.0121L6.87091 9.48706L7.00592 9.02005L7.04291 7.94608L7.17792 7.37805L7.42392 6.93506L7.7179 6.12607L7.94189 5.76508L8.08792 5.02505L8.24692 4.74405L8.53192 4.60907L8.93591 4.24005L9.54291 4.01105L10.2619 3.53006L10.5989 3.24207L10.8239 2.81207L11.0649 1.95407L11.4959 1.04907L11.7169 0.365051L23.9509 0.351074L23.9529 0.352051V0.351074H24.3299V0.874054V1.51605Z" fill="#CCCCCC" stroke="white" stroke-width="0.5"/>
</svg>
