<svg width="20" height="18" viewBox="0 0 20 18" fill="none" xmlns="http://www.w3.org/2000/svg">
<path d="M19.7057 15.9442L19.3937 16.0772L19.0497 16.1942L19.0007 16.1902L18.8868 16.3432L18.7238 16.7612L18.5447 16.8832L18.4507 16.8942L17.9158 16.5032L17.8328 16.4812L17.7167 16.5582L17.6328 16.6382L17.3837 16.3412L17.2018 16.0792L16.9478 15.7662L16.7007 15.6252L16.4357 15.4482L16.1758 15.0372L15.9108 14.5842L15.5178 14.2132L14.7828 13.6782L14.1077 13.0002L13.5917 12.2912L13.2587 11.9212L13.1168 11.8272L12.4288 11.5952L11.9487 11.2702L11.5787 11.0022L11.3517 10.9302L11.1318 10.9212L10.6628 10.9742L10.2728 10.8062H10.1088L9.84778 10.7572L9.64276 10.6972L9.40173 10.7692L8.90778 10.8892L8.70477 10.8632L8.59473 10.6962L8.52979 10.5682L8.35773 10.4352H8.21576L8.13678 10.5542L7.62073 10.8552L6.75775 11.0222L6.55273 11.0102L6.39978 10.8892L5.96375 10.3722L5.83875 10.2882L5.73975 10.2802L5.53778 10.2192L5.34875 10.1202L5.18274 9.90817L5.01575 9.78717L4.83673 10.2022L4.52277 10.9262L4.35474 11.3142L4.13776 11.8132L4.06976 11.8282L3.95874 11.7922L3.52777 11.1702L3.25677 10.9362L3.05475 10.9582L2.90778 11.0732L2.81476 11.2812L2.71375 11.4092L2.60474 11.4592L2.36975 11.4342L2.00873 11.3352L1.63574 11.3562L1.25177 11.4982L1.20074 11.5022L1.11078 10.6742L1.05078 10.1202L0.986755 9.53317L0.926758 8.97818L1.19373 8.63718L1.31775 8.31317L1.63574 7.25919L1.76276 7.04919L2.01276 6.48419L2.04773 6.32019L2.29474 5.60617L2.27173 5.1312L2.22174 4.65118L2.35675 4.36618L2.47675 4.13818L2.46875 3.9462L2.52277 3.49719L2.56177 3.38519L2.70874 3.37817L3.01178 3.43619L3.23474 3.39117H3.49176L3.68976 3.3772L3.80676 3.24017L3.96777 2.71619L4.07178 2.61118L4.15277 2.57919L4.37976 2.48218L4.57373 2.32919L4.73175 2.22018L4.79077 2.19818L4.95776 2.18417L5.12476 2.12018L5.20178 2.04617L5.41278 1.98718L5.61975 2.02017L5.75873 1.95517L5.85175 1.91318L5.95673 1.91019L6.05377 1.84918L6.09277 1.7562L6.15576 1.6962L6.31677 1.56018L6.39075 1.46118L6.42377 1.36118L6.45673 1.2822L6.52777 1.14819L6.80975 0.812195L7.05273 0.617188L7.90076 2.30917L8.24475 3.30719L8.54877 4.34619L8.77374 5.9032L8.98773 6.69519L9.33374 7.08517L9.57074 7.82217L9.77374 7.85019L9.92078 8.05219L10.1727 8.74319L10.3538 9.00018L10.4487 8.77917L10.4377 8.65219L10.3668 8.43918L10.4318 8.16519L10.5728 8.00119L10.8948 8.22519L11.0707 8.3942L11.1177 8.73318L11.1918 8.92117L11.5278 9.31918L11.8118 9.43518L12.1797 9.46417L12.4877 9.55118L12.7347 9.69717L13.1978 10.1012L14.2568 10.4552L15.1077 11.5392L15.6088 12.2892L17.2557 13.4242L17.5408 13.9672L17.6888 14.4992L18.0347 14.4742L18.6288 15.0552L18.8018 15.4962L19.2878 15.6562L19.3707 15.3952L19.6058 15.6092L19.7057 15.9442ZM11.1738 6.22919L11.2678 6.50919L10.9938 6.40219L10.9487 6.34418L11.0687 6.23318L11.0947 6.16519L11.1738 6.22919ZM11.3547 7.34918L11.4708 7.50317L11.5518 7.48819L11.6158 7.43719L11.6608 7.32819L12.1038 7.54318L12.0787 7.68619L11.8138 7.69318L11.5087 7.63217L11.2258 7.6532L10.8887 7.59119L10.8107 7.34818L11.0258 7.46518L11.1368 7.43619L11.1567 7.40518L11.0048 7.24118L10.7908 7.20819L10.8058 7.07919L10.9017 7.0282L10.9608 6.96518L10.8378 6.78818L11.0787 6.82819L11.2308 6.93518L11.3307 7.06018L11.3547 7.34918Z" fill="#CCCCCC" stroke="white" stroke-width="0.5"/>
</svg>
