<svg width="65" height="57" viewBox="0 0 65 57" fill="none" xmlns="http://www.w3.org/2000/svg">
<path d="M46.6654 1.92221L46.6694 2.05621L46.7794 2.2402L46.8934 2.30823L47.1334 2.40222L47.3184 2.41522L47.5704 2.45923L47.7414 2.56522L47.7514 2.73022L47.7084 2.91422L47.6044 3.08322L47.5454 3.21222L47.6004 3.28622L47.6904 3.34421L47.7874 3.3602L47.8534 3.34122L47.9034 3.23923L47.9984 3.11423L48.0514 3.09821L48.0474 3.16922L48.0924 3.2572L48.4014 3.40421L49.0794 3.67822L49.3454 3.68323L49.5604 3.71521L49.6234 3.8302L50.0554 4.25223L50.1584 4.24121L50.3504 4.25122L50.5824 4.21722L50.7504 4.13821L50.8604 4.15121L50.9824 4.23322L51.1244 4.3042L51.3084 4.44321L51.4724 4.61423L51.5854 4.67023L52.2664 4.55521L52.4184 4.65622L52.5794 4.65521L52.7604 4.62921L53.1544 4.68222L53.4744 4.66922L53.5034 4.62723L53.5304 4.24722L53.5814 4.11221L53.6574 4.0762L53.8464 4.10321L54.5354 4.32822L54.8194 4.46921L55.0924 4.57922L55.3304 4.59122L55.4884 4.66522L55.7094 5.02521L55.6714 5.20621L55.6914 5.27322L55.7144 5.39822L55.7084 5.5372L55.7664 5.6282L55.8714 5.63922L56.0054 5.61221L56.1524 5.55823L56.4104 5.40421L56.4874 5.37921L56.9194 5.5542L57.1104 5.6712L57.1764 5.79822L57.2754 5.92822L57.4044 5.9472L57.5884 5.82422L57.8754 5.6922L58.3634 5.80823L58.9064 5.97623L59.1414 5.99622L59.1494 5.91422L59.1924 5.79721L59.2814 5.73822L59.4154 5.72122L59.6014 5.65921L59.8134 5.55722L60.0344 5.51523L60.2654 5.59122L60.5444 5.65323L60.7114 5.65222L60.7914 5.89221L60.9264 5.98322L60.9794 6.19122L60.7314 6.29922L60.5854 6.31421L60.5404 6.66922L60.6104 6.76923L60.7494 6.86322L60.7874 6.9722L60.8154 7.49222L60.5314 7.80521L60.1334 8.15622L58.1854 9.28122L57.7214 9.82422L57.5444 9.94922L56.0964 10.2902L55.0844 10.6542L54.5994 10.7862L53.9934 11.4172L53.7064 11.6712L53.9354 11.7412L54.2024 12.0422L54.1124 12.1752L53.7234 12.3812L53.5534 12.4442L53.4614 12.4112L53.3744 12.4392L52.7224 13.5242L52.1464 14.3022L51.8224 14.6402L51.4904 15.1432L50.7834 16.4362L50.7784 16.8082L51.1264 18.0872L51.3264 18.4222L51.6064 18.7032L52.1364 18.9422L52.2674 19.1772L52.0844 19.4012L51.5544 19.7982L50.6324 20.3342L50.2404 20.7562L50.1574 21.1622L49.8874 21.3452L49.7854 21.9122L49.6214 22.2872L49.5904 22.4142L49.4164 22.6982L49.3934 22.9052L49.6784 23.1892L49.5374 23.3122L49.3964 23.3662L49.0714 23.3992L47.9784 23.4352L47.0994 24.0482L46.6604 24.5902L46.2624 25.5952L45.7794 26.1862L45.5664 26.2952L45.2354 26.0362L44.8214 25.9962L44.4204 26.0822L44.2104 26.2882L43.8824 26.4032L43.5614 26.3042L42.8674 26.2502L42.5584 26.2602L42.0754 26.4272L41.6614 26.3162L40.9624 26.2592L39.4494 26.3922L39.2584 26.4542L39.0694 26.7022L38.5874 27.1292L37.8544 27.1442L37.1914 27.4162L37.0254 27.5902L36.7474 28.0692L36.6604 28.4182L36.6024 28.4212L36.5304 28.3352L36.4284 28.3632L36.3754 28.6292L36.1264 28.7502L35.9184 28.7942L35.4054 28.5792L34.9774 28.2562L34.7534 28.2332L34.3894 27.7292L34.2324 27.4082L34.1214 27.0602L34.1444 26.9272L34.1134 26.8162L33.7904 26.6752L33.7114 26.3552L33.9474 25.9382L34.1404 25.7612L34.2604 25.7102L33.9684 25.7282L33.7574 25.9962L33.4874 25.5662L32.3864 24.7272L32.4574 24.5342L32.4454 24.4302L32.2604 24.6552L32.1344 24.7132L31.5714 24.6772L30.9234 24.7802L30.7524 23.9062L30.6714 23.5702L30.6504 23.3522L30.8174 22.8482L31.0004 22.6422L31.2434 22.2172L31.5434 21.8632L31.8604 21.7792L32.0004 21.7272L32.1174 21.4532L32.1834 21.2192L32.1354 21.1962L31.7654 21.2442L31.1014 20.2592L31.1224 20.1022L31.2054 19.8692L31.2604 19.5742L31.2744 19.3412L31.4474 19.1402L31.7124 18.9382L31.9354 18.6502L32.0474 18.3692L32.0704 18.1132L31.9444 17.9302L31.5814 17.8292L31.2064 17.0972L31.1234 16.6382L31.0464 16.5902L30.8154 16.3812L30.5934 15.9872L30.5614 15.9252L30.7904 15.8562L31.7344 15.8532L31.9314 15.7662L31.9614 15.7362L32.1334 15.4292L32.3134 14.9242L32.3554 14.6152L32.2984 14.4872L31.9854 14.1742L31.9714 14.0822L32.0214 13.9342L32.2074 13.7762L32.4584 13.5962L32.5954 13.4412L32.5624 13.3192L32.4894 13.1922L32.4774 13.0732L32.5234 12.9272L32.5404 12.4272L32.5724 12.2992L32.5234 11.8432L32.4624 11.4702L32.2634 10.9862L32.2994 10.8792L32.3914 10.7892L32.6924 10.6212L32.9324 10.2252L33.2814 9.89322L33.7384 9.62622L34.0584 9.32922L34.1844 9.10123L34.2734 9.0412L34.2474 8.93521L34.1874 8.78122L34.0054 8.63022L33.7704 8.54422L33.5094 8.54822L33.3474 8.51721L33.3004 8.3992L33.3184 8.07922L33.3044 7.76221L33.2544 7.61621L33.1334 7.50623L32.8944 7.53522L32.6874 7.44522L32.5304 7.42422L32.4394 7.49521L31.9764 7.47421L31.7834 7.42322L31.6484 7.3602L31.5624 7.3952L31.5134 7.45721L31.5054 7.5542L31.4734 7.68222L31.3074 7.79822L30.9284 7.91321L30.6224 7.90421L30.3414 7.8222L30.2514 7.7612L30.1164 7.70721L29.5454 7.7742L29.4764 7.72522L29.2794 7.84421L28.9894 7.98621L28.8264 7.9942L28.7674 7.9642L28.7464 7.90121L28.6244 7.68021L28.6564 7.5632L28.8904 7.22021L28.8644 7.13821L28.7684 7.02722L28.6824 6.86722L28.6574 6.78421L28.5084 6.7702L28.3494 6.85422L27.7444 7.02722L27.5994 7.09021L27.3374 7.25623L27.0724 7.51022L26.8614 7.5632L26.7884 7.48822L26.7634 6.89221L27.0854 6.49521L27.3144 6.25522L27.2074 6.20621L26.9644 6.21323L26.9814 6.02722L27.0954 5.93723L27.2054 5.73422L27.0764 5.64722L26.9754 5.51321L26.9814 5.16321L27.0094 5.02121L26.9764 4.86722L26.4814 5.07523L26.3544 5.04422L26.3494 4.78421L26.6234 4.38721L26.6514 4.26523L26.3304 4.20621L26.0904 4.0112L25.9444 3.83621L25.7884 3.58521L25.7874 3.35922L25.9494 2.8302L26.1804 2.67621L26.3804 2.58121L26.8034 2.2142L27.3864 2.28223L27.7474 2.20322L28.0714 2.01523L28.2574 1.97321L28.5564 1.8092L28.5464 1.58722L28.4434 1.42221L28.5334 1.26721L28.8684 1.07721L29.2404 0.825226L29.6674 0.776215L30.1014 0.553223L30.3924 0.697205L30.6474 0.648224L30.9404 0.819214L31.3254 1.21021L31.8894 1.36722L32.3394 1.2442L33.1344 1.2182L33.5314 1.2702L34.2374 1.17322L34.6414 1.20822L35.2964 1.01422L35.8034 1.25623L36.7864 1.3692L37.3764 1.5672L39.0104 1.8992L39.6004 1.90323L40.4354 1.71622L40.7894 1.5762L41.1134 1.65921L41.5884 1.4982L41.8164 1.53122L42.1134 1.76022L43.1584 2.06921L43.4324 1.80722L43.6364 1.75021L44.3884 1.91022L45.1464 2.23621L45.5404 2.25922L46.1164 2.17023L46.5734 1.95621L46.6654 1.92221ZM63.7504 15.2642L63.6994 15.3062L62.8364 14.8852L62.5544 14.8382L62.4854 14.7742L62.4934 14.5552L62.5154 14.4582L63.0934 14.4142L63.5604 14.5702L63.8114 14.9902L63.8304 15.0622L63.7504 15.2642ZM60.5274 15.4522L60.7964 15.5732L61.0804 15.4642L61.2314 15.4982L61.3804 15.5572L61.4164 15.7872L61.2844 16.0432L61.0994 16.3032L60.9434 16.5882L60.8074 16.9152L60.5544 17.1082L60.3254 17.2242L59.8414 16.9812L59.5594 16.9202L59.4754 16.8292L59.4084 16.4672L59.2814 16.3522L59.0944 16.3012L58.9304 16.3942L58.7164 16.5852L58.6024 16.3942L58.4214 16.3582L58.3534 16.2432L58.3564 16.0952L59.5174 15.2162L59.8534 15.0212L60.5664 14.7942L60.6754 14.8282L60.5824 14.9622L60.5894 15.0232L60.6784 15.0882L60.6574 15.1922L60.5674 15.2822L60.5274 15.4522ZM55.7554 18.6022L55.6534 18.8232L55.2264 18.7452L55.1324 18.6562L55.2244 18.4062L55.3474 18.3762L55.3554 18.1982L55.4844 18.0192L56.0904 17.8742L56.2274 17.9962L56.2564 18.1712L55.8944 18.5532L55.7554 18.6022ZM56.1734 19.4872L56.1104 19.5342L55.9244 19.4912H55.6454L55.6344 19.3462L55.6774 19.2452L55.7314 19.1422L55.9014 19.3442L56.1704 19.3822L56.1734 19.4872ZM13.2064 52.3722L13.0154 52.5822L12.8024 52.5062L12.9044 52.0462L13.0034 51.9092L13.3914 51.7082L13.7144 51.6272L13.8094 51.4132L13.9154 51.3302L14.0294 51.4572L13.9434 51.6052L13.8754 52.0672L13.6604 52.2152L13.2064 52.3722ZM1.64844 53.7032L1.57843 53.7272L1.51443 53.4762L1.18143 52.8602L1.38342 52.5852L1.75143 52.5782L1.90042 52.7702L1.95044 52.9682L1.88043 53.0822L1.90143 53.3132L1.86243 53.4622L1.64844 53.7032ZM11.8564 54.7302L11.4754 55.0892L11.0944 55.0062L11.0294 54.9472L11.4114 54.8562L11.7584 54.5832L11.9814 53.9782L12.3304 53.3082L12.4004 53.0242L12.5384 52.9132L12.7284 52.9032L12.8104 52.9242L12.8944 53.0732L12.8934 53.4102L12.7944 53.9692L12.6114 54.4632L11.8564 54.7302ZM5.85742 54.0632L5.62244 54.7872L5.40344 55.0702L5.27344 55.1652L4.95044 55.2442L4.56644 54.7952L4.36642 54.3382L4.25644 54.1912L4.43143 54.0752L4.68643 54.0952L5.23444 53.9982L5.34543 53.9592L5.90244 53.4972L6.45044 53.4402L6.46344 53.5922L5.85742 54.0632ZM3.47144 55.1962L3.35641 55.2232L3.22043 55.1442L3.07642 54.8932L3.17343 54.7072L3.26242 54.6222L3.38641 54.6352L3.62442 54.7722L3.69742 54.9142L3.70444 55.0022L3.47144 55.1962ZM8.47842 54.7992L8.46143 55.0432L8.52744 55.2892L8.51044 55.6622L8.37643 55.8642L8.03244 56.0652L7.76141 56.0292L7.60843 55.9482L7.33643 55.6212L7.33041 55.2832L7.57944 55.0632L7.68643 54.7782L8.33243 54.8322L8.38843 54.7772L8.43643 54.7612L8.47842 54.7992ZM1.49744 55.8672L1.22644 56.3822L0.88443 56.1902L0.801422 56.1262L0.732422 56.0202L1.06143 55.9992L1.39444 55.7402L1.49744 55.8672Z" fill="#CCCCCC" stroke="white" stroke-width="0.5"/>
</svg>
