<svg width="43" height="34" viewBox="0 0 43 34" fill="none" xmlns="http://www.w3.org/2000/svg">
<path d="M15.5566 2.01007L15.7616 2.02206L16.6246 1.85507L17.1406 1.55405L17.2186 1.43506H17.3606L17.5326 1.56805L17.5976 1.69608L17.7076 1.86407L17.9106 1.89008L18.4036 1.77106L18.6456 1.69907L18.8495 1.75806L19.1106 1.80707H19.2746L19.6646 1.97607L20.1326 1.92206L20.3536 1.93106L20.5806 2.00305L20.9496 2.27106L21.4306 2.59607L22.1186 2.82806L22.2606 2.92206L22.5926 3.29205L23.1086 4.00107L23.7836 4.67905L24.5196 5.21405L24.9126 5.58408L25.1776 6.03705L25.4376 6.44806L25.7026 6.62506L25.9485 6.76508L26.2036 7.07806L26.3856 7.34006L26.6335 7.63705L26.3586 8.04205L25.9896 8.58505L25.5605 9.21707L25.4306 9.37305L25.0546 9.75406L24.9896 9.86206L24.9166 10.1381L24.9116 10.6391L24.9596 11.2791L25.0056 11.869L25.2126 11.938L25.4526 11.9801L25.7176 11.9031L26.0386 11.8371L26.4366 11.7981L26.8766 11.679L27.1366 11.5831L27.4095 11.5901L27.6516 11.6931L27.7696 11.787L27.9406 11.8191L28.1616 11.8151L28.1146 11.9261L27.9936 12.0881L27.8445 12.2501L27.7136 12.4181L27.4225 12.8881L27.4136 12.9481L27.4496 13.041L27.6066 13.2551L27.7706 13.6021L27.8625 13.9201L27.9336 14.0741L28.1326 14.2501L28.4196 14.6131L28.5716 14.8581L28.8885 14.9891L28.9916 15.2991L29.2286 15.7551L29.4846 16.119L29.7325 16.4041L30.0085 16.5141L30.1196 16.5231L30.6985 17.05L31.1396 17.451L31.2486 17.5151L32.0436 17.7781L32.9586 18.08L33.6926 18.3221L34.6276 18.6301L35.5496 18.9351L36.4146 19.2251L37.6286 19.6331L38.6066 19.9621L39.3786 20.222L39.5426 20.3031H40.4615H41.3946H42.3495L41.6576 20.972L40.8746 21.7291L40.0526 22.5231L39.5226 23.0341L38.6836 23.8451L37.9846 24.5191L37.2656 25.2551L36.6156 25.9211L35.7696 26.843L35.2216 27.4391L34.3636 28.3741L33.8246 28.9601L33.7426 28.994L32.9716 28.9501L32.2216 28.9061L31.2635 28.8511L31.1536 28.8531L30.8746 28.9081L30.7056 28.9621L30.0156 29.1201L29.8885 29.1611L29.3156 29.412L28.7306 29.7081L28.4225 29.9361L28.1846 30.2661L28.0826 30.5011L27.9756 30.6041L27.7936 30.6941L26.5685 30.9171L26.2126 30.9471L25.6396 31.1251L25.3336 31.4231L25.2466 31.5731L24.8356 31.5691L24.1176 31.6131L23.8105 31.6611L23.6606 31.6691L23.3856 31.6681L23.1595 31.6141L23.0096 31.5331L22.8235 31.3501L22.4076 30.9791L22.1056 30.7471L21.4426 31.0141L20.8456 31.2791L19.9986 31.6561L19.5156 31.9261L19.3705 32.1971L18.9976 32.6901L18.6646 32.9931L18.5396 33.0301L17.7845 32.9671L17.5126 32.9051L17.0626 32.8501L16.4576 32.7431L16.0526 32.6281L15.6125 32.6141L14.9786 32.5751L14.5876 32.4921L14.1906 32.218L13.6806 31.8891L13.1546 31.55L12.6125 31.201L11.9726 30.7991L11.2736 30.36L11.1136 30.3161L11.0436 30.3081L10.2845 30.2881L9.49554 30.2671L8.96259 30.2531L8.79456 30.2021L8.67255 30.1021L8.50757 29.7771L8.29956 29.5461L8.06757 29.2511L8.04858 28.8531L8.11255 28.4181L8.17255 28.274L8.13855 28.1311L8.14758 27.9341L8.01758 27.7511L7.24158 27.541L7.1156 27.5571L6.98657 27.636L6.8396 27.692L6.73358 27.6391L6.66858 27.5611L6.66656 27.4321L6.67957 27.3361L6.63458 27.2831L6.38757 27.0871L6.15558 26.8291L6.01556 26.5441L5.87958 26.3101L5.81158 25.787L5.63959 25.4651L5.47156 25.0711L5.2226 24.3201L5.11456 24.0611L4.9126 23.8871L4.69958 23.7261L4.47858 23.3931L3.90356 23.0991L3.68256 22.8701L3.29956 22.4731L3.20459 22.2721L3.17657 22.0731L3.05756 21.886L2.84558 21.675L2.18256 21.2211L1.99957 21.1671L1.76257 21.1181L1.41455 21.0731L0.947571 20.9691L0.539551 20.791L0.354553 20.6651L0.310547 20.5781L0.348572 20.4321L0.496582 20.1811L0.77655 19.5881L0.970581 19.179L1.1026 19.063L1.46155 19.0341L1.84357 19.0461L2.12256 19.076L2.5166 19.0811L2.98859 19.0461L3.1756 18.9091L3.32355 18.7591L3.38556 18.6541L3.40558 18.3891L3.4046 18.1761L3.37457 17.3591L3.35657 16.8591L3.33557 16.287L3.33856 16.1721L3.34259 16.0251L3.45758 15.4141L3.56555 15.0641L3.63959 14.8791L3.93756 14.2951L3.99359 14.1081L4.0036 13.9371L3.89355 13.1521L4.08459 12.7821L4.33057 12.416L4.54559 12.2591L4.72455 12.1531L4.80859 12.1981L5.01459 12.3671L5.28455 12.5341L5.41058 12.4971L5.59558 12.3511L5.73358 12.1971L5.71558 11.9211L5.8396 11.3541L5.81555 11.0261L5.94855 10.6201L6.09357 10.0471L6.15857 9.68506L6.24158 9.49005L6.63458 9.09006L6.9726 8.52405L7.18756 8.11005L7.59955 7.43405L7.80756 7.18707L7.97656 7.08105L8.22858 7.01306L8.69757 6.95105L9.03455 6.89407L9.08356 6.80606L9.11255 6.66806L9.11755 6.36505L9.18256 5.84406L9.32855 5.33505L9.50055 4.94907L9.59357 4.77307L9.70459 4.60406L9.82959 4.31705L9.98755 3.69705L9.97858 3.27606L10.2046 2.50406L10.2546 2.50006L10.6385 2.35806L11.0116 2.33707L11.3726 2.43607L11.6075 2.46106L11.7176 2.41107L11.8185 2.28305L11.9116 2.07507L12.0596 1.96005L12.2616 1.93805L12.5316 2.17206L12.9626 2.79306L13.0735 2.83005L13.1426 2.81406L13.3586 2.31506L13.5276 1.92807L13.8416 1.20407L14.0206 0.789062L14.1876 0.909058L14.3536 1.12106L14.5416 1.22006L14.7446 1.28107L14.8426 1.28906L14.9676 1.37305L15.4036 1.89008L15.5566 2.01007Z" fill="#CCCCCC" stroke="white" stroke-width="0.5"/>
</svg>
