<svg width="32" height="71" viewBox="0 0 32 71" fill="none" xmlns="http://www.w3.org/2000/svg">
<path d="M23.9923 9.466L23.8043 9.563L23.2243 9.94299L22.8703 10.199L22.4443 10.387L22.5543 10.636L23.2623 10.688L23.3713 10.759L23.4503 10.886L23.4633 11.09L23.3923 11.419L22.6263 13.22L22.6023 13.597L22.8523 14.641L23.2033 15.865L24.2643 16.406L25.0523 16.827L25.5583 17.821L26.3933 19.122L26.8353 19.606L26.8603 19.756L26.7293 20.645L26.1943 21.531L25.6943 22.275L25.1763 23.167L24.7713 23.924L24.3323 24.827L24.2813 25.119L24.2733 25.394L24.3493 25.697L24.9113 26.79L25.1303 27.345L25.3913 27.943L25.6163 28.593L25.7463 29.174L25.9713 29.737L26.1113 30.024L26.3433 30.426L26.6233 31.022L26.7163 31.493L27.1393 33.117L27.1823 33.528L27.1613 33.832L26.9753 33.906L26.5643 33.954L26.1183 34.153L26.0963 34.22L26.3873 34.598L26.1303 35.243L26.0933 36.162L25.8193 36.642L25.7933 36.753L25.8053 36.846L25.8543 36.919L26.3613 37.047L26.4053 37.177L26.4073 37.446L26.3623 37.694L26.1073 37.878L25.8343 38.149L25.7733 38.399L25.7823 38.621L25.8753 38.996L26.0563 39.432L26.2853 39.705L27.0983 39.964L27.2033 40.177L27.2473 40.469L27.2303 40.754L26.8523 41.322L26.8553 41.54L27.0103 42.066L27.1963 42.567L27.9893 43.109L28.2623 43.405L28.3343 43.64L28.3743 44.019L28.3693 44.429L28.3073 44.792L28.0583 45.259L27.4833 46.177L26.9043 46.532L26.8693 46.609L27.0483 46.901L28.0673 48.067L28.7323 48.61L29.6283 49.34L30.2063 49.915L30.3933 50.327L30.6433 50.785L30.9243 51.158L31.1273 51.481L31.2043 51.689L31.1973 51.912L30.9263 52.583L30.7723 53.1L30.5013 53.855L30.2233 54.379L29.5193 55.333L28.4803 56.513L28.2393 56.868L27.7533 57.485L26.9203 58.718L26.7053 58.989L26.0233 59.965L25.7123 60.275L25.4673 60.564L24.7923 61.479L24.0663 62.17L23.3543 62.81L23.1403 63.133L22.8743 63.38L22.5573 63.614L22.4243 63.745L21.7073 64.614L20.7123 65.812L20.6113 65.831L20.3523 66.024L19.9473 66.071L19.7713 66.218L19.1523 65.798L19.0493 65.771L18.6853 65.875L18.3363 66.18L17.6913 66.273L17.3713 66.372L17.1673 66.513L17.1253 66.18L17.2133 65.757L17.3553 65.474L17.3683 65.29L17.2643 65.309L17.0573 65.724L16.9473 66.208L16.7263 66.451L16.2403 66.55L15.7673 66.162L15.5423 66.165L15.6833 66.443L15.7783 66.748L15.7663 66.918L15.5143 66.888L15.2333 67.07L14.9873 67.336L14.8673 67.337L14.7013 66.965L14.3973 67.139L14.1373 67.372L13.6103 67.444L13.2963 67.75L12.7403 67.957L12.4353 67.952L11.7383 68.2L11.5063 68.582L11.3033 68.722L11.0143 68.604L10.1233 68.79L9.2713 69.034L8.9093 69.02L8.5473 68.919L8.16333 69.257L7.75531 69.709L7.30634 69.87L7.14532 69.812L7.27429 69.575L7.57129 69.33L7.77533 68.997L7.80328 68.719L7.66333 68.61L7.47131 68.576L7.23029 68.288L6.99933 67.662L6.87433 67.627L6.81128 67.792L6.7403 68.271L6.66833 68.409L6.54633 68.519L6.39929 68.629L6.25531 68.683L5.7403 68.676L5.6723 68.434V68.333L5.76428 68.014L5.68433 67.958L5.76031 67.708L5.88129 67.722L6.02533 67.684L6.09729 67.556L6.09229 67.402L5.89233 67.362L5.88031 67.257L6.05829 66.817L6.08331 66.695L6.01428 66.67L5.90332 66.718L5.16632 66.58L4.25732 66.016L4.03333 65.987L3.8963 65.482L3.67731 65.546L3.3573 65.842L3.11731 65.617L2.85931 65.469L2.78833 65.238L2.7923 64.896L2.77032 64.491L2.70032 64.016L2.64929 63.339L2.69733 62.808L2.90332 62.414L2.9823 62.162L3.07831 61.517L3.10028 60.76L3.04529 60.502L3.05933 60.33H3.22333L3.18732 60.182L3.1153 60.101L3.03528 59.933L3.10333 59.844L3.29932 59.838L3.31531 59.781L3.33728 59.701L3.1853 59.257L3.1673 59.045L2.95728 58.4L2.71631 57.786L2.35529 57.341L2.48328 56.606L2.62933 55.939L2.60028 55.617L2.54431 55.224L2.10132 54.792L2.03632 54.182L1.92828 53.524L1.9693 53.12L2.04132 52.809L2.18732 52.499L2.9223 51.519L2.96729 51.005L3.46533 50.967L3.23431 50.507L3.1803 50.248L3.16833 49.945L3.88428 49.737L4.15228 49.908L4.78229 49.697L5.34229 49.284L5.33228 49.064L5.24628 48.867L5.12732 48.487L5.2113 48.381L5.41528 48.459L5.32129 48.27L5.33832 48.07L5.56128 48.153L5.92432 47.594L5.93732 47.166L6.56531 46.942L7.29028 46.064L7.62433 45.79L7.94733 45.591L8.63531 44.708L8.92932 44.667L9.08032 44.069L9.66528 43.27L9.84332 43.168L10.1163 42.444L10.8353 41.604L11.2913 40.527L11.5423 40.143L11.6203 39.733L11.9003 39.698L12.1523 39.396L12.6983 39.186L13.2383 39.244L13.4633 39.388L13.6703 39.343L13.6493 38.973L13.5013 38.744L13.6223 38.523L13.9073 38.356L13.8783 37.986L13.8163 37.763L13.5793 37.466L13.6973 36.798L13.7253 36.063L13.8373 35.21L13.5403 34.757L12.4103 33.983L12.2003 34.01L11.9493 33.912L11.6873 33.323L11.8043 32.813L11.8183 32.625L11.7163 32.631L11.5503 32.88L11.1903 33.164L10.7223 32.946L10.4923 32.994L10.1933 31.727L10.0403 31.24L9.79529 30.632L9.35828 30.335L9.27228 30.166L9.21429 29.907L9.19531 29.547L9.13928 29.013L9.16229 28.574L9.21631 28.312L9.40533 28.136L9.67731 27.637L9.73431 27.274L9.75732 26.716L9.88232 26.227L10.0213 25.979L9.98633 25.781L9.89032 25.499L9.68628 25.097L9.37628 24.606L9.14728 24.135L9.04633 23.694L8.99432 23.298L9.00232 22.938L9.08832 22.692L9.38031 22.382L9.41931 22.25L9.30328 21.563L9.0993 21.438L8.75232 21.371L8.55829 21.365L8.5213 21.289L8.51129 21.151L8.55133 20.868L8.66028 20.543L8.75128 20.335L8.76331 20.159L8.64728 19.555L8.6123 18.812L8.65228 18.228L9.02032 17.796L9.03729 17.638L8.57532 17.167L8.24231 16.632L8.13831 16.319L7.75732 16.272L7.51929 15.358L7.17529 14.912L6.83533 14.525L6.63428 14.345L5.45428 13.788L4.98633 13.682L4.43134 13.356L4.01831 12.946L3.66431 12.682L3.36133 12.355L2.93829 12.049L2.81732 11.787L2.36029 11.301L2.1463 10.98L1.40332 10.373L1.37628 10.133L1.37128 9.901L1.33728 9.804L0.571289 9.358L0.72229 9.10201L1.32129 9.086L1.81628 9.319L1.92529 9.21899L1.9903 9.01199L1.7793 8.17999L1.81732 7.96201L2.03528 7.7L2.38129 7.491L2.92633 7.461L3.29828 7.492L3.37732 7.515L3.93231 8.433L4.4093 9.32401L4.66229 9.702L5.28131 10.77L5.51331 11.385L5.59229 11.824L5.8443 11.822L6.71533 12.014L7.44733 12.176L7.65131 12.421L8.15533 12.372L8.54431 12.151L9.23029 11.872L9.41431 11.528L9.64331 11.159L10.0453 11.217L10.4853 11.508L10.9843 11.89L11.4293 12.066L12.0263 12.342L12.3043 12.698L12.6943 12.8L13.1023 12.444L13.3433 11.473L13.5573 11.038L13.8603 10.719L14.2073 10.578L14.4723 10.527L14.6733 10.278L14.9583 9.724L15.0143 9.05L14.9593 7.826L15.0113 7.42L15.2443 6.754L15.5573 4.978L15.6973 4.46201L15.8683 4.14799L16.1033 3.961L16.5303 3.41701L17.1403 2.33299L17.3053 2.241L17.7433 2.186L18.2873 2.226L18.7773 2.41701L18.8303 2.40199L19.0503 2.302L19.4493 1.964L20.1333 1.28999L20.5713 1.104L20.9693 1.13L21.4103 1.868L22.0333 2.687L22.4333 3.08299L23.5243 3.82401L24.4823 4.30901L25.0203 5.903L24.7543 6.534L24.6223 6.75101L24.1533 7.37601L23.6523 8.254L23.6143 8.71001L23.7803 9.16901L23.9923 9.466ZM12.4363 38.47L12.0173 38.69L11.6803 38.553L11.6743 38.126L11.8833 37.919L12.2613 37.836L12.7793 38.043L12.8553 38.153L12.5583 38.236L12.4363 38.47ZM2.24731 49.708L2.27728 49.824L2.44128 49.792L2.66333 49.58L2.82031 49.679L2.80231 49.981L2.69629 49.969L2.6673 49.919L2.53033 50.091L2.50629 50.195L2.34833 50.261L2.05634 49.966L1.87231 49.48L2.30029 49.479L2.25928 49.595L2.24731 49.708ZM2.90131 65.846L2.8623 66.111L2.67133 66.082L2.47729 66.13L2.32129 65.867L2.23828 65.423L2.26733 65.327L2.38928 65.226L2.4823 65.47L2.90131 65.846ZM4.42633 66.941L4.22131 66.966L3.93231 66.685L3.8963 66.575L4.00928 66.511L3.93433 66.285L3.9563 66.185L4.17932 66.364L4.30133 66.572L4.18231 66.62L4.38428 66.835L4.42633 66.941ZM4.93433 66.749L5.28931 66.88L5.43829 66.833L5.60828 67.13L5.32031 67.318L5.30029 67.552L5.41431 67.697L5.45428 67.907H5.1673L5.03033 67.73L4.97028 67.505L4.8363 67.346L4.65833 67.225L4.7453 67.063L4.79529 66.831L4.93433 66.749ZM3.9743 68.048L3.6933 68.241L3.5863 68.195L3.61328 67.869L3.78033 67.72L4.06128 67.703L3.9743 68.048ZM3.39929 68.232L3.15332 68.288L3.00031 68.125L3.05829 68.004L3.22931 67.869L3.41528 67.888L3.45532 68.046L3.39929 68.232Z" fill="#CCCCCC" stroke="white" stroke-width="0.5"/>
</svg>
