<svg width="41" height="41" viewBox="0 0 41 41" fill="none" xmlns="http://www.w3.org/2000/svg">
<path d="M21.7331 2.83682L21.9001 2.78781L22.1831 2.61182L22.4191 2.55582L22.554 2.69083L22.6301 2.76782L22.7781 3.07181L22.8201 3.38782L22.886 3.65082L23.0061 3.75681L23.4571 3.79181L23.7901 3.88882L23.8781 3.97681L23.9921 4.55881L24.054 4.64081L24.1371 4.57281L24.2191 4.47681L24.3331 4.46182L24.5281 4.49881L24.7851 4.5108L25.05 4.57483L25.416 4.90283L25.4021 5.0108L25.3311 5.19983L25.3061 5.35083L25.369 5.4118L25.4661 5.56781L25.4431 5.7478L25.3491 5.87381L25.3111 5.97781V6.04483L25.3461 6.10083L25.4211 6.14981L25.9621 6.21582L26.4571 6.14981L26.7691 5.96582L26.8221 5.77182L26.9101 5.5538L27.0961 5.36981L27.2241 5.30783L27.3421 5.38281L27.1441 6.15182L27.2891 6.34781L27.3101 6.63983L27.3621 6.89581L27.5391 6.89081L27.7531 6.93781L27.9051 7.03183L28.0821 7.18381L28.3371 7.32382L28.5161 7.3728L28.5811 7.48883L28.7261 7.62381L28.9541 7.90582L29.1581 8.09381H29.257L29.4471 8.01981L29.7291 7.97281L29.951 7.97681L30.0461 8.11981L30.2651 8.18582L30.3421 8.23883L30.4281 8.33783L30.5741 8.37781L30.7501 8.33783L30.8781 8.20682L31.0491 8.14682L31.2211 8.16681L31.3201 8.23883L31.5081 8.34583L31.6141 8.32281L31.8271 8.38882L32.041 8.5968L32.1311 8.80481L32.1541 8.91882L32.2461 9.04282L32.6051 9.60083L32.7191 9.62781L32.8441 9.54382L32.925 9.42383L33.0421 9.39981L33.2301 9.45581L33.3511 9.51883L33.4091 9.75983L33.4501 9.80582L33.5311 9.75381L33.6761 9.74283L33.9081 9.80182L34.2261 9.73383L34.481 9.63281L34.6111 9.63681L34.8211 9.91782L35.0611 10.0228L35.5891 10.1078L36.1561 10.2398L36.3791 10.3468L36.5311 10.3998L36.5471 10.7708L36.5011 10.8268L35.9361 11.5688L35.6981 11.8338L35.5771 12.2108L35.494 12.7888L35.3271 13.3358L35.0771 13.8538L34.9861 14.2418L35.054 14.4998L35.011 14.9048L34.8581 15.4558L34.8321 15.8708L34.9341 16.1508L35.0751 16.2078L34.7361 16.3958L34.6591 16.5608L34.5261 16.7778L34.3101 16.8688L34.093 16.8988L33.9171 16.8708L33.817 16.7838L33.8221 16.7028L33.7291 16.6338L33.498 16.6358L33.2591 16.7848L33.0681 17.0288L33.1271 17.1648L33.3031 17.2008L33.3491 17.2548V17.3248L33.287 17.4088L33.2131 17.5528L32.8441 17.9808L32.472 18.4118L32.412 18.5418L32.2941 18.6328L31.8211 18.8628L31.7721 18.9548L31.7451 19.3378L31.692 19.6518L31.3411 19.9468L30.9921 20.2398L30.9051 20.4188L30.8421 20.6258L30.7331 20.8598L30.7111 20.9838L30.8881 21.1848L30.8671 21.3508L30.8111 21.5868L30.6441 21.7538L30.4581 21.8488L30.4621 22.1048L30.5611 22.1408L30.7851 22.1218L31.1021 21.9358L31.3091 21.6958L31.1871 21.4688L31.1721 21.4248L31.2021 21.3708L31.4471 21.1228L31.7471 20.9738L32.166 20.9458L32.6711 21.0338L32.7211 21.0708L32.6971 21.2228L32.744 21.4468L32.8351 21.6038L32.7101 22.0488L32.8051 22.1878L32.9521 22.3548L33.0621 22.5068L33.2201 22.6458L33.3611 22.8808L33.4091 23.0138L33.1831 23.2438L32.8011 23.4598L32.7581 23.5988L32.7631 23.7558L32.8061 23.8798L33.0171 24.0388L33.244 24.3978L33.3881 24.7178L33.7031 25.0238L33.7801 25.1148L33.7601 25.1908L33.6771 25.3208L33.5691 25.7548L33.4401 25.8228L33.2961 25.8508L32.9061 26.1678L32.7321 26.1288L32.485 26.1328L32.304 26.2368L32.3241 26.4338L32.4831 26.6138L32.576 26.8098L32.6141 27.0138L32.7901 27.1648L33.0381 27.2548L33.1801 27.2608L33.2721 27.3148L33.3281 27.3848L33.4351 27.8208L33.3711 27.9298L33.2371 27.9758L33.1571 28.1548L32.998 28.4178L32.9081 28.6288L33.0081 28.8148L33.05 28.9528L32.9971 29.0948L33.0681 29.3148L33.2561 29.5328L33.7671 29.8388L34.2421 30.0878L34.3891 30.1288L35.0311 29.9688L35.1371 29.9828L35.2151 30.1728L35.2491 30.3008L35.1771 30.4928L35.0001 30.7638L34.8121 30.9748L34.6981 31.1538L34.722 31.3168L34.7291 31.5328L34.576 31.5968L34.5711 31.5548L34.5081 31.5178L34.4541 31.5388L34.412 31.5858L34.4061 31.6688L34.08 31.8068L33.8551 31.9498L32.9661 32.8018L32.55 33.0508L32.468 33.2008L32.3831 33.4808L32.1391 33.7208L31.925 33.8348L31.3961 33.9518L30.8641 34.2058L30.6241 34.0958L30.0041 34.1078L29.6171 33.8018L28.873 33.6078L28.6311 33.1608L28.2921 33.1318L28.0701 33.1458L27.9371 33.0778L27.9031 32.9248L27.9001 32.7778L27.6651 32.8458H27.485L27.3781 32.9048L27.2941 32.9728L27.1941 32.9298L27.136 32.9448L27.1411 33.0308L26.925 33.0528L26.6901 32.9998L26.0751 32.7688L25.981 32.7328L25.554 32.6438L25.382 32.5508L25.2421 32.3218L25.136 32.2498L25.0731 32.2068L24.675 32.3228L24.537 32.5028L24.3221 32.7138L22.8461 33.7458L22.576 34.1768L22.2641 34.8098L22.2401 35.1048L22.3741 36.0448L22.6741 36.5368L22.7121 36.6508L22.5451 36.6518L22.2661 36.5898L22.0351 36.5138L21.8141 36.5558L21.6021 36.6578L21.416 36.7198L21.2821 36.7368L21.1931 36.7958L21.1501 36.9128L21.1421 36.9948L20.9071 36.9748L20.3641 36.8068L19.8761 36.6908L19.5891 36.8228L19.4051 36.9458L19.2761 36.9268L19.1771 36.7968L19.1111 36.6698L18.9201 36.5528L18.4881 36.3778L18.5101 36.2938L18.5841 36.1758L18.5821 36.1028L18.4991 35.9948L18.1011 35.8788L17.9131 35.8498L17.7941 35.9298L17.7081 36.0278L17.4871 35.6678L17.3291 35.5938L17.0911 35.5818L16.8181 35.4718L16.5341 35.3308L15.8451 35.1058L15.6561 35.0788L15.58 35.1148L15.5291 35.2498L15.5021 35.6298L15.4731 35.6718L15.1531 35.6848L14.7591 35.6318L14.5781 35.6578L14.4171 35.6588L14.2651 35.5578L13.5841 35.6728L13.4711 35.6168L13.3071 35.4458L13.123 35.3068L12.981 35.2358L12.8591 35.1538L12.7491 35.1408L12.5811 35.2198L12.3491 35.2538L12.1571 35.2438L12.054 35.2548L11.6221 34.8328L11.5591 34.7178L11.3441 34.6858L11.0781 34.6808L10.4001 34.4068L10.0911 34.2598L10.0461 34.1718L10.05 34.1008L9.99707 34.1168L9.90207 34.2418L9.85205 34.3438L9.78607 34.3628L9.68906 34.3468L9.59906 34.2888L9.54407 34.2148L9.60306 34.0858L9.70706 33.9168L9.75006 33.7328L9.74005 33.5678L9.56906 33.4618L9.31705 33.4178L9.13205 33.4048L8.89206 33.3108L8.77808 33.2428L8.66806 33.0588L8.66406 32.9248L9.12106 32.8068L9.53207 32.3218L9.92206 30.5538L10.2041 28.4448L10.4131 28.0448L10.6771 27.9348L10.4641 27.6428L10.3311 27.7908L10.2751 27.9478L10.205 28.0268L10.3621 26.0718L10.4741 25.3518L10.6651 24.5958L11.0561 24.8958L11.3801 25.2008L11.5471 25.4648L11.7591 26.3408L11.9201 26.5248L12.1601 26.7088L12.0651 26.5078L11.9001 26.3538L11.6421 25.1848L11.4801 24.8518L11.2281 24.5718L10.416 23.9808L10.343 23.8658L10.3031 23.6398L10.5721 23.6498L10.804 23.7598L10.7771 23.6338L10.7081 23.5018L10.6001 23.0208L10.5101 21.8938L10.5221 21.7008L10.4821 21.4628L10.222 21.4098L10.0141 21.4008L9.79007 21.3068L8.68405 20.6388L8.30606 19.9468L7.91907 19.4348L7.82605 19.2108L7.83206 18.9838L8.03305 18.5038L7.85605 18.1998L7.68307 18.1398L7.53305 17.9888L7.66907 17.7378L7.78207 17.5768L8.00906 17.5338L8.30606 17.5868L8.58807 17.7328L8.80905 17.7718L8.15607 17.3808L7.09607 17.5128L6.86707 17.4628L6.67505 17.3758L6.59906 17.0878L6.75006 16.9588L6.88605 16.7188L6.73206 16.5508L6.53207 16.4868L6.21805 16.4898L5.92505 16.5408L5.85107 16.4438L6.03006 16.1758L5.87805 16.0778L5.67505 16.1238L5.38107 16.1788L5.10007 16.0948L4.83408 15.7898L4.65805 15.7918L4.53705 15.8298L4.35806 15.7118L4.16907 15.6828L4.03406 15.7218L3.85507 15.5468L2.75107 15.1948L2.27505 15.1518L1.83807 15.3108L1.59705 15.2558L1.42007 15.0278L1.27206 14.6458L0.568054 14.3508L0.707062 14.1568L1.03506 14.1108L1.41205 13.9768L1.54807 13.8038L1.25305 13.6028L1.03506 13.5528L0.945068 13.4808L0.853058 13.2998L0.983063 13.2168L1.07507 13.2608L1.34106 13.2868L1.79507 13.2428L1.62607 13.0598L1.45007 13.0188L1.36905 12.9728L0.999054 12.9528L0.831055 13.0158L0.453064 12.9918L0.371063 12.7948L0.331055 12.6248L0.448059 12.2468L0.980072 11.9078L2.30606 11.5368L2.87607 11.5908L3.27106 11.5238L3.74506 11.2898L3.95407 11.0888L4.62805 10.9708L5.26807 11.1838L5.85806 11.9878L6.14008 12.2598L6.83105 11.7878L7.86005 11.8018L8.07205 12.0678L8.15805 11.8438L8.34705 11.5808L8.49805 11.7008L8.57507 11.8638L9.66107 11.8178L9.83206 11.7708L9.54007 11.5798L9.30206 11.1218L9.25208 9.4288L8.95105 8.95383L8.60605 8.19281L8.44705 7.73981L8.43207 7.58282L8.48505 7.3558L8.90906 7.36783L9.23706 7.42581L9.86206 7.25482L10.162 7.37183L10.1441 7.72583L10.2361 8.17181L10.3401 8.38782L10.4991 8.63281L11.0021 8.61081L11.5451 8.75482L12.2321 8.77682L13.235 9.02481L13.662 8.88083L14.076 8.57382L14.8641 8.37183L14.9271 8.26581L14.4731 8.30783L14.0571 8.11282L14.0011 7.90182L14.0491 7.71182L14.218 7.2738L15.4241 6.58081L16.2881 6.37582L17.1901 5.99283L17.6441 5.59982L17.9441 5.09082L18.041 4.97882L18.166 4.88483L18.05 4.70181L18.1281 2.74182L18.2121 2.38681L18.3881 2.09583L18.6561 1.87082L19.0621 1.62683L20.5591 1.28983L20.7811 1.15283L20.8121 1.36481L20.9211 1.6358L20.9961 1.78381L20.9331 1.97681L20.9821 2.1358L21.1851 2.42181L21.438 2.69083L21.6641 2.86282L21.7331 2.83682ZM10.3931 23.1028L10.2941 23.4548L10.106 23.1308L9.85806 22.8468L9.80106 22.5838V22.5138L10.0921 22.7058L10.3931 23.1028ZM40.3061 35.2278L40.2331 35.7868L40.2861 35.9498L40.3881 36.0638L40.4351 36.1888L40.5201 37.6708L40.5041 37.7888L40.1611 38.3818L40.0841 38.5548L40.067 39.2868L40.0091 39.4828L39.8871 39.6758L39.6701 40.2998L39.4821 40.5798L38.968 40.2378L38.6651 40.0898L38.5171 39.9308L38.4201 39.8208L38.4831 39.6738L38.6211 39.5208L38.6431 39.3998L38.3181 39.2638L38.1691 39.1728L38.1711 39.0128L38.2831 38.7638L38.2321 38.5578L38.0441 38.5678L37.8981 38.5368L37.8791 38.4298L37.9861 38.2928L38.1241 38.1138L38.1201 37.9158L37.9531 37.8308L37.8021 37.6698L37.7411 37.4508L37.8581 37.3008L38.0481 37.2048L37.9081 36.9798L37.8141 36.9748L37.7391 36.9258L37.8011 36.8218L37.9481 36.6658L38.1531 36.1988L38.438 35.9778L38.9441 35.8358L39.0811 35.7728L39.2061 35.6078L39.3451 35.5018L39.5141 35.5158L39.6701 35.5788L39.7661 35.6468L39.8381 35.5758L39.9081 35.3708L39.8651 35.1908L39.8871 34.6958L39.9771 34.4148L40.123 34.3988L40.257 34.5538L40.2511 34.6908L40.3011 35.0148L40.3061 35.2278Z" fill="#CCCCCC" stroke="white" stroke-width="0.5"/>
</svg>
