<svg width="18" height="19" viewBox="0 0 18 19" fill="none" xmlns="http://www.w3.org/2000/svg">
<path d="M14.008 0.642975L13.994 0.837982L13.771 1.31598L13.667 1.68396L13.641 2.07498L13.702 2.39096L13.809 2.61496L13.878 2.85995L13.825 3.03098L13.717 3.10397L13.791 3.18997L13.953 3.20996L14.229 3.13596L14.653 3.00497L15.208 2.81598L15.573 2.71497L16.176 2.77896L16.498 2.85098L16.663 2.98297L16.841 3.54498L16.929 3.63098L17.075 3.86996L17.197 4.15698L17.223 4.30298L17.209 4.40796L17.087 4.56296L16.949 4.79196L16.9 4.92996L16.785 5.03296L16.639 5.13397L16.236 5.17496L16.174 5.23495L16.062 5.47797L15.849 5.68396L15.752 5.87897L15.667 6.13898L15.684 6.45996L15.641 6.92297L15.598 7.23697L15.704 7.34695L16.186 7.42297L16.279 7.48495L16.407 7.67896L16.571 7.86197L17.011 7.97696L17.182 8.11597L17.321 8.26898L17.339 8.39398L17.239 8.89697L17.143 9.37997L17.181 9.74796L17.216 10.099L17.269 10.61L17.246 10.922L17.121 11.113V11.262L17.178 11.442L17.068 11.94L16.997 12.024L16.8 12.117L16.696 12.251L16.663 12.461L16.557 12.749L16.447 12.854V12.988L16.553 13.085L16.551 13.235L16.354 13.413L16.236 13.549L15.973 13.616L15.673 13.545L15.603 13.446L15.675 13.292L15.649 13.168L15.546 13.038L15.385 12.704L15.243 12.633L15.164 12.77L14.92 13.024L14.489 13.35L14.187 13.376L13.629 13.277L13.162 13.121L12.941 12.739L12.804 12.423L12.604 12.057L12.38 11.883L12.141 11.771L12.035 11.764L11.693 11.968L11.59 12.049L11.591 12.22L11.623 12.38L11.676 12.457L11.72 12.56L11.712 12.719L11.651 12.932L11.63 13.167L10.558 13.398L10.373 13.315L10.238 13.209L10.076 13.228L9.60999 13.348L9.439 13.264L9.26999 13.203L9.19199 13.254L9.186 13.354L9.26501 13.908L9.23901 14.119L9.13501 14.395L9.07999 14.582L9.36499 14.634L9.46701 14.721L9.56699 14.86L9.70401 14.99L9.71301 15.069L9.55801 15.214L9.505 15.392L9.57901 15.531L9.772 15.677L10.055 15.828L10.193 15.927L10.179 16.018L10.048 16.21L9.99799 16.374L9.90799 16.521L9.927 16.657L10.054 16.784L10.041 16.897L9.95401 16.983L9.77802 16.965L9.629 16.977L9.496 16.942L9.078 16.503L8.98599 16.49L8.38 16.828L8.229 16.966L8.104 17.166L7.936 17.597L7.66101 17.346L7.423 16.887L7.146 16.604L6.56299 16.149L6.40701 15.813L5.73999 15.074L4.78201 14.335L4.08899 13.694L3.98401 13.552L4.10101 13.569L4.76999 13.889L4.86099 13.853L4.93799 13.781L4.64999 13.613L4.37399 13.481L4.11499 13.399L3.85599 13.406L3.711 13.271L3.617 13.065L3.569 12.889L3.45401 12.704L3.08701 12.324L2.99799 12.177L2.797 11.977L2.91901 11.95L3.31299 12.142L3.34799 12.065L3.314 11.953L2.918 11.771L2.70401 11.759L2.65399 11.631L2.68301 11.483L2.39999 10.93L2.10599 10.515L2.06 10.319L2.853 11.221L2.95901 11.236L3.099 11.228L3.427 11.127L3.36401 11.006L3.216 10.877L3.073 10.937L2.88599 10.949L2.78799 10.895L2.74399 10.802L2.931 10.364L2.85001 10.387L2.79099 10.464L2.68799 10.502L2.53 10.524L2.13901 10.29L1.79501 9.65796L1.70401 9.52798L1.612 9.30798L1.521 9.21698L1.125 8.31796L1.276 8.38498L1.457 8.64496L1.80801 8.58997L1.94501 8.43997L2.064 8.44498L2.18701 8.41098L2.341 8.26898L2.79099 7.64896L2.91 6.83298L2.871 6.34796L2.80499 5.86597L2.95401 5.71198L3.013 5.81396L3.04199 5.98495L3.112 6.11197L3.272 6.22498L3.57001 6.25497L4.03 6.43396L4.194 6.54697L4.23901 6.31998L4.76901 6.12698L4.608 6.05798L4.138 6.13397L3.492 5.84497L3.27701 5.66196L3.077 5.31296L2.87 5.13098L2.884 4.96796L3.34799 4.81696L3.47101 4.83398L3.51999 5.01398L3.64499 5.08798L3.69199 5.06296L3.71301 4.90997L3.71399 4.49796L3.573 3.90698L3.616 3.79297L3.74301 3.75198L3.85599 3.67398L3.935 3.65997L4.09201 3.67398L4.17099 3.81097L4.21399 3.88596L4.37299 3.92096L4.50299 3.99396L4.61499 3.97397L4.70801 3.88898L4.84399 3.87097L5.267 3.87296L5.64999 3.87396L6.41199 3.87598L7.17499 3.87897L7.93799 3.88098L8.51199 3.88297L8.51001 3.54596L8.50699 3.02496L8.504 2.40897L8.5 1.81796L8.49701 1.27197L8.49399 0.626984L8.52499 0.440979L8.56299 0.36496L8.54901 0.257965L9.14001 0.250977L10.208 0.297974L10.675 0.291962L10.808 0.300964L11.392 0.267975L11.864 0.30896L12.065 0.353973L12.246 0.376984L12.812 0.404968L13.551 0.369965L13.802 0.37796L13.941 0.467957L14.008 0.642975Z" fill="#CCCCCC" stroke="white" stroke-width="0.5"/>
</svg>
