<svg width="29" height="56" viewBox="0 0 29 56" fill="none" xmlns="http://www.w3.org/2000/svg">
<path d="M20.7089 51.9512L20.4739 52.1032L20.3999 52.2822L20.3429 52.3522L20.1879 52.3982L20.0339 52.3992L19.4479 52.0412L19.3129 52.0572L19.4469 51.8932L19.8109 51.7592L20.0159 51.5822L20.4889 51.7532L20.7089 51.9512ZM11.9209 39.9812L12.0389 40.0682L12.3349 40.0542L12.2369 40.2482L11.9109 40.4642L11.6919 40.6772L11.4269 40.8552L11.2989 40.6502L11.1499 40.6582L10.9219 40.2642L10.8809 39.6742L11.1789 39.5202L11.5909 39.5292L11.9209 39.9812ZM5.80789 30.7692L6.20389 30.8922L6.49887 30.8902L6.76086 31.2472L6.90088 31.8092L7.22787 32.3632L7.65588 32.8432L7.67288 33.1362L7.51987 33.2932L7.20087 33.4882L7.20187 33.6972L7.41287 33.5922L7.59488 33.5442L8.03287 33.5902L8.18588 33.8022L8.29187 34.1192L8.34787 34.3792L8.30988 34.6612L8.19186 34.5712L8.07187 34.3192L7.93887 34.2032L7.78387 34.1402L7.85388 34.4872L7.82587 34.9502L7.89288 34.9932L8.10089 35.0012L7.96387 35.4732L7.67886 35.6012L7.34787 35.6492L7.26788 35.8162L7.20789 36.0312L7.03488 36.3512L6.80688 36.5322L6.52487 36.4952L6.24887 36.3522L6.00787 36.3232L5.83987 36.4082L5.73087 36.4872L5.62488 36.4732L5.32187 36.5032L5.03687 36.4972L4.99588 36.3722L5.04489 35.9962L4.98087 35.8942L4.70889 35.8422L4.60788 35.7522L4.45087 35.4922L4.41989 35.3702L4.39789 35.2022L4.23187 34.9852L4.03088 34.8292L3.91287 34.8212L3.67789 35.0752L3.48389 35.3322L3.55188 35.4612L3.61487 35.6302L3.50989 35.7522L3.19089 36.0302L3.14087 36.1382L3.05487 36.1972L2.90289 36.1202L2.52386 36.1382L2.34988 36.0892L2.14688 35.8842L1.65189 35.7472L1.56888 35.4182L1.47388 35.3562L0.912872 34.7912L0.837891 34.6022L0.910889 34.4892L1.11987 34.3182L1.82288 34.0342L1.93387 33.9202L1.95688 33.8192L1.74988 33.7042L1.56387 33.5762L1.50089 33.4932L1.49588 33.4202L1.60187 33.3252L1.81387 33.3182L1.98187 33.3612L2.11487 33.2762L2.34888 33.1902L2.50589 33.0822L2.64087 32.8032L2.78387 32.5522L2.79889 32.4162L2.92389 31.9372L2.99289 31.8182L3.43689 31.5042L3.54889 31.6762L3.76788 31.7182L3.96387 31.5602L4.19888 31.0612L4.36188 31.0302L4.54187 31.0712L4.89587 31.0082L5.52386 30.7752L5.80789 30.7692ZM9.37088 29.7492L9.01688 29.7532L8.88889 29.7102L8.73587 29.5902L8.56387 28.9102L8.62589 28.6692L8.69589 28.5512L8.77386 28.4592L8.96088 28.4212L9.14688 28.5502L9.21689 28.6702L9.37286 29.1302L9.40189 29.5242L9.37088 29.7492ZM6.49887 27.3552L6.59988 27.9962L6.69888 28.3922L6.70587 28.5272L6.61288 28.7152L6.14987 28.9652L6.00388 28.9662L5.99786 28.9052L6.10187 28.6512L6.01187 28.3622L6.05588 28.1422L6.01288 28.1022L5.92288 28.1332L5.59088 28.4822L5.47989 28.5162L5.46786 28.4452L5.54987 28.1592L5.55988 27.9632L5.60889 27.8432L5.69888 27.7322L5.80588 27.6492L5.89288 27.6372L5.98486 27.7232L6.25287 27.4832L6.49887 27.3552ZM6.94489 27.9352L6.88586 27.9882L6.74387 27.9732L6.69089 27.8922L6.66187 27.7682L6.65887 27.5412L6.74487 27.3782L7.10889 27.1322L6.94388 27.0452L6.93787 26.9832L7.03189 26.7782L7.42288 26.4592L7.52789 26.4012L7.63187 26.4102L7.42987 26.9762L6.94489 27.9352ZM7.48389 25.2762L6.36588 25.5572L5.98087 25.5322L5.94589 25.3942L6.02289 25.3022L6.34189 25.2132L6.47089 24.5362L5.98889 24.2232L5.96387 24.1362L6.00189 23.9872L6.05789 23.9202L6.34988 23.7622L6.47287 23.7272L6.57288 23.7482L6.77887 23.9312L7.01086 24.3142L7.32187 24.3752L7.53287 24.5372L7.48389 25.2762ZM5.15488 24.0562L4.99588 24.0842L4.98389 24.0122L5.26086 23.6682L5.43988 23.6112L5.50287 23.6452L5.37286 23.8452L5.15488 24.0562ZM2.88388 22.1112L2.63687 22.1812L2.54587 22.1402L2.52988 22.0752L2.58588 21.8982L2.77487 21.8352L2.91187 21.9312L2.93387 22.0182L2.88388 22.1112ZM6.07788 22.1152L5.99487 22.1812L5.88989 22.1682L5.78589 22.0832L5.64789 21.8412L5.95789 21.6732L6.08188 21.7722L6.12888 21.8852L6.13089 22.0102L6.07788 22.1152ZM3.35287 21.3392L3.23389 21.3682L3.07889 21.3402L2.98288 21.2602L2.88586 20.9432L2.86789 20.7512L2.91089 20.3932L2.90088 19.9642L3.22089 19.9512L3.30386 20.0132L3.35889 21.2842L3.35287 21.3392ZM6.45486 19.3192L6.45087 19.5492L6.40088 19.8202L6.46487 20.1072L6.47989 20.3122L6.59787 20.3772L6.66989 20.4712L7.19589 20.5762L7.68488 20.5462L7.77887 20.6302L7.78989 20.7642L7.71289 20.9112L7.43387 21.1792L7.10187 21.6122L7.00287 21.7022L6.89587 21.7062L6.81888 21.6672L6.76389 20.8972L6.40387 20.9962L6.11389 20.9852L5.95486 20.8912L5.84387 20.7102L5.61887 20.2442L4.96487 20.0602L4.77988 19.8022L4.72388 19.6462L4.74689 19.5602L4.88287 19.3682L5.05289 19.4362L5.15787 19.3942L5.22186 19.3082L5.22089 19.2372L5.13187 19.0702L5.12787 19.0182L5.79688 18.8062L5.85587 18.4742L6.00089 18.4472L6.16687 18.5562L6.39389 18.9012L6.45486 19.3192ZM3.47687 18.3892L3.79388 18.6832L3.54187 19.1712L3.15488 19.1692L2.60986 18.8132L2.60788 18.7402L2.65289 18.6332L2.73486 18.5482L2.81989 18.5282L2.95486 18.5862L3.14288 18.4922L3.29288 18.5222L3.47687 18.3892ZM6.30289 14.7902L5.94589 15.7192L5.80588 15.7422L5.68289 15.9742L5.30289 16.2292L5.63489 16.2342L5.72787 16.3192L5.72989 16.5022L5.66687 16.6082L5.23788 17.0302L4.94287 17.1902L4.62488 17.6302L4.46387 17.6352L4.30487 17.9142L4.17487 18.0372H4.10089L4.01688 17.9752L3.81989 17.7022L4.17789 17.4332L4.21088 17.2822L4.45587 17.1242L4.43488 17.0752L4.04587 16.8532L3.89288 16.7042L3.90689 16.6262L4.09387 16.4542L4.00589 16.4322L3.94589 16.3392L3.83789 16.3032L3.80487 16.2172L3.78488 15.9892L3.81387 15.7562L3.92688 15.6532L3.97287 15.5432L4.01889 15.5092L4.19388 15.5682L4.37189 15.7552L4.57986 15.6832L4.82089 15.7182L4.82587 15.6752L4.64886 15.2162L4.68088 15.1222L4.77689 15.0152L5.33289 14.6862L6.02588 14.1322L6.19388 14.0452L6.24487 14.1212L6.31488 14.4082L6.30289 14.7902ZM14.9719 13.9752L14.9959 14.4132L14.9629 14.5462L14.8959 14.7102L14.6839 15.0152L14.1259 15.4502L13.1049 16.4462L12.5009 16.9382L12.4179 17.1742L12.3729 17.5022L12.7339 17.5672L12.8739 17.6782L12.7879 17.8442L12.2529 18.4212L12.0959 18.9412L12.5059 18.9222L12.8439 18.8222L13.5169 18.4982L14.1499 18.2572L14.4539 18.2472L15.0449 18.4392L15.1789 18.4452L15.4299 18.3562L15.6839 18.3402L17.4019 18.4002L17.8799 18.2872L18.1959 18.4222L18.4599 18.7582L18.7109 19.3772L18.7029 19.4802L18.5509 19.7612L18.2709 20.1132L18.0299 20.5972L17.9599 20.8572L17.9129 21.1422L17.8369 21.4052L17.3579 22.6352L16.8909 23.3132L16.6829 23.7932L16.4259 24.1742L16.1779 24.4142L15.9139 24.5742L15.1499 24.7442L14.9359 24.8662L14.6809 25.0752L14.4129 25.1792L14.7269 25.1662L15.0379 25.0502L15.6049 25.0082L16.2569 25.4082L16.1959 25.7352L15.9339 25.9932L15.3379 26.0342L14.7809 26.6072L14.5299 26.7832L14.2639 26.8702L13.9319 26.8442L13.3289 26.6912L13.0649 26.5312L13.3029 26.7922L13.5739 26.9282L15.1429 27.2492L15.2379 27.2152L15.7379 26.8772L16.4049 26.8722L17.6739 27.4942L18.0389 27.9692L18.5629 28.6462L18.8479 28.9102L19.0539 29.1492L19.1809 29.5062L19.4269 30.6822L19.7079 31.8242L20.0749 33.0542L20.2419 33.3942L20.4609 33.6322L21.5689 34.1782L21.8159 34.3592L22.2459 34.8832L22.6609 35.4402L23.0469 35.8672L23.4639 36.2122L23.2619 36.3912L23.1239 36.6722L23.2279 37.0532L23.3969 37.4162L23.7299 37.9962L24.0239 38.6272L23.9159 38.5322L23.8019 38.4802L23.6459 38.4962L23.4939 38.4662L23.2129 38.2682L22.9429 38.0252L22.4059 38.1232L22.1079 38.0792L21.8489 38.0862L22.3399 38.2262L22.8769 38.2362L24.0609 39.2932L24.4609 39.9172L24.6989 40.7382L24.5369 41.1062L24.2849 41.3442L24.0499 41.6152L23.8289 41.9222L24.4859 42.3712L24.6279 42.3582L24.7729 42.2952L24.9129 42.1422L25.1479 41.7692L25.2689 41.6372L25.6779 41.5892L26.0209 41.6182L26.3619 41.7012L26.6629 41.6752L27.2679 41.8352L27.5789 41.9792L28.3499 42.6262L28.5169 42.9802L28.5939 43.4362L28.6029 43.9402L28.4729 44.3992L28.3239 44.8132L28.2319 45.3462L28.1669 45.5382L28.0759 45.6882L27.6679 46.1072L27.3969 46.2792L27.2829 46.2042L27.1599 46.2142L27.1469 46.3152L27.2759 46.5282L27.2769 46.7852L27.0359 46.9752L26.7909 47.0562L26.3809 46.9552L25.8119 47.3092L26.2209 47.4912L26.3039 47.6842L26.2019 48.0232L25.9449 48.1742L25.6589 48.2412L25.3669 48.2572L25.1249 48.3402L24.8929 48.5002L25.1839 48.4162L25.3859 48.4902L25.5129 48.7742L25.6279 48.8562L26.1979 48.9772L26.5499 48.9762L27.2299 48.9072L27.5569 48.9082L27.6729 48.9602L27.6749 49.1952L27.6249 49.7712L27.5349 49.8902L26.6339 50.3722L26.4489 50.7082L26.3979 50.9112L25.8709 50.8752L25.6239 51.0902L25.1969 51.2332L24.8669 51.3842L24.5439 51.5752L24.2779 51.6322L23.1309 51.4052L22.4379 51.4242L21.4989 51.6222L21.2569 51.5892L20.8949 51.4002L20.5229 51.2722L20.0959 51.2162L19.7269 51.0402L19.9569 51.3772L19.4459 51.7022L19.2099 51.7662L18.9649 51.7562L18.4649 51.8442L17.9999 51.7962L18.0699 52.0262L18.1939 52.2272L18.0929 52.3142L17.9869 52.3362L17.1049 52.1852L16.9799 52.2132L16.8709 52.3532L16.5499 52.2782L16.2379 52.0432L15.9069 51.8842L15.5589 51.8092L15.2829 51.8352L14.1459 52.2072L13.9189 52.5792L13.8049 53.1062L13.6409 53.5732L13.3729 53.9322L13.0539 53.9792L12.7539 53.7302L12.1839 53.4562L11.9899 53.2702L11.9279 53.2592L11.8639 53.3252L11.6399 53.4092L11.4089 53.4132L11.0519 53.4872L10.4309 53.7102L10.1799 53.8612L9.64087 54.2782L9.53088 54.3932L9.33487 54.8122L9.03589 54.8862L8.76187 54.6182L8.44989 54.5242L8.12088 54.6152L7.92188 54.7582L7.82889 54.6422L7.82587 54.4042L8.06589 54.1202L8.70688 53.9052L9.26987 53.3462L9.54587 53.0052L9.65588 52.8122L9.79086 52.6892L9.96689 52.6432L10.0579 52.4302L10.8389 51.5722L10.9029 51.3752L10.9419 51.0212L11.0059 50.6802L11.6419 50.4592L11.9459 49.7402L12.0299 49.6832L12.9169 49.5512L13.5749 49.5622L14.2289 49.7032L14.5639 49.7162L14.8999 49.6672L15.1639 49.4722L15.6149 48.7682L15.8689 48.4572L16.1599 48.1762L16.4319 47.8552L16.8729 47.2592L16.5749 47.4652L16.2149 47.7912L16.0059 47.9802L15.3419 48.1702L15.0559 48.3642L14.5549 48.8012L14.4589 48.8372L13.7029 48.7322L13.1409 48.1652L12.7819 47.9332L12.6339 47.9062L12.4799 47.9752L12.1519 48.0462L11.8179 48.0342L11.9889 47.7712L12.2209 47.6242L11.7009 47.5222L11.5559 47.4422L11.3909 47.2572L10.9829 47.2262L10.7889 47.2732L10.4609 47.5172L9.94287 47.7762L9.31787 47.4172L9.19589 47.2602L9.19888 46.9552L9.10489 46.7132L8.93188 46.6282L9.15289 46.3132L9.42087 46.1032L10.0089 45.8942L10.8999 45.3972L11.3999 45.1852L11.8639 44.8192L12.0559 44.5952L12.1949 44.2882L12.3329 43.9122L12.5299 43.6052L12.3389 43.5322L12.2529 43.3012L12.2759 43.0662L12.3639 42.8572L12.2849 42.5952L12.1439 42.3212L12.1519 42.1072L12.1899 41.8782L11.8319 41.8902L11.4749 41.9622L11.1509 42.1242L10.8369 42.3442L10.5579 42.3852L10.5619 42.2092L10.6829 41.9912L10.9989 41.6792L11.3369 41.4202L11.4569 41.2232L11.5519 40.9942L11.7199 40.8102L12.1619 40.4622L13.0089 40.0702L13.1349 40.0472L13.4669 40.0932L13.7939 40.0332L14.0799 39.8922L14.3649 39.8622L15.0069 40.2692L14.8159 39.6392L15.0989 39.4882L15.5089 40.0582L15.6609 40.1182L15.9829 40.0352L15.8589 39.9392L15.7139 39.9332L15.5239 39.8472L15.3639 39.6642L15.0979 39.0822L15.1129 38.7362L15.2919 38.3762L15.4899 38.0442L15.3239 37.9782L15.1909 37.8512L15.1529 37.5182L15.2049 37.2232L15.5609 36.9632L15.6659 36.5672L15.7099 36.1302L15.6509 35.9292L15.2969 35.9612L15.1249 36.0432L14.9709 36.1722L14.8129 36.1642L14.3759 35.6802L14.1269 35.3132L13.6799 34.5352L13.6169 34.0682L13.9739 33.0582L14.5259 32.4092L15.1759 32.1822L15.0499 32.1392L14.0589 32.1302L13.7319 32.2102L13.4289 32.4762L13.2579 32.5582L13.0779 32.5882L12.9139 32.7202L12.7539 32.9032L12.5869 33.0212L12.2559 32.9902L12.0959 33.0292L11.9809 32.9232L11.8839 32.7482L11.7579 32.7012L11.6169 32.7552L11.3189 32.9912L11.0169 33.1302L10.6519 32.9812L10.1729 32.7032L10.0789 32.8052L9.97287 33.0632L9.91187 33.4642L9.57187 33.1152L9.28287 32.6482L9.18488 32.3542L9.17789 32.0222L9.33487 31.8932L9.50589 32.0112L9.75989 31.2222L10.2659 30.1902L10.4449 29.8872L10.5699 29.4902L10.5489 29.2302L10.4379 29.0102L9.96689 28.5102L9.97287 28.1012L10.0229 27.6392L10.1509 27.3612L10.2049 27.3082L10.8299 27.3152L10.5859 27.1712L10.0999 26.7522L10.1089 26.6032L10.2229 26.2142L10.1699 26.2532L10.0659 26.4332L9.86688 26.8682L9.74588 26.9692L9.40189 27.0722L9.33887 27.2852L9.28387 27.3412L9.11288 27.3652L9.05988 27.5642L9.02188 27.5772L8.97287 27.3632L8.96786 27.0072L9.03589 26.6792L9.16586 26.4222L9.66989 25.8372L9.42487 26.0182L8.86887 26.5592L8.58487 26.9142L8.50888 27.0342L8.48587 27.1352L8.48688 27.2512L8.61389 27.8722L8.57687 28.1592L8.09787 30.0442L8.00687 30.2322L7.92389 30.3302L7.84488 30.3532L7.60889 30.3172L7.50388 30.1762L7.50488 30.0172L7.54889 29.7782L7.74786 28.8852L7.83389 28.6362L7.96188 28.4042L8.24387 27.9982L8.23688 27.9712L8.04889 28.0512L7.96887 28.0252L7.91089 27.9442L7.94788 26.7332L8.10089 26.3332L8.15787 25.7502L8.28989 25.2492L8.44287 24.8832L8.55988 24.4142L8.73486 24.2052L8.78189 23.8852L8.97888 23.5382L9.13089 23.1752L9.04889 23.2112L8.07587 24.1552L7.82788 24.3262L7.48987 24.2802L7.23187 24.1742L7.02988 23.9512L6.93988 23.5222L6.69089 23.5112L6.47787 23.4372L6.47989 23.3792L6.75488 23.1452L7.19589 23.0652L7.60889 22.6892L7.24188 22.4352L7.27289 22.3542L7.59286 22.1372L7.99988 21.4082L8.08188 20.7352L7.88788 20.4182L7.81787 20.2102L7.42886 19.9782L7.36389 19.6812L7.40887 19.5142L7.53589 19.3512L7.72687 19.2252L8.02689 19.1032L7.75488 18.9732L7.65289 18.8192L7.57587 18.5962L7.56888 18.4672L7.70987 17.8912L7.79187 17.6532L7.95288 17.3492L8.68088 17.3662L8.76489 17.2322L8.84787 17.2272L9.21988 17.3502L9.16489 17.2182L8.55588 16.4932L8.50089 16.3552L8.67487 15.9632L8.68689 15.7882L8.66187 15.6012L8.71188 15.4582L8.90488 15.3912L9.49289 15.3972L9.63788 15.3312L9.57187 15.1412L9.43488 14.8912L9.40787 14.6812L9.43988 14.4952L9.44687 14.1202L9.47388 13.9542L9.61389 13.7052L9.72888 13.6312L9.87189 13.5882L10.1949 13.6712L10.3179 13.7712L10.4599 14.0082L10.5639 13.9892L10.9659 13.7312L11.0869 13.6942L11.2519 13.9932L11.9389 13.7552L12.8619 13.6492L13.4169 13.4922L14.0009 13.4352L14.5459 13.2562L15.1239 13.3382L15.1439 13.4422L15.1139 13.5862L14.9719 13.9752ZM15.4789 12.7582L15.4519 12.7742L15.3489 12.6752L15.1809 12.3202L15.4459 12.2492L15.5709 12.2932L15.5239 12.4442L15.4789 12.7582ZM14.8169 12.4742L14.6559 12.5462L14.4969 12.5412L14.2489 12.2282L14.1549 12.0002L14.1719 11.8492L14.2759 11.7982L14.5159 11.8722L14.6399 12.1332L14.6559 12.3022L14.6849 12.3682L14.8339 12.4352L14.8169 12.4742ZM15.1189 11.1972L15.0809 11.3312L15.2939 11.3282L15.6029 11.4422L15.7899 11.4562L15.9459 11.5982L15.8599 11.8632L15.7669 11.9382L15.6619 11.9532L15.2939 11.6882L14.8119 11.7982L14.7159 11.7642L14.6529 11.6912L14.6269 11.6002V11.4142L14.6009 11.3592L14.4259 11.5352L14.3499 11.5142L14.3069 11.4302L14.2879 11.2562L14.3069 11.0052L14.4099 10.6462L14.5829 10.5742L14.8409 10.6162L15.1369 10.8192L15.2259 10.9442L15.2239 11.0442L15.1189 11.1972ZM16.5459 10.0952L16.2289 10.1012L16.3929 9.77721L16.5839 9.69522L16.9449 9.73122L16.8809 9.87721L16.5459 10.0952ZM16.0399 10.3392L15.7989 10.4752L15.6959 10.3632L15.6689 10.0112L15.3819 9.86021L15.2419 9.76622L15.1339 9.58821L15.1609 9.53322L15.3479 9.46022L15.6679 9.78322L15.7989 10.0432L16.0359 10.1202L16.0659 10.1602L16.0399 10.3392ZM20.0279 2.80121L20.0859 3.20221L20.2309 3.09822L20.4499 3.48221H20.5619L20.7459 3.33022L20.7089 3.68721L20.5179 4.67421L20.4639 4.84122L20.4279 5.14021L20.3899 5.19922L20.3339 5.80222L20.2049 6.00021L20.0969 6.47221L20.0529 6.51822L19.8949 6.33722L20.0529 5.61621L20.1179 5.19621L20.0759 4.97821L19.9869 4.78122L19.7449 4.77521L19.5409 4.86621L19.4979 4.75021L19.4919 4.59421L19.4429 4.54222L19.1719 4.55321L19.0919 4.51021L19.0389 4.36621L19.0289 4.25122L19.2739 4.16121L19.5039 4.19522L19.8399 3.96622L19.6299 3.19722L19.3509 3.12421L19.2869 3.04921L19.3409 2.91821L19.4939 2.84721L19.7289 2.45421L19.8699 2.39221L20.0449 2.40321L20.0279 2.80121ZM20.7739 2.93622L20.7029 3.00122L20.4289 2.42221L20.6319 1.75722L20.8779 1.77821L20.9169 1.95221L20.8929 2.11322L20.7679 2.12721L20.7569 2.17621L20.7959 2.48521L20.7979 2.84322L20.7739 2.93622ZM21.5259 1.23021V1.29622L21.3799 1.78021L21.3819 1.96521L21.1469 1.94722L21.1099 1.88821L21.0659 1.61121L21.0959 1.31621L21.1289 1.23921L21.1969 1.20821L21.2709 1.26622L21.3879 1.11621L21.4489 1.11922L21.5259 1.23021Z" fill="#CCCCCC" stroke="white" stroke-width="0.5"/>
</svg>
