<svg width="20" height="11" viewBox="0 0 20 11" fill="none" xmlns="http://www.w3.org/2000/svg">
<path d="M19.0045 6.6879L18.9364 6.8219L18.7755 7.06491L18.6474 7.1889L18.5054 7.20892L18.3644 7.2659L18.3154 7.3959L18.3094 7.5639L18.3334 7.68491L18.3694 7.72992L18.5134 7.7699L18.6555 8.12289L18.8784 8.3009L19.2264 8.5029L19.5354 8.73392L19.6864 8.94592L19.6574 9.09991L19.5565 9.41791L19.2984 9.68292L19.0834 9.74991L19.0074 9.72491L18.8674 9.64291L18.5844 9.4379L18.2774 9.27591L18.0414 9.32892L17.8864 9.38992L17.5794 9.3179L17.2164 9.17792L17.0274 9.03992L16.9444 8.9379L17.0004 8.7569L16.1774 8.4299L15.7805 8.3389L15.6014 8.4379L14.9964 8.9299L14.9244 8.97992L14.4624 9.04791L14.4614 9.08792L14.5664 9.19391L14.5464 9.2269L13.7714 9.23792L13.5134 9.30191L12.8234 9.2189L12.5964 9.25592L12.4024 9.33292L11.9304 9.4209L11.6044 9.5239L11.1884 9.57791L10.7594 9.58292L10.6124 9.61392L10.6184 9.54291L10.5954 9.4339L10.5084 9.35492L10.3864 9.3049L10.1624 9.32391L9.95544 9.2709L9.80841 9.1329L9.77441 9.02692L9.85944 8.94092L9.79742 8.8699L9.53943 8.69992L9.11743 8.2749L8.87842 8.1799L8.78345 7.9129L8.68842 7.8559L8.48743 7.8309L8.27545 7.8569L8.22943 7.8869L8.16443 7.9299L7.99841 8.26291L7.88141 8.37592L7.5954 8.32291L7.3584 8.2449L7.16541 8.2009L6.79041 8.17291L6.36444 8.1669L6.07745 8.4039L5.95343 8.37289L5.73541 8.2569L5.38342 8.16092L5.19745 8.08591L5.73541 7.3829L5.89545 6.9639L5.90045 6.7099L5.90741 6.38992L5.62744 5.72391L5.38745 4.77591L5.13745 3.78391L4.94244 3.4859L4.12744 3.1409L3.93842 2.7489L3.30743 2.24191L2.43042 2.0209L2.25641 1.92691L1.49445 1.2869L0.898438 0.873901L1.02643 0.623901L1.19641 0.359894L1.38043 0.295898L1.91943 0.399902L2.41644 0.518921L2.77844 0.433899L3.20941 0.641907L3.60345 0.879913L3.99945 1.04791L4.77142 1.20691L5.05945 1.4259L5.39545 1.6449L6.7124 1.75592L6.81842 1.72189L6.91541 1.68991L7.35742 1.6109L7.74841 1.62491L8.16144 1.8909L8.42542 1.87491L8.7074 1.8349L9.07043 1.9769L9.35541 2.13492L9.37946 2.29391L9.62946 2.52591L10.3554 2.87891L10.9444 3.07892L11.1274 3.2189L11.5754 3.44992L11.6204 3.52292L11.6115 3.61792L11.4834 3.79089L11.4514 3.94391L11.5114 4.0329L11.6974 4.11691L12.0654 4.13589L12.1984 4.02591L12.4734 3.9469L12.7464 3.8049L13.1104 3.61591L13.6054 3.44391H13.8034L13.9934 3.49692L14.1264 3.59192L14.3494 3.94492L14.5724 3.4509L14.6295 3.41391L14.8334 3.51392L15.1924 3.65091L15.4414 3.72391L15.5764 3.8259L15.9564 4.27591L16.5714 4.2529L16.8314 4.3219L16.9714 4.3959L17.0334 4.48291L16.9234 4.92889L16.7714 5.39291L16.7844 5.50391L17.0305 5.67889L17.3665 5.86292L17.5464 6.01089L17.6694 6.14392L17.9344 6.2449L18.2474 6.30692L18.3954 6.31491L18.5504 6.42691L18.9534 6.63589L19.0045 6.6879Z" fill="#CCCCCC" stroke="white" stroke-width="0.5"/>
</svg>
