<svg width="10" height="12" viewBox="0 0 10 12" fill="none" xmlns="http://www.w3.org/2000/svg">
<path d="M9.73691 5.33893L9.6499 5.39893L9.41589 5.53094L9.3089 5.70593L9.24591 5.87494L9.10092 5.98895L8.96191 6.13394L8.91791 6.24994L8.78891 6.34293L8.76392 6.49695L8.43692 7.04092L8.30591 7.28494L8.11792 7.54495L8.00092 7.64194L7.84192 7.79593L7.76089 7.97495V8.15994L7.6499 8.38095L7.58792 8.57193L7.48291 8.68295L7.2059 9.28693L7.19189 9.49493L7.12592 9.61795L6.92889 9.90594L6.7959 10.0789L6.5629 10.209L6.31891 10.3499L6.2269 10.5039L6.05389 10.5819L5.92792 10.5869L5.72491 10.5309L5.44992 10.5039L5.31091 10.5219L5.24789 10.446L5.1539 10.2709L5.01691 10.1459L4.92889 10.1889L4.7439 10.3139L4.52692 10.3879L4.37289 10.3629L4.0369 10.2769L3.89392 10.2329L3.85092 10.1589L3.8009 10.1039L3.7269 10.1279L3.6279 10.2209L3.49591 10.3169L3.2999 10.4449L2.89691 10.674L2.78391 10.756L2.6799 10.7109L2.50891 10.6659L2.3269 10.6639L1.9339 10.515L1.70392 10.4089L1.60391 10.2759L1.48792 10.2189L1.41992 10.1819L1.4519 10.157L1.55389 10.1379L1.6449 10.1359L1.7869 9.93295L2.0209 9.80594L2.42889 9.10294L2.60092 8.81195L2.62192 8.65295L2.66992 8.32095L2.57892 7.91693L2.62192 7.80392L2.97189 7.31693L3.12289 7.05093L3.1319 6.82193L3.1759 6.65695L3.1329 6.57095L3.05292 6.54593L2.91891 6.33194L2.83292 6.15494L2.59491 5.97293L2.43192 5.78693L2.16492 5.35895L2.1889 5.11893L2.11292 5.03293L2.03091 4.94394L2.0369 4.83594L1.9809 4.56595L1.9129 4.31393L1.8869 4.15393L1.95392 3.87994L1.91391 3.57593L1.8269 3.41592L1.80292 3.17093L1.82092 2.95294L1.8949 2.82895L1.87991 2.67593L2.2179 2.18893L2.47491 1.90695L2.71091 1.70895L2.90991 1.56094L3.17889 0.820953L3.3739 0.560944L3.57791 0.522949L4.6799 1.13593L5.1969 1.19293L6.23792 1.52393L6.6149 1.94794L7.48792 2.65393L7.9469 2.87595L7.9509 3.06094L7.85092 3.35495L8.1449 3.09793L8.59891 3.50494L8.72791 3.70395L8.8689 4.07193L8.81992 4.30893L8.7569 4.43094L8.75391 4.52594L8.88892 4.39493L8.9649 4.29193L8.98792 4.04495L9.0979 3.73895L9.24591 3.73294L9.36392 3.91592L9.60791 4.70895L9.69992 4.87094L9.73489 5.12292L9.72189 5.23492L9.73691 5.33893Z" fill="#CCCCCC" stroke="white" stroke-width="0.5"/>
</svg>
