<svg width="14" height="19" viewBox="0 0 14 19" fill="none" xmlns="http://www.w3.org/2000/svg">
<path d="M9.50668 0.483887L9.6857 0.654877L9.72571 0.752869L9.66071 1.12189L9.52869 1.37888L9.44571 1.62088L9.4577 1.74088L9.53769 1.86188L9.8107 2.05087L9.94971 2.17389L10.1157 2.35986L10.3057 2.54187L10.6307 2.77887L10.7687 2.82187L10.7617 2.88788L10.7167 2.97888L10.6867 3.86087L10.6617 4.08887L10.6387 4.20389L10.6077 4.53287L10.5737 4.57986L10.5127 4.57587L10.4557 4.58887L10.4417 4.65387L10.4647 4.72186L10.6607 4.76889L10.6177 4.81888L10.4727 4.86389L10.4047 4.96289L10.4347 5.07587L10.3537 5.16687L10.3767 5.22787L10.4287 5.27188L10.5117 5.25589L10.7407 5.10388L10.8367 5.08789L10.9557 5.11887L11.1747 5.35089L11.1837 5.46387L11.0947 5.85089L11.0077 6.14987L10.9917 6.54889L11.0837 6.77188L11.0707 6.89487L10.9707 7.00089L10.7447 7.15488L10.7617 7.25989L10.8647 7.45587L11.0557 7.67389L11.4287 7.94388L11.6247 8.29489L11.6297 8.43787L11.5157 8.58087L11.3807 8.70486L11.3367 8.88388L11.3977 10.0599L11.1027 10.5699L11.0997 10.7159L11.1297 10.8839L11.2077 10.9869L11.3577 11.0149L11.4807 11.1129L11.4377 11.4709L11.3727 11.8349L11.3617 12.0119L11.3257 12.0959L11.2087 12.1639L11.1667 12.2789L11.1967 12.4209L11.1747 12.5259L11.2367 12.6619L11.3717 12.8309L11.5877 13.2509L11.6697 13.2839L11.7077 13.3729L11.6837 13.4579L11.7677 13.6439L12.0077 13.8299L12.2597 13.9919L12.4637 14.0149L12.5117 14.1599L12.6457 14.3449L12.7427 14.4259L12.8977 14.4789L13.0247 14.5069L13.0317 14.6629L12.8017 14.7689L12.6467 14.9299L12.5287 15.1749L12.3647 15.4449L11.8007 15.5849L11.5847 15.5859L10.4277 15.5929L9.3447 16.1229L8.7207 16.3119L8.3367 16.6099L7.82071 16.8219L7.46069 17.0799L6.7117 17.2029L5.48468 17.6069L5.10071 17.7679L4.71271 18.0489L4.0817 18.3779L3.8327 18.3739L3.33868 18.0659L2.96671 17.9119L2.0567 17.6759L1.37769 17.5839L1.04968 17.4829L0.959686 17.4659L1.03668 17.3549L1.22668 17.3479L1.42468 17.3809L1.57568 17.2969L1.79669 17.2859L1.85471 17.1969L1.87268 16.9749L1.8707 16.7949L1.94769 16.7149L1.96768 16.5029L1.8587 16.0339L1.78171 15.9799L1.38568 15.9139L1.35568 15.8199L1.2847 15.7219L1.20871 15.4799L1.12268 15.1199L0.983704 14.6729L0.716705 13.9369L0.650696 13.6759L0.605682 13.4109L0.595703 13.0939L0.650696 12.9759L0.6427 12.8119L0.617706 12.6479L0.805695 12.2729L1.17371 11.8129L1.2507 11.6469L1.3197 11.5319L1.32968 11.3659L1.39468 10.8299L1.57071 10.1819L1.6817 9.93689L1.75668 9.80386L1.84668 9.58789L1.86969 9.48688L2.20871 9.23187L2.36469 9.16388L2.39969 9.06287L2.34668 8.95389L2.36969 8.87888L2.45068 8.84189L2.57568 8.81189L2.66669 8.70688L2.52368 7.90588L2.40768 7.10687L2.4007 7.03888L2.3327 6.92886L2.26471 6.59888L2.14969 6.40488L1.98969 6.34888L1.99069 6.16687L2.1517 5.85788L2.1937 5.67789L2.1167 5.62387L2.10568 5.48288L2.16071 5.25589L2.1337 5.11588L2.1037 4.96786L1.93671 4.61688L1.89569 4.36789L1.98169 4.22287L1.9787 3.90488L1.8887 3.41388L1.87369 3.10388L1.9357 2.97488L1.9057 2.85089L1.78369 2.73389L1.77469 2.62088L1.87869 2.50989L1.86569 2.42389L1.73669 2.36087L1.6217 2.20889L1.51871 1.96988L1.5397 1.58487L1.7327 0.876892L1.75668 0.817871L1.97571 0.821869L1.97668 0.851868L2.65768 0.844879L3.4357 0.836884L4.36469 0.827881L5.20969 0.819885L5.2467 0.787872L5.38669 0.748871L6.23969 0.820892L6.77368 0.784882L6.99969 0.807892L7.16568 0.855865L7.53369 0.826874L7.73068 0.844879L7.87869 1.02087L7.93869 1.01987L8.0217 0.944885L8.1687 0.858887L8.3187 0.79187L8.4267 0.652893L8.4917 0.547882L8.58868 0.568878L8.7287 0.562866L8.82169 0.474884L8.8587 0.338867L9.50668 0.483887Z" fill="#CCCCCC" stroke="white" stroke-width="0.5"/>
</svg>
