<svg width="173" height="255" viewBox="0 0 173 255" fill="none" xmlns="http://www.w3.org/2000/svg">
<path d="M120.637 1.873L123.334 3.37L124.76 5.094L125.059 5.037L126.992 5.694L128.827 6.511L131.878 8.621L132.306 9.308L131.976 9.868L131.218 10.252L127.319 10.934L120.246 11.767L116.199 13.372L114.912 13.454L114.8 15.812L115.35 15.94L116.251 15.625L119.421 13.26L120.607 12.868L122.82 13.066L125.693 13.958L126.852 13.645L128.919 13.878L131.336 13.196L134.191 11.715L134.972 15.005L136.024 18.232L136.857 17.878L137.57 18.058L137.811 19.104L138.201 19.545L139.009 19.309L141.484 20.216L143.183 21.835L143.823 22.584L144.13 23.646L144.304 24.492L144.037 25.527L142.975 27.355L141.632 29.016L139.82 30.283L137.732 31.072L121.687 33.683L121.144 34.298L120.822 35.857L121.036 37.861L121.786 38.172L123.538 37.049L126.569 35.977L128.796 36.028L134.12 36.943L135.691 39.312L136.522 42.886L138.364 42.09L138.758 41.479L139.048 40.414L139.279 39.263L139.452 38.027L139.645 37.18L139.859 36.729L140.318 36.351L141.375 35.894L144.147 35.449L144.814 35.576L145.293 37.293L145.397 38.288L145.432 39.575L145.417 41.149L145.352 43.001L145.116 44.813L144.349 47.931L143.732 49.604L143.066 50.8L141.791 53.496L141.349 54.209L139.947 57.284L139.599 58.69L139.578 59.711L139.819 59.905L140.226 58.946L140.377 58.258L140.639 57.534L142.705 55.611L143.148 55.071L144.5 52.745L145.363 51.866L146.072 50.939L146.448 50.279L148.525 45.522L149.608 44.071L150.745 44.068L150.946 46.517L152.309 46.892L152.901 46.787L153.852 47.377L154.269 47.861L154.978 48.107L155.709 48.679L156.354 48.064L156.542 47.677L157.165 45.912L158.007 44.333L158.787 42.34L159.046 41.853L159.456 41.41L159.882 41.235L161.042 40.288L161.336 40.222L161.962 40.522L164.728 40.678L166.237 41.166L168.338 42.513L169.802 43.246L170.48 43.892L171.467 45.269L172.263 46.698L172.633 47.115L172.619 47.565L172.344 48.184L170.372 50.33L169.726 51.749L167.86 54.391L166.948 55.289L165.957 55.64L164.854 55.724L164.138 56.098L164.032 56.453L164.542 57.523L164.766 58.281L164.734 58.952L164.197 59.942L163.994 60.165L162.056 60.895L161.078 62.127L159.802 62.276L158.9 62.136L157.66 63.451L158.145 64.513L158.589 64.971L159.97 65.929L159.983 66.477L159.323 67.578L158.422 68.867L157.357 69.755L156.957 69.887L156.452 69.664L155.986 69.712L154.96 70.12L153.983 70.185L152.238 69.608L151.294 68.938L150.797 68.706L150.171 68.77L149.93 69.041L148.943 70.634L148.459 71.712L148.148 72.808L148.015 73.994L148.06 75.268L148.18 76.136L148.375 76.604L148.609 76.887L149.019 77.035L149.921 76.895L150.275 76.975L150.383 77.229L150.578 78.031L150.544 78.783L150.38 79.835L150.254 81.054L150.164 82.436L150.212 83.186L150.577 83.35L150.748 83.296L150.947 83.542L151.173 84.085L151.343 84.658L151.456 85.26L151.397 85.755L151.164 86.143L150.639 86.58L149.346 87.439L149.215 87.7L149.113 88.22L149.041 88.998L148.885 89.703L148.645 90.333L148.427 90.708L148.008 90.874L147.459 90.896L146.842 91.256L145.388 93.341L145.366 93.571L145.91 94.234L145.887 94.812L145.216 97.271L145.032 98.476L144.886 100.114L144.647 101.483L144.314 102.589L143.986 103.857L143.664 105.281L143.714 106.366L144.137 107.117L144.696 106.51L145.391 104.528L146.147 103.664L146.963 103.935L147.674 104.331L148.582 105.11L149.342 105.594L149.998 106.229L150.269 106.762L150.541 107.511L150.543 107.982L150.062 108.235L149.903 108.154L148.699 106.919L148.113 106.61L147.335 106.982L146.657 107.541L147.266 109.772L147.917 110.788L149.105 111.249L149.725 111.733L150.178 112.35L150.532 112.65L151.007 112.518L151.646 111.912L152.537 111.879L152.939 112.18L153.23 112.74L153.361 113.782L153.332 115.296L153.235 116.427L153.07 117.183L152.749 118.191L152.481 118.374L152.104 118.319L151.753 118.113L151.428 117.754L150.936 117.474L149.947 117.171L148.947 116.511L148.387 116.348L147.202 116.432L145.924 116.85L145.874 117.397L144.036 119.294L143.659 119.268L143.149 118.619L142.435 117.995L142.017 117.999L141.399 118.789L141.245 119.094L141.253 119.381L141.708 120.058L141.893 120.213L142.128 120.343L142.945 120.505L143.3 120.682L143.634 122.758L144.164 124.028L144.391 124.286L144.591 124.379L145.241 124.333L146.077 123.906L146.369 124.248L146.985 124.665L147.345 124.769L147.783 124.752L148.276 124.91L148.952 126.065L148.686 127.509L149.109 128.656L149.785 129.831L149.945 130.259L150.01 131.031L150.025 131.538L150.076 132.001L150.162 132.417L150.251 133.231L150.344 134.437L150.32 135.415L150.177 136.169L149.895 136.714L149.475 137.052L149.132 136.963L148.866 136.447L148.491 135.895L148.008 135.307L147.205 135.238L146.023 136.97L145.496 137.056L145.067 137.227L144.61 137.976L143.937 138.425L143.343 138.247L142.3 137.377L142.679 137.959L143.221 138.638L143.559 138.989L143.808 139.065L144.081 138.984L144.475 138.707L145.364 137.936L145.599 137.818L145.798 137.873L145.961 138.101L146.149 138.762L146.36 139.85L146.333 140.771L146.067 141.526L145.839 142.009L145.65 142.221V142.388L146.147 142.58L146.85 141.601L147.073 140.375L147.395 138.95L147.964 138.473L148.608 138.95L149.128 140.281L149.863 142.702L150.173 142.952L150.567 143.527L150.741 144.23L150.695 145.059L150.611 145.659L150.489 146.031L150.337 146.267L150.063 146.417L149.559 146.537L148.433 146.286L147.847 146.28L147.92 147.088L146.734 147.78L145.397 148.051L144.131 147.511L143.08 146.678L143.425 145.507L143.622 144.197L143.114 143.324L143.003 143.305L143.178 144.652L143.031 145.165L142.457 145.788L142.052 146.075L142.016 146.242L142.215 146.387L142.344 146.665L142.405 147.076L142.337 147.49L142.139 147.907L142.031 148.256L142.013 148.538L142.194 148.88L142.575 149.281L142.988 149.479L144.923 149.565L145.698 149.78L147.536 150.721L147.618 151.009L147.307 152.678L147.137 154.266L146.78 154.555L144.846 154.623L144.223 154.869L143.311 155.591L142.435 156.453L141.981 156.459L140.183 155.707L139.494 155.203L138.014 153.769L136.9 151.563L136.389 152.484L136.076 152.922L135.753 153.149L135.442 153.184L135.142 153.027L134.802 152.68L134.231 151.872L133.55 151.069L133.073 150.686L133.055 150.795L133.337 151.268L133.749 151.812L134.792 153.401L135.159 153.8L135.122 154.083L134.464 154.334L133.664 154.874L133.273 155.27L132.669 156.228L132.459 156.376L131.555 156.616L131.257 156.558L130.589 156.032L129.582 155.687L128.989 155.38L128.165 154.822L128.449 155.432L130.036 156.357L130.21 156.654L129.885 157.206L129.686 157.407L129.308 157.449L128.751 157.334L128.181 157.357L127.598 157.519L127.348 157.725L127.43 157.976L127.569 158.204L127.765 158.41L127.949 158.408L128.393 157.785L128.729 157.741L129.618 157.895L130.517 157.408L131.165 157.197L131.651 157.143L133.418 156.394L133.785 155.552L134.378 155.213L135.696 154.953L136.972 155.086L137.628 155.195L138.159 155.993L138.871 156.556L139.465 157.196L140.161 157.406L140.564 158.253L141.692 159.194L142.41 159.396L142.853 159.842L142.889 161.719L142.936 162.523L142.745 164.729L142.168 165.233L142.283 166.381L142.132 167.303L141.559 166.954L140.972 166.347L139.565 165.401L138.256 164.79L137.747 164.234L137.148 163.802L136.335 162.034L135.806 159.809L135.574 158.698L135.129 158.636L134.557 158.934L134.057 159.249L133.818 159.786L132.12 160.522L131.503 161.024L131.151 161.009L129.883 161.763L130.391 162.123L130.628 162.168L131.141 161.965L131.449 161.705L132.605 160.991L133.533 160.868L133.87 160.559L134.579 160.117L135.06 160L135.127 160.112L135.179 160.314L135.518 163.017L135.376 163.729L134.994 164.037L134.177 164.54L133.965 164.784L134.206 165.21L134.974 164.809L135.472 164.372L135.738 164.531L136.173 165.198L136.664 165.539L137.912 166.557L138.503 167.115L139.335 167.652L140.275 168.394L140.52 168.655L141.379 169.038L141.563 169.169L141.918 170.465L142.214 170.609L143.069 170.691L142.919 171.191L142.084 172.296L141.652 172.648L141.545 172.864L141.586 173.25L141.611 173.895L141.785 175.075L141.981 173.983L142.118 173.465L142.301 173.31L142.481 173.287L143.065 172.795L143.652 173.059L143.804 174.298L143.879 175.446L143.828 176.432L143.892 177.953L143.87 178.464L144.009 178.905L144.153 180.721L144.297 181.263L144.008 181.747L143.115 181.957L142.762 181.719L141.879 181.799L141.878 181.373L141.835 180.883L141.832 180.54L141.773 180.229L141.731 178.431L141.481 178.877L141.466 179.242L141.4 179.613L141.247 181.54L141.019 182.01L140.312 181.897L139.616 181.966L139.231 181.895L137.929 181.02L137.425 180.224L136.979 179.021L136.704 177.89L136.6 176.831L136.287 175.965L135.767 175.294L135.153 174.749L134.445 174.33L133.823 173.788L133.287 173.122L132.698 172.602L132.054 172.23L131.138 172.07L129.799 172.129L128.895 171.709L128.68 171.745L128.469 171.962L128.624 172.579L129.662 172.861L130.462 172.925L131.523 172.885L132.172 173.043L132.41 173.398L132.574 174.028L132.664 174.93L132.454 175.642L131.691 176.429L131.289 176.797L130.114 177.501L129.716 177.657L128.736 177.705L127.983 177.638L126.992 177.288L126.43 177.217L125.267 177.17L125 177.287L125.3 177.662L125.793 177.874L126.14 178.126L126.176 178.603L126.051 179.308L125.922 179.799L125.709 180.167L124.946 180.861L124.63 181.08L123.208 181.803L123.109 181.942L123.442 181.923L124.341 181.667L124.6 181.674L126.076 182.299L127.252 182.262L129.634 181.685L129.83 181.696L129.986 181.787L130.144 182.003L130.304 182.345L130.112 182.676L129.568 182.994L128.721 183.307L128.354 183.518L128.003 183.838L127.35 184.605L127.159 185.397L127.846 185.697L128.155 185.317L128.519 184.47L128.847 183.971L129.62 183.632L130.564 183.804L131.293 183.603L132.783 182.76L133.05 182.708L135.242 183.191L137.229 184.136L138.277 184.482L139.664 184.686L142.158 184.593L142.377 184.741L142.296 185.074L142.151 185.355L141.735 185.746L141.23 186.004L140.918 186.077L140.652 186.261L140.055 186.441L139.902 186.587L140.109 187.223L140.011 187.321L139.485 187.332L138.599 187.745L137.872 187.716L137.72 187.776L137.858 187.929L138.004 188.224L138.159 188.66L138.074 188.971L137.748 189.156L137.501 189.216L136.648 188.957L136.51 188.996L136.635 189.183L136.706 189.467L136.723 189.849L136.514 190.168L136.078 190.425L135.265 191.131L134.911 191.332L134.165 191.498L134.008 191.59L134.311 192.128L134.277 192.343L133.773 192.922L133.01 193.282L132.906 193.476L132.836 193.996L132.78 194.203L132.578 194.5L131.854 195.064L131.341 195.344L131.087 195.573L130.772 195.955L130.375 196.157L129.896 196.18L129.442 196.323L128.696 196.728L128.176 196.862L126.534 197.558L125.762 197.669L125.094 197.917L123.719 198.578L123.064 198.79L122.61 199.041L122.114 199.113L121.307 198.95L120.872 198.944L120.604 199.043L120.359 199.245L119.954 199.797L119.61 199.839L118.482 199.402L118.505 199.6L118.803 200.073L118.789 200.407L118.118 200.746L117.757 200.832L117.224 200.693L116.519 200.327L115.614 199.561L114.505 198.386L113.971 197.987L114.01 198.366L114.134 198.736L114.343 199.095L114.385 199.355L114.261 199.516L114.098 199.597L113.895 199.598L113.86 199.689L114.191 200.247L114.452 200.818L114.428 201.358L114.118 201.868L113.852 202.166L113.63 202.254L112.313 203.516L111.946 203.675L111.779 203.83L111.642 204.062L111.259 205.097L111.104 205.412L110.796 205.821L110.667 205.892L110.63 206.059L110.686 206.321L110.601 206.757L110.376 207.365L109.609 209.033L108.991 210.575L108.72 211.077L108.522 211.289L108.397 211.213L108.09 211.252L107.941 211.521L107.806 212.006L107.659 212.375L107.5 212.628L106.26 213.716L105.941 213.917L105.654 213.79L105.315 213.839L104.612 213.266L104.49 213.055L104.036 212.582L104.051 212.829L104.127 212.965L104.19 213.164L104.349 213.408L104.701 214.685L104.423 214.946L104.174 215.243L103.539 215.744L102.852 216.58L102.599 216.813L102.542 216.132L102.571 215.928L102.183 215.597L102.195 215.835L102.155 216.057L101.874 216.939L101.796 217.091L101.657 217.057L101.355 217.219L101.046 217.142L100.783 216.742L100.679 216.534L100.201 217.105L99.9689 217.09L99.9299 217.568L99.7049 218.003L99.4079 218.191L98.9929 218.176L98.7389 218.433L98.1759 218.158L98.0459 217.641L98.4919 216.93L98.6179 216.636L98.5359 216.273L98.6439 215.803L99.4959 214.304L100.073 213.54L100.04 213.403L99.2559 213.236L98.5709 212.973L97.9039 212.883L97.6089 212.972L98.0789 213.412L98.7439 213.838L98.4169 214.244L98.1349 214.674L97.8429 215.839L97.6559 216.314L96.9309 215.769L96.5879 215.584L96.8059 216.189L97.4409 216.761L97.4819 216.949L97.4779 217.626L96.2619 218.221L94.9929 218.311L94.0819 218.479L92.5449 218.683H91.9479L91.8969 218.911L93.3999 219.947L93.6189 220.136L93.4099 220.491L93.0989 220.711L92.6109 221.468L92.3559 221.728L91.7239 222.085L90.5609 221.687L89.9629 221.865L89.3909 221.74L89.3789 222.175L89.5499 222.492L89.7229 223.277L90.1069 223.216L90.5949 222.969L90.9719 223.562L91.2199 224.562L91.6529 225.067L91.8449 225.457L91.9229 225.824L91.6529 226.189L91.0939 226.703L90.4739 226.799L90.5079 227.205L90.2399 227.496L89.6709 227.411L89.4049 227.207L89.1289 227.111L87.9969 227.002L89.1369 227.782L89.5419 228.144L89.7219 227.93L90.1169 227.878L90.6999 228.076L90.6029 229.382L90.8579 230.433L90.8889 230.668L90.2679 231.294L90.2579 231.877L89.8879 232.039L89.4899 232.002L89.4689 232.639L89.1989 233.035L89.2469 233.283L89.3239 233.504L89.0779 233.906L88.8559 234.394L88.5379 234.82L88.3699 234.776L87.8649 234.804L87.2579 234.768L86.7659 234.214L86.5619 234.029L86.3319 233.908L86.4199 234.265L86.5579 234.479L87.0119 234.879L87.8479 235.372L87.8219 235.721L87.5989 235.872L87.0779 236.817L86.8929 236.838L86.6589 237.081L85.9369 236.999L85.6339 236.902L84.7429 236.964L84.4399 236.881L84.1799 236.921L84.4219 237.187L84.9319 237.426L85.5119 237.666L86.3939 237.847L86.3619 238.189L86.1409 238.469L86.2679 238.886L86.1689 239.184L86.1269 239.538L85.9209 240.358L86.1609 240.918L86.4219 241.191L86.3919 241.55L86.5149 242.122L86.1229 242.631L85.7979 242.612L85.3349 242.726L85.1809 242.95L85.9149 243.161L85.8479 243.54L85.6479 244.014L85.4379 245.035L85.0109 246.773L84.8109 248.483L83.8939 249.877L83.5689 249.916L83.4869 249.971L83.0399 249.9L82.3379 249.579L81.7949 249.473L81.4279 249.469L81.3809 249.629L81.6849 249.887L82.1499 249.995L82.5219 250.166L83.1889 250.325L83.4209 250.633L83.5799 250.961L83.5569 251.141L83.5559 251.353L83.6749 252.492L83.3609 252.884L83.1209 253.238L82.2879 253.189L82.1429 253.065L81.3389 252.692L81.3879 252.867L81.9699 253.373L82.1729 253.625L82.0369 253.677L81.8019 253.696L81.4749 253.866L80.8839 253.774L80.9169 253.519L81.0289 253.256L80.7589 253.301L80.4579 253.434L80.2829 253.385L80.1369 253.4L80.0539 253.268L79.9399 252.753L80.0759 252.494L80.5629 251.822L80.7179 251.46L80.5829 251.295L80.2349 251.683L79.8759 252.298L79.7159 252.669L79.4909 252.741L78.9319 252.554L77.3409 251.693L77.3879 251.168L77.3729 250.732L77.8369 250.677L78.1739 250.487L78.4759 250.254L78.8159 249.829L79.1279 249.125L79.0879 249.071L78.1729 249.969L77.6099 250.268L77.3379 250.323L77.2019 250.191L76.7489 249.903L76.4549 249.772L75.7839 249.558L75.6649 249.443L75.4679 249.351L75.1999 248.431L75.5459 247.307L75.7839 246.979L75.9349 246.599L76.0199 246.094L75.9609 245.878L75.7589 245.952L75.6649 246.125L75.6799 246.396L75.5639 246.584L74.7639 247.015L73.9619 247.364L73.5819 247.694L73.3349 247.951L73.1419 248.203L72.8469 248.181L72.4399 248.232L72.1609 248.396L71.7529 248.295L71.4869 248.052L71.1659 248.024L70.8059 248.141L70.5569 248.131L70.5779 248.296L70.7439 248.701L70.4689 248.728L69.9469 248.744L69.6839 248.626L69.4779 248.472L69.3069 248.257L69.4099 247.975L70.2499 247.457L70.6309 247.156L70.3819 247.053L69.5759 247.146L69.4419 247.068L68.9019 247.115L68.9249 246.34L68.7939 246.147L68.7849 246.056L68.5979 245.839L68.4209 245.785L68.3109 245.707L67.3989 245.532L67.2799 245.097L67.2169 244.648L67.0429 244.089L66.6059 243.943L66.3699 243.7L66.5579 243.451L66.6399 243.135L66.4379 242.99L66.3089 242.767L66.3279 242.622L66.1639 242.229L66.1149 241.922L66.3029 241.633L66.8189 241.306L66.9859 241.174L67.0719 241.031L67.6639 240.79L67.1599 240.62L66.8449 240.594L66.6149 240.674L66.4029 240.994L66.2049 241.206L65.4329 241.275L65.3189 241.165L65.2649 240.713L65.3089 240.364L65.6299 239.872L65.2599 239.628L64.9209 239.548L64.5359 239.319L64.1799 239.077L63.8739 238.795L63.5759 238.462L63.4809 238.42L63.5879 238.071L63.6489 237.783L63.6579 237.163L63.5379 236.905L63.8049 236.373L64.1639 235.79L64.9579 234.921L64.1179 235.34L63.4279 236.251L63.2819 236.293L63.2309 236.128L62.9689 235.537L62.7719 235.375L62.6839 235.197L62.2909 234.88L62.1209 234.636L61.8789 234.164L61.5349 233.6L61.0459 232.483L60.2559 231.188L60.0609 230.456L60.3059 229.523L60.0349 228.877L60.7849 228.577L61.8579 228.24L62.4149 227.959L62.7359 227.875L63.4179 227.823L63.6459 227.54L63.2669 227.612L63.0119 227.575L62.9959 227.443L63.0899 227.208L63.1509 226.904L63.0209 226.959L62.3539 227.482L61.3679 227.896L60.5979 228.126L60.4729 228.114L60.2029 228.253L60.0479 228.293L59.9279 228.253L59.6559 227.857L59.5829 227.598L60.0719 226.893L60.4369 225.927L60.9199 225.292L61.2609 225.212L61.8319 225.246L62.0329 225.302L61.9689 224.925L61.9929 224.742L62.4559 224.522L62.9959 224.424L63.3799 224.493L63.6219 224.937L63.9329 225.753L64.3519 226.028L64.3329 225.637L64.1159 225.132L64.0349 224.354L63.7589 224.025L63.5379 223.863L62.9259 223.942L62.5579 223.37L62.4749 223.16L62.4659 222.88L62.0979 222.056L61.9799 221.642L61.7849 221.09L61.6809 221.06L61.8129 221.755L61.9849 222.242L62.2309 223.308L62.3529 223.736L62.1879 224.074L61.8769 224.408L61.6019 224.607L60.9519 224.845L61.0919 224.325L61.1809 223.813L60.8539 223.995L60.5499 224.367L60.4449 224.881L60.2499 225.346L59.6709 226.483L59.4429 227.111L59.2269 227.42L58.9809 227.505L58.7679 227.26L58.5869 226.683L58.5019 226.23L58.4919 225.05L58.5149 224.497L58.4159 223.749L58.1029 221.996L58.0369 221.367L57.5079 221.032L57.4999 220.924L57.3619 220.564L57.2549 220.203L57.3429 220.071L57.4689 219.976L58.2599 219.442L58.8459 218.842L59.5469 217.897L59.8329 217.603L60.8609 217.376L61.3169 217.345L61.3129 217.176L61.1599 217.109L60.4659 217.153L59.5409 217.533L59.3819 217.67L58.9769 218.259L58.6649 218.58L57.7869 219.311H57.2169L56.6289 218.435L55.9719 218.603L55.5289 218.545L55.3999 218.413L55.3019 217.209L55.6589 215.794L55.2729 215.78L55.1929 215.723L54.9889 215.399L54.8559 215.302L54.9549 215.13L55.9059 214.454L57.3289 213.12L57.9409 212.593L58.3189 212.365L58.6049 212.104L58.9529 211.536L59.0679 211.287L59.2619 211.086L59.6709 210.859L60.1179 210.515L60.8429 209.739L60.9379 209.451L60.7799 209.384L60.4409 209.65L59.7519 210.36L59.2599 210.758L57.5809 212.529L56.8659 213.169L56.4769 213.577L56.1749 213.965L55.8559 214.241L55.5179 214.406L54.7979 214.529L54.4439 214.672L54.2309 214.568L54.1369 213.74L54.2089 213.248L54.1749 212.761L54.3549 212.061L54.6219 211.564L54.7339 211.293L54.7809 211.107L55.3309 210.59L55.6339 210.361L55.8479 209.841L57.0689 209.656L57.3839 209.675L57.5509 209.605L57.6759 209.454L57.5549 209.337L57.1889 209.254L56.2159 209.27L55.3169 209.181L54.9069 209.091L54.7089 209.143L54.3819 208.991L54.0249 208.7L53.4709 207.628L53.6929 206.242L53.7119 205.576L54.4159 204.991L54.7919 204.797L55.3259 204.355L56.0389 203.601L56.8899 203.139L57.3239 203.053L57.6839 203.119L59.0159 203.774L59.7009 203.902L60.3029 203.745L61.0579 203.974L62.3939 204.912L62.6519 204.773L62.5769 204.546L61.0869 203.553L61.0949 203.255L61.4759 203.177L61.8829 202.887L61.6539 202.715L60.6639 202.864L60.3779 203.102L59.4179 203.225L58.9169 203.023L58.4669 202.922L57.7919 202.49L57.2269 202.631L56.8699 202.801L56.2389 202.962L56.0109 203.077L54.7779 204.429L54.2589 204.709L53.8899 204.617L54.1489 203.739L54.2239 203.391V203.012L54.3309 202.491L54.9629 201.494L55.3599 200.396L55.5279 199.711L55.8389 199.634L56.2629 199.735L57.5369 200.179L58.5969 200.707L59.3789 200.848L59.8929 200.863L60.1129 200.695L60.2869 200.402L60.3539 200.199L60.4039 199.783L60.4629 199.635L60.6349 199.453L60.9859 198.818L61.0929 198.365L60.9779 198.1L60.7439 198.127L60.2869 198.301L60.2249 198.373L60.2329 198.515L59.7919 199.216L59.3109 199.377L58.2039 199.611L57.6989 199.628L56.8009 199.303L56.6649 199.176L56.5719 198.937L55.4699 198.991L55.1409 199.063L54.8789 199.032L55.0069 198.616L55.3549 198.153L55.8429 196.638L56.2519 196.248L57.0639 195.884L57.9109 195.943L59.3759 197.12L59.8179 197.222L60.2229 197.127L61.1919 196.734L61.3699 196.574L61.7189 196.085L62.1259 195.245L62.1059 195.046L61.4809 195.516L61.1479 195.642H60.8659L61.1279 194.1L61.2299 192.91L61.3279 192.613L62.1489 192.702L63.2709 192.54L63.5379 192.278L63.5339 192.162L63.0839 192.003L62.8669 191.668L62.4899 191.774L61.9849 191.997L61.3509 191.972L61.4039 191.455L61.8689 190.366L61.9169 189.867L62.0979 188.866L62.1169 188.35L62.3519 187.847L63.0849 187.488L63.3929 187.273L63.4099 187.037L62.9709 186.136L63.0819 185.886L63.4269 185.658L63.5549 185.491L63.4669 185.387L63.1499 185.287L62.6619 185.487L62.1219 185.583L61.6439 185.282L61.2699 185.137L61.0339 185.182L60.3909 185.697L60.1659 185.714L59.8879 185.571L58.0459 185.125L57.8169 184.967L57.1569 184.192L56.6129 183.678L55.8889 183.115L54.9499 182.686L53.7969 182.392L53.1069 182.115L52.7669 181.723L52.1839 180.858L51.7409 180.134L51.6579 179.775L51.9179 179.33L52.1829 179.01L52.6819 178.747L53.5429 178.834L54.0049 178.951L54.5139 179.202L54.8989 179.249L55.6979 179.178L56.5109 179.338L56.9919 179.514L57.6239 179.88L59.3679 181.429L60.0959 181.964L60.4119 182.028L61.7169 182.598L61.9259 182.587L62.4599 182.32L62.5129 182.147L62.3329 181.976L61.7569 181.843L61.0809 181.211L60.6619 180.708L60.6139 179.873L60.6689 179.403L60.7739 179.189L60.8479 178.466L60.4559 178.035L60.1829 177.899L59.4559 177.268L59.3949 177.111L59.7439 177.037L60.0859 177.08L60.8189 177.4L61.2029 177.444L61.4829 177.319L61.5149 177.19L61.0689 176.826L60.5109 176.173L59.3449 176.076L58.5889 176.15L58.1059 175.925L57.5919 175.559L57.2609 175.465L56.5859 175.695L56.2449 175.724L55.9339 175.643L55.6269 174.483L55.7089 174.134L55.9499 173.983L56.1319 173.606L56.2589 173.211L56.6589 172.824L58.8539 171.959L59.4079 171.313L59.3839 171.213L59.0099 171.333L58.5319 171.625L58.2129 171.685L56.9209 171.308L56.7189 171.394L56.1959 171.935L55.4859 172.52L55.1589 172.484L54.7209 172.138L54.6519 171.891L54.6199 171.594L55.1009 171.186L55.2549 170.97L55.5659 170.387L55.5499 170.098L55.0189 170.257L54.9499 169.988L54.9579 169.527L54.9069 168.942L54.7769 168.362L54.3409 167.467L54.1599 167.237L54.0109 166.904L53.6819 165.683L53.7769 165.376L54.0689 165.143L54.1249 165.036L53.4279 165.229L53.3519 165.441L53.4829 165.754L53.5769 166.17L53.6329 166.688L53.7299 167.14L53.9819 167.634L54.1839 167.893L54.5129 168.577L54.6569 169.326L54.6149 169.719L54.3599 170.118L53.9479 170.547L53.8229 170.902L53.7669 171.255L53.4459 171.581L53.2489 171.459L53.0929 171.44L53.2769 172.02L53.3959 172.612L53.2529 173.203L52.8719 173.56L52.6649 173.571L52.2579 173.86L51.2159 174.011L50.8529 173.94L50.1879 173.647L49.3989 173.487L49.0859 173.091L48.6759 172.368L48.4689 171.718L48.4649 171.141L48.5759 170.72L48.8019 170.454L49.0739 168.747L49.4579 167.356L50.4249 165.91L50.7009 165.384L50.7919 165.101L50.7909 164.885L50.6349 164.748L49.4459 166.543L48.7129 166.733L48.4939 166.331L48.5599 165.615L48.6909 165.448L49.2839 165.516L49.5139 165.116L49.1429 164.51L48.7479 164.35L48.6559 164.197L49.0619 163.733L50.0019 163.767L50.2139 163.442L50.5539 163.091L50.9319 162.437L51.0729 161.885L51.1049 161.41L51.0229 161.026L51.0149 160.64L51.0789 160.252L50.9799 159.822L50.7189 159.35L50.1379 158.888L49.9669 159.41L49.7859 159.624L49.5319 159.672L49.2979 159.452L49.0529 159.373L48.8129 159.177L48.5629 159.114L48.4659 158.956L48.4029 158.512L48.3979 157.946L48.6799 157.68L49.0729 157.471L49.3359 157.074L49.5089 156.497L49.5339 155.864L49.4109 155.176L49.0919 154.555L48.5009 155.159L48.2689 155.307L48.2159 154.875L48.1339 154.555L47.8859 154.119L47.5589 153.801L47.2449 153.589L47.2309 153.266L47.3049 152.901L47.4449 152.475L47.6259 151.582L47.8249 151.662L47.9909 151.58L47.8949 150.839L47.7349 150.214L47.5469 149.857L47.5399 149.702L47.4969 149.52L47.3519 149.079L47.1889 148.755L46.9049 147.834L46.6999 147.481L46.4369 147.298L46.1539 147.288L45.6989 147.532L44.8599 147.812L44.1949 147.945L44.0839 147.872L44.4169 147.521L44.9069 147.155L45.5549 146.906L45.7439 146.294L45.6739 145.763L45.7009 145.258L45.5229 144.725L45.6959 144.429L46.2859 144.13L46.5539 144.084L46.8199 143.703L46.0719 142.78L45.2879 142.173L45.0919 141.925L44.9199 141.517L44.7719 140.947L44.5299 140.375L44.1959 139.799L43.7079 139.242L42.4499 138.218L42.0179 137.508L41.6199 136.416L41.4209 135.948L41.2139 135.601L40.3379 134.785L40.2319 134.423L41.1369 133.455L41.2249 133.067L40.8549 131.882L40.4769 131.01L40.0649 130.699L39.4519 130.539L38.8899 130.149L38.3789 129.529L37.8689 129.074L37.1049 128.64L35.8269 127.519L33.8569 126.311L32.9769 125.601L32.4529 125.342L31.7629 125.276L30.4279 124.609L29.3059 124.395L28.6139 124.493L28.3879 124.382L27.8759 123.701L27.0749 123.309L26.6609 123.458L26.1469 124.188L25.5269 124.905L25.1969 125.002L24.7069 124.347L24.4599 123.888L24.2239 123.731L23.9989 123.879L23.5609 124.482L23.1439 124.916L22.5269 125.43L22.0339 125.676L21.4009 125.736L21.2419 125.922L20.9979 125.93L20.6699 125.762L20.3619 125.428L20.0749 124.927L19.8219 124.656L19.6019 124.616L19.0969 124.876L18.4579 125.638L18.1659 125.821L17.9209 125.742L17.6209 125.505L17.0199 124.897L16.6869 124.956L16.4449 125.169L16.5119 125.673L17.0749 126.863L17.5779 127.706L17.1529 127.805L13.4409 126.664L12.9679 126.388L12.2849 125.693L11.7169 125.265L10.7499 124.154L10.0049 123.55L9.7579 123.076L9.6929 122.749L9.9299 122.306L11.4299 120.803L12.0029 120.498L13.1689 120.133L13.4439 119.904L13.5359 119.722L13.2299 119.393L11.7029 119.511L10.3429 119.291L9.15891 118.684L8.95291 118.482L8.75192 118.109L8.55692 117.565L8.60092 116.954L8.88492 116.275L9.05191 115.807L9.10092 115.553L7.61292 117.225L7.00491 117.807L6.52292 117.629L6.18491 117.354L6.01892 117.047L6.0249 116.708L6.0799 116.46L6.18292 116.305L5.3959 115.611L5.0419 115.064L5.00391 114.498L5.2829 113.912L5.55591 113.486L5.82291 113.219L6.5509 112.987L9.20892 112.542L11.1119 112.969L11.7599 111.55L12.1979 111.095L13.4779 110.62L15.4479 110.554L16.8389 110.817L17.4909 111.152L18.3789 111.889L18.4299 111.667L18.2159 111.001L18.2009 110.446L18.5599 109.477L18.7249 108.866L18.6129 108.227L18.2229 107.56L17.5329 106.7L17.1609 106.629L16.7479 106.837L16.2519 107.314L15.2209 108.51L14.7339 108.759L13.9219 108.822L13.4729 108.672L13.0389 108.493L12.3609 107.86L12.1139 107.741L11.8139 108.019L11.4619 108.692L11.1229 109.162L10.7959 109.43L10.4909 109.546L10.0649 109.491L8.30991 108.447L7.91391 107.98L7.8909 107.27L7.3519 106.579L6.74292 106.458L6.66891 106.226L7.44092 105.153L8.01691 104.713L7.9249 104.58L7.0889 104.557L6.5249 105.13L6.2019 105.227L5.45892 105.243L4.67889 104.956L4.34689 104.705L4.0029 104.127L3.61691 103.801L2.4519 103.305L2.1889 103.034L1.93991 102.583L0.987915 101.3L0.411896 100.351L0.336914 99.81L1.00192 98.643L1.03091 98.372L0.745911 97.865L0.626923 97.49L0.724915 96.971L1.30692 95.816L1.52292 95.502L2.56592 94.819L3.6109 93.821L3.99091 93.596L4.3299 93.544L5.70291 93.604L6.1279 93.357L6.48892 92.867L7.08191 92.369L8.31891 91.61L11.0689 90.456L11.2479 90.319L11.2639 90.099L11.0169 89.5L10.9649 89.21L11.5279 88.67L12.7989 87.815L13.6679 87.402L14.2269 87.372L14.6779 87.187L15.3109 86.645L15.6689 86.549L17.8319 86.336L18.7889 86.632L19.2589 86.626L19.5609 86.416L19.9599 85.799L20.7059 84.257L21.0989 83.292L21.4699 81.813L21.9489 79.475L22.3069 77.162L22.5439 74.873L22.7289 73.463L22.8599 72.955L23.3089 72.309L23.7769 71.803L24.5809 71.354L24.5079 71.144L24.1669 70.792L23.8499 70.657L23.5569 70.738L23.0219 71.269L22.3289 71.628L21.6559 71.572L21.1709 71.705L20.7259 72.189L20.0049 72.577L19.5239 72.489L18.6549 71.794L18.2169 71.664L17.1059 71.73L16.7809 71.471L16.4969 70.964L16.2709 70.254L16.1019 69.336L16.1249 68.377L16.5249 66.631L16.6779 66.152L17.7609 64.175L18.4279 63.242L19.0919 62.54L19.5749 62.126L20.0309 61.94L20.4689 61.502L21.2739 60.084L22.1049 58.859L23.1389 56.558L23.6389 55.949L25.3899 54.933L25.8659 54.917L26.2699 55.17L26.6529 55.699L27.7279 57.987L27.8119 57.917L27.6239 57.054L27.2319 54.445L27.2949 53.36L27.9099 52.192L28.1619 51.983L28.8109 52.061L29.8579 52.423L30.5579 52.819L31.0889 53.461L31.7199 53.858L32.0469 53.838L32.2799 53.532L32.6139 52.53L33.0489 50.817L33.2229 48.681L33.1369 46.105L33.0109 44.197L32.8429 42.983L32.9349 41.964L33.4619 40.733L33.9449 39.828L35.0969 38.54L36.0319 38.196L36.5859 38.283L37.3149 38.889L38.3259 39.26L39.2389 40.425L40.7179 43.07L41.6989 44.382L42.5119 44.968L43.3129 45.961L44.4969 48.045L45.1169 48.931L45.4849 49.251L45.8099 49.302L45.6889 48.714L45.1229 47.479L44.2569 46.108L42.3359 43.615L41.2769 41.831L40.3279 39.773L39.6299 38.536L38.3639 37.3L38.3809 36.805L39.9089 35.051L42.7169 33.509L45.8819 32.293L46.9409 32.418L48.8019 31.907L48.9769 31.132L49.3769 30.783L51.1099 29.695L51.6069 29.71L52.3699 30.227L53.1829 31.208L53.5589 32.091L54.0699 33.596L54.3199 35.692L54.2819 42.136L54.2959 43.326L54.3939 43.783L54.7469 43.102L55.1679 41.831L55.5469 40.926L55.8379 39.519L56.0419 37.599L56.1629 36.161L55.6679 34.521L55.6439 31.791L55.8919 30.317H56.5849L59.4519 35.352L60.5799 36.419L61.8639 39.036L63.3639 38.76L64.7479 39.079L65.3599 38.984L65.6619 38.58L65.2319 37.497L63.2659 34.483L62.3729 32.078L61.7479 29.027L61.5959 27.382L62.0739 27.084L64.2699 27.119L67.5699 28.548L71.7899 33.396L73.8669 34.969L77.5889 40.351L78.7119 41.149L79.1649 41.316L79.5069 40.665L79.7179 39.955L79.7339 39.004L79.5539 37.808L79.4499 36.414L79.4239 34.817L79.6759 31.607L80.2759 30.546L80.5409 29.338L80.2939 27.135L79.5909 25.609L76.8539 21.612L76.8429 21.129L77.3959 20.596L78.2159 20.283L84.9989 21.252L86.1709 21.606L86.6709 21.953L86.8899 22.41L87.1709 22.605L88.6279 22.061L88.5929 21.063L88.4109 20.425L80.5389 18.67L79.0719 18.066L78.3249 18.02L77.5529 18.484L75.9519 18.713L75.2129 18.625L74.2549 16.51L75.1219 13.928L75.8519 13.987L77.2389 14.998L78.0609 13.584L79.3649 12.406L80.6549 11.989L83.4689 9.422L83.9889 9.196L84.6449 9.334L86.0989 10L86.6739 10.637L87.3329 11.992L87.7149 12.409L88.1689 12.486L88.7909 13.094L89.6909 11.117L90.5039 8.968L91.4379 7.595L92.7589 8.397L93.5949 9.436L94.3589 10.666L95.4399 11.342L97.2719 15.457L97.6139 15.461L97.7759 15.117L97.9489 14.361L98.0109 13.232L98.2359 11.686L98.0729 11.111L96.5379 9.374L96.2479 8.701L95.9539 7.586L95.9489 6.659L96.2339 5.924L96.5339 5.587L97.5259 5.893L97.8539 5.653L98.1639 5.027L98.5369 3.846L98.8309 3.544L99.4949 3.509L100.516 4.269L101.41 4.333L101.732 3.984L101.781 3.242L101.859 2.768L101.965 2.568L105.205 2.527L106.009 2.349L106.637 1.782L107.406 1.715L108.078 2.054L108.91 2.776L109.737 2.742L110.969 1.562L112.129 1L118.532 1.156L120.637 1.873ZM78.7879 35.267L78.2189 35.625L77.0309 33.459L75.1499 31.264L73.4909 29.784L71.9319 25.833L71.8089 24.406L72.0299 23.144L73.3909 22.951L74.4799 22.368L77.2519 24.877L78.6379 26.972L79.1079 28.665L79.0349 32L78.7879 35.267ZM152.317 40.028L152.028 40.663L151.288 40.409L150.34 38.62L149.708 37.137L149.663 35.378L149.988 34.59L150.494 34.458L151.189 35.966L151.902 37.977L152.317 40.028ZM155.271 75.774L154.083 77.585L152.326 77.446L151.286 76.612L150.989 75.353L151.385 73.943L152.647 72.805L154.231 72.09L155.667 72.52L155.865 73.943L155.271 75.774ZM151.384 102.829L151.012 103.303L150.765 101.876L150.542 99.954L150.492 97.764L151.061 96.658L151.358 96.411L151.556 96.658L151.506 97.642V99.591L151.704 100.919L151.384 102.829ZM154.313 107.232H153.768L153.566 106.891L153.695 106.286L154.454 104.32L154.707 104.159L155.078 104.373L155.191 105.385L154.943 106.39L154.313 107.232ZM3.56592 111.337L2.56592 111.45L1.5809 110.951L1.24292 110.564L1.2579 109.971L1.40692 109.765L1.9389 109.559L2.38092 109.513L2.67889 109.605L3.37991 109.971L3.8869 110.336L4.21991 110.45L4.12491 110.973L3.56592 111.337ZM152.548 126.976L152.226 127.283L151.137 122.4V120.597L151.211 119.205L151.706 119.097L152.127 119.848L152.325 122.715L152.548 126.976ZM154.181 134.202L154.404 135.376L154.503 136.445L154.85 137.121L155.593 137.025L155.89 138.275L155.346 138.754L153.193 138.563L152.302 138.658L151.683 137.892L151.708 136.542L151.782 135.181L152.401 134.399L152.921 135.084L153.54 134.595L154.181 134.202ZM50.2949 161.048L49.8979 161.69L49.5749 162.057L48.8729 163.146L48.7519 163.184L48.5629 163.043L48.4159 162.757L48.1509 162.688L48.0589 162.507L48.0219 162.36L47.9039 162.266L47.7169 162.207L47.4169 162.319L47.1419 162.207L46.9339 161.728L47.3179 161.406L47.5549 161.131L48.4719 161.023L48.7309 161.149L48.8939 161.146L49.1419 161.071L49.6839 160.728L49.7649 160.568L50.2499 160.769L50.2949 161.048ZM54.4539 176.874L54.1909 176.931L53.4369 176.492L53.3139 176.326L53.2669 176.123L53.2959 175.882L53.5359 175.432L53.9869 174.771L54.3139 174.647L54.5169 175.062L54.7159 175.618L54.7419 175.899L54.7289 176.23L54.6769 176.51L54.5859 176.74L54.4539 176.874ZM133.324 177.902L133.423 178.407L133.433 178.645L133.412 178.844L133.357 178.987L133.225 179.113L133.471 179.446L133.551 179.67L133.566 179.848L133.409 180.192L132.291 180.646L131.98 180.864L131.592 181.403L131.12 181.865L130.963 181.863L130.78 181.384L130.034 181.031L128.631 181.215L126.988 181.659L126.405 181.866L126.11 181.756L126.02 181.59L126.016 181.359L126.21 180.681L126.289 180.508L126.666 180.282L126.921 179.682L126.838 179.027L126.936 178.11L127.194 177.967L127.839 178.294L128.256 178.363L128.995 178.405L129.988 178.295L130.786 177.921L132.242 176.851L132.5 176.865L132.685 177.245L132.821 177.431L133.254 177.722L133.324 177.902ZM59.6739 178.469L59.2989 178.492L58.4269 178.337L58.3569 178.237L58.3459 178.048L58.4619 177.502L58.8459 177.429L59.3029 177.728L59.7959 178.153L59.8639 178.353L59.6739 178.469ZM56.7099 186.082L57.6449 186.746L58.6359 187.203L58.7329 187.411L58.8099 187.726L58.8279 187.89L58.8059 188.042L58.7429 188.182L58.8149 188.362L59.0229 188.582L59.0439 188.839L58.7959 189.279L58.4469 189.767L56.6009 190.766L55.9479 190.935L54.3339 191.617L53.8399 191.589L53.7309 191.557L53.4259 191.257L53.0079 190.978L52.8119 190.761L52.6389 190.449L52.7079 190.256L53.0189 190.18L53.4609 190.185L54.1099 189.958L53.9299 189.753L53.7599 189.628L53.6419 189.356L53.3709 189.409L53.1679 189.253L52.7769 189.154L51.7559 189.06L51.0899 188.792L50.8939 188.631L50.7209 188.353L50.5709 187.961L50.7889 186.431L50.9389 186.039L51.2849 185.91L52.1309 186.252L52.2449 186.105L51.3189 185.537L50.9789 185.198L50.8789 184.93L50.8189 184.535V184.303L50.8609 184.069L50.9439 183.834L51.1689 183.516L52.1069 183.008L53.1289 183.182L54.9029 183.806L55.1229 183.938L55.6669 184.471L56.7099 186.082ZM61.5299 189.26L61.0899 189.543L61.0009 189.48L60.9119 189.264L60.6849 188.28L60.6179 187.812L60.6739 187.228L60.5859 186.815L60.9829 186.333L61.3039 186.25L61.7369 186.376L62.4699 186.866L62.4169 187.025L62.2579 187.28L61.8169 187.613L61.6609 188.361L61.6309 188.735L61.6519 189.015L61.5299 189.26ZM100.772 218.846L100.335 218.85L100.19 218.318L100.233 217.736L100.725 217.553L100.99 217.954L100.895 218.55L100.772 218.846ZM74.8529 248.406L74.5309 249.1L74.2089 248.949L74.0499 248.639L73.7329 248.495L73.3909 248.538L73.3859 248.415L74.4969 247.673L75.0269 247.473L74.9889 247.786L74.8879 248.06L74.8529 248.406Z" fill="#CCCCCC" stroke="white" stroke-width="0.5"/>
</svg>
