<svg width="22" height="17" viewBox="0 0 22 17" fill="none" xmlns="http://www.w3.org/2000/svg">
<path d="M10.735 1.81293L10.655 1.88995L10.572 2.05695L10.496 2.26294L10.419 2.40094L10.446 2.49094L10.665 2.67093L10.972 2.92294L11.097 2.95593L11.24 2.89594L11.465 2.69595L11.644 2.47995L11.815 2.37494L12.016 2.38193L12.176 2.53394L12.371 2.86993L12.549 3.17493L12.572 3.20593L12.644 3.25595L12.734 3.25394L12.828 3.17993L12.897 3.13495L12.98 2.99493L13.327 2.57193L13.588 2.45593L13.681 2.42493L13.863 2.36093L14.166 2.46094L14.605 2.63495L15.138 2.84595L15.325 2.88193L15.435 2.84595L15.594 2.55994L15.792 2.44693L16.075 2.31494L16.305 2.24792L16.436 2.23895L16.486 2.16095L16.511 2.04395L16.484 1.92294L16.336 1.70593L16.332 1.64194L16.417 1.59995L16.599 1.56793L16.836 1.58994L17.103 1.68393L17.32 1.81894L17.444 1.97995L17.579 2.32394L17.683 2.65793L17.951 3.18793L17.946 3.51694L17.94 3.89795L18.06 3.96994L18.19 3.99994L18.251 4.05594L18.381 4.34894L18.504 4.43393L18.651 4.45395L18.927 4.64093L19.104 4.71494L19.129 4.77094L19.123 4.84894L19.054 4.94693L18.947 5.01495L18.788 5.14294L18.656 5.30994L18.384 5.71094L18.376 5.78595L18.434 5.83994L18.546 5.84995L18.666 5.82193L18.916 5.67593L19.112 5.72794L19.301 5.83994L19.37 5.95593L19.388 6.10794L19.345 6.30493L19.338 6.52393L19.401 6.89795L19.5 7.27194L19.598 7.40793L20.227 7.73694L20.288 7.85992L20.319 7.99893L20.274 8.18793L20.209 8.29395L20.029 8.45895L19.864 8.58594L19.812 8.72495L19.838 8.98395V9.56894L19.863 10.0759L19.999 10.2589L20.161 10.3529L20.353 10.3349L20.539 10.3009L20.528 10.6039L20.478 10.9429L20.698 11.0479L20.81 11.1509L20.871 11.2479L20.522 11.4279L20.421 11.5329L20.374 11.8159L20.385 12.0779L20.854 12.2639L21.035 12.4829L21.115 12.7099L21.143 13.1389L21.101 13.2369L20.98 13.2379L20.844 13.1059L20.743 12.9779H20.616L20.379 12.9489L20.11 12.8989L19.777 12.9129L19.659 12.9339L19.583 13.0109L19.563 13.1459L19.529 13.5809L19.638 13.6759L19.853 13.7839L19.994 13.8299L20.111 13.8169L20.201 13.8869L20.22 14.0739L20.159 14.2109L20.041 14.3389L19.892 14.6669L19.917 14.7909L19.924 14.9679L19.669 15.4479L19.597 15.5419L19.26 15.4469L19.041 15.4159L18.882 15.5369L18.782 15.4609L18.664 15.3499L18.623 15.2039L18.543 15.1729L18.396 15.1719L18.26 15.2549L18.2 15.4059L18.191 15.5799L18.17 15.7139L18.089 15.795L17.924 16.006L17.847 16.2L17.751 16.3689L17.614 16.3589L17.551 16.3349L17.507 16.3799L17.294 16.4739L17.111 16.4999L17.063 16.403L16.956 16.325L16.837 16.17L16.702 16.0459L16.444 15.9579L16.342 15.9979L16.22 15.9869L16.14 15.9379L16.151 15.8629L16.286 15.674L16.363 15.4999L16.406 15.3099L16.405 15.1279L16.333 14.8729L16.217 14.67L16.188 14.5529L16.202 14.3849L16.175 14.2289L16.137 14.1479L16.119 13.9939L16.083 13.8529L16.014 13.799L15.976 13.5629L15.987 13.3199L15.887 13.2289L15.729 13.1619L15.636 13.0659L15.579 12.9609L15.522 12.9299L15.473 12.937L15.429 13.002L15.377 13.0159L15.285 12.7889L15.247 12.7799L15.183 12.8319L14.454 13.084L14.422 12.9859L14.361 12.8699L14.221 12.8309L13.98 12.9179L13.84 12.9279L13.624 12.8989L13.528 12.9399L13.241 13.2749L13.069 13.4059L12.939 13.3949L12.803 13.3649L12.707 13.3889L12.636 13.351L12.664 13.269L12.734 13.1669L12.871 12.8019L13.223 12.4349L13.23 12.3569L13.086 12.1429L12.935 11.8499V11.5359L12.906 11.3089L12.595 11.2449L12.538 11.2069L12.53 11.1299L12.61 10.9269L12.705 10.7379L12.719 10.6589L12.697 10.588L12.506 10.3879L12.208 10.0169L11.932 9.60593L11.695 9.25394L11.503 9.09293L11.32 8.85992L11.251 8.71194L11.06 8.65894L10.504 8.66193L9.83499 8.66592L9.271 8.66794L9.23801 8.86795L8.62201 9.00095L8.242 8.84793L7.82001 8.93793L7.61401 9.03894L7.54999 9.25095L7.45599 9.48395L7.366 9.57993L7.328 9.68393L7.276 9.77893L7.19299 9.88895L7.10101 10.1079L6.89999 10.4209L6.689 10.6229L6.33099 10.7319L6.21899 11.0609L6.13699 11.1839L5.99899 11.2789L5.85101 11.3419L5.715 11.3039L5.55801 11.278L5.39401 11.3369L5.366 11.2549L5.45901 10.9939L5.38501 10.8589L5.104 10.588L5.077 10.4579L4.991 10.2889L4.62 9.93994L4.27499 9.96194L4.371 9.66995L4.367 9.28195L4.24899 9.06995L4.27899 8.85394L4.215 8.86694L4.10001 9.01593L3.914 8.96793L3.53601 8.73694L3.34698 8.51395L3.32501 8.32294L3.28201 8.24893L3.16699 8.28894L2.931 8.28494L2.20999 7.94495L1.698 7.09094L1.68701 6.89795L1.76001 6.56595L1.74301 6.47595L1.508 6.69595L1.46301 6.54794L1.28299 6.20493L1.23099 6.00693L1.05899 5.91895L0.920013 5.90393L0.812988 5.96994L0.671997 6.37094L0.566986 6.36893L0.458008 6.28293L0.480988 5.98294L0.605011 5.83493L0.757996 5.60794L1.22198 4.65994L1.38699 4.44293L1.492 4.36694L1.711 4.35794L2.13901 4.23093L2.48901 4.02194L2.664 3.93695L3.065 3.95895L3.54001 3.92294L4.159 3.71994L4.17001 3.43994L4.16501 3.08194L4.14401 2.93994L3.92401 2.81195L3.79599 2.70093L3.686 2.55994L3.552 2.45895L3.55701 2.35394L3.72501 2.26294L3.83099 2.21695L4.08301 2.21893L4.16599 2.16693L4.229 2.07593L4.29999 1.84494L4.32501 1.60193L4.159 1.27493L4.168 1.04395L5.077 1.07693L5.16901 1.10193L5.57501 1.14194H5.827L5.98199 1.15894L6.047 1.21194L6.035 1.30893L5.991 1.43695L6.043 1.56894L6.18201 1.60394L6.255 1.56393L6.32599 1.49994L6.41 1.44894L6.52899 1.48294L6.784 1.67795L7.021 1.73093L7.27899 1.83694L7.522 1.89594L7.73801 1.88794L7.90201 1.99695L8.20499 2.03195L8.595 1.89294L8.90302 1.83194L9.33401 1.81693L9.561 1.86194L10.218 1.75095L10.546 1.77594L10.735 1.81293Z" fill="#CCCCCC" stroke="white" stroke-width="0.5"/>
</svg>
