<svg width="9" height="10" viewBox="0 0 9 10" fill="none" xmlns="http://www.w3.org/2000/svg">
<path d="M1.21616 1.18604L1.28516 1.19702L1.70514 1.18604L1.81915 1.33405L1.80615 1.55103L1.37415 2.18503L1.29315 2.45203L1.12616 2.67902L0.98114 2.69702L0.483154 2.56403L0.399139 2.48303L0.369141 2.37503L0.418152 2.12204L0.455139 2.04504L0.694153 1.99704L0.771149 1.95602L0.899139 1.68402L0.941162 1.43503L1.04816 1.24704L1.21616 1.18604ZM8.49414 5.62704L8.49716 6.27304L8.50015 6.81903L8.50314 7.41003L8.50616 8.02603L8.50916 8.54703L8.51114 8.88403L7.93616 8.88202L7.17316 8.88004L6.41016 8.87802L5.64816 8.87604L5.26517 8.87503L4.84314 8.87402L4.70615 8.89203L4.61316 8.97702L4.50116 8.99704L4.37115 8.92404L4.21216 8.88904L4.17017 8.81403L4.09116 8.67703L3.93414 8.66202L3.85516 8.67703L3.74216 8.75504L3.61514 8.79602L3.63916 8.73303L3.38815 8.56503L3.20715 8.54803L3.04016 8.49603L3.17514 8.05804L3.34415 7.67102L3.59616 7.37802L3.73016 7.30804L3.77316 7.16302L3.97314 6.68503L4.22116 6.29803L4.14417 5.90604L4.20316 5.24704L4.27515 5.26602L4.28616 5.32803L4.30515 5.42004L4.39816 5.50204L4.70615 5.62903H5.62415H6.17215H6.98315H7.84116L8.49414 5.62704Z" fill="#CCCCCC" stroke="white" stroke-width="0.5"/>
</svg>
