<svg width="26" height="26" viewBox="0 0 26 26" fill="none" xmlns="http://www.w3.org/2000/svg">
<path d="M19.5689 1.34106L19.8199 1.41705L19.9659 1.54007L20.0569 1.65308L20.1959 1.75006L20.2999 1.77206L20.3799 2.10507L20.4219 2.51706L20.3589 2.69507L20.174 2.73605L19.5959 3.12405L19.5819 3.47906L19.59 3.65005L19.6019 3.77206L19.663 3.87405V4.02106L19.5989 4.17905L19.3469 4.44305L19.1719 4.65207L18.976 4.93607L18.866 4.97107L18.7789 5.02106L18.7 4.86505L18.265 4.58807L17.2579 4.42606L16.7769 4.22107L16.5659 4.25906L16.1569 4.03006L15.877 4.13107L15.283 4.53806L14.9619 4.49405L14.619 4.24905L14.3959 4.20407L14.1339 4.33307L13.715 4.80106L13.288 5.03006L12.9059 4.94107L12.392 4.94305L12.3369 5.20407L12.4359 5.38507L12.7169 5.69305L12.585 5.92407L12.6829 6.15506L12.866 6.20206L13.1429 6.18906L13.6539 6.48807L13.8779 6.80307L14.0209 7.14706L13.7089 6.90005L13.502 6.66205L13.213 6.57605L12.812 6.37305L12.5599 6.33905L12.2919 6.48007L12.2709 6.63907L12.5599 6.93607L12.8239 7.11905L12.9639 7.26706L13.0569 7.59607L13.004 7.70706L12.9059 7.81107L12.593 7.60406L12.114 6.86707L11.4459 6.72006L11.3339 6.87405L11.4659 7.26407L11.5609 7.41507L12.142 7.83505L12.0959 7.92407L12.0109 7.96207L11.361 7.72205L11.1719 7.35706L11.127 6.89407L10.5269 6.57205L9.96094 6.22107L9.83392 5.88806L9.95093 5.76407L10.0339 5.51907L9.72296 5.56406L9.52795 5.71906L9.21295 5.86905L9.19995 6.11505L9.24994 6.34305L9.14594 6.67407L9.04395 7.24905L9.10791 7.55005L9.79193 8.41107L10.0259 9.03506L10.1939 9.27106L10.5439 9.53107L10.9089 10.0141L11.0629 10.2651L11.1729 10.6761L10.866 10.9301L10.6879 10.9401L10.5889 10.8281L10.7269 10.5481L10.7069 10.3771L10.2329 10.1121L10.033 10.201L9.80194 10.373L9.93396 10.6931L10.0819 10.9041L10.1569 11.1941L10.4409 11.1691L10.059 11.494L9.69995 11.6601L9.34692 11.6701L9.12195 11.7001L9.04395 11.7831L9.22693 11.843L9.37592 11.8491L9.61896 12.024L10.3099 12.2331L10.64 12.498L10.9639 12.5221L11.2889 13.007L11.8519 13.136L12.1729 13.6251L12.5989 13.7211L12.9669 13.9011L13.0739 14.0721L13.1279 14.382L13.1519 15.037L13.2319 15.5231L13.2349 15.6761L13.215 15.9051L13.1149 16.0171L12.9799 16.0211L12.715 15.6641L12.3099 15.2881L11.882 14.8401L11.7599 14.761L11.6599 14.7541L11.431 14.9051L10.7949 15.0221L10.4969 15.1861L10.3849 15.222L10.3539 15.3081L10.494 15.3971L10.6649 15.6021V15.8811L10.8069 16.2201L10.9899 16.3071L11.228 16.3L11.3649 16.3631L11.4 16.498L11.5389 16.6551L11.6299 16.7721L11.627 16.8551L10.9619 17.076L10.8229 17.1771L10.7059 17.2291L10.533 17.1241L10.5229 16.8541L10.2949 16.7091L10.0859 16.5841L9.83496 16.5311L9.62195 16.3441L9.48291 16.4951L9.59393 17.0191L9.83496 17.3791L10.239 18.343L10.4219 18.9101L10.4589 19.1841L10.3679 19.6391L10.567 19.9761L10.7029 20.3221L10.554 20.3091L10.424 20.1871L10.2059 20.0431L9.78394 19.4901L9.63696 19.1451L9.46094 19.1181L9.15497 19.1681L8.82092 19.9051L8.82196 20.326L8.64893 20.2261L8.50092 20.0951L8.51892 19.6341L8.50397 19.4401L8.09796 18.8101L7.91193 18.7391L7.82495 18.5261L7.67493 18.2981L7.48193 18.3411L7.32391 18.4331L7.28094 18.7771L7.26495 19.0851L7.14691 19.3161L6.71393 18.8771L6.27795 18.1151L6.26697 17.6971L6.58594 17.3141L6.54791 17.0401L6.24591 16.498L5.80994 16.149L5.56592 16.0451L5.45093 15.6731L5.21796 15.481L5.02893 15.3911L4.99194 15.2591L5.04895 15.1611L5.50696 14.7781L5.77496 14.1761L5.90796 14.1481L6.18195 14.291L6.48993 14.2541L6.74194 13.9011L6.95593 13.7091L7.31696 13.7341L8.13196 14.205L9.00793 14.4741L9.44495 14.7091L9.69293 14.942L9.82391 14.9901L10.0319 15.0231L10.0229 14.8491L9.95691 14.6951L10.1299 14.6111L10.5989 14.6151L10.684 14.5331L10.7709 14.4011L10.674 14.2501L10.5189 14.1781L10.353 14.1581L10.244 14.11L10.067 14.1581L9.79193 14.041L9.64893 13.9451L9.56592 13.8461L9.08691 13.649L8.63293 13.3151L8.52997 13.5041L8.34595 13.606L8.08496 13.6211L7.35095 13.4091L6.89996 13.5711L6.65393 13.6131L6.46594 13.6171L6.23492 13.6891L5.96796 13.7321L5.73694 13.4241L5.63995 13.1851L5.57196 13.1401L5.56891 13.3651L5.49493 13.5451L5.15594 13.6461L4.96094 13.5061L4.81091 13.0831L4.62195 12.5441L4.28894 12.1081L4.01794 11.994L3.99493 11.7541L4.01892 11.5621L4.34393 11.5141L4.85193 11.7151L4.95691 11.675L5.07092 11.5821L5.04895 11.3771L4.97491 11.1941L4.83496 11.1861L4.73792 11.2071L4.42493 11.1691L4.02393 11.2711L3.83795 11.175L3.77594 11.0581L3.43994 10.7691L3.14996 10.3811L2.67993 10.1221L2.37292 9.33005L2.11493 8.98407L1.83997 8.73605L1.89996 8.73206L2.00397 8.77405L2.20392 8.91006L2.41595 8.93906L2.53192 8.84906L2.59894 8.76605L2.64197 8.63007L2.65991 8.47107L2.69495 8.41806L2.85791 8.43707L2.90991 8.39706L2.90796 8.25406L2.80292 8.07605L2.71094 7.85706V7.75305L2.78796 7.71106L2.91492 7.61606L2.98291 7.49805L3.11792 7.43906L3.31696 7.42807L3.53894 7.37607L3.68292 7.24905L3.70392 7.12405L3.79395 6.77808L3.85297 6.60806L3.94794 6.45306L3.99896 6.24405L4.10095 6.04706L4.31293 5.96405L4.50494 5.86707L4.64996 5.61307L4.73193 5.39606V5.26306L4.60992 5.04507L4.51996 4.83307L4.54395 4.55707L4.92493 4.53406L5.05792 4.50806L5.55292 4.49307L5.77893 4.34506L5.93494 4.35907L6.26093 4.48706L6.40692 4.38605L6.83295 4.18607L7.25397 3.60406L7.43292 3.51706L7.84192 3.48105L7.96991 3.41406L8.11896 3.42706L8.57697 3.54507L8.83691 3.56305L9.14594 3.48206L9.48596 3.34006L9.57092 2.84106L9.65192 2.76907L9.86292 2.74905L10.0229 2.75305L10.3309 2.79306L10.697 2.80606L10.9319 2.57205L11.3029 2.55505L11.4749 2.52106L11.762 2.56805L12.041 2.56607L12.3979 2.46805L12.731 2.30707L12.991 2.32108L13.0969 2.29205L13.1569 2.25806L13.2219 2.04105L13.7109 2.02707L13.877 2.04807L14.15 2.05405L14.434 1.93506L14.5189 1.94507L14.6619 2.26306L14.7369 2.35507L14.8909 2.44006L15.2349 2.67807L15.2969 2.61505L15.4409 2.53506L15.853 2.64407L16.2459 2.82706L16.5759 3.09607L16.9429 3.01807L17.3499 2.88605L17.6149 2.84805L17.903 2.82907L18.0739 2.77206L18.463 2.84106L18.864 2.69608L19.0569 2.56607L19.1129 2.38205L19.0809 2.05905L18.9899 1.73505L18.8939 1.61505L18.8629 1.49106L18.918 1.37506L18.9799 1.29507L19.2419 1.22705L19.5689 1.34106ZM15.228 5.43207L14.8679 5.56305L14.502 5.31406L14.5049 5.16605L14.6979 4.86505L14.804 4.77606L15.0729 4.80005L15.226 5.00705L15.262 5.10507L15.2119 5.27106L15.228 5.43207ZM17.7869 6.12607L17.4689 6.22205L17.119 5.91907L17.4569 5.79706L17.614 5.88507L17.726 5.98907L17.7869 6.12607ZM17.09 7.74805L16.9839 7.87106L16.905 8.08307L16.8629 8.38605L16.6989 8.39307L16.5999 8.33206L16.567 8.21707L16.5609 8.07205L16.489 8.07806L16.431 8.23505L16.3799 8.30606L16.215 8.32108L16.0339 8.22406L16.043 8.01508L16.007 7.77206L16.0229 7.68707L16.5179 7.66605L16.663 7.84506L16.838 7.74106L16.9099 7.62906L17.1219 7.55905L17.09 7.74805ZM2.04791 9.74905L2.10895 9.95206L1.75891 9.82605L1.50397 9.64505L1.29297 9.19608L0.843933 8.68506L0.836914 8.53607L1.00793 8.42307L1.37695 8.34305L1.52594 8.42606L1.62195 8.51205L1.65192 8.61005L1.44293 8.80606L1.39996 8.89505L1.56091 9.07108L1.55896 9.14206L1.62592 9.48306L1.70496 9.61105L1.90796 9.71405L2.04791 9.74905ZM19.8189 10.1221L19.77 10.3361L20.158 10.6911L20.2899 10.916L20.3389 11.1341L20.306 11.1971L20.1589 11.0791L20.038 11.041L20.0789 11.1971L20.2029 11.3311L19.9829 11.4081L19.7629 11.4041L19.119 11.2171L18.9709 11.0181L19.356 10.7191L19.434 10.5981L19.1619 10.61L18.8709 10.9651L18.405 10.8091L18.262 10.666L18.2299 10.5891L18.4139 10.2731L18.7419 10.2841L18.9149 10.2131L19.1299 10.1131L19.132 9.96307L19.6439 9.92905L19.8189 10.1221ZM12.741 10.7401L12.6099 10.7821L12.741 10.494L12.973 10.3451L12.8859 10.5871L12.741 10.7401ZM12.437 10.8981L12.312 11.0201L12.1179 10.9671L11.9149 10.5591L12.437 10.8981ZM11.4149 11.4581L11.5739 11.8481L11.723 11.9791L12.0349 12.1341L12.1819 12.1541L12.715 12.4341L13.3339 12.4901L13.4139 12.5711L13.4899 12.7861L13.616 12.955L13.6479 13.0861L13.5819 13.2321L13.6729 13.6771L13.8289 14.0991L14.064 14.3031L14.3569 14.3651L14.6359 14.356L14.7059 14.4401L14.6779 14.8081L14.5599 14.9521L14.4639 14.9871L14.3809 14.9491L14.3049 14.8631L14.223 14.8221L14.0629 14.8151L13.9459 14.6671L13.6489 14.4641L13.5939 14.3421L13.5839 14.1551L13.4579 14.0171L13.3419 13.7551L13.2319 13.6821L13.171 13.55L13.166 13.494L12.7339 13.455L12.377 13.4541L12.0739 13.3051L11.9799 12.9141L11.7999 12.8091L11.6649 12.6981L11.5529 12.5441L11.2689 12.261L10.955 12.024L10.6509 11.8671L10.3289 11.7641L10.067 11.8851L9.91394 11.8571L9.88293 11.7751L10.2089 11.6121L10.6569 11.3L10.9719 11.1971L11.1249 11.1841L11.4149 11.4581ZM14.9489 11.9951L14.653 12.0821L14.5739 12.0681L14.64 11.9581L14.645 11.912L14.3489 11.7101L14.3839 11.4481L14.4189 11.3811L14.6389 11.5181L14.687 11.7461L14.9489 11.9951ZM3.75696 12.7131L3.64795 12.7411L3.55396 12.722L3.46893 12.7381L3.38593 12.8061L3.39496 12.5231L3.49194 12.1701L3.60992 11.9641L3.77692 11.8681L3.84796 12.0301L3.83496 12.606L3.75696 12.7131ZM18.9319 14.106L18.6639 14.3071L18.3649 14.0161L18.3159 13.9221L18.5359 13.804L18.645 13.623L18.5569 13.4001L18.252 13.0701L18.2369 12.8361L18.7039 12.7371L18.9789 12.9411L19.119 12.955L19.0649 13.1501L19.0889 13.2131L19.1099 13.8031L18.9799 13.886L18.9589 14.0481L18.9319 14.106ZM3.95795 13.7101L3.81891 13.7491L3.64294 13.4081L3.57892 13.1721L3.65295 13.1591L3.72296 13.1861L3.79694 13.2751V13.3661L3.82697 13.4641L3.90393 13.5811L3.95795 13.7101ZM3.54791 13.5181L3.58295 13.9301L3.78094 14.007L4.04395 14.3771L4.02191 14.5661L3.96692 14.6311L3.53094 14.4561L3.42694 14.5351L3.29993 14.5031L3.22095 14.2981L3.22992 14.2261L3.15894 14.1031L3.09894 14.0481L2.92792 14.2111L2.81995 14.2411V14.0921L2.97894 13.6821L3.05292 13.6131L3.18292 13.748L3.28992 13.6981L3.37091 13.4761L3.37592 13.2551L3.41296 13.1901L3.54791 13.5181ZM11.7949 15.1441L11.684 15.231L11.559 15.2271L11.4699 15.1951L11.426 15.1251L11.481 15.0921L11.546 14.951L11.606 14.9131L11.6949 14.9311L11.7499 14.9881L11.7949 15.1441ZM15.838 15.7321L15.7549 15.9691L15.5359 15.6931L15.296 15.5041L15.2059 15.3381L15.0599 15.2381L15.02 15.0151L15.197 14.9241L15.2729 14.9151L15.455 15.1861L15.739 15.2171L15.7169 15.3841L15.8069 15.5991L15.838 15.7321ZM4.32294 15.5711L4.61896 15.9151L4.37994 15.83L4.12592 16.0681L3.80396 15.7901L3.61096 15.5081L3.56793 15.3951L3.76996 15.1311L3.95795 15.4021L4.18591 15.4451L4.32294 15.5711ZM20.9819 15.5491L21.327 15.666L21.4229 15.6531L21.5859 15.6951L21.629 15.9091L21.413 15.9401L21.0389 16.1371L20.8799 16.0941L20.6899 15.9231L20.3879 15.9051L20.299 15.8581L20.4609 15.6561L20.7549 15.554L20.9819 15.5491ZM14.054 16.3771L13.866 16.5481L13.8339 16.291L13.955 16.0201L14.1199 16.0031L14.181 16.1221L14.054 16.3771ZM16.58 16.2971L16.476 16.5251L16.301 16.4901L16.0079 16.2451L15.908 16.1341L15.853 16.0251L15.973 16.0121L16.1199 16.1281L16.4949 16.1891L16.58 16.2971ZM18.7499 16.5451L18.619 16.5591L18.6589 16.4181L18.9099 16.1731L19.262 16.1611L19.5819 16.0381L19.6539 16.0341L19.5009 16.2271L19.2429 16.4071L18.7499 16.5451ZM16.9919 16.9331L16.723 16.955L16.739 16.6861L16.8389 16.6161L17.1609 16.7501L17.145 16.8341L16.9919 16.9331ZM15.702 16.6711L15.6879 17.0361L15.614 17.0331L15.5709 16.9771L15.5689 16.8371L15.601 16.6171L15.702 16.6711ZM14.278 17.1961L14.1179 17.3031L14.171 17.0591L14.0919 16.9321L14.1619 16.8241L14.265 16.7371L14.3129 16.8271L14.405 16.9731L14.278 17.1961ZM14.5239 17.9661L14.4199 18.0191L14.2469 17.942L14.293 17.7501L14.413 17.6681L14.5399 17.731L14.559 17.8181L14.5239 17.9661ZM17.3939 18.5181L17.1439 18.6501L16.973 18.4591L16.8779 18.1581L17.3359 17.7161L17.4459 17.7561L17.512 17.8701L17.502 18.2671L17.3939 18.5181ZM16.645 18.1651L16.4219 18.4351L16.236 18.4061L16.158 18.2821L16.2729 18.0281L16.5219 17.8841L16.6349 17.9221L16.624 18.11L16.645 18.1651ZM21.53 18.5471L21.2499 18.5951L21.2999 18.317L21.163 18.0981L21.3809 18.2211L21.52 18.369L21.588 18.3971L21.572 18.4861L21.53 18.5471ZM15.0789 18.679L15.028 18.6941L14.9539 18.5471L14.939 18.4101L14.968 18.3291L15.0649 18.3211L15.197 18.5821L15.0789 18.679ZM18.2729 19.136L18.025 19.1651L17.9459 19.1391L18.0969 19.0791L18.202 19.0151L18.2529 18.938L18.504 18.8021L18.6689 18.6241L18.848 18.7451L18.624 18.826L18.2729 19.136ZM21.3329 19.3571L21.2459 19.3611L21.3499 19.1931L21.6459 18.9621L22.077 18.7581L22.2199 18.7361L22.463 18.8621L22.017 19.0711L21.8979 19.1811L21.5689 19.205L21.3329 19.3571ZM16.9329 19.5421L16.8839 19.597L16.6719 19.3771L16.5909 19.2491L16.692 19.1421L17.004 19.3921L16.9329 19.5421ZM14.559 19.2291L14.564 19.4341L14.5439 19.507L13.9699 19.606L14.0229 19.3711L14.0579 19.2971L14.2479 19.4061L14.3179 19.3501L14.3459 19.2861L14.559 19.2291ZM23.8889 19.9601L23.8279 20.0151L23.687 19.856L23.6799 19.7731L23.8239 19.6781L23.8959 19.6561L23.9169 19.7211L23.9149 19.86L23.8889 19.9601ZM19.9609 19.8511L19.739 19.9341L19.598 20.1091L19.426 19.985V19.817L19.614 19.869L19.7459 19.774L19.7059 19.6671L19.8499 19.7171L19.9609 19.8511ZM17.2159 20.5211L17.0859 20.7041L16.9019 20.6391L16.9769 20.5701L17.0209 20.4801L17.0259 20.3501L16.976 20.2701L17.0099 20.2411L17.174 20.3751L17.2159 20.5211ZM23.84 22.1241L23.6379 22.1971L23.5679 22.188L23.4839 22.0281L23.601 21.6421L23.4929 21.3931L23.486 21.2881L23.65 21.1421L23.7639 20.9231L24.0419 20.6861L24.7629 20.4051L24.9319 20.3791L24.9269 20.5991L24.6859 21.1551L24.4719 21.4331L24.5289 21.6551L24.1859 21.7171L23.84 22.1241ZM10.4 21.2241L10.3669 21.3741L10.0779 21.2711L9.99792 21.1161L9.98291 20.7721L10.059 20.6041L10.1089 20.5511L10.2419 20.7451L10.5209 21.0281L10.4 21.2241ZM21.9689 23.7211L21.8619 23.9141L21.7529 23.7511L21.7999 23.563L21.674 23.2661L21.913 22.8241L21.918 22.6091L22.101 22.4991L22.056 22.8641L21.916 23.1561L22.0609 23.399L22.1299 23.675L21.9689 23.7211ZM12.6409 23.4801L12.8329 23.5051L13.093 23.5011L13.1519 23.4801L13.3179 23.2791L13.5219 23.2751L13.611 23.4731L13.4039 23.5641L13.3619 23.6161L13.4019 23.6581L13.5569 23.7411L13.7729 23.7101L13.7789 23.8661L13.827 23.9931L13.9329 24.0691L14.049 24.0841L14.304 24.0621L14.5549 24.0121L14.814 23.912L15.0789 23.8611L15.8699 23.912L16.1539 24.1281L16.6949 24.1541L17.197 24.2681L17.4609 24.1931L17.9119 24.123L17.9839 24.1991L17.926 24.6861L17.9539 24.8281L18.0839 24.8961L18.2119 24.8631L18.3699 24.7031L18.7479 24.58H19.14L19.4709 24.2561L19.5679 24.2371L19.507 24.3961L19.4569 24.7701L19.387 24.9891L19.3549 25.1611L19.1339 25.2501L18.801 25.2651L18.192 25.2271L17.5779 25.2881L16.4409 25.4521L15.3019 25.5361L15.1489 25.481L15.1459 25.2641L15.1219 25.1141L15.0479 25.0091L14.6959 24.9191L14.3599 24.7651L13.043 24.5551L12.7319 24.472L12.228 24.5151L12.043 24.5091L11.916 24.4341L11.8279 24.304L11.788 23.8911L11.851 23.4821L11.96 23.3741L12.0099 23.4971L12.1389 23.554L12.2589 23.4301L12.2579 23.2421L12.3189 23.0681L12.4139 23.1411L12.4769 23.4091L12.6409 23.4801Z" fill="#CCCCCC" stroke="white" stroke-width="0.5"/>
</svg>
