<svg width="13" height="14" viewBox="0 0 13 14" fill="none" xmlns="http://www.w3.org/2000/svg">
<path d="M9.46877 1.17688L9.44177 1.88687L9.41077 2.70889L9.38777 3.31189L9.35677 4.11588L9.32578 4.93689L9.28278 6.05386L9.25577 6.77386L9.26877 6.79086L9.60378 6.75589L10.0988 6.78787L10.2198 6.78589L10.3708 6.84787L10.4878 6.86688L10.7398 7.02887L11.0348 7.15189L11.2238 6.90387L11.1248 6.75488L11.0498 6.67886L11.0618 6.61188L12.0878 7.25388L11.9668 7.35287L11.7058 7.58087L11.2318 7.97186L10.8078 8.32089L10.3988 8.63687L10.0318 8.92188L9.98778 8.94989L9.52177 9.15387L9.44377 9.24689L9.34377 9.64886L9.29778 9.74887L9.38277 9.97186L9.46677 10.3159L9.43977 10.4969L9.11777 10.7179L8.96977 10.9169L8.90477 11.0459L8.84677 11.0129L8.74677 11.0029L8.51677 11.0529L8.40477 11.0639L8.31277 11.1209L8.30276 11.2449L8.36478 11.4459L8.38676 11.5489L8.32178 11.5969L8.03777 11.7179L7.92577 11.8369L7.81877 12.0209L7.69478 12.0989L7.56477 12.0849L7.47278 12.1119L7.27577 12.2509L6.97977 12.5189L6.82178 12.7179L6.81776 12.8659L6.84877 12.9999L5.77077 12.5279L5.41277 12.4469L3.89877 12.4569L3.24977 12.2709L2.51077 11.9129L2.00977 11.5869L0.842773 10.6739L0.915771 10.5999L0.977768 10.4299L1.05377 10.2539L1.00677 10.0509L0.978775 9.88687L1.06577 9.64688L1.05777 9.46786L1.09778 9.35687L1.22577 9.28488L1.29277 9.14789L0.928772 8.67587L0.929764 8.56787L0.977768 8.43488L1.27177 7.92987L1.62277 7.32889L2.00877 6.66489L2.24178 6.26489L3.09077 6.26389L3.65277 6.26288H4.36678L5.14177 6.26187H5.65077L5.86076 6.25687L5.82477 5.99689L5.85277 5.70889L5.94478 5.44788V5.33289L5.79277 5.19089L5.49977 5.10889L5.33577 4.98389L5.33478 4.82587L5.26378 4.63489L5.12077 4.40988L4.82578 4.17987L4.37677 3.94388L3.99477 3.62787L3.67976 3.23087L3.41377 2.97589L3.20776 2.86887L3.15977 2.81287L3.76077 2.81686L4.32877 2.82187L4.33276 2.25189L4.33577 1.74588L4.33977 1.17188L5.36977 1.17288L6.60077 1.17389L7.87677 1.17587L8.87877 1.17688H9.46877Z" fill="#CCCCCC" stroke="white" stroke-width="0.5"/>
</svg>
