<svg width="10" height="7" viewBox="0 0 10 7" fill="none" xmlns="http://www.w3.org/2000/svg">
<path d="M9.16788 1.04395L9.15887 1.27493L9.32489 1.60193L9.30087 1.84494L9.22888 2.07495L9.16586 2.16592L9.08289 2.21893L8.83087 2.21695L8.72488 2.26294L8.55688 2.35294L8.55289 2.45895L8.68689 2.55994L8.79688 2.70093L8.92487 2.81195L9.14487 2.93994L9.16586 3.08194L9.17188 3.43994L9.15988 3.71994L8.54086 3.92294L8.06589 3.95895L7.66388 3.93695L7.48889 4.02194L7.13889 4.23093L6.71188 4.35794L6.49289 4.36694L6.38788 4.44293L6.22186 4.65994L5.75888 5.60794L5.60587 5.83493L5.48187 5.98294L5.33987 5.78195L5.44989 5.40994L5.33087 5.41495L5.09488 5.71594L4.97989 5.72495L4.99487 5.36893L4.86389 5.35593L4.71188 5.38095L4.49988 5.19495L4.47888 5.05594L4.49588 4.86194L4.62488 4.73795L4.60687 4.68594L4.48187 4.67093L4.34189 4.70395L4.25589 4.64493L4.39789 4.39294L4.89389 4.18195L5.14288 4.15994L5.39886 4.11194L5.25888 3.92993L4.95587 3.85794L4.71387 3.90793L4.59286 4.03894L4.44388 4.06094L4.19388 3.75195L4.19788 3.59692L4.29086 3.41293L4.43588 3.32993L5.01086 3.33194L5.22888 3.22794L5.31686 3.20895L5.39987 3.11493L5.38187 3.05194L5.28787 3.04895L5.07288 3.17194L4.38089 3.12595L4.15988 3.19995L3.77487 3.48294L3.30087 3.63895L2.95688 3.57294L3.06686 3.19394L3.01788 3.14294L2.90988 3.07993L2.40588 3.20093L2.02487 3.02795L1.87387 2.81894L1.89987 2.55594L2.07986 2.37793L2.10788 2.28894L1.91788 2.27194L1.56787 2.38293L0.796875 1.95294L0.950867 1.92593L1.33087 1.97095L1.62589 1.91693L1.83389 1.82593L2.11688 1.70093L2.38989 1.65994L3.24487 1.71594L3.98788 1.56595L4.53989 1.28394L5.04987 1.02393L5.71088 1.02695L6.41888 1.02994L7.42587 1.03394L8.22388 1.03693L9.16788 1.04395ZM2.83389 3.30392L2.68787 3.65295L2.50787 3.61395L2.38187 3.40594L2.36789 3.31793L2.73389 3.28995L2.83389 3.30392ZM4.04889 4.28595L4.02289 4.35193L3.86288 4.29593L4.09589 4.05594L4.24786 4.01395L4.24289 4.19794L4.12589 4.23694L4.04889 4.28595ZM3.07089 4.48895L2.93887 4.57794L2.80289 4.53595L2.72989 4.45593L2.74088 4.31293L2.89487 4.11093L3.03287 4.13693L3.07089 4.48895ZM3.56686 5.20093V5.31793L3.44788 5.29593L3.41287 5.26093L3.48389 5.04993L3.58789 4.95593L3.71588 4.97095L3.75388 4.99893L3.72888 5.07993L3.67288 5.14694L3.56686 5.20093ZM2.47488 5.64493L2.24988 5.68695L2.14789 5.54593L2.13287 5.49094L2.24988 5.44394L2.30289 5.44193L2.39188 5.33893L2.50189 5.27094L2.55087 5.24893L2.60788 5.25394L2.64886 5.47995L2.59488 5.57495L2.47488 5.64493ZM3.08789 5.57895L3.06189 5.65793L2.89688 5.64594L2.93387 5.56595L2.89789 5.54294L2.94489 5.30295L2.96988 5.26593L3.04987 5.35495L3.06088 5.39194L3.08789 5.57895Z" fill="#CCCCCC" stroke="white" stroke-width="0.5"/>
</svg>
