<svg width="15" height="22" viewBox="0 0 15 22" fill="none" xmlns="http://www.w3.org/2000/svg">
<path d="M12.1832 9.17905L12.0342 9.35507L12.0072 9.46805L11.9112 9.66705L11.8362 9.77505L11.9452 10.0231L12.0692 10.0341L12.1172 10.0661L12.1482 10.1141L12.1412 10.1671L12.0932 10.2141L11.9742 10.274L11.8612 10.4171L11.8722 10.5751L11.8012 10.6571L11.5732 10.701H11.1272L10.9092 10.7121L10.7342 10.7391L10.6192 10.8411L10.4732 10.9131L10.3582 10.929L10.2572 11.0481L10.1562 11.2161L10.1902 11.3321L10.2942 11.485L10.3552 11.6421L10.2752 11.8971L10.1872 12.0941L10.1352 12.244L10.0642 12.5321L9.89322 12.8501L9.77121 13.0301V13.2271L9.83322 13.5051L10.1822 13.9111L10.2982 14.1051L10.3932 14.416L10.7082 14.6611L10.9072 14.8591L10.8882 15.1201L10.9152 15.2021L11.0382 15.2681L11.1882 15.3181L11.3532 15.3141L11.5012 15.2921L11.5352 15.2551L11.8772 15.2501L11.9162 15.3161L11.9362 15.692L11.9502 15.8451L12.0312 15.9061L12.0802 16.0001L12.0832 16.0841L12.0982 16.2951L12.1492 16.4061L12.1412 16.6301L12.1762 16.7131L12.2712 16.7691L12.3902 16.9301L12.4352 16.9501L12.4582 17.007L12.5602 17.2361L12.6122 17.3051L12.6482 17.3151L12.6642 17.3951L12.7382 17.6091L12.7882 17.662L12.8832 17.8191L12.9222 17.9911L13.0482 18.1851L13.1772 18.3211L13.2352 18.4621L13.4002 18.7731L13.5602 18.9921L13.7762 19.0491L13.9572 19.08L14.0702 19.1641L14.1812 19.2551L14.0622 19.2971L13.9552 19.3531L13.8062 19.3101L13.6002 19.3331L13.3862 19.3951L13.1882 19.425L12.8152 19.3271L12.7022 19.313L12.6242 19.2711L12.4702 19.0781L12.3962 19.0551L12.1982 19.1451L11.9572 19.2081L11.8392 19.1961L11.7002 19.261L11.5712 19.3481L11.3252 19.7251L11.1982 19.8581L11.0622 19.9191L10.7892 19.9171L10.4972 19.9311L10.2782 20.0221L10.0742 20.0681L9.9722 20.0741L9.93723 20.2811L9.89023 20.3771L9.8262 20.4321L9.66721 20.4481L9.5242 20.4411L9.4382 20.3551L9.27722 20.3121L9.13422 20.2811L9.04221 20.2321L8.96722 20.244L8.90521 20.33L8.8562 20.4041L8.8132 20.5401L8.59622 20.5831L8.5032 20.6601L8.55722 20.9131L8.53223 21.0121L8.48721 21.0891L8.22522 21.1041L8.00223 21.0991L7.87421 21.192L7.7142 21.3011L7.61722 21.3211L7.50223 21.3151L7.35123 21.188L7.2052 21.0331L6.83521 20.9241L6.4682 20.8341L6.2272 20.5871L6.17023 20.4661L6.05722 20.412L5.77121 20.119L5.61322 19.9311L5.4422 19.8801L5.24622 19.8021L5.25421 19.6651L5.24121 19.5341L5.15622 19.4801L5.03821 19.4451L4.99521 19.3711L5.0072 19.1991L5.03021 18.7541L4.99722 18.3291L4.73422 18.1821L4.62021 18.0811L4.42023 17.4521L4.3262 17.1691L4.3222 16.9581L4.38821 16.33L4.46323 16.0581L4.66721 15.5131L4.78421 15.3281L4.7912 15.1901L4.77921 15.0131L4.71921 14.6631L5.0632 14.442L5.21121 14.3491L5.23621 14.201L5.42023 14.0141L5.50223 13.8361L5.57022 13.6961L5.55121 13.6221L5.47122 13.5791L5.37622 13.4461L5.17722 13.0621L5.10522 12.9841L5.04422 12.8761L5.07523 12.7071L5.15323 12.5221L5.14322 12.4451L5.0242 12.3461L4.77823 12.1801L4.57422 12.1681L4.4162 12.1081L4.1842 12.1001L3.99921 12.0821L3.89322 12.0201L3.91522 11.9181L3.96121 11.8401L4.11722 11.6461L4.22122 11.4401L4.2352 11.2381L4.26721 10.9731L4.31223 10.7421L4.33621 10.4821L4.09122 10.3111L4.01321 10.1701L3.9122 10.0451H3.8002L3.6322 9.99207L3.37021 10.1561L3.16321 10.1261L3.02121 10.188L2.69321 10.175L2.48221 10.0951L2.22821 10.1481L1.63321 9.48907L1.03522 8.82605L0.446228 8.17407L0.407227 8.08505L0.653229 7.77405L0.873199 7.55106L1.05621 7.42407L1.14322 7.31305L1.0762 6.83307L1.0802 6.66107L0.994202 6.47305L0.933228 6.26306L1.00623 6.08707L1.09521 5.96506L1.21021 5.91705L1.48422 5.87506L1.67822 5.85706L1.74722 5.78705L1.85922 5.70605L2.0072 5.70105L2.29523 5.75806L2.42722 5.65207L2.6662 5.50806L3.20221 5.26105L3.3222 5.09906L3.40622 4.84906L3.39722 4.73007L3.34222 4.68607L3.20923 4.64505L3.00522 4.63907L2.84222 4.70407L2.67322 4.66806L2.5332 4.51407L2.52521 4.38605L2.60822 4.20605L2.56021 4.08606L2.29221 3.70605L2.29321 3.60107L2.48822 3.43005L2.59821 3.28506L2.74921 2.93707L2.8692 2.82108L3.24222 2.78006L3.33722 2.70605L3.52722 2.52206L3.81122 2.31207L4.21921 2.14407L4.33621 1.83905L4.40921 1.75507L4.73422 1.59506L4.7912 1.50906L4.7832 1.43307L4.2612 0.748047L4.3652 0.794067L4.76923 1.24207L4.99323 1.33905L5.04022 1.34106L5.04221 1.22507L5.2482 1.27307L5.77823 1.58005L6.55521 2.08505L7.64621 3.03906L7.95621 3.40207L8.16522 3.57306L8.48923 3.98907L8.58423 4.19107L8.57523 5.00006L8.2872 5.54605L8.21722 5.95706L8.20221 6.50406L8.03522 6.81705L8.25623 6.64706L8.32523 6.15405L8.51422 5.85406L8.75922 5.52505L9.08621 5.44608L9.4382 5.58606L9.7222 5.61105L9.9722 5.70807L10.5042 6.23407L11.0242 6.65005L11.2142 6.98306L11.7652 7.15005L12.0912 7.41306L12.1962 7.64105L12.2602 8.23505L12.1542 9.13306L12.1832 9.17905Z" fill="#CCCCCC" stroke="white" stroke-width="0.5"/>
</svg>
