<svg width="20" height="12" viewBox="0 0 20 12" fill="none" xmlns="http://www.w3.org/2000/svg">
<path d="M10.7042 1.12714L10.4902 1.29514L10.4512 1.21912L10.5542 1.06311L10.6832 0.974121L10.8082 0.983124L10.7782 1.05011L10.7042 1.12714ZM9.16319 1.36911L8.7132 1.59613L8.5722 1.59213L8.7782 1.41711L9.11119 1.26712L9.3932 1.19312L9.62419 1.22513L9.16319 1.36911ZM18.3192 5.38211L17.5962 5.33911L17.2552 5.42813L17.1062 5.62912L16.9782 5.71912L16.8712 5.69812L16.6542 5.77713L16.3272 5.95511L16.0332 6.02213L15.7702 5.97913L15.6942 6.02213L15.6732 6.08112L15.6332 6.13812L15.5312 6.16812L15.4142 6.15213L15.2832 6.08911L15.2142 6.11612L15.2062 6.23212L15.1352 6.26312L15.0012 6.20813L14.8502 6.25012L14.6822 6.38913L14.4462 6.41812L14.1422 6.33813L13.9072 6.18713L13.7402 5.96512L13.5402 5.90912L13.1902 6.07413L13.0442 6.26712L13.0122 6.38513L13.0462 6.49213L12.9822 6.56311L12.8192 6.59912L12.6952 6.73013L12.6112 6.95612L12.5942 7.13113L12.6452 7.25412L12.5642 7.34412L12.3512 7.40213L12.1002 7.59711L11.8102 7.92911L11.5222 8.16013L11.2352 8.29111L11.0972 8.43713L11.1072 8.59711L11.0892 8.64713L11.0342 8.66611L10.9412 8.68811L10.3882 8.34012L10.2292 8.09711L10.0922 8.13412L9.9182 8.25711L9.6732 8.53012L9.41119 8.90213L9.28419 8.94412L8.6292 8.88812L8.2832 8.92111L8.2122 8.97012L8.18019 9.10611L8.2002 9.28812L8.2952 9.94211L8.34821 10.2111L8.2962 10.2941L8.12019 10.3071L7.8912 10.3451L7.7662 10.4681L7.73619 10.5951L7.7242 10.7721L7.65219 10.9551L7.5112 11.0861L7.3712 11.1331L6.59019 11.1681L6.6042 10.8661L6.3792 10.7431L6.25121 10.4911L6.13921 10.3211L6.17619 10.2191L6.16519 10.0981L5.8472 10.0041L5.5502 10.0771L5.3792 10.0291L5.2532 9.96512L5.4702 9.81613L5.4852 9.72513L5.41519 9.66013L5.34419 9.61612L5.3652 9.44711L5.40919 9.24713L5.5312 8.78012L5.48619 8.69812L5.2872 8.55713L5.0352 8.54312L4.7572 8.58713L4.6232 8.51514L4.5062 8.35413L4.3082 8.27713L3.9572 8.40512L3.58521 8.59811L3.47119 8.66812L3.3772 8.65912L3.33521 8.51413L3.31619 8.34311L3.2932 8.30112L3.0952 8.24011L2.8642 8.19614L2.7462 8.14911L2.63519 8.03311L2.3582 7.88211L2.2952 7.77011L1.9252 7.51413L1.8502 7.38712L1.7652 7.29413L1.5872 7.17612L1.4482 7.20413L0.979202 7.05713L0.908203 7.04413L0.973206 6.91513L1.1212 6.71613L1.44319 6.49411L1.4702 6.31412L1.3862 5.97012L1.30119 5.74713L1.3472 5.64713L1.4482 5.24512L1.5262 5.15213L1.9922 4.94812L2.0352 4.92014L2.4032 4.63513L2.8112 4.31912L3.2352 3.97012L3.7092 3.57913L3.9702 3.35013L4.0912 3.25113L4.3642 3.33212L4.57919 3.14713L4.7032 3.08511L4.9942 2.86414L5.0842 2.81613L5.57021 2.72513L5.80519 2.72711L6.0112 2.95212L6.17419 3.07513L6.4812 2.97012L6.7382 2.94711L7.80119 3.15613L8.22321 3.06412L8.9982 3.04413L9.3472 3.09613L9.8392 2.80112L10.1552 2.74112L10.5262 2.60312L10.4772 2.46112L10.3882 2.39713L10.9542 2.45914L11.7972 2.75912L12.6952 2.70511L13.0192 2.54312L13.2282 2.49713L14.1482 2.80511L14.3902 3.04211L14.5792 3.06512L14.7262 3.01111L14.7662 2.96213L14.5852 2.91013L14.5022 2.83612L15.2272 2.98212L16.5912 4.09912L16.6192 4.19012L16.0362 3.86011L15.7282 3.88513L15.6472 3.93811L15.6652 4.11813L15.6932 4.20212L15.8252 4.21213L15.9232 4.16312L16.1642 4.22211L16.3242 4.34213L16.5172 4.52612L16.6332 4.72513L16.7582 4.72812L16.8812 4.60812L17.1132 4.59311L17.2632 4.72711L17.3702 4.71912L17.2212 4.51111L16.8702 4.30411L16.9532 4.29514L17.7312 4.66611L17.9512 5.13211L18.1342 5.23712L18.3192 5.38211Z" fill="#CCCCCC" stroke="white" stroke-width="0.5"/>
</svg>
