<svg width="18" height="17" viewBox="0 0 18 17" fill="none" xmlns="http://www.w3.org/2000/svg">
<path d="M9.05194 0.694122L9.20294 0.755127L9.70294 1.03311L10.049 1.34613L10.241 1.69312L10.5009 1.96112L10.8289 2.15112L11.0889 2.40811L11.2809 2.73212L11.5499 2.91412L11.895 2.95312L12.1129 3.06412L12.205 3.24713L12.3929 3.41211L12.676 3.56012L13.1149 3.64111L13.9569 3.66113L14.0319 3.66513L14.2219 3.71112L14.4439 3.65314L14.715 3.53812L14.8019 3.46912L15.0859 3.09113L15.2429 3.12411L15.5549 3.07812L15.744 2.99411H15.7579L15.7459 3.09113L15.7249 3.26013L15.572 3.37912L15.7269 3.65411L15.8749 4.10013L15.7919 4.32013L15.8929 4.49112L16.1769 4.61414L16.2029 4.66312L16.116 4.71411L16.0439 4.85913L16.0359 5.12311L16.2839 5.37311L16.788 5.60712L16.9489 5.64612L17.0109 5.73611L17.0949 5.79514L17.145 5.86713L17.1479 5.96011L17.111 6.02411L16.8719 6.04611L16.5999 6.04413L16.4059 5.93112L16.3879 6.01413L16.3849 6.10812L16.197 6.16513L16.301 6.81213L16.2589 6.99811L16.1899 7.06113L16.1259 7.03513L16.0469 7.02814L16.0079 7.08911L16.041 7.22711L15.856 7.24313L15.562 7.17212L15.4269 7.04712L15.4039 6.92014L15.4019 6.80112L15.3079 6.60611L15.0739 6.40411L14.585 6.37112L14.4039 6.30713L14.2169 6.23413L14.0129 6.17911L13.825 6.18411L13.598 6.23813L13.202 6.14911L13.0679 6.26813L12.8599 6.40512L12.687 6.40213L12.343 6.08414L12.2399 6.06412L11.939 6.22614L11.8159 6.23511L11.7219 6.18411L11.3149 6.06213L11.1309 6.03613L10.9959 6.09412L10.757 6.03214L10.1769 5.61511L9.81793 5.93213L9.08795 5.85312L8.87091 6.07013L8.62292 6.48111L8.42194 6.67712L8.24695 6.60712L8.03992 6.42612L7.67792 5.96112L7.49493 5.87714L7.28491 5.85712L7.10193 5.90912L7.00397 6.00311L6.92896 6.68213L6.86292 7.27911L6.85895 7.63611L7.26093 7.96613L7.73596 8.53311L7.88794 8.59811L7.96393 8.78311L8.07495 9.26013L8.19995 9.79514L8.44092 10.1491L8.65796 10.4011L8.92291 10.6231L9.25592 10.9701L9.52795 11.3511L9.59991 11.4911L10.129 11.9931L10.642 12.5041L11.0999 12.6831L11.1719 12.7771L11.176 13.1691L11.226 13.3161L11.5319 13.7261L12.1569 14.3251L12.2289 14.4631L12.2499 14.5651L12.21 14.6431L12.046 14.7251L11.9119 14.6341L11.33 14.0501L10.767 13.6811L10.132 12.9851L9.28192 12.7091L8.70294 12.4031L8.35193 12.4491L7.96497 12.5451L7.72595 12.5481L7.55597 12.4931L7.43591 12.3031L7.45392 12.1561L7.43292 11.9651L7.09393 11.6581L6.63092 11.3661L6.19293 10.9881L5.31293 9.96411L5.13593 9.63312L5.30896 9.57013L5.43994 9.57611L5.58795 9.50812L5.82794 9.50711L6.11194 9.57413L5.86096 9.35413L5.54791 9.13812L4.73792 8.27814L4.49591 7.87012L4.46796 7.43011L4.52795 6.82611L4.38196 6.39212L3.75696 5.82913L3.52795 5.53214L3.06696 5.35513L2.85992 5.37213L2.73596 5.59213L2.64594 6.08011L2.23694 6.72211L2.10095 7.00012L1.88696 7.36111L1.70093 7.38611L1.59192 7.35413L1.25995 6.74612L0.942932 6.28412L0.898926 6.06512L0.869934 5.79514L0.62793 4.79813L0.797913 4.65811L0.902954 4.81812L1.64197 5.01111L1.80194 4.92612L1.89893 4.79514V4.71213L1.96191 4.68811L2.22192 4.81412L2.43396 4.78513L2.77594 4.77911L3.01996 4.80011L3.18195 4.70312L3.39996 4.34613L3.48096 4.14612L3.57892 4.09811L3.64294 4.12213L3.68994 4.28711L3.80493 4.44113L4.04095 4.69211L4.20795 4.81311L4.35895 4.85611L4.50696 4.75513L4.65991 4.72614L5.09796 4.92212L5.46796 4.95914L5.74097 4.85712L5.70496 4.71613L5.60492 4.55911L5.58392 4.40714L5.60193 4.27512L5.78992 4.14413L5.78094 4.08612L5.55396 3.85513L5.56494 3.79514L6.06195 3.53412L6.54095 3.38812L6.61792 3.27512L6.66193 3.10513L6.68292 2.78613L6.65692 2.52512L6.46295 2.28012L6.45093 2.15613L6.49695 2.02713L6.57294 1.91013L6.76495 1.86011L6.98993 1.77612L7.16797 1.67911L7.40796 1.59912L7.59692 1.48712L7.78192 1.22012L7.89392 1.17612L8.23291 1.21411L8.30597 1.14813L8.25891 0.76413L8.31995 0.666107L8.43994 0.611115L8.49591 0.557129L8.79492 0.599121L9.05194 0.694122ZM4.26495 6.79813L3.91895 6.88312L3.75397 6.73111L3.71094 6.60611L3.42596 6.56613L3.25397 6.39313L3.21893 6.31613L3.46295 6.12512L3.59296 5.81613L3.75793 6.00214L3.95795 6.35114L4.06494 6.44812L4.26495 6.79813ZM3.35992 8.04813L3.33795 8.20013L3.16797 8.00711L3.08191 7.66113L2.86694 7.10013L2.83893 6.94211L2.94995 6.78613L2.94391 6.62714L2.79193 6.13312L2.91895 6.05212L2.99493 6.04211L3.02594 6.38513L3.09491 6.58212L3.30194 6.82413L3.25995 7.22311L3.30194 7.79013L3.34393 7.91611L3.35992 8.04813ZM4.32391 7.65912L4.39496 7.83313L4.13092 7.67612L3.89392 7.61612L3.84393 7.49811L3.87793 7.40112L3.92896 7.30713L4.10791 7.32013L4.13495 7.41211L4.32391 7.65912ZM5.32593 9.32013L5.25397 9.42413L5.07196 9.23312L4.90497 9.09711L4.78595 8.93512L4.55194 8.73312L4.47296 8.50214L4.12396 8.03012L4.07196 7.90213L4.24591 8.09311L4.39093 8.21313L4.51093 8.24213L4.81494 8.54312L5.11395 8.92911L5.46991 9.26413L5.39594 9.27411L5.32593 9.32013ZM5.32697 10.9311L5.36694 10.9881L5.36292 11.0271L5.21692 10.9721L5.17792 10.9901L4.49097 10.1411L4.41693 9.97513L4.66296 10.1731L5.32697 10.9311ZM5.44495 10.3871L5.48895 10.5241L5.13892 10.2661L5.00592 10.0931L4.98193 10.0151L5.44495 10.3871ZM5.83893 10.7311L6.02393 11.0201L5.84692 10.9601L5.66296 10.7821L5.55493 10.5881L5.83893 10.7311ZM9.80695 13.4471L9.36395 13.4571L8.97894 13.3871L8.79095 13.2681L8.80493 13.1671L8.86292 12.9991L9.29193 13.0191L9.94495 13.1381L10.1049 13.2771L10.0549 13.3411L9.80695 13.4471ZM10.9539 14.0031L10.7579 14.0431L9.50891 14.0131L9.14594 13.9331L8.74194 13.7281L8.65991 13.6651L9.06592 13.6051L9.44391 13.6651L9.55994 13.8141L10.5809 13.9331L10.9539 14.0031ZM12.283 14.8781L12.4869 14.8081L12.6599 14.8591L12.77 15.0771L12.9869 15.2211L13.34 15.4731L13.5629 15.6661L14.0679 16.0121L14.1879 16.0601L14.4399 16.1631L14.4449 16.3031L14.5529 16.4621L14.6669 16.6451L14.1489 16.2851L13.666 15.8821L12.7209 15.2601L12.051 15.1091L11.1339 14.6081L10.5369 14.4301L10.765 14.3891L11.0269 14.3881L12.4409 15.0571L12.283 14.8781ZM9.42993 14.4981L9.94891 14.6051L10.3289 14.5561L10.6729 14.6221L10.887 14.7431L10.9379 14.8031L10.6609 14.8111L10.3469 14.7621L9.99097 14.8851L9.67694 14.8201L9.55792 14.7391L9.47394 14.6391L9.42993 14.4981ZM12.116 15.3661L12.499 15.6271L11.3759 15.2841L11.5029 15.2531L11.6219 15.2461L12.116 15.3661Z" fill="#CCCCCC" stroke="white" stroke-width="0.5"/>
</svg>
