<svg width="9" height="8" viewBox="0 0 9 8" fill="none" xmlns="http://www.w3.org/2000/svg">
<path d="M5.76874 0.622101L5.88272 0.691101L5.83972 0.775085L5.55673 0.723083L5.26373 0.628082L5.16772 0.651093L5.10873 0.639099L4.93771 0.548096L5.08774 0.478088L5.24274 0.455078L5.41272 0.460083L5.76874 0.622101ZM8.25174 1.56909L8.31372 1.6571L8.44272 2.25409L8.45572 2.4451L8.32571 2.73309L8.34473 2.84708L8.62372 3.1131L8.62872 3.20911L8.59573 3.30609L8.35773 3.55811L8.17471 3.7301L8.23273 3.9281L8.38074 4.11609L8.39972 4.2731L8.35474 4.4801L8.12772 4.73709L8.00873 4.8291L7.67072 4.84009L7.63272 4.87711L7.80072 5.12808L7.99072 5.41208L8.30173 5.63208L8.37073 5.83908L8.29572 6.0351L8.28271 6.5191L8.04474 6.28409L7.78372 6.0881L7.62674 6.01208L7.46371 5.9631L6.21872 5.9881L6.07874 6.02209L5.97073 6.08508L5.85474 6.11609L5.51273 6.17508L5.17273 6.18808L4.37772 6.03009L4.06271 5.94809L3.74573 5.89609L3.38171 5.91309L3.01971 5.96109L2.72974 6.0751L2.51273 6.27609L2.47171 6.4631L2.34372 6.51108L2.05072 6.21408L1.78073 6.00308L1.47372 5.84409L0.844727 5.6171L0.729736 5.4791L0.678711 5.3121L0.932739 4.7981L1.22171 4.7041L1.38074 4.6861L1.73773 4.74908L2.08673 4.86609L2.40472 4.94208L2.89774 4.97208L3.16571 5.09808L5.05872 5.2941L5.41772 5.35608L5.55774 5.33508L5.67972 5.25809L5.78174 5.11908L5.89871 5.01511L6.45972 4.9921L6.57773 4.9451L6.65973 4.80008L6.65771 4.64908L6.32773 4.44708L5.81174 4.00308L5.35773 3.4801L5.55371 3.3031L5.47873 2.9801L5.55273 2.68109L5.66074 2.38809L5.21072 2.13708L4.67871 1.88608L3.94171 1.8071L3.71472 1.74408L3.59671 1.55609L3.70273 1.30408L3.94171 1.16409L4.21573 1.07809L4.49673 1.0181L5.17374 0.946106L5.84573 1.0271L6.42673 1.28708L7.01672 1.49109L7.76172 1.55908L8.09671 1.63309L8.25174 1.56909ZM5.37473 4.34808L5.32571 4.55609L4.60773 4.30908L4.02573 3.9971L4.05072 3.82809L4.34772 3.78909L4.63272 3.8931L5.05371 4.1011L5.37473 4.34808Z" fill="#CCCCCC" stroke="white" stroke-width="0.5"/>
</svg>
