<svg width="21" height="13" viewBox="0 0 21 13" fill="none" xmlns="http://www.w3.org/2000/svg">
<path d="M17.8132 1.80908L18.0803 1.77509L18.0912 1.78009L18.1542 1.80008L18.1992 1.99609L18.2062 2.00909L18.2712 2.13809L18.3312 2.30908L18.4252 2.43808L18.6323 2.49109L18.9022 2.65009L19.0773 2.9501L19.3403 3.0741L19.3593 3.07709L19.4113 3.06308L19.6013 3.05209L19.6382 3.11209L19.7892 3.25909L19.8483 3.38708L19.8182 3.5231L19.8452 3.67709L19.9022 3.73108L19.8333 3.83411L19.3422 4.3501L19.1492 4.48608L19.0222 4.5141L18.8212 4.46008L18.6143 4.5011L18.4293 4.61108L18.2582 4.64609L18.1293 4.7771L17.9622 5.0571L17.7562 5.29309L17.5493 5.44009L17.4412 5.57111L17.4293 6.0231L17.3143 6.15311L17.1602 6.28409L17.0753 6.39908L16.8403 7.08508L16.6622 7.30408L16.4922 7.47208L16.4642 7.62509L16.4672 7.80109L16.2753 8.15109L16.0233 8.51309L15.9752 8.66208L16.0312 8.86209L15.7892 9.0921L15.6503 9.20309L15.5342 9.2551L15.4622 9.39908L15.3442 9.75009L15.3752 9.9061L15.3782 10.0501L15.1743 10.1341L15.1143 10.2921L15.0623 10.4881L14.9772 10.5761L14.7482 10.7391L14.1782 10.6681L13.9633 10.7231L13.8992 10.8391L13.8862 10.9321L13.8143 11.0201L13.6852 11.1291L13.5522 11.1781L13.2552 11.0431L12.6182 11.1811L12.5082 11.2791L12.4193 11.2081L12.2822 11.1451L11.6453 11.0651L11.3932 11.1281L11.0563 11.1041L10.7452 11.0341L10.5123 11.0911L10.3073 11.3651L10.2053 11.4571L10.1252 11.5161L9.95026 11.6021L9.80322 11.7051L9.60822 11.7791L9.43323 11.7691L9.26825 11.6511L9.20923 11.6781L9.15723 11.7871L9.06726 11.8791L8.82025 11.9931L8.75726 11.9911H8.74323L8.55426 12.0751L8.24225 12.1221L8.08527 12.0891L7.80127 12.4671L7.71423 12.5361L7.44324 12.6511L7.22223 12.7091L7.03223 12.6631L6.95721 12.6591L6.11523 12.6401L5.67523 12.5591L5.39325 12.4111L5.20526 12.2461L5.11322 12.0631L4.89526 11.9531L4.55023 11.9141L4.28223 11.7321L4.08923 11.4081L3.83026 11.1511L3.50122 10.9611L3.24127 10.6931L3.04926 10.3461L2.70325 10.0331L2.20325 9.7551L2.05225 9.69409L2.02222 9.6041L1.77826 9.25809L1.67322 9.1301L1.68323 8.9581L1.63422 8.86008L1.54523 8.79208L1.49725 8.54309L1.46924 8.35709L1.39923 8.23709L0.864258 8.2121L1.31226 7.7681L1.53522 7.6441L1.79327 7.6651L1.87622 7.62509L1.89825 7.56009L1.94226 7.4151L1.96423 7.27811L1.98627 7.1481L1.95825 7.07608L1.83325 7.0531L1.77325 6.7341L1.83722 6.6131L1.90125 6.52908L1.82227 6.14011L1.84625 6.00708L2.04822 5.98608L2.21527 5.90311L2.35223 5.80908L2.39026 5.68808L2.50226 5.44208L2.39923 5.14011L1.81622 4.94308L1.78625 4.8681L1.92126 4.7821L2.06622 4.6601L2.15027 4.56409L2.26227 4.55109L2.42023 4.6001L2.70227 4.81909L2.80927 4.8511L2.91327 4.78708L3.02423 4.7731L3.33527 4.7811L3.59723 4.7301L3.53827 4.4971L3.53925 4.32709L3.49426 4.1911L3.52222 4.04208L3.62823 3.92508L3.66022 3.66309L3.82324 3.48608L3.90027 3.46008L4.18823 3.4931L4.25623 3.53909L4.30023 3.5491L4.75922 3.9801L5.19324 4.30408L5.54822 4.47009L6.07025 4.48309L6.62524 4.49808L7.55322 4.4411L8.24927 4.39908L8.29523 4.31808L8.40027 4.12509L8.31622 3.95911L8.32123 3.7641L8.43823 3.5101L8.78223 3.2981L9.76727 3.20508L10.3333 3.04709L10.4193 2.83209L10.6063 2.61908L10.7783 2.57608L11.0132 2.6741L11.2963 2.86108L11.5452 2.96109L11.6902 2.89709L12.1902 2.58109L12.7662 2.27109L13.1622 1.43109L13.2053 1.29608L13.6342 1.2001L14.2612 1.2171L14.5833 1.32709L14.8253 1.3851L15.1873 1.36508L15.7092 1.18408L15.9022 1.18909L16.0522 1.31708L16.2162 1.4281L16.3273 1.56308L16.4113 1.75409L16.4562 1.8251L16.5292 1.9231L16.6613 2.0571L16.7883 2.0921L17.7552 1.8591L17.8132 1.80908Z" fill="#CCCCCC" stroke="white" stroke-width="0.5"/>
</svg>
