<svg width="130" height="49" viewBox="0 0 130 49" fill="none" xmlns="http://www.w3.org/2000/svg">
<path d="M78.7535 48.2698L78.4925 48.2708L78.4085 48.2408L78.3875 47.9908L78.4645 47.8509L79.0695 47.6708L79.3055 47.5049L79.6415 47.1599L79.8495 47.0699L79.9025 47.0309L79.9385 47.0378L79.9715 47.3008L80.0555 47.4568L80.0705 47.5388L79.7685 47.6718L79.4985 47.9778L78.9105 48.1779L78.7535 48.2698ZM75.7625 47.3648L75.6225 47.3988L75.3215 47.3168L75.2605 47.2668L75.5185 47.1299L75.7165 46.9359L75.9475 46.9189L76.0845 46.9589L76.0375 47.1898L75.7625 47.3648ZM80.0645 46.5489L79.8115 46.6479L79.8105 46.4398L80.0055 46.1768L80.1835 46.0879L80.2825 46.1928L80.2915 46.2408L80.0335 46.3348L80.0645 46.5489ZM70.5125 43.9229L70.6395 44.0498L71.0985 44.2949L71.1735 44.3979L71.2025 44.5678L71.2945 44.6938L71.5015 44.7138L71.7225 44.6878L71.8915 44.7689L72.0375 44.8958L72.2535 45.1429L72.4435 45.4158L72.6795 45.5688L72.8145 45.7968L72.7355 45.9978L72.4365 46.2758L72.2755 46.3358L72.0545 46.3578L71.7105 46.5238L71.5845 46.4378L71.1945 46.3778L70.8835 46.2578L70.6225 46.0388L70.4725 45.8038L70.2825 45.5959L69.9515 45.4568L69.3575 45.0489L68.9905 45.0118L68.8405 45.0418L68.6895 45.0439L67.9115 44.8608L67.7905 44.7538L67.6955 44.6169L67.6085 44.4818L67.5555 44.3308L67.6555 44.1968L67.7595 44.1068L68.1925 43.9489L68.5025 43.9008L68.8615 43.9078L69.3965 43.8589L69.9035 43.9378L70.0595 43.8788L70.3155 43.7148L70.4045 43.7719L70.5125 43.9229ZM84.3325 43.0158L84.4355 43.0468L84.7915 42.8769L84.8585 42.9088L84.9275 42.9858L84.9285 43.2129L84.7915 43.4019L84.4455 43.4168L84.3965 43.4698L84.3925 43.5848L84.4195 43.6968L84.4995 43.7868L84.6025 43.9449L84.6995 44.3128L84.5035 44.4638L84.4045 44.7478L84.0645 45.0149L83.6905 45.4518L83.3905 45.6748L83.1275 45.9388L82.9015 46.1158L82.6185 46.1758L82.1955 46.2138L81.6205 46.5298L81.3025 46.6678L80.9925 46.6779L80.7025 46.5749L80.5925 46.4589L80.6185 46.3029L80.7145 46.1689L80.8315 46.0588L80.9055 45.9168L80.5775 45.7368L80.5495 45.5999L80.6795 45.2348L80.7645 44.8598L80.8865 44.6039L81.3565 44.1469L81.6375 43.9199L81.8035 43.8318L81.8495 43.9279L81.9545 44.0439L82.0255 44.0628L82.0795 44.0368L82.4935 44.0768L82.5975 44.0368L82.7555 43.8558L82.8595 43.7549L82.9295 43.5408L82.9475 43.4048L83.3155 43.3058L83.5125 43.1968L83.6875 43.0418L84.1975 42.7779L84.2885 42.7048L84.2685 42.9558L84.3325 43.0158ZM58.1565 42.2148L58.0785 42.3119L57.8505 42.1389L57.7925 42.0609L57.9615 41.9489L58.0205 41.9329L58.1665 42.0548L58.1565 42.2148ZM78.8335 41.5818L78.7435 41.7478L78.5825 41.7008L78.6265 41.5408L78.7085 41.4459L78.9265 41.3079L79.1485 41.2838L79.2845 41.3318L79.3275 41.3849L78.9815 41.4388L78.8335 41.5818ZM68.9735 42.1339L68.8645 42.1609L68.7545 42.1198L68.7995 41.8688L68.7365 41.6978L68.8505 41.5638L68.8795 41.3268L68.9255 41.2549L68.9925 41.3298L69.0235 41.3788L69.0815 41.4019L69.2075 41.4059L69.2355 41.5089L69.2305 41.6058L69.1765 41.7079L69.0265 41.8168L68.9185 41.9398L68.9735 42.1339ZM79.7875 41.0449L79.7305 41.1689L78.9665 41.1609L78.9875 40.9978L79.1995 40.8199L79.2705 40.7608L79.5045 40.7089L79.8385 40.8029L79.7875 41.0449ZM61.0505 41.7748L60.6955 42.3589L60.8225 42.4529L60.8985 42.5418L60.3105 42.6628L60.0655 42.5988L59.9235 42.6158L59.3265 42.5059L58.8995 42.3719L58.8505 42.2658L58.8845 42.1389L59.0105 42.1819L59.3395 42.2018L59.4655 42.1448L59.4685 41.7689L59.4225 41.2779L59.8675 40.8778L60.1045 40.7159L60.3765 40.6208L61.0645 40.8419L61.1785 40.9019L61.2665 40.9919L61.3095 41.1358L61.0505 41.7748ZM82.5085 40.9738L82.3375 41.1479L82.2215 41.4508L82.1155 41.5428L81.8885 41.5999L81.7515 41.2958L81.5005 41.3098L81.6235 41.0418L81.7415 40.9418L81.8955 40.9398L81.9715 41.0479L82.0125 41.0709L82.3745 40.6179L82.4475 40.6129L82.5085 40.6328L82.5575 40.6898L82.5085 40.9738ZM81.4925 40.8128L81.0965 40.8899L80.8545 41.2419L80.6625 41.2368L80.5575 41.3929L80.5335 41.4598L80.5475 41.5229L80.5265 41.5829L80.4505 41.6448L80.2705 41.5479L80.1165 41.6718L80.0515 41.7018L79.8245 41.5579L79.6095 41.5668L79.5445 41.5449L79.8115 41.2868L80.1755 41.0458L80.2355 40.9568L80.0925 40.9329L80.0075 40.8969L79.9965 40.8398L80.2265 40.8018L80.3855 40.7968L80.5065 40.8708H80.5835L81.0755 40.5869L81.2705 40.6508L81.4125 40.7238L81.4925 40.8128ZM123.507 41.1408L123.367 41.1779L122.661 41.0928L122.586 40.9768L122.576 40.9168L122.737 40.8018L122.893 40.6068L123.135 40.5338H123.229L123.513 40.9958L123.507 41.1408ZM63.6195 41.0808L63.5565 41.0829L63.4345 41.0279L63.4785 40.9109L63.4125 40.7198L63.4355 40.5628L63.5915 40.4738L63.9245 40.4638L63.9365 40.5789L63.6195 41.0808ZM67.8785 40.7178L67.7555 40.7209L67.7305 40.6078L67.7745 40.4898L67.8925 40.4398L67.9465 40.4369L68.0315 40.5439L68.0505 40.5999L67.9715 40.6739L67.8785 40.7178ZM83.3185 40.4418L83.3855 40.6129L83.6025 40.5179L83.8145 40.4938L84.2965 40.5118L84.6505 40.5498L84.8595 40.6208L84.8795 40.9638L84.7815 41.0378L82.9505 41.2968L82.7715 41.2138L82.7015 41.1318L82.8985 40.8778L82.8075 40.7568L82.9115 40.5598L83.1305 40.4258L83.3185 40.4418ZM92.4345 40.3239L92.9255 40.4369L93.2065 40.4248L93.2645 40.5258L92.9955 40.7649L92.4265 40.5808L92.3295 40.3839L92.4345 40.3239ZM78.2875 41.7698L77.8915 41.8698L77.6455 41.9648L77.4105 42.0909L77.2625 42.1169L76.9935 42.1269L76.6125 42.1039L76.3555 42.1448L75.6385 42.4709L75.3565 42.4988L75.1125 42.5789L75.0285 42.4518L74.9245 42.3578L74.6865 42.3348L74.4485 42.3419L74.2065 42.6299L73.8205 42.5688L73.6715 42.5938L73.5265 42.6548L73.3835 42.6819L73.2335 42.6618L72.6705 42.4378L72.0245 42.3048L71.3765 42.3568L70.8185 42.2339L70.5125 42.3279L70.2245 42.4619L70.1395 42.3209L70.0345 42.1968L69.9405 42.0108L69.9375 41.7998L69.9685 41.6529L70.0515 41.5179L70.1035 41.3778L70.1275 41.2278L70.2495 41.2989L70.3765 41.2719L70.7565 41.1089L71.1275 40.8618L71.4725 40.7719L71.6715 40.7469L71.8415 40.7958L72.0145 40.7779L72.1915 40.7228L72.4705 40.9118L72.5875 40.9508L72.9655 40.9659L73.3095 41.0749L73.6175 41.2389L74.0615 41.3918L74.3295 41.5978L74.5335 41.6739L74.6845 41.6949L74.8235 41.6668L74.9995 41.5288L75.2045 41.4718L75.3825 41.4738L75.7075 41.4378L75.8455 41.4048L75.9985 41.3289L76.1485 41.3759L76.2805 41.4459L76.8305 41.8069L76.9995 41.8168L77.3095 41.7389L77.4025 41.6418L77.4505 41.4929L77.5355 41.3688L77.6535 41.2618L77.7875 41.1798L78.1985 41.0408L78.4795 40.9038L78.6725 40.6718L78.2215 40.5699L78.3165 40.4029L78.4665 40.3088L78.6655 40.3438L78.8385 40.4738L78.9155 40.9728L78.7735 41.0428L78.6835 41.1188L78.6235 41.2188L78.3675 41.4019L78.4685 41.6309L78.3935 41.7259L78.2875 41.7698ZM100.963 40.9428L100.719 41.0309L100.882 40.8079L101.406 40.3018L101.594 40.3958L101.844 40.4138L101.471 40.6429L101.091 40.7379L100.963 40.9428ZM65.5445 40.9409L65.6855 41.0518L65.8135 41.0418L66.0815 40.8719L66.2425 40.8098L66.4155 40.8079L66.5825 40.8358L66.7475 40.9568L66.8075 41.1538L66.8695 41.2148L66.9665 40.9789L67.0955 40.9078L67.2405 40.8719L67.4675 40.8849L67.6405 40.9978L67.7975 41.3329L67.7925 41.6259L67.8495 41.7358L67.9575 41.8159L68.0375 41.9288L67.9665 42.0468L67.8955 42.1039L67.6925 42.1578L67.5945 42.1349L67.5035 42.0548L67.4025 42.0258L67.1725 42.0529L66.9605 42.1188L66.9895 42.2259L67.1635 42.2738L67.2155 42.3249L67.2045 42.3939L67.1365 42.4078L66.9105 42.3148L66.7585 42.3339L66.2105 42.4598L66.0655 42.4568L65.9835 42.3379L65.9895 42.0279L65.9305 41.9459L65.5235 42.3218L65.4005 42.4138L65.2365 42.4568L65.0655 42.4418L64.4775 42.6699L64.2925 42.6378H64.1135L63.4855 42.8849L63.1485 42.9539L62.9755 42.9589L62.8035 42.9378L62.6495 42.9598L62.5115 43.0598L62.2315 43.1439L61.9425 43.0798L61.6985 42.9948L61.4665 42.8828L61.4085 42.7389L61.4205 42.5668L61.5185 42.3318L61.4525 41.9189L61.5035 41.7308L61.5985 41.5458L61.7425 41.4778L61.9305 41.4638L62.2415 41.2979L62.5255 41.0798L62.6895 41.1009L63.0635 41.2528L63.2825 41.2708L63.6545 41.2469L63.8075 41.3398L63.8685 41.5538L63.9515 41.6318L64.0605 41.6869L64.3245 42.0489L64.5695 42.0298L64.7835 42.0959L65.1615 41.8769L65.4475 41.8828L65.5285 41.7129L65.3575 41.5309L65.1515 41.3839L65.0405 41.3528L64.9195 41.3618L64.8115 41.3388L64.3505 41.0089L64.2135 40.8308L64.1355 40.6219L64.1825 40.4669L64.4995 40.3298L64.6475 40.2968L65.1985 40.3908L65.2925 40.4688L65.4385 40.7989L65.5445 40.9409ZM57.7015 40.4828L57.9865 40.6318L58.3835 41.0699L58.4205 41.1928L58.3005 41.3088L58.0165 41.4948L57.3815 41.7819L57.2725 41.9168L57.1385 42.1819L57.1075 42.2949L57.0625 42.3568L56.9895 42.4019L56.8515 42.4409L56.7015 42.3849L56.8375 42.2148L56.8425 42.0118L56.7415 41.8218L56.5985 41.6628L56.3105 41.4468L56.0015 41.2559L55.6895 41.1578L55.3585 41.1139L55.2395 41.0208L55.0455 40.7828L54.9825 40.6529L54.9505 40.5168L54.9715 40.3849L55.0535 40.3769L55.3775 40.4078L55.9755 40.5628L56.2715 40.5758L56.4395 40.5399L56.8775 40.2339L56.9815 40.2389L57.4005 40.3738L57.7015 40.4828ZM98.0905 39.9178L97.9245 40.1768L97.7375 40.1599L97.3965 39.8128L97.4165 39.5709L97.4445 39.4919L97.5755 39.4678L98.0165 39.5378L98.1025 39.7339L98.0905 39.9178ZM89.5635 39.1108L89.6015 39.2478L89.5965 39.3079L89.2605 39.3518L88.9365 39.5038L88.7705 39.6788L88.6405 39.9059L88.1945 39.8138L87.7965 39.7989L87.6205 39.7188L87.4295 39.7238L87.1815 39.7939L86.8285 39.9858L86.7505 40.0009L86.7785 39.7089L86.8765 39.5288L87.2475 39.0978L87.5565 39.1928L87.9155 39.2198L88.3245 39.1358L88.6155 38.9418L89.0265 38.8398L89.3545 39.0938L89.5635 39.1108ZM91.3005 38.9848L91.1195 39.0508L91.1755 38.8428L91.1635 38.6748L91.4565 38.7259L91.4535 38.8598L91.4255 38.9118L91.3005 38.9848ZM122.497 40.8159L121.826 41.1869L120.945 41.1219L120.633 41.1158L120.117 41.2058L120.013 41.1339L120.111 40.7849L120.523 39.8558L121.015 39.0378L121.224 38.8258L121.515 38.6269L121.823 38.4669L122.521 38.3008L123.155 38.3308L123.245 38.3988L123.518 38.6708L123.695 38.8858L123.77 39.1898L123.5 39.7129L123.198 40.2119L122.711 40.6039L122.497 40.8159ZM102.263 40.0439L102.216 40.0758L101.867 40.0399L101.669 40.0388L101.695 39.8258L101.591 39.6658L101.732 39.4308L101.736 39.1588L101.882 39.1219L101.903 38.9669L102.078 38.5558L102.182 38.4648L102.328 38.4288L102.503 38.1888L102.602 38.1188L102.705 37.9369L102.852 37.8528L102.84 37.6968L102.922 37.6148L103.155 37.5508L103.315 37.6278L103.414 37.7868L103.156 37.9828L103.289 38.4659L103.101 38.9929L102.978 39.1508L102.747 39.2868L102.679 39.4158L102.408 39.6758L102.326 39.8979L102.314 39.9919L102.263 40.0439ZM104.104 37.8008L104.07 37.9398L103.95 37.8658L103.831 37.7039L103.659 37.6808L103.531 37.6378L103.456 37.5619L103.937 37.5269L104.104 37.8008ZM54.7965 37.6078L54.7545 37.7198L54.6115 37.6918L54.4765 37.5068L54.5415 37.4589L54.6165 37.4388L54.7145 37.4598L54.7965 37.6078ZM94.8105 37.7488L94.6845 37.8199L94.4745 37.6729L94.4165 37.6118L94.5495 37.4678L94.6915 37.4268L94.7775 37.4898L94.8195 37.5529L94.8015 37.6219L94.8105 37.7488ZM72.6505 37.5678L72.3645 37.5839L72.2755 37.5588L72.2545 37.2849L72.5685 37.4029L72.6705 37.4109L72.6505 37.5678ZM53.2025 37.5298L53.1485 37.5709L52.6715 37.5479L52.3645 37.7769L52.1515 37.8468H51.3875L51.2965 37.8159H51.2285L51.1875 37.8618L50.9445 37.8268L50.1685 37.6238L50.0625 37.4359L50.1825 37.2348L50.4615 36.9499L51.0205 36.8939L53.5675 36.8738L53.8445 37.1188L53.8705 37.2018L53.3155 37.3688L53.2025 37.5298ZM57.5035 37.1508L57.2745 37.1989L57.0625 37.0999L57.0685 36.9669L57.1205 36.8428L57.4375 36.7788L57.6075 36.7828L57.7895 36.8679L57.9165 36.9568L57.9785 37.0609L57.6355 37.0659L57.5035 37.1508ZM111.661 36.5309L111.614 36.5739L111.541 36.4828L111.534 36.4258L111.63 36.2708L111.727 36.1808L111.833 36.1739L111.807 36.3008L111.661 36.5309ZM29.0895 36.2238L28.9145 36.2859L28.7805 36.2308L28.7205 36.1519L28.9185 35.9579L29.0125 35.9118L29.1115 35.8969L29.1585 36.0019L29.0895 36.2238ZM111.778 35.9688L111.622 35.9948L111.547 35.7658L111.674 35.7068L111.814 35.8468L111.778 35.9688ZM112.068 35.6448L112 35.6678L112 35.5298L112.078 35.4078L112.159 35.3379L112.255 35.3348L112.068 35.6448ZM111.275 35.6678L111.229 35.8658L111.182 36.0869L110.926 36.3348L110.767 36.7138L110.674 36.8088L110.328 36.9778L110.021 36.7668L109.932 36.5858L110.068 35.7498L110.2 35.7779L110.286 35.7719L110.314 35.7169L110.117 35.6228L110.08 35.1429L110.09 34.9619L110.239 34.9208L110.424 35.0619L110.659 35.3128L110.932 35.5108L111.275 35.6678ZM35.0425 34.4489L35.3255 34.7689L35.5725 34.9398L35.8645 35.0328L36.1715 35.0418L36.4735 35.0829L36.8255 35.2048L37.1865 35.2608L37.3545 35.2398L37.5145 35.1768L37.6275 35.1729L37.7265 35.2318L37.9765 35.5028L38.2475 35.7509L38.3105 35.8769L38.4945 36.4749L38.7025 36.6469L38.9885 36.6968H39.3245L39.6585 36.7218L40.4325 36.8618L40.7395 36.8419L41.0115 36.7018L41.2535 36.7928L41.9105 36.9608L42.2335 36.9988L42.6005 36.9508L42.9685 36.9409L43.1445 36.9898L43.3135 37.0628L43.4585 37.0888L43.6085 37.0879L43.8745 36.9478L44.0505 36.6909L44.1935 36.3669L44.3045 36.0288L44.3795 35.8839L44.4815 35.7559L44.6145 35.6729L44.7565 35.6208L45.1425 35.6529L45.2225 35.7348L45.6545 36.3079L45.7305 36.3578L46.1805 36.3939L46.3055 36.3748L46.5795 36.2599L46.7365 36.2498L47.0255 36.3918L47.1505 36.5128L47.2905 36.6018L47.9985 36.6928L48.2715 36.9388L48.4105 36.9718L48.9025 36.9418L49.2435 36.9659L49.5395 37.0319L49.6745 37.3809L49.7835 37.7389L49.8465 37.8608L50.1365 37.9839L50.2545 38.0948L50.2235 38.4518L50.2555 38.7918L50.8705 39.0879L51.5285 39.2578L52.2285 39.2738L52.9295 39.2148L53.2905 39.1418L53.7425 39.0158L53.8365 39.0179L54.7115 39.4069L54.7865 39.4669L54.8845 39.7578L54.8815 40.0648L54.7185 40.7939L54.7075 40.9938L54.7235 41.1938L54.8975 41.6288L54.9905 41.7538L55.3075 41.9828L55.3205 42.1028L55.2765 42.2228L54.9265 42.1408L54.7135 42.0418L54.5905 41.8778L54.4145 41.7849L54.0855 41.8188L53.4705 41.6548L52.7755 41.4008L51.5435 40.8618L51.2075 40.8658L50.8855 40.9348L50.5455 41.0718L50.1915 41.1699L49.9315 41.2068L49.6705 41.1798L49.0125 41.0508L48.3495 40.9669L46.6505 40.9138L46.1705 40.7908L45.3755 40.7289L44.7435 40.6228L44.1175 40.4749L42.5215 39.7458L41.9995 39.5628L40.3965 39.2148L40.1495 39.1869L39.5685 39.2129L39.2025 39.1108L38.8805 39.1089L38.4015 39.2218L38.2545 39.3029L38.0685 39.4738L37.7425 39.4659L37.4195 39.4329L36.5685 39.2689L36.2515 39.1678L35.9465 39.0189L35.6725 38.8249L35.5285 38.7559L34.7935 38.5579L34.1935 38.4898L32.9595 38.3998L32.6895 38.3398L32.4645 38.2679L32.3415 38.1078L32.3575 37.9038L32.4455 37.7278L32.5665 37.5508L32.6455 37.3818L31.7435 37.0279L31.0315 36.8348L30.7235 36.7979H30.4145L30.0665 36.8379L29.7225 36.8188L29.5605 36.7608L29.3955 36.7408L29.2295 36.7828L29.0965 36.7668L29.0625 36.6058L29.1475 36.4688L29.3215 36.3138L29.4215 36.2868L29.4665 36.5298L29.5165 36.5779L29.6705 36.6309L29.7375 36.6158L30.0095 36.3058L30.0855 36.1529L30.2175 35.7398L30.3615 35.8199L30.5055 35.7708L30.5885 35.7048L30.8175 34.7498L31.0075 34.4709L31.2675 34.2398L31.3975 34.1829L31.6525 34.3249L32.1695 34.3788L32.4765 34.4728L32.7845 34.4848L33.0855 34.5309L33.5045 34.6989L33.6525 34.6808L33.8025 34.6288L34.0275 34.4459L34.1255 34.1538L34.4495 34.3018L34.9265 34.3608L35.0425 34.4489ZM81.8475 34.3539L81.8225 34.4879L81.7195 34.3339L81.6255 34.2578L81.6355 34.0919L81.7685 34.1538L81.8475 34.3539ZM71.9605 35.2649L71.8455 35.7318L71.7915 35.5668L71.7705 35.1399L71.6995 34.9319L71.7445 34.6928L71.7295 34.0798L71.8165 33.7968L71.9765 34.1569L72.0185 34.3398L71.9605 35.2649ZM50.0445 33.8979L49.9845 33.9978L49.7145 33.9898L49.6695 33.8778L49.8455 33.6739L49.9615 33.6609L50.0655 33.7358L50.0445 33.8979ZM106.421 34.0089L106.25 34.2788L106.133 34.1838L106.068 34.1829L106.029 34.0238L106.068 33.6959L105.924 33.3268L106.114 33.3318L106.167 33.4418L106.227 33.4789L106.414 33.8348L106.421 34.0089ZM111.865 33.6058L111.843 33.7138L111.841 33.9128L111.888 34.0978L111.768 34.2859L111.88 34.5668L111.896 34.7068L111.89 34.9048L111.859 34.9938L111.773 35.2538L111.689 35.3468L111.625 35.3728L111.56 35.4518L111.008 35.3669L110.77 35.1859L110.557 34.9908L110.512 34.9088L110.262 34.6808L110.203 34.6039L110.198 34.4818L110.401 34.4508L110.617 34.4548L110.607 34.3459L110.732 33.9598L110.404 33.7119L110.346 33.6078L110.463 33.5378L110.727 33.6238L111.049 33.1888L111.145 33.0978L111.19 32.8558L111.372 32.8249L111.5 32.8558L111.583 33.0068L111.616 33.1378L111.581 33.2559L111.736 33.3168L111.865 33.6058ZM106.755 34.1529L106.526 34.3939L106.742 33.8258L106.786 33.5378L106.987 33.3669L107.284 32.4969L107.349 32.5168L107.447 32.6018L107.297 33.2398L106.88 33.6878L106.755 34.1529ZM20.9915 32.9669L20.7625 32.9808L20.3405 32.6368L20.2715 32.5309L20.3905 32.4288L20.5175 32.4359L21.0035 32.6529L21.0985 32.7599L20.9915 32.9669ZM80.6555 32.3868L80.6445 32.6708L80.5325 32.6548L80.4405 32.5548L80.4155 32.4608L80.4205 32.3849L80.4705 32.3249L80.6555 32.3868ZM76.2115 32.8528L76.0325 32.9279L75.6955 32.6078L75.5525 32.3438L75.5865 32.1949L75.6875 32.0648L75.7355 32.0319L75.7145 31.8958L75.8475 31.8298L75.9935 31.8388L76.0895 32.0219L76.2045 32.0718L76.2635 32.2469L76.2115 32.8528ZM77.9005 32.3809L77.8285 32.5668L77.6735 32.7119L77.5495 32.7228L77.4195 32.6928L77.1905 32.5668L77.1315 32.6999L76.9505 32.6938L76.8845 32.5219L77.0135 32.0128L77.2015 31.8228L77.1835 31.6228L77.0275 31.1978L77.1245 30.9759L77.5615 30.8079L77.9425 30.6028L78.0595 30.5609L78.1655 30.7188L78.2225 31.4428L77.8135 32.0158L77.9005 32.3809ZM79.4015 30.3708L79.4665 30.9728L79.4455 31.1309L79.2875 30.8998L79.2305 30.8539L79.1865 30.8998L79.1305 30.9248L79.0505 30.9229L78.9465 31.1559L78.9365 31.3759L78.8575 31.5229L78.8165 32.0139L78.8425 32.1458L78.9645 32.0808L79.0395 32.0638L79.3155 32.2528L79.4615 32.3908L79.4205 32.5579L79.2335 32.7259L79.0165 32.7989L78.8545 32.7268L78.8065 32.7608L78.7105 32.8468L78.6385 32.9608L78.6595 33.0779L78.4745 33.4109L78.3675 33.5049L78.1455 33.4029L78.0085 33.4898L77.8985 33.4818L77.7295 33.1488L77.7345 32.9929L77.8905 32.8178L77.8915 32.6918L77.9685 32.5508L78.1405 32.3578L78.2395 32.2119L78.2425 32.1198L78.3155 31.7698L78.3435 31.6238L78.3935 31.4688L78.4715 31.1519L78.4825 30.5558L78.7455 30.0648L79.0025 29.9308L79.1045 29.9088L79.0885 30.0399L79.4015 30.3708ZM108.564 29.5179L108.708 29.6668L108.374 29.5498L107.896 29.3048L107.862 29.1408L108.265 29.3889L108.564 29.5179ZM79.5765 29.1458L79.3025 29.4818L79.1115 29.4648L78.8825 29.2438L78.8165 29.0019L78.8105 28.9138L78.9665 28.7769L79.4915 28.8228L79.5905 28.9449L79.5765 29.1458ZM94.5085 27.6718L94.0295 27.8178L94.1325 27.5458L94.1975 27.4738L94.4345 27.5479L94.5085 27.6718ZM93.7025 27.9208L93.6305 28.0229L93.4675 28.0898L93.3315 28.0829L93.3755 27.9848L93.3415 27.9279L93.2405 27.9529L93.0755 28.0319L92.8675 28.1898L92.7455 28.1118L92.7195 27.9898L92.7265 27.9338L92.9755 27.7148L93.2645 27.6768L93.6715 27.4669L93.8535 27.4768L93.8105 27.6098L93.7475 27.7048L93.7095 27.8048L93.7025 27.9208ZM94.9565 27.5638L94.9505 27.6819L94.9305 27.7188L94.7775 27.6779L94.6685 27.6798L94.5715 27.4669L94.5985 27.4178L94.7995 27.4799L94.8745 27.5009L94.9565 27.5638ZM60.4415 27.3339L60.3385 27.8148L60.1675 27.5418L60.3595 27.2188L60.4485 27.1538L60.4415 27.3339ZM91.8245 26.9168L91.8885 27.0408L91.6135 26.9629L91.4915 26.8428L91.6115 26.7679L91.6785 26.7478L91.8245 26.9168ZM60.1035 28.4619L59.5145 28.9818L59.4165 28.8499L59.4675 28.3209L59.3035 27.9919L59.3145 27.7478L59.4305 27.3159L59.5815 26.9848L59.9235 26.7639L60.0085 26.7379L59.9875 27.1389L60.0555 27.2899L60.0795 27.4189L60.0435 27.5298L60.1075 28.0439L60.1455 28.1689L60.0625 28.3308L60.1035 28.4619ZM89.7325 26.2828L90.1945 26.5009L90.2985 26.6429L90.3815 26.8119L90.4725 26.9048L90.5805 26.9808L90.7605 27.1278L90.8075 27.3518L90.7665 27.8038L90.5575 27.8438L90.3615 27.9099L89.9575 28.1718L89.7585 28.2228L89.5455 28.2408L89.3945 28.3098L89.2435 28.3369L88.8505 28.1918L88.4705 28.0219L87.9185 27.7268L87.8165 27.6548L87.7275 27.4969L87.4745 27.2129L87.4115 27.0309L87.3905 26.5128L87.4565 26.3939L87.5625 26.3308L87.9315 26.4508L88.1745 26.3258L88.8725 26.2198L89.5835 26.2308L89.7325 26.2828ZM92.8955 25.8598L92.7545 26.0928L92.5075 26.0829L92.4645 26.0498L92.7565 25.9038L92.8955 25.8598ZM33.6745 26.0518L33.6275 26.1078L33.4725 26.0779L33.3595 25.9998L33.2895 25.9258L33.2715 25.8488L33.4225 25.7538L33.7415 25.8518L33.6745 26.0518ZM35.3215 25.7568L35.2085 25.8289L35.1425 25.7599L35.1225 25.6829L35.1705 25.5858L35.3245 25.5768L35.3955 25.6058L35.3215 25.7568ZM97.8535 25.6628L98.4985 25.9718L98.8325 26.0168L99.3945 25.9768L99.6065 26.0068L100.143 26.4019L100.299 26.6729L100.344 26.9069L100.427 27.1288L100.559 27.1848L100.714 27.2058L100.916 27.5258L100.956 27.6299L100.802 28.4329L100.172 28.1288L99.5625 27.7838L99.2995 27.6559L98.5975 27.3639L98.4905 27.2639L98.4115 27.1318L98.1055 26.9518L97.4955 26.9239L97.2665 26.9288L97.1735 26.9558L97.1975 27.0529L97.2005 27.2498L97.0495 27.3038L96.6705 27.1798L96.3325 27.1349L96.0385 27.0128L95.6455 26.9489L95.6015 26.8878L95.6355 26.7968L95.6175 26.7119L95.5265 26.6788L95.3495 26.6949L95.1785 26.7809L95.0365 26.8778L94.8285 27.1458L94.7225 27.2488L94.3785 27.2928L94.2355 27.2668L94.1045 27.2008L93.7135 26.7108L93.5815 26.6049L93.4345 26.5189L93.2985 26.4789L93.1575 26.5538L93.0845 26.7058L93.0515 26.8868L93.0125 26.9908L92.8435 27.2809L92.7035 27.4529L92.6535 27.4258L92.7245 27.1498V26.9938L92.6385 26.8289L92.5835 26.6609L93.2445 25.8578L93.4835 25.6668L94.5255 25.6009L95.1445 25.6418L95.4825 25.6219L95.7085 25.5628L95.8955 25.5909L95.9425 25.7488L96.0595 25.8658L96.2225 25.8558L96.5185 25.7318L96.7755 25.5408L96.9325 25.4579L97.0925 25.4438L97.2575 25.4568L97.4185 25.5009L97.8535 25.6628ZM15.5405 26.5479L15.6525 26.9548L15.3185 26.6779L15.3255 26.4818L15.2795 26.3539L15.0775 26.1968L14.9215 25.9998L14.8515 25.5349L14.9055 25.4378L15.0375 25.4319L15.6245 26.0418L15.6645 26.1448L15.6515 26.3629L15.5665 26.4308L15.5405 26.5479ZM37.3815 26.0309L37.3375 26.3249L37.2695 26.4359L37.0355 26.5818L36.9555 26.6708L36.7365 26.6569L36.7085 26.5028L36.6355 26.3988L36.4035 26.2788L36.3425 26.3079L36.3005 26.4868L35.8455 26.6118L35.7185 26.6228L35.7815 26.3868L35.6635 26.2008L35.6545 25.9728L35.6325 25.8728L35.5755 25.8148L35.6915 25.6559L35.6715 25.4789L35.7945 25.2888L35.8625 24.8279L36.3435 24.7268L36.4475 24.8098L37.0085 24.9138L37.4045 25.1928L37.6155 25.5638L37.3815 26.0309ZM14.9205 25.3138L14.7205 25.5388L14.3905 25.5338L14.3255 25.3948L14.3405 25.0588L14.2595 24.9489L14.2625 24.9048L14.3155 24.7138L14.3825 24.6718L14.9155 25.1448L14.9205 25.3138ZM110.818 23.5919L110.737 23.6339L110.708 23.5128L110.753 23.3499L110.806 23.3239L110.867 23.3318L110.945 23.3908L110.818 23.5919ZM13.9075 24.2039L13.9215 24.2779L13.4645 24.0328L13.2445 23.9648L13.0495 23.6968L13.1105 23.5688L13.1185 23.3889L13.1475 23.3178L13.2875 23.2918L13.4695 23.4229L13.6055 23.7419L13.8325 24.0388L13.9075 24.2039ZM87.4715 24.5059L87.4235 24.5569L87.2545 24.4059L87.1415 23.9799L87.0445 23.8669L86.9315 23.4619L86.9605 23.3468L87.1005 23.1768L87.2125 23.1788L87.2955 23.2798L87.2495 23.7159L87.5005 24.2679L87.4715 24.5059ZM81.2775 23.1228L81.3275 23.2348L81.1515 23.2318L81.0785 23.0208L81.0965 22.9078L81.2775 23.1228ZM87.3845 22.6599L88.2475 22.7528L88.1255 22.8539L87.1945 23.0149L86.8645 22.9858L85.8545 23.0808L85.7235 23.0749L85.7045 22.9189L85.5965 22.8098L85.7575 22.7148L85.9715 22.6928L86.5315 22.7289L87.3845 22.6599ZM79.3245 22.7348L79.1185 22.9648L79.0965 22.8419L79.1385 22.7299L79.1965 22.6508L79.2835 22.6118L79.3245 22.7348ZM99.5335 22.3839L99.5675 22.5498L99.7345 22.7029L99.6765 22.9409L99.6105 22.9768L99.6455 23.0848L99.7175 23.1678L99.5875 23.2249L99.4925 23.1968L99.3395 23.2738L99.2375 23.3809L98.9165 23.4258L98.8035 23.3268L98.2235 23.2098L97.8525 22.9539L97.8055 22.8769L98.5245 22.5758L98.8385 22.4958L99.1025 22.5009L99.4345 22.3889L99.5335 22.3839ZM84.4245 22.4248L84.6875 22.5238H84.7795L84.8665 22.4078L84.9205 22.3889L85.0385 22.4459L85.0655 22.6339L85.2355 22.6078L85.3675 22.6718L85.4095 22.7169L85.3915 22.9038L84.8885 22.9369L84.5295 23.0879L84.0465 22.9518L83.4985 23.1848L83.1655 23.2658L82.8765 23.2608L82.6295 22.8528L82.7735 22.3748L82.8775 22.2958L83.0615 22.2538L83.5695 22.2308L84.4245 22.4248ZM113.906 22.1078L115.013 22.2478L115.314 22.2299L115.947 22.2838L116.474 22.4698L117.398 22.5038L117.672 22.5598L117.885 22.6878L117.369 22.7928L117.125 22.8918L116.674 22.9409L116.296 22.8908L116.021 22.9499L115.921 22.8539L115.518 22.7559L115.004 22.5548L113.942 22.3218L113.892 22.1758L113.906 22.1078ZM39.4745 22.1859L39.1525 22.3029L39.0555 22.0408L39.2615 21.9629L39.4855 22.0309L39.4745 22.1859ZM31.3145 22.3249L31.4115 22.5168L31.5435 22.6898L31.6405 22.8769L31.7735 23.7738L32.2135 24.5449L33.4845 24.8478L33.2765 24.9728L33.1705 25.0848L33.0925 25.2129L32.9055 25.7478L32.9235 25.8618L33.0335 26.0428L33.0595 26.2398L32.9005 26.2389L32.7215 26.1949L32.5785 26.1208L32.4455 26.0238L32.3015 25.9468L32.1455 25.8969L31.8875 25.7438L31.5385 25.6358L31.1825 25.5508L31.0095 25.3239L30.9275 25.0439L31.0155 24.6259L30.9265 24.5099L30.7995 24.4078L30.6435 24.1068L30.5845 23.7549L30.3585 23.6188L30.0605 23.5359L29.9295 23.4688L29.3405 23.5978L29.1985 23.5678L29.0735 23.4698L28.7525 23.3669L28.7655 23.1718L28.9145 23.0158L29.2655 22.8589L29.4305 22.7268L29.4625 22.5529L29.4005 22.4258L29.4245 22.2928L29.5355 22.1638L29.6665 22.0628L30.0205 21.9288L30.1745 22.1618L30.2505 22.3568L30.3445 22.4978L30.4945 22.2958L30.3985 21.9478L30.6675 21.8698L30.9315 21.8669L31.1305 21.9629L31.2605 22.1129L31.3145 22.3249ZM80.5735 22.4218L80.3805 22.4398L80.2515 22.3578L80.2635 21.9489L80.3805 21.8598L80.4375 21.8748L80.4725 21.9969L80.5315 22.1058L80.6275 22.2079L80.5735 22.4218ZM93.3585 22.2998L93.1865 22.4128L93.1005 22.4438L92.6865 22.3679L92.2025 22.3839L91.6985 22.4889L91.4075 22.3998L91.2225 22.2549L91.2315 22.1018L91.4045 21.7228L91.7835 21.4359L91.9375 21.3839L92.2085 21.4619L92.6635 21.6819L93.0215 21.9398L93.3465 22.1408L93.3585 22.2998ZM79.4925 20.9359L79.5545 21.1098L79.4525 21.2608L79.5635 21.5439L79.8465 21.1668L80.1165 21.1188L80.2695 21.1819L80.3745 21.2568L80.4325 21.3998L80.3325 21.7068L80.1555 21.8509L79.9265 21.8738L79.8185 21.6949L79.6685 21.6779L79.5635 22.0678L79.5165 22.1278L79.3825 22.1768L79.2635 22.0699L79.2425 22.0099L79.4115 21.8329L79.3195 21.3079L79.1925 21.4069L78.8535 21.8839L78.5895 22.0968L78.4995 21.9889L78.3655 21.6649L78.4265 21.2488L78.6395 20.9678L78.8205 20.9868L79.3415 20.8988L79.4925 20.9359ZM41.5995 20.9619L41.0395 21.2469L40.9075 21.2318L40.8075 21.1309L40.8695 20.5808L40.9415 20.4168L41.3315 20.3988L41.5685 20.4778L41.6925 20.5668L41.7405 20.7509L41.7135 20.8618L41.5995 20.9619ZM112.479 20.7819L112.344 20.8329L112.188 20.7769L112.039 20.5628L112.093 20.3988L112.266 20.2859L112.411 20.3988L112.456 20.5428L112.565 20.5529L112.479 20.7819ZM12.0015 22.6278L11.7425 22.6429L11.1885 22.3088L11.0575 22.1588L11.0255 21.9589L10.4945 21.1869L10.4235 21.0099L10.6325 20.3759L11.1735 20.2228L11.3525 20.3298L11.4155 20.6148L11.7255 21.1288L11.8275 21.4059L11.9045 21.5288L11.9365 21.6248L11.9095 21.6909L12.1335 22.0168L12.2935 22.2079L12.3055 22.5168L12.0015 22.6278ZM101.354 21.3379L101.255 21.4158L100.914 21.3428L100.737 21.1708L100.617 20.9398L100.539 20.7498L100.518 20.5988L100.417 20.4138L100.431 20.3468L101.06 20.1519L101.179 20.2228L101.442 20.2289L101.556 20.3698L101.478 20.9828L101.354 21.3379ZM101.083 19.8379L101.012 19.9799L100.879 20.0758L99.6715 20.2458L99.7755 20.1439L99.8265 20.0428L99.9025 19.9908L100.021 20.0049L100.081 19.9738L100.143 19.9619L100.21 19.9749L100.327 19.9329L100.573 19.9629L100.827 19.9388L100.807 19.8029L101.083 19.8379ZM113.65 19.4858L114.247 19.5948L114.465 19.5888L114.677 19.7119L114.937 19.6538L115.083 19.6938L115.573 20.1169L115.815 20.3969L116.174 20.6378L116.434 20.7198L116.239 20.9398L115.843 21.0558L115.69 21.0619L115.388 20.9308L115.143 20.9548L114.929 20.7908L114.892 20.5368L114.671 19.9648L114.387 20.1288L114.044 19.8648L113.952 19.8589L113.931 19.9029L113.786 19.8138L113.661 19.6358L113.65 19.4858ZM90.9665 19.8478L90.9345 19.9048L90.6415 19.8318L90.5625 19.7918L90.7095 19.3969L90.8475 19.4088L90.9685 19.7849L90.9665 19.8478ZM100.302 19.1448L100.141 19.1479L99.8495 19.0269L100.018 18.9218L100.125 18.8998L100.219 18.8369L100.271 18.8339L100.387 18.8878L100.463 18.9789L100.302 19.1448ZM75.7095 18.8048L75.8285 18.9288L75.7575 19.0718L75.6605 19.0359L75.4055 19.0378L75.3095 19.0489L75.1945 19.1328L75.1225 19.1358L75.1715 19.0038L75.3875 18.8038L75.5225 18.8339L75.7095 18.8048ZM108.289 19.6949L108.992 19.7368L109.348 19.7089L109.697 19.7448L109.839 19.8159L110.081 20.0309L110.013 20.1718L109.971 20.4638L110.094 20.7438L110.297 21.0248L110.463 21.3249L110.497 21.4709L110.434 21.7809L110.377 21.9338L110.176 22.1898L110.065 22.4688L110.137 22.8128L110.176 23.1599L110.169 23.4778L110.205 23.7908L110.314 24.1089L110.784 24.9789L111.057 25.5688L111.146 25.2389L111.124 24.8728L111.221 24.7408L111.359 24.6708L111.53 24.7438L111.578 24.8918L111.591 25.2159L111.739 25.8518L111.929 25.8809L112.135 25.7838L112.169 25.9778L112.161 26.3379L112.257 26.6238L112.341 26.7358L112.68 26.9678L112.833 27.0108L113.28 27.0668L113.617 27.0848L113.94 27.0019L114.148 26.7888L114.336 26.5579L114.984 26.0258L115.172 25.7708L115.354 25.3809L115.417 25.2979L116.062 24.8759L116.137 24.7259L116.229 24.4359L116.37 24.1559L116.474 24.0108L117.099 23.8738L117.745 23.7998L118.388 23.5418L118.666 23.3199L118.68 23.1739L118.539 22.9178L118.533 22.8048L118.681 22.6968L119.254 22.3719L119.916 22.0378L120.448 21.8079L120.742 21.8098L121.013 22.0128L121.302 22.1788L122.815 22.6668L123.057 22.8188L123.268 23.0208L123.57 23.1609L123.909 23.2278L124.216 23.3589L124.507 23.5269L125.151 23.8409L126.015 24.2218L126.236 24.2438L127.039 24.2259L127.179 24.2979L127.31 24.3998L127.432 24.4229L128.354 24.4938L128.495 24.5668L128.629 24.6678L128.703 24.9438L129.339 24.9508V25.4919V26.0588L129.34 26.6259V27.1938V27.7618L129.341 28.3298V28.8979V29.4659V30.0338V30.6018L129.341 31.1708V31.7398V32.3088V32.8778V33.4468L129.343 34.0168V34.5869V35.1569V35.3998L129.255 35.6978L129.062 36.1439L129.028 36.5049L129.188 36.7859L129.344 36.9688V37.4388V38.0099L129.344 38.5818V39.1538V39.7259V40.2979V40.8708L129.346 41.4438V42.0168V42.5898V43.1638L129.346 43.2008L129.201 43.1058L128.814 42.7918L128.463 42.4338L128.236 42.0999L127.979 41.7958L126.89 40.8948L126.614 40.5988L126.557 40.5168L126.583 40.4398L126.71 40.2838L126.932 39.8329L126.7 40.1118L126.422 40.3329L126.018 40.3468L125.622 40.4008L125.255 40.5338L124.883 40.5798L124.695 40.5149L124.583 40.3488L124.525 40.1788L124.499 39.9978L124.341 40.2899L124.034 40.4499L123.612 40.7868L123.492 40.7169L123.421 40.5888L123.396 40.4558L123.478 40.3138L123.536 40.1638L123.62 39.8029L123.809 39.5898L123.929 39.1788L124.007 39.0328L124.047 38.8868L123.938 38.7209L123.753 38.6649L123.625 38.5638L123.479 38.2849L123.388 38.1909L123.221 38.0758L123.093 37.9428L123.234 37.8419L123.422 37.8008L123.575 37.8069L123.851 37.8698L123.976 37.8728L124.297 37.7698L124.116 37.8018L123.937 37.7979L123.367 37.6179L123.013 37.4308L122.681 37.0558L122.677 36.9839L122.911 36.9158L123.419 36.8369L123.262 36.6458L123.033 36.4789L122.953 36.1829L122.797 35.9998L122.458 35.7008L122.226 35.3908L122.029 34.7608L121.827 34.2849L121.877 34.1129L122.047 33.9898L121.789 33.9759L121.556 33.8878L121.68 33.6569L121.95 33.5198L121.703 33.5548L121.464 33.6219L121.354 33.6349L121.242 33.6139L121.182 33.5208L121.174 33.3889L121.208 33.1559L121.168 32.9298L120.955 32.8249L120.778 32.6638L120.677 32.6039L120.547 32.6078L120.421 32.4998L120.318 32.3438L119.049 31.6668L118.974 31.4738L118.856 31.5579L118.739 31.5999L118.593 31.4889L118.44 31.4149L118.273 31.4268L118.119 31.3669L117.956 31.3329L117.788 31.3279L117.12 31.1198L116.489 30.7908L115.974 30.6488L115.656 30.4638L115.327 30.3138L114.589 30.1678L113.841 30.0688L113.57 30.0659L113.343 30.0978L113.125 30.0909L111.887 29.3769L111.677 29.0518L111.698 28.8618L111.754 28.7048L112.258 28.6599L111.904 28.6139L111.758 28.6349L111.465 28.7639L111.307 28.7729L111.083 28.6869L110.869 28.5789L110.518 28.6788L110.339 28.5149L110.276 28.3419L110.182 28.2628L110.051 28.2708L109.872 28.3339L109.695 28.3228L109.581 28.2039L109.5 28.0489L109.379 27.9378L109.232 27.8528L108.992 27.6519L108.867 27.3769L108.883 26.9019L108.921 26.7318L109.158 26.4548L109.326 26.1918L109.117 26.1628L108.93 26.2838L108.851 26.4078L108.818 26.5579L108.797 27.0569L108.646 27.2018L108.419 27.1898L108.486 27.4818L108.393 27.7589L108.128 28.0848L108.107 28.2328L108.148 28.3939L108.089 28.5518L107.661 29.0078L107.518 29.0298L107.202 29.0269L106.875 29.0988L106.723 28.9929L106.599 28.8549L106.505 28.6909L106.375 28.3539L106.271 28.0059L106.596 27.5798L106.484 27.1949L106.265 26.8639L105.708 26.4059L105.133 25.9709L104.87 25.8828L104.442 25.8438L104.306 25.8018L104.172 25.6389L104.073 25.4508L104.343 25.3698L104.802 25.1488L105.062 25.1599L105.771 25.2798L105.987 25.3889L106.19 25.4529L106.672 25.0879L107.056 24.6108L107.294 24.5068L107.497 24.4718L107.705 24.5179L108.116 24.6838L108.439 24.7618L108.669 24.7769L108.789 24.9258L108.924 24.9929L108.956 24.7679L109.073 24.5078L109.302 24.4268L109.424 24.4078L109.5 24.3409L109.482 24.0999L109.18 24.0699L109.344 23.8629L109.492 23.7618L109.543 23.6609L109.546 23.5349L108.953 23.7779L108.328 23.8799L107.958 23.8518L107.591 23.8488L106.854 24.0108L106.576 24.0049L105.924 23.9388L105.565 23.8598L105.286 23.9208L105.018 23.9258L104.737 23.7398L104.497 23.5078L104.379 23.3428L104.221 23.2228L104.151 23.0619L103.976 22.4558L103.96 22.0219L103.677 22.0139L103.401 21.9709L102.172 21.5588L102.025 21.6599L101.852 21.7119L101.679 21.7308L101.508 21.7098L101.336 21.6458L101.352 21.5319L101.478 21.2538L101.603 21.1508L101.775 21.0709L101.883 20.9229L102.062 20.4799L102.076 20.3289L102.056 20.1748L102.07 20.0579L102.181 19.9969L102.643 19.8528L103.606 19.6349L103.849 19.5049L104.049 19.2968L104.284 19.1708L104.391 19.0428L104.515 18.9398L105.258 18.6649L105.58 18.6429L105.908 18.6748L106.557 18.8379L107.176 19.1009L107.713 19.4468L108.289 19.6949ZM26.9045 18.6039L27.1675 18.8748L27.2305 18.9718L27.1005 19.1219L26.9965 19.3339L26.9365 19.3788L26.7355 19.2979L26.5935 19.5059L26.4995 19.1729L26.2955 18.9619L26.4225 18.7458L26.4685 18.7299L26.5305 18.7368L26.5945 18.7939L26.9045 18.6039ZM91.7145 18.5598L92.0385 18.9768L91.8205 19.3719L91.9705 19.5928L92.3795 19.6068L92.4735 19.6898L92.5455 19.7899L92.5925 19.9258L92.4865 20.0349L92.2585 20.1349L91.9955 19.9908L91.9265 19.8568L91.8725 19.8069L91.5185 19.9088L91.4195 19.9189L91.3515 19.7318L91.4365 19.4638L91.1895 19.3428L90.9625 19.0659L90.9545 18.9548L91.0455 18.7618L91.0335 18.6078L91.1625 18.5959L91.3985 18.8038L91.5005 18.6078L91.6015 18.5258L91.7145 18.5598ZM90.8245 19.0508L90.6485 19.1228L90.4575 19.1219L90.4155 18.8249L90.4785 18.4478L90.6565 18.3839L90.9375 18.4638L90.8335 18.5588L90.9105 18.7608L90.8245 19.0508ZM24.8345 18.6408L24.4695 18.7379L24.0625 18.6678L24.1125 18.5009L24.3085 18.3058L24.4825 18.3138L24.7995 18.4418L24.9115 18.5569L24.8345 18.6408ZM100.825 17.6819L101.31 17.8008L101.421 17.7819L102.125 18.0879L102.237 18.2398L102.198 18.3428L102.302 18.4808L102.072 18.6909L101.961 18.7138L101.849 18.6349L101.624 18.5909L101.364 18.6768L101.198 18.6118L101.059 18.4199L100.81 18.3029L100.46 17.8969L100.288 17.9118L100.333 18.0709L100.482 18.1758L100.677 18.4848L100.791 18.5149L100.906 18.5038L101.064 18.6328L101.056 18.8318L100.646 18.9099L100.504 18.7639L100.473 18.4988L100.242 18.5879L100.154 18.6798L100.086 18.6928L99.9335 18.4168L99.4955 18.4019L99.2045 18.2559L99.3485 18.1028L99.3695 17.9548L99.5585 17.8748L99.7495 17.9459L99.9425 17.8388L100.08 17.8658L100.181 17.7979L100.568 17.7549L100.825 17.6819ZM10.0235 19.1488L9.85651 19.2779L9.60352 19.1529L9.68854 18.9738L9.72949 18.7268L9.88153 18.5309L9.9325 18.3008L9.6405 17.6718L9.78552 17.6508L9.90051 17.7188L10.0935 18.1368L10.2615 18.3878L10.1945 18.7278L10.0235 19.1488ZM27.7595 18.1609L27.8405 18.2068L27.9405 18.0619L28.1255 18.2599L28.2395 18.3589L28.3955 18.4579L28.2425 18.4619L28.1795 18.5529L28.1395 18.5709L27.5445 18.2519L27.1635 18.3549L26.9025 18.2618L26.8285 18.1978L26.9685 18.0229L27.0975 17.6219L27.3585 17.7228L27.4215 17.8468L27.4055 17.8839L27.5765 17.9589L27.7595 18.1609ZM97.2765 18.1918L97.1545 18.1999L97.0525 18.0368L96.7745 17.8558L96.6025 17.5439L97.2565 18.0588L97.2765 18.1918ZM91.3955 17.6869L91.3815 17.7729L91.2945 17.6529L91.2355 17.6238L91.2985 17.3239L91.3315 17.2729L91.3825 17.4778L91.3955 17.6869ZM27.5085 17.5038L27.5325 17.5728L27.4005 17.4948L27.3205 17.4478L27.2665 17.4048L26.9745 17.0238L27.0995 17.0479L27.4245 17.3828L27.5085 17.5038ZM23.5655 16.1599L23.2505 16.1758L23.1585 16.1399L23.1975 15.8778L23.2935 15.7198L23.4365 15.7228L23.5955 15.9589L23.5655 16.1599ZM91.3015 15.8799L91.2005 15.9109L91.1715 15.8998L91.1415 15.7878L91.1975 15.5978L91.3155 15.5959L91.3655 15.6269L91.3755 15.7668L91.3015 15.8799ZM91.1685 15.4638L91.0725 15.5558L90.9815 15.5248L90.9265 15.4069L90.9445 15.3218L91.0205 15.2668L91.1155 15.3079L91.1685 15.4638ZM24.0305 15.8178L23.9725 15.8558L23.7335 15.5019L23.7935 15.2979L23.8515 15.2458L23.9835 15.3708L24.0875 15.5009L24.1635 15.6559L24.0305 15.8178ZM25.0935 15.4378L25.1085 15.5179L24.8515 15.3568L24.8445 15.2398L24.8775 15.1859L25.0305 15.3109L25.0935 15.4378ZM26.2455 15.3448L26.0695 15.4268L25.8485 15.1718L25.8565 15.1129L25.8775 15.0678L25.9185 15.0388L26.0525 15.1708L26.2115 15.2178L26.2455 15.3448ZM22.8445 15.5888L22.7915 15.6959L22.6875 15.6169L22.1395 15.4969L21.9545 15.4839L21.4805 15.3518L21.3365 15.2819L21.2335 15.1898L21.2685 15.0208L21.3385 14.9189L21.3805 14.6349L21.5005 14.5189L21.7355 14.7299L21.9965 14.9118L22.1475 14.9948L22.6085 15.1808L22.7715 15.2738L22.8445 15.5888ZM23.9565 14.7478L23.9735 14.9008L23.7865 14.8639L23.6515 14.6838L23.7625 14.5558L23.8325 14.5099L23.9025 14.6798L23.9565 14.7478ZM23.2335 15.2448L23.1515 15.3249L23.0095 15.3058L22.8605 15.2119L22.6665 15.0428L22.4485 14.8918L22.1725 14.7968L21.9995 14.7679L21.9305 14.7328L21.9965 14.4398L22.1785 14.4218L22.7665 14.6938L22.9565 14.8419L23.2335 15.2448ZM25.6435 14.3788L25.8215 14.5009L25.9675 14.4208L25.9615 14.5248L25.9325 14.6248L25.7605 14.9118L25.4725 14.8459L25.4065 14.7528L25.3855 14.6838L25.4275 14.6408L25.4505 14.4998H25.5745L25.6435 14.3788ZM27.2165 14.2798L27.2335 14.4889L27.3935 14.5909L27.4345 14.7448L27.4065 14.9919L27.2565 15.2769L27.1895 15.3518L26.9905 15.2939L26.9245 15.1989L26.8985 15.1248L26.9265 15.0718L26.7795 15.0049L26.8745 14.8958L26.8095 14.7429L26.4025 14.8388L26.2845 14.8419L26.2635 14.6678L26.2805 14.5978L26.5935 14.3778L26.7805 14.3369L26.9815 14.3809L27.2165 14.2798ZM21.1595 14.9099L21.0295 14.9938L20.8735 14.8618L20.7455 14.6708L20.6785 14.4718L20.6175 14.1458L20.6015 13.9118L20.6795 13.7748L20.7365 13.7798L20.9665 13.9189L21.1185 14.1548L21.2025 14.2289L21.2195 14.4459L21.1635 14.6938L21.1595 14.9099ZM7.27954 13.5858L7.88751 14.3698L8.13452 14.4749L8.46252 14.8308L8.54254 14.9548L8.45953 15.2048L8.38751 15.9189L8.23053 16.0968L7.84753 16.0089L7.84351 15.8839L7.6225 15.3459L7.22253 15.0458L7.06549 15.0298L6.96252 14.7228L6.7605 14.3598L6.15051 13.6959L6.61353 13.7008L6.8385 13.5388L6.8905 13.4099L6.92749 13.3769L7.27954 13.5858ZM21.3415 13.6018L21.3625 13.9598L21.1535 13.8658L20.9905 13.7238L20.7295 13.6188L20.4135 13.5848L20.1815 13.4919L20.0195 13.3258L20.0125 13.2488L20.0285 13.1869L20.0805 13.1378L21.2795 13.4598L21.3415 13.6018ZM84.1975 14.8958L83.6625 15.3688L83.4995 15.5978L83.3565 15.8438L83.1455 16.1169L82.9035 16.3578L82.7825 16.4288L82.4835 16.5588L82.3115 16.6089L81.9875 16.6259L81.0115 16.8178L80.6915 16.8398L80.3725 16.8318L79.7685 16.7838L79.6425 16.7589L79.4015 16.5108L79.1295 16.3148L78.8895 16.2939L78.6445 16.3148L76.8795 16.3289L76.2625 16.3658L75.6485 16.4529L75.3135 16.4128L74.9825 16.3148L74.7325 16.2798L74.4805 16.2899L73.3225 16.4378L73.0305 16.4239L72.4445 16.2348L72.1045 16.1968L71.7695 16.2478L71.4585 16.4178L71.3405 16.5319L71.0185 16.9218L70.8365 17.2058L70.6975 17.5598L70.5795 17.9208L70.5165 18.2169L70.5125 18.5269L70.5685 18.8748L70.6555 19.2188L70.7525 19.4818L71.1545 20.0898L71.2365 20.1758L71.6735 20.3468L71.9325 20.5668L72.1775 21.1768L72.3535 21.4889L72.5245 21.4929L72.7165 21.4709L73.0505 21.5108L73.3805 21.5909L73.7025 21.4038L73.8825 21.0498L74.0635 20.7868L74.4975 20.2868L74.7445 20.0558L74.9015 19.9799L75.0625 20.0128L75.1985 20.1448L75.3565 20.2498L75.6805 20.3069L76.0075 20.2719L76.3555 20.1089L76.4805 20.0089L76.5845 19.8828L76.8795 19.7798L77.5805 19.7788L77.9415 19.8159L78.5875 19.7748L78.5785 19.6829L78.4535 19.5848L78.4215 19.5059L78.5415 19.4548L78.9575 19.3409L79.3815 19.2599L79.6905 19.3178L79.9655 19.4768L80.0715 19.6408L80.1185 19.8379L80.0125 20.3488L79.9605 20.4678L79.7405 20.5288L79.5335 20.4608L79.3285 20.1968L79.0385 20.0999L78.6275 20.1798L78.4855 20.2559L78.3595 20.3608L78.1275 20.6349L77.9345 20.9438L77.5155 21.4248L77.0325 21.8428L76.7985 22.0028L76.5365 22.1098L75.6975 22.3868L75.4765 22.5928L75.3045 22.8598L75.1145 22.9508L74.8945 22.9799L74.7295 22.9298L74.3955 22.7788L74.2855 22.9029L74.2665 23.0919L74.4305 23.1588L74.6965 23.3679L74.9015 23.6628L75.0325 23.7259L75.3255 23.8218L75.4485 23.9138L75.6685 24.1668L76.0155 24.7549L76.1335 25.0728L76.3265 25.3329L76.9125 25.7738L76.9455 25.8988L76.9095 26.0449L76.9545 26.1768L77.1645 26.4298L77.2145 26.5938L76.9855 26.8018L76.9725 27.1018L76.8315 27.5059L76.8005 27.6418L76.8045 27.7658L76.9035 27.8809L77.0185 27.9718L77.1765 28.0198L77.3145 28.0988L77.5805 28.4138L77.7195 28.4969L77.8075 28.6118L77.7985 28.7828L77.9195 28.8828L78.0305 29.0619L78.2015 29.1049L78.2805 29.0538L78.3355 28.9768L78.4755 29.0059L78.5575 29.1309L78.6055 29.2908L78.6215 29.4669L78.6145 29.8008L78.5445 29.9208L78.3915 29.9149L78.1165 29.7769L78.1035 29.8769L78.1225 29.9728L77.9825 30.0049L77.8225 29.9908L77.4205 30.0038L76.6785 30.2119L76.4185 30.3348L76.2495 30.5579L76.2375 30.7129L76.3025 31.0378L76.2035 31.1519L75.8635 31.1949L75.3885 31.1078L75.1015 31.0208L74.9415 30.9478L74.7335 30.7289L74.6545 30.4489L74.8085 29.6158L74.8515 29.5089L74.9265 29.4138L75.0055 29.2628L75.0245 29.0848L74.7975 28.8679L74.4555 28.7819L74.1665 28.6009L73.0485 27.5848L72.9855 27.4868L72.9835 27.3188L73.0285 27.1618L73.3955 26.6068L73.4425 26.5009L73.4875 26.0628L73.4765 25.7018L73.4355 25.3409L73.2615 25.1139L72.9505 25.0449L72.6295 25.0338L72.3165 25.1058L72.0085 25.2878L71.4405 25.6699L71.2145 25.8929L71.1945 26.1819L71.3245 26.4648L71.4925 26.7228L71.5825 27.0059L71.7065 28.0089L71.7025 28.1219L71.5565 28.4138L71.4985 29.0659L71.5615 29.9868L71.6615 30.5518L71.6185 30.8589L71.3525 31.5189L71.2715 31.8809L71.2655 32.0298L71.5785 32.7198L71.6505 32.9929L71.6885 33.2758L71.3555 33.1368L71.2015 33.1439L71.0445 33.1859L70.6975 33.2308L70.3445 33.2368L70.2215 33.2888L69.9715 33.4728L69.8195 33.5468L69.6875 33.5609L69.2395 33.3308L68.9745 33.0808L68.7305 32.8098L68.6855 32.4998L68.7705 32.1819L68.8915 31.8419L69.1325 31.2769L69.1205 30.8979L69.2035 30.5869L69.3415 30.2859L69.3915 30.0078L69.4245 28.9199L69.3905 28.8228L69.0595 28.1768L69.0215 28.0688L69.0195 27.8948L69.0555 27.7278L69.0625 27.5789L68.9865 27.4638L68.8525 27.3589L68.6905 27.3128L68.3475 27.3578L67.6595 27.5319L67.4565 27.3788L67.3045 27.1429L67.2055 26.8128L67.1485 26.4678L67.1745 26.1439L67.2765 25.8308L67.1945 25.6118L67.0675 25.3738L67.0665 25.2509L67.1385 25.1439L67.2625 25.0538L67.4145 25.0019L67.5565 24.9069L67.9335 24.5879L68.0535 24.3069L68.0625 23.9608L68.1585 23.6309L68.3505 23.3258L68.5785 23.0439L68.6515 22.7528L68.5405 22.2908L68.5845 22.0808L68.5465 21.8339L68.5425 21.5898L68.6835 21.1309L69.1015 20.1918L69.5095 19.6928L69.6715 19.5619L69.8835 19.7939L70.0445 20.0668L70.0475 19.8199L69.9995 19.5829L69.8375 19.0179L69.6965 17.9158L69.7355 17.8119L69.8785 17.8289L70.0245 17.7318L70.1005 17.5588L69.9495 17.1498L69.9425 17.0049L70.2345 16.4298L70.4725 16.2209L70.5765 16.0919L70.6365 15.7408L70.7605 15.6089L70.9165 15.5139L71.1225 15.2708L71.2335 14.9648L71.3015 14.9418L71.3815 14.9308L71.5055 15.1978L71.6445 15.3058L71.9265 15.3929L72.1675 15.2899L72.2345 15.1559L72.3255 15.0408L72.4715 14.9208L72.5945 14.7838L72.7315 14.4669L72.9125 14.1779L73.0365 14.0768L73.1855 14.0139L73.3515 13.9749L73.5115 13.9698L73.8665 14.1508L74.0725 14.1869L74.2835 14.1739L74.4165 14.2039L74.5175 14.2859L74.6095 14.4499L74.7225 14.5919L74.8275 14.6618L74.9425 14.6949L75.7155 14.6368L76.3915 14.7968L77.3135 14.8329L77.6295 14.9268L77.9335 15.0498L78.3045 15.2658L78.4405 15.3138L78.5925 15.3018L78.7815 15.0978L78.9295 15.0538L79.0795 15.0458L79.6735 15.0839L81.2695 15.3339L81.5055 15.2998L82.4675 14.8209L82.8535 14.3669L83.1985 14.2408L83.3145 14.0349L83.3845 13.7888L83.5065 13.7228L83.7955 13.6529L83.9095 13.5798L84.1145 13.2769L84.3565 13.0089L84.4755 12.9279L84.8175 12.9709L84.9685 13.0879L85.1605 13.4818L85.1275 13.5479L84.9005 13.7438L84.8345 13.8268L84.5835 14.3809L84.4115 14.6529L84.1975 14.8958ZM19.1425 11.8748L19.2935 12.1039L19.3255 12.2519L19.2145 12.4218L19.1735 12.6829L18.8465 12.8878L18.5605 12.8388L18.4675 12.7658L18.2865 12.3698L18.3045 12.0338L18.4175 11.9059L18.6835 11.9258L18.9535 11.7419L19.1425 11.8748ZM92.1795 15.3058L92.3835 15.3679L92.5955 15.3509L92.7005 15.2259L92.7295 15.0638L92.8365 14.7628L93.0835 14.5588L93.2565 14.5269L93.3795 14.4409L93.3585 14.2178L93.3715 13.9988L93.5545 13.7649L94.1195 13.4388L94.4425 13.3228L94.8615 13.2859L94.9085 13.4109L94.8605 13.5888L94.9415 13.8578L94.9015 14.5858L94.8055 14.6888L94.3725 14.9398L93.8995 15.1408L93.7665 15.2249L93.6495 15.4248L93.6595 15.6238L94.0455 15.8889L94.6445 16.1368L94.7675 16.2528L94.8475 16.4478L94.8695 16.6658L95.0145 16.7698L95.2175 16.8199L95.3515 16.9229L95.4535 17.0678L94.4455 16.7289L94.1815 16.5798L93.8635 16.5619L93.5485 16.5168L93.2275 16.3868L92.8825 16.3558L92.7175 16.4499L92.6535 16.6339L92.6145 16.8398L92.6905 17.0959L92.6835 17.2519L92.6185 17.5328L92.8685 18.3639L93.1815 19.0238L93.6425 19.7108L93.8705 19.9468L94.1255 20.1599L93.7115 20.0968L93.5865 19.8679L93.0625 19.6399L92.9615 19.5038L92.6195 18.8518L92.5195 18.7299L92.2045 18.5078L92.0655 18.3448L92.0185 18.1248L92.0535 17.8939L92.0355 17.5739L92.0475 17.2559L92.1125 16.8679L91.9995 16.7308L91.8525 16.6028L91.6815 16.3058L91.6305 15.9678L91.6445 15.7738L91.7145 15.6018L91.8095 15.4529L91.8305 15.3069L91.5845 15.0959L91.3265 14.4938L91.3035 14.1819L91.6315 13.5808L91.6245 13.2888L91.6895 13.1158L91.7245 12.9319L91.8965 12.5319L92.1755 12.1909L92.6495 11.7129L92.8295 11.6089L93.0325 11.5408L93.0505 11.6578L93.0185 11.7618L92.6685 12.2478L92.6215 12.3578L92.6125 12.5619L92.7795 12.6829L92.9615 12.9298L92.9965 13.2578L93.0035 13.6078L92.9635 13.9598L92.8965 14.0779L92.6095 14.4319L91.9565 14.8468L91.9005 14.9499L91.9055 15.0638L92.0255 15.2018L92.1795 15.3058ZM6.86554 11.8828L6.84949 11.9459L6.55951 11.6529L6.23151 11.4898L6.36749 11.4478L6.63849 11.4929L6.74652 11.5349L6.85052 11.6808L6.86554 11.8828ZM94.2035 11.9489L93.7595 11.9969L93.6585 11.8639L93.5415 11.2639L93.8565 10.7838L94.2535 10.5019L94.5245 10.4308L94.6195 10.4268L94.8615 10.7729L94.6775 11.4678L94.4655 11.8228L94.2035 11.9489ZM85.6535 10.2758L85.6245 10.3379L85.5205 10.0108L85.6075 9.84683L85.7325 9.90686L85.7635 9.96484L85.6445 10.1208L85.6535 10.2758ZM4.42352 11.0888L4.2475 11.1148L4.07751 11.0548L3.93652 10.8948L3.1825 10.4308L2.94849 10.4239L2.78448 10.3048L2.58453 10.2639L2.3725 9.95386L2.32751 9.78784L2.48151 9.70685L2.57849 9.53683L2.82953 9.61185L3.11554 9.91183L3.40649 10.0238L3.48553 10.0808L3.6275 10.2469L4.29254 10.6548L4.3645 10.7939L4.41052 10.9329L4.42352 11.0888ZM39.2905 9.56683L39.1535 9.71286L39.0075 9.62186L39.2335 9.32584L39.2865 9.30585L39.2905 9.56683ZM30.5145 9.68585L30.3975 9.69684L30.3625 9.61386L30.3675 9.47086L30.3575 9.35684L30.3235 9.27185V9.12885L30.4315 9.19986L30.5145 9.26685L30.6105 9.31485L30.6885 9.34683L30.7295 9.36884L30.6525 9.57086L30.5145 9.68585ZM31.9865 8.86484L31.9825 9.05685L31.7885 8.94385L31.7505 8.73083L31.8145 8.66183L31.9475 8.69885L31.9865 8.86484ZM63.9055 8.51984L63.8705 8.61185L63.6305 8.38684L63.5675 8.22385L63.5965 8.09683L63.8455 8.08585L63.9695 8.16583L63.9055 8.51984ZM86.3565 8.08585L86.2865 8.17084L85.9455 8.01486L85.9625 7.76785L85.9165 7.64584L85.8245 7.51785L85.7875 7.39285L85.8255 7.25586L86.0355 7.43085L86.1535 7.70886L86.3155 7.97284L86.3565 8.08585ZM89.7075 7.15686L89.6615 7.18884L89.5605 7.11386L89.4975 7.03085L89.5015 6.94785L89.5735 6.90585L89.7195 7.03284L89.7225 7.10284L89.7075 7.15686ZM89.3355 6.86084L89.3425 6.97885L89.1725 6.71085L89.1065 6.39386L89.2415 6.50684L89.3925 6.74084L89.3355 6.86084ZM64.5405 5.98984L64.6345 6.25684L64.6485 6.35886L64.1275 6.49884L63.8135 6.17084L63.8805 6.03784L64.1515 6.04385L64.5405 5.98984ZM37.6875 7.37686L37.3035 7.47986L37.0815 7.33585L37.3215 7.15884L37.4065 7.14685L37.4625 7.11185L37.4825 7.03986L37.0485 6.92285L36.9245 6.81985L36.8065 6.55786L36.8095 6.39084L37.3675 5.94986L37.4975 5.90286L37.5185 6.08585L37.9035 6.54785L37.9205 6.85583L37.9055 6.96686L37.6875 7.37686ZM60.8045 5.50385L60.9055 5.56384L61.0455 5.56186L61.2115 5.51785L61.6195 5.55984L62.3415 5.56885L62.8385 5.67386L63.3245 5.97086L63.5665 6.03085L63.6705 6.03284L63.6475 6.05585L63.4555 6.13684L63.3645 6.29684L63.6295 6.54184L63.6475 6.70483L63.8525 6.85086L64.1035 7.07785L64.1135 7.15186L64.1985 7.25385L64.2415 7.37885L64.0645 7.50284L63.8275 7.52585L63.6515 7.40884L63.4905 7.26285L63.4485 7.44385L63.3235 7.54785L62.8675 7.51785L62.5415 7.51886L62.2175 7.56384L62.3795 7.59186L62.5265 7.64984L63.0315 8.11185L63.1395 8.28284L62.9625 8.62283L63.0485 8.76184L63.2435 8.84186L63.4815 9.01083L63.6505 9.02786L63.7725 9.12384L63.7775 9.28986L63.8485 9.43985L63.6565 9.50085L63.8465 9.54083L64.0165 9.61786L63.9235 9.69586L63.8515 9.79083L63.9295 9.84186L64.1625 9.92883L64.2645 10.0099L64.3175 10.2268L64.5455 10.5818L64.9615 11.0399L65.0525 11.2068L65.0515 11.3608L64.9825 11.4929L64.7455 11.6469L64.5565 11.8509L64.5335 11.9248L64.2755 12.0189L64.3935 12.0879L64.4875 12.1819L64.6665 12.4648L65.0935 12.9248L65.3085 13.0968L66.1915 13.7209L66.6615 13.9929L67.2615 14.6148L67.5725 14.7589L67.6335 14.9319L67.3735 15.1978L66.9955 15.3308L66.3705 15.4019L65.7435 15.3088L65.4195 15.2328L65.1375 15.0798L64.9155 14.7729L64.6215 14.6068L64.7345 14.7928L64.8055 14.9828L64.7685 15.1898L64.6535 15.3518L64.4555 15.4709L64.2435 15.5678L64.1535 15.6358L63.6155 16.7188L63.5285 17.0118L63.3645 18.2278L63.3615 18.5718L63.6035 19.2148L63.6245 19.5518L63.6725 19.6978L63.6405 19.8188L63.5265 19.8908L63.0645 20.0869L62.7385 20.2498L62.4735 20.4818L62.2595 20.7708L62.0715 20.9799L61.8215 21.0798L61.6395 21.0648L61.4935 20.9688L61.3905 20.7828L61.3315 20.5798L61.2935 20.7299L61.3005 20.8769L61.3865 21.0338L61.4195 21.1999L61.3695 21.3688L61.2625 21.5038L60.9725 21.6508L60.8125 21.7769L60.7815 21.9998L60.7045 22.1248L60.5935 22.2218L60.1845 22.4438L60.0925 22.5328L60.0255 22.6458L60.2435 22.6278L60.4435 22.6458L60.4585 22.8669L60.5215 23.0319L60.4415 23.3929L60.1335 23.6368L60.2875 23.6878L60.4265 23.7679L60.7355 23.8268L60.8395 24.0829L60.7935 24.3929L60.7375 24.6708L60.5155 24.7478L60.3775 24.6968L60.2405 24.7018L60.1395 24.7859L60.1135 24.9298L60.3045 24.8589L60.2935 25.2188L60.2415 25.5699L60.1785 25.7639L60.0615 25.9218L59.8845 25.9728L59.7175 25.8539L59.6835 25.9919L59.7345 26.1078L59.9725 26.3899L59.8265 26.4518L59.7205 26.5479L59.6725 26.6878L59.4135 27.0089L59.2985 27.2448L59.2495 27.4969L59.1285 27.6968L57.1695 28.5688L55.5845 29.3029L55.4705 29.2528L55.3935 29.1408L55.3395 27.9998L55.1435 27.4168L55.1145 27.0879L54.8905 27.3809L54.7535 27.3509L54.6055 27.2758L54.4945 27.1798L54.4855 27.0538L54.6055 26.6918L54.4605 26.8908L54.3025 27.0439L54.1385 27.0248L53.9965 26.9489L53.9445 26.8308L53.8695 26.8128L53.5225 27.1349L53.0655 27.3079L52.8105 27.3048L52.6105 27.2058L52.6205 26.9598L52.5995 26.7198L52.5435 26.5789L52.4205 26.5279L52.3075 26.5458L51.9795 26.6708L51.8625 26.6559L51.7955 26.7188L50.9275 25.8448L50.7525 26.5529L50.1525 26.9288L49.7105 27.1479L49.2715 27.0659L48.8265 26.9258L48.3825 27.0948L47.9005 27.5089L47.7675 27.5718L47.6285 27.5709L47.5265 27.5168L47.5615 27.2029L47.5655 26.8889L47.5295 26.1898L47.4915 26.0518L47.3525 25.8598L47.1685 25.7209L47.0665 25.8218L46.9735 25.9608L46.6075 25.9548L46.2505 25.8438L45.9465 25.9069L45.3425 26.1838L45.0225 26.2268L44.8505 26.1638L44.7405 26.0149L44.8035 25.8778L44.9365 25.7729L44.6885 25.8558L44.4775 25.9958L44.3855 26.0858L44.2865 26.0408L44.0225 25.7249L43.4705 25.8428L43.3965 25.8788L43.2605 25.9868L43.1295 25.9329L43.0645 25.8178L43.0415 25.1578L42.7605 23.8889L42.6835 23.2408L42.6215 23.0879L42.2995 22.8549L42.3105 22.5208L42.4785 22.2408L42.5135 21.9149L42.4655 21.5609L42.3645 21.2148L42.2375 20.9539L42.0555 20.7308L41.8145 20.4808L41.5175 20.2939L40.8775 20.0839L40.5405 20.1028L40.4145 20.0198L40.3305 19.9128L40.3645 19.7029L40.4785 19.5588L40.6315 19.5229L40.6505 19.4409L40.3255 19.2719L40.0545 19.0418L39.9695 18.9038L39.9435 18.7519L39.9455 18.4008L40.0235 18.1788L40.0665 18.0588L40.1495 17.6878L40.3265 17.5749L40.2985 17.5068L40.2225 17.4558L40.1125 17.3339L40.0215 17.1938L39.8145 16.9558L39.4495 16.6699L39.3875 16.1758L39.3405 15.4478L39.3705 15.1169L39.4875 14.4978L39.6905 14.3029L39.8515 14.2488L39.9725 14.1658L39.8725 14.1538L39.7865 14.1848L39.6325 14.2058L39.7595 13.6519L39.8165 13.4919L40.0715 13.1819L40.3705 12.9078L40.4965 12.5848L40.6665 12.3018L41.3695 12.0099L41.1165 12.3759L41.1445 12.5089L41.2065 12.6269L41.3885 12.7098L41.4405 13.1609L41.6695 13.4168L41.8995 13.6508L42.0695 13.7658L42.2565 13.9329L42.3875 14.0879L42.5255 14.2178L42.7335 14.3448L43.2965 14.8858L43.5315 15.0449L43.7065 15.2039L43.8305 15.2599L44.1375 15.2148L45.0445 14.8268L45.2075 14.8018L45.5025 14.7348L46.0235 14.7559L46.5745 14.8878L46.7535 14.8918L46.9235 14.8128L47.1595 14.8358L47.3795 14.8769L47.4895 14.8428L47.8095 14.5598L48.2455 14.4759L48.3865 14.1959L48.4955 13.9319L48.5475 13.6508L48.7295 13.5378L48.9845 13.4398L49.3625 13.3159L50.6735 13.2939L50.8005 13.3478L50.8275 13.4919L50.8005 13.6009L50.8525 13.6658L51.0265 13.6718L51.1875 13.7379L51.8405 13.9638L52.1185 14.0338L52.2735 14.0158L52.5795 14.2178L52.7465 14.1488L52.9675 14.0068L53.1775 13.8159L53.3655 13.6649L53.6385 13.6058L53.9925 13.6139L54.4105 13.5619L54.7255 13.4808L55.0775 13.6148L55.1715 13.5728L55.2325 13.4418L55.4145 13.1548L55.4955 12.9619L55.5655 12.5919L55.6145 12.5038L55.7485 12.4529L55.8855 12.3828L55.9215 12.2719L55.9715 12.1429L55.9305 12.0349L55.8525 11.9438L55.7705 11.6349L55.7965 11.4938L55.8475 11.3889L55.9885 11.3358L56.3605 11.1089L56.6905 10.8428L56.8715 10.7129L56.9505 10.6288L56.9555 10.5068L56.8115 10.3799L56.6735 10.3188L56.6635 10.1718L56.6685 10.0699L56.7105 9.97385L56.6895 9.88086L56.6885 9.74185L56.7765 9.59186L56.9795 9.36984L57.1395 9.22586L57.3175 9.31485L57.5245 9.27383L57.7215 9.20184L57.8305 8.93985L57.8475 8.81485L57.8215 8.71484L57.8895 8.34186L57.9065 8.28784L58.0355 8.05286L58.0485 7.89484L57.9755 7.52786L58.0215 7.24985L58.0425 6.67484L58.1195 6.57184L58.2085 6.27383L58.3525 5.96286L58.6435 5.79385L58.7955 5.57184L58.8625 5.52985L58.9625 5.52786L59.3145 5.68985L59.6305 5.50986L59.9165 5.48886L60.1525 5.51285L60.2855 5.58685L60.4165 5.63986L60.6985 5.46484L60.8045 5.50385ZM89.6075 6.41684L89.4945 6.47485L89.3125 6.45386L89.2925 6.31186L89.4775 6.05685L89.5995 5.78784L89.4695 5.72086L89.3425 5.54886L89.3375 5.34885L89.4415 4.97885L89.5955 5.00885L89.7435 5.16885L89.8045 5.46884L89.9015 5.69684L89.6955 6.00684L89.6075 6.41684ZM4.50452 3.07184L4.84851 3.09683L5.48749 2.94485L5.8385 2.95984L6.16949 3.06985L6.4635 3.13284L7.1955 3.05185L7.3335 3.07285L7.46552 3.13583L7.57751 3.23584L7.91254 3.59985L8.47852 4.04785L8.64154 4.33484L8.7345 4.65784L8.79352 4.73285L9.43353 5.34985L9.5025 5.60785L9.41254 5.96484L9.59851 6.24884L10.2185 6.51584L10.5845 6.70984L10.6625 6.82886L10.7165 6.97086L10.9195 7.18085L11.1735 7.31784L11.9665 7.67883L13.0065 8.43286L13.5975 8.79083L14.0865 9.33484L14.2635 9.59485L14.4095 9.87585L14.7065 10.2849L15.2115 10.7899L15.3395 10.9438L15.4755 11.1668L15.6325 11.3738L15.8205 11.5638L16.0445 11.7098L16.2735 11.7568L16.6425 12.1219L16.8415 12.2358L16.8105 11.9499L16.6425 11.6999L16.6455 11.5498L16.6745 11.4149L16.8115 11.3018L16.9765 11.2698L17.2865 11.3738L17.7895 11.8069L18.0015 12.0588L18.1605 12.4069L18.2945 12.7679L18.4945 12.9478L18.7705 13.0108L19.0775 13.0368L19.3595 13.1479L20.0195 13.6479L20.2385 13.8828L20.4045 14.1588L20.5185 14.4858L20.5895 14.8289L20.6335 14.9078L21.0575 15.3218L21.2805 15.4969L21.5525 15.5818L22.3475 15.6748L22.6265 15.8178L22.8585 16.0558L22.9555 16.2979L22.7905 16.5118L22.1695 16.8398L21.5065 17.0668L22.1515 16.9889L22.4775 16.8939L22.7775 16.7458L23.0745 16.5569L23.5465 16.2928L23.7215 16.2389L23.9275 16.2578L24.1145 16.3329L24.3945 16.5919L24.6585 16.8658L24.8555 17.1848L24.9785 17.5399L24.7525 17.7259L24.4245 17.8629L23.9735 18.2058L23.9255 18.3419L24.0185 18.4288L23.9085 18.6808L24.1615 18.8369L24.1995 18.9688L23.9805 19.1578L24.0015 19.2748L24.2655 19.7748L24.3915 19.8889L24.7945 20.1429L25.4085 20.3998L25.7485 20.5179L26.1345 20.6089L26.2995 20.6068L26.5885 20.5648L26.6475 20.6649L26.7715 21.1569L26.8315 21.4688L26.9205 22.1318L27.0325 22.4069L27.0255 22.7429L27.1725 23.0288L27.4755 23.2119L27.7965 23.3608L27.9485 23.5068L27.9465 23.7268L27.8945 23.9008L27.7865 24.0359L27.4525 24.3228L27.3925 24.4468L27.3455 24.7628L27.4025 24.9078L27.5365 24.9158L27.6405 24.8398L28.0405 24.4158L28.1485 24.3419L28.2995 24.2819L28.4535 24.2438L29.1845 24.2408L29.4955 24.3079L29.7705 24.4459L30.0135 24.6188L30.9045 25.7238L31.3115 26.3339L31.3435 26.4858L31.3505 26.6439L31.2815 26.7658L30.9115 27.1829L30.8645 27.2979L30.7495 27.7519L30.7705 28.0789L30.8935 28.2159L30.9925 28.3648L30.9845 28.4998L30.7405 29.1718L30.7155 29.2868L30.8695 30.3799L30.8805 30.6758L30.8495 31.0508L30.8715 31.6548L30.6715 33.5229L30.6345 33.6339L30.4815 33.9199L30.2805 33.9178L30.1175 33.8679L30.0045 33.7589L29.9415 33.6238L29.8495 33.5128L29.3635 33.1678L29.2365 33.2249L28.7425 33.6529L28.6115 33.7159L28.4465 33.6638L28.1865 33.5359L27.3715 33.0858L27.3215 33.2299L27.3105 33.4248L27.4725 33.9149L27.4955 34.1288L27.3475 34.1708L27.2645 34.1618L26.9255 33.8778L26.6125 33.5628L26.2575 33.1368L25.9975 32.9348L25.7635 32.7089L25.1035 31.8509L24.9315 31.7198L23.9085 31.1148L23.7025 30.9709L23.4405 30.7209L23.1595 30.4978L22.5425 30.1469L21.4725 29.2568L21.0075 28.7458L20.4905 27.9218L20.3215 27.7119L19.4525 27.0938L18.9785 26.7198L18.7805 26.5049L18.3195 25.7559L18.1845 25.5038L18.0145 25.2809L17.7355 25.0999L17.4895 24.8878L17.0015 24.2108L16.8475 23.9409L16.7315 23.6488L16.7525 23.0638L15.7175 21.2928L15.4575 20.7408L15.2165 19.9749L15.1635 19.8979L14.5985 19.2119L14.3995 18.9919L14.1575 18.7859L13.9605 18.5449L13.5705 17.7618L13.4255 17.5449L13.2225 17.3849L12.4845 17.0888L12.2095 16.9239L11.9925 16.6898L11.8595 16.3908L11.7135 15.7568L11.3645 14.7939L10.9745 13.5038L10.7105 12.9258L10.4095 12.4718L10.3215 12.3669L8.98151 11.5498L8.7525 11.4288L8.50952 11.3568L8.16254 11.3048L7.89752 11.0938L7.78949 10.7148L7.72852 10.2068L7.66254 9.90384L7.58954 9.73184L7.02954 9.37283L6.80951 9.08884L6.62653 8.77585L6.45953 8.53384L5.84351 7.69785L5.63251 7.47885L5.37152 7.32584L4.59851 7.16385L4.37152 7.02484L3.99652 6.54984L3.76953 6.30786L3.08954 5.77484L1.94049 4.65985L1.70551 4.38184L1.52954 4.09186L1.38654 3.78085L0.896484 2.91885L0.936523 2.74484L1.00952 2.56384L0.998535 2.41385L0.944519 2.26584L0.955505 2.13284L1.1015 2.05383L1.42853 1.95285L1.76752 1.96484L2.08148 2.00784L2.3855 2.09085L2.67749 2.27185L3.19952 2.72986L3.49652 2.88885L3.82654 2.96585L4.50452 3.07184ZM1.33148 1.43884L1.27649 1.51785L1.1095 1.47684L0.925537 1.22183L0.99353 1.17285L1.10651 1.19885L1.32251 1.25784L1.34149 1.35284L1.33148 1.43884Z" fill="#CCCCCC" stroke="white" stroke-width="0.5"/>
</svg>
