<svg width="14" height="20" viewBox="0 0 14 20" fill="none" xmlns="http://www.w3.org/2000/svg">
<path d="M9.43997 2.5032L8.99597 2.8172L8.92697 2.93622L8.80197 3.41522L8.78696 3.55121L8.64398 3.80222L8.50897 4.08121L8.35196 4.18921L8.11798 4.27521L7.98495 4.3602L7.81696 4.3172L7.60498 4.32422L7.49896 4.41922L7.50397 4.49222L7.56696 4.57523L7.75296 4.70322L7.95996 4.81821L7.93698 4.91922L7.82596 5.0332L7.12296 5.3172L6.91397 5.48822L6.84097 5.60123L6.91595 5.79022L7.47696 6.35522L7.57196 6.41721L7.65497 6.74622L8.14996 6.88321L8.35297 7.08823L8.52698 7.13721L8.90598 7.1192L9.05798 7.19623L9.14398 7.13721L9.19397 7.02921L9.51297 6.75122L9.61798 6.62921L9.55496 6.46021L9.48697 6.33121L9.68097 6.07422L9.91595 5.82022L10.034 5.82822L10.235 5.98422L10.401 6.2012L10.423 6.3692L10.454 6.49121L10.611 6.75122L10.712 6.84122L10.984 6.89322L11.048 6.99521L10.999 7.37122L11.04 7.49622L11.325 7.50223L11.628 7.4722L11.734 7.48621L11.843 7.40723L12.011 7.3222L12.252 7.35123L12.37 7.51923L12.423 7.6922L12.216 7.7572L12 7.7222L11.895 7.83521L11.888 8.05322L11.961 8.33423L12.106 8.5332L12.221 8.9812L12.317 9.4772L12.465 9.77621L12.496 10.1462L12.474 10.3282L12.501 10.6552L12.438 10.7702L12.485 11.0762L12.66 11.7072L12.737 12.0582L12.786 12.8222L12.662 13.1072L12.496 13.3782L12.387 13.6982L12.304 14.0432L12.253 14.5982L11.893 15.2462L11.74 15.4072L11.562 15.5062L11.95 15.9582L11.633 16.1592L11.288 16.2222L10.906 16.1092L10.668 16.1232L10.45 16.2692L10.365 16.3572L10.296 16.3152L10.153 15.9452L10.048 16.3272L9.82797 16.4492L9.45096 16.4232L8.82098 16.5252L8.57797 16.6332L8.47696 16.8032L8.40198 16.9992L8.30298 17.1142L8.19196 17.1752L7.70496 17.3192L7.60898 17.3772L7.38297 17.6922L7.08798 17.8742L6.84296 17.9292L6.62598 17.7462L6.53696 17.6362L6.43597 17.5802L6.10196 17.5892L6.20697 17.6462L6.27496 17.7752L6.30798 18.0232L6.26996 18.2662L6.10498 18.3892L5.90897 18.4122L5.59897 18.6632L5.18896 18.7312L4.96698 18.9622L3.61096 19.3522L3.53397 19.3562L3.34695 19.2572L3.14398 19.2132L2.94196 19.2442L2.37396 19.4622L2.09897 19.4192L2.44998 18.8772L2.92096 18.6032L2.96997 18.5282L2.81598 18.4912L1.91998 18.6812L1.60898 18.8432L1.29797 18.8902L1.44196 18.6422L1.84296 18.3032L2.05798 18.1432L2.18896 18.0792L2.33896 17.8792L2.76196 17.6522L1.39996 18.1202L1.04196 18.0632L0.957977 17.9332L0.679962 17.9952L0.573975 17.6782L0.986969 17.1992L1.22797 16.9922L1.51398 16.8802L1.78897 16.7192L1.89096 16.5232L1.76196 16.4602L0.937958 16.5102L0.542969 16.4682L0.563965 16.3122L0.636963 16.1392L1.04596 15.8432L1.26797 15.7962L1.46497 15.8242L1.65698 15.9002L1.81396 15.9992L2.27798 15.9422L2.08398 15.7532L2.04996 15.3682L1.90198 15.2392L2.09097 15.0602L2.30798 14.9522L2.66998 14.5812L2.79898 14.5242L3.51498 14.4342L4.28696 14.2392L5.05197 13.9692L4.65897 13.8182L4.47098 13.6182L4.16898 14.0212L3.95096 14.1752L3.33698 14.2582L3.14297 14.2132L2.86896 14.0882L2.78397 14.1352L2.70496 14.2312L2.29797 14.4282L1.87097 14.4752L2.36798 14.1132L2.99896 13.4982L3.13898 13.3042L3.33896 12.9652L3.27698 12.8142L3.14697 12.7282L3.60397 12.0282L3.76498 11.9012L4.05698 11.8802L4.27197 11.7692H4.36697L4.45197 11.7272L4.63998 11.5172L4.34998 11.3832L4.04996 11.3142L3.12296 11.3872L3.00098 11.3712L2.88596 11.3062L2.81097 11.2132L2.75497 10.9742L2.68698 10.9202H2.47797L2.27097 10.9932L2.12698 10.9862L1.98596 10.8812L2.21198 10.6362L1.92096 10.5782L1.62698 10.6262L1.38196 10.5512L1.37497 10.3972L1.48596 10.2432L1.33997 10.0972L1.30997 9.9122L1.46497 9.82123L1.63397 9.85123L1.97897 9.7142L2.42197 9.64822L2.04196 9.51321L1.89096 9.39722L1.88397 9.22021L1.91397 9.06821L2.35297 8.81122L2.82098 8.69821L2.78598 8.52921L2.81897 8.34521L2.34598 8.29221L1.87897 8.4212L1.92896 8.07022L2.04095 7.75223L2.06296 7.54321L2.04095 7.31821L1.82196 7.41422L1.79697 7.0972L1.70297 6.88022L1.37796 7.03021L1.38596 6.74222L1.47998 6.5412L1.64896 6.45422L1.81696 6.49222L2.12997 6.48923L2.43198 6.33722L2.86697 6.29822L3.55896 6.34521L4.03497 6.77222L4.15796 6.69623L4.34796 6.42621L4.43698 6.39621L5.15497 6.51422L5.59998 6.66922L5.71896 6.62122L5.65497 6.3222L5.50198 6.11423L5.69397 5.84222L5.92798 5.65723L6.08496 5.56522L6.44598 5.45023L6.60397 5.34222L6.70898 4.9902L6.87598 4.6972L5.96896 4.84921L5.10596 4.50122L5.24298 4.25522L5.42496 4.1152L5.73898 4.00821L5.76898 3.87921L5.92798 3.77222L6.19098 3.4902L6.09396 3.12122L6.14597 2.85123L6.33496 2.6752L6.39398 2.42221L6.47797 2.2352L6.86197 2.16821L7.23096 1.99521L7.36398 2.01221L7.80096 1.9722L7.94797 2.04221L7.91397 1.7352L8.18198 1.69522L8.28598 1.75623L8.33197 1.97421L8.45398 2.11322L8.49197 2.35422L8.40997 2.54022L8.27298 2.68323L8.39798 2.82922L8.20496 3.09421L8.41296 2.9812L8.70996 2.7222L8.69397 2.5112L8.64398 2.2442L8.56097 2.0032L8.59897 1.73721L8.76596 1.57123L9.20496 1.48721L9.02496 1.18521L9.18497 1.1582L9.35898 1.22122L9.61496 1.45621L9.88196 1.6412L10.158 1.7872L9.89197 2.07922L9.56497 2.28223L9.43997 2.5032ZM1.77997 8.1882L1.76797 8.32422L1.55997 8.15323L1.45898 7.96622L0.888977 7.88123L1.12598 7.69421L1.24197 7.74921L1.64496 7.7572L1.75797 7.83521L1.77997 8.1882Z" fill="#CCCCCC" stroke="white" stroke-width="0.5"/>
</svg>
