<svg width="6" height="15" viewBox="0 0 6 15" fill="none" xmlns="http://www.w3.org/2000/svg">
<path d="M5.13556 2.93387L4.98755 2.95389L4.6416 3.10889L4.59454 3.15588L4.53357 3.24588L4.52258 3.31488L4.47357 4.05887L4.28558 4.03787L4.05658 3.87589L4.0116 3.73587L3.94257 3.68787L3.77856 3.66989L3.46857 3.59888L3.10858 3.84387L2.95557 4.24786L2.92456 4.43689L2.80255 4.83289L2.84558 5.07687L2.86658 5.39188L2.89758 5.64886L2.8656 5.80386L2.79657 5.88586L2.81659 5.94489L2.8786 5.96689L3.07556 5.89688L3.28259 5.96689L3.48157 6.09988L3.49756 6.18588L3.35657 6.23688L3.02356 6.43787L2.78857 6.67087L2.7276 6.88586L2.56854 7.34387L2.59058 7.43787L2.6676 7.49289L3.20959 7.44388L3.70258 7.25888L4.07355 7.06189L4.19055 7.07388L4.11255 7.57788L4.11456 7.57986L4.0506 7.88788L4.07556 7.93988L4.15955 8.20789L4.00055 8.69687L3.82458 9.09488L3.76257 9.28287L3.59058 9.70187L3.41455 10.1869L3.32056 10.5209L3.34155 10.6389L3.29858 11.2499L3.32355 11.4229L3.11755 11.9519L3.0766 12.2129L2.99359 12.5659L2.85156 13.3119L2.65759 13.5619L2.56158 13.2839L2.3396 12.4859L2.18256 11.9379L1.96759 11.2629L1.60559 10.4389L1.57257 10.2399L1.49457 9.95187L1.24554 9.19989L1.04156 8.65588L0.808594 7.95987L1.0976 7.68387L1.1026 7.45587L1.59454 6.92188L1.59058 6.86987L1.45959 6.72787L1.47858 6.70389L2.02356 5.70688L2.37555 4.71689L2.70654 3.33389L2.94257 2.62888L3.14258 2.16089L3.23059 1.77289L3.55255 1.74588L3.7926 1.78687L4.08057 1.79987L4.31055 1.65387L4.42059 1.21689L4.55157 1.14587L4.61859 1.24988L4.68658 1.13489L4.98755 0.941864L5.1366 0.817871L5.28558 0.664886L5.3656 0.609863L5.31555 0.81488L5.27557 0.948883V1.12387L5.33655 1.21988L5.41956 1.40988L5.47058 1.59988L5.36255 1.75687L5.37256 1.92087L5.40155 2.05887L5.48956 2.21988L5.33154 2.50989L5.1756 2.77588L5.13556 2.93387Z" fill="#CCCCCC" stroke="white" stroke-width="0.5"/>
</svg>
