<svg width="84" height="89" viewBox="0 0 84 89" fill="none" xmlns="http://www.w3.org/2000/svg">
<path d="M73.2007 87.5818L73.0287 87.8128L72.6927 87.1048L72.5487 87.0618L72.5437 86.7248L72.6217 86.5918L73.0107 86.4428L73.1127 86.5258L73.3107 87.1818L73.2007 87.5818ZM72.7617 86.1048L72.4947 86.3708L72.3787 86.2108L72.4267 86.0998L72.5397 86.0388L72.6457 85.9528L72.7617 86.1048ZM71.9447 84.6388L71.7267 84.6418L71.6627 84.5208L71.5707 84.3958L71.6407 84.2748L71.7557 84.2438L71.9187 84.4398L71.9567 84.5788L71.9447 84.6388ZM72.2097 84.1358L72.0777 84.2398L72.0447 84.2258L72.0257 84.1458L72.0207 84.0898L71.9967 83.9888L71.9837 83.8108L72.0887 83.6618L72.1937 83.6928L72.1367 83.8448L72.2097 84.1358ZM14.7627 83.5368L14.7227 83.5718L14.6817 83.5848L14.6537 83.5808L14.6387 83.5458L14.6467 83.5198L14.6827 83.5498L14.7307 83.5218L14.7847 83.4328L14.7977 83.4038L14.8087 83.4198L14.7977 83.4708L14.7627 83.5368ZM71.0977 83.5918L71.1817 83.6968L71.0267 83.6788L70.8827 83.5198L70.9207 83.3708L70.9747 83.3098L71.0977 83.5918ZM70.1057 81.0898L69.9827 81.1058L69.9067 81.0098L69.8977 80.8978L69.9677 80.8248L70.0337 80.7868L70.0997 80.7968L70.1657 80.9858L70.1057 81.0898ZM69.3077 77.0768L69.2227 77.1738L68.9337 77.0978L68.9547 76.8058L68.8867 76.5198L68.9367 76.3998L69.1537 76.1948L69.3297 76.1048L69.4517 76.3818L69.5087 76.6528L69.3077 77.0768ZM13.9567 75.2378L13.9357 75.2558L13.9337 75.2038L13.9597 75.1208L13.9897 75.0658L13.9987 75.0718L13.9907 75.1258L13.9757 75.1988L13.9567 75.2378ZM69.8417 74.7288L69.7047 74.7858L69.5677 74.7148L69.6747 74.5998L69.6927 74.3658L69.8327 74.4958L69.8247 74.6438L69.8417 74.7288ZM70.7517 72.8618L70.8767 73.2538L70.6507 73.0828L70.5777 72.9598L70.6907 72.8768L70.7517 72.8618ZM69.9097 70.4978L69.8207 70.6838L69.8027 70.2858L69.8447 70.2358L69.8897 70.2218L69.9467 70.2588L69.9097 70.4978ZM69.9247 74.2888L69.8627 74.3558L69.7717 74.2808L69.5107 73.7698L69.4657 73.4418L69.3937 73.3278L69.4857 73.1648L69.6007 73.1108L69.6687 72.9268L69.6927 72.6468L69.7937 72.4178L69.8447 72.3538L70.0547 72.3518L70.1077 72.3228L70.0787 72.1038L69.9567 72.0088L69.9137 71.9478L69.9187 71.4228L69.9507 71.2108L70.0267 71.0578L69.9727 70.7418L70.0087 70.6238L70.1597 70.4578L70.2267 70.1038L70.1647 69.9978L70.3087 69.4518L70.3007 69.0858L70.4887 68.7198L70.7827 68.5528L70.8757 68.5488L70.8877 68.8618L70.9157 68.9648L70.7457 69.1498L70.9077 69.3908L70.8867 69.4778L70.8217 69.6688L70.7147 69.8568L70.5657 69.9338L70.4497 70.1838L70.3837 70.2778L70.6047 70.5408L70.6757 71.4328L70.5137 71.6768L70.3207 71.7258L70.3657 72.3198L70.3307 72.4528L70.1397 72.7438L70.1037 72.8708L69.9967 72.9908L70.0417 73.1398L70.1347 73.2048L70.1367 73.3268L70.0507 73.6398L70.0437 73.9968L69.9247 74.2888ZM30.6247 12.7338L30.6177 12.7228L30.4527 12.4778L30.6247 12.7338L30.5327 13.0038L30.5517 13.2178L30.7217 13.4538L30.8597 13.6188L30.7247 13.8408L30.6447 14.0978L30.7347 14.2128L30.6927 14.5818L30.7327 14.6508L30.8277 14.6798L30.9757 14.6548L31.0887 14.8348L30.9867 14.6728L30.9747 14.6548L31.1287 14.5568L31.2597 14.5378L31.3377 14.5658L31.4417 14.2868L31.5337 14.2468L31.7117 14.3238L32.0637 14.8498L32.3617 15.2938L32.4247 15.3548L32.4477 15.3778L32.5007 15.4288L32.7947 15.6588L32.9977 15.8038L33.2747 15.7518L33.6407 15.7418L33.8577 15.8838L33.9827 15.9828L33.9887 15.9968L34.0057 15.9998L34.4457 16.3478L34.6357 16.3218L34.7617 16.4218L34.7977 16.6668L34.7387 16.9218L34.7527 17.0418L34.9487 17.0648L35.3657 17.2328L35.7337 17.3818L35.9247 17.4288L36.1297 17.5388L36.3117 17.7148L36.6667 17.9408L36.9807 18.1138L37.0497 18.3478L36.9257 18.2978L36.7617 18.3238L36.5947 18.4278L36.5157 18.4938L36.1347 18.8968L35.9347 19.0208L35.7557 19.2018L35.3427 19.7468L35.1037 20.2548L34.9297 20.7318L34.9327 21.0688L34.8687 21.4638L34.6907 21.6888L34.5817 21.7648L34.4527 22.1038L34.3597 22.4988L34.4137 22.6268L34.6357 22.7988L34.8517 22.9668L35.1267 23.1488L35.3907 23.3218L35.5607 23.3438L35.6077 23.2458L35.6697 23.1518L35.8637 23.2018L36.0997 23.3708L36.2537 23.5058L36.3217 23.5508L36.7297 23.7778L37.0677 23.9648L37.4957 24.2018L37.5997 24.3468L37.6917 24.5008L37.8937 24.7048L38.3847 25.0658L38.8047 25.3248L39.1467 25.5348L39.4147 25.6818L39.5387 25.6588L39.6747 25.5798L39.7937 25.5348L39.9327 25.5768L40.1427 25.6888L40.6357 26.0308L41.0957 26.2978L41.5967 26.2498L41.7297 26.2928L41.8237 26.5348L41.8867 26.7798L42.4467 26.9418L42.8147 27.0148L43.2357 27.1478L43.4487 27.2468L43.6727 27.1228L43.7137 27.0138L43.8907 26.9498L44.1847 26.9778L44.7327 27.1678L44.9617 27.2248L45.1537 27.0448L45.5107 26.9618L45.6977 26.8678L46.0877 27.0678L46.7917 27.3178L47.1547 27.4738L47.2407 27.6268L47.2797 27.7718L47.2767 28.1238L47.3657 28.2828L48.0717 28.6398L48.3047 28.7908L48.4927 28.8398L48.5987 28.8458L48.6717 28.8908L48.7347 29.0938L48.7847 29.1408L48.9207 29.1908L49.0687 29.2198L49.5277 29.0438L49.8417 28.9108L50.0657 28.9448L50.2107 29.0928L50.2317 29.3088L50.3157 29.5368L50.4757 29.6478L50.6477 29.6598L51.0737 29.5058L51.4167 29.6238L51.7307 29.6668L52.0807 29.7408L52.2167 29.7968L52.5787 29.9848L53.0217 30.1748L53.1927 30.1538L53.9057 29.7998L53.9667 29.8428L54.1117 30.1808L54.3287 30.3018L54.6677 30.4078L55.0217 30.2128L55.3007 30.2688L55.6387 30.2868L55.9627 30.1928L56.2437 30.1688L56.6527 30.3388L56.7427 30.2998L56.8207 30.1908L56.9797 29.7028L57.1207 29.2708L57.1077 29.0128L56.9787 28.6338L56.6477 28.1398L56.6237 27.9898L56.7347 27.1268L56.8577 26.6278L56.9627 26.3918L57.0787 26.0548L57.0997 25.8988L57.0877 25.7578L56.9747 25.6718L56.9447 25.5648L56.9727 25.4748L57.0627 25.4248L57.4387 25.3618L57.8627 25.2268L58.0317 25.1548L58.1587 25.0828L58.2887 24.9688L58.4097 24.9738L58.7897 25.1388L58.9227 25.2428L58.9927 25.5578L59.0497 25.6798L58.9997 25.9998L58.7717 26.7738L58.8167 27.0628L59.0057 27.2738L59.1707 27.4208L59.1437 27.4798L58.8037 27.7288L58.7427 27.8618L58.8177 27.9918L58.9527 28.1018L59.0137 28.2068L59.0767 28.5328L59.2497 28.6248L59.5917 28.8348L59.8927 28.9878L60.4097 28.8858L60.5557 28.9548L60.8097 29.0268L61.0077 29.0488L61.1227 29.1028L61.1867 29.1548L61.1777 29.2208L61.1887 29.2888L61.4717 29.3068L61.6207 29.3458L62.1237 29.2758L62.6287 29.1798L62.8607 28.8888L62.9637 28.8678L63.2537 28.7548L63.5397 28.8788L63.8537 29.0478L64.0237 29.0988L64.3587 29.1258L64.6847 29.1068L65.4647 29.0258L65.8937 29.0678L66.2877 28.8258L66.3687 28.8268L66.5417 29.0138L66.9747 29.0308L67.2047 28.9408L67.4527 28.8718L67.6107 28.8498L67.7377 28.8478L67.8907 28.8658L68.0357 28.8038L68.1017 28.6788L68.0867 28.4898L67.9827 28.2838L67.8917 28.1628L67.8737 28.0988L67.9017 27.9498L67.9817 27.7398L68.1287 27.4998L68.0207 27.2668L67.8697 26.9998L67.7587 26.9738L67.4787 27.0358L67.1757 27.0238L66.9367 26.8628L66.7587 26.6608L66.7157 26.4918L66.7677 26.2848L66.8467 26.0948L66.8637 26.0238H67.0907L67.4047 26.0658L67.6427 26.1188L67.8337 26.1168L68.1807 25.8728L68.3387 25.8578L68.5207 25.8118L68.5997 25.7658L68.6547 25.8018L68.8537 25.8318L69.0607 25.8198L69.2457 25.7528L69.4317 25.6478L69.7617 25.4278L69.8267 25.3018V25.1858L69.7647 25.1088L69.7017 25.0718L69.7267 24.9708L69.8657 24.8008L70.3707 24.5448L70.8007 24.2288L71.0367 23.9918L71.1447 23.7048L71.2817 23.3928L71.4097 23.2698L71.7147 23.1918L72.5687 23.0768L72.8377 22.9508L73.2347 22.7168L73.4347 22.5328L73.5457 22.3838L73.5577 22.2178L73.8217 22.1658L74.0517 21.8968L74.3307 21.6258L74.8217 21.3968L75.2567 21.0888L75.4077 21.1378L75.5657 21.2838L75.6497 21.4448L75.6677 21.5268L76.2237 21.6288L76.3117 21.6128L76.7207 21.7568L77.0977 21.9308L77.3057 21.9738L77.4077 21.9688L77.4947 21.9148L77.5967 21.7618L77.7007 21.6508L77.7657 21.6058L77.7627 21.4298L78.3087 21.0858L78.7987 20.8388L79.2207 20.6588L79.3447 20.7328L79.4817 20.8698L79.6687 21.2188L79.7817 21.3038L80.0677 21.2548L80.1207 21.2938L80.0757 21.4188L79.8817 21.5738L79.6297 21.7128L79.4657 21.8268L79.5197 22.2058L79.5067 22.3358L79.5777 22.3768L80.0957 22.0008L80.3447 21.9268L80.4337 22.0178L80.4607 22.2188L80.6657 22.6328L80.7527 22.8428L80.2317 23.3428L80.0407 23.6008L80.0477 23.6918L80.0377 23.7818L79.9047 23.9098L79.9117 23.9608L80.0187 24.0418L80.1497 24.1028L80.2127 24.1008L80.3207 23.9798L80.8117 23.8088L80.9527 23.8408L81.2987 24.1028L81.4587 24.1178L81.8737 24.1958L82.1397 24.0968L82.3347 24.1878L82.7397 24.5158L82.8327 24.5758L82.7987 24.7748L82.7777 24.9938L82.8807 25.1678L82.8927 25.3218L82.8697 25.4628L82.7887 25.5598L82.5637 25.6138L82.3727 25.7818L82.0687 26.0248L81.8247 26.2188L81.6477 26.3908L81.5837 26.5708L81.6037 26.7978L81.6547 27.0348L82.2207 27.9028L82.2157 28.0528L82.0367 28.0948L81.7987 27.9968L81.5937 27.8568L81.3627 27.4848L81.1767 27.3738L80.9917 27.3498L79.8917 27.5408L79.6587 27.5948L79.2957 27.7338L79.0417 28.0128L78.8567 28.2678L78.6667 28.3708L78.3887 28.5688L77.6177 29.1768L77.1727 29.4388L76.8817 29.5348L76.6777 29.6728L76.5677 29.8968L76.4847 30.0578L76.4607 30.4528L76.5117 30.9388L76.6217 31.2488L76.6807 31.3138L76.6897 31.4048L76.5787 31.5718L76.4327 31.7148L76.3617 31.8028L76.2967 32.2448L76.1677 32.4618L75.9297 32.7808L75.7187 33.0218L75.3877 33.2088L75.2617 33.3598L75.1407 33.6388L75.0697 33.8748L75.0657 33.9598L75.1037 34.0348L75.2417 34.1178L75.4087 34.1978L75.4887 34.3228L75.4997 34.4738L75.3757 34.8368L75.1527 35.3398L74.8977 35.7378L74.6347 36.1168L74.5717 36.2408L74.3357 36.7058L74.1297 37.3448L73.9907 37.7738L73.8707 38.0678L73.7227 38.0808L73.5437 37.9868L73.1067 37.8618L72.8277 37.7608L72.6247 37.6698L72.4837 37.6738L72.2897 37.7328L72.0927 37.7738L71.9757 37.7298L71.7047 37.4648L71.6217 37.4948L71.5687 37.6238L71.7517 38.3798L71.8707 38.6608L71.8507 39.1298L71.8037 39.7048L71.7337 40.3318L71.6867 40.4768L71.5707 40.6428L71.4177 40.6878L71.2787 40.6228L71.1677 40.6378L71.1307 40.7428L71.1627 41.0138L71.0267 41.3238L70.9267 41.5888L70.9527 41.8458L71.0007 42.1068L71.1597 42.6708L71.1607 42.8768L71.1297 43.0618L71.0467 43.1388L70.9037 43.1258L70.8257 43.2018L70.7667 43.3178L70.6057 43.7448L70.4517 43.7898L70.2967 43.7258L70.0647 43.4408L69.9227 43.3578L69.8327 43.3628L69.7927 43.4378L69.7297 43.6078L69.6667 43.7218L69.5117 43.8218L69.4737 43.6118L69.3907 42.5198L69.3277 42.1718L69.2767 41.6888L69.2017 41.5408L69.1057 41.2758L68.9997 41.0468L68.9107 40.9498L68.8537 40.5228L68.8327 39.9998L68.8337 39.7518L68.7087 39.2388L68.5867 38.6568L68.4217 38.6808L68.3237 38.5398L68.2527 38.5428L68.0207 38.6738L67.8357 38.6308L67.6987 38.6488L67.6977 38.9168L67.7207 39.2018L67.6687 39.3048L67.3067 39.6388L67.2057 39.8628L67.2157 40.0978L67.2607 40.4118L67.1967 40.5718L67.0397 40.7188L66.8287 40.7958L66.6427 40.7598L66.5237 40.6318L66.4127 40.3058L66.3137 40.1278L66.2097 40.0858L66.1287 40.1338L66.1177 40.3388L66.1237 40.5078L66.0977 40.5268L66.0397 40.5008L65.9737 40.4178L65.8007 39.5998L65.5537 38.9688L65.5387 38.7268L65.6287 38.4148L65.7397 37.9338L66.0327 37.6338L66.0707 37.5068L66.1187 37.4058L66.1897 37.3858L66.5657 37.4138L66.6917 37.3658L66.8027 37.2238L66.9647 37.1098L67.1267 37.0638L67.2557 37.0468L67.4627 37.1548L67.5487 37.0928L67.6117 36.8928L67.7017 36.6948L67.7597 36.5988L67.8987 36.5558L68.0757 36.5458L68.1347 36.5088L68.1827 36.4418L68.2267 36.1788L68.4527 35.5898L68.5327 35.3278L68.5447 35.2818L68.5377 34.9898L68.6017 34.9478L68.9767 35.0908L69.1407 35.0888L69.2297 35.0298L69.2587 34.9228L69.2107 34.7978L68.9437 34.5788L68.4697 34.2838L68.0347 34.1028L67.2307 34.1298L66.4347 34.1868L66.2017 34.1578L65.9107 34.0758L65.1957 34.0878L64.3317 34.1328L64.0027 34.1078L63.8407 34.1108L63.5157 34.1378L62.9857 34.0538L62.6187 33.9458L62.2937 33.8268L61.9077 33.7198L61.8147 33.7208L61.7607 33.6818L61.7237 33.5868L61.7107 33.4638L61.7907 32.8938L61.7197 32.0278L61.7847 31.7118L61.4687 30.9998L61.3607 30.8678L61.2147 30.8618L61.1217 30.9538L61.0847 31.1208L61.1377 31.3078L61.0217 31.5158L60.7887 31.5828L60.5167 31.5128L60.2907 31.4148L59.9997 31.2028L59.7807 30.9038L59.7617 30.5728L59.6627 30.3598L59.5277 30.2558L59.4287 30.2268L59.3397 30.2498L59.2617 30.3658L59.3297 30.4808L59.4227 30.6428L59.3917 30.7528L59.3087 30.7698L59.1847 30.7228L58.9927 30.7478L58.8067 30.6638L58.6957 30.6568L58.5857 30.6258L58.5787 30.4348L58.4097 30.1928L58.1237 29.9218L57.8427 29.7538L57.7077 29.7768L57.6397 29.9618L57.6557 30.0308L57.7547 30.0648L57.8967 30.1718L57.9267 30.2838L57.9057 30.3818L57.7307 30.5608L57.6067 30.7308L57.3297 30.9778L57.0937 31.2608L57.0317 31.4748L56.9427 31.6668L56.9077 31.8778L56.9697 32.0238L57.0837 32.1158L57.3797 32.1828L57.6897 32.4668L57.9397 32.8498L58.0807 32.9658L58.3367 33.0948L58.8297 33.1098L58.9027 33.2148L58.9727 33.4958L59.0697 33.5948L59.3207 33.7268L59.3417 33.8238L59.2807 33.9358L59.1697 34.0238L58.9647 34.0798L58.7697 34.1018L58.5737 34.0658L58.2827 34.0438L57.9527 34.0418L57.7187 34.7408L57.5517 34.9858H57.4567L57.2017 34.8668L57.0927 34.8858L56.7987 35.5058L56.7577 35.6548L56.7377 35.7668L56.8937 36.0058L57.0807 36.2028L57.3037 36.2798L57.4787 36.2208L57.6207 36.2998L57.7867 36.4978L58.0717 36.6288L58.4747 36.6918L58.7037 36.8478L58.7317 36.9828L58.7117 37.1198L58.6757 37.4758L58.6367 37.6808L58.4197 38.2188L58.2647 38.6818L58.3447 38.9018L58.4027 38.9918L58.4577 39.0608L58.6317 39.2338L58.7527 39.4048L58.6487 39.8418L58.7057 39.9568L58.9387 40.0338L59.1897 40.0928L59.2777 40.1648L59.0597 40.6078L59.1057 40.9158L59.1977 41.2048L59.2637 41.6768L59.2737 41.7268L59.2557 41.8448L59.3987 42.2108L59.6197 42.9238L59.6367 43.1898L59.6237 43.4708L59.5587 43.9398L59.3377 43.9378L59.5347 44.2508L59.5977 44.4758L59.6247 44.7898L59.3877 44.8288L59.2197 44.7938L59.0797 44.5188L59.0147 44.7688L58.7647 44.9998L58.6747 44.8868L58.6227 44.7658L58.6127 44.5518L58.7507 43.7348L58.7227 43.6428L58.6607 43.5818L58.5237 43.5488L58.4727 43.3828L58.2637 44.2548L58.3557 44.6108L58.3137 44.7728L57.9237 44.9088L57.5287 44.5818L57.4787 44.4768L57.4557 44.6608L57.3847 44.8848L57.0147 44.8438L56.8317 44.6688L56.9507 44.3708L57.1797 43.6508L57.2227 43.3298L56.9157 43.0938L56.6557 42.9488L56.5067 42.6208L56.5637 42.9808L56.7027 43.1088L56.9047 43.1988L57.1187 43.3828L56.9647 43.6068L56.8147 43.7458L56.5277 44.2738L56.1777 44.5688L55.7697 44.7908L54.4297 45.1168L54.1487 45.2488L53.7377 45.6548L53.4717 46.0398L53.4227 46.4298L53.5727 46.8508L53.6947 47.5088L53.7967 47.6428L53.6537 47.8828L53.4047 48.1378L53.1987 48.4808L53.2177 48.6688L53.1647 48.7958L52.4587 49.2168L52.3107 49.4628L52.1167 49.7068L51.8847 49.5668L51.7487 49.5688L51.9357 49.7628L51.9117 49.8908L51.8457 49.9658L51.6677 50.0358L50.6477 50.3448L49.8677 50.6378L49.6487 50.6258L49.6887 50.5368L49.8257 50.4578L49.8117 50.1218L49.6687 50.0598L49.5447 50.0358L48.9507 50.4458L48.7107 50.8508L48.7607 50.9278L48.8957 50.9088L49.2947 50.6798L49.4807 50.7448L49.4937 50.8348L48.8877 51.1848L47.6127 52.3168L47.5527 52.5398L47.3867 52.7918L47.1577 53.0288L46.7467 53.6018L45.9587 54.4528L45.7397 54.7698L44.4777 55.4238L44.2477 55.6178L43.7297 56.2538L43.1977 56.7738L42.5767 57.2048L41.4997 57.7538L40.8447 58.2728L40.6397 58.6178L40.6267 58.7408L40.6967 58.9078L40.8167 59.0638L40.8437 59.1878L40.7847 59.4098L40.7527 59.5328L40.5607 59.8368L40.2317 60.0538L39.1667 60.5068L39.0257 60.4928L38.1567 60.4028L37.8317 60.4848L37.6977 60.6968L37.3987 61.5738L37.1127 61.8068L37.0097 62.0178L36.9687 62.1638L36.7967 62.1598L36.6487 62.0948L36.5407 62.1418L36.4167 61.8478L36.2087 61.7878L36.0367 61.7668L35.3027 62.0628L35.0457 62.3008L34.5057 63.4218L34.3717 64.1438L34.4987 64.9398L34.6867 65.5748L34.7237 65.8618L34.7007 66.2338L34.6047 66.4148L34.5367 66.6288L34.6267 67.0698L34.8537 67.6468L34.9087 67.8908L34.9137 68.1418L35.0847 68.7178L34.9697 68.6138L34.8787 68.3708L34.6627 68.0608L34.3977 68.3698L34.5437 68.5918L35.0377 68.8558L35.1837 69.0718L34.8657 70.9928L34.6247 71.6738L34.3287 72.1198L34.1717 72.2918L33.8207 72.9998L33.5767 73.8508L33.5277 74.1778L33.6377 74.5438L33.5127 74.7598L33.3567 74.9248L33.6537 74.8508L33.7557 75.0488L33.7937 75.2538L33.7977 76.4698L33.7647 77.7358L33.5357 77.7878L33.2847 77.8008L33.0627 77.7648L32.9037 77.7158L32.5077 77.7828L32.2947 77.9228L32.1237 78.1548L32.1357 78.5508L31.4017 79.5468L31.2437 79.8788L31.1857 80.1978L31.2807 80.3648L31.4687 80.5358L31.7137 80.6048L32.1867 80.6738L32.4137 80.7648L32.5677 80.9338L32.0107 80.7538L31.3557 80.7178L29.7897 81.1798L29.3777 81.5038L29.1477 81.7848L28.9897 82.4268L28.9627 82.8558L28.7767 83.2128L27.9637 83.7608L27.4497 83.9298L27.2547 84.0758L26.6487 83.8868L25.9877 83.4068L25.7097 83.1488L24.7287 81.9088L24.5497 81.7518L24.3517 81.2208L24.3207 81.0228L24.2657 80.9438L24.1727 80.8898L24.1277 80.8078L23.9067 80.1998L23.8167 79.5658L23.6757 78.8568L23.7937 78.9058L23.9577 79.1388L24.0397 79.4778L24.0497 79.9518L24.1727 80.0068L24.2827 79.9618L23.9677 78.8698L23.6937 78.5988L23.6217 78.5808L23.5447 78.4058L23.5367 78.1858L23.5607 78.0818L23.3417 77.7238L23.2647 77.5108L22.7787 76.4278L22.5597 75.6508L22.2207 74.7858L22.0017 74.4828L21.6607 73.8148L21.3747 73.5038L21.0717 73.0868L20.8337 72.9018L20.7407 72.8048L20.0357 71.3578L19.8187 70.5568L19.6347 70.1788L19.5437 69.8908L19.2967 68.6598L19.2947 68.4398L19.2647 68.1988L19.0887 67.6768L18.7797 67.1118L18.6907 66.7598L18.6917 66.6228L18.4957 66.0728L18.4537 65.8218L18.3217 65.5898L18.1677 65.3768L18.0077 65.2058L17.6307 64.6478L17.4957 64.5118L17.2387 64.1498L17.0557 63.4808L16.8217 63.2188H17.1897L16.9647 62.9708L16.8587 62.8088L16.7407 62.7088L16.9117 62.4588L16.6317 62.4658L16.4837 62.3158L16.2807 61.8458L15.9117 61.3138L15.8487 61.0298L15.5227 60.1348L15.2467 57.9818L14.9937 57.0208L15.0137 56.7448L14.7077 55.9108L14.5587 55.3508L14.4977 54.8758L14.4167 54.5638L14.3437 53.9438L14.2267 53.7478L14.2137 53.6298L14.2917 53.3468L14.5107 52.9098L14.5917 52.6328L14.4967 52.2428L14.2977 52.6528L14.1117 52.7678L14.0227 52.4618L14.0217 52.0498L13.9987 51.9508L14.0477 51.8128L14.5397 51.8758L13.9797 51.6228L13.9137 51.4748L13.8927 51.3638L14.0127 51.1588L13.8087 50.9858L13.7267 50.4558L13.6667 50.3348L13.6437 50.2368L13.7597 49.5038L14.2417 48.0608L14.2777 47.7338L14.2357 47.2688L14.1287 46.8988L14.0827 46.5068L14.0537 46.4058L13.8787 46.3698L13.7127 46.2248L13.5207 45.6428L13.6967 45.4518L13.8327 45.3468L13.6457 45.3908L13.4917 45.3728L13.7837 45.1038L14.0447 44.8978L14.6397 44.6588L14.8927 44.5058L14.5187 44.6438L14.1267 44.6958L13.2947 44.6678L13.4337 44.1238L13.5787 43.9418L13.7357 43.8398L13.5047 43.8708L13.2367 43.8278L13.3227 43.2748L13.5337 43.1548L13.7607 43.1318L14.0427 43.0528L13.7407 42.9618L13.4277 42.9178L13.0507 43.0088L12.7047 42.9418L12.2837 42.9428L12.4517 43.0168L12.6317 43.1848L12.5417 43.4848L12.4567 43.6718L12.2257 43.8008L12.0367 43.9958L11.9837 44.1668L11.8767 44.2868L12.0617 44.3718L12.2517 44.4328L12.3617 44.5718L12.4917 44.7728L12.4847 45.1638L11.9867 46.0828L11.8147 46.2878L10.5677 46.8418L10.0787 47.1428L9.03467 47.5338L8.62872 47.6068L8.17871 47.5288L7.52069 47.2318L6.51672 46.4708L6.25568 46.2198L5.4527 45.2408L4.87372 44.7218L4.43469 44.2388L3.89069 43.7808L3.37769 43.1628L3.26868 42.8808L3.3067 42.5938L3.49768 42.4378L3.72168 42.5008L3.89868 42.7428L4.02368 42.8508L4.12872 42.8948L4.89471 42.5238L5.19171 42.5388L5.39471 42.3528L5.65167 42.3938L6.17572 42.1038L6.39569 42.0858L6.65771 42.0278L7.07971 41.2928L7.39569 40.8248L7.60071 40.7268L7.58868 40.6128L7.53168 40.4638L7.37872 40.5018L7.27167 40.6438L7.19269 40.8158L7.11267 40.9188L6.86469 40.8238L6.69769 40.8398L6.4917 40.8958L5.73871 41.1698L5.42871 41.4158L5.21869 41.4648L4.01569 41.1938L2.83972 40.5718L2.34467 40.1578L2.03168 39.6288L1.71869 38.9978L1.82172 38.8208L2.30768 38.4408L2.72772 38.1418L2.35071 38.2748L1.94269 38.4598L1.74072 38.5888L1.51172 38.8598L1.2077 38.9208L1.08771 38.5188L1.01172 38.1268L1.20569 37.9948L1.34167 37.9118L1.61768 37.8418L1.91968 37.7918L2.19366 37.7938L2.58069 37.7998L2.59167 36.8798L2.62372 36.7988L2.67871 36.7518L2.7417 36.7318L2.79468 36.7458L2.87372 36.8838L2.97272 36.8758L3.0777 36.7958L3.31171 36.8558L3.49969 36.8148L3.6897 36.8688L4.01367 36.8698L4.59869 36.8478L4.92371 36.8548L5.13367 37.0008L5.36371 37.1618L5.61267 37.1848L5.97369 37.1658L6.21869 37.1038L6.34271 36.9538L6.43567 36.8098L6.9707 36.5998L7.53271 36.4288L7.6947 36.4098L7.74567 36.5098L7.7207 36.6768L7.78571 36.8358L8.01172 36.9368L8.17072 36.9618L8.31372 36.9388L8.41968 36.8878L8.64771 36.6378L8.76569 36.5808L8.9187 36.5848L9.0907 36.4648L9.09369 36.3728L8.98468 36.3288L8.89172 36.1968L8.90967 36.0898L8.88269 35.9378L8.90167 35.7938L8.97467 35.6858L9.10272 35.5818L9.02667 35.3668L8.83069 34.9548L8.62567 34.4268L8.40869 33.9868L8.13367 33.6008L7.9917 33.3168L8.00671 32.6898L7.98267 32.5628L7.8877 32.4848L7.76068 32.4418L7.58167 32.5058L7.42072 32.5178L7.07471 32.5038L6.90472 32.4398L6.44269 31.8088L6.38171 31.5608L6.3797 31.3058L6.53271 30.8618L6.57971 30.4478L6.60071 30.0618L6.57568 29.9528L6.48267 29.8228L6.3277 29.7268L5.91272 29.7038L5.41968 29.5758L5.04071 29.3508L4.77667 29.2148L4.70569 29.1258L4.67371 29.0218L4.74268 28.5528L4.86169 28.0238L4.94867 27.8618L5.09869 27.6938L5.20972 27.5798L5.3877 27.4288L5.86871 26.9228L6.29968 26.2258L6.56671 25.7388L6.70569 25.5938L6.84772 25.4698L7.05469 25.3198L7.29468 25.1828L7.53271 25.1888L7.75867 25.3138L7.9267 25.4598L7.9837 25.7828L8.10272 25.9918L8.23071 26.1178L8.4007 26.1788L8.61768 26.1638L9.48669 25.7938L9.78271 25.7188L10.4927 25.6728L10.9797 25.5298L11.4107 25.3798L11.4637 25.1108L11.6297 24.6998L12.1357 24.1638L12.2787 23.9248L12.4317 23.4668L12.5947 23.0488L12.7357 22.8748L13.5317 22.4148L14.3107 21.9918L14.4387 21.7998L14.9427 20.9198L15.2307 20.3208L15.3057 20.1278L15.4727 19.6068L15.6537 19.0868L15.8937 18.9658L16.4287 18.7678L16.8527 18.5738L17.0707 18.3518L17.2017 18.1578L17.1777 17.9658L17.0607 17.7378L17.0847 17.6018L17.1057 17.4678L17.4147 17.1948L17.9937 16.3858L18.3417 15.9808H18.4567L18.8197 15.7648L19.1647 15.5208L19.1447 15.4098L19.1017 15.2658L18.9037 15.2018L18.8407 15.0288L18.8897 14.7808L19.0557 14.1138L19.0217 13.9218L18.8197 13.3018L18.8647 13.1308L18.9477 12.9548L19.1737 12.7208L19.4647 12.5258L20.3967 12.0638L20.5857 12.0128L20.9087 11.8958L21.1067 11.6488L21.1307 11.4378L21.0437 11.3068L20.8507 11.1308L20.4877 10.9718L20.1597 10.8328L19.6027 10.8478L19.3137 10.7288L19.2347 10.6458L19.1947 10.3518L19.2507 9.85379L19.1637 9.80978L19.0397 9.86877L18.7457 9.80978L18.3847 9.81677L18.2467 9.6778L18.3147 9.51077L18.2937 9.28778L18.2397 9.07578L18.1837 9.0318L18.0107 8.98077L17.7417 8.79678L17.5247 8.56979L17.3977 8.41577L17.3587 8.30978L17.3707 8.23978L17.5287 8.04279L17.7167 7.76578L17.7857 7.5278L17.8067 7.3548L17.7537 7.22778L17.5807 7.07178L17.3957 6.93478L17.3217 6.8158L17.3187 6.63577L17.3877 6.4108L17.6047 6.24078L17.9897 6.07977L18.0897 5.87979L18.0767 5.73178L17.9717 5.68777L17.7007 5.6868L17.2447 5.63577L17.1677 5.55377L17.1157 5.44379L17.1147 5.33478L17.2117 5.21078L17.3277 5.05377L17.3067 4.90079L17.1727 4.72778L16.8517 4.60178L16.8077 4.42279L16.8577 4.27377L16.9637 4.06079L17.0567 3.91278L17.2757 3.49078L17.5417 3.39877L17.8677 3.26178L18.2277 3.11078L18.7827 3.22379L19.0527 3.27979L19.5987 3.40878L20.0567 3.51678L20.5247 3.54779L20.7187 3.53979L20.9327 3.66779L21.4617 3.88678L21.8917 4.0018L22.1827 4.00079L22.6117 3.80679L22.8257 3.62878L23.1137 3.43378L23.4827 3.44177L24.2807 3.14078L24.4297 3.19278L24.6667 3.20978L24.9527 3.0358L25.0997 2.82977L25.1227 2.7258L25.1937 2.64978L25.4997 2.5188L25.8067 2.33679L25.8897 2.09677L25.9407 1.93378L26.2767 1.72379L26.6267 1.50479L26.9927 1.27579L27.4087 1.0148L27.7607 0.793793L28.0487 0.612793L28.0807 0.651794L28.1937 0.733795L28.3157 0.773773L28.4587 0.696777L28.6377 0.632782L28.7317 0.668793L28.7447 0.772797L28.6377 1.26077L28.6467 1.45178L28.8257 1.84879L29.0577 2.49179L29.2757 3.09378L29.4037 3.48779L29.5307 3.64877L30.0597 3.81378L30.4957 3.94879L30.7547 4.1698L31.0407 4.38177L31.2407 4.51178L31.3357 4.67877L31.3557 4.8288L31.3377 4.92978L31.2287 5.06277L30.7267 5.40479L30.6667 5.51279L30.6517 5.65479L30.7507 6.07779L30.8127 6.34277L30.8307 6.87479L30.8637 7.37979L31.0417 7.60977L31.1877 7.75778L31.2767 7.89178L31.4567 8.07678L31.6077 8.21378L31.7367 8.2948L31.7997 8.4758L31.7627 8.68878L31.7087 8.87378L31.7257 8.97379L31.8297 9.0448L31.9887 9.2298L32.0097 9.49979L31.9987 9.68579L32.0617 9.85278L32.0787 10.0378L32.0297 10.4988L32.0377 10.7068L31.8987 10.7198L31.7797 10.7908L31.6107 11.0808L31.4157 11.1568L31.1947 11.1798L30.9667 11.0018L30.7797 10.8158L30.7287 10.7128L30.6817 10.5168L30.5807 10.3888L30.3867 10.4488L30.0917 10.4758L29.7727 10.5188L29.7137 10.5618L29.7077 10.6448L29.7857 10.8208L29.8517 11.0498L29.8917 11.3698L29.9777 11.5818L30.0047 11.6488L30.5157 12.2848L30.6497 12.4138L30.6777 12.4988L30.6247 12.7338Z" fill="#CCCCCC"/>
<path d="M30.6247 12.7338L30.6177 12.7228L30.4527 12.4778L30.6247 12.7338ZM30.6247 12.7338L30.5327 13.0038L30.5517 13.2178L30.7217 13.4538L30.8597 13.6188L30.7247 13.8408L30.6447 14.0978L30.7347 14.2128L30.6927 14.5818L30.7327 14.6508L30.8277 14.6798L30.9757 14.6548L31.0887 14.8348L30.9867 14.6728L30.9747 14.6548L31.1287 14.5568L31.2597 14.5378L31.3377 14.5658L31.4417 14.2868L31.5337 14.2468L31.7117 14.3238L32.0637 14.8498L32.3617 15.2938L32.4247 15.3548L32.4477 15.3778L32.5007 15.4288L32.7947 15.6588L32.9977 15.8038L33.2747 15.7518L33.6407 15.7418L33.8577 15.8838L33.9827 15.9828L33.9887 15.9968L34.0057 15.9998L34.4457 16.3478L34.6357 16.3218L34.7617 16.4218L34.7977 16.6668L34.7387 16.9218L34.7527 17.0418L34.9487 17.0648L35.3657 17.2328L35.7337 17.3818L35.9247 17.4288L36.1297 17.5388L36.3117 17.7148L36.6667 17.9408L36.9807 18.1138L37.0497 18.3478L36.9257 18.2978L36.7617 18.3238L36.5947 18.4278L36.5157 18.4938L36.1347 18.8968L35.9347 19.0208L35.7557 19.2018L35.3427 19.7468L35.1037 20.2548L34.9297 20.7318L34.9327 21.0688L34.8687 21.4638L34.6907 21.6888L34.5817 21.7648L34.4527 22.1038L34.3597 22.4988L34.4137 22.6268L34.6357 22.7988L34.8517 22.9668L35.1267 23.1488L35.3907 23.3218L35.5607 23.3438L35.6077 23.2458L35.6697 23.1518L35.8637 23.2018L36.0997 23.3708L36.2537 23.5058L36.3217 23.5508L36.7297 23.7778L37.0677 23.9648L37.4957 24.2018L37.5997 24.3468L37.6917 24.5008L37.8937 24.7048L38.3847 25.0658L38.8047 25.3248L39.1467 25.5348L39.4147 25.6818L39.5387 25.6588L39.6747 25.5798L39.7937 25.5348L39.9327 25.5768L40.1427 25.6888L40.6357 26.0308L41.0957 26.2978L41.5967 26.2498L41.7297 26.2928L41.8237 26.5348L41.8867 26.7798L42.4467 26.9418L42.8147 27.0148L43.2357 27.1478L43.4487 27.2468L43.6727 27.1228L43.7137 27.0138L43.8907 26.9498L44.1847 26.9778L44.7327 27.1678L44.9617 27.2248L45.1537 27.0448L45.5107 26.9618L45.6977 26.8678L46.0877 27.0678L46.7917 27.3178L47.1547 27.4738L47.2407 27.6268L47.2797 27.7718L47.2767 28.1238L47.3657 28.2828L48.0717 28.6398L48.3047 28.7908L48.4927 28.8398L48.5987 28.8458L48.6717 28.8908L48.7347 29.0938L48.7847 29.1408L48.9207 29.1908L49.0687 29.2198L49.5277 29.0438L49.8417 28.9108L50.0657 28.9448L50.2107 29.0928L50.2317 29.3088L50.3157 29.5368L50.4757 29.6478L50.6477 29.6598L51.0737 29.5058L51.4167 29.6238L51.7307 29.6668L52.0807 29.7408L52.2167 29.7968L52.5787 29.9848L53.0217 30.1748L53.1927 30.1538L53.9057 29.7998L53.9667 29.8428L54.1117 30.1808L54.3287 30.3018L54.6677 30.4078L55.0217 30.2128L55.3007 30.2688L55.6387 30.2868L55.9627 30.1928L56.2437 30.1688L56.6527 30.3388L56.7427 30.2998L56.8207 30.1908L56.9797 29.7028L57.1207 29.2708L57.1077 29.0128L56.9787 28.6338L56.6477 28.1398L56.6237 27.9898L56.7347 27.1268L56.8577 26.6278L56.9627 26.3918L57.0787 26.0548L57.0997 25.8988L57.0877 25.7578L56.9747 25.6718L56.9447 25.5648L56.9727 25.4748L57.0627 25.4248L57.4387 25.3618L57.8627 25.2268L58.0317 25.1548L58.1587 25.0828L58.2887 24.9688L58.4097 24.9738L58.7897 25.1388L58.9227 25.2428L58.9927 25.5578L59.0497 25.6798L58.9997 25.9998L58.7717 26.7738L58.8167 27.0628L59.0057 27.2738L59.1707 27.4208L59.1437 27.4798L58.8037 27.7288L58.7427 27.8618L58.8177 27.9918L58.9527 28.1018L59.0137 28.2068L59.0767 28.5328L59.2497 28.6248L59.5917 28.8348L59.8927 28.9878L60.4097 28.8858L60.5557 28.9548L60.8097 29.0268L61.0077 29.0488L61.1227 29.1028L61.1867 29.1548L61.1777 29.2208L61.1887 29.2888L61.4717 29.3068L61.6207 29.3458L62.1237 29.2758L62.6287 29.1798L62.8607 28.8888L62.9637 28.8678L63.2537 28.7548L63.5397 28.8788L63.8537 29.0478L64.0237 29.0988L64.3587 29.1258L64.6847 29.1068L65.4647 29.0258L65.8937 29.0678L66.2877 28.8258L66.3687 28.8268L66.5417 29.0138L66.9747 29.0308L67.2047 28.9408L67.4527 28.8718L67.6107 28.8498L67.7377 28.8478L67.8907 28.8658L68.0357 28.8038L68.1017 28.6788L68.0867 28.4898L67.9827 28.2838L67.8917 28.1628L67.8737 28.0988L67.9017 27.9498L67.9817 27.7398L68.1287 27.4998L68.0207 27.2668L67.8697 26.9998L67.7587 26.9738L67.4787 27.0358L67.1757 27.0238L66.9367 26.8628L66.7587 26.6608L66.7157 26.4918L66.7677 26.2848L66.8467 26.0948L66.8637 26.0238H67.0907L67.4047 26.0658L67.6427 26.1188L67.8337 26.1168L68.1807 25.8728L68.3387 25.8578L68.5207 25.8118L68.5997 25.7658L68.6547 25.8018L68.8537 25.8318L69.0607 25.8198L69.2457 25.7528L69.4317 25.6478L69.7617 25.4278L69.8267 25.3018V25.1858L69.7647 25.1088L69.7017 25.0718L69.7267 24.9708L69.8657 24.8008L70.3707 24.5448L70.8007 24.2288L71.0367 23.9918L71.1447 23.7048L71.2817 23.3928L71.4097 23.2698L71.7147 23.1918L72.5687 23.0768L72.8377 22.9508L73.2347 22.7168L73.4347 22.5328L73.5457 22.3838L73.5577 22.2178L73.8217 22.1658L74.0517 21.8968L74.3307 21.6258L74.8217 21.3968L75.2567 21.0888L75.4077 21.1378L75.5657 21.2838L75.6497 21.4448L75.6677 21.5268L76.2237 21.6288L76.3117 21.6128L76.7207 21.7568L77.0977 21.9308L77.3057 21.9738L77.4077 21.9688L77.4947 21.9148L77.5967 21.7618L77.7007 21.6508L77.7657 21.6058L77.7627 21.4298L78.3087 21.0858L78.7987 20.8388L79.2207 20.6588L79.3447 20.7328L79.4817 20.8698L79.6687 21.2188L79.7817 21.3038L80.0677 21.2548L80.1207 21.2938L80.0757 21.4188L79.8817 21.5738L79.6297 21.7128L79.4657 21.8268L79.5197 22.2058L79.5067 22.3358L79.5777 22.3768L80.0957 22.0008L80.3447 21.9268L80.4337 22.0178L80.4607 22.2188L80.6657 22.6328L80.7527 22.8428L80.2317 23.3428L80.0407 23.6008L80.0477 23.6918L80.0377 23.7818L79.9047 23.9098L79.9117 23.9608L80.0187 24.0418L80.1497 24.1028L80.2127 24.1008L80.3207 23.9798L80.8117 23.8088L80.9527 23.8408L81.2987 24.1028L81.4587 24.1178L81.8737 24.1958L82.1397 24.0968L82.3347 24.1878L82.7397 24.5158L82.8327 24.5758L82.7987 24.7748L82.7777 24.9938L82.8807 25.1678L82.8927 25.3218L82.8697 25.4628L82.7887 25.5598L82.5637 25.6138L82.3727 25.7818L82.0687 26.0248L81.8247 26.2188L81.6477 26.3908L81.5837 26.5708L81.6037 26.7978L81.6547 27.0348L82.2207 27.9028L82.2157 28.0528L82.0367 28.0948L81.7987 27.9968L81.5937 27.8568L81.3627 27.4848L81.1767 27.3738L80.9917 27.3498L79.8917 27.5408L79.6587 27.5948L79.2957 27.7338L79.0417 28.0128L78.8567 28.2678L78.6667 28.3708L78.3887 28.5688L77.6177 29.1768L77.1727 29.4388L76.8817 29.5348L76.6777 29.6728L76.5677 29.8968L76.4847 30.0578L76.4607 30.4528L76.5117 30.9388L76.6217 31.2488L76.6807 31.3138L76.6897 31.4048L76.5787 31.5718L76.4327 31.7148L76.3617 31.8028L76.2967 32.2448L76.1677 32.4618L75.9297 32.7808L75.7187 33.0218L75.3877 33.2088L75.2617 33.3598L75.1407 33.6388L75.0697 33.8748L75.0657 33.9598L75.1037 34.0348L75.2417 34.1178L75.4087 34.1978L75.4887 34.3228L75.4997 34.4738L75.3757 34.8368L75.1527 35.3398L74.8977 35.7378L74.6347 36.1168L74.5717 36.2408L74.3357 36.7058L74.1297 37.3448L73.9907 37.7738L73.8707 38.0678L73.7227 38.0808L73.5437 37.9868L73.1067 37.8618L72.8277 37.7608L72.6247 37.6698L72.4837 37.6738L72.2897 37.7328L72.0927 37.7738L71.9757 37.7298L71.7047 37.4648L71.6217 37.4948L71.5687 37.6238L71.7517 38.3798L71.8707 38.6608L71.8507 39.1298L71.8037 39.7048L71.7337 40.3318L71.6867 40.4768L71.5707 40.6428L71.4177 40.6878L71.2787 40.6228L71.1677 40.6378L71.1307 40.7428L71.1627 41.0138L71.0267 41.3238L70.9267 41.5888L70.9527 41.8458L71.0007 42.1068L71.1597 42.6708L71.1607 42.8768L71.1297 43.0618L71.0467 43.1388L70.9037 43.1258L70.8257 43.2018L70.7667 43.3178L70.6057 43.7448L70.4517 43.7898L70.2967 43.7258L70.0647 43.4408L69.9227 43.3578L69.8327 43.3628L69.7927 43.4378L69.7297 43.6078L69.6667 43.7218L69.5117 43.8218L69.4737 43.6118L69.3907 42.5198L69.3277 42.1718L69.2767 41.6888L69.2017 41.5408L69.1057 41.2758L68.9997 41.0468L68.9107 40.9498L68.8537 40.5228L68.8327 39.9998L68.8337 39.7518L68.7087 39.2388L68.5867 38.6568L68.4217 38.6808L68.3237 38.5398L68.2527 38.5428L68.0207 38.6738L67.8357 38.6308L67.6987 38.6488L67.6977 38.9168L67.7207 39.2018L67.6687 39.3048L67.3067 39.6388L67.2057 39.8628L67.2157 40.0978L67.2607 40.4118L67.1967 40.5718L67.0397 40.7188L66.8287 40.7958L66.6427 40.7598L66.5237 40.6318L66.4127 40.3058L66.3137 40.1278L66.2097 40.0858L66.1287 40.1338L66.1177 40.3388L66.1237 40.5078L66.0977 40.5268L66.0397 40.5008L65.9737 40.4178L65.8007 39.5998L65.5537 38.9688L65.5387 38.7268L65.6287 38.4148L65.7397 37.9338L66.0327 37.6338L66.0707 37.5068L66.1187 37.4058L66.1897 37.3858L66.5657 37.4138L66.6917 37.3658L66.8027 37.2238L66.9647 37.1098L67.1267 37.0638L67.2557 37.0468L67.4627 37.1548L67.5487 37.0928L67.6117 36.8928L67.7017 36.6948L67.7597 36.5988L67.8987 36.5558L68.0757 36.5458L68.1347 36.5088L68.1827 36.4418L68.2267 36.1788L68.4527 35.5898L68.5327 35.3278L68.5447 35.2818L68.5377 34.9898L68.6017 34.9478L68.9767 35.0908L69.1407 35.0888L69.2297 35.0298L69.2587 34.9228L69.2107 34.7978L68.9437 34.5788L68.4697 34.2838L68.0347 34.1028L67.2307 34.1298L66.4347 34.1868L66.2017 34.1578L65.9107 34.0758L65.1957 34.0878L64.3317 34.1328L64.0027 34.1078L63.8407 34.1108L63.5157 34.1378L62.9857 34.0538L62.6187 33.9458L62.2937 33.8268L61.9077 33.7198L61.8147 33.7208L61.7607 33.6818L61.7237 33.5868L61.7107 33.4638L61.7907 32.8938L61.7197 32.0278L61.7847 31.7118L61.4687 30.9998L61.3607 30.8678L61.2147 30.8618L61.1217 30.9538L61.0847 31.1208L61.1377 31.3078L61.0217 31.5158L60.7887 31.5828L60.5167 31.5128L60.2907 31.4148L59.9997 31.2028L59.7807 30.9038L59.7617 30.5728L59.6627 30.3598L59.5277 30.2558L59.4287 30.2268L59.3397 30.2498L59.2617 30.3658L59.3297 30.4808L59.4227 30.6428L59.3917 30.7528L59.3087 30.7698L59.1847 30.7228L58.9927 30.7478L58.8067 30.6638L58.6957 30.6568L58.5857 30.6258L58.5787 30.4348L58.4097 30.1928L58.1237 29.9218L57.8427 29.7538L57.7077 29.7768L57.6397 29.9618L57.6557 30.0308L57.7547 30.0648L57.8967 30.1718L57.9267 30.2838L57.9057 30.3818L57.7307 30.5608L57.6067 30.7308L57.3297 30.9778L57.0937 31.2608L57.0317 31.4748L56.9427 31.6668L56.9077 31.8778L56.9697 32.0238L57.0837 32.1158L57.3797 32.1828L57.6897 32.4668L57.9397 32.8498L58.0807 32.9658L58.3367 33.0948L58.8297 33.1098L58.9027 33.2148L58.9727 33.4958L59.0697 33.5948L59.3207 33.7268L59.3417 33.8238L59.2807 33.9358L59.1697 34.0238L58.9647 34.0798L58.7697 34.1018L58.5737 34.0658L58.2827 34.0438L57.9527 34.0418L57.7187 34.7408L57.5517 34.9858H57.4567L57.2017 34.8668L57.0927 34.8858L56.7987 35.5058L56.7577 35.6548L56.7377 35.7668L56.8937 36.0058L57.0807 36.2028L57.3037 36.2798L57.4787 36.2208L57.6207 36.2998L57.7867 36.4978L58.0717 36.6288L58.4747 36.6918L58.7037 36.8478L58.7317 36.9828L58.7117 37.1198L58.6757 37.4758L58.6367 37.6808L58.4197 38.2188L58.2647 38.6818L58.3447 38.9018L58.4027 38.9918L58.4577 39.0608L58.6317 39.2338L58.7527 39.4048L58.6487 39.8418L58.7057 39.9568L58.9387 40.0338L59.1897 40.0928L59.2777 40.1648L59.0597 40.6078L59.1057 40.9158L59.1977 41.2048L59.2637 41.6768L59.2737 41.7268L59.2557 41.8448L59.3987 42.2108L59.6197 42.9238L59.6367 43.1898L59.6237 43.4708L59.5587 43.9398L59.3377 43.9378L59.5347 44.2508L59.5977 44.4758L59.6247 44.7898L59.3877 44.8288L59.2197 44.7938L59.0797 44.5188L59.0147 44.7688L58.7647 44.9998L58.6747 44.8868L58.6227 44.7658L58.6127 44.5518L58.7507 43.7348L58.7227 43.6428L58.6607 43.5818L58.5237 43.5488L58.4727 43.3828L58.2637 44.2548L58.3557 44.6108L58.3137 44.7728L57.9237 44.9088L57.5287 44.5818L57.4787 44.4768L57.4557 44.6608L57.3847 44.8848L57.0147 44.8438L56.8317 44.6688L56.9507 44.3708L57.1797 43.6508L57.2227 43.3298L56.9157 43.0938L56.6557 42.9488L56.5067 42.6208L56.5637 42.9808L56.7027 43.1088L56.9047 43.1988L57.1187 43.3828L56.9647 43.6068L56.8147 43.7458L56.5277 44.2738L56.1777 44.5688L55.7697 44.7908L54.4297 45.1168L54.1487 45.2488L53.7377 45.6548L53.4717 46.0398L53.4227 46.4298L53.5727 46.8508L53.6947 47.5088L53.7967 47.6428L53.6537 47.8828L53.4047 48.1378L53.1987 48.4808L53.2177 48.6688L53.1647 48.7958L52.4587 49.2168L52.3107 49.4628L52.1167 49.7068L51.8847 49.5668L51.7487 49.5688L51.9357 49.7628L51.9117 49.8908L51.8457 49.9658L51.6677 50.0358L50.6477 50.3448L49.8677 50.6378L49.6487 50.6258L49.6887 50.5368L49.8257 50.4578L49.8117 50.1218L49.6687 50.0598L49.5447 50.0358L48.9507 50.4458L48.7107 50.8508L48.7607 50.9278L48.8957 50.9088L49.2947 50.6798L49.4807 50.7448L49.4937 50.8348L48.8877 51.1848L47.6127 52.3168L47.5527 52.5398L47.3867 52.7918L47.1577 53.0288L46.7467 53.6018L45.9587 54.4528L45.7397 54.7698L44.4777 55.4238L44.2477 55.6178L43.7297 56.2538L43.1977 56.7738L42.5767 57.2048L41.4997 57.7538L40.8447 58.2728L40.6397 58.6178L40.6267 58.7408L40.6967 58.9078L40.8167 59.0638L40.8437 59.1878L40.7847 59.4098L40.7527 59.5328L40.5607 59.8368L40.2317 60.0538L39.1667 60.5068L39.0257 60.4928L38.1567 60.4028L37.8317 60.4848L37.6977 60.6968L37.3987 61.5738L37.1127 61.8068L37.0097 62.0178L36.9687 62.1638L36.7967 62.1598L36.6487 62.0948L36.5407 62.1418L36.4167 61.8478L36.2087 61.7878L36.0367 61.7668L35.3027 62.0628L35.0457 62.3008L34.5057 63.4218L34.3717 64.1438L34.4987 64.9398L34.6867 65.5748L34.7237 65.8618L34.7007 66.2338L34.6047 66.4148L34.5367 66.6288L34.6267 67.0698L34.8537 67.6468L34.9087 67.8908L34.9137 68.1418L35.0847 68.7178L34.9697 68.6138L34.8787 68.3708L34.6627 68.0608L34.3977 68.3698L34.5437 68.5918L35.0377 68.8558L35.1837 69.0718L34.8657 70.9928L34.6247 71.6738L34.3287 72.1198L34.1717 72.2918L33.8207 72.9998L33.5767 73.8508L33.5277 74.1778L33.6377 74.5438L33.5127 74.7598L33.3567 74.9248L33.6537 74.8508L33.7557 75.0488L33.7937 75.2538L33.7977 76.4698L33.7647 77.7358L33.5357 77.7878L33.2847 77.8008L33.0627 77.7648L32.9037 77.7158L32.5077 77.7828L32.2947 77.9228L32.1237 78.1548L32.1357 78.5508L31.4017 79.5468L31.2437 79.8788L31.1857 80.1978L31.2807 80.3648L31.4687 80.5358L31.7137 80.6048L32.1867 80.6738L32.4137 80.7648L32.5677 80.9338L32.0107 80.7538L31.3557 80.7178L29.7897 81.1798L29.3777 81.5038L29.1477 81.7848L28.9897 82.4268L28.9627 82.8558L28.7767 83.2128L27.9637 83.7608L27.4497 83.9298L27.2547 84.0758L26.6487 83.8868L25.9877 83.4068L25.7097 83.1488L24.7287 81.9088L24.5497 81.7518L24.3517 81.2208L24.3207 81.0228L24.2657 80.9438L24.1727 80.8898L24.1277 80.8078L23.9067 80.1998L23.8167 79.5658L23.6757 78.8568L23.7937 78.9058L23.9577 79.1388L24.0397 79.4778L24.0497 79.9518L24.1727 80.0068L24.2827 79.9618L23.9677 78.8698L23.6937 78.5988L23.6217 78.5808L23.5447 78.4058L23.5367 78.1858L23.5607 78.0818L23.3417 77.7238L23.2647 77.5108L22.7787 76.4278L22.5597 75.6508L22.2207 74.7858L22.0017 74.4828L21.6607 73.8148L21.3747 73.5038L21.0717 73.0868L20.8337 72.9018L20.7407 72.8048L20.0357 71.3578L19.8187 70.5568L19.6347 70.1788L19.5437 69.8908L19.2967 68.6598L19.2947 68.4398L19.2647 68.1988L19.0887 67.6768L18.7797 67.1118L18.6907 66.7598L18.6917 66.6228L18.4957 66.0728L18.4537 65.8218L18.3217 65.5898L18.1677 65.3768L18.0077 65.2058L17.6307 64.6478L17.4957 64.5118L17.2387 64.1498L17.0557 63.4808L16.8217 63.2188H17.1897L16.9647 62.9708L16.8587 62.8088L16.7407 62.7088L16.9117 62.4588L16.6317 62.4658L16.4837 62.3158L16.2807 61.8458L15.9117 61.3138L15.8487 61.0298L15.5227 60.1348L15.2467 57.9818L14.9937 57.0208L15.0137 56.7448L14.7077 55.9108L14.5587 55.3508L14.4977 54.8758L14.4167 54.5638L14.3437 53.9438L14.2267 53.7478L14.2137 53.6298L14.2917 53.3468L14.5107 52.9098L14.5917 52.6328L14.4967 52.2428L14.2977 52.6528L14.1117 52.7678L14.0227 52.4618L14.0217 52.0498L13.9987 51.9508L14.0477 51.8128L14.5397 51.8758L13.9797 51.6228L13.9137 51.4748L13.8927 51.3638L14.0127 51.1588L13.8087 50.9858L13.7267 50.4558L13.6667 50.3348L13.6437 50.2368L13.7597 49.5038L14.2417 48.0608L14.2777 47.7338L14.2357 47.2688L14.1287 46.8988L14.0827 46.5068L14.0537 46.4058L13.8787 46.3698L13.7127 46.2248L13.5207 45.6428L13.6967 45.4518L13.8327 45.3468L13.6457 45.3908L13.4917 45.3728L13.7837 45.1038L14.0447 44.8978L14.6397 44.6588L14.8927 44.5058L14.5187 44.6438L14.1267 44.6958L13.2947 44.6678L13.4337 44.1238L13.5787 43.9418L13.7357 43.8398L13.5047 43.8708L13.2367 43.8278L13.3227 43.2748L13.5337 43.1548L13.7607 43.1318L14.0427 43.0528L13.7407 42.9618L13.4277 42.9178L13.0507 43.0088L12.7047 42.9418L12.2837 42.9428L12.4517 43.0168L12.6317 43.1848L12.5417 43.4848L12.4567 43.6718L12.2257 43.8008L12.0367 43.9958L11.9837 44.1668L11.8767 44.2868L12.0617 44.3718L12.2517 44.4328L12.3617 44.5718L12.4917 44.7728L12.4847 45.1638L11.9867 46.0828L11.8147 46.2878L10.5677 46.8418L10.0787 47.1428L9.03467 47.5338L8.62872 47.6068L8.17871 47.5288L7.52069 47.2318L6.51672 46.4708L6.25568 46.2198L5.4527 45.2408L4.87372 44.7218L4.43469 44.2388L3.89069 43.7808L3.37769 43.1628L3.26868 42.8808L3.3067 42.5938L3.49768 42.4378L3.72168 42.5008L3.89868 42.7428L4.02368 42.8508L4.12872 42.8948L4.89471 42.5238L5.19171 42.5388L5.39471 42.3528L5.65167 42.3938L6.17572 42.1038L6.39569 42.0858L6.65771 42.0278L7.07971 41.2928L7.39569 40.8248L7.60071 40.7268L7.58868 40.6128L7.53168 40.4638L7.37872 40.5018L7.27167 40.6438L7.19269 40.8158L7.11267 40.9188L6.86469 40.8238L6.69769 40.8398L6.4917 40.8958L5.73871 41.1698L5.42871 41.4158L5.21869 41.4648L4.01569 41.1938L2.83972 40.5718L2.34467 40.1578L2.03168 39.6288L1.71869 38.9978L1.82172 38.8208L2.30768 38.4408L2.72772 38.1418L2.35071 38.2748L1.94269 38.4598L1.74072 38.5888L1.51172 38.8598L1.2077 38.9208L1.08771 38.5188L1.01172 38.1268L1.20569 37.9948L1.34167 37.9118L1.61768 37.8418L1.91968 37.7918L2.19366 37.7938L2.58069 37.7998L2.59167 36.8798L2.62372 36.7988L2.67871 36.7518L2.7417 36.7318L2.79468 36.7458L2.87372 36.8838L2.97272 36.8758L3.0777 36.7958L3.31171 36.8558L3.49969 36.8148L3.6897 36.8688L4.01367 36.8698L4.59869 36.8478L4.92371 36.8548L5.13367 37.0008L5.36371 37.1618L5.61267 37.1848L5.97369 37.1658L6.21869 37.1038L6.34271 36.9538L6.43567 36.8098L6.9707 36.5998L7.53271 36.4288L7.6947 36.4098L7.74567 36.5098L7.7207 36.6768L7.78571 36.8358L8.01172 36.9368L8.17072 36.9618L8.31372 36.9388L8.41968 36.8878L8.64771 36.6378L8.76569 36.5808L8.9187 36.5848L9.0907 36.4648L9.09369 36.3728L8.98468 36.3288L8.89172 36.1968L8.90967 36.0898L8.88269 35.9378L8.90167 35.7938L8.97467 35.6858L9.10272 35.5818L9.02667 35.3668L8.83069 34.9548L8.62567 34.4268L8.40869 33.9868L8.13367 33.6008L7.9917 33.3168L8.00671 32.6898L7.98267 32.5628L7.8877 32.4848L7.76068 32.4418L7.58167 32.5058L7.42072 32.5178L7.07471 32.5038L6.90472 32.4398L6.44269 31.8088L6.38171 31.5608L6.3797 31.3058L6.53271 30.8618L6.57971 30.4478L6.60071 30.0618L6.57568 29.9528L6.48267 29.8228L6.3277 29.7268L5.91272 29.7038L5.41968 29.5758L5.04071 29.3508L4.77667 29.2148L4.70569 29.1258L4.67371 29.0218L4.74268 28.5528L4.86169 28.0238L4.94867 27.8618L5.09869 27.6938L5.20972 27.5798L5.3877 27.4288L5.86871 26.9228L6.29968 26.2258L6.56671 25.7388L6.70569 25.5938L6.84772 25.4698L7.05469 25.3198L7.29468 25.1828L7.53271 25.1888L7.75867 25.3138L7.9267 25.4598L7.9837 25.7828L8.10272 25.9918L8.23071 26.1178L8.4007 26.1788L8.61768 26.1638L9.48669 25.7938L9.78271 25.7188L10.4927 25.6728L10.9797 25.5298L11.4107 25.3798L11.4637 25.1108L11.6297 24.6998L12.1357 24.1638L12.2787 23.9248L12.4317 23.4668L12.5947 23.0488L12.7357 22.8748L13.5317 22.4148L14.3107 21.9918L14.4387 21.7998L14.9427 20.9198L15.2307 20.3208L15.3057 20.1278L15.4727 19.6068L15.6537 19.0868L15.8937 18.9658L16.4287 18.7678L16.8527 18.5738L17.0707 18.3518L17.2017 18.1578L17.1777 17.9658L17.0607 17.7378L17.0847 17.6018L17.1057 17.4678L17.4147 17.1948L17.9937 16.3858L18.3417 15.9808H18.4567L18.8197 15.7648L19.1647 15.5208L19.1447 15.4098L19.1017 15.2658L18.9037 15.2018L18.8407 15.0288L18.8897 14.7808L19.0557 14.1138L19.0217 13.9218L18.8197 13.3018L18.8647 13.1308L18.9477 12.9548L19.1737 12.7208L19.4647 12.5258L20.3967 12.0638L20.5857 12.0128L20.9087 11.8958L21.1067 11.6488L21.1307 11.4378L21.0437 11.3068L20.8507 11.1308L20.4877 10.9718L20.1597 10.8328L19.6027 10.8478L19.3137 10.7288L19.2347 10.6458L19.1947 10.3518L19.2507 9.85379L19.1637 9.80978L19.0397 9.86877L18.7457 9.80978L18.3847 9.81677L18.2467 9.6778L18.3147 9.51077L18.2937 9.28778L18.2397 9.07578L18.1837 9.0318L18.0107 8.98077L17.7417 8.79678L17.5247 8.56979L17.3977 8.41577L17.3587 8.30978L17.3707 8.23978L17.5287 8.04279L17.7167 7.76578L17.7857 7.5278L17.8067 7.3548L17.7537 7.22778L17.5807 7.07178L17.3957 6.93478L17.3217 6.8158L17.3187 6.63577L17.3877 6.4108L17.6047 6.24078L17.9897 6.07977L18.0897 5.87979L18.0767 5.73178L17.9717 5.68777L17.7007 5.6868L17.2447 5.63577L17.1677 5.55377L17.1157 5.44379L17.1147 5.33478L17.2117 5.21078L17.3277 5.05377L17.3067 4.90079L17.1727 4.72778L16.8517 4.60178L16.8077 4.42279L16.8577 4.27377L16.9637 4.06079L17.0567 3.91278L17.2757 3.49078L17.5417 3.39877L17.8677 3.26178L18.2277 3.11078L18.7827 3.22379L19.0527 3.27979L19.5987 3.40878L20.0567 3.51678L20.5247 3.54779L20.7187 3.53979L20.9327 3.66779L21.4617 3.88678L21.8917 4.0018L22.1827 4.00079L22.6117 3.80679L22.8257 3.62878L23.1137 3.43378L23.4827 3.44177L24.2807 3.14078L24.4297 3.19278L24.6667 3.20978L24.9527 3.0358L25.0997 2.82977L25.1227 2.7258L25.1937 2.64978L25.4997 2.5188L25.8067 2.33679L25.8897 2.09677L25.9407 1.93378L26.2767 1.72379L26.6267 1.50479L26.9927 1.27579L27.4087 1.0148L27.7607 0.793793L28.0487 0.612793L28.0807 0.651794L28.1937 0.733795L28.3157 0.773773L28.4587 0.696777L28.6377 0.632782L28.7317 0.668793L28.7447 0.772797L28.6377 1.26077L28.6467 1.45178L28.8257 1.84879L29.0577 2.49179L29.2757 3.09378L29.4037 3.48779L29.5307 3.64877L30.0597 3.81378L30.4957 3.94879L30.7547 4.1698L31.0407 4.38177L31.2407 4.51178L31.3357 4.67877L31.3557 4.8288L31.3377 4.92978L31.2287 5.06277L30.7267 5.40479L30.6667 5.51279L30.6517 5.65479L30.7507 6.07779L30.8127 6.34277L30.8307 6.87479L30.8637 7.37979L31.0417 7.60977L31.1877 7.75778L31.2767 7.89178L31.4567 8.07678L31.6077 8.21378L31.7367 8.2948L31.7997 8.4758L31.7627 8.68878L31.7087 8.87378L31.7257 8.97379L31.8297 9.0448L31.9887 9.2298L32.0097 9.49979L31.9987 9.68579L32.0617 9.85278L32.0787 10.0378L32.0297 10.4988L32.0377 10.7068L31.8987 10.7198L31.7797 10.7908L31.6107 11.0808L31.4157 11.1568L31.1947 11.1798L30.9667 11.0018L30.7797 10.8158L30.7287 10.7128L30.6817 10.5168L30.5807 10.3888L30.3867 10.4488L30.0917 10.4758L29.7727 10.5188L29.7137 10.5618L29.7077 10.6448L29.7857 10.8208L29.8517 11.0498L29.8917 11.3698L29.9777 11.5818L30.0047 11.6488L30.5157 12.2848L30.6497 12.4138L30.6777 12.4988L30.6247 12.7338ZM73.2007 87.5818L73.0287 87.8128L72.6927 87.1048L72.5487 87.0618L72.5437 86.7248L72.6217 86.5918L73.0107 86.4428L73.1127 86.5258L73.3107 87.1818L73.2007 87.5818ZM72.7617 86.1048L72.4947 86.3708L72.3787 86.2108L72.4267 86.0998L72.5397 86.0388L72.6457 85.9528L72.7617 86.1048ZM71.9447 84.6388L71.7267 84.6418L71.6627 84.5208L71.5707 84.3958L71.6407 84.2748L71.7557 84.2438L71.9187 84.4398L71.9567 84.5788L71.9447 84.6388ZM72.2097 84.1358L72.0777 84.2398L72.0447 84.2258L72.0257 84.1458L72.0207 84.0898L71.9967 83.9888L71.9837 83.8108L72.0887 83.6618L72.1937 83.6928L72.1367 83.8448L72.2097 84.1358ZM14.7627 83.5368L14.7227 83.5718L14.6817 83.5848L14.6537 83.5808L14.6387 83.5458L14.6467 83.5198L14.6827 83.5498L14.7307 83.5218L14.7847 83.4328L14.7977 83.4038L14.8087 83.4198L14.7977 83.4708L14.7627 83.5368ZM71.0977 83.5918L71.1817 83.6968L71.0267 83.6788L70.8827 83.5198L70.9207 83.3708L70.9747 83.3098L71.0977 83.5918ZM70.1057 81.0898L69.9827 81.1058L69.9067 81.0098L69.8977 80.8978L69.9677 80.8248L70.0337 80.7868L70.0997 80.7968L70.1657 80.9858L70.1057 81.0898ZM69.3077 77.0768L69.2227 77.1738L68.9337 77.0978L68.9547 76.8058L68.8867 76.5198L68.9367 76.3998L69.1537 76.1948L69.3297 76.1048L69.4517 76.3818L69.5087 76.6528L69.3077 77.0768ZM13.9567 75.2378L13.9357 75.2558L13.9337 75.2038L13.9597 75.1208L13.9897 75.0658L13.9987 75.0718L13.9907 75.1258L13.9757 75.1988L13.9567 75.2378ZM69.8417 74.7288L69.7047 74.7858L69.5677 74.7148L69.6747 74.5998L69.6927 74.3658L69.8327 74.4958L69.8247 74.6438L69.8417 74.7288ZM70.7517 72.8618L70.8767 73.2538L70.6507 73.0828L70.5777 72.9598L70.6907 72.8768L70.7517 72.8618ZM69.9097 70.4978L69.8207 70.6838L69.8027 70.2858L69.8447 70.2358L69.8897 70.2218L69.9467 70.2588L69.9097 70.4978ZM69.9247 74.2888L69.8627 74.3558L69.7717 74.2808L69.5107 73.7698L69.4657 73.4418L69.3937 73.3278L69.4857 73.1648L69.6007 73.1108L69.6687 72.9268L69.6927 72.6468L69.7937 72.4178L69.8447 72.3538L70.0547 72.3518L70.1077 72.3228L70.0787 72.1038L69.9567 72.0088L69.9137 71.9478L69.9187 71.4228L69.9507 71.2108L70.0267 71.0578L69.9727 70.7418L70.0087 70.6238L70.1597 70.4578L70.2267 70.1038L70.1647 69.9978L70.3087 69.4518L70.3007 69.0858L70.4887 68.7198L70.7827 68.5528L70.8757 68.5488L70.8877 68.8618L70.9157 68.9648L70.7457 69.1498L70.9077 69.3908L70.8867 69.4778L70.8217 69.6688L70.7147 69.8568L70.5657 69.9338L70.4497 70.1838L70.3837 70.2778L70.6047 70.5408L70.6757 71.4328L70.5137 71.6768L70.3207 71.7258L70.3657 72.3198L70.3307 72.4528L70.1397 72.7438L70.1037 72.8708L69.9967 72.9908L70.0417 73.1398L70.1347 73.2048L70.1367 73.3268L70.0507 73.6398L70.0437 73.9968L69.9247 74.2888Z" stroke="white" stroke-width="0.5"/>
</svg>
