<svg width="29" height="30" viewBox="0 0 29 30" fill="none" xmlns="http://www.w3.org/2000/svg">
<path d="M17.3326 1.90509V1.93109L17.4256 2.18008L17.6566 3.1051L17.7886 3.22208L17.9386 3.3201L18.0446 3.45709L18.0865 3.59509L18.0735 3.80908L18.0786 4.0571L18.1406 4.2471L18.2266 4.39108L18.3066 4.4631L18.4266 4.47009L18.5706 4.5051L18.6676 4.6481L18.9766 5.6911L19.0056 5.82709L19.1356 5.87109L19.3486 5.8511L19.5676 5.95911L19.8016 6.12711L20.0215 6.44409L20.1696 6.49509L20.6335 6.44809L21.2676 6.49908L21.5646 6.66208L21.5345 6.76309L21.3056 6.87509L20.9026 7.00708L20.7836 7.2301L20.7166 7.5191L20.7286 7.68109L20.8276 7.8591L21.1116 8.2131L21.1276 8.34109L21.1786 8.5191L21.2316 8.64108L21.1725 8.8761L20.9146 9.03909L20.5756 9.21509L19.8946 9.99908L19.8436 10.1681L19.8476 10.6301L19.7796 10.7621L19.5646 10.7601L19.3965 10.7361L19.3876 10.8971L19.2806 11.1131L19.2195 11.3001L19.4695 11.7411L19.5146 11.9751L19.4745 12.1881L19.2426 12.5541L19.1056 12.8001L19.1385 12.8551L19.3196 12.9531L19.8816 13.7561L20.0626 14.0381L20.3006 13.9641L20.3896 13.9691L20.4586 14.0141L20.5016 14.1091V14.2291L20.4416 14.4091L20.7446 14.4821L20.8536 14.6641L21.2065 15.2861L21.1935 15.4711L21.0246 15.7641L21.0226 15.9581L21.0586 16.1321L21.1136 16.1931L21.6346 16.2181L21.8556 16.2881L22.3965 16.6041L23.0126 17.0891L23.5156 17.4861L23.9446 17.8231L24.4046 17.7991L24.5296 17.8601L24.6456 17.9651L24.7776 18.2421L25.0406 18.8671L25.2646 19.0741L25.6096 19.5731L25.9336 20.0401L25.7206 20.6741L25.5116 21.3321V22.1781V22.6321L25.9516 22.6511L26.4406 22.6731L26.4446 23.2141L26.4485 23.7571L26.4526 24.3751L26.5966 24.4011L26.8246 24.5341L26.9225 24.7341L27.0446 24.8431L27.1935 24.8611L27.3396 24.9591L27.4846 25.1381L27.5376 25.2721L27.4986 25.3651L27.5296 25.5271L27.6306 25.7591L27.7536 25.8681L27.9446 26.0021L27.6855 26.0791L27.4056 26.0201L26.8086 25.7491L26.6146 25.7411L26.3616 25.8441L26.3506 25.9361L25.7195 25.6331L25.4926 25.5721L25.4106 25.5661L25.0486 25.5691L24.5336 25.6241L24.2306 25.7471L24.0206 25.8771L23.9246 26.0051L23.8906 26.0741L23.7266 26.4511L23.5366 26.9341L23.3396 27.3681L22.9565 27.9781L22.7446 28.2591L22.2896 28.7811L21.7975 28.8861L20.6566 28.7831L19.3916 28.6681L18.1326 28.5551L17.1956 28.4701L17.1236 28.4421L16.1966 27.6961L15.4646 27.1051L14.5496 26.3661L13.6156 25.6091L12.6676 24.8401L11.9786 24.2801L11.1426 23.5581L10.3816 22.8991L9.78058 22.3771L9.00958 21.9211L8.40759 21.5631L7.5296 21.0421L6.82855 20.6251L6.2276 20.2671L5.30255 19.7151L4.99554 19.5651L4.03656 19.3801L3.12756 19.2241L2.18658 19.0621L1.56055 18.9541L1.97357 18.5601L1.84656 18.2061L1.54559 18.2711L1.26855 18.3551L1.10059 17.8041L1.31458 17.7351L1.11658 17.0141L0.913574 16.2701L0.71759 15.5491L0.516602 14.8101L1.31158 14.3351L1.90558 13.9801L2.73657 13.4821L3.5376 13.0011L4.3006 12.5421L5.1416 12.0351L5.89355 11.5811L6.58258 11.3961L6.72858 11.2531L7.0426 10.6311L7.31158 10.0991L7.32458 9.9761L7.32556 9.21909L7.37256 8.32809L7.46155 7.8511L7.61658 7.4281L7.75854 7.11908L7.77356 6.83008L7.75458 6.5361L7.60754 6.09109L7.45459 5.6261L7.47156 5.1781L7.49957 4.93808L7.59558 4.5531L7.75958 4.27109L7.93555 4.09708L8.5896 3.91708L8.97858 3.81009L9.4986 3.31009L9.80756 3.01208L10.2375 2.5401L10.5546 2.19208L10.5796 2.07111V2.02408L10.8516 1.95309L11.3546 1.53009L11.6516 1.1351L11.7455 1.1001L12.0106 1.2291L12.2006 1.26511L12.6376 1.11508L12.8976 1.19409L13.1166 1.2941L13.2386 1.30109L13.8256 1.54709L13.9726 1.57709L14.2746 1.60709L14.7256 1.62109L15.0166 1.46008L15.2216 1.30508L15.3656 1.30908L15.5056 1.3461L15.6236 1.41208L15.7226 1.52811L15.7696 1.69409L15.7505 2.22308L15.7946 2.36209L15.8746 2.4621L15.9756 2.48108L16.0986 2.36609L16.3126 2.1991L16.5766 2.01709L16.7726 1.8501L16.8856 1.78708L17.0626 1.79608L17.2356 1.8251L17.3326 1.90509Z" fill="#CCCCCC" stroke="white" stroke-width="0.5"/>
</svg>
