<svg width="56" height="50" viewBox="0 0 56 50" fill="none" xmlns="http://www.w3.org/2000/svg">
<path d="M3.4787 0.958984L3.53772 1.03696L3.99268 1.78198L4.19269 2.00098L4.30969 2.18698L4.38867 2.39398L4.52771 2.53397L4.71167 2.60995L4.93469 2.80997L5.08569 2.96597L5.33868 3.28897L5.60669 3.40897L6.57971 3.64197L7.12067 3.74997L7.27667 3.78098L7.69067 3.62497L8.17572 3.64597L8.35571 3.65396L8.9967 2.99597L9.19171 2.77597L9.57367 2.66196L9.7887 2.39896L10.1337 2.08096L10.5547 1.78098L10.9417 1.51096L11.2377 1.34796L11.7737 0.965973L12.1087 0.833984L12.3997 0.837982L12.8357 1.28598L13.2027 1.69296L13.3157 1.87097L13.1337 2.03098L12.7937 2.18497L12.7287 2.29797L12.7057 2.44296L12.7187 2.58096L12.7647 2.69397L13.1817 2.95496L13.2287 3.09897L13.2317 3.24496L13.1847 3.33597L13.0917 3.38898L12.8017 3.46198L12.5527 3.54697L12.4667 3.62997L12.3917 3.72897L12.4027 3.83896L12.4777 3.96396L12.9867 4.30396L13.0447 4.42896L13.1457 4.59695L13.2707 4.69998L13.4827 4.72797L13.5847 4.79697L14.0767 5.42297L14.1967 5.46698L14.7717 5.32898L14.8517 5.33496L14.8567 5.48798L14.9427 6.37396L15.0087 6.83096L15.1077 7.27396L15.2627 7.67798L15.4467 8.06097L15.7007 8.29697L16.2647 8.58096L16.5387 8.66296L17.2597 8.71997L17.9717 8.84497L18.3917 8.97797L18.5207 9.07196L18.6267 9.21597L18.9747 9.88397L19.5227 10.359L20.6287 11.07L21.1647 11.306L22.9707 11.752L24.1727 11.727L27.4947 10.866L28.5987 10.651H29.0137L28.7667 10.822L28.3517 10.92L28.6017 11.041L28.9887 11.061L29.1677 11.041L29.2977 10.932L29.3187 10.751L29.2997 10.572L29.1167 9.76898L29.0107 9.20096L29.7897 9.23996L30.0927 9.16595L30.5387 8.97598L30.8767 8.86096L31.0467 8.84497L31.2147 8.75598L31.3437 8.64398L31.6337 7.86496L31.7787 7.66898L32.2707 7.22897L32.6887 6.94998L33.1267 6.70197L33.6817 6.52896L34.4187 6.54697L35.0057 6.60797L35.3457 6.60498L35.5067 6.62296L35.6277 6.59796L35.6977 6.54697L35.7737 6.20496L35.8937 6.09296L36.1007 5.99698H36.3907L36.7447 5.97195L37.0387 5.99496L37.4087 6.12598L37.8917 6.13696L38.2137 6.11398L38.4007 6.24496L38.5357 6.41998L38.6007 6.56598L38.6157 6.76596L38.6127 6.91797L38.6637 6.97696L38.8597 7.06796L39.1327 7.13596L39.6637 7.21796L40.1627 7.37598L40.4217 7.48297L40.7817 7.64996L41.2107 8.06497L41.3697 8.12997L41.5617 8.17197L41.6987 8.16098L42.0207 7.98596L42.3007 8.11496L42.4427 8.09796L42.7647 8.00198L43.1067 8.12198L43.9587 8.57596L44.0527 8.56598L44.1297 8.61197L44.2007 8.71597L44.2507 8.84396L44.3137 9.23398L44.5597 9.51898L44.8607 9.77798L45.2117 9.91998L45.9447 10.259L46.2647 10.534L46.5887 11L46.9887 11.613L47.0467 11.669L48.0747 11.65L49.2307 11.651L49.3717 11.896L49.3457 12.381L49.3867 12.878L49.4907 13.221L49.4917 13.537L49.4087 13.697L49.3437 13.88L49.3247 13.96L49.4727 14.074L49.6027 14.336L49.6217 14.701L49.5577 14.894L49.5667 15.054L49.6317 15.19L49.6877 15.417L49.6777 15.554L49.5847 15.69L49.5287 15.86L49.4547 16.075L49.4277 16.245L49.2877 16.324L49.1767 16.381L49.1957 16.596L49.2517 16.777L49.3167 16.991L49.2427 17.138L49.1957 17.307L49.0927 17.578L49.1207 17.803L49.0097 17.994L48.8697 18.163L48.7767 18.298L48.7577 18.489L48.6557 18.556L48.4607 18.713L48.3407 18.825L48.1637 18.859L48.1267 18.949L48.1547 19.038L48.2287 19.094L48.3437 19.288L48.5837 19.622L47.8917 19.664L47.6887 19.959L47.4517 20.381L47.5677 21.233L47.4517 21.67L47.5217 21.915L47.6987 22.084L47.9257 22.178L48.3517 22.184L48.6337 22.25L48.6617 22.363L48.4997 22.528L48.2407 22.837L48.1027 22.972L47.6617 23.592L47.6657 23.856L47.7067 24.069L47.8967 24.736L48.0827 25.381L48.4157 26.541L48.4097 26.81L48.3057 27.406L48.2987 27.768L48.3457 28.237L48.3107 28.479L48.3927 29.021L48.4857 29.06L49.2067 29.165L49.8677 29.262L50.7487 29.39L51.0157 29.707L51.1817 30.402L51.1717 30.921L51.0967 31.186L50.4667 31.941L49.8267 32.705L49.1877 33.466L48.5257 34.253L48.4567 34.336L48.9917 34.964L49.3227 35.352L49.7897 35.897L49.8487 36.028L49.8447 36.242L50.3237 37.07L50.4927 37.501L50.6447 37.754L51.0237 38.149L51.3937 38.534L51.7947 38.71L52.0687 38.749L52.6927 38.952L52.9207 39.114L53.2867 39.522L53.7167 39.466H53.8057L53.8297 39.495L53.8427 39.626L53.7797 40.259L53.8987 40.896L53.9817 41.853L53.9507 42.018L53.8477 42.294L53.8427 42.471L53.8157 42.58L53.8437 42.628L53.9807 42.693L54.2727 42.728L54.9777 42.621L55.0597 42.648L55.2287 42.761L55.3557 42.938L55.3667 43.022L55.1887 43.169L55.1597 43.418L55.2127 43.791L55.1887 43.836L55.0327 43.92L54.9817 44.458L54.9537 44.507L54.7717 44.562L53.9117 44.525L53.8137 44.54L53.4907 44.682L52.9367 44.784L52.7847 44.842L52.5807 45.004L52.4337 45.201L52.4057 45.383L52.3767 45.421L52.0597 45.384L51.9557 45.542L51.3407 45.778L51.2647 45.829L51.1737 46.017L51.0917 46.544L51.0177 47.017L50.9707 47.086L50.7767 47.248L50.7577 47.303L50.7837 47.486L50.6957 47.819L50.6267 48.742L50.5497 49L50.3967 49.021L50.2767 49.15L50.0567 49.309L49.5817 49.186L49.2047 49.057L47.9567 48.754L47.8197 48.607L47.7417 48.348L47.5257 48.275L47.2157 48.663L46.1617 48.439L45.8037 48.508L45.5827 48.387L45.0147 48.38L44.5667 48.138L43.9237 48.304L43.4157 48.336L42.7187 47.912L41.9697 47.795L41.3617 47.831L41.0487 47.798L40.5417 47.646L40.3017 47.489L39.9067 47.609L39.7287 47.386L38.6117 47.179L38.4047 46.784L38.2497 46.417L38.2377 46.039L37.9657 45.377L37.8747 44.414L37.7737 44.037L37.6227 43.709L37.4217 43.43L37.1487 43.131L36.9107 43.012L35.8667 42.784L35.6657 42.814L35.1987 42.963L34.7017 43.294L33.8857 43.482L33.7217 43.624L33.5167 43.944L33.2507 44.13L32.8867 44.082L32.4947 44.271L31.7677 44.798L31.3847 44.959L31.0637 44.947L30.7187 44.697L29.9477 44.361L29.4487 44.249L28.7567 44.326L28.4287 44.27L27.8717 43.875L27.7257 43.588L27.4077 43.396L26.3997 42.965L25.5837 42.395L25.4337 42.179L25.3337 41.86L24.9787 41.472L24.1817 41.155L23.7297 40.817L23.1997 40.741L22.7067 40.752L22.4897 40.691L22.2927 40.546L21.6197 39.846L21.6117 39.569L21.1967 38.883L21.0997 38.638L21.0107 37.957L20.8957 37.779L20.4627 37.498L20.3957 37.314L20.4877 37.069V36.883L20.2627 36.708L19.9247 36.615L19.8427 36.405L19.9047 35.996L19.8537 35.739L19.5557 35.328L19.1157 34.907L18.6767 34.283L18.5047 34.127L18.3927 33.718L18.2317 33.232L17.9837 33.197L16.7817 33.78L16.4307 33.452L15.3767 32.882L15.3037 32.796L15.2297 32.665L15.3627 32.589L15.4947 32.558L15.7597 32.66L15.9187 32.54L15.8557 32.346L15.5907 32.226L15.2307 32.235L15.3297 32.417L14.9927 32.589L14.9207 32.814L14.9697 33.093L14.9987 33.483L14.8617 33.671L14.7557 33.758L14.3027 33.781L14.0907 33.953L13.9537 33.994L13.7627 33.86L13.6397 33.751L13.5387 33.519L13.5077 33.357L13.5467 33.265L13.4937 33.13L13.3487 32.951L13.2027 32.853L13.0547 32.835L12.9317 32.726L12.8337 32.526L12.6047 32.394L12.4607 32.368L12.4567 31.749L12.4527 31.206L12.4487 30.665L11.9597 30.643L11.5197 30.624V30.17V29.323L11.7287 28.665L11.9417 28.031L11.6177 27.564L11.2727 27.065L11.0487 26.857L10.7857 26.232L10.6547 25.955L10.5387 25.85L10.4137 25.789L9.95471 25.813L9.5257 25.476L9.02271 25.08L8.40771 24.595L7.86572 24.278L7.64471 24.208L7.12372 24.184L7.06866 24.123L7.03271 23.949L7.03369 23.755L7.2027 23.462L7.2157 23.277L6.86267 22.655L6.75372 22.473L6.45172 22.4L6.51172 22.22V22.1L6.46869 22.005L6.39868 21.96L6.30969 21.955L6.07269 22.029L5.89172 21.747L5.32867 20.944L5.14771 20.846L5.11469 20.791L5.25171 20.544L5.4837 20.178L5.52368 19.966L5.47968 19.732L5.22968 19.291L5.29071 19.104L5.39771 18.889L5.40668 18.727L5.57471 18.751L5.78967 18.753L5.85767 18.621L5.8537 18.159L5.90472 17.99L6.58667 17.206L6.92572 17.03L7.18372 16.868L7.24268 16.632L7.1897 16.51L7.13867 16.332L7.12268 16.204L6.83868 15.85L6.73969 15.672L6.72772 15.509L6.79468 15.221L6.9137 14.997L7.31671 14.865L7.54572 14.753L7.57672 14.652L7.27972 14.489L6.64569 14.438L6.1817 14.485L6.03369 14.434L5.81372 14.118L5.57971 13.95L5.36072 13.842L5.14771 13.862L5.01868 13.819L4.98871 13.683L4.68073 12.64L4.58368 12.497L4.4397 12.462L4.31866 12.455L4.23871 12.383L4.15271 12.239L4.0907 12.05L4.08667 11.801L4.09967 11.587L4.05768 11.449L3.95172 11.312L3.8017 11.213L3.66968 11.097L3.43872 10.172L3.3457 9.92297V9.89697L3.34967 9.84796L3.32672 9.63498L3.43372 9.44998L3.4267 9.37698L3.20471 9.14297L2.8927 8.90897L2.80872 8.86798L2.8067 8.61798L2.81769 8.42896L2.78967 8.25797L2.72968 8.15997L2.72772 8.08298L2.85272 7.89896L2.77167 7.77798L2.31268 7.47897L2.14069 7.32898L1.82269 7.29898L1.78967 7.19998L1.83972 6.99097L1.94867 6.73697L2.12067 6.48697L2.17572 6.35498L2.24268 6.12997L2.26569 5.96997L2.45868 5.74496L2.45972 5.68597L2.4057 5.60498L2.25171 5.55997L2.09369 5.54095L2.03467 5.49997L2.01367 5.37897L2.03369 4.88696L1.9837 4.59097L1.9187 4.37598L1.95972 3.89096L1.84967 3.79297L1.6767 3.53796L1.60272 3.32196L1.6427 3.24097L1.67969 3.09897L1.70367 2.91196L1.69672 2.77997L1.53772 2.65097L1.41968 2.51498L1.4057 2.36496L1.3587 2.18097L1.29169 2.03497L1.26172 1.93997L1.3197 1.88397L1.54468 1.83997L1.8717 1.87097L2.13867 1.87296L2.28967 1.77896L2.47668 0.891968L2.64771 0.657959L2.8457 0.521973L3.23267 0.837982L3.3927 0.948975L3.4787 0.958984ZM35.3907 43.66L35.1287 44.035L34.7337 44.348L34.5657 44.251L34.4347 44.255L34.1527 44.375L33.9497 44.396L33.5807 44.609L33.2447 44.716L33.0117 44.708L32.9307 44.686L32.8847 44.541L32.8887 44.483L33.0307 44.513L33.5497 44.319L34.1967 44.001L34.2587 43.859L34.1547 43.628L34.1827 43.576L34.6027 43.694L35.0717 43.464L35.4637 43.401L35.6477 43.561L35.3907 43.66Z" fill="#CCCCCC" stroke="white" stroke-width="0.5"/>
</svg>
