<svg width="32" height="22" viewBox="0 0 32 22" fill="none" xmlns="http://www.w3.org/2000/svg">
<path d="M26.0778 3.06686L26.3998 3.09286L26.9258 2.85387L27.1458 2.69687L27.6868 2.15186L28.0058 1.99986L28.4988 2.03786L28.7358 1.99986L28.7418 2.05286L28.4388 2.27386L28.1968 2.34987L27.8488 2.67886L27.5178 3.41887L27.2728 3.78087L27.2748 3.94186L27.5728 4.22687L27.8998 4.38786L28.1998 4.24187L28.3308 4.29886L28.4488 4.50986L28.5158 4.71886L28.5308 4.92586L28.4768 5.35786L28.2968 5.79086L28.0528 6.15286L28.0868 6.26686L28.2828 6.32486L29.2118 6.09087L29.3088 6.10786L29.3618 6.22487L29.3728 6.44086L29.4238 6.63586L29.5158 6.81087L29.4868 6.98886L29.0798 7.55186L29.5608 7.19786L29.9398 7.09787L30.5898 7.27586L30.8558 7.47986L31.0108 7.83887L31.2358 7.71986L31.3338 7.72687L31.4808 7.93086L31.4858 8.14886L31.3778 8.45786L31.3408 8.74387L31.2278 8.86086L31.0168 8.94586L30.9568 9.04086L31.0498 9.25786L31.1868 9.46986L31.3808 9.47887L31.4158 9.57686L31.4198 9.69386L31.3938 9.83186L31.3308 9.92586L31.2298 9.97786L31.0968 10.1289L31.5848 10.4589L31.6468 10.5819L31.6538 10.7609L31.6158 10.9579L31.5328 11.1719L31.3858 11.2979L31.0338 11.3189L30.8178 11.4579L30.8918 11.6879L30.8858 11.9789L30.8208 12.3219L30.5438 12.8389L30.2838 13.1139L30.0288 13.2919L29.5748 13.2289L29.3278 13.0919L29.3548 13.5369L29.1028 13.8099L29.1498 14.0379L29.2378 14.1539L29.1948 14.4459L29.0748 14.7349L28.8738 15.0469L28.6458 15.2419L28.1928 15.4769L27.8058 15.8659L27.5418 16.0199L26.8838 16.0129L26.2128 16.2629L25.2648 16.7889L24.6258 17.2089L24.1328 17.6839L23.4818 18.4559L22.9988 18.7799L22.7198 18.8669L22.1768 18.9359L21.7218 19.1449L20.2108 19.5349L19.6998 19.7479L19.6338 19.9409L19.4218 20.2319L19.4088 20.3369L19.5008 20.4179L19.5188 20.5229L19.3318 20.8659L18.9578 21.1129L18.7818 21.1089L18.5678 20.8959L18.4748 20.9039L18.4378 20.9369L18.4358 21.0029L18.5588 21.2589L18.3328 21.3769L17.3488 21.6749L15.6738 21.4549L15.0108 21.2259L14.1918 20.8599L13.7048 20.7629L13.0138 20.7389L12.4458 20.2269L12.1828 19.9099L12.1618 19.7779L12.1918 19.6269L12.2508 19.5239L12.3388 19.4689L12.5258 19.4629L12.5508 19.4179L12.4078 19.1629L12.2708 19.2459L11.9058 19.6059L11.7428 19.5929L11.5288 19.4129L11.5208 19.2379L11.1038 19.1709L10.7408 18.9519L10.3798 18.6369L10.3258 18.5169L10.4998 18.3399L10.4658 18.3059L10.3348 18.2759L10.0718 18.3339L9.67477 18.7329L9.50378 18.8249L6.9108 18.9179L6.25278 18.9589L6.12579 19.0199L6.01178 18.7609L5.90979 18.1809L5.8718 17.7979L5.8978 17.6119L5.9888 17.3889L6.12979 17.4269L6.26379 17.6039L6.38577 17.8549L6.52478 17.9769L7.42978 17.6709L7.79779 17.4649L7.9538 17.2699L8.13779 16.9359L8.33279 16.7649L8.42578 16.6039L8.6088 16.0909L8.73477 15.8529L8.88678 15.6759L9.06277 15.5619L9.4628 15.4809L9.1998 15.3599H8.94778L8.09378 15.9029H7.80679L7.81879 15.8179L7.93979 15.6649L8.2338 15.3999L8.0318 15.3799L7.95477 15.2599L7.9458 15.0069L8.09579 14.5979L8.79178 14.0579L9.03278 13.9779L9.10577 13.8709L9.0148 13.7839L8.86877 13.7309L8.16879 14.2879L7.65878 14.4799L7.50778 14.4429L7.24377 14.2279L7.15878 14.1309L7.0448 13.8839L7.05878 13.7349L7.30078 13.2969L7.26178 13.2119L7.09479 13.1689L6.64578 12.7649L5.93579 12.8059L4.17679 12.5709L3.81277 12.6709L3.21378 13.0179L2.85178 13.1319L2.68478 13.0569L2.53278 12.8729L2.39478 12.6259L2.27078 12.3129L2.32379 12.0959L2.55579 11.9719L2.7258 11.9129L3.20477 11.9879L3.78879 11.7689L4.1608 11.7229L4.26779 11.6879L4.48679 11.4549L4.59479 11.3959L4.76279 11.4779L4.84479 11.6359L5.43179 11.3899L5.63379 11.2669L5.6568 11.1899L5.74478 11.1019L6.03677 11.2349L6.27377 11.2389L6.56879 11.1469L7.09079 11.1069L8.2598 11.0859L8.43478 10.8849L8.51678 10.7069L8.61978 10.2539L8.57379 10.1609L7.84479 10.5779L7.6778 10.5709L6.83279 10.3499L6.5278 10.0999L6.62778 9.89886L7.07578 9.46486L7.53778 9.11687L8.21777 8.73886L8.3768 8.59186L8.3938 8.41687L7.93979 8.10587L7.08279 8.19186L6.86279 7.82286L6.14978 7.60387L5.67578 7.74086L5.4238 7.51686L4.8078 7.82686L3.4538 8.27386L2.91479 8.58286L2.62479 8.68587L2.29077 8.43387L1.71478 8.14886L1.06677 8.05986L1.00879 7.89186L1.38678 7.37686L1.64578 7.28287L1.90579 7.33086L2.4028 7.68987L2.74579 7.80286L2.3158 7.27486L2.32678 7.07187L2.29379 6.76686L2.16177 6.63586L2.02979 6.29787L2.0838 6.18387L2.25278 6.14287L2.59879 6.25786L3.42178 6.84386L3.82578 6.73987L4.04678 6.52386L4.34979 6.36386L4.26379 6.28087L3.5528 6.27086L3.17178 6.15086L2.9798 5.97887L2.81277 5.68587L2.8718 5.55086L3.06979 5.44286L3.67679 5.47487L3.27679 4.96387L2.99878 4.66986L2.96878 4.52786L2.98779 4.34987L3.02478 4.22986L3.08179 4.16986L3.7778 4.46986L3.93079 4.48186L3.78979 4.28886L3.4838 4.00386L3.47079 3.89687L3.59979 3.80986L3.66278 3.64687L3.66879 3.51286L3.87979 3.39687L4.09378 3.39186L4.30878 3.49786L4.97479 4.05386L5.06979 4.20987L5.10178 4.41486L5.06879 4.66986L5.09677 4.77187L5.35678 4.68486L5.56479 4.79187L5.66779 4.76286L5.92679 4.37987L6.1048 4.47086L6.21179 4.64986L6.24579 4.81186L6.26178 5.03386L6.21579 5.49586L6.22778 5.56087L6.40878 5.29987L6.7168 5.27986L6.75677 5.14886L6.76578 4.66286L6.74078 4.25087L6.70679 4.16687L5.69278 3.59486L5.51678 3.45886L5.29578 3.17686L5.34079 3.03487L5.53879 2.90787L5.83578 2.85686L6.52679 2.86386L6.59677 2.80386L6.4628 2.65486L6.1438 2.55887L6.06879 2.47186L6.03079 2.30586L5.65179 2.39687L5.22879 2.40086L4.82178 2.29886L4.81378 2.16986L4.97379 1.97986L5.30679 1.66486L5.46078 1.58586L5.92578 1.64087L6.38678 1.55186L6.76077 1.65987L7.0578 1.97186L7.47879 2.51987L8.0488 2.86887L8.10178 2.97887L8.40479 3.26387L9.00879 4.02986L9.6218 4.47287L9.64978 4.58586L9.5488 4.71786L9.31277 4.87286L9.36679 4.95786L9.67477 5.07086L9.89679 5.36887L9.91177 5.49886L9.71078 6.41887L9.60379 6.61386L9.48178 6.71686L8.91577 6.54387L9.04977 6.83586L9.45477 7.14586L9.54578 7.31886L9.48578 7.48886L9.52979 7.52786L9.6778 7.43686L9.73978 7.53287L9.71378 7.81586L9.65079 8.05086L9.54977 8.23686L9.57977 8.31786L9.73779 8.29286L9.88577 8.34087L10.1178 8.59787L10.3058 9.38086L10.3988 9.63286L10.4668 9.40886L10.5508 8.83786L10.6298 8.54587L10.7048 8.53287L10.7688 8.43686L10.8228 8.25687L10.9328 7.62086L11.3128 7.13786L11.4938 6.98886L11.6648 6.95686L11.7468 7.01686L12.0318 7.52386L12.2048 7.60886L12.2928 7.58186L12.4148 7.23686L12.5688 6.57486L12.6038 5.83286L12.5208 5.00986L12.5688 4.41986L12.7498 4.06686L12.9868 3.95786L13.2818 4.09386L13.4968 4.30986L13.9208 5.12987L14.2638 5.55887L14.5578 6.01686L14.7098 6.16586L15.0018 6.24086L15.0798 6.21086L15.1318 6.10587L15.1588 5.92386L15.0958 4.75287L15.1778 4.38786L15.3018 4.12686L15.8278 3.97386L16.1148 3.80986L16.3938 3.54086L16.6248 3.39586L16.8088 3.37686L16.9998 3.48186L17.2008 3.71086L17.5128 4.15686L17.9058 4.89386L18.4058 5.44186L18.6668 6.30986L18.7228 6.45586L18.7848 6.47287L18.8508 6.35986L18.8928 6.20087L18.9048 5.81487L18.7648 5.30286L18.2978 4.00586L18.2898 3.75887L18.3488 3.56087L18.6778 3.53886L19.4438 3.65886L19.6878 3.86086L20.2088 4.65486L20.3548 4.84686L20.4438 4.89487L20.4768 4.79886L20.6788 4.65186L20.8178 4.47386L21.0508 4.03586L21.5598 3.24586L21.6658 3.22287L21.8138 3.28487L22.0748 3.49187L22.1988 3.65787L22.4438 3.78386L22.6948 3.73987L23.0418 3.46286L23.4348 3.29286L23.5688 2.89986L23.5938 2.71986L23.2778 1.54286L23.4108 1.30086L24.0958 1.00786L24.6948 0.984863L24.8368 1.06586L25.2138 1.64087L25.4698 1.92886L25.5988 2.15987L25.6298 2.66887L25.7848 2.85587L26.0778 3.06686Z" fill="#CCCCCC" stroke="white" stroke-width="0.5"/>
</svg>
