<svg width="34" height="40" viewBox="0 0 34 40" fill="none" xmlns="http://www.w3.org/2000/svg">
<path d="M20.1477 2.61111L20.0907 2.84412L19.9717 2.90213L19.7637 3.03812L19.5257 3.22412L19.3037 3.43314L19.2437 3.66013L19.3047 3.80814L19.3647 3.85913L19.4457 3.81412L19.5638 3.84213L19.7117 3.92313L19.9587 4.00214L19.9657 4.08011L19.9137 4.18011L19.7217 4.35712L19.5487 4.55713L19.5317 4.67911L19.5527 4.76813L19.6127 4.82211L19.8687 4.79813L19.9067 4.87112L19.7817 5.38412L19.8207 5.47113L20.0457 5.55313L20.2097 5.67612L20.5168 6.00012L20.6387 6.26212L20.5547 6.35013L20.3617 6.39313L20.2047 6.37112L20.3827 6.21313L19.9477 5.63712L19.7507 5.63812L19.4897 5.88211L18.7637 5.63513L18.6247 5.73511L18.5217 5.93011L18.2697 6.17212L17.9127 6.27814L17.5147 6.54413L17.0957 6.73212L16.7757 6.87411L16.5917 6.84912L16.8837 6.54211L16.7597 6.53613L16.3717 6.75311L16.1487 6.93613L16.0767 7.24411L16.0117 7.75012L16.1817 7.88412L16.4797 8.55011L16.8467 8.83414L16.7757 9.10513L16.6787 9.31912L16.4567 9.50412L16.2727 9.36713L16.1597 9.37012L16.0747 9.80313L16.2337 10.9541L16.4897 11.7581L16.7437 12.1081L17.3167 12.6511L17.9227 12.9371L19.0127 13.8481L19.6107 14.1361L19.7677 14.2921L20.1297 14.9911L20.4427 15.7961L20.7798 17.0541L21.0197 17.6711L21.5038 18.3671L22.5077 19.3591L23.4207 20.0821L24.2707 20.5281L24.9337 20.6061L26.5027 20.5081L26.7757 20.5501L27.0657 20.6701L27.1347 20.9791L27.0287 21.1871L26.6987 21.4031L26.3627 21.7021L26.3257 22.1091L26.6397 22.3951L28.1537 23.1521L29.7018 23.7831L30.1837 24.1041L30.7427 24.6031L32.0917 25.2871L32.3197 25.6191L33.1397 26.3321L33.5107 26.8811L33.5817 27.3061L33.4048 27.7371L33.3227 28.0401L33.1837 28.3391L32.8347 28.2261L32.4377 27.9181L31.8398 26.6641L30.7487 26.5371L30.5227 26.4441L30.1347 26.2281L30.1117 26.0851L30.0157 25.9071L29.9167 25.8471L29.4997 25.8071L29.2107 26.0111L28.8707 26.4941L28.4847 27.1871L28.0927 28.2001L28.0707 28.6081L28.2837 29.0031L28.9197 29.2231L29.4107 29.5741L29.7347 29.9401L29.7577 30.8211L29.9027 31.3201L29.6897 31.6031L29.2767 31.5301L28.7267 31.7101L28.3367 32.0321L28.1747 32.3381L28.2167 33.1301L28.1367 33.4311L27.3977 33.9991L27.0097 34.5791L26.9128 34.8191L26.7647 35.0911L25.8317 35.1011L25.6107 34.7641L25.6028 34.2631L25.7627 33.9541L26.1057 33.8091L26.3367 33.1651L26.2637 32.6991L26.3987 32.4921L26.5257 32.3461L26.7867 32.2601L27.1557 32.1781L27.1927 31.5251L26.9048 31.2281L26.8037 30.8111L26.6697 30.0391L26.1947 29.0501L25.9407 28.1651L25.7417 27.7271L25.4397 27.4981L24.8947 27.5011L24.6237 27.4361L23.6597 26.8181L23.5927 26.7241L23.5987 26.5591L23.7587 26.3101L23.6507 25.9731L23.5367 25.6541L23.3477 25.3821L23.1407 25.2401L22.7067 25.3271L22.5547 25.3941L22.2807 25.3711L22.0657 25.4921L21.9457 25.4961L22.2837 25.0171L22.1927 24.9041L21.8587 24.7071L21.4048 24.6771L21.2787 24.6531L21.2047 24.7761L21.1167 24.7091L21.1257 24.4951L20.5987 23.5331L20.2447 23.1401L20.0657 23.0701L19.7427 23.1531L19.2018 22.9811L18.8788 22.9431L18.7007 22.9851L18.4347 23.1101L18.3008 23.0271L18.2538 22.8981L17.7627 22.4971L17.1497 22.2701L15.9567 20.9871L15.5907 20.5061L14.8377 19.9751L14.3617 19.1991L13.9717 18.9141L13.4047 18.6851L13.2737 18.7141L13.1037 18.8001L12.9697 18.8121L12.8637 18.7111L12.9717 18.6071L13.0927 18.5601L13.0457 18.2621L12.3997 17.4881L12.0217 17.2381L11.9147 17.0841L11.8357 16.8731L11.7547 16.7341L11.5757 16.6541L11.4227 16.6681L11.2117 16.6151L11.2187 16.2411L11.2607 15.9541L11.2287 15.7101L11.0227 15.0671L10.6667 14.5211L10.4567 13.2101L10.2947 12.8391L9.90073 12.5581L9.01172 12.2421L7.77274 11.3911L7.51071 11.3761L6.76572 11.0441L6.30371 10.9871L5.70374 11.2851L4.97473 12.1031L4.38373 12.9501L4.16873 13.1141L3.40573 13.4021L2.73172 13.5391L2.72473 13.3231L2.70071 13.1601L2.81473 12.9811L3.00272 12.7701L3.17572 12.5041L3.24771 12.3121L3.21371 12.1841L3.13571 11.9941L3.02972 11.9801L2.38773 12.1401L2.24072 12.0991L1.76572 11.8501L1.25473 11.5441L1.06671 11.3261L0.995728 11.1061L1.04874 10.9641L1.00671 10.8261L0.906738 10.6401L0.996735 10.4291L1.15573 10.1661L1.23572 9.98712L1.36972 9.94113L1.43372 9.83212L1.32672 9.39612L1.27072 9.32611L1.17871 9.27213L1.03671 9.26611L0.788727 9.17612L0.612732 9.02512L0.574738 8.82114L0.48172 8.62512L0.322723 8.44513L0.302734 8.24811L0.483734 8.14413L0.730713 8.14014L0.904724 8.17911L1.29474 7.86212L1.43872 7.83414L1.56772 7.76611L1.67572 7.33212L1.75873 7.20212L1.77872 7.12613L1.70172 7.03513L1.38672 6.72913L1.24274 6.40912L1.01572 6.05011L0.804718 5.89111L0.761719 5.76712L0.756714 5.61011L0.799713 5.47113L1.18173 5.25513L1.40771 5.02512L1.50473 5.11313L1.71072 5.20712L2.26971 5.07913L2.61673 4.95013L2.86072 4.81412L3.01172 4.83813L3.55972 5.04111L3.74072 4.93811L4.13571 4.66312L4.19473 4.51813L4.50671 4.07812L4.51273 3.97113L4.38474 3.69412L4.42471 3.63312L4.80673 3.34912L4.99371 3.09711L5.19672 2.92813L5.34271 2.92413L5.38272 2.98212L5.39972 3.10013L5.38672 3.58612L5.44272 3.73511L5.74274 4.08313L5.95673 4.28113L6.45374 4.41711L6.47672 4.48212L6.33972 4.74313L6.64072 5.05511L6.69473 5.28311L6.83374 5.41113L7.02972 5.34811L7.09372 5.22711L7.01672 5.01611L6.95972 4.79514L6.97073 4.66711L7.02472 4.52011L7.16171 4.31412L7.53372 3.84213L7.66772 3.56912L7.69171 3.14612L7.69272 2.80612L7.81671 2.72311L8.08374 2.78412L8.16373 2.77713L8.19974 2.98611L8.31372 3.31912L8.44772 3.49112L8.59073 3.53214L8.75873 3.53311L9.17471 3.33011L9.44574 3.24213L9.59973 3.26611L9.69073 3.40411L9.88474 3.76712L9.99573 3.80814L10.1297 3.76611L10.1767 3.70413L10.1337 3.56412L10.0767 3.26111L9.99872 3.02612L9.89673 2.91611L9.87573 2.77313L9.93973 2.51514L10.0127 2.29913L10.1547 2.24011L10.3177 2.21313L10.5327 2.44211L10.7877 2.51413L10.9777 2.50214L11.0107 2.36911L10.9987 2.22311L10.8857 2.03513L10.9077 1.75012L11.0387 1.21811L11.1137 1.25912L11.3957 1.26413L11.7027 1.29413L11.9007 1.51111L12.0947 1.58511L12.3707 1.60812L12.5557 1.57812L12.6457 1.49612L12.7527 1.24213L12.9507 0.927124L13.2607 0.765137L13.7907 0.735107L14.0557 0.676117L14.3307 0.679108L14.5377 0.728119L14.7517 0.722107L15.2957 0.502136L15.8567 0.328125L15.9347 0.357117L15.9467 0.415131L15.8457 0.549133L15.7477 0.727112L15.8137 0.930115L16.1327 1.33713L16.3067 1.64813L16.4707 1.88113L16.7257 2.00412L17.0607 2.07913L17.3447 2.10611L17.6417 2.19412L18.6607 2.41113L19.1737 2.47113L19.5627 2.48013L20.1477 2.61111ZM16.7387 13.0121L16.8217 12.8121L16.7907 12.6691L16.6147 12.6981L16.4907 12.8841L16.5737 13.0411L16.7387 13.0121ZM16.6097 20.6601L16.6077 20.6301L16.5867 20.6331L16.5777 20.6511L16.5867 20.6631L16.6097 20.6601ZM10.8737 17.0261L10.9667 17.1741L10.9777 17.2601L10.9147 17.3581L10.9407 17.5781L10.7057 17.3951L10.3507 17.4871L10.1327 17.4671L10.0727 17.3031L10.1227 17.2071L10.4607 17.1861L10.5657 17.1391L10.7717 17.1611L10.8737 17.0261ZM8.73071 24.4471L8.87173 24.6831L9.18674 25.6491L9.21674 25.8571L9.15372 26.0701L9.07373 26.2211L8.76071 26.7051L8.80673 27.1041L8.92273 27.3511L8.93973 27.6241L8.88171 27.9621L8.68771 30.0311L8.59372 30.3961L8.53473 30.7111L8.32074 30.8071L8.04474 30.7061L7.69672 30.5281L7.53574 30.5391L7.37372 30.6001L7.24072 30.5481L7.11374 30.4471L7.01874 31.1531L6.86172 31.4391L6.62271 31.6221L6.39774 31.6331L6.16571 31.5721H5.96973L5.82074 31.4371L5.70273 31.1991L5.51474 30.9101L5.32373 30.5671L5.30273 30.2561L5.26971 29.5691L5.32474 29.4191L5.40472 29.2751L5.44373 28.9671L5.41672 28.6981L5.47272 28.6021L5.58374 28.6981L5.66672 28.6621L5.66171 28.5231L5.68674 28.2701L5.54071 28.0581L5.29373 27.9861L5.26971 27.7641L5.29572 27.5471L5.42572 27.4011L5.46973 27.2071L5.47073 26.6141L5.29672 26.3951L5.22974 26.0631L5.13974 25.8511L4.97772 25.6371L4.79373 25.4631L4.68073 25.2951L4.65573 24.8551L4.71973 24.4871L4.77774 24.3291L4.83673 24.3521L5.01874 24.5351L5.16772 24.5761L5.46274 24.6201L5.75272 24.5611L6.10873 24.3941L6.45172 24.1921L6.94873 23.5971L7.25473 23.4761L7.41171 23.3191L7.46573 23.1071L7.59573 23.0521L7.74872 23.2581L7.93872 23.2801L8.23172 23.4501L8.35773 23.6121L8.46573 23.8071L8.56973 23.8931L8.68073 23.9421L8.69672 23.9881L8.60873 24.0341L8.50772 24.2571L8.56473 24.3211L8.73071 24.4471ZM4.95374 23.8631L4.86072 24.0321L4.72873 24.0201L4.78073 23.8951L4.90274 23.6441L5.05072 23.5601L5.11673 23.6351L5.04672 23.7791L4.95374 23.8631ZM20.8167 25.0991L20.6917 25.1311L20.6187 25.0871L20.5787 25.0311L20.6277 24.8921L20.8827 24.9751L20.8797 25.0531L20.8167 25.0991ZM5.49573 31.0671L5.33374 31.4231L5.16473 31.1711L5.15771 30.9551L5.18073 30.8931L5.38873 30.9841L5.49573 31.0671ZM25.4147 34.0991L25.2247 34.5031L25.1317 34.6581L24.4547 35.6431L24.3767 35.8701L24.3287 36.1171L24.2587 36.3331L24.1647 36.5361L24.0757 36.7941L24.0927 37.0861L24.1247 37.2291L24.2067 37.3231L24.3407 37.4111L24.4437 37.5471L24.2857 37.6701L24.4587 37.9171L24.6067 38.0631L24.6267 38.2091L24.6237 38.3551L24.3167 38.6291L24.1967 38.7801L24.1227 38.9631L24.0907 39.1511L24.1237 39.3211L24.1137 39.4901L23.8047 39.4691L23.4887 39.3651L23.1697 39.4101L22.7157 39.2141L22.5508 39.1791L22.4007 39.1021L22.0237 38.4941L21.7197 38.2371L21.3937 38.0361L21.0607 38.0241L20.7278 38.0471L20.4337 37.9231L19.8347 37.5081L19.1997 37.1751L18.9308 36.9591L18.8077 36.8131L18.6637 36.7161L18.3008 36.6201L17.9737 36.3941L17.8257 36.3781L17.5067 36.4051L17.3427 36.3891L17.1777 36.3091L16.8597 36.0441L16.6557 35.6761L16.6027 35.5131L16.7467 35.0921L16.9177 34.6871L17.0687 34.5741L17.2447 34.4921L17.3507 34.3721L17.4407 34.2251L17.7677 34.6491L17.9137 34.7521L18.0617 34.7291L18.3237 34.5771L18.3457 34.4101L18.6357 34.1991L19.0038 34.1951L19.1737 34.2341L19.2627 34.4251L19.4027 34.4841L19.5647 34.5091L20.0987 34.8721L20.2487 34.9311L20.3997 34.9411L20.8147 34.7891L21.1327 34.7311L21.7997 34.8151L22.1597 34.7241L22.4117 34.7131L22.7787 34.5731L23.0607 34.3401L23.2077 34.2821L23.3658 34.2651L23.7477 34.2801L24.1317 34.3331L24.2928 34.2781L24.4277 34.1251L24.5837 34.0561L24.7547 34.1021L25.1977 33.8401L25.3937 33.8221L25.5797 33.9231L25.4147 34.0991ZM15.5207 39.2531L15.3857 39.2921L15.2097 39.1721L15.1977 39.0041L15.2297 38.9541L15.4437 39.0311L15.5107 39.1871L15.5207 39.2531Z" fill="#CCCCCC" stroke="white" stroke-width="0.5"/>
</svg>
