<svg width="8" height="4" viewBox="0 0 8 4" fill="none" xmlns="http://www.w3.org/2000/svg">
<path d="M3.86581 1.29108L4.20782 1.39609L4.56183 1.45108L4.71381 1.4541L4.85681 1.4881L5.17981 1.74109L5.43982 1.87909L6.4248 2.18808L6.75281 2.7211L6.81482 2.88809L6.56082 2.98608L6.23981 3.02109L5.93381 3.02609L5.65082 2.92508L5.52783 2.84708L5.23282 2.80908L5.30682 2.73709L5.17581 2.7041L5.01181 2.71109L4.89081 2.91608L4.75681 3.07809L4.49881 3.0621L4.39981 2.9241L4.26483 2.98608L4.15482 3.0881L4.02481 3.47009L3.81381 3.28009L3.58481 3.1221L3.29782 3.05609L2.7178 3.0451L2.44382 2.99408L2.21582 2.67108L2.12582 2.5791L1.89682 2.49509L1.66882 2.12408L1.58682 2.07309L0.967819 1.99408L0.84082 1.79108L0.878815 1.60709L1.08481 1.38208L1.18582 1.31808L1.52783 1.32809L1.85483 1.2601L1.99881 1.16409L2.1488 1.1001L3.33282 1.26309L3.6058 1.2641L3.86581 1.29108Z" fill="#CCCCCC" stroke="white" stroke-width="0.5"/>
</svg>
