<svg width="14" height="15" viewBox="0 0 14 15" fill="none" xmlns="http://www.w3.org/2000/svg">
<path d="M12.561 4.95407L12.1451 5.33905L12.0471 5.38107L11.506 5.54007L10.4001 5.86606L9.65906 6.08408L8.71106 6.36206L7.92407 6.59406L7.14508 6.82205L6.42303 7.03406L6.83508 7.48007L7.46405 8.16107L7.88403 8.61407L8.37909 9.19608L8.82104 9.71506L9.29004 10.2641L8.96106 10.4501L8.41907 10.7561L8.36407 10.8121L8.31708 10.869L8.09308 11.4141L7.91705 11.843L7.85608 11.8961L7.10004 12.054L6.33508 12.2121L5.85309 12.313L5.70807 12.4231L5.39404 12.9561L5.06903 13.5041L4.52704 13.9521L3.92505 14.4481L3.77606 14.4801L3.34106 14.4041L2.59705 14.274L1.87805 14.1481L1.38605 14.063L0.789062 13.9581L0.876038 13.5391L0.852051 13.3121L0.99408 12.5661L1.07709 12.2131L1.11804 11.9521L1.32404 11.4231L1.29907 11.2501L1.34204 10.6391L1.32104 10.5211L1.41504 10.1871L1.59106 9.70206L1.76306 9.28305L1.82507 9.09506L2.00104 8.69705L2.16003 8.20807L2.07605 7.94006L2.05109 7.88806L2.11505 7.58005L2.11304 7.57806L2.19104 7.07407L2.23303 6.80206L2.32806 6.44107L2.49603 6.13507L2.41809 5.41406L2.42706 5.02405L2.53204 4.58005L2.47406 4.05905L2.52307 3.31506L2.53406 3.24606L2.59503 3.15607L2.64209 3.10907L2.98804 2.95407L3.13605 2.93405L3.43805 3.00406L3.61108 3.16006L3.90009 3.60107L4.35004 3.72906L4.53107 3.85406L4.77704 4.08707L5.07806 4.17206L6.03009 4.31705L6.78906 3.82706L7.43109 3.41205L8.16003 2.94006L8.65607 2.61807L9.50208 2.06906L10.0601 1.72205L10.7931 1.26306L11.5171 0.810059L11.7181 1.54907L11.9141 2.27005L12.1171 3.01407L12.3151 3.73505L12.1011 3.80405L12.269 4.35507L12.5461 4.27106L12.847 4.20605L12.9741 4.56006L12.561 4.95407Z" fill="#CCCCCC" stroke="white" stroke-width="0.5"/>
</svg>
