<svg width="64" height="75" viewBox="0 0 64 75" fill="none" xmlns="http://www.w3.org/2000/svg">
<path d="M57.3406 6.1741L57.6926 6.19409L57.8496 6.17609L58.1187 6.23508L59.1856 6.82608L59.5076 6.90109L59.8406 6.9101L60.0746 6.86209L60.2806 6.7001L60.9246 5.98309L61.6027 5.32809L61.6776 5.35309V5.53409L61.6276 5.73508L61.3276 6.33411L60.9946 7.13809L60.9236 7.5441L61.0316 7.93909L61.2407 8.26511L61.4056 8.71008L61.5956 9.32709L61.8636 9.40509L62.0096 9.41409L62.2776 9.2291L62.5306 8.99408L62.7487 8.96509L62.9777 9.0051L62.6766 9.1691L62.3926 9.36908L62.1486 9.7471L62.0576 9.81808L61.7766 9.7951L61.6157 9.80908L61.2866 9.9671L60.9976 10.1461L60.7216 10.3651L60.4207 10.4821L60.0996 10.5101L59.6046 10.6891L59.2836 10.7021L58.6807 10.5461L58.3876 10.5881L57.7487 10.9401L57.1666 11.4481L56.6577 12.0171L56.2326 12.6991L56.0616 13.0531L55.9586 13.4491L55.9446 13.7111L55.9066 13.9621L55.8087 14.1371L55.6906 14.2791L55.3397 14.1961L54.7636 13.8341L53.6466 13.3071L52.4666 12.4981L51.8026 12.0911L50.5546 12.2131L49.3737 12.9891L49.2686 12.9231L48.8176 12.3911L48.5986 12.1801L48.3376 12.1201L48.1436 12.1271L47.9556 12.1661L47.6887 12.4401L47.5906 12.6371L47.5146 12.8611L47.4916 13.0191L47.5236 13.1741L47.7766 13.5241L48.0886 13.7841L48.2296 13.8331L48.5286 13.8151L48.6677 13.8421L49.1686 14.3631L49.7177 14.8511L49.8386 15.0121L49.6356 15.1811L49.4136 15.2651L49.1547 15.2441L48.8986 15.1801L48.4606 14.9731L48.2726 15.1491L47.9807 15.5101L47.8196 15.9021L47.6887 16.0811L47.3666 16.3171L47.0256 16.4391L46.8466 16.3991L46.7106 16.2511L46.6336 16.0741L46.5946 15.8681L46.6666 15.4221L46.8436 15.0191L46.9116 14.6071L46.7667 14.0261L46.6746 13.9041L46.3126 13.5631L46.1447 13.2301L46.1046 12.8151L46.1256 12.5861L46.2136 12.0791L46.3016 11.8231L46.4677 11.7391L46.6497 11.6881L46.9286 11.5041L47.2357 11.2661L47.5297 10.9941L47.8206 10.6611L47.9716 10.2951L47.7227 9.84509L47.6707 9.57709L47.7076 9.3241L47.9736 9.18909L48.2466 9.29108L48.7976 9.66309L48.9047 9.7001L49.2827 9.7171L49.8007 9.7981L50.1006 9.77811L50.2456 9.72208L50.4636 9.4151L50.5706 9.0231L50.5316 8.5181L50.5297 8.01608L50.6677 7.60608L51.0996 6.9451L51.2236 6.55508L51.2686 5.60309L51.4246 5.18311L51.5496 4.74609L51.6096 3.82809L51.4326 2.94208L51.2546 2.5061L51.0507 2.09109L51.0806 1.69409L51.2456 1.3251L51.2496 1.21408L51.2886 1.11508L51.5977 1.0451L51.7426 0.966095L51.8817 0.788086L52.0466 0.684082L52.1677 0.788086L52.2676 0.970093L52.7036 1.41708L53.3906 2.2131L54.1996 3.42209L54.7066 4.00909L55.2407 4.5401L55.8397 5.08209L56.4666 5.54709L56.8666 5.76709L57.1596 6.1171L57.3406 6.1741ZM49.6176 1.38708L49.5096 1.6391L49.3636 1.2641L49.3347 0.8591L49.4186 0.861084L49.5726 0.922089L49.6096 1.11908L49.6176 1.38708ZM50.2426 2.23508L50.0486 2.26309L49.8217 2.09708L49.7936 1.8891L49.9576 1.72308L50.1206 1.78409L50.2836 1.99808L50.3376 2.11008L50.2426 2.23508ZM45.1516 13.9731L45.0876 13.9931L45.0216 13.9611L44.9566 13.6761L45.0126 13.5261L45.1936 13.4211L45.3696 13.3921L45.2206 13.9161L45.1516 13.9731ZM50.0576 16.6261L50.1677 16.6961L50.6917 16.5071L50.5916 17.0781L50.5356 17.6531L50.5736 18.6051L50.6206 19.0331L50.7116 19.4471L50.9356 19.7431L51.2277 19.9531L51.6506 20.6221L51.8776 21.4421L52.0377 21.8391L52.1577 22.2551L52.1946 22.4451L52.1976 22.6351L52.1616 22.8951L52.2017 23.1051L52.1556 23.7631L51.9666 24.5221L51.9426 24.9091L51.7776 24.9861L51.6776 25.1651L51.5927 25.2481L51.4976 25.3121L51.3607 25.3281L51.2617 25.4011L51.2227 25.6061L51.1596 25.7951L51.0396 25.9701L50.9456 26.1621L50.8687 26.6301L50.8406 27.1091L50.7256 27.4431L50.4467 27.5301L50.1276 27.5251L49.7186 27.6791L49.6306 27.7701L49.3076 28.3521L49.2147 28.6931L49.2116 29.0591L49.3016 29.5091L49.4236 29.9481L49.5156 30.7631L49.4186 32.0011L49.3246 32.3961L49.1196 32.6631L48.9636 32.7871L48.8297 32.9391L48.6556 33.3401L48.3676 34.1381L48.3446 34.3381L48.3456 34.5451L48.2676 34.8151L48.2177 35.0801L48.2646 35.3881L48.3536 35.6761L48.7396 36.4131L48.8906 36.6311L49.0606 36.8291L48.4016 37.0481L48.2836 37.1491L47.8917 37.5671L47.7667 37.9631L47.7766 38.4011L47.7116 38.5581L47.6046 38.6941L47.4926 38.7841L47.0546 38.9841L46.7747 39.1831L46.4966 39.4941L46.3867 39.6561L46.1716 39.6041L46.0457 39.4601L46.1696 39.2801L46.1317 39.0671L46.1926 38.5201L46.1237 38.3001L46.3477 38.1331L46.4536 37.8671L46.6856 37.6541L46.8527 37.4651L46.8817 37.3111L46.7326 37.1451L46.5746 37.0251H46.3566L46.1466 37.0601L46.0096 37.2181L45.9647 37.4331L45.9756 37.5331L45.9576 37.6201L45.6276 37.9141L45.6707 38.2211L45.7676 38.3771L45.8917 38.4511L45.8546 38.5561L45.6976 38.8031L45.5886 38.8271L45.3876 38.4811L45.1356 38.2921L44.8236 38.2931L44.5037 38.3621L44.2606 38.5921L44.1807 38.7831L44.1287 38.9801L44.1466 39.4591L44.0457 39.8591L43.8477 40.2101L43.7556 40.3381L43.5146 40.5761L43.3477 40.6071L43.2296 40.4991L43.1336 40.3351L43.2556 39.7351L43.2506 39.3971L43.5327 39.2251L43.3016 38.9851L43.0176 38.8881L42.6187 39.0161L42.5056 39.1611L42.4286 39.3551L42.2136 39.6011L41.9777 39.8301L41.7086 40.2221L41.5286 40.6851L40.9387 40.5341L40.6176 40.5001L40.2927 40.5121L39.7166 40.4551L39.0847 40.5501L38.3646 40.7321L38.4077 40.6011L38.9996 40.3221L39.0206 40.2401L38.9636 40.0871L38.8167 40.0801L38.4626 40.1331L38.2816 40.1101L38.2086 39.9461L38.0886 39.8761L38.0086 39.9431L38.0346 40.2611L37.9476 40.3031L37.8306 40.2211L37.8676 39.9731L37.7886 39.6101L37.7786 39.3841L37.9026 39.1901L37.7756 39.1081L37.6417 39.1391L37.4716 39.2321L37.3217 39.3641L37.0046 40.0271L36.8817 40.4051L37.1136 40.7081L37.7476 41.1311L37.8557 41.2351L37.8576 41.4151L37.7806 41.6061L37.6086 41.6891L36.9136 41.8301L36.3106 42.1031L36.1367 42.3791L35.5886 43.4451L35.1497 44.1721L34.5297 44.4221L33.8496 44.1991L33.6846 43.9461L33.5516 43.6331L33.2986 43.3501L33.0696 43.0411L32.9366 42.6741L32.9576 42.0821L32.8586 41.7251L32.9476 41.6301L33.3226 41.4121L33.4456 41.2901L33.6577 41.0061L33.7336 40.8481L33.7446 40.6091L33.5746 40.4841L33.1346 40.4881L32.6956 40.5631L32.3826 40.4591L31.9756 40.1691L31.8496 40.1071L31.4116 40.0891L31.0986 40.1431L30.7916 40.2481L30.4666 40.2821L30.3586 40.3371L29.9836 40.6921L29.6846 40.9151L29.4266 41.0261L28.8696 41.0551L28.5906 41.1271L28.2986 41.2441L28.2166 41.2341L27.9086 41.3961L27.5546 41.5361L27.3666 41.6761L27.0197 41.5841L26.3336 41.8351L26.0016 41.8661L25.6596 41.7271L25.3416 41.5021L25.0366 41.5991L24.8276 41.9301L24.7256 42.5881L24.6066 42.8841L24.5706 43.2391L24.4127 43.1831L23.4946 42.5441L23.4316 42.5211L22.6896 42.6311L22.4987 42.6841L22.2596 42.8131L22.0067 42.8711L21.7766 42.7781L21.5557 42.6271L21.3436 42.6721L21.1266 42.7781L21.0427 41.8121L21.0856 41.6851L21.2186 41.5161L21.3657 41.3711L21.7246 41.3211L22.0876 41.3681L22.3477 41.3021L22.5676 41.1101L22.7986 40.8381L23.0596 40.6161L23.4136 40.4411L23.7556 40.2401L24.0566 39.9581L24.3416 39.6491L24.6036 39.4221L24.8886 39.2321L25.3226 38.7741L25.8976 38.2591L26.1187 37.8771L26.2556 37.7721L26.7506 37.5591L27.4077 37.3951L27.7177 37.4031L28.0236 37.7381L28.1887 37.6921L28.3566 37.6051L28.6946 37.5571L29.0427 37.6131L29.3826 37.6141L29.7227 37.5721L30.3746 37.4621L30.7186 37.3291L31.0546 37.1571L32.2506 37.0361L33.0696 36.7471L33.1996 36.7681L33.3256 36.8341L33.3356 37.0481L33.2316 37.2811L33.3326 37.4221L33.4987 37.5091L34.2697 37.5361L34.4896 37.5861L34.8116 37.4271L35.1157 37.2301L35.4326 36.9701L35.6547 36.6771L35.4496 36.3101L35.4047 35.9081L35.5767 35.4711L35.8256 35.1031L36.1216 34.8801L36.3947 34.6231L36.9467 33.8931L37.3456 33.3011L37.4896 32.5711L37.4056 31.7051L37.7546 31.0591L38.0886 30.9481L38.7516 30.6531L39.0996 30.5671L39.1516 30.6961L39.1417 30.8651L38.6206 31.4071L38.3217 31.6301L38.1436 31.6991L37.9796 31.7971L37.9127 31.9881L38.1786 32.3061L38.2456 32.5411L38.2286 32.7661L38.2407 32.9691L38.5406 33.1891L38.8856 33.2621L39.0297 33.2601L39.1556 33.2021L39.5496 32.6631L39.6376 32.5691L40.7576 32.1731L41.3087 31.8701L41.6136 31.7911L41.8997 31.6331L42.5416 31.0231L42.7776 30.7411L42.9926 30.4291L43.1646 30.0661L43.3007 29.6731L43.4866 29.4281L44.5037 28.8431L44.8306 28.5241L44.9346 28.3691L45.0606 27.9201L45.1476 27.4531L45.2706 27.0861L45.4376 26.7421L45.6606 26.3911L45.9116 26.0641L46.0596 25.7291L46.2756 24.9261L46.3696 24.4801L46.4436 24.3191L46.5516 24.1841L46.6456 24.0121L46.7177 23.8201L46.7506 23.6301L46.7966 23.0481L46.7686 22.5941L46.6006 22.2091L46.4616 22.1001L46.3106 22.0941L46.0826 22.1271L45.8896 21.9701L45.9296 21.8311L46.1266 21.8051L46.2606 21.7331L46.3576 21.6021L46.5386 21.1811L46.6466 20.7291L46.6566 20.5291L46.5146 20.1641L46.4026 19.7251L46.3997 19.4881L46.5226 19.2141L46.6986 18.9911L46.8557 18.9391L47.0256 18.9231L47.1807 18.8371L47.3246 18.7121L47.4056 18.5741L47.5316 18.1981L47.5806 17.9841L47.5006 17.4081L47.5826 17.2501L47.6986 17.1521L47.8536 17.2261L48.0136 17.2411L48.1996 17.2181L48.3776 17.2791L48.4106 17.4271L48.5226 18.3991L48.5866 18.5301L48.7166 18.6321L48.8626 18.6171L48.9886 18.4661L49.0736 18.2651L49.2416 18.2231L49.7546 18.4391L49.9366 18.2851L50.0546 18.0461L50.1577 17.6231L50.1076 17.2411L49.9846 17.0991L49.8576 17.1241L49.7456 17.2291L49.6196 17.2861L48.8626 17.4871L48.8666 17.0611L49.0286 16.4211L49.1176 16.2181L49.2456 16.1221L49.5637 16.2341L49.7186 16.3081L50.0576 16.6261ZM41.9597 29.5111L41.6926 29.5201L41.6266 29.4851L41.7877 29.3971L41.8026 29.2501L41.8997 28.9881L41.8976 28.9131L41.6856 28.8991L41.6967 28.6021L41.8546 28.3081L42.2896 27.8451L42.4086 27.7581L42.4266 27.9611L42.2946 28.4401L42.2686 28.6131L42.6107 28.6491L42.3906 29.2221L41.9597 29.5111ZM28.0016 35.1751L27.8737 35.3041L27.6336 35.2621L27.4946 35.0751L27.5406 34.8641L27.7916 34.7021L28.0316 35.0271L28.0016 35.1751ZM45.0816 40.2441L45.0516 40.4041L44.9026 40.3691L44.8316 40.2651L44.8406 40.0781L44.9976 40.0771L45.0816 40.2441ZM16.8176 41.5081L16.7606 41.6711L16.5706 41.5561L16.4836 41.4521L16.6606 40.9391L16.6396 40.7441L16.6506 40.6491L17.0016 40.3801L17.0626 40.4311L17.0836 40.5061L17.0526 40.6211L17.0706 40.8751L16.8066 41.2951L16.8176 41.5081ZM32.3867 41.7291L32.0826 42.0171L31.8186 41.9971L31.6866 41.8681L31.6426 41.7091L31.8936 41.4591L32.1096 41.1051L32.3057 40.9481L32.4636 40.8601L32.5876 40.8631L32.3096 41.3571L32.3867 41.7291ZM30.7556 41.0681L30.7036 41.1351L30.6536 41.1171L30.4746 41.2721L30.4366 41.1231L30.2957 41.0241L30.2786 40.9461L30.6816 40.8951L30.8116 40.9361L30.7556 41.0681ZM30.7706 41.8371L31.1596 41.9781L31.5566 41.9381L31.5507 42.5551L31.6076 42.7621L31.7186 42.9471L31.6616 43.2161L31.8416 43.3081L31.3076 43.6141L30.8267 44.0201L30.6287 44.2931L30.4496 44.5861L30.3456 44.8961L30.2786 45.2291L30.1176 45.0971L29.6536 44.5561L29.3596 44.4081L28.8867 44.3291L28.7366 44.3471L27.7646 44.8521L27.6356 45.2211L27.3706 45.7761L27.2446 45.9591L27.1046 46.0121L27.0056 46.1071L26.8976 46.5791L26.5966 46.8691L26.4116 46.8781L26.0977 46.7981L25.9556 46.8431L26.1436 46.3781L25.8436 46.3211L25.5427 46.3311L25.5356 46.0281L25.3536 45.8561L25.4886 45.6321L25.4926 45.4491L25.5717 45.3481L25.5986 45.2011L25.5876 45.0751L25.4026 45.0371L25.2896 44.9481L25.3106 44.6161L25.2047 44.6041L24.9406 44.6621L24.3926 44.9181H24.2437L24.4727 44.7351L24.9597 44.4851L25.1786 44.3411L25.6566 43.9371L25.9576 43.7461L26.1136 43.4071L26.1627 43.2011L26.2646 43.0191L26.3546 42.7281L26.5086 42.6311L26.7776 42.3811L26.9316 42.4051L27.1036 42.7121L27.3347 42.9471L27.5006 42.9271L27.7976 42.8061L27.9417 42.7791L28.2846 42.7941L28.5936 42.6451L28.7196 42.4691L28.7667 42.2491L28.6516 41.8801L28.7996 41.9171L28.9426 41.9021L29.2776 41.6671L29.6226 41.5271L29.9796 41.4921L30.3817 41.6251L30.7706 41.8371ZM16.5206 42.2861L16.3376 42.4231L16.2596 42.2141L16.3397 41.6201L16.6826 41.7421L16.6766 41.9241L16.5206 42.2861ZM25.7786 42.3141L25.6976 42.4491L25.4486 42.4081L25.5486 42.2911L25.6246 42.1491L25.6807 42.1201L25.7277 42.2741L25.7786 42.3141ZM24.9016 42.8871L25.0386 43.0111L25.3636 42.9611L25.4036 42.9961L25.3087 43.1081L25.1646 43.2191L24.9047 43.1361L24.7407 43.1321L24.7177 42.9471L24.7386 42.8801L24.9016 42.8871ZM21.8397 44.0381L22.2166 44.1381L22.3766 44.1441L22.5236 44.0991L22.7496 43.9681L22.9846 43.8711L23.1536 43.9201L23.3026 44.0371L23.3806 44.2021L23.3427 44.3741L23.0756 44.7441L22.8557 45.1381L23.3596 45.2121L23.8636 45.2041L23.7466 45.4471L23.7266 45.6591L23.8806 45.7601L24.0117 45.8961L23.9777 46.0191L23.9026 46.1401L24.1776 46.3221L24.1596 46.4441L24.0886 46.5721L23.4016 47.4061L23.1996 47.8271L23.0596 48.2901L22.9307 48.6281L22.8366 48.9791L22.7656 49.3571L22.6376 49.7471L22.6807 50.0921L22.6376 50.4461L22.2927 51.3181L22.0466 51.3021L21.7376 51.1971L21.5446 51.2131L21.4446 51.4061L21.6216 51.8031L21.0717 52.2741L20.4636 52.5901L20.4597 52.4461L20.5176 52.3331L20.6046 52.2421L20.6677 52.1321L20.7567 51.7621L20.7126 51.3891L20.5286 50.9211L20.5156 50.7531L20.6426 50.6851L20.7277 50.6651L20.7736 50.6001L20.7756 50.4451L20.7177 50.3301L20.5436 50.2931L20.3776 50.2911L20.2606 50.4651L20.0996 50.8001L20.0216 51.1391L20.0557 51.3241L20.1266 51.4901L20.3477 51.7671L20.2836 51.9311L20.1917 52.0581L19.4116 51.7691L19.2426 51.7481L19.1027 51.6871L18.9526 51.3061L19.2706 51.2141L19.3646 51.1681L19.3997 51.0461L19.4426 50.6741L19.2946 50.3621L19.1686 50.2511L19.0667 50.1241L19.1306 49.8611L19.0886 49.5291L19.0847 49.0651L19.1396 48.9851L19.4346 48.8911L19.6476 48.6421L19.8356 48.3581L20.1107 47.8581L20.3366 47.3171L20.1196 47.2941L19.9356 47.1921L20.1356 46.9361L20.0736 46.6121L19.7736 46.2141L19.6086 45.7441L19.3436 45.5361L19.2036 45.4601L19.0327 45.5701L18.8926 45.7021L19.0226 46.0081L19.0067 46.2791L19.0276 46.5471L19.1596 46.5621L19.3226 46.4951L19.4526 46.5421L19.5286 46.6831L19.5496 46.8641L19.4916 47.0431L19.3726 47.1321L19.2266 47.1251L19.0797 47.0281L18.9647 46.8901L18.6896 46.8141L18.3997 46.9771L18.1246 47.3091L17.8896 47.4771L17.9996 47.2311L18.0526 46.9651L17.9387 46.7781L17.6686 46.4671L17.6057 46.2871L17.5897 46.0691L17.6376 45.8531L17.9136 46.1011L18.0557 46.4101L18.2596 46.5461L18.5146 46.5471L18.3186 46.0931L18.2487 45.9781L17.9746 45.7741L17.5986 45.4311L17.3607 45.2651L17.4446 44.9061L17.5856 44.8351L17.7036 44.8521L18.1016 44.9791L18.1386 44.8001L18.0797 44.7041L18.0496 44.5931L18.3126 44.4381L18.7416 44.3101L18.8297 44.2501L18.9056 44.1211L19.0106 44.0541L19.3106 44.0561L19.5637 43.9321L19.7726 43.5971L19.8226 43.4131L19.8966 43.2591L20.4177 42.9871L20.5466 42.9451L20.8956 42.9791L21.2136 43.1331L21.3706 43.4571L21.5086 43.8031L21.8397 44.0381ZM17.9696 43.5471L17.7756 43.6861L17.6296 43.5781L17.7006 43.2781L17.7487 43.1781L17.9146 43.2771L17.9696 43.5471ZM17.1157 45.3091L16.9186 45.4661H16.7756L16.9056 45.2821L16.9236 45.1951L17.0327 44.9481L17.2456 44.8601L17.3356 44.8491L17.1616 45.1051L17.1157 45.3091ZM15.9517 46.5831L15.8817 46.6191L15.7916 46.3191L15.7286 46.2121L15.8336 46.1551L16.0446 45.6101L16.0826 45.8261L16.1646 46.0401L16.2466 46.0741L16.1666 46.2301L16.0496 46.2881L15.9517 46.5831ZM46.1616 45.8651L46.1126 45.9001L45.9777 45.7911L45.9576 45.6941L45.9816 45.6341L46.0696 45.6211L46.2516 45.7401L46.1616 45.8651ZM14.7966 46.7711L14.9056 46.8611L15.0646 46.8101L15.1917 46.7981L15.2827 46.8411L15.3976 47.0721L15.4396 47.2091L15.2346 47.2281L15.1476 47.2601L15.0356 47.4271L14.8746 47.3651L14.7736 47.2861L14.7516 47.1751L14.7966 46.7711ZM18.7736 48.6061L18.5516 48.7241L18.5236 48.6111L18.4296 48.5591L18.5906 48.4001L18.5847 48.3281L18.4826 48.2211L18.6006 47.8151L18.5686 47.6401L19.0117 47.5751L19.0927 47.7401L19.1006 48.2401L18.7736 48.6061ZM19.6116 47.9651L19.3636 47.9801L19.2606 47.9411L19.2196 47.8361L19.5676 47.6231L19.8376 47.6611L19.7177 47.8531L19.6116 47.9651ZM17.7516 50.4911L17.6636 50.5481L17.7196 50.2901L17.9456 50.0641L17.9647 50.2101L17.7516 50.4911ZM21.2357 54.5981L20.9896 54.6321L20.9846 54.4441L21.1796 54.0201L21.2006 53.7081L21.3826 53.3141L21.4597 53.2281L21.5176 53.1971L21.5806 53.3201L21.5106 53.8021L21.3276 54.1671L21.2357 54.5981ZM20.2906 55.0311L19.9696 55.1011L19.7936 55.0261L19.6317 54.6271L19.9387 54.3771L20.3486 54.6251L20.4326 54.6961L20.2906 55.0311ZM17.0067 61.6041L16.7646 61.8611L16.5076 61.6291L16.1976 61.4741L16.3446 61.4321L16.4307 61.3691L16.4396 61.2711L16.6406 61.1251L17.0386 61.0121L17.1656 61.0051L17.3087 60.8991L17.3557 60.8031L17.4146 60.7571L17.6716 60.6251L17.7416 60.7771L17.7296 60.8961L17.5366 60.9621L17.3486 61.1211L17.1736 61.3191L17.0176 61.4031L16.9677 61.4591L17.0067 61.6041ZM16.6456 61.9341L16.6646 62.0081L16.3896 61.9461L16.2776 61.6571L16.4606 61.7091L16.5167 61.8081L16.6456 61.9341ZM15.7307 63.1471L15.6126 63.2051L15.4556 63.1251L15.4066 62.7631L15.4766 62.5871L15.5996 62.5481L15.7066 62.8611L15.7806 62.9901L15.7307 63.1471ZM13.6556 66.4991L13.3846 66.6431L13.2846 66.8141L13.0346 66.8721L12.7916 67.1121L12.5557 67.1551L12.5616 67.3481L12.6627 67.5111L12.5056 67.5401L12.3406 67.7391L12.3276 67.8841L12.3867 68.0001L12.3787 68.0591L12.1707 68.2311L11.9556 68.2391L11.9467 68.0531L11.9606 67.9141L12.1636 67.5761L12.1686 67.1831L12.3566 67.1381L12.4246 67.0831L12.7216 66.8031L12.7766 66.6841L12.6226 66.5681L12.6346 66.4311L12.6696 66.3731L12.9136 66.4171L13.0126 66.5191L13.0616 66.5301L13.2047 66.4541L13.2716 66.3181L13.5377 66.0501L13.6456 65.7841L13.8607 66.0021L13.8026 66.2881L13.6556 66.4991ZM52.7487 66.6131L52.6967 66.6151L52.5206 66.2841L52.5717 66.2681L52.6746 66.3201L52.7877 66.5111L52.7487 66.6131ZM5.75665 72.4151L5.51965 72.4951L5.26562 72.4481L5.30664 72.0191L5.39465 72.0791L5.44965 72.2251L5.63861 72.3111L5.75665 72.4151ZM2.52563 73.1131L2.36066 73.5971L2.22363 73.6671L2.08362 73.6281L1.93964 73.3581L2.04065 73.2541L2.18066 73.3091L2.29364 73.2881L2.55066 72.8941L2.61261 72.9581L2.52563 73.1131ZM1.39166 73.8351L1.21466 73.8781L1.00165 73.8251L0.807617 73.8101L0.805664 73.7191L1.00861 73.6251L1.01263 73.4941L1.06262 73.4231L1.52161 73.5841L1.50165 73.7021L1.39166 73.8351Z" fill="#CCCCCC" stroke="white" stroke-width="0.5"/>
</svg>
