<svg width="24" height="31" viewBox="0 0 24 31" fill="none" xmlns="http://www.w3.org/2000/svg">
<path d="M23.247 5.57306L22.902 6.06506L22.488 6.65506L21.725 7.74005L21.145 8.31107L20.707 8.74307L20.666 8.82108L20.668 9.30206L20.673 10.4781L20.682 12.8291L20.691 15.179L20.7 17.5291L20.704 18.7041L20.706 19.0991L21.091 19.593L21.467 20.076L21.964 20.7141L22.231 21.0561L22.275 21.1701L22.261 21.399L21.852 21.8781L21.517 22.0961L21.066 22.2001L20.931 22.1801L20.754 22.1121L20.685 22.2271L20.633 22.4061L20.533 22.3681L20.458 22.3151L20.503 22.6331L20.549 22.7901L20.48 23.0001L20.261 23.1851L20.241 23.3421L19.767 23.7521L19.094 23.7971L18.74 24.0011L18.583 24.1681L18.463 24.5331L18.505 25.0921L18.317 25.5221L18.282 25.7381L17.934 26.0171L17.78 26.2731L17.666 26.5341L17.567 26.6481L17.449 27.2321L17.287 27.5871L17.243 27.705L17.203 27.8111L17.078 28.0191L16.996 28.1631L16.937 28.257L16.527 29.1671L16.207 29.5781L15.956 29.5311L15.789 29.6901L15.771 29.7651L15.682 29.7231L15.473 29.5721L15.042 29.2631L14.611 28.9541L14.18 28.6451L13.749 28.3361L13.318 28.0271L12.887 27.718L12.456 27.4091L12.025 27.1001L11.772 26.9191L11.661 26.8121L11.573 26.5991L11.531 26.5461L11.416 26.4791L11.281 26.4641L11.242 26.4231L11.243 26.3201L11.289 26.1721L11.448 25.8891L11.465 25.722L11.434 25.5331L11.385 25.2301L11.342 25.1611L11.056 25.0021L10.458 24.6701L9.85999 24.3381L9.26202 24.0061L8.66302 23.6741L8.065 23.3421L7.46698 23.0101L6.86902 22.6781L6.271 22.3461L5.672 22.0141L5.07397 21.6821L4.47498 21.3501L3.87701 21.0181L3.27899 20.6861L2.68103 20.3541L2.08301 20.0221L1.48401 19.6901L1.25897 19.5651L1.05701 19.4601H0.843018L0.833984 18.985L0.901978 17.7761L0.893982 16.7141L0.955017 16.1821L1.21899 15.8451L1.341 15.6001L1.42798 15.2581L1.56598 14.9791L1.87903 14.7521L1.935 14.6271L2.26703 14.248L2.466 13.761L2.61603 13.5951L2.80402 13.442L2.93597 13.3611L3.15399 13.2801L3.32501 13.2341L3.35602 13.1951L3.37097 13.1161L3.31403 12.8141L3.38702 12.7151L3.50299 12.5131L3.63599 12.3251L3.75598 12.205L3.823 12.0821L3.854 11.8701L3.85901 11.7191L3.85797 11.4731L3.82001 10.9141L3.67902 10.4461L3.59198 9.92206L3.65601 9.75006L3.54498 9.44305L3.48999 9.42606L3.40002 9.35907L3.284 9.06906L3.19702 8.80505L3.14301 8.73907L2.76703 8.50806L2.58002 7.96307L2.37 7.84207L2.25598 7.30005L2.23401 7.14606L2.35303 6.60507L2.341 6.48105L2.21503 6.36707L1.862 6.25006L1.57599 6.02707L1.61298 5.94907L1.63397 5.86807L1.48297 5.81406L1.04498 4.88907L1.60797 4.33307L2.17902 3.77005L2.90802 3.05707L3.57703 2.40207L4.15503 1.83606L4.67102 1.33105L4.65802 1.42706L4.65997 1.55505L4.724 1.63306L4.83002 1.68707L4.97699 1.63007L5.10602 1.55106L5.23199 1.53406L6.00702 1.74405L6.13702 1.92706L6.12799 2.12405L6.16199 2.26706L6.10199 2.41107L6.03802 2.84506L6.05798 3.24307L6.289 3.53806L6.49701 3.76907L6.66199 4.09406L6.784 4.19406L6.95203 4.24606L7.48499 4.26007L8.27399 4.28107L9.03302 4.30106L9.10199 4.30905L9.263 4.35306L9.96198 4.79105L10.602 5.19305L11.144 5.54205L11.67 5.88107L12.181 6.21106L12.577 6.48407L12.968 6.56705L13.603 6.60706L14.042 6.62106L14.448 6.73605L15.052 6.84305L15.502 6.89807L15.774 6.96005L16.529 7.02307L16.654 6.98605L16.987 6.68307L17.36 6.19006L17.506 5.91907L17.988 5.64905L18.835 5.27307L19.432 5.00705L20.096 4.74005L20.398 4.97107L20.814 5.34207L21 5.52505L21.149 5.60605L21.375 5.66006L21.65 5.66107L21.8 5.65308L22.107 5.60507L22.825 5.56107L23.247 5.57306ZM20.75 22.6891L20.646 22.7131L20.7 22.5531L21.008 22.3481L21.133 22.3941L21.157 22.4401L21.15 22.4831L21.098 22.5251L20.75 22.6891Z" fill="#CCCCCC" stroke="white" stroke-width="0.5"/>
</svg>
