<svg width="33" height="16" viewBox="0 0 33 16" fill="none" xmlns="http://www.w3.org/2000/svg">
<path d="M31.806 4.56192L31.8619 4.78891L31.9099 5.05292L31.8799 5.1149L31.8259 5.15692L30.9659 5.22189L30.7719 5.29492L30.564 5.65891L29.8279 5.9509L29.408 6.10092L29.2379 6.09491L28.83 6.33392L27.6909 6.92889L27.1309 7.30389L26.8499 7.46091L26.624 7.6319L26.5859 7.8049L26.5779 7.9679L25.9529 8.73291L25.4839 8.82492L25.088 8.80692L24.8179 8.92291L24.4319 9.03992L23.5959 8.9599L23.3109 8.9729L22.762 8.86792L22.5399 8.92291L22.306 9.07791L21.981 9.68491L21.8489 9.8269L21.788 9.9649L21.7379 10.2589L21.614 10.5699L21.455 10.8149L21.34 11.0419L21.1049 11.2609L20.887 11.3989L20.718 11.1109L20.572 11.1929L20.4319 11.3099L20.168 11.2689L20.0049 11.3279L19.6329 11.5779L19.0869 11.5689L19.0269 11.4829L18.9189 10.7949L18.8239 10.4679L18.7449 10.3949L18.6469 10.3869L17.8619 10.9289L17.4979 11.0249L17.1989 11.0419L16.8079 10.8799L16.723 10.9199L16.6559 11.0069L16.6279 11.1179L16.7419 11.4249L16.71 11.4849L16.5339 11.4799L16.288 11.5509L16.0999 11.6919L15.5359 12.1859L15.0609 12.3509L14.619 12.4159L14.4379 12.4709L14.3569 12.5299L14.2089 12.7649L14.0569 13.1329L13.978 13.3119L13.9189 13.4159L13.931 13.5519L14.051 13.7269L14.142 14.1199L14.1209 14.2219L14.0239 14.3859L13.8839 14.5469L13.5829 14.6439L13.3469 14.6929L13.1899 14.6609L12.895 14.6499L12.6619 14.7139L12.5179 14.8239L12.2339 14.9609L11.8809 15.0069L11.4319 15.0249L11.2159 15.0129L10.564 14.9209L10.3489 14.9529L10.1439 15.0239L9.77191 15.0989L9.57391 15.3269L9.46991 15.5359L9.41394 15.5659L9.18195 15.3739L9.00494 15.1939L8.88892 15.0439L8.74292 15.0479L8.22394 15.3199L8.14691 15.3109L7.99896 15.2069L8.02594 14.9499L8.01593 14.7859L7.84894 14.6989L7.49493 14.6769L7.37494 14.5839L7.38196 14.4449L7.41394 14.3119L7.37396 14.2089L7.28192 14.1309L7.09595 14.1519L6.88293 14.2579L6.72693 14.3789L6.53094 14.4359L6.29297 14.4579L6.14496 14.5309L5.97595 14.8259L5.39893 14.8879L5.21295 14.8209L5.06091 14.6119L4.86194 14.2739L4.75092 14.2319L4.56293 14.1899L4.25592 14.2099L3.84296 14.3519L3.74292 14.2349L3.63593 14.2009L3.53894 14.2979L3.43994 14.2869L3.03192 14.3139L2.51495 14.3009L2.21991 14.2349L2.02893 14.2389L1.64893 14.3899L1.44794 14.3889L1.18396 14.4159L1.13495 13.9049L0.990967 13.5589L1.03491 13.3189L1.13092 12.9889L1.21094 12.8029L1.37396 12.8819L1.56091 13.0179L1.68494 12.9819L1.71796 12.8699L1.66992 12.7229L1.66296 12.6129L1.73291 12.4679L1.83594 12.3329L2.49591 12.1109L3.06091 11.9489L3.35492 12.0569L3.92395 12.3049L4.21692 12.4329L4.42096 12.5079L4.59991 12.8709L4.71692 12.8539L4.83496 12.7809L4.90497 12.6919L4.96191 12.3829L5.22693 12.2089L5.80994 12.0029L5.85095 11.8819L5.84192 11.8149L5.93396 11.7559L6.22595 11.6959L6.81592 11.6389L7.01593 11.6819L7.24493 11.8039L7.42194 11.9249L7.58997 11.9209L7.72894 11.8959L7.78894 11.9299L7.83295 12.0369L7.90497 12.1329L8.13092 12.0019L8.33496 11.8329L8.49591 11.8089L8.64392 11.7449L8.68695 11.6319L8.80292 11.4439L9.13593 11.0849L9.30896 11.0269H9.42096L9.42694 11.0849L9.48096 11.1379L9.77191 11.2209L9.86096 11.1259L9.90796 10.9949L9.80597 10.7869L9.80396 10.6999L9.84192 10.6199L9.89594 10.5719L10.361 10.7699L10.4639 10.7659L10.676 10.6549L10.8699 10.4599L10.9399 10.3059L11.8909 9.80591L11.9579 9.7149L11.9449 9.6489L11.546 9.53192L11.366 9.59689H11.2L11.0989 9.52292L10.6149 9.4949L10.5089 9.4429L10.1879 9.0809L9.96692 8.9429L9.78894 8.8519L9.59595 8.8649L9.36597 8.9599L9.29492 8.9169L9.27496 8.76492L9.27594 8.57391L9.22894 8.3689L9.09192 8.32092L8.91492 8.40192L8.65094 8.31891L8.42596 8.28891L8.36792 7.8559L8.27692 7.6709L8.18396 7.4769L8.08594 7.4209L7.92596 7.32391L7.91595 7.09491L7.88196 7.02991L7.82495 6.9989L7.74792 7.0249L7.64893 7.1409L7.69794 7.39392L7.65991 7.64691L7.60193 7.7739L7.48993 7.86792L7.36194 7.8699L7.13995 7.74191L7.10492 8.5079L7.06195 8.5549L6.79694 8.4469L6.58496 8.49292L6.26892 8.44592L6.03192 8.31992L5.85394 8.28491L5.56696 8.17792L5.34796 8.0379L5.21295 7.5239L5.08496 7.3399L4.96393 7.3009L4.47491 7.47891L4.29596 7.34091L3.96594 7.16492L3.71594 7.09891L3.64893 7.00391L3.65991 6.8869L4.42993 6.31192L4.73291 5.91589L4.92291 5.74789L5.19495 5.6369L5.40692 5.5719L5.51495 5.20691L5.55597 5.16492L5.70691 5.13791L6.04895 4.98792L6.59991 4.6669L6.61096 4.57892L6.55493 4.5029L6.32391 4.33792L6.05994 4.20691L5.89996 4.2749L5.80896 4.34192L5.65796 4.17191V3.99692L5.82495 3.6969L5.96497 3.54691L6.02393 3.2569L6.22192 3.0629L6.42896 2.75491L6.67993 2.5029L7.14392 2.3139L7.40295 2.37592L7.64594 2.33191L8.02191 2.17889L8.09393 2.16891L8.25195 2.1669L9.21991 2.40091L9.53992 2.4119L10.2899 2.71591L10.6349 2.78192L10.879 2.86792L10.989 2.9989L11.1649 3.15991L12.1069 3.28992L12.366 3.37592L12.4589 3.51691L12.728 3.69592L12.9569 3.73691L12.757 3.0369L12.8369 2.6199L13.1349 1.4769L13.291 1.30389L13.59 1.15091L14.0599 0.979919L14.2379 0.740906L14.6229 0.764923L14.7899 0.743896L14.905 0.700897L14.968 0.566895L15.4019 0.799896L16.1279 1.27191L16.676 1.57092L17.322 1.85291L18.2159 2.10989L18.9719 2.19492L19.1019 2.13391L19.405 1.74292L19.5479 1.72592L19.806 1.75992L20.6079 1.77792L21.4249 1.79691L21.8099 1.75891L22.6459 1.59592L22.7689 1.58792L22.963 1.59891L23.463 1.82092L23.8369 1.8519L24.0909 1.85092L24.239 1.8689L24.549 1.8609L25.0519 1.8869L25.674 2.03091L26.4229 2.00491L26.663 1.97791L27.08 2.00391L27.4109 2.1409L27.83 2.28592L28.093 2.34689L28.2689 2.3779L28.5829 2.38892L28.7709 2.3439L28.8779 2.40692L28.9839 2.76089L29.244 2.99292L29.447 3.21191L29.6169 3.45392L29.7899 3.55292L30.0949 3.55591L30.6699 3.62491L30.9999 3.72092L31.4219 4.13791L31.806 4.56192ZM6.53894 13.0789L6.56494 13.0269L6.46191 12.7599L6.60095 12.5099L6.32593 12.4679L6.18494 12.3939L6.02692 12.1409L5.97491 12.1289L5.89294 12.1979L5.84894 12.3639L5.88794 12.5429L5.99994 12.6639L6.07391 12.7039L6.08496 12.7119L6.08191 12.7709L5.99194 13.0669L6.13892 13.1049L6.39691 13.1099L6.53894 13.0789ZM8.14795 12.8689L8.17596 12.7039L8.10791 12.7119L8.02692 12.7569L7.87195 12.8019L7.83795 12.8839L7.94196 12.9879L8.07391 13.0259L8.14795 12.8689ZM5.12292 13.3239L5.11292 13.2489L5.01697 13.2139L4.74493 13.1739L4.55096 13.1159L4.50891 13.1149L4.52692 13.1869L4.60992 13.3139L4.72394 13.4499L4.87091 13.4649L5.12292 13.3239Z" fill="#CCCCCC" stroke="white" stroke-width="0.5"/>
</svg>
