<svg width="16" height="14" viewBox="0 0 16 14" fill="none" xmlns="http://www.w3.org/2000/svg">
<path d="M6.77136 13.4839L6.31134 13.1149L5.39838 12.9859L5.29938 12.8229L5.21136 12.7909L5.12738 13.0029L4.62537 13.2059L4.41534 13.0829L4.26239 12.9349L4.28436 12.7529L4.43036 12.6049L4.67938 12.4989L4.79437 12.1249L4.60437 11.6459L4.43835 11.5059L4.26239 11.3959L4.07739 11.5739L3.92236 11.8789L3.76038 12.0359L3.53137 12.0709L3.19635 12.0579L3.06635 11.6029L3.02338 11.2129L3.06934 10.7669L3.12036 10.5029L2.79834 10.1389L2.77936 9.79187L2.62439 9.61288L2.57837 9.70389L2.58234 9.80386L2.53839 9.73187L2.02838 8.71188L1.94336 8.23889L2.03137 7.87387L2.08234 7.75189L1.93536 7.55988L1.72937 7.34189L1.36438 7.05588L1.34039 6.60287L1.25836 6.06888L1.14935 5.88788L0.982361 5.55887L0.891357 5.28589L0.860352 4.56387L0.907349 4.50589L1.16638 4.48486L1.49835 4.43289L1.55139 4.31686L1.49237 4.21988L1.70435 4.05588L2.00934 3.69687L2.24438 3.32187L2.41437 3.08487L2.51538 2.84988L2.85736 2.51688L3.33038 2.28687L3.65039 2.23288L3.98438 2.15488L4.30334 2.04288L4.45538 2.03189L4.85138 2.16687L5.06635 2.20087L5.29236 2.19888L5.52539 2.21387L5.72839 2.19989L6.21436 2.10587L6.73138 2.18088L7.19238 2.12189L7.76239 2.01288L8.04236 2.08188L8.29736 2.19089L8.33234 2.41187L8.3924 2.51288L8.47736 2.59088H8.59039L8.73639 2.43689L8.85736 2.27789L8.89734 2.24887L8.90338 2.32687L8.96436 2.49887L9.07239 2.66788L9.18237 2.77988L9.36536 2.92886L9.48438 2.93588L9.87537 2.79489L10.4594 2.99988L10.5273 3.10287L10.7164 3.31088L10.9203 3.45987L11.3763 3.46988L11.5384 3.10187L11.4604 2.87787L11.2004 2.48688L11.1294 2.25589L11.2123 2.21487L11.6523 2.17087L11.7234 2.12589L11.8204 1.87286L11.9404 1.90189L12.1844 1.93488L12.4424 1.76187L12.5953 1.57986L12.6783 1.66287L12.7704 1.79086L12.8704 1.86487L13.0564 1.97488L13.2604 2.12888L13.3874 2.27988L13.4904 2.33887L13.7524 2.29688L13.8224 2.30289L13.9734 2.11887L14.0793 2.01889L14.1703 2.04688L14.3024 2.04489L14.5743 1.81088L14.7303 1.59686L14.8163 1.53787L15.0604 1.64487L15.1584 1.62286L15.3004 1.32889L15.4524 1.21289L15.4974 1.37189L15.3794 1.67288L15.2534 1.94489L15.0184 2.18289L15.0063 2.35788L14.9254 2.87888L14.9564 3.04489L15.0114 3.18689L15.0884 3.26288L15.2924 3.77289L15.4794 4.23587L15.6634 4.61588L15.6954 4.85587L15.5264 5.46487L15.3304 6.02386L15.3474 6.30188L15.4324 6.57986L15.5223 6.95087L15.5554 7.42487L15.5063 7.73389L15.4174 7.92587L15.2474 8.12189L15.1003 8.22287L14.9224 8.05588L14.7804 8.04889L14.5914 8.09888L14.4424 8.17587L14.1384 8.46487L13.8014 8.74588L13.3354 8.81787L13.1544 9.02588L12.9604 9.05487L12.5923 9.06589L12.3514 9.11389L12.3624 9.21887L12.3423 9.71289L12.3474 9.82889L12.3104 9.85986L12.1434 9.87488L11.8614 9.79889L11.4794 9.67688L11.2073 9.65787L11.0674 9.87286L10.9844 9.95688L10.8804 9.96988L10.7734 10.0079L10.7374 10.1039L10.7284 10.2239L10.7804 10.4289L10.8004 10.7549L10.7864 10.9769L10.8864 11.1179L11.4703 11.5899L11.6424 11.7079L11.6624 11.7779L11.5604 12.0349L11.6514 12.3959L11.4684 12.3889L11.1624 12.2339L11.0164 12.1389L10.8394 12.2149L10.7773 12.2009L10.6584 12.0229L10.5024 11.8419L10.3414 11.8299L10.0013 11.9009L9.65338 11.9509L9.52136 11.9499L9.46637 11.9829L9.26538 12.2529L9.18036 12.2069L8.82935 12.1039L8.51038 12.0649L8.44537 12.1339L8.48438 12.3539L8.55438 12.5679L8.51239 12.6589L8.33636 12.7719L8.10535 12.9749L7.96234 13.1329L7.86334 13.1719L7.51038 13.1649L7.15839 13.1859L7.01636 13.3349L6.88434 13.4509L6.77136 13.4839ZM2.89539 11.0029L2.84534 11.0299L2.79736 11.0289L2.74939 10.9869L2.75439 10.8229L2.78937 10.7229L2.87134 10.7039L2.89539 11.0029ZM3.65936 12.6119L3.5564 12.7219L3.39337 12.4949L3.39435 12.4319L3.65936 12.6119Z" fill="#CCCCCC" stroke="white" stroke-width="0.5"/>
</svg>
