<svg width="19" height="21" viewBox="0 0 19 21" fill="none" xmlns="http://www.w3.org/2000/svg">
<path d="M18.0206 2.25378L18.0966 2.4838L18.2766 2.70779L18.3706 2.87079L18.3896 3.03979L18.4716 3.1348L18.3286 3.23978L18.1406 3.17578L17.8276 3.13779L17.4266 3.46878L17.2047 3.58478L17.0486 3.90979L16.7357 4.10278L16.5646 4.3078L16.3427 4.66278L16.1967 5.00479L15.8596 5.3548L15.6627 5.79379L15.6516 6.1698L15.8666 6.55377L15.8867 6.87979L15.7366 7.54977L15.8196 8.25879L15.7266 8.5358L14.6946 9.01978L14.4246 9.26077L14.0457 9.88577L13.5836 10.1178L13.2966 10.3718L12.8997 10.5218L12.6456 10.9598L12.3666 11.2078L12.0346 11.3588L11.7856 11.5528L11.2296 11.5648L10.8366 11.6998L10.5576 12.0628L9.71863 12.4778L9.60461 12.7908L9.66064 13.2728L9.66565 13.6418L9.59265 13.9448L9.40863 13.8598L9.30963 13.9588L9.20062 14.2388L9.23163 14.5568L9.51965 14.6598L9.75464 14.7898L10.0856 14.8558L10.3306 15.0028L10.8516 15.6728L11.2766 15.9648L11.3867 16.0728L11.6306 16.2198L11.8557 16.4498L11.9826 16.6558L11.8836 16.7118L11.7147 17.0128L11.5566 17.3938L11.4047 17.5998L11.2296 17.7138L11.0406 17.7808L10.6656 17.8098L10.3267 17.7838L10.2177 17.7428L9.75165 17.7668L9.61963 17.7938L8.95062 17.7648L8.60065 17.7958L8.37762 17.8698L8.15063 18.0238L7.95563 18.2548L7.78363 18.5018L7.43365 18.9528L7.18866 19.1718L7.18762 19.4878L7.18164 19.5838L7.09564 19.6508L7.06665 19.6218L6.92462 19.5988L6.35565 19.3098L5.88666 19.4858L5.76862 19.7148L5.64465 19.7888L5.45764 19.3398L5.15265 19.3258L4.66864 18.9298L4.46063 19.0108L4.40765 19.1698L4.14166 19.5338L3.77063 19.8338L3.65063 19.8738L3.51361 19.8528L3.53363 19.7698L3.38263 19.4328L2.79663 19.2968L2.58563 19.1528L2.47864 19.1218L3.05261 18.7448L3.20264 18.6778L3.09064 18.5898L2.96661 18.5468L2.49561 18.6028L2.24963 18.4788L1.89166 18.5188L1.64264 18.4208L2.15863 18.0498L2.18164 17.8308L2.17566 17.6638L2.43665 17.1698L2.69965 16.8968L3.38062 16.5078L3.67664 16.4538L3.89166 16.4698L4.06763 16.4338L3.88263 16.2848L3.70166 16.2168L3.34961 16.2308L2.98462 16.0068L2.95264 15.7698L3.66064 14.2688L3.67065 14.1318L3.56061 13.7648L3.52466 13.4068L3.01666 13.2008L2.79163 13.1758L2.14062 12.7708L1.88062 12.5658L1.77765 12.6268L1.75861 12.9508L1.66565 13.0228L1.49463 13.0858L1.40863 12.7158L1.26764 12.4478L0.835632 12.1748L0.681641 12.0248L0.755615 11.6988L0.719604 11.6698L0.787659 11.3038L1.05261 11.0208L1.70166 10.5168L1.86865 10.2798L2.19861 10.0008L2.34662 10.0068L2.49963 9.98279L2.54565 9.86078L2.58063 9.7648L2.71265 9.6778L3.02966 9.52377L3.38965 9.3208L3.67761 9.26379L4.03064 8.9588L4.17462 8.8248H4.31964L4.35864 8.76178L4.44061 8.60379L4.55261 8.49979L4.70862 8.4798L4.96362 8.40479L5.28363 8.3588L5.50165 8.10178L5.57562 7.91779L5.72064 7.71579L6.02661 7.49478L6.23761 7.16779L6.47064 6.81277L6.5816 6.69879L6.69061 6.67578L6.75464 6.54178L6.82965 6.16278L6.93665 5.79379L6.99963 5.61978L7.26965 5.42978L7.33765 5.33679L7.39862 5.30579L7.52362 5.33078L7.69165 5.21878L7.84863 5.09479L7.99261 5.13779L8.13861 5.24078L8.29065 5.4458L8.35864 5.6088L8.47864 5.74478L8.50165 5.94278L8.62262 6.02878L8.87866 6.07178L9.29761 6.20679L9.5686 6.21378L9.72363 6.31479L10.0476 6.36978L10.6956 6.29077L10.9606 6.33679L11.0717 6.46078L11.2357 6.55878L11.3427 6.56479L11.4857 6.39578L11.6386 6.1218L11.7396 5.91177L11.7357 5.74478L11.6466 5.56479L11.4337 5.3978L11.2927 5.13879L11.1586 4.87079L11.0797 4.78378L11.0156 4.65378L11.0037 4.4538L11.0496 4.31879L11.3726 4.22879L11.7866 4.17578L12.1216 4.23279L12.6816 4.19479L13.0256 4.11978L13.2806 4.1308L13.5146 4.12979L13.6187 4.0148L13.9456 3.73779L14.1036 3.63879L14.2776 3.45078L14.3046 3.25378L14.3397 3.09378L14.4376 2.9238L14.6096 2.7128L14.7556 2.61578L14.9186 2.62878L15.0897 2.7258L15.1986 2.82278L15.3217 2.7948L15.4246 2.62878L15.4916 2.59677L15.6866 2.58179L15.7496 2.4798L15.8246 1.99078L15.8997 1.6048L15.9156 1.3338L16.0906 0.884796L16.1466 0.6138L16.2506 0.487793L16.3706 0.496796L16.4716 0.576782L16.5986 0.622772L16.7676 0.578796L16.8867 0.647797L16.9606 0.793793L17.2106 0.893799L17.2336 0.966797L17.2277 1.4538L17.3646 1.68179L17.5486 1.88779L17.7996 2.0748L17.9346 2.11679L18.0206 2.25378ZM2.24365 13.3738L2.08661 13.4778L2.07764 13.2918L2.19965 13.1348L2.32666 13.1138L2.24365 13.3738Z" fill="#CCCCCC" stroke="white" stroke-width="0.5"/>
</svg>
