<svg width="16" height="20" viewBox="0 0 16 20" fill="none" xmlns="http://www.w3.org/2000/svg">
<path d="M3.09589 3.65417L3.18188 3.58719L3.18787 3.49118L3.1889 3.17517L3.4339 2.95618L3.78387 2.50519L3.95587 2.25818L4.15088 2.02719L4.37787 1.87317L4.60089 1.79919L4.95087 1.76819L5.61987 1.79718L5.75189 1.77017L6.2179 1.74619L6.3269 1.78717L6.66589 1.81317L7.04089 1.78418L7.22986 1.71719L7.40491 1.60318L7.55688 1.39719L7.7149 1.01617L7.88385 0.715179L7.98285 0.65918L8.66888 2.25418L9.32385 3.28018L9.88287 4.02017L10.6789 5.43918L10.9119 6.19519L10.9339 6.66217L11.0669 7.30319L10.9539 7.6702L10.9869 8.24719L10.9369 8.54318L10.8389 8.76117L10.8359 9.17917L10.8669 9.40219L10.8699 9.69818L10.9329 9.81317L11.0239 9.85519L11.1689 9.74817L11.3459 9.70319L11.3149 10.0582L11.1009 10.9552L10.9149 11.6062L10.6619 12.1722L10.3399 12.6892L9.95386 12.8912L9.68286 12.9632L9.16486 12.9892L8.73486 12.9022L8.36591 12.9652L8.2179 13.0722L8.10785 13.2562L8.1889 13.5412L8.17786 13.7512L8.0199 13.7352L7.70685 13.6132L7.35986 13.5962L7.19788 13.5352L7.03387 13.2342L6.86688 13.2452L6.5769 13.4242L6.13287 13.4642L5.97687 13.5612L5.9209 13.6862L5.98486 13.8442L6.20886 14.0512L6.13385 14.2602L5.90186 14.3642L5.71387 14.1072L5.59686 13.8552L5.46588 13.8412L5.2619 13.9132L5.22089 14.1852L5.31586 14.3702L5.47186 14.5852L5.25287 14.8322L5.19489 15.0082L5.0379 15.1342L4.61389 14.8532L4.67487 14.6532L4.85889 14.4612L4.88086 14.2612L4.81989 14.1432L4.21387 14.6472L3.8399 15.2172L3.63989 15.1752L3.55688 15.0292L3.43988 14.9692L3.03589 15.3362L2.96185 15.6272L2.8139 15.6382L2.7489 15.5152L2.7439 15.2512L2.67487 15.0292L2.25586 14.7052L2.06586 14.4212L2.16888 14.2622L2.51886 14.3482L2.7959 14.3372L2.74091 14.2022L2.6499 14.1382L2.8349 14.0622L2.98889 13.9072L2.8609 13.8652L2.66687 13.9552L2.50488 13.9112L2.44086 13.5382L2.2439 13.1552L2.14087 12.7832L2.33588 12.5692L2.43488 12.2352L2.61688 11.7512L2.70789 11.5942L2.95886 11.4802L3.04785 11.3552L2.90985 11.2912L2.68988 11.2342L2.69489 11.0942L2.84485 11.0182L3.01288 10.8632L3.33685 10.6752L3.43787 10.3202L3.34387 10.2302L3.14087 10.1462L3.18689 9.96619L3.27087 9.82919L3.23889 9.74719L2.99988 9.5152L2.84186 9.30417L2.88885 9.06317L2.85291 8.69818L2.8739 8.39117L2.86285 8.22418L2.74585 7.84918L2.69287 7.47217L2.53986 7.52719L2.41589 7.62119L1.9729 7.48819L1.83185 7.48019L1.7749 7.2002L1.9339 6.85519L2.31085 6.55017L2.52789 6.51218L2.69086 6.37817L2.94586 6.33618L3.25189 6.54419L3.52588 6.58618L3.67786 6.94318L3.77185 7.0192L3.79187 6.88818L4.01385 6.73419L4.06689 6.61819L4.01886 6.55417L3.76385 6.49118L3.53485 6.04718L3.50287 5.85217L3.41986 5.72818L3.54291 5.37219L3.27789 4.96518L3.14886 4.83719L3.16791 4.47018L3.02991 4.23718L2.95288 4.10919L2.90588 3.88718L2.94586 3.78717L3.06586 3.74918L3.09589 3.65417ZM2.77789 3.81317L2.76489 4.28018L2.60986 4.26019L2.50488 4.2132L2.4599 4.12219L2.35388 3.68918L2.4729 3.51019L2.7019 3.65219L2.77789 3.81317ZM15.1139 4.72519L14.9859 4.82919L14.8349 4.72519L14.8159 4.6142L14.8949 4.51819L15.0789 4.46017L15.1649 4.54419L15.1139 4.72519ZM2.48785 8.17319L2.44989 8.39819L2.26385 8.25018L2.2099 7.7562L2.40088 7.90018L2.48785 8.17319ZM9.00989 13.9992L8.74487 14.2092L8.38788 13.9272L8.30286 13.7722L8.57385 13.5432L8.80389 13.2822L8.9549 13.2662L9.00989 13.9992ZM7.11389 13.9742L7.08289 14.3072L6.88489 14.3242L6.76691 14.1102L6.64087 14.2142L6.57587 14.2162L6.47589 13.9492L6.45886 13.7412L6.69189 13.5822L6.83386 13.6772L7.03589 13.7262L7.11389 13.9742ZM1.79987 14.2282L1.76288 14.3102L1.64087 14.2862L1.51489 14.0522L1.46289 13.8662L1.33789 13.7642L1.53687 13.6032L1.78986 13.8932L1.79987 14.2282ZM6.36591 14.6222L6.33386 14.7272L6.19189 14.5682L6.33289 14.3942L6.36591 14.6222ZM1.9729 15.4512L1.79291 15.5032L1.69189 15.3862L1.62189 15.3552L1.66187 15.2022L1.95386 14.9012L2.0119 14.7972L2.2829 14.8602L2.38385 15.0202L2.25989 15.2622L1.9729 15.4512ZM3.43091 15.5412L3.47791 15.7022L3.25085 15.6722L3.13086 15.5172L3.14685 15.3842L3.28186 15.3652L3.43091 15.5412ZM2.23389 19.3062L2.10785 19.3802L1.99091 19.3362L1.9599 19.3012L1.81787 19.1102L1.78186 19.0122L1.87689 18.8242L2.26489 18.5152L3.26886 18.2172L3.44989 18.2042L3.84589 18.3322L3.93091 18.5712L3.85785 18.7772L3.76691 18.9152L3.30786 19.1472L2.94989 19.2582L2.23389 19.3062Z" fill="#CCCCCC" stroke="white" stroke-width="0.5"/>
</svg>
