<svg width="116" height="64" viewBox="0 0 116 64" fill="none" xmlns="http://www.w3.org/2000/svg">
<path d="M114.77 29.9211L114.51 29.8361L114 29.8181L113.689 29.8711L113.543 29.9011L113.325 30.0761L113.17 30.2501L113.102 30.5461L113.184 30.8801L113.072 31.5741L112.92 31.8351L112.6 32.2881L112.414 32.3861L112.102 32.4671L111.802 32.6011L111.214 32.7311L110.579 32.7971L110.353 32.8941L110.192 33.2031L110.078 33.4601L110.008 33.6561L109.828 34.2941L109.726 34.8631L109.826 35.5681L109.901 36.3491L109.896 36.6181L110.051 37.0161L110.129 37.2601L110.092 37.6061L109.869 37.8781L109.735 38.2381L109.609 38.3911L109.246 38.4601L108.904 38.5021L108.559 38.8111L108.283 39.0241L107.851 39.2951L107.648 39.3461L107.536 39.2081L107.462 38.9011L107.314 38.7651L107.105 38.7541L106.937 38.7511L106.394 38.6681L106.046 38.6741L105.785 38.7401L105.487 38.7731L104.972 38.6611L104.639 38.5661L104.415 38.4751L103.88 38.2061L103.177 37.8861L102.889 37.7921L102.718 37.8881L102.692 38.0711L102.647 38.5141L102.565 38.7911L102.075 40.1871L101.772 41.1531L101.387 42.0761L101.265 42.6931L101.035 43.4721L100.806 44.0351L100.713 44.3411L100.705 44.4661L100.745 44.6411L101.096 44.8321L101.464 44.9491L101.545 45.0221L101.585 45.2201L101.571 45.5441L101.504 45.8501L101.398 46.0901L101.293 46.2091L101.173 46.2161L100.943 46.0621L100.738 45.8901L100.579 45.8381L100.175 45.9341L99.8008 46.0651L99.6758 46.0691L99.4587 45.9851L99.2397 45.8111L99.1528 45.4741L98.9648 45.3211L98.7128 45.4741L97.9628 45.7311L97.1368 46.0371L96.6118 46.1951L96.4067 46.1711L95.9998 46.2071L95.6467 46.2921L95.3818 46.4101L94.8588 46.5731L94.3837 46.6821L94.0778 46.9291L93.8577 47.1671L93.8668 47.2571L94.0267 47.3981L94.2098 47.5081L94.5757 47.4821L94.9327 47.4651L95.2297 47.6141L95.4957 47.7101L95.5687 47.8341L95.4957 47.9551L95.3417 47.9831L95.2878 48.0671L95.3148 48.1801L95.2128 48.4741L95.1597 48.9191L95.2128 49.3571L95.2418 49.7601L95.2228 49.9631L95.2128 50.2521L95.3257 50.4471L95.4268 50.8181L95.6077 51.0501L95.8807 51.8521L96.0417 52.3191L96.1898 52.8471L96.0828 53.1321L96.0898 53.2971L96.2637 53.4351L96.3398 53.7041L96.4208 53.8681L96.3987 54.0311L96.3248 54.0941L95.9478 53.9951L95.6387 54.1581L95.3107 54.3221L95.2668 54.4091L95.2578 54.5041L95.2908 54.5871L95.4797 54.7331L95.7408 54.8241L95.7278 54.9701L95.4048 55.0371L94.9178 55.2601L94.7828 55.4991L94.6788 55.7621L94.6697 55.9141L94.7188 56.3211L94.7928 56.7711L94.9318 57.2451L94.9427 57.3911L94.8707 57.4951L94.8038 57.5621L94.4167 57.1351L93.9948 56.7181L93.6647 56.6221L93.0898 56.5531L92.7847 56.5501L92.6118 56.4511L92.4418 56.2091L92.2388 55.9901L91.9788 55.7581L91.8727 55.4041L91.7657 55.3411L91.5778 55.3861L91.2637 55.3751L91.0878 55.3441L90.8248 55.2831L90.4058 55.1381L90.0748 55.0011L89.6578 54.9751L89.4178 55.0021L88.6688 55.0281L88.0468 54.8841L87.5438 54.8581L87.2338 54.8661L87.0858 54.8481L86.8317 54.8491L86.4578 54.8181L85.9578 54.5961L85.7637 54.5851L85.6407 54.5931L84.8047 54.7561L84.4197 54.7941L83.6028 54.7751L82.8008 54.7571L82.5428 54.7231L82.3998 54.7401L82.0967 55.1311L81.9667 55.1921L81.2108 55.1071L80.3168 54.8501L79.6708 54.5681L79.1227 54.2691L78.3967 53.7971L77.9628 53.5641L77.8998 53.6981L77.7847 53.7411L77.6177 53.7621L77.2327 53.7381L77.0547 53.9771L76.5848 54.1481L76.2858 54.3011L76.1298 54.4741L75.8317 55.6171L75.7518 56.0341L75.9518 56.7341L75.7228 56.6931L75.4537 56.5141L75.3608 56.3731L75.1017 56.2871L74.1597 56.1571L73.9838 55.9961L73.8738 55.8651L73.6298 55.7791L73.2847 55.7131L72.5347 55.4091L72.2148 55.3981L71.2468 55.1641L71.0887 55.1661L71.0168 55.1761L70.6407 55.3291L70.3978 55.3731L70.1387 55.3111L69.6747 55.5001L69.4238 55.7521L69.2167 56.0601L69.0187 56.2541L68.9598 56.5441L68.8198 56.6941L68.6528 56.9941V57.1691L68.8038 57.3391L68.5618 57.4961L68.2928 57.5451L68.1537 57.6411L68.0057 57.8721L67.8677 58.0701L67.7867 58.1401L67.6628 58.1271L67.5187 57.9731L67.3138 57.9801L67.0698 58.1701L66.7798 58.4791L66.4147 58.9501L66.0338 59.2001L65.5518 59.4121L65.2028 59.5061L64.9268 59.6671L64.4658 59.9931L64.3738 60.1851L64.0397 60.2981L63.7708 60.4281L63.5217 60.6451L63.4608 61.0281L63.3027 61.2481L62.9218 61.5491L62.6017 61.8531L62.3928 62.1511L62.1718 62.4661L62.1028 62.6391L62.0947 62.8761L62.1987 63.0751L62.2188 63.2641L62.1398 63.4011L61.9238 63.4531L61.6978 63.4131L61.3508 63.2781L60.9818 63.0361L60.8467 62.9171L60.6658 62.7131L60.6918 62.5241L60.7847 62.1551L60.8478 61.9021L60.6978 61.7811L60.5867 61.6511L60.5078 61.5261L60.3517 61.2791L60.1558 61.3401L59.9858 61.4011L59.7888 61.3141L59.2078 61.3521L58.7698 61.3801L58.3577 61.4061L57.8358 61.4401L57.2057 61.4811L57.0248 61.4271L56.9117 61.3451L56.7977 61.0041L56.7318 60.7141L56.6097 60.1711L56.5278 59.7501L56.4308 59.2481L56.3668 58.6921L56.3207 58.2961L55.8438 58.2831L55.4628 58.2731L54.9478 58.2591L54.9518 57.9431L54.9578 57.5441L54.9648 57.0891L55.0607 56.4911L55.0967 55.9891L55.1418 55.3741L55.1697 54.9671L55.2018 54.5181L54.9357 54.6571L54.6428 54.8101L54.3677 54.9531L54.1788 54.5901L53.9948 54.2361L53.7158 53.6971L53.5068 53.2931L53.1437 53.0561L52.8727 52.8811L52.5938 52.5861L52.3528 52.2791L52.1238 51.9871L51.8497 51.7341L51.5867 51.8141L51.2897 51.9731L51.0038 52.1251L50.7007 52.2871L50.5527 52.3661L50.2007 52.3361L49.8937 52.3101L49.3447 52.2631L48.8818 52.2231L48.4088 52.1821L47.7498 52.1251L47.0817 52.0681L46.6357 52.1441L46.0698 52.2391L45.4758 52.3391L44.9847 52.4221L44.3627 52.5261L43.8978 52.6041L43.6688 52.5931L43.3807 52.2651L42.9188 51.7381L42.6398 51.4181L42.3658 51.1041L41.9697 50.6511L41.6517 50.3071L41.3408 49.9711L41.1617 49.6601L41.0728 49.2681L40.9108 49.0901L40.5508 48.8501L40.1628 48.5921L39.7748 48.3341L39.3868 48.0761L38.9988 47.8171L38.6108 47.5581L38.2228 47.2991L37.8348 47.0391L37.4468 46.7791L37.0588 46.5191L36.6708 46.2581L36.2917 46.0001L35.9037 45.7391L35.5157 45.4771L35.1277 45.2151L34.7397 44.9531L34.3517 44.6911L34.0328 44.5001L33.7358 44.5501L33.2917 44.6841L32.8257 44.8241L32.3647 44.9631L31.5388 45.2111L31.0078 45.3711L30.5928 45.5051L30.1508 45.6481L29.5707 45.8351L29.0848 45.9921L28.5157 46.1761L28.0107 46.3391L27.5867 46.4751L27.1448 46.6181L26.7947 46.7301V47.6361V48.5381L26.7958 49.4371V50.3331V51.2251L26.7968 52.1131V52.9981V53.8791V54.7571L26.7977 55.6321V56.5041V57.3731L26.7988 58.2381V59.1001V59.9591L26.7997 60.8151L26.6797 60.8081L26.4108 60.8581L25.9608 60.9771L25.5867 61.0371L25.4227 61.0001L25.2758 60.9111L25.1467 60.7231L24.9548 60.4941L24.7578 60.3081L24.5128 59.9271L24.3428 59.6341L23.9238 58.9921L23.8647 58.7891L23.7867 58.5821L23.6467 58.4091L23.1528 57.9841L22.5778 57.6001L22.0137 57.2231L21.8547 57.1311L21.5908 57.0141L21.2657 57.0121L21.0438 57.0351L20.3677 57.1601L19.8488 57.3061L19.1458 57.5041L18.6008 57.7231L18.4788 57.7871L18.0807 58.0511L17.5938 58.4891L17.0248 59.1051L16.9507 58.7091L16.9258 58.0981L16.9357 57.9011L17.0908 57.3861L17.2477 57.0321L17.3738 56.6631L17.4308 56.1801L17.3138 55.4021L17.1827 55.2291L17.0258 55.1731L16.8577 55.1571L16.5488 55.1891L16.4048 55.2521L16.1537 54.9891L15.8508 54.9471L15.6907 55.0201L15.5287 55.0581L15.3528 54.9851L15.2007 54.8291L15.1077 54.6611L15.0358 54.4711L14.7977 54.0891L14.5618 53.8811L14.2758 53.8351L13.8088 53.8471L13.6617 53.8211L13.6537 53.6041L13.7128 53.1241L13.7137 52.8731L13.6808 52.6361L13.6028 52.4411L13.5038 52.2721L13.2258 51.9941L13.0157 51.6021L12.6647 50.7931L12.3577 49.8811L12.2228 49.7431L11.9487 49.5981L11.3497 49.4821L10.9548 49.3621L10.7997 49.2461L10.7347 49.0451L10.7368 48.8291L10.7687 48.5741L10.8608 48.3581L11.1747 48.1911L11.8577 48.1541L12.4407 48.1721L12.9697 48.5581L13.1428 48.6461L13.3307 48.6711L13.7048 48.5491L13.8907 48.5141L14.3588 48.5541L14.2188 48.3711L14.0428 48.2751L13.8608 48.2831L13.7037 48.2081L13.4448 47.8541L12.9957 47.4501L12.8918 47.2831L12.8597 47.0151L12.9468 46.7841L13.2648 46.5471L13.5358 46.2241L13.6588 45.7951L13.7698 45.5971L13.9998 45.2861L14.3478 45.3461L14.8898 45.1211L15.7767 45.1651L16.8387 45.1011L17.1307 45.1241L17.8077 45.3441L18.1968 45.4391L18.6697 45.4871L19.0107 45.3901L18.6898 45.0901L17.9927 44.7341L17.8138 44.4301L18.1328 43.6021L18.5648 42.8451L18.8287 41.9431L18.7548 41.0431L18.6288 40.7941L18.6697 40.5011L18.8198 40.2531L18.9258 40.0061L18.8337 39.7081L18.6437 39.2421L18.5458 39.0911L18.2128 38.8391L17.5438 38.8281L16.9977 38.6901L16.8207 38.8011L16.7208 38.9711L16.5958 39.0831L16.1708 39.3091L16.0287 39.3541L15.8807 39.3091L15.6718 39.0551L15.4858 39.0831L14.9227 38.9241L14.6578 38.5781L14.5588 38.5301L13.6487 38.2531L13.3328 38.2001L12.6077 38.4851L12.0828 38.8501L11.9348 38.9031L11.6638 39.1341L11.5107 39.1711L11.3538 39.1311L11.2048 39.1451L10.8878 39.4911L10.3138 39.8931L10.0287 40.1461L9.71075 40.3031L9.35675 40.4021L8.99573 40.4181L8.86273 40.5091L8.44977 40.5411L8.19775 40.6151L8.18878 40.7521L8.23877 41.0581L8.02478 40.9501L7.79974 41.1581L7.87378 41.3541L7.73877 41.3071L7.10675 40.9291L6.58777 40.6611L6.12677 40.4231L6.05975 40.3801L5.93378 40.2641L5.84375 40.0831L5.82477 39.8851L5.86975 39.7391L5.98175 39.6461L6.11377 39.6101L6.23077 39.6401L6.36078 39.7291L6.59277 39.8371L6.89374 39.8571L7.08173 39.7741L7.10675 39.5751L6.74878 38.8371L6.41876 38.2401L6.09973 37.5741L5.96478 37.3321L5.57373 36.7721L5.18774 36.2191L4.88275 35.7251L4.72278 35.5731L4.23077 35.5101L3.29279 35.3881L2.96075 35.3301L2.69476 35.4771L2.42773 35.5921L2.17474 35.3781L1.97473 35.0261L1.86975 34.7301L1.92078 34.4271L1.94177 33.9791L1.78876 33.5371L1.61975 33.3181L1.19574 33.1531L0.655762 32.7801L0.510742 32.0971L0.772766 31.1151L1.19476 30.4171L1.50177 30.1241L1.64777 29.8681L1.69574 29.6461L1.65875 29.4341L1.47675 29.2081L1.19476 28.9881L1.05176 28.7171L1.11078 28.1351L1.29773 27.2941L1.58575 26.6191L1.97174 26.2441L2.30475 25.9751L2.43573 25.7241L2.44275 25.3671L2.43475 25.0301L2.52374 24.7851L2.66376 24.5901L2.81177 24.4151L3.01978 24.2191L3.28973 24.1711L3.58673 24.3271L3.99078 24.7461L4.58276 25.5711L4.92078 26.1101L5.04279 26.2761L5.35175 26.5961L5.63074 26.7251L6.09576 26.5251L6.54175 26.2921L6.68573 26.1441L6.77777 25.9231L6.70673 25.5451L6.61377 25.2981L6.51477 24.9831L6.37775 24.4341L6.28076 23.5701L6.16577 23.2951L6.24976 23.2631L6.47375 23.3201L6.68079 23.3451L6.97675 23.1541L7.38275 22.7941L8.12573 22.2371L8.28278 21.8691L8.40973 21.4591L8.61578 21.2071L9.08875 21.1241L9.52673 20.9921L9.83575 20.7001L10.3198 20.4431L10.7178 20.2871L10.8928 20.1431L11.0178 19.9271L11.4738 19.3171L11.8317 18.9411L12.1467 18.5531L12.2518 18.3091L12.5007 18.3541L12.8807 18.5231L13.2888 18.6771L13.5878 18.9161L13.6467 19.1601L13.6758 19.3521L13.7968 19.4511L13.9418 19.4701L14.1597 19.4221L14.5408 19.4131L15.0078 19.0971L15.6578 18.5631L16.2527 18.3971L16.5657 18.5241L16.8248 18.9171L17.0298 19.2861L17.2408 19.4231L17.3718 19.4271L17.4197 19.4331L17.6818 19.3491L17.7018 19.3501L17.9407 19.3651L18.1708 19.4901L18.5518 19.5041L19.0828 19.4091L19.1387 19.3701L19.3937 19.4211L19.7037 19.5911L19.9448 19.7931L20.3768 20.4551L20.6248 20.6251L21.1307 20.8601L21.3677 21.0651L21.6437 21.3971L21.7878 21.5981L22.0878 21.9611L22.4348 22.5541L22.4968 23.0251L22.5757 23.4221L22.7048 23.6101L22.8107 23.6331L22.9247 23.5681L23.0367 23.3871L23.0757 23.0851L23.0417 22.5501L22.9528 22.1121L22.8387 21.9731L22.7838 21.8191L22.8588 21.6231L23.0518 21.5281L23.2917 21.5881L23.6868 21.8401L24.0988 22.1571L24.6058 22.7111L25.0707 23.0621L25.5798 23.3421L25.9838 23.4251L26.2968 23.3411L26.6658 23.1131L27.0038 22.8491L27.1578 22.5721L27.2678 22.2691L27.7778 21.8641L28.2438 21.4931L28.4557 21.5601L28.6047 21.6651L29.0828 21.4391L29.2488 21.3771L29.7037 21.2891L30.1738 21.4191L30.5488 21.8171L30.9117 22.0731L31.2368 22.0431L31.5057 21.9121L31.6838 21.6641L31.8187 21.3711L31.9988 21.1831L32.0258 21.1711L32.6047 21.2731L32.9678 21.2581L33.0068 21.2161L33.4858 21.2961L34.0148 21.7091L34.3428 22.1661L34.7628 22.7471L34.9578 22.9361L35.2418 23.0171L35.4648 23.0521L35.7637 23.1421L36.5538 23.2631L36.6738 23.3341L36.7548 23.4291L36.6818 23.7451L36.7518 23.8251L37.3928 23.6001L37.5648 23.4321L37.7758 22.9541L37.9648 22.4721L38.1058 22.2931L38.2548 22.2461L38.4048 22.3181L38.6147 22.6031L38.8987 22.8931L39.2828 23.0031L39.5168 23.0471L39.8798 23.0711L40.7338 22.9301L41.5328 22.5791L41.9888 22.1971L42.2007 21.6231L42.3337 20.9691L42.5378 20.5551L42.4528 20.1311L42.0508 19.7271L41.9147 19.6051L40.9368 19.3781L40.8768 19.2141L40.8207 19.1761L39.8568 18.8161L39.3928 18.6621L39.2618 18.4241L39.1758 18.1121L38.8748 17.8331L38.2767 17.5791L38.1727 17.3851L38.2717 17.1891L38.7438 16.9711L39.2828 16.5111L39.4897 16.4161L39.9688 16.3951L40.4128 16.0181L40.7188 15.8021L40.8788 15.5451L40.8367 15.2791L40.3928 14.4741L40.2607 13.9851L40.3398 13.6661L40.5947 13.3211L40.7397 13.1321L40.9138 12.7921L41.0278 12.6101L41.4758 12.5331L42.0187 12.5011L42.3918 12.5821L42.9128 12.6241L43.3878 12.6871L43.6277 12.7431L43.8047 12.6391L43.9327 12.4561L43.9288 12.2141L43.7418 11.9791L43.0447 11.6701L42.7457 11.4151L42.5118 11.4431L42.1198 11.3631L41.7657 11.1961L41.4528 11.1401L41.3508 10.9081L41.4147 10.5821L41.5358 10.3951L41.7668 10.3021L42.0178 10.3491L42.2908 10.2131L42.3698 10.1331L42.3928 10.0301L42.3488 9.88309L42.2217 9.76208L42.0417 9.7301L41.8348 9.8331L41.5867 9.90009L41.1678 9.74908L40.8337 9.56708L40.8508 9.39908L41.0978 9.1481L41.2087 8.94409V8.66208V8.33209L41.2947 7.9451L41.5397 7.68008L41.8278 7.53809L42.5698 7.79709L43.4977 8.02811L43.6567 7.99008L43.7037 7.8681L43.8098 7.7601L45.0978 7.71008L45.3478 7.5611L45.4728 7.44208L46.7108 7.27109L46.8577 7.10809L47.0397 6.95609L47.3248 6.95911L47.6638 6.8981L48.1368 6.7121L48.4717 6.61008L48.5278 6.60208L48.8818 6.6431L49.3207 6.49609L49.4158 6.43509L49.4868 6.3241L49.8698 6.11008L50.6047 5.93408L50.7838 6.03909L51.1348 6.0871L51.5817 6.00809L51.9117 5.87308L52.1038 6.00708L52.3647 6.14508L52.5598 6.02811L52.6567 5.65909L52.7828 5.2981L53.0038 5.12711L53.1788 5.06409L53.3367 4.92508L53.4557 4.78009L54.1028 4.80209L54.6818 4.4411L54.7958 4.6051L55.5477 4.56708L56.4818 4.33411L57.0408 4.2251L58.0057 3.98108L58.4518 3.78308L59.0908 3.65808L59.6768 3.57111L60.0598 3.22409L60.3688 3.17508L60.7448 3.14609L60.9747 3.06308L61.1248 2.93509L61.2217 2.69409L61.1688 2.38608L61.1147 2.16208L61.3837 2.03708L61.7678 1.99808L62.0098 1.94708L62.5378 1.4371L62.9017 1.19208L63.2787 1.03809L64.0358 1.1221L64.7267 1.1991L65.4197 1.44308L65.7838 1.7471L66.0967 1.9761L66.3928 2.08508L66.6608 2.15509L66.9717 2.05109L67.1918 1.9111L67.3198 1.71008L67.5137 1.5661L68.2208 1.4541L68.3668 1.67108L68.7028 2.3241L68.9318 3.1911L69.3088 4.33609L69.4747 4.89709L69.4017 5.19009L69.4028 5.59109L69.3818 6.0311L69.1038 6.52811L69.2167 6.75909L69.8998 7.01608L70.8558 6.92209L71.4457 6.71408L71.7748 6.7901L71.9468 6.6651L72.0577 6.29709L72.2847 6.21408L72.5178 6.4711L72.6868 6.90509L72.8488 7.18408L72.8367 7.51608L72.8967 7.9411L73.0157 8.0481L73.2498 7.88708L73.4058 7.79108L73.4427 7.66208L73.3768 7.50308L73.3458 7.34109L73.3978 7.19208L73.5087 7.1311L73.8417 7.1781L74.3268 7.2601L74.9028 7.86411L75.2137 7.97308L75.3447 7.9841L75.6368 7.9491L75.9877 7.77609L76.2238 7.55811L76.3027 7.45108L76.4388 7.47009L76.5677 7.57111L76.5768 7.79108L76.4738 8.1091L76.1238 8.40009L75.6888 8.6701L75.4247 9.16409L75.3688 9.6781L75.4838 9.93909L75.5828 10.1131L75.6108 10.3571L75.7087 10.3891L75.8868 10.2891L76.3718 9.78308L76.6188 9.65808L76.9767 9.57809L77.5657 9.6181L77.9617 9.78308L78.1508 10.0121L78.3588 10.2011L78.5027 10.1221L78.5768 9.90408L78.5807 9.65408L78.6418 9.44809L79.2858 8.9411L79.7148 8.60309L79.8618 8.56308L80.1487 8.63309L80.3268 8.59708L80.7977 8.27908L81.2377 7.91608L81.2808 7.6701L81.2977 7.44708L81.4067 7.3461L82.0228 7.2681L82.1248 7.2261L82.6508 6.97208L83.3798 6.53809L83.7338 6.2821L84.3788 6.16809L84.4988 6.09409L84.7128 5.92108L85.1168 5.68109L85.3358 5.65509L85.1998 6.23508L84.9587 6.90311L84.8228 7.08109L84.1688 7.05109L84.1697 7.23309L84.2728 7.51108L84.3467 7.66708L84.4258 7.8071L84.6017 8.0491L85.2897 8.6181L86.1647 9.34009L87.1097 10.1481L87.7698 10.7101L88.0367 11.0001L88.2067 11.2261L88.6927 12.0401L89.1548 12.8091L89.9338 14.1571L90.6227 15.4511L91.3828 16.8661L91.8218 17.6801L92.7197 19.3731L92.9598 19.8901L93.4147 20.8661L93.8157 21.7771L94.1708 22.5791L94.3948 22.6511L94.4128 22.4341L94.4528 22.2891L94.5668 22.2071L94.8287 21.9701L94.9697 21.9131L95.1797 21.9371L95.3998 21.8161L95.4808 21.5881L95.4277 21.1651L95.3937 20.9701L95.4688 20.7601L95.5887 20.6781L95.7557 20.6121L95.9097 20.5781L96.0358 20.3411L96.2737 20.2691L96.4927 20.3131L96.6727 20.3221L96.8317 20.4951L96.9208 20.7321L97.0928 20.7511L97.3738 20.7271L97.4128 20.9251L97.3328 21.2561L97.2338 21.5121L97.2167 21.7171L97.3658 21.8171L97.9117 21.7281L98.1047 21.7721L98.1667 21.9801L98.2448 22.1521L98.2828 22.3621L98.2258 22.5941L98.3237 22.7331L98.7947 22.7361L99.1268 22.6241L99.6368 22.6151L100.098 22.8611L100.417 22.8231L100.738 22.7231L101.209 22.7861L101.54 22.5921L101.768 22.3491L101.839 22.1581L101.958 22.0521L102.402 22.0531L102.682 22.0341L102.889 21.7531L103.078 21.6261L103.396 21.6021H103.63L104.259 21.8631L104.642 22.0791L105.04 22.3861L105.279 22.5781L105.44 23.0111L105.711 23.3291L105.927 23.7001L105.979 24.0651L106.157 24.7201L106.341 24.9351H106.559L106.834 25.0241L107.138 25.0951L107.788 25.5801L108.027 25.5941L108.211 25.7101L108.239 25.9331L108.171 26.1911L108.242 26.4381L108.455 26.7531L108.623 27.0601L108.83 27.4321L108.893 27.6441L109.059 27.7141L109.283 27.6091L109.639 27.6891L110.71 27.9001L110.859 27.9261L110.973 28.1461L111.128 28.1281L111.306 28.1191L111.553 28.1451L111.725 27.9421L111.866 27.7641L112.219 27.5441L112.512 27.2451L112.758 26.9791L112.942 26.9441L113.091 27.0681L113.097 27.2981L112.913 27.4661L112.769 27.6691L112.803 27.8721L113.05 27.8901L113.324 28.1951L113.72 28.9081L113.854 29.0571L114.05 29.1971L114.267 29.2601L114.507 29.3621L114.685 29.6551L114.77 29.9211ZM10.8978 46.8181L10.8008 46.8721L10.7418 46.6201L10.8497 46.4081L11.0038 46.3801L10.9507 46.7151L10.8978 46.8181ZM10.5417 47.2821L10.4407 47.3931L10.2908 47.3761L10.0098 46.9571L10.0887 46.5311L10.1907 46.4441L10.3328 46.3841L10.3517 46.4781L10.1528 46.6691L10.1337 46.9101L10.3008 47.1771L10.5417 47.2821Z" fill="#CCCCCC" stroke="white" stroke-width="0.5"/>
</svg>
