<svg width="23" height="26" viewBox="0 0 23 26" fill="none" xmlns="http://www.w3.org/2000/svg">
<path d="M6.31885 0.61322L6.47485 0.900208L6.80688 1.21921L7.20288 1.67422L7.32886 1.88321L7.59589 2.04321L7.67188 2.2012L7.73285 2.44321L7.75989 2.6232L7.81885 2.72922L7.9129 2.77121L8.03387 2.72421L8.12488 2.6282L8.20087 2.36322L8.25085 2.33521L8.33289 2.55322L8.41986 2.59021L8.53687 2.6192L8.62585 2.71323L8.65289 2.87921L8.62286 3.04822L8.51385 3.23822L8.4519 3.4382L8.40887 3.74521L8.35089 3.95923L8.44086 4.14822L9.06085 5.07822L9.35889 5.23022L10.0679 5.4122L10.3239 5.5372L10.5499 5.65921L10.7719 5.60022L10.9859 5.32321L11.2429 5.16821L11.7209 4.93021L11.8578 4.91721L12.1219 5.01221L12.5559 5.28922L12.8689 5.54922L13.0629 5.68622L13.2109 5.8092L13.1879 5.9472L13.0688 6.08322L12.9179 6.1582L12.7189 6.28922L12.6059 6.4212L12.6749 6.47021L12.9669 6.5032L13.3119 6.62021L13.4169 6.7572L13.4319 6.87421L13.4739 7.06522L13.5349 7.1232L13.8539 7.0892L13.9529 7.1322L14.0679 7.23022L14.1819 7.48721L14.1789 7.6792L13.9479 7.89023L13.8619 8.01822L13.8239 8.21921L13.6599 8.46021L13.2239 8.86423L13.1069 8.88821L12.3039 8.6662L11.9309 8.68021L11.7509 8.68723L11.6639 8.6972L11.6119 8.78122L11.7189 9.02521L11.7509 9.26721L11.6509 9.4512L11.3839 9.61121L11.2829 9.6882L11.2709 9.79221L11.3459 9.90021L11.5919 10.0112L11.8789 10.1152L12.8249 10.7402L13.0269 10.8872L13.2949 11.1042L13.5849 11.2722L14.3609 11.4942L14.7039 11.6392L14.7919 11.7212L14.7889 11.8222L14.6989 11.9512L14.6249 12.1772L14.6208 12.3132L14.7019 12.4442L14.8389 12.6402L15.1469 12.9432L15.3159 13.0782L15.5029 13.1082L15.6669 13.1822L15.8359 13.4072L16.0319 13.6822L16.0579 13.8742L16.1419 14.1202L16.3209 14.4022L16.5679 14.6762L16.9139 15.0152L17.1129 15.2542L17.2049 15.3472L17.9429 15.9262L18.1229 16.1402L18.3829 16.5522L18.4929 16.6122L18.5969 16.6932L18.6629 16.9192L18.6849 17.0812L18.7198 17.5772L18.8539 17.7242L18.9769 17.9052L19.0289 18.0372L19.1409 18.1352L19.2629 18.1532L19.4079 18.0442L19.5229 17.9392L19.5759 17.9702L19.6919 18.3162L19.7989 18.4422L19.9989 18.5632L20.1889 18.6562L20.6039 19.0722L20.8249 19.2242L20.9769 19.2722L21.1059 19.3432L21.1449 19.4752L21.0939 19.6082L21.0059 19.6952L20.5229 19.9362L20.4589 20.0412L20.5249 20.2012L20.6459 20.4012L20.7779 20.5732L20.9438 20.7422L21.2829 21.0162L21.5769 21.2302L21.7379 21.4672L21.8269 21.6252L21.7719 21.8142L21.6479 22.0212L21.5519 22.1982L21.3869 22.3012L21.3419 22.4202L21.4099 22.6052L21.4659 22.7322L21.4359 22.8902L21.4509 23.2132L21.2989 23.3292L21.1569 23.6232L21.0599 23.6452L20.8149 23.5382L20.7289 23.5972L20.5729 23.8112L20.3009 24.0442L20.1689 24.0472L20.0779 24.0192L19.9719 24.1182L19.8199 24.3022L19.7499 24.2962L19.4879 24.3382L19.3859 24.2792L19.2589 24.1282L19.0549 23.9742L18.8689 23.8642L18.7699 23.7902L18.6779 23.6622L18.5948 23.5792L18.4409 23.7612L18.1839 23.9352L17.9389 23.9022L17.8188 23.8732L17.7229 24.1262L17.6509 24.1722L17.2109 24.2162L17.1279 24.2562L17.1989 24.4872L17.4589 24.8782L17.5369 25.1022L17.3749 25.4702L16.9189 25.4602L16.7149 25.3112L16.5249 25.1022L16.4568 24.9992L15.8729 24.7942L15.4819 24.9352L15.3629 24.9282L15.1809 24.7792L15.0699 24.6672L14.9619 24.4972L14.9009 24.3252L14.8959 24.2472L15.0639 24.1852L15.3409 24.0442L15.5669 23.8862L15.7159 23.7182L15.7759 23.5432L15.7839 23.3402L15.8489 22.8142L15.9149 22.5582L15.8779 22.2422L15.7569 21.9942V21.6212L15.8009 21.4392L15.8209 21.3192L15.9909 21.1682L16.1078 20.9512L16.1739 20.6682L16.1799 20.4642L16.1269 20.3382L15.9589 20.2182L15.6779 20.1052L15.4999 19.9612L15.4279 19.7882L15.4349 19.6362L15.5209 19.5042L15.3089 19.3582L14.7979 19.1972L14.5129 19.0032L14.4529 18.7772L14.2399 18.4812L13.8739 18.1142L13.6809 17.5862L13.6609 16.8962L13.7039 16.3342L13.8639 15.6832L13.6499 15.2112L13.4149 14.9622L13.0879 14.7792L12.7759 14.5172L12.4789 14.1742L12.1249 13.6682L11.7109 12.9982L11.4329 12.6982L11.2899 12.7682L10.9909 12.7052L10.5349 12.5112L10.1379 12.4062L9.79785 12.3912L9.5769 12.4352L9.47485 12.5382L9.46686 12.6392L9.55286 12.7392L9.50586 12.8172L9.32788 12.8732L9.18488 12.9832L9.02289 13.2292L9.02686 13.2192L9.02087 13.2322L9.02289 13.2292L8.91187 13.5512L8.74286 13.6752L8.48285 13.7022L8.22791 13.7942L7.97589 13.9502L7.8559 14.0692L7.86987 14.1502L7.81488 14.1682L7.69189 14.1232L7.63385 14.0172L7.64087 13.8492L7.5119 13.7372L7.2489 13.6792L6.94885 13.5002L6.6109 13.1972L6.37689 13.0362L6.24585 13.0162L6.0589 13.1362L5.81287 13.3962L5.6109 13.4982L5.4519 13.4452L5.32886 13.5362L5.24286 13.7732L5.08386 13.9582L4.7359 14.1612L4.71289 14.1852L4.31488 14.4582L3.99585 14.7332L3.62488 15.1022L3.44989 15.1592L3.2829 15.0692L3.03088 14.9792L2.89789 14.8542L3.15186 14.2292L3.4729 13.5362L3.5589 13.2162L3.5719 12.9822L3.54089 12.7922L3.41486 12.5932L3.29688 12.4392L3.28589 12.3362L3.32385 12.2282L3.45288 12.0672L3.6189 11.8172L3.77289 11.3042L3.95789 10.7602L3.93988 10.4302L3.79089 10.0682L3.70886 9.72421L3.77386 9.25522L3.74988 9.0722L3.58887 8.98022L3.06085 8.88721L2.89087 8.90323L2.7569 8.96323L2.61188 9.09122L2.43585 9.1712L2.10388 9.21622L1.78986 9.05722L1.52686 8.7872L1.46387 8.45721L1.65686 8.0632L1.79187 7.7442L1.87189 7.47021L1.86285 7.34021L1.80688 7.2052L1.72791 7.18622L1.55988 7.01822L1.39587 6.7222L1.23987 6.58621L1.09485 6.61121L0.9599 6.72421L0.836853 6.92221L0.739868 7.00421L0.670898 6.96722L0.691895 6.79221L0.711853 6.62622L0.863892 5.98022L1.04785 5.56021L1.26385 5.3652L1.49188 5.28223L1.73187 5.3132L1.93488 5.27722L2.09686 5.17422L2.08185 5.1152L1.88989 5.10022L1.81287 4.98822L1.85388 4.77722L1.93787 4.64023L2.06989 4.57721L2.19788 4.3652L2.32086 4.00223L2.47186 3.81921L2.64789 3.81421L2.95087 3.65921L3.37988 3.3522L3.54486 3.05521L3.70685 3.19122L3.64587 3.53522L3.7309 3.60721L3.77087 3.73022L3.7489 3.92221L3.78485 4.08521L3.85089 4.16422L3.94385 4.20422L4.39886 4.06421L4.67688 4.0542L4.79388 4.14621L4.89886 4.20322L5.03088 4.24722L5.13287 4.30621L5.19788 4.2872L5.35388 4.14423L5.40088 4.1192L5.40588 4.04922L5.29688 3.92023L5.1839 3.81223L5.18787 3.5722L5.24091 3.15622L5.25189 2.94022L5.24188 2.42322L5.22186 2.27722L5.11786 2.10922L4.84686 1.78622L4.77087 1.5892L4.72687 1.39221L4.7309 1.26721L4.66187 1.12421L4.62689 0.991211L4.74786 0.923218L4.8949 0.769226L4.96887 0.53421L5.03888 0.362213L5.14087 0.289215L5.22888 0.262207L5.2879 0.277222L5.51788 0.585205L5.8089 0.431213L6.02887 0.43222L6.2179 0.513214L6.31885 0.61322Z" fill="#CCCCCC" stroke="white" stroke-width="0.5"/>
</svg>
