<svg width="8" height="13" viewBox="0 0 8 13" fill="none" xmlns="http://www.w3.org/2000/svg">
<path d="M2.16937 1.1792L2.43939 1.19421L2.72736 1.18723L2.92834 1.22623L3.27435 1.6622L4.21436 2.4422L4.72736 3.23422L4.77338 3.40723L4.84436 3.55722L4.96735 3.59821L5.07135 3.6662L5.58234 4.43021L5.6424 4.58121L5.63336 4.7482L5.66339 4.87222L5.79736 4.9342L5.96338 4.96622L6.07239 5.08121L6.21136 5.69022V5.88022L6.25037 5.96121L6.89435 6.9082L6.9314 7.02322L6.92438 7.10922L6.94336 7.1842L7.06836 7.35123L7.26239 7.80222L7.36237 7.90521L7.48035 8.29922L7.48834 9.05222L7.44434 9.3862L7.32434 9.79422L7.1814 10.1922L7.02734 10.4802L6.81635 10.7232L6.09338 11.2402L5.88635 11.3442L4.94635 11.6682L4.25336 11.9742L3.61237 12.0572L2.97034 11.8882L2.48834 11.4862L2.24139 10.8932L2.07135 10.2752L1.82635 9.58823L1.63739 7.4642L1.54736 6.87021L1.40137 6.11221L1.41638 5.7832L1.52039 5.4682L1.51935 6.15921L1.61536 6.24521L1.68634 6.15622L1.75037 5.44022L1.80334 5.13721L2.05939 4.3472L2.06439 4.20721L2.02039 3.91022L2.02234 3.7612L2.40436 3.20721L2.50238 2.88422L2.55536 2.5542L2.53436 2.1972L2.46637 1.84521L2.77435 1.95721L2.94434 2.0802L3.11737 2.16321L3.25739 2.12122L3.42737 2.12021L3.3064 1.9292L2.94836 1.75223L2.35339 1.64322L2.16736 1.5032L2.09637 1.38123L2.13239 1.23923L2.16937 1.1792ZM2.13336 1.69421L1.95734 1.72522L1.81836 1.5372L1.78534 1.45721L1.82239 1.40121L1.86035 1.3732L1.9054 1.3822L1.97137 1.55722L2.13336 1.69421ZM1.86737 3.33322L1.94836 3.5462L1.71735 3.40021L1.56537 3.27823L1.51038 3.18021L1.82538 3.29022L1.86737 3.33322Z" fill="#CCCCCC" stroke="white" stroke-width="0.5"/>
</svg>
