<svg width="13" height="13" viewBox="0 0 13 13" fill="none" xmlns="http://www.w3.org/2000/svg">
<path d="M8.88229 3.53677L8.93732 3.56979L9.0213 3.65579L9.10132 3.9498L9.41531 4.89877L9.39929 5.1608L9.33731 5.33179L9.3353 5.49878L9.3143 5.66479L9.12231 5.93478L8.55429 6.4888L8.5983 6.53778L8.73331 6.6008L8.87231 6.63278L8.98529 6.61578L9.12732 6.75378L9.2803 6.9278L9.44229 7.0188L9.6763 7.09778L9.88031 7.10678L10.0543 7.07578L10.2993 7.11078L10.5603 7.25479L10.6533 7.49179L10.7163 7.69879L10.8063 7.80377L10.8193 7.98279L11.0043 8.1398L11.2693 8.17178L11.6123 8.35577L11.6993 8.34579L11.7373 8.32278L11.7793 8.35779L11.8653 8.8898L11.9323 9.17178L11.8963 9.28677L11.8513 9.37579L11.8483 9.80579L11.6923 10.0518L11.6673 10.3228L11.6243 10.4098L11.4583 10.4878L11.4573 10.6958L11.4123 10.9468L11.3953 11.2128L11.4413 11.9108L11.4503 12.4298L11.5253 12.5278L11.2023 12.4848L10.2523 12.0878L9.5213 11.8608L7.07031 10.5608L6.39032 10.0388L5.60431 9.26178L3.85931 7.69479L3.4613 7.44379L2.95932 7.32178L2.64929 7.18777L2.4303 7.04279L2.25232 6.6088L1.81531 6.34979L1.01031 5.98178L0.404297 5.36978L0.553314 5.24377L0.771301 4.84079L1.0773 4.4538L1.3623 4.22379L1.58832 3.98679L1.82831 3.80579L2.17032 3.59378L2.69531 3.03677L2.81729 2.97177L2.90131 2.58578L3.03329 2.09479L3.1853 1.94177L3.5423 1.8508L3.62531 1.76578L3.75131 1.41879L3.83331 1.01578L3.8403 0.927795L3.98032 0.917786L4.22131 0.83078L4.3613 0.869781L4.4223 0.985779L4.45432 1.0838L5.18332 0.831787L5.24731 0.779785L5.28531 0.788788L5.37732 1.01578L5.42929 1.0018L5.4733 0.936798L5.52231 0.929779L5.57932 0.960785L5.63629 1.0658L5.72931 1.16177L5.8873 1.22879L5.9873 1.31979L5.97632 1.56277L6.01431 1.7988L6.08331 1.85278L6.11929 1.99377L6.1373 2.1478L6.17529 2.22879L6.2023 2.3848L6.18829 2.5528L6.21732 2.6698L6.33331 2.87277L6.4053 3.12778L6.40631 3.30978L6.36331 3.49979L6.28632 3.6738L6.15131 3.86279L6.14032 3.93777L6.22031 3.98679L6.34232 3.99777L6.44431 3.95779L6.7023 4.04578L6.83731 4.1698L6.9563 4.3248L7.06329 4.4028L7.1113 4.49979L7.29431 4.47379L7.50729 4.37979L7.5513 4.33478L7.61432 4.3588L7.75131 4.36877L7.84729 4.1998L7.92432 4.0058L8.08929 3.7948L8.17032 3.71378L8.19131 3.57977L8.20032 3.40579L8.26031 3.25479L8.3963 3.17178L8.5433 3.17279L8.62329 3.2038L8.66431 3.34979L8.78232 3.46078L8.88229 3.53677Z" fill="#CCCCCC" stroke="white" stroke-width="0.5"/>
</svg>
