<svg width="8" height="8" viewBox="0 0 8 8" fill="none" xmlns="http://www.w3.org/2000/svg">
<path d="M5.34912 5.78894L5.09711 5.86896L5.06213 5.87494L4.89911 5.85693L4.68311 5.87592L4.5141 5.91992L4.38214 5.93695L4.16711 6.16595L3.77515 6.78394L3.67114 6.91394L3.64313 7.15796L3.55212 7.35095L3.44012 7.50092L3.33209 7.53796L3.0061 7.47797L2.58813 7.40094L2.34509 7.21393L2.12915 6.96796L2.01611 6.78894L1.89612 6.69092L1.8551 6.63593L1.6861 6.55396L1.62213 6.51093L1.56512 6.47992L1.49713 6.36194L1.45612 6.25891L1.47211 5.97192L1.35211 5.80096L1.14709 5.50995L1.01813 5.27094L0.841125 4.94495L0.732117 4.66693L0.620117 4.37897L0.635132 4.25494L0.742126 4.17096L1.05713 4.02594L1.30115 3.91394L1.47614 3.70892L1.66711 3.40295L1.76013 3.21991L1.85315 3.13593L1.9541 3.00696L2.1311 2.71991L2.32812 2.40192L2.53912 2.06091L2.80511 1.96191L3.16815 1.84796L3.51813 1.54993L3.93414 1.29993L4.6051 1.02795L4.91815 0.958923L5.03815 0.918945L5.1131 0.970947L5.19312 1.12592L5.30713 1.25696L5.57214 1.48291L5.68414 1.53796L5.95813 1.87396L6.25012 2.10394L6.5871 2.36993L6.8161 2.50195L6.93414 2.53894L7.03015 2.77496L7.12915 2.94995L7.18414 3.11395L7.1731 3.27393L7.06714 3.66595L6.91211 4.06696L6.78711 4.23291L6.63513 4.33893L6.48712 4.49792L6.43011 4.81995L6.3631 5.19891L6.16913 5.35492L6.0191 5.45795L5.81012 5.58392L5.34912 5.78894Z" fill="#CCCCCC" stroke="white" stroke-width="0.5"/>
</svg>
