<svg width="19" height="14" viewBox="0 0 19 14" fill="none" xmlns="http://www.w3.org/2000/svg">
<path d="M17.3335 4.66595L17.3265 4.88898L17.2585 5.26596L17.1255 5.75198L16.9865 6.12796L16.9525 6.27298L17.0575 6.39398L17.5795 6.45096L17.8015 6.51498L17.8445 6.61496L17.7285 6.74396L17.5615 6.85098L17.4875 6.95297L17.3545 7.31598L16.4865 7.26996L16.3715 7.34396L16.3165 7.51196L16.2735 7.70596L16.1595 7.93597L15.9295 8.13596L15.5685 8.20996L15.2735 8.34598L15.0535 8.76398L14.8895 9.32397L14.8935 9.71997L14.9145 9.94098L14.8955 10.067L14.7845 10.204L14.6025 10.567L14.4545 10.968L14.3975 11.185L14.4255 11.287L14.5925 11.29L14.8335 11.372L14.9615 11.532L15.0085 11.717V11.915L14.9635 12.024L14.7705 12.103L14.4685 12.106L14.2925 12.012L14.2565 11.937L14.3405 11.746L14.2795 11.507L14.1545 11.374L13.9005 11.573H13.6565L13.3645 11.751L13.1735 12.035L12.9905 12.139L12.4945 12.081L12.3715 12.206L12.2685 12.782L12.2095 12.894L11.7955 12.87L11.3965 13.099L10.9455 13.284L10.7175 13.156L10.5905 13.011L10.3445 13.037L10.0765 13.101L9.89648 13.066L9.69452 13.082L9.3045 13.193L8.81451 13.157L8.60553 13.062L8.58551 12.971L8.60052 12.747L8.59552 12.399L8.51752 12.091L8.28253 11.819L8.0365 11.628L7.72253 11.431L7.49054 11.345L7.36353 11.323L7.33453 11.209L7.28851 11.11L7.1795 11.024L6.94751 10.908L6.75049 10.883L6.58954 11.07L6.4715 10.836L6.3465 10.415L6.3595 10.078L6.43054 9.74097L6.77148 8.74197L6.75354 8.58197L6.50549 8.30197L6.19952 8.09796L6.03052 7.66595L5.41052 7.64096L4.8255 7.66498L4.64154 7.64398L4.08453 7.46298L3.54749 7.17096L3.18854 6.99997L2.88654 6.80798L2.72351 6.60596L2.46649 6.65997L2.29254 6.66196L2.29449 6.62698L2.1955 6.26996L2.2995 5.72195L2.11151 4.91595L1.8045 3.94296L1.78253 2.89597L1.7605 2.65997L2.51453 2.06598L3.46552 1.42896L3.68152 1.37097L4.5575 0.992981L4.6745 0.962982L5.46454 1.03296L6.08453 1.12296L6.60748 1.11197L6.89453 1.01498L7.15454 1.09598L7.36353 1.38098L7.57953 1.34695L7.79254 1.16296L8.96252 1.33096L9.2265 1.32697L9.5235 1.35397L10.0715 1.52496L10.3875 1.68198L11.0815 1.58698L11.3785 1.58197L11.5335 1.51996L12.0125 1.08997L12.2195 1.01596L12.4095 0.938965L12.5835 1.00397L12.6975 1.37097L13.0515 2.00198L13.4365 2.11298L14.4995 2.35498L14.7165 2.48196L15.3145 3.03598L15.6735 3.30698L15.9015 3.52298L16.2495 3.94598L16.4505 4.25296L16.7865 4.48495L17.1845 4.64096L17.3335 4.66595ZM1.51654 6.58597L1.35352 6.54797L1.6745 5.97998L1.79749 5.60995L1.88251 5.08398L1.95752 4.91797L1.95953 5.15698L1.92651 5.55496L1.72351 6.23196L1.51654 6.58597Z" fill="#CCCCCC" stroke="white" stroke-width="0.5"/>
</svg>
