<svg width="22" height="13" viewBox="0 0 22 13" fill="none" xmlns="http://www.w3.org/2000/svg">
<path d="M18.4617 3.19778L18.7928 3.21878L18.9088 3.30179L18.9868 3.70978L19.3627 4.03079L19.7108 4.29578L19.7997 4.41879L19.8268 4.65479L19.8047 4.93079L19.7607 5.07278L19.6147 5.23679L19.4877 5.65179L19.4697 6.04578L19.2698 6.7258L19.3148 6.73779L19.7368 6.61578L19.8558 6.68579L19.9487 6.83478L19.9788 7.2598L20.1168 7.45078L20.2578 7.74878L20.3018 7.9798L20.5707 8.25479L20.5917 8.43378L20.7557 9.06079L20.8187 9.42078L20.8478 9.6998L20.7678 10.0528L20.6957 10.2908L20.6118 10.2758L20.3707 10.3388L19.9897 10.6258L19.4227 11.3008L19.2767 11.4498L19.1288 11.9608L19.0928 12.0128L18.7628 11.9898L18.6727 11.9778L18.3428 11.9878L17.6218 11.8548L17.3428 11.9428L16.9767 12.4588L16.8337 12.5348L16.4088 12.6058L16.3337 12.6658L16.1918 12.6418L15.7938 12.4858L15.4578 12.2538L15.2557 11.9468L14.9078 11.5238L14.6797 11.3078L14.3207 11.0368L13.7228 10.4818L13.5057 10.3548L12.4418 10.1128L12.0577 10.0018L11.7037 9.37079L11.5898 9.00278L11.4158 8.93777L11.2247 9.0148L11.0187 9.08878L10.5397 9.5188L10.3848 9.57977L10.0878 9.58478L9.39374 9.67978L9.07776 9.5228L8.52979 9.35178L8.23175 9.3248L7.96777 9.3288L6.79773 9.1608L6.58478 9.34479L6.36877 9.37778L6.15973 9.09277L5.89874 9.01178L5.61176 9.1088L5.08875 9.11978L4.46875 9.02979L3.67975 8.95978L3.56274 8.98978L2.68573 9.36877L2.46973 9.42578L1.51874 10.0628L0.764771 10.6568L0.677734 9.70679L0.723755 7.79279L0.835754 6.8378L1.35773 6.27878L1.61975 5.84277L1.77173 5.25879L1.81775 4.7168L1.92377 4.26779L2.68079 2.97379L3.27979 2.8338L4.09174 2.47278L4.99878 2.17178L5.17377 2.55478L5.26276 2.84677L6.35474 3.90579L6.63275 4.26077L7.05475 5.47079L8.06677 6.08279L8.86176 5.8898L9.20776 5.59277L9.84473 5.0448L10.1288 4.64279L10.1868 4.25479L10.0737 2.58478L9.90173 1.85678L9.95978 1.4028L10.0718 1.42578L10.3428 1.20578L11.2318 0.797791L11.4097 0.778778L11.6127 0.695801L12.1727 0.383789L12.3538 0.549774L12.5038 0.737793L12.5858 0.739777L12.6268 0.6698L12.6158 0.548798L12.6548 0.462799L12.8157 0.510773L13.4648 1.02179L13.7137 1.14178L13.8848 1.17477L14.0887 1.41379L14.6428 1.57278L14.7108 1.6958L14.7527 1.84979L15.2717 2.49377L15.5048 2.81677L15.9648 3.11279L16.1628 3.1828L16.9688 2.8808L17.1927 2.77679L17.3788 2.77478L17.5677 2.93378L17.9998 3.14478L18.3907 3.21179L18.4617 3.19778Z" fill="#CCCCCC" stroke="white" stroke-width="0.5"/>
</svg>
