<svg width="46" height="44" viewBox="0 0 46 44" fill="none" xmlns="http://www.w3.org/2000/svg">
<path d="M45.2841 5.4978L45.1761 5.58981L45.0221 5.78583L44.9251 5.95981L44.6651 6.2438L44.4481 6.54681L44.4691 6.98981L44.5181 7.43982L44.6641 7.87881L44.7891 8.36682L44.7531 8.68481L44.6461 9.07581L44.5181 9.40182L44.0941 10.0708L44.0291 10.2308L44.0531 10.4558L44.3111 11.2478L44.3311 11.4968L44.4851 12.2628L44.6261 12.8848L44.7821 13.3738L44.8061 13.5078V14.2248V14.9408V15.6548V16.3678V17.0788V17.7888V18.4968V19.2038V19.9088V20.6128V21.3148V22.0168V22.7158V23.4138V24.1108V24.8068V25.5008V26.1938V26.8858V27.5758V28.2658V28.9538V29.6398V30.3258V31.0098V31.6928V32.3748V33.0558V33.7348V34.4138V35.0918V35.7678V37.2648L44.8051 38.7568V40.2438L44.8041 41.7258L44.7951 41.7298L44.7871 41.7358L44.7781 41.7408L44.7691 41.7468L44.0771 41.7458H43.3851H42.6921L42.0001 41.7448V42.1158V42.4858V42.8548V43.2248L40.6551 42.5238L39.3111 41.8228L37.9661 41.1198L36.6221 40.4158L35.2771 39.7108L33.9331 39.0048L32.5881 38.2978L31.2441 37.5898L29.8991 36.8798L28.5551 36.1688L27.2101 35.4578L25.8661 34.7448L24.5211 34.0298L23.1771 33.3138L21.8321 32.5978L20.4871 31.8798L19.5591 31.3828L18.5571 31.8678L17.7721 32.2478L16.7381 32.7468L15.5501 33.3938L14.6381 33.8898L14.5951 33.8858L14.5541 33.8738L13.6051 33.0318L12.8641 32.3728L12.5351 32.1878L11.1381 31.8508L9.74908 31.5158L8.28708 31.1618L8.02109 30.6228L7.72409 30.0198L7.32309 29.2648L7.07809 28.8018L6.99609 28.7298L5.87509 28.3638L4.69009 28.0038L3.9971 28.2218L3.87509 28.2058L3.67908 28.0688L3.48209 27.8818L3.37808 27.6208L3.1001 27.2708L2.84308 26.4678L2.81808 25.8278L2.76709 25.6008L2.15009 24.6968L1.58908 23.8738L1.21609 23.3238L1.1441 23.0748L1.1871 22.7688L1.3371 22.4938L1.8801 22.1688L2.37009 21.8138L2.4371 21.5678L2.46808 20.8888L2.30811 20.6768L2.19009 20.2728L2.0701 19.7258L2.05609 19.3748L2.27408 18.6758L2.52908 17.9428L2.3671 17.1288L2.2471 15.4898L2.32208 14.1938L2.26108 13.7218L2.21808 13.5228L2.05109 12.9088L1.8461 12.2738L1.75409 12.0508L1.49109 11.5378L1.05508 10.9008L0.829102 10.5088L1.1391 10.3018L1.41409 10.1398L1.74908 9.96881L2.22409 9.77481L2.47009 9.62881L2.5751 9.50583L2.9321 9.00381L3.1181 8.72583L3.3721 8.34482L3.48309 8.07883L3.48608 7.83282L3.44708 7.53482L3.24908 6.82083L3.0871 6.12482L3.2131 5.8558L3.31409 5.72781L3.5351 5.39981L3.62308 5.33383L4.1001 5.23181L4.2901 5.01382L4.4361 4.73981L4.47308 4.59583L4.68109 4.44482L4.93008 4.29382L5.0831 4.09781L5.58508 3.79382L6.04309 3.51682L6.57608 3.22482L6.9881 2.99881L7.0751 2.80081L7.06909 2.62982L6.84509 2.23981V1.77783L6.86008 1.39383L6.88208 1.16681L6.98108 0.533813L6.98709 0.444824L7.4151 0.655823L7.8541 0.739807L9.16309 1.52283L9.57608 1.62082L10.4921 1.71381L11.5711 1.39383L11.9791 1.33582L12.6891 1.63681L13.0021 1.7218L13.5281 1.74481L14.4271 2.01682L14.6561 2.11182L15.1801 2.54581L15.4311 2.67581L17.2921 3.07281L17.5461 3.33582L17.8051 3.83682L17.8161 4.45883L17.9591 4.90881L18.1901 5.49182L18.4691 5.90381L18.7781 6.24683L19.1331 6.46082L19.9491 6.77682L20.8691 6.89783L21.7971 6.93881L23.3901 7.37381L24.7411 7.87482L25.0741 8.12183L25.7511 8.36383L27.0961 9.53781L27.8451 9.94281L28.3701 10.0208L28.8411 9.94983L29.6781 9.54382L30.0241 9.30182L30.8661 8.28781L31.1431 7.75781L31.2531 7.38281L31.2261 7.00183L31.1211 6.65881L30.8851 6.29883L30.7201 5.82281L30.6231 4.96381L30.7551 4.36682L30.9161 4.00882L31.1701 3.64282L31.8691 2.9418L32.5721 2.44681L33.8111 1.79883L34.5301 1.79181L34.8281 1.71982L35.4201 1.2608L35.6601 1.2438L35.9921 1.3558L36.9681 1.32382L37.3981 1.45181L37.9111 1.73782L38.5591 1.91483L39.0161 2.09183L39.5031 2.31882L39.6131 2.88382L39.5591 3.05182L39.5471 3.27081L40.0521 3.65881L41.4871 3.84082L41.7701 3.94482L42.1651 4.24182L42.4191 4.33282L43.4021 4.37482L43.9751 4.31183L44.5211 4.4158L44.7231 4.51581L44.9321 4.7478L45.1851 5.30981L45.2841 5.4978Z" fill="#CCCCCC" stroke="white" stroke-width="0.5"/>
</svg>
