<svg width="36" height="29" viewBox="0 0 36 29" fill="none" xmlns="http://www.w3.org/2000/svg">
<path d="M31.4698 3.95706L31.5508 4.21005L31.7168 4.41205L32.3088 4.87305L32.6598 5.15707L32.6698 5.25507L32.5568 5.48807L32.5088 5.64807L32.6008 5.81906L32.8178 6.02505L32.8348 6.12405L32.7828 6.23907L32.6708 6.46005L32.9088 7.10806L32.9488 7.73505L32.8868 8.18005L32.8888 8.43707L32.9198 8.65506L33.1218 9.15805L32.9868 9.98907L33.1388 10.4411L33.3478 10.8071L33.4618 11.4591L33.6298 11.7681L33.9048 12.0391L34.0618 12.1301L34.3648 12.3541L34.5818 12.5401L34.7088 12.8181L34.4368 13.0461L34.2188 13.2501L34.1568 13.4701L34.2588 13.8221V14.011L34.1198 14.0711L33.5538 14.0511L33.1098 14.0361L32.5998 14.0191L31.8818 13.985L31.4378 13.9641L30.8278 13.9361L30.6178 13.9501L30.0588 14.0481L29.6638 14.1181L29.5968 14.1371L29.4738 14.2241L29.3888 14.4831L29.3128 14.7781L29.2308 14.9091L28.0458 15.3351L27.5828 15.3941L27.3148 15.3501L27.1238 15.3851L26.9598 15.4761L26.9038 15.6131L26.8958 15.7891L26.9308 15.9661L27.0448 16.2121L27.0648 16.4581L26.9918 16.632L26.9748 16.8061L26.9408 16.994L27.0018 17.0961L27.1158 17.1121L27.2308 17.1981L27.3928 17.2761L27.5268 17.425L27.5208 17.6371L27.4088 17.757L27.3098 17.8201L26.8658 17.8761L26.5148 17.9211L26.0558 18.2591L25.5668 18.619L24.9888 18.8571L24.7338 18.9241L24.2888 19.0951L23.7558 19.3761L23.4928 19.826L23.1618 20.3441L22.8428 20.6911L22.4078 21.0201L22.0018 21.1451L21.4918 21.3031L20.8488 21.4241L20.3938 21.4641L20.2578 21.4901L19.8568 21.498L19.6608 21.4731L19.5138 21.4591L19.4548 21.4961L19.4348 21.5771L19.4268 21.7631L19.3998 21.9761L19.2728 22.1551L19.1828 22.235L19.0778 22.2681L18.7408 22.2201L18.4588 22.1631L17.7878 22.0871L17.6538 22.1051L17.6038 22.1271L17.3948 22.2491L17.0728 22.5051L16.8538 22.7291L16.6908 22.8341L16.3008 22.8891L16.1308 22.9711L15.4048 23.5301L15.2498 23.666L14.5028 24.1511L14.2918 24.3121L14.1268 24.4711L13.6808 24.8291L13.3958 24.9861L13.3438 25.0791L13.3298 25.2971V25.7791V26.2411V26.9111V27.5811V28.3511H12.9528V28.3521L12.9508 28.3511L0.716797 28.3651L0.720795 28.3531L1.1008 27.9931L1.35779 27.537L1.79379 27.3341L2.70578 27.2361L4.06079 26.8571L5.27679 26.2841L5.62079 26.0561L5.9888 25.5981L6.6008 25.0011L7.74377 24.2831L8.26978 23.8811L9.07178 22.8721L9.6048 22.0351L10.0478 21.4951L10.3538 21.0151L10.5688 20.5281L10.6898 19.7421L10.6088 19.4341L10.2708 18.9301L10.0448 18.7951L9.9838 18.5571L10.1048 18.1371L10.1028 17.4131L10.1708 16.2531L10.5468 15.3141L11.4658 14.0791L11.6368 13.5701L11.7418 12.7601L11.7508 12.4731L12.9008 11.317L13.5738 10.4281L13.8078 10.2101L14.4018 9.80307L16.4758 8.91205L17.6478 8.27307L18.3318 7.80707L18.7398 7.25406L19.8698 5.07507L20.9788 1.97906L21.0718 1.61905L21.5678 1.51508L21.9188 1.47006L22.2018 1.35605L22.5518 1.12207L22.8878 1.21606L22.7198 1.37506V1.75906L22.9578 2.20807L23.3718 2.71207L24.1238 3.35107L24.7098 3.60706L25.5468 3.76105L26.5228 3.48105L27.0688 3.47607L27.3338 3.35507L27.6228 3.53207L28.1718 3.58905L28.7018 3.49606L29.1028 3.22806L29.3578 2.91907L29.3978 3.07108L29.4098 3.23505L29.4878 3.33105L29.6458 3.72305L29.7288 3.87607L30.0338 3.85107L30.2988 3.92807L30.8968 3.89105L31.4698 3.95706Z" fill="#CCCCCC" stroke="white" stroke-width="0.5"/>
</svg>
