<svg width="11" height="14" viewBox="0 0 11 14" fill="none" xmlns="http://www.w3.org/2000/svg">
<path d="M4.87726 12.9189L4.73724 12.6659L4.59521 12.4449L4.49127 12.3259L4.53522 12.2709L4.64825 12.2079L4.72925 12.1329L4.72021 11.8689L4.66022 11.5649L4.60522 11.4179L4.60022 11.1869L4.56122 10.8269L4.61627 10.1569L4.84222 9.3129L4.96722 8.89191L4.90625 8.66092L4.95325 8.12091L4.85522 7.85391L4.70227 7.50391L4.48322 6.74091L4.20923 6.47491L3.87122 6.18192L3.72723 5.96091L3.63025 5.71692L3.42926 5.47391L3.19824 5.25092L2.92224 4.69189L2.77924 4.4389L2.73523 4.37192L2.42023 4.0119L2.25525 3.68692L2.17126 3.41891L2.12323 3.17191L1.90125 2.68091L1.70026 2.31192L1.50922 2.04791L1.42126 1.8609L1.19727 1.62592L0.878235 1.4379L0.671265 1.40591L0.405273 1.4209L0.466248 1.27692L1.04523 0.885895L1.19623 0.949921L1.49927 0.964905L2.11627 0.951904L2.42023 0.693909L2.60822 0.7659L2.76123 0.649902L3.01624 0.503906L3.05322 0.534912L3.08527 0.557922L3.47925 0.622894L3.77625 0.762909L3.97424 0.977905L4.17926 1.1109L4.38922 1.1629L4.50623 1.2709L4.52924 1.43292L4.72723 1.51291L5.09827 1.51089L5.25525 1.61792L5.19922 1.8349L5.23724 1.90591L5.36926 1.83191L5.46924 1.8959L5.52124 2.05591L5.58124 2.1319L5.77026 1.88092L5.97021 1.90591L6.45325 2.00992L6.71124 2.5289L6.87225 2.7149L7.01324 2.79089L7.19122 2.7099L7.34924 2.61392L7.43927 2.65891L7.63525 3.00192L7.68024 3.44992L7.67926 3.62991L7.61023 3.9339L7.51123 4.25592L7.43323 4.46591L7.46625 4.63391L7.53625 4.7749L7.65027 4.82092L8.02423 5.10492L8.16425 5.30292L8.36725 5.44891L8.52124 5.45691L8.60126 5.5379L8.62927 5.63791L8.60822 5.88992L8.52222 6.12592L8.53326 6.27792L8.66925 6.45792L8.68427 6.66589L8.69324 6.7999L8.76526 6.90292L9.10822 7.1319L9.55127 7.35291L9.66425 7.54291L9.73322 7.7829L9.71124 8.18591L9.68225 8.53592L10.2623 9.00592L10.1962 9.0939L10.1063 9.18991L9.55225 9.26089L9.43927 9.2999L9.19824 8.9469L9.07123 8.90192L8.95325 9.03192L8.81323 9.10391L8.64624 9.0679L8.46625 8.95892L8.37524 8.8819L8.30225 8.87289L8.19025 8.94992L8.04126 8.9169L7.94324 8.8299L7.80225 9.12991L7.71625 9.1929L7.66223 9.1839L7.65125 8.67392L7.61023 8.59689L7.49823 8.58392L7.22827 8.7059L6.97125 8.86292L6.88422 9.00192L6.89325 9.2529L6.93024 9.55191L7.10522 10.0049L7.00922 10.2019L6.94122 10.5159L6.66626 10.8029L6.35425 10.9699L6.32825 11.3119L6.15527 11.5449L5.85925 11.7779L5.66125 12.0589L5.71124 12.2499L5.72327 12.4319L5.68927 12.5549L5.68225 12.6499L5.60425 12.6919L5.15222 12.7269L5.02423 12.7859L4.87726 12.9189Z" fill="#CCCCCC" stroke="white" stroke-width="0.5"/>
</svg>
