<svg width="7" height="8" viewBox="0 0 7 8" fill="none" xmlns="http://www.w3.org/2000/svg">
<path d="M2.56842 0.43689L2.5614 0.483887L2.5744 0.622864L2.63745 0.757874L2.86041 0.895874L3.18744 1.16989L3.57141 1.67188L3.74744 1.81989L3.90643 1.85687L4.21545 2.06387L4.43146 2.11487L4.67242 2.17188L5.30042 2.60489L5.58344 2.73087L5.78345 2.89389L5.80542 3.04688L5.79645 3.14188L5.43341 3.25189L5.37042 3.42087L5.1944 3.40088L4.98145 3.39987L4.91241 3.50687L5.0144 3.68289L5.08044 3.88889L5.0274 4.17188L5.0094 4.20889L4.95844 4.19888L4.65845 4.36288L4.4364 4.43988L4.23541 4.47888L4.14044 4.39987L4.09344 4.29288L4.10242 3.98288L4.06543 3.87787L3.99744 3.82687L3.85944 3.89987L3.70044 4.14087L3.55145 4.41888L3.32843 4.70889L3.14441 4.98688L2.94641 5.33789L2.8114 5.62689L2.95142 5.79086L3.03741 6.01688L3.01141 6.18689L3.03644 6.28589L2.99243 6.58289L2.98444 6.76987L2.54645 6.47089L2.36646 6.04987L1.72644 5.33688L0.993408 4.85089L0.954407 4.77386L0.994446 4.67987L1.02942 4.60587L0.876404 4.59988L0.770447 4.65988L0.668457 4.64288L0.554443 4.45987L0.446411 4.30188L0.441406 4.16187L0.490417 4.14389L0.563416 4.08789L0.718445 3.93289L0.749451 3.85089L0.741455 3.72687L0.524414 3.33487L0.493408 3.07986L0.462402 2.60489L0.508423 2.49289L0.587402 2.43787L0.966431 2.37888L0.961426 2.00787L0.984436 1.89587L1.06042 1.74188L1.1084 1.60089L1.3194 1.39789L1.60541 1.15689L1.73041 1.14886L1.83942 1.18289L1.96344 1.39087L2.09845 1.36389L2.1264 1.11389L1.9494 0.786865L1.85541 0.577881L1.8844 0.461884L1.95044 0.400879L2.10345 0.438873L2.24841 0.496887L2.33942 0.457886L2.48444 0.427887L2.56842 0.43689Z" fill="#CCCCCC" stroke="white" stroke-width="0.5"/>
</svg>
