<svg width="22" height="41" viewBox="0 0 22 41" fill="none" xmlns="http://www.w3.org/2000/svg">
<path d="M18.7286 1.60587L18.8575 1.90488L19.0076 2.19186L19.4766 2.88586L19.6776 3.15289L19.8486 3.43689L19.9316 4.00388L20.2306 4.88586L20.5116 6.21387L20.5976 7.57889L20.6846 8.20587L20.9036 8.79688L21.2626 9.41089L21.3786 10.0939L21.1586 10.7989L20.8416 11.4639L20.7596 11.5889L20.6106 11.7599L20.5436 11.7529L20.2896 11.5809L20.0815 11.2999L19.8185 10.6389L19.7226 10.3039L19.6125 10.2509L19.3046 10.2799L19.0815 10.4879L19.0406 10.6189L19.0886 10.9919L19.1736 11.3269L19.2106 11.6679L19.2176 12.0969L19.3006 12.2269L19.4225 12.3359L19.5496 12.6169L19.5716 13.2869L19.4936 13.6259L19.2766 13.9179L19.2896 14.0789L19.3705 14.2449L19.2936 14.3449L19.0046 14.4709L18.8876 14.5829L18.7316 14.8799L18.4786 15.4859L18.4446 15.7959L18.6026 16.7399L18.5586 17.4099L18.2366 18.6949L18.0506 19.3059L17.7876 20.0369L17.3856 21.0019L16.9875 22.2169L16.6496 23.4698L16.3996 24.2249L16.1156 24.9698L15.7266 26.2889L15.3965 27.6319L14.9056 29.1139L14.2276 30.7729L14.1546 30.9899L14.0135 31.8409L13.8616 32.5809L13.6796 33.3149L13.2996 34.5309L13.2566 34.9059L13.1706 35.2669L12.8046 36.0329L12.6496 36.3179L12.5406 36.6208L12.4786 37.0059L12.3696 37.3779L12.1016 38.0629L11.7026 38.6529L11.4306 38.8679L10.8426 39.1799L10.5446 39.2429L9.88354 39.2499L9.24359 39.4279L8.5766 39.7699L7.93457 40.1629L7.6886 40.3499L7.4176 40.4568L6.56958 40.4789L6.31555 40.3939L5.46655 39.7479L5.13757 39.6419L4.51459 39.5539L4.3266 39.4989L4.15558 39.4149L3.90356 39.0779L3.40356 38.7939L3.28357 38.7049L3.20758 38.5089L3.15558 38.2979L3.02557 38.0619L2.92957 37.6129L2.7666 37.2999L2.30658 36.7469L2.25757 36.5699L2.22058 35.9839L2.2356 35.5879L2.19055 34.8639L2.24359 34.5239L2.40558 34.2179L2.3396 33.8869L2.1676 33.5389L2.10358 33.1799L1.9776 32.8529L1.49554 32.2649L1.38257 31.9759L1.30457 31.6769L1.12256 30.7458L1.10059 30.4219L1.12756 29.7379L1.19458 29.3859L1.31158 29.1409L1.34058 28.9579L1.41656 28.8009L1.53058 28.6759L1.60754 28.5269L1.7876 27.6569L2.01556 27.4639L2.35358 27.3529L2.62457 27.1259L2.78058 26.8199L2.93658 26.1889L3.36255 25.5639L3.51459 25.2359L3.85858 24.7399L4.1626 24.0439L4.25458 23.7159L4.32056 23.3809L4.39758 22.6459L4.45557 22.2809L4.44354 21.9189L4.26959 21.5479L3.85455 20.8749L3.84155 20.7499L3.87457 20.2499L3.8396 19.8889L3.68658 19.5289L3.4906 19.1909L3.29755 18.5589L3.20355 17.5159L3.22357 17.1399L3.16656 16.8059L3.02655 16.4879L3.12659 15.9329L4.36755 13.9229L4.40857 13.6869L4.35858 13.0759L4.38458 12.7209L4.42755 12.5889L4.52258 12.5119L4.73456 12.4749L5.73755 12.3879L5.86658 12.3259L6.11658 12.1579L6.46057 11.8319L6.61859 11.7379L6.75458 11.7729L6.84155 11.9119L6.95355 11.9879L7.35858 11.8409L7.51355 11.8369L7.67255 11.8609L7.74658 11.7249L7.79059 11.5429L7.84955 11.4149L7.95758 11.3419L8.47858 11.3019L8.81158 11.2499L9.24158 11.1229L9.33356 11.1479L9.6806 11.6059L9.78558 11.6449L9.92059 11.6639L10.0386 11.5809L9.75659 11.3419L9.7146 11.2069L9.72955 11.0529L9.88055 10.7239L10.1326 10.4729L10.6926 10.0919L11.2746 9.65189L11.4435 9.62189L11.5865 9.69089L11.6966 10.2109L11.6826 10.2959L11.7756 10.3079L11.8835 10.2439L11.9796 10.0349L11.9846 9.86087L11.9066 9.69388L11.8686 9.55289L11.8656 9.42288L12.1606 9.11588L12.3926 8.82388L12.4996 8.47488L12.5926 8.31387L12.8376 8.13287L12.9095 8.16089L12.9666 8.30789L12.9986 8.46387L12.9355 8.61887L12.8466 8.77188L12.8105 8.97589L12.9485 9.01587L13.0786 8.96689L13.2686 8.59787L13.4856 8.24887L13.6146 8.06686L13.7776 7.94089L14.0486 7.96588L14.3116 8.04388L13.8826 7.67587L13.7756 7.17188L14.2856 6.30087L14.2906 6.11987L14.3646 6.06387L14.3996 5.99387L14.1356 5.70087L14.0856 5.55487L14.1205 5.33389L14.2466 5.13788L14.3616 5.00089L14.5246 4.94788L14.6536 5.02289L14.9376 5.26389L15.1286 5.30087L15.3596 5.06989L15.5486 4.78088L15.8326 4.58289L16.1556 4.45987L16.6465 4.00488L16.9666 3.05487L16.9916 2.77789L16.9206 2.44287L16.8076 2.12387L16.6186 1.72589L16.6676 1.63788L16.9366 1.69089L17.0266 1.63489L17.3185 1.28287L17.7996 0.608887L17.9576 0.609863L18.0936 0.734863L18.1446 0.919891L18.2406 1.05588L18.5656 1.37589L18.7286 1.60587ZM15.3705 4.27188L15.3746 4.37589L15.0056 4.33289L14.9476 3.97388L15.1286 3.96289L15.1686 3.81589L15.2786 3.79788L15.3976 4.11688L15.3705 4.27188ZM19.8456 14.4989L19.5306 15.0349L19.6196 14.5879L19.9846 13.9439L20.0886 13.8949L19.8456 14.4989Z" fill="#CCCCCC" stroke="white" stroke-width="0.5"/>
</svg>
