<svg width="9" height="7" viewBox="0 0 9 7" fill="none" xmlns="http://www.w3.org/2000/svg">
<path d="M6.4079 1.09277L6.84088 1.65479L7.07788 1.88278L7.35687 2.05478L7.6759 2.18079L7.79089 2.30078L7.9939 2.89578L8.09088 3.1218L8.22589 3.18878L8.25885 3.25378L8.26489 3.33978L8.11285 3.75677L8.0509 4.68777L8.01288 4.76178L7.85388 4.75778L7.64191 4.7778L7.56189 4.84979L7.47687 5.34879L7.13586 5.49078L6.8269 5.5708L6.56689 5.5528L6.10889 5.43478L5.9599 5.42178L5.83185 5.4888L5.42285 5.52478L5.2439 5.61179L4.82288 6.19379L4.39685 6.39478L4.25085 6.49579L3.9259 6.3678L3.7699 6.35379L3.54388 6.5018L3.04987 6.51678L2.91687 6.54279L2.53589 6.5658L2.5199 6.48578L2.44885 6.36877L2.27087 6.31378L1.9079 6.36078L1.81989 6.27579L1.66986 5.7818L1.55389 5.70279L1.42285 5.53677L1.2019 4.99878L1.19586 4.76279L1.21088 4.55579L1.08789 4.07178L1.16388 3.94879L1.27789 3.8718L1.27887 3.67578L1.24689 3.37878L1.3819 2.7948L1.41791 2.7518L1.45288 2.77979L1.77887 2.82678L1.86389 2.75278L1.91791 2.63678L1.93488 2.20779L2.01288 2.0098L2.80286 1.63177L3.03589 1.6178L3.21387 1.79178L3.35486 1.9028L3.43988 1.89877L3.47089 1.78778L3.56689 1.57178L3.72888 1.44879L4.2099 1.34378H4.21387L4.37085 1.36478L4.7099 1.26779L4.92188 1.13379L5.02991 1.1138L5.17285 1.06277L5.37891 1.06979L5.58789 1.12778L5.85388 1.05078L6.11487 0.925781L6.21985 0.957794L6.33289 1.06378L6.4079 1.09277Z" fill="#CCCCCC" stroke="white" stroke-width="0.5"/>
</svg>
