<svg width="48" height="45" viewBox="0 0 48 45" fill="none" xmlns="http://www.w3.org/2000/svg">
<path d="M47.5644 18.2711L47.5664 18.7871L47.5684 19.5641L47.5714 20.4291L47.5734 21.2252L47.5764 22.1312L47.5794 22.8582L47.5814 23.7172L47.5844 24.5702L47.4954 24.6682L47.4624 25.1472L47.4374 25.7772L47.2664 26.4291L46.9674 26.9091L46.8594 27.3651L46.7774 27.6262L46.6654 27.7682L46.6394 27.9381L46.5804 28.1782L46.4854 28.3332L46.4114 28.4131L46.1104 28.5071L45.5804 28.9662L45.5344 29.3332L44.9304 29.2321L44.2884 29.1281L44.2024 29.1352L44.1484 29.1832L44.1224 29.3772L43.2484 29.4091L42.4944 29.4372L41.5604 29.4691L40.9184 29.4911L40.1044 29.5352L39.3494 29.5761L38.8474 29.9981L38.3944 30.4001L38.3584 30.4142L37.7164 30.4932L36.9154 30.4232L36.5034 30.4192L36.3414 30.4672L36.3104 30.6182L35.7204 30.4062L35.0384 30.1912L34.5624 30.3261L34.4864 30.2802L34.4244 30.1902L34.1944 30.1382L33.8294 30.1612L33.5654 30.2252L33.1514 30.5432L32.8394 30.8202L32.7544 30.8831L32.3184 31.0511L31.5084 31.4412L31.0484 31.7281L30.9424 31.7802L30.7384 31.8452L30.4244 31.8582L30.1624 31.9301L29.9264 32.6841L29.7694 32.7592L28.8034 32.4551L28.6084 32.5002L28.4404 32.5891L27.9014 33.0312L27.6344 33.3852L27.4884 33.8552L27.5094 34.0002L27.5134 34.1642L27.4184 34.2531L27.2884 34.2852L27.1714 34.2802L26.7234 34.1832L26.5834 34.2252L26.5224 34.4572L26.5314 34.9632L26.4334 35.3072L26.1674 35.4131L25.9614 35.5492L25.7994 35.5882L25.6644 35.5551L24.8854 35.0411L24.6224 34.9592L24.3304 35.0161L24.0504 35.2342L23.9234 35.3772L23.7484 35.5461L23.5514 35.7711L23.6034 35.9612L23.7424 36.1822L23.8414 36.4561L23.8364 36.7011L23.1254 37.0492L23.1834 37.1682L23.2904 37.3082L23.2914 37.5612L23.2714 38.0042L23.1274 38.1642L22.9414 38.3221L22.8264 38.5251L22.7134 38.6252L22.5114 38.7502L22.2344 38.8762L21.7544 38.9861L21.3704 39.0602L21.2254 39.1321L21.0214 39.2802L20.8584 39.4582L20.8194 39.6501L20.8524 39.8701L20.9094 40.0501L20.9804 40.1732L21.0234 40.3282L20.9654 40.7451L20.8264 41.2281L20.6924 41.4431L20.4774 41.5612L20.2914 41.6931L20.3524 42.0092L20.3844 42.4622L20.3324 42.8242L20.3234 43.0471L20.2444 43.2791L20.1984 43.4421L20.1054 43.4022L19.7194 43.4211L19.2994 43.5452L19.1524 43.6442L19.1204 43.7791L19.0274 43.8701L18.8934 43.9721L18.7644 44.0971L18.5324 44.0771L18.3084 43.9911L18.1914 43.9081L18.1844 43.8582L18.2574 43.7361L18.3204 43.6031L18.3264 43.5152L18.2504 43.2992L18.1884 43.0671L18.2134 42.9561L18.1584 42.6142L18.1284 42.5971L17.8344 42.6852L17.7274 42.7072L17.6664 42.7451L17.6464 42.8102L17.7174 43.0272L17.6714 43.0641L17.5064 43.0591L17.2764 42.9872L17.0254 42.7881L16.9624 42.8531L16.9354 43.0111L16.9184 43.1982L16.9824 43.5381L16.9154 43.6591L16.7474 43.6371L16.5214 43.6382L16.3244 43.6711L16.1934 43.6791L16.1124 43.8001L16.0774 43.9362L16.1564 44.0862L16.1444 44.1501L16.0834 44.2082L16.0064 44.2432L15.9424 44.2392L15.7604 44.0721L15.5424 44.0102L15.0354 43.9142L14.9744 43.6862L14.8904 43.6822L14.7734 43.5622L14.6574 43.4032L14.5594 43.4112L14.4774 43.4561L14.1994 43.4381L13.9524 43.6791L13.7694 43.9792L13.5734 44.1231L13.3574 44.1862L13.2744 44.1881L13.3194 43.9991L13.2884 43.8601L13.2274 43.7372L12.5984 43.4081L12.5004 43.2722L12.4014 42.8982L12.3384 42.5241L12.3454 42.3051L12.3884 42.1082L12.3704 41.9561L12.3014 41.8401L12.1124 41.7281L11.9164 41.6761L11.6664 41.8221L11.5464 41.8502L11.4344 41.8401L11.3764 41.7862L11.3844 41.7112L11.6564 41.3102L11.7884 41.1432L11.9474 41.0152L12.0544 40.9471L12.1234 40.8492L12.1294 40.7711L12.1044 40.7151L11.9274 40.6411L11.6514 40.4542L11.5044 40.4341L11.3814 40.3492L11.2514 40.0562L11.1904 40.0002L11.0604 39.9702L10.9404 39.8982L10.9464 39.5172L10.9514 39.1881L10.6834 38.6581L10.5794 38.3242L10.4444 37.9802L10.3204 37.8192L10.1034 37.6841L9.83636 37.5901L9.59937 37.5681L9.41736 37.6002L9.33237 37.6422L9.33636 37.7061L9.48438 37.9232L9.51135 38.0442L9.48636 38.1612L9.43637 38.2392L9.30536 38.2481L9.07538 38.3152L8.79236 38.4471L8.59436 38.5602L8.43536 38.8462L8.32538 38.8821L8.13837 38.8462L7.60538 38.6352L7.16635 38.4612L6.86337 38.3611L6.68137 38.4251L6.58838 38.4561L6.32736 38.5721L5.98038 38.9951L5.89737 39.1352L5.82837 39.1801L5.73438 39.2542L5.64438 39.2562L5.57236 39.2061L5.54938 39.1751L5.37137 38.8701L5.17636 38.5341L5.01636 38.3821L4.81537 38.3752L4.64438 38.4802L4.46536 38.6962L4.24036 38.8961L4.09735 38.9561L3.97235 38.9232L3.66537 38.6711L3.44638 38.4911L3.41937 38.4012L3.49637 38.2632L3.57236 38.0572L3.65536 37.8902L3.73535 37.8131L3.75537 37.6002L3.56937 37.4492L3.56335 37.3762L3.58237 37.1761L3.66537 36.7531L3.65738 36.5922L3.73236 36.2772L3.61035 36.1352L3.58237 36.0302L3.44537 35.8622L3.28836 35.6241L3.25238 35.4332L3.19736 35.2812L3.04636 35.0522L2.93637 35.0161L2.70038 34.9811L2.66138 35.0602L2.57437 35.1742L2.49435 35.2072L2.36536 35.0671L2.31638 34.9471L2.31735 34.8382L2.14236 34.6472L1.87036 34.2971L1.89838 34.0081L2.06638 33.8521L2.11636 33.7342L2.13138 33.6021L2.05536 33.4421L1.96536 33.3162L1.99036 33.0371L1.96835 32.6491L1.83035 32.4551L1.70535 32.3131L1.53036 32.1602L1.38138 31.9242L1.44138 31.6002L1.49835 31.3772L1.23438 30.9142L1.72836 31.0971L1.79337 31.0371L1.96136 30.9251L2.18835 30.6891L2.37836 30.3762L2.46436 29.9892L2.50238 29.6552L2.58737 29.3722L2.69537 29.1321L2.93137 28.8821L3.15338 28.7051L3.41736 28.5211L3.55136 28.5541L3.80237 28.8112L4.35336 29.3261L4.80838 29.7181L4.97437 29.9261L5.12137 29.9282L5.34735 29.5482L5.58136 29.2212L5.68036 29.1411L5.98837 29.1052L6.25037 29.0912L6.47937 29.0971L6.89935 29.1602L7.09137 29.2181L7.27136 29.2531L7.79938 29.2822L8.32236 29.2021L8.81937 29.0992L9.18738 29.0381L9.20636 28.8831L9.18536 28.7002L9.24435 28.5612L9.36035 28.4322L9.45837 28.4032L9.50037 28.8431L9.61737 28.9091L9.94537 28.9282H10.4784H11.0504H11.6224H12.1954H12.7674H13.3394H13.9124H14.4844H15.0574H15.6294H16.2014H16.7734H17.3464H17.9184H18.4914H19.0634H19.6364H20.2294L20.3894 28.0792L20.5354 27.3001L20.6574 26.6461L20.2374 26.1841L19.9034 25.8162L19.8254 25.1142L19.7464 24.3892L19.6664 23.6631L19.5854 22.9362L19.5064 22.2082L19.4264 21.4792L19.3464 20.7491L19.2664 20.0182L19.1864 19.2862L19.1064 18.5522L19.0264 17.8181L18.9464 17.0832L18.8664 16.3462L18.7874 15.6082L18.7074 14.8691L18.6264 14.1281L18.5474 13.3871L18.4674 12.6442L18.3874 11.9001L18.3074 11.1552L18.2274 10.4081L18.1474 9.66116L18.0674 8.91116L17.9874 8.16116L17.9074 7.40915L17.8284 6.65616L17.7484 5.90115L17.6684 5.14514L17.5884 4.38715L17.5084 3.62814L17.4284 2.86816L17.3484 2.10614L17.2684 1.34216L17.1934 0.641144H18.0554L18.9744 0.640167H19.8694L21.1824 0.63916H22.1654L23.0224 1.22714L23.7994 1.78217L24.7184 2.43915L25.6374 3.09515L26.5574 3.75015L27.4764 4.40317L28.3954 5.05515L29.3134 5.70715L30.2334 6.35614L31.1524 7.00616L32.0714 7.65414L32.9904 8.30115L33.9094 8.94714L34.8284 9.59216L35.7474 10.2361L36.6664 10.8792L37.5854 11.5211L38.5044 12.1631L38.9154 12.4492L38.9534 12.5671L38.9914 12.8082L38.9674 13.0792L38.9714 13.3001L39.0924 13.4492L39.3214 13.6092L40.2204 14.0811L40.2914 14.1742L40.3234 14.3691L40.4304 14.6082L40.6204 14.7481L40.8424 14.8512L41.1134 14.9232L41.9284 14.9972L42.1014 15.1082L42.4534 15.5432L42.6444 15.6292L43.1874 15.7542L43.5804 15.8242L43.7424 15.8642L44.0984 15.9802L44.4854 16.1782L44.6904 16.3571V16.4131L44.6884 16.5692L44.6854 17.0362L44.7564 17.2932L44.8374 17.4792L44.8334 17.5922L44.7354 17.6721L44.6594 17.7711L44.6174 17.9012L44.5064 18.0662L44.4174 18.2502L44.4554 18.3882L44.6084 18.4781L44.8374 18.6532L45.0274 18.7271L45.1204 18.7321L45.2444 18.7271L45.3514 18.7042L46.0374 18.5702L46.6734 18.4452L47.5644 18.2711Z" fill="#CCCCCC" stroke="white" stroke-width="0.5"/>
</svg>
