<svg width="26" height="57" viewBox="0 0 26 57" fill="none" xmlns="http://www.w3.org/2000/svg">
<path d="M25.5453 22.055L25.3803 22.351L24.9513 22.658L24.6483 22.814L24.4713 22.818L24.3213 23.002L24.1983 23.364L24.0703 23.576L23.9383 23.639L23.8533 23.776L23.8133 23.986L23.8893 24.098L24.0813 24.113L24.0963 24.172L23.9343 24.275L23.7323 24.311L23.4923 24.28L23.2633 24.363L23.0473 24.558L22.8633 24.979L22.7113 25.625L22.6913 25.791L22.3573 25.603L22.2183 25.497L22.0393 25.47L21.8553 25.589L21.7093 25.718L21.5603 25.765L21.3313 25.78L21.0313 25.713L20.8273 25.653L20.7963 25.686L20.9073 25.958L20.9463 26.175L20.9023 26.288L20.8053 26.382L20.6593 26.456L20.4873 26.499L20.3353 26.495L20.0923 26.392L19.9063 26.388L19.7473 26.439L19.6503 26.515L19.5963 26.61L19.5023 27.146L19.4203 27.313L19.3053 27.408L19.1903 27.418L19.0323 27.392L18.8673 27.414L18.1183 27.621L18.0093 27.641L17.7753 27.657L17.5573 27.663L17.4043 27.653L17.0453 27.441L16.8713 27.419L16.7753 27.479L16.7093 27.763L16.4993 27.944L16.2193 28.337L16.1553 28.911L16.1833 29.311L15.9323 29.707L15.9093 29.898L16.0443 30.814L16.0223 30.91L15.9703 30.957L15.8133 30.989L15.5483 31.085L15.3733 31.176L15.2893 31.186L15.0423 31.118L14.9783 31.117L14.9973 31.187L15.1943 31.583L15.3983 31.771L15.6113 31.75L15.7033 31.787L15.6763 31.882L15.7583 32.13L15.9483 32.53L16.0063 32.83L15.8903 33.128L15.9113 33.235L15.9743 33.298L16.1543 33.575L16.5373 34.008L16.9123 34.476L17.2253 34.866L17.4543 35.136L17.9663 35.637L18.0573 35.872L18.0773 36.346L18.2033 36.62L18.3203 36.816L18.4013 36.98L18.5893 37.516L18.6693 37.588L19.0793 37.262L19.1743 37.33L19.2283 37.453V37.609L19.1643 37.786L19.0313 37.95L18.3973 38.328L18.3453 38.653L18.3013 39.146L18.2903 39.751L18.3213 40.203L18.2983 40.307L18.2423 40.356L18.0033 40.336L17.6593 40.564L17.5373 40.584L17.3863 40.671L17.2713 40.779L17.2343 40.943L17.3023 41.439L17.4253 41.904L17.6663 42.245L17.8573 42.515L18.1243 42.89L18.3343 43.216L18.7593 43.573L19.3553 44.107L19.5833 44.402L19.7843 44.759L19.9263 45.064L19.9803 45.468L20.0243 45.694L20.0373 46.45L19.9283 46.622L19.8443 46.821L19.8913 47.029L20.0303 47.228V47.455L20.1603 47.862L20.3783 48.111L20.5883 48.278L20.6813 48.41L20.6513 48.622L20.7133 48.847L20.7593 49.092L20.8443 49.431L21.0133 49.718L21.2703 50.597L21.2643 50.687L21.1533 50.865L20.9913 51.026L20.8873 51.078L20.7883 51.244L20.5533 51.713L20.0793 52.521L19.6173 53.047L19.2283 53.421L18.9473 53.648L18.8643 53.783V53.889L18.9153 54.077L18.8953 54.435L18.8353 54.662L18.7553 54.902L18.7103 55.116L18.5853 55.148L18.3173 55.556L18.2013 55.351L18.1333 55.138L18.2063 54.655L18.0433 53.74L18.1453 53.618L18.2423 53.556L18.4203 53.205L18.6353 52.857L18.6563 52.441L18.8303 52.136L18.7893 51.881L18.7983 51.582L18.8353 51.337L18.8213 51.136L18.9593 50.928L19.1983 50.772L19.0983 50.716L18.9983 50.602L18.6853 50.775L18.5253 50.718L18.4933 50.538L18.5333 50.345L18.5493 50.228L18.6743 50.096L18.6653 49.838L18.6023 49.611L18.6933 49.33L18.5083 49.329L18.4233 49.272L18.4763 49.116L18.6443 48.978L18.4913 48.714L18.6043 48.431L18.6003 48.081L18.5233 47.772L18.5273 47.55L18.4093 47.156L18.3553 46.652L18.1063 46.277L17.9213 45.73L17.4273 45.014L17.4363 44.707L17.4103 44.437L17.3023 44.306L17.1593 45.261L17.0503 45.073L17.0153 44.54L16.9443 44.287L17.0213 43.784L16.7353 43.284L16.6743 42.921L16.4863 42.37L16.5413 42.246L16.7923 42.37L16.5613 42.049L16.3733 42.121L16.2133 41.774L16.1783 40.833L16.0213 40.481L16.1073 40.122L15.9283 38.834L15.5743 38.416L15.6443 38.056L15.7323 37.736L15.7123 37.144L15.7993 36.961L15.9713 36.821L15.8103 36.87L15.6733 36.912L15.3523 36.947L14.9893 36.954L14.8633 36.521L14.6853 36.313L14.5293 35.878L14.4353 35.383L14.4963 35.286L14.2163 35.084L14.1443 34.96L13.8513 34.638L13.5183 34.393L13.5923 34.565L13.6823 34.674L13.5163 34.972L13.6783 35.474L13.5363 35.794L13.4033 36.21L13.2763 36.408L12.8753 36.834L12.5503 36.978L12.3383 37.005L12.1503 36.96L11.9203 36.74L11.8643 36.556L11.8273 36.247L11.7463 36.203L11.6593 36.239L11.7953 36.638L11.7933 36.824L12.0383 37.182L11.9513 37.282L11.5073 37.478L11.3563 37.446L11.2493 37.485L11.2203 37.646L11.1643 37.736L10.4653 37.982L10.3193 38.259L10.2293 38.54L9.88129 38.943L9.41528 39.276L9.30029 39.257L9.16833 39.179L9.18628 38.819L9.34631 38.514L9.29529 38.188L9.25629 38.375L8.95532 38.829L8.8183 38.977L8.5423 38.938L8.16028 38.999L8.0163 38.533L8.01929 38.362L7.99133 38.217L8.03528 38.064L8.0213 37.942L7.92932 38.175L7.89429 38.377L7.75433 38.557L7.37128 38.75L7.35529 38.505L7.34229 38.284L7.42432 38.085L7.41229 37.77L7.5343 37.314L7.52429 37.158L7.4873 36.985L7.41931 37.236L7.38031 37.496L7.30328 37.575L7.16229 37.634L6.9043 37.932L6.7533 38.199L6.35333 38.451L6.14233 38.425L6.1153 38.105L6.27533 36.97L6.43231 36.81L6.50531 36.613L6.63629 35.948L6.78333 35.697L6.84131 35.169L6.90131 35.078L7.09833 34.663L7.16632 33.901L7.08533 33.522L6.90033 33.154L6.72229 32.048L6.2583 31.15L6.22028 30.85L5.99133 30.487L6.20233 30.461L5.76831 30.143L5.70831 30.013L5.62128 29.267L5.63831 28.85L5.57532 28.905L5.5163 29.162L5.34631 29.267L5.4223 29.712L5.40228 29.82L5.31232 29.993L4.95032 29.813L4.68433 29.617L4.3833 29.14L4.08832 28.605L4.19232 28.522L4.32831 28.512L4.74731 28.91L5.01831 28.993L5.19031 28.894L5.40332 28.724L5.50531 28.394L5.40131 28.273L5.19629 28.207L5.06128 28.118L4.8653 27.894L4.84131 27.78L4.78033 27.634L4.58228 27.531L4.4223 27.4L4.55731 27.169L4.69031 26.997L4.33832 27.005L3.93829 26.709L3.85529 26.623L3.72229 26.564L3.40729 26.529L3.14532 26.616L3.26428 27.039L3.24133 27.179L3.06927 27.158L2.7113 26.514L2.81927 26.351L2.97333 26.198L2.89728 26.176L2.74829 26.186L2.89429 25.614L2.8053 25.529L2.75928 25.708L2.6803 25.88L2.37531 26.284L2.2243 26.208L2.1203 26.107L2.2663 25.895L2.34528 25.838L2.40033 25.724L2.28729 25.502L2.1073 25.34L1.96332 25.061L1.88831 25.057L1.95428 25.386L1.92731 25.856L1.60529 25.337L0.960327 24.599L0.808289 24.377L0.774292 24.16L0.702332 23.96L0.652283 23.741L0.641296 23.572L0.501282 23.419L0.438293 23.151L0.40332 22.879L0.483276 22.685L0.684326 22.476L0.827332 22.439L0.945312 22.531L1.22333 22.669L1.41132 22.798L1.49432 22.967L1.58228 22.946L1.67133 22.838L1.65332 22.705L1.56329 22.355L1.53833 21.93L1.5343 20.934L1.51233 20.82L1.6673 20.72L1.73029 20.606L1.79333 20.436L1.83331 20.361L1.92328 20.356L2.06531 20.439L2.2973 20.724L2.45233 20.788L2.60632 20.743L2.76733 20.316L2.82629 20.2L2.9043 20.124L3.0473 20.137L3.13031 20.06L3.16132 19.875L3.16028 19.669L3.00128 19.105L2.95331 18.844L2.92731 18.587L3.02728 18.322L3.16333 18.012L3.13129 17.741L3.16833 17.636L3.2793 17.621L3.41833 17.686L3.57129 17.641L3.68732 17.475L3.73431 17.33L3.80432 16.703L3.85132 16.128L3.87128 15.659L3.75232 15.378L3.56927 14.622L3.62231 14.493L3.70532 14.463L3.97632 14.728L4.09332 14.772L4.29028 14.731L4.48431 14.672L4.62531 14.668L4.82831 14.759L5.1073 14.86L5.54431 14.985L5.72333 15.079L5.87128 15.066L5.99133 14.772L6.13031 14.343L6.3363 13.704L6.57233 13.239L6.63531 13.115L6.89832 12.736L7.15332 12.338L7.37628 11.835L7.50031 11.472L7.48932 11.321L7.4093 11.196L7.24231 11.116L7.10431 11.033L7.06628 10.958L7.07031 10.873L7.1413 10.637L7.26233 10.358L7.38831 10.207L7.7193 10.02L7.9303 9.77896L8.16833 9.45996L8.2973 9.24298L8.3623 8.80096L8.43329 8.71298L8.57928 8.56998L8.69031 8.40298L8.68134 8.31198L8.62231 8.24698L8.51233 7.93698L8.4613 7.45096L8.48529 7.05597L8.5683 6.89496L8.67828 6.67096L8.88232 6.53296L9.17328 6.43698L9.61829 6.17496L10.3893 5.56696L10.6673 5.36896L10.8573 5.26596L11.0423 5.01096L11.2963 4.73196L11.6593 4.59296L11.8923 4.53897L12.9923 4.34796L13.1773 4.37198L13.3633 4.48297L13.5943 4.85498L13.7993 4.99496L14.0373 5.09296L14.2163 5.05096L14.2213 4.90097L13.6553 4.03296L13.6043 3.79596L13.5843 3.56897L13.6483 3.38898L13.8253 3.21698L14.0693 3.02298L14.3733 2.77997L14.5643 2.61197L14.7893 2.55798L14.8703 2.46097L14.8933 2.31998L14.8813 2.16595L14.7783 1.99197L14.7993 1.77298L14.8333 1.57397L14.9293 1.45798L15.1393 1.14297L15.2693 0.914978L15.3373 0.817963L15.4383 0.646973L15.6103 0.625977L15.7783 0.679962L15.8783 0.776978L15.9783 0.974976L16.0873 1.13696H16.2213L16.3573 1.11398L16.4203 1.13596L16.5503 1.27097L16.7983 1.59497L16.9083 1.67697L17.0123 1.81497L17.0673 2.09097L17.1013 2.36798L17.4123 3.32898L17.5053 3.53098L17.5743 3.68497L17.7193 3.72296L17.8373 3.56897L17.8833 3.40396L18.0053 3.34796L18.1513 3.37796L18.4193 3.53198L18.5633 3.61496L18.6353 4.08896L18.6513 4.64398L18.6303 4.81598L18.7473 5.27298L18.7833 5.79697L18.8083 6.08398L18.8113 6.35696L18.7903 6.71497L18.7273 7.19397L18.6223 7.60297L18.6603 7.94296L18.5973 8.09796L18.3413 8.17697L18.3193 8.30698L18.3943 8.51996L18.5733 8.78696L18.5783 8.95496L18.4913 9.06897L18.3033 9.07996L18.0423 9.18597L17.8623 9.52997L17.6723 9.81198L17.5683 9.86798L17.2203 9.78796L17.1373 9.85995L17.0153 10.34L16.9153 10.547L16.7663 10.721L16.6293 10.824L16.5053 10.896L16.2293 10.848L16.0833 11.137L15.9373 11.518L15.9253 11.715L16.0013 12.025L15.9613 12.111L15.8123 12.178L15.5673 12.317L15.4163 12.758L15.4223 13.186L15.5123 13.332L15.6813 13.396L15.8023 13.527L15.8143 13.733L15.9183 13.99L15.8693 14.289L15.5253 14.724L15.5153 14.961L15.6983 15.034L15.8563 15L16.0513 14.897L16.2803 14.731L16.7843 14.489L17.3333 14.351L17.7673 14.325L18.1383 14.335L18.3203 14.386L18.3753 14.475L18.8833 14.334L18.9893 14.326L19.0813 14.318L19.0783 14.412L18.7063 14.799L18.6373 14.979L18.6493 15.172L18.8013 15.351L18.9483 15.489L19.0733 15.835L18.9763 16.151L19.0383 16.266L19.1473 16.395L19.2133 16.577L19.2223 16.798L19.1603 17.151L19.6973 17.335L20.1613 17.418L20.4993 17.44L20.7163 17.521L20.8473 17.591L20.9393 17.717L20.9663 17.855L20.8533 17.952L20.6243 18.261L20.4923 18.674L20.5063 18.983L20.4903 19.251L20.2243 19.637L20.1193 19.902L20.0263 20.173L20.0293 20.291L20.0843 20.373L20.1973 20.421L20.3933 20.45L20.6333 20.419L21.2053 20.484L21.8583 20.603L22.1173 20.668L22.2023 20.788L22.1813 21.049L22.1403 21.292L22.1823 21.479L22.2873 21.65L22.4643 21.707L22.6163 21.773L22.6453 21.904L22.5983 22.082L22.6753 22.222L22.7623 22.314L22.9503 22.367L23.3313 22.253L23.5983 22.304L23.8393 22.382L24.0443 22.341L24.2473 22.241L24.6913 21.79L25.2083 21.546L25.3783 21.488L25.4923 21.517L25.5203 21.548L25.5133 21.64L25.5673 22.011L25.5453 22.055ZM2.73132 26.959L2.76831 27.241L2.6333 27.125L2.45728 26.733L2.46228 26.476L2.58832 26.596L2.73132 26.959ZM4.08331 27.052L4.14429 27.461L3.95233 27.308L3.88129 27.097L3.8623 26.881L4.08331 27.052ZM4.70929 28.043L5.03033 28.288L5.15833 28.271L5.3573 28.426L5.3623 28.487L5.32428 28.613L5.23431 28.712L4.99133 28.811L4.82428 28.731L4.7583 28.463L4.56232 28.337L4.51129 28.23L4.63531 28.084L4.70929 28.043ZM4.64233 30.623L4.59528 30.648L4.30328 30.401L4.07233 30.083L4.43933 30.02L4.79333 30.089L4.79529 30.258L4.7193 30.53L4.64233 30.623ZM15.5433 37.733L15.4373 37.771L15.2783 37.581L15.2463 37.129L15.3793 37.025L15.4503 37L15.5543 37.056L15.5943 37.129L15.6123 37.22L15.5843 37.313L15.5433 37.733ZM6.84833 38.625L6.66528 38.908L6.59833 38.485L6.89532 38.25L7.0423 38.025L7.19733 37.872L7.24628 38.059L7.0993 38.413L6.84833 38.625ZM7.76929 38.992L7.7113 39.066L7.59631 39.013L7.56927 38.981L7.83429 38.662L7.8623 38.781L7.76929 38.992ZM17.6213 46.828L17.6033 47.298L17.4623 47.071L17.4393 46.812L17.4503 46.571L17.4803 46.532L17.4893 46.569L17.5733 46.677L17.6213 46.828ZM17.8973 48.261L17.9603 48.34L18.0503 48.338L18.0253 48.617L17.8053 48.96L17.6743 49.01H17.6163L17.6653 48.509L17.5843 48.223L17.6113 48.033L17.8473 48.121L17.8973 48.261ZM16.9213 48.855L16.9043 48.959L16.7423 49.172L16.5993 49.048L16.5633 48.981L16.7083 48.844L16.8623 48.864L16.9033 48.833L16.9213 48.855ZM17.1193 49.539L17.0863 49.555L17.0403 49.546L16.9473 49.5L16.8403 49.306L16.8973 49.17L16.9363 49.137L17.0303 49.148L17.0803 49.174L17.0973 49.224L17.0703 49.331L17.0743 49.423L17.1193 49.539ZM18.1843 50.238L18.0673 50.254L18.0113 49.793L18.0443 49.727L18.2103 49.953L18.4463 50.091L18.3533 50.181L18.1843 50.238ZM16.9473 50.844L16.9693 51.002L16.7943 50.834L16.7643 50.366L16.9023 50.661L16.9623 50.728L16.9473 50.844ZM18.2893 50.694L18.2183 51.281L18.0403 51.2H17.9553L17.8493 50.868L17.8573 50.779L17.7933 50.561L18.2063 50.523L18.2893 50.694ZM17.3573 51.454L17.3413 51.518L17.3223 51.516L17.2593 51.471L17.2983 51.201L17.4043 50.98L17.5133 50.656L17.5743 50.586L17.5963 50.757L17.5293 51.124L17.4723 51.324L17.3573 51.454ZM18.2563 52.922L18.1923 52.928L18.1333 52.914L18.0753 52.87L18.2133 52.565L18.2563 52.922ZM17.3243 52.947L17.5583 53.438L17.5333 53.514L17.4973 53.552L17.4413 53.539L17.3473 53.274L17.1713 53.103L16.9603 53.135L17.1353 52.918L17.2043 52.869L17.3243 52.947ZM17.2483 55.837L17.1123 56.002L17.0663 55.995L17.1293 55.721L17.3553 55.521L17.5543 55.503L17.5323 55.627L17.3863 55.779L17.2483 55.837Z" fill="#CCCCCC" stroke="white" stroke-width="0.5"/>
</svg>
