<svg width="92" height="45" viewBox="0 0 92 45" fill="none" xmlns="http://www.w3.org/2000/svg">
<path d="M82.1699 10.7439L81.9069 11.3459L81.3809 12.5479L80.9359 13.5599L80.7 14.1279L80.528 14.5599L80.3489 14.9689L80.3229 15.2139L80.1219 15.6079L79.7479 16.0829L79.6669 16.5969L79.6819 17.0579L79.65 17.4699L79.2399 17.7309L78.9189 17.9629L79.0109 18.7409L79.176 19.0339L79.4429 19.3499L79.7239 19.6029L79.9669 19.8159L80.2349 19.7139L80.4619 19.3889L80.9 19.1029L81.1429 19.0959L81.3129 19.1619L81.6929 19.1809L82.0819 19.0769L82.387 19.0549L82.7809 19.1249L82.9229 19.1929L83.254 19.3189L83.611 19.5939L83.861 19.9009L84.043 19.9599L84.1359 19.8619L84.3359 19.5889L84.6169 19.3259L84.9579 18.8939L85.215 18.5619L85.4169 18.5109L85.8069 18.5119L85.9819 18.4319L86.2769 18.3899L86.538 18.5129L87.2639 18.5779L87.4589 18.7479L87.8029 19.2529L87.9979 19.5219L88.3359 19.6569L88.5399 19.7499L88.7209 19.8219L88.9009 19.9519L88.9439 20.1089L89.017 20.3489L89.127 20.4869L89.3319 20.6229L89.4879 20.7049L89.5369 20.8779L89.5859 20.9629L89.7289 21.0839L90.15 21.5999L90.3549 21.7379L90.6669 22.0359L90.7969 22.2829L90.804 22.5419L90.8849 22.7389L91.093 23.0349L91.1909 23.2349L91.1519 23.5059L91.1859 23.7459L91.1049 23.9929L90.77 24.1759L90.6539 24.2629L90.4119 24.2709L90.002 24.1789L89.603 24.2309L89.1259 24.1289L88.752 23.9119L88.5519 23.7369L88.2329 23.6339L88.0829 23.6879L87.8939 23.9129L87.6859 23.8729L87.494 23.9129L86.9999 23.8669L86.731 23.8099L86.306 23.9669L86.0649 24.0159L85.6129 24.2079L85.3419 24.5409L85.1389 24.6199L84.9409 24.6039L84.7999 24.4819L84.5939 24.3349L84.288 24.3429L84.197 24.4059L84.1589 24.5409L84.059 24.9509L84.0609 25.1349L83.994 25.2539L83.8129 25.2929L83.4959 25.2819L82.999 25.2549L82.663 25.1489L82.4609 25.1939L82.1859 25.4159L81.9899 25.4519L81.8309 25.5459L81.702 25.8729L81.4999 26.0759L81.2559 26.3279L80.994 26.8649L80.8499 27.1719L80.8959 27.3369L80.9279 27.5369L80.8069 27.7639L80.5609 27.9749L80.3629 28.0139L80.067 28.2169L79.6599 28.5819L79.356 28.8879L78.96 28.9619L78.679 29.0399L78.056 29.1349L77.9019 29.1589L77.2189 29.2059L76.713 29.0419L76.447 29.0669L76.2109 29.1599L76.0909 29.2609L76.049 29.4529L76.007 29.6299L75.8149 29.9049L75.4279 30.2689L75.1089 30.5099L74.864 30.8219L74.7249 30.9349L74.4449 31.0539L74.2939 31.1179L73.9429 31.3949L73.6639 31.6419L73.4799 31.7109L73.2579 31.6459L73.111 31.6249L72.6769 31.5299L72.3829 31.5179L71.9719 31.4569L71.0099 31.1679L70.7009 31.0329L70.4279 30.6649L70.181 30.4779L69.8459 30.4579H69.343L69.1179 30.3849L68.7399 30.4539L68.327 30.8279L68.132 31.1059L67.963 31.3909L67.7559 31.9979L67.6639 32.4029L67.5939 32.6309L67.3729 32.9939L67.3489 33.1969L67.4249 33.3729L67.5839 33.5709L67.679 33.8819L67.9109 34.2119L68.1389 34.4689L68.5679 34.8829L68.6899 35.0999L68.835 35.3479L68.866 35.5899L68.8389 35.7479L68.6849 35.8689L68.3839 35.9299L68.239 36.0969L68.0179 36.3209L67.7559 36.5789L67.6329 36.5929L67.4849 36.6619L66.744 36.9809L66.4619 37.0699L66.2399 37.1759L65.9769 37.4999L65.77 37.7409L65.5139 38.0609L65.4009 38.2019L65.174 38.5209L64.8749 38.8849L64.7089 39.0799L64.619 39.1959L64.5369 39.3489L64.2239 39.4659L63.9659 39.5909L63.5759 39.7789L63.017 39.9849L62.5649 40.1849L62.278 40.3489L61.851 40.5559L61.5609 40.6219L60.9769 40.6139L60.2549 40.6669L59.7289 40.7069L59.3339 40.6569L58.7369 40.6279L58.28 40.5879L57.9749 40.6649L57.2559 40.7459L57.0949 40.7639L55.814 40.9599L55.2479 41.0639L54.7299 41.1119L54.3489 41.1879L54.1329 41.2839L53.8129 41.4199L53.6439 41.4799L53.077 41.7479L51.8149 42.2999L50.9709 42.7469L50.8319 42.8229L50.2629 43.1379L49.934 43.2609L49.705 43.5409L49.5219 43.7179L49.33 43.7939L48.9879 43.6139L48.7459 43.6239L47.973 43.5579V42.7399L47.431 42.8549L46.5659 43.0399L45.7639 43.2109L45.03 42.8189L44.4639 42.5159L43.9719 42.2549L43.226 42.0819L42.575 41.9309L41.4009 41.6819L40.8849 41.4639L40.624 41.1749L40.158 40.5189L40.007 40.3889L39.78 40.2989L39.5449 40.2419L39.0349 40.2449L38.413 40.1939L37.517 40.0559L36.8049 39.9449L35.5909 39.7399L35.3029 39.7149L34.668 39.8969L33.8539 40.1299L32.3929 39.9469L31.7449 39.8619L30.4319 39.6879L28.9459 39.4909L27.5059 39.2869L26.46 39.3989L25.877 39.4619L25.2039 39.5519L25.111 39.4509L25.0839 39.0599L24.963 38.7569L24.5949 38.4289L24.348 38.1169L23.877 37.6939L23.7289 37.4269L23.679 37.0129L23.2449 35.9319L22.9749 35.1969L22.9069 35.0479L22.791 34.8079L22.6389 34.6829L22.3159 34.6059L22.2289 34.4759V34.2209L22.28 33.8679L22.3459 33.6099L22.299 33.5449L21.4559 33.6179L20.939 33.4469L20.5079 33.2609L19.8959 32.7849L19.533 32.6009L19.0679 32.1069L18.392 31.9899L18.14 31.7959L17.822 31.3719L17.5449 31.0989L17.1509 30.9269L16.5289 30.7739L15.4669 30.6279L15.1069 30.5659L14.5209 30.6639L14.0859 30.6719L13.3809 30.5679L12.9789 30.4369L12.4829 30.4329L12.1599 30.4349L11.7289 30.4049L11.5209 30.3189L11.3279 30.2139L10.9659 30.2399L10.713 30.1349L10.4769 29.9389L10.2299 29.8459L9.95996 29.8519L9.84894 29.9389L9.74493 29.9309L9.67792 29.6659L9.42493 29.2369L9.38696 29.0439L9.23193 28.8219L9.14093 28.6199L9.16595 28.3409L9.27496 27.7979L9.51794 27.3059L9.67596 27.1779L9.77295 27.0319L9.97693 26.7769L10.0949 26.5729L10.0809 26.2929L9.94196 26.0009L9.84192 25.6239L9.85992 25.4069L10.0099 25.1489L10.1859 24.5759L10.171 24.4249L10.1019 24.3049L10.0839 24.0379L10.0499 23.6799L9.83893 23.1309L9.72491 22.8389L9.52496 22.7129L9.29095 22.6369L9.08893 22.2409L8.83496 21.7729L8.67596 21.4789L8.62091 21.2989L8.59595 20.9719L8.47693 20.5749L8.35193 20.3569L8.25891 20.1889L8.21094 19.9479L8.16296 19.8599L7.81891 19.7529L7.57294 19.5729L7.47095 19.3309L7.43494 19.1349L7.36096 19.0209L7.16693 18.9849L7.03192 19.1609L6.81091 19.2489L6.66095 19.2329L6.51392 19.1269L6.42291 19.0159L6.26892 18.8909L6.05096 18.4939L5.82196 18.3889L5.40192 18.4069L5.02795 18.5909L4.80194 18.5619L4.60992 18.4999L4.39594 18.3019L4.24591 18.1379L4.02295 18.0849L3.58392 17.7959L3.28693 17.5879L3.26196 17.1789L3.12195 16.8969L2.83191 16.8169L2.53992 16.5269L2.11395 16.3709L1.84595 16.2499L1.61292 16.1769L1.57892 16.0669L1.59296 15.9729L1.69995 15.8159L1.81195 15.6689L1.83893 15.5329L1.74896 15.4129L1.50793 15.2869L1.19794 15.1739L1.13495 14.9869L0.949951 14.7919L0.981934 14.6349L1.12897 14.5199L1.27692 14.4349L1.31195 14.2869L1.20593 14.1509L1.15497 13.9449L1.17993 13.7909L1.14893 13.5939L1.15991 13.5949L1.48694 13.5839L1.63696 13.4889L1.74994 13.3479L1.99493 13.1909L2.04694 13.0109L2.05096 12.6539L2.21094 12.3519L2.61792 12.2619L2.77393 12.2179L2.93994 12.2619L3.19794 12.2189L3.44696 12.2039L3.58594 12.2969L3.76996 12.3749L4.00494 12.3659L4.08496 12.2239L4.09491 12.0249L4.19592 11.9729L4.32294 12.1109L4.39496 12.2139L4.49994 12.2609L4.78394 12.1379L4.98193 12.0049L5.04694 11.7309L5.16193 11.5959L5.31592 11.6649L5.58691 11.6629L5.80994 11.4509L6.10297 11.2819L6.31293 11.2049L6.35492 11.0619L6.25696 10.7459L6.28394 10.3999L6.56494 10.2039L6.94092 10.1809L7.21991 10.0459L7.29694 9.67587L7.43494 9.56989L7.57391 9.52789L7.91296 9.46988L8.15692 9.31888L8.30792 9.24988L8.73395 9.04688L9.12195 9.00787L9.28796 8.84589L9.41797 8.64188L9.63593 8.56387L9.85693 8.38687L10.15 8.16187L10.2659 8.12988L10.7459 7.99887L10.934 7.95087L11.0469 7.92188L11.2549 7.93088L11.343 7.69186L11.554 7.51688L11.7659 7.45789L11.869 7.28287L12.072 7.05988L12.3469 6.93689L12.7739 6.91788L13.1879 6.94287L13.437 6.90488L13.6409 6.57489L13.6799 6.41187L13.7269 6.24487L13.8929 6.18088L14.093 6.45187L14.262 6.61987L14.5209 6.79489L14.655 6.95889L14.809 6.98187L14.9699 6.85889L15.0839 6.55988L15.2999 6.51389L15.538 6.56189L15.601 6.70889L15.6209 6.85287L15.7299 7.10889L15.9919 7.33188L16.327 7.32089L16.4619 7.28088L16.788 7.31189L17.1089 7.35986L17.4589 7.41287L17.5609 7.42087L17.9359 7.44788L18.481 7.48688L18.7219 7.46887L19.2139 7.54187L19.314 7.73987L19.405 8.20789L19.4819 8.65289L19.5049 9.00989L19.6329 9.19489L19.796 9.25488L19.9039 9.39886L20.0939 9.59488L20.2339 9.87488L20.405 9.85587L20.5239 9.78989L20.7859 9.76889L21.1199 9.78787L21.353 9.94186L21.4399 10.1459L21.629 10.2589L21.7819 10.2229L22.2399 10.2219L22.3979 10.2339L22.556 10.3459L22.783 10.3649L22.908 10.2229L23.3029 10.1259L23.5309 9.92389L23.7069 9.92188L23.84 10.0199L23.942 10.1519L24.093 10.0929L24.1749 9.98389H24.3069L24.4359 10.0549L24.767 10.1779L25.007 10.4079L25.192 10.4309L25.4319 10.3629L25.5419 10.3319L25.6469 10.4459L25.8019 10.5069L25.9189 10.4229L26.1199 10.3629L26.8889 10.4879L27.0659 10.7179L27.2029 10.8259L27.3129 11.0129L27.5139 11.1469L27.9379 11.1009L28.103 10.9639L28.4459 10.6599L28.5829 10.3629L28.7559 10.2679L28.9509 10.2189L29.1339 10.2199L29.325 10.2099L29.5579 9.99188L29.7459 9.91586L30.025 9.63889L30.077 9.51389L30.213 9.18988L30.2969 8.98486L30.4379 8.65689L30.5139 8.12787L30.5569 7.84686L30.52 7.64389L30.3539 7.53787L30.1429 7.48788L29.9569 7.33289L29.8189 7.15189L29.7379 6.89886L29.629 6.60187L29.6349 6.38687L29.6039 6.22089L29.5109 6.07889L29.3319 5.82986L29.2449 5.64389L29.2739 5.34787L29.4849 4.84189L29.5049 4.60587L29.5309 4.45987L29.52 4.32687L29.5859 4.02188L29.705 3.89389L29.8409 3.56686L30.0239 3.41586L30.254 3.40588L30.353 3.31686L30.4009 2.98889L30.512 2.73587L30.5859 2.55688L30.726 2.36087L31.533 1.98288L31.8679 1.51187L31.9869 1.27386L32.1169 0.761871L32.2419 0.546875L32.424 0.617889L32.6379 0.919891L32.7979 0.922882L33.0359 1.08588L33.6849 1.42886L34.0359 1.53589L34.262 1.56888L34.5609 1.66388L34.7529 1.86389L35.1279 2.18988L35.4449 2.27289L35.9949 2.30588L36.6639 2.32288L36.8539 2.37988L37.343 2.61389L37.8849 2.87286L38.395 3.10388L38.7809 3.28189L39.0099 3.45587L39.2249 3.55487L39.4579 3.46988L39.757 3.48889L40.4589 3.69687L40.903 3.87088L41.2739 3.99988L41.3979 4.17789L41.4099 4.41489L41.3599 4.61487L41.3879 5.09888L41.507 5.35287L41.551 5.69186L41.5959 6.01587L41.564 6.33487L41.6209 6.50388L41.7369 6.60388L41.8499 6.82587L41.8129 7.05988L41.7629 7.19589L41.7709 7.41489L41.905 7.59488L42.1039 7.62988L42.278 7.67688L42.494 7.95987L42.879 8.28589L43.1089 8.37589L43.374 8.52188L43.879 8.66586L44.2219 8.70789L44.424 8.82489L44.6219 9.10388L44.95 9.16187L45.1599 9.25888L45.5439 9.37387L45.7979 9.30789L46.0209 9.20987L46.1699 9.22888L46.4579 9.29187L46.7949 9.30588L47.0779 9.23889L47.304 9.04187L47.567 8.77588L47.8829 8.64087L48.2479 8.59286L48.4979 8.48486L49.3159 8.30487L49.6459 8.27289L49.9019 8.09988L50.129 7.96387L50.4569 7.90488L50.9 8.04788L51.3239 8.16687L51.8369 8.20587L52.1779 8.36987L52.4189 8.52487L52.799 8.64789L53.2209 8.59088L53.7999 8.54187L54.1829 8.61288L54.5829 8.89487L54.8289 9.11987L55.106 9.60187L55.3959 9.83389L55.6479 10.0239L55.968 10.0369L56.765 10.0519L57.202 10.1519L57.5659 10.2059L57.653 10.3059L57.6169 10.6349L57.6279 11.1039L57.6229 11.3189L57.7029 11.4809L57.827 11.5099L57.895 11.7389L58.075 11.8739L58.3979 12.0369L58.942 12.5899L59.267 12.8259L59.5219 12.9059L59.8569 12.8509L60.382 12.8529L61.2709 12.8539L61.8799 13.0199L62.0909 13.1329L62.713 13.2649L63.3969 13.4089L63.9749 13.5599L64.3149 13.3649L64.614 13.3469L64.8989 13.4879L65.1849 13.6999L65.405 13.6769L65.736 13.5779L66.793 12.9859L67.1639 12.7639L67.424 12.8209L67.6559 12.7429L67.8329 12.6759L68.2839 12.5839L68.559 12.5589L68.8419 12.5059L69.2499 12.4699L70.0789 12.0809L70.4149 12.0049L70.9829 12.1129L71.2889 12.0419L71.5939 11.8459L71.9879 11.6429L72.0909 11.3129L72.293 10.8589L72.7289 10.5249L73.0829 10.2319L73.4439 9.94788L73.8879 9.70987L74.306 9.53787L74.838 9.08487L75.262 8.85489L75.473 8.77988L75.7239 8.86288L76.1929 8.92389L76.533 8.90588L76.7249 8.95789L77.1069 9.17987L77.455 9.37387L77.7209 9.71988L78.2159 10.2009L78.4699 10.3619L78.65 10.4289L79.0959 10.4739L79.46 10.4979L79.6779 10.3879L80.0449 10.1869L80.6299 9.93088L80.8599 9.93787L81.2369 10.0739L81.799 10.3249L82.0239 10.5129L82.1699 10.7439Z" fill="#CCCCCC" stroke="white" stroke-width="0.5"/>
</svg>
