<svg width="36" height="39" viewBox="0 0 36 39" fill="none" xmlns="http://www.w3.org/2000/svg">
<path d="M35.1654 7.63904H34.1824L32.8694 7.64005H31.9744H31.0554H30.1944L30.2694 8.34103L30.3494 9.10504L30.4294 9.86703L30.5094 10.628L30.5894 11.387L30.6694 12.145L30.7494 12.901L30.8294 13.655L30.9094 14.408L30.9894 15.159L31.0694 15.909L31.1494 16.659L31.2294 17.407L31.3094 18.154L31.3894 18.9L31.4694 19.644L31.5494 20.387L31.6294 21.129L31.7094 21.869L31.7894 22.608L31.8694 23.346L31.9494 24.083L32.0294 24.818L32.1094 25.552L32.1894 26.285L32.2694 27.017L32.3494 27.748L32.4294 28.478L32.5094 29.207L32.5894 29.935L32.6694 30.662L32.7494 31.388L32.8294 32.113L32.9074 32.815L33.2414 33.183L33.6614 33.645L33.5384 34.299L33.3924 35.078L33.2324 35.927H32.6394H32.0664H31.4944H30.9224H30.3504H29.7774H29.2054H28.6334H28.0614H27.4894H26.9164H26.3444H25.7724H25.2004H24.6274H24.0554H23.4834H22.9504L22.6224 35.907L22.5054 35.841L22.4634 35.402L22.3654 35.43L22.2494 35.559L22.1894 35.699L22.2104 35.882L22.1914 36.037L21.8234 36.098L21.3264 36.202L20.8034 36.282L20.2754 36.253L20.0954 36.217L19.9044 36.159L19.4844 36.096L19.2554 36.091L18.9934 36.105L18.6844 36.14L18.5854 36.221L18.3524 36.548L18.1264 36.927L17.9794 36.925L17.8134 36.717L17.3584 36.325L16.8074 35.809L16.5564 35.553L16.4234 35.52L16.1594 35.704L15.9374 35.881L15.7014 36.131L15.5944 36.371L15.5094 36.654L15.4714 36.987L15.3854 37.375L15.1944 37.688L14.9684 37.924L14.8004 38.035L14.7354 38.096L14.2414 37.912L14.1794 37.889L13.8814 37.681L13.7374 37.434L13.5024 37.248L13.1764 37.123L12.9644 36.981L12.8654 36.821L12.7454 36.715L12.6184 36.66L12.6064 36.603L12.6364 36.524L12.6064 36.378L12.4154 36.052L12.2374 35.902L12.0854 35.926L11.9994 35.886L11.9474 35.814L11.9264 35.709L11.8224 35.618L11.6424 35.578L11.4974 35.336L11.3884 34.891L11.2464 34.544L11.0724 34.295L10.9474 34.202L10.8554 34.185L10.8244 34.146L10.7994 34.074L10.6634 34.048L10.4724 34.123L10.3004 34.098L10.2164 33.976L10.0994 33.965L9.95041 34.065L9.7854 34.036L9.60541 33.877L9.5054 33.719L9.48639 33.562L9.17538 33.249L8.57339 32.779L7.91739 32.559L7.2074 32.588L6.80939 32.566L6.72238 32.492L6.63541 32.498L6.54739 32.584L6.45441 32.603L6.35541 32.555L6.2934 32.591L6.26941 32.711L6.01941 32.773L5.5444 32.774L5.1604 32.848L4.86841 32.994L4.45441 33.057L3.9184 33.037L3.5954 32.983L3.48538 32.897L3.33139 32.876L3.13339 32.922L2.95538 33.155L2.7984 33.574L2.6694 33.813L2.56641 33.872L2.45639 34.184L2.39441 34.706L2.30139 34.935L2.30038 33.633L2.4534 33.146L2.50339 32.718L2.83139 31.771L3.22238 30.995L3.5834 29.963L3.71939 28.961L3.6734 27.978L3.56641 27.102L3.38339 26.522L3.20639 25.681L2.9454 25.237L2.46741 24.849L2.36038 24.622L2.47141 24.537L2.76239 24.479L2.94739 24.176L2.55539 24.293L3.00839 23.363L3.14938 22.729L3.12741 22.312L3.21341 22.054L2.8674 21.495L2.59839 20.79L2.45941 20.679L2.3154 20.62L2.3024 20.786L2.2244 20.934L2.0564 20.845L1.7594 20.332L1.34439 19.496L1.19839 19.41L1.07739 19.525L1.0014 19.635L0.861389 20.333L0.816406 20.056L0.877411 19.73L0.980408 19.328L1.09641 18.769H1.45639L2.1004 18.768L2.74438 18.767H3.3884L4.03241 18.766L4.67639 18.765L5.3194 18.764H5.96341L6.60739 18.763L7.2514 18.762H7.89539L8.5394 18.761L9.18341 18.76H9.82639L10.4704 18.759L11.1144 18.758H11.7574H12.1824L12.1574 18.36L12.1374 18.044L12.1104 17.619L12.0834 17.196L12.0574 16.772L12.0324 16.373L12.0074 15.974L11.9844 15.604L11.9634 15.264L11.9264 15.068L11.7894 14.679L11.7604 14.486L11.7974 14.282L11.8884 14.09L12.1394 13.738L12.5194 13.467L12.9574 13.154L13.2914 12.915L13.4624 12.856L13.9854 12.773L14.3974 12.592L14.7984 12.416L14.9664 12.318L14.9864 11.987V11.617V11.202V10.786V10.37V9.95303V9.53604V9.11902V8.70102V8.28302V7.86502V7.44604V7.02603V6.60602V6.18503V5.76404V5.34204V4.92004V4.55002H15.4064H15.9294H16.4514H16.9744H17.4974H18.0204H18.5434H19.0664H19.5894H20.1124H20.6354H21.1584H21.6814H22.2044H22.7264H23.2494H23.7724H24.3434V4.19604V3.68704L24.3424 2.98703V2.28302L24.3414 1.66302V1.04202L24.3404 0.519043L24.8684 0.866028L25.3964 1.21304L25.9244 1.56003L26.4524 1.90604L26.9804 2.25204L27.5084 2.59702L28.0354 2.94202L28.5634 3.28702L29.0914 3.63202L29.6194 3.97604L30.1474 4.32004L30.6754 4.66302L31.2034 5.00604L31.7314 5.34903L32.2594 5.69202L32.7864 6.03403L33.2284 6.32004L33.9074 6.78104L34.5404 7.21002L35.1654 7.63904ZM2.74838 23.604L2.56839 23.892L2.4884 23.782L2.4574 23.593L2.6174 23.322L2.69339 23.182L2.8324 23.131L2.74838 23.604Z" fill="#CCCCCC" stroke="white" stroke-width="0.5"/>
</svg>
