<svg width="10" height="24" viewBox="0 0 10 24" fill="none" xmlns="http://www.w3.org/2000/svg">
<path d="M6.81268 7.17102L6.4397 7.16403L5.9707 7.20102L5.85571 7.29102L5.82068 7.49002L5.67371 7.90002L5.59167 8.05103L5.4187 8.32703L5.17468 8.71603L5.12372 8.84302L5.13171 8.97403L5.2757 9.50302L5.4267 10.059L5.47467 10.277L5.58167 11.017L5.64172 11.541L5.6507 11.849L5.70172 12.261L5.83569 12.484L5.97668 12.624L6.50671 12.708L6.66467 12.811L6.96472 13.074L7.62067 13.802L7.98071 14.267L8.29767 14.676L8.86371 15.437L9.30371 16.029L9.3587 16.585L9.4317 16.666L9.28369 17.079L9.18671 17.746L9.25671 18.189L9.22772 18.946L9.14667 19.753L9.04572 20.042L8.91571 20.151L8.60767 20.238L7.9317 20.339L7.83069 20.434L7.74371 20.591L7.60669 20.964L7.44568 21.34L7.39471 21.501L7.42572 21.539L7.57068 21.731L7.71472 22.222L7.74072 23.065L7.69067 23.128L7.49072 23.165L7.2757 23.154L7.18671 23.106L7.10669 23.012L7.04871 22.832L7.1897 22.707L7.23969 22.487L7.14972 22.299L6.96869 22.257L6.73871 22.084L6.24872 21.521L5.83868 21.126L5.60071 20.799L5.35767 20.669L5.28772 20.589L5.2287 20.451L5.22772 20.252L5.24969 20.106L5.17371 19.941L4.92767 19.687L4.81567 19.546L4.80969 19.378L4.9137 19.216L5.12372 19.018L5.28271 18.617L5.33972 18.358L5.63672 17.837L5.67767 17.385L5.68372 17.024L5.66571 16.754L5.58972 16.201L5.53668 15.819L5.17072 15.319L5.0517 15.272L4.70471 15.316L4.40472 15.389L4.25769 15.493L4.03467 15.498L3.44971 15.585L3.26569 15.622L3.15967 15.712L3.09772 15.731L2.72968 15.345L2.40668 14.928L1.99567 14.22L1.87872 14.135L1.7287 13.927L1.6037 13.979L1.4317 14.125L1.33868 14.165L1.29071 14.161L1.2597 14.124L1.22168 14.031L1.08868 13.764L0.939697 13.573L0.781677 13.499L0.65271 13.411L0.709717 13.326L0.769714 13.265L0.743713 13.202L0.671692 13.11L0.391724 12.977L0.387695 12.92L0.634705 12.805L0.79071 12.668L0.896667 12.537L1.0307 12.25L1.13971 11.964L1.22168 11.871L1.24969 11.682L1.23071 11.469L1.28571 11.197L1.31171 10.94L1.2287 10.84L1.15869 10.667L1.2417 10.373L1.3717 10.17L1.99469 9.95905L2.42871 9.76804L2.52069 9.68503L2.66772 9.52203L2.74969 9.36304L2.69067 9.31604L2.34967 9.31204L2.26569 9.25104L2.01971 8.69202L2.1557 8.05203L2.16772 7.80103L2.16467 7.48904L2.1217 7.26202L2.01367 7.16702L1.94769 7.04504L1.9657 6.71204L2.06567 6.67203L2.28168 6.23203L2.37769 5.97302L2.2627 5.76602L2.13568 5.47104L2.0777 5.28302L2.04572 5.22104L2.13367 5.10504L2.27972 4.99304L2.44366 4.96204L2.6167 4.90903L3.16168 4.36304L3.1687 4.25702L3.0697 4.07404L2.86572 3.79803L2.82068 3.68604L2.79669 3.35403L2.7157 3.25504L2.41669 3.03204L2.18671 2.79703L2.25867 2.55902L2.29767 2.29904L2.18372 2.15604L2.01471 2.00803L1.90967 1.79202L1.86169 1.63104L1.7287 1.56702L1.60571 1.56503L1.51569 1.66504L1.4187 1.65604L1.30072 1.62103L1.26172 1.48203L1.2547 1.33203L1.17371 1.23004L1.0957 1.08804L1.08569 1.01303L1.1347 0.991028L1.23767 0.978027L1.6767 1.26303L1.94269 1.27603L2.23871 1.32904L2.4917 1.58002L2.62268 1.61304L2.78967 1.57803L3.2677 1.55203L3.45972 1.58804L3.70667 1.73502L3.80371 1.75504L3.95868 1.76102L3.98572 1.72104L4.00171 1.63403L3.97467 1.45804L4.0097 1.36304L4.1037 1.26004L4.36469 1.38004L5.01672 1.92804L5.03668 1.99902L5.4527 2.54303L5.58771 2.77304V2.89502L5.7157 3.37103L5.74371 3.59402L5.71472 3.76404L5.71967 3.90002L5.76971 4.09402L5.75269 4.17603L5.9007 4.46103L5.97168 4.70102L5.98669 4.93503L5.9447 5.16403L5.81372 5.49704L5.79169 5.63104L5.82068 5.75302L5.9057 5.88602L6.04669 6.02902L6.15271 6.20102L6.22467 6.40402L6.28571 6.49603L6.36169 6.49402L6.50171 6.52502L6.61371 6.64404L6.74371 6.84302L6.78668 7.07202L6.81268 7.17102ZM5.92072 8.41302L5.86469 8.56403L5.74872 8.56204L5.63971 8.42804L5.67468 8.32404L5.77972 8.29202L5.8717 8.33102L5.92072 8.41302ZM6.13867 8.68903L6.03967 8.71204L5.97772 8.66104L5.99268 8.50903L6.02771 8.39902L6.12567 8.38202L6.19366 8.41104L6.24072 8.46103L6.2417 8.54202L6.21271 8.62503L6.13867 8.68903Z" fill="#CCCCCC" stroke="white" stroke-width="0.5"/>
</svg>
