<svg width="90" height="57" viewBox="0 0 90 57" fill="none" xmlns="http://www.w3.org/2000/svg">
<path d="M60.0602 22.6521L60.0092 23.2931L59.8392 23.8171L59.2802 24.9061L59.0472 25.5801L58.5962 27.4981L58.4572 28.7501L58.4242 29.3381L58.3852 29.4211L58.4272 29.5071L58.3192 30.8041L58.3772 31.9081L58.3402 32.0791L58.1762 32.4111L58.0612 32.8701L58.1062 33.0741L58.1042 33.2151L58.2722 33.9121L58.3262 34.4351L58.8272 35.3291L59.1082 35.6411L59.4572 35.9111L59.5852 36.0631L59.5222 36.4421L59.3802 36.6331L59.3192 36.9371L59.2492 36.6861L59.2762 36.3601L59.3872 36.1851L59.3912 36.0571L59.1862 35.9201L58.8112 35.4711L58.3532 34.6751L58.6792 35.9461L58.7912 36.1491L58.8782 36.2331L59.0242 36.3221L59.0622 36.4601L59.0632 36.5621L59.4652 37.4421L59.9202 38.3501L59.9442 38.5981L60.1262 38.9031L61.2852 40.1731L61.9942 41.1191L62.2402 42.0151L62.3882 42.2941L62.4612 42.6761L62.9252 43.1041L63.0672 43.3801L63.3162 43.5331L63.5172 43.9951L63.8952 44.2651L63.8052 44.2701L63.4742 44.1341L63.4962 44.2241L63.7742 44.4151L64.3192 44.6031H64.4552L64.2402 44.5051L64.0582 44.3731L64.1222 44.3541L64.5032 44.5181L65.5682 44.5721L66.0372 44.9551L66.6452 45.1201L66.9722 45.6091L67.3522 46.1191L67.5952 46.1431L67.7842 46.1451L68.3542 46.0591L69.2402 45.7381L69.5452 45.5811L70.1402 45.3681L71.0512 45.3291L71.3332 45.3891L72.0142 45.2561L72.3392 45.0931L72.4522 44.9451L72.5052 44.8361L73.1362 44.6801L73.2612 44.6491L73.9002 44.6211L74.2092 44.5631L74.5722 44.5291L74.8342 44.7591V44.8711L74.6592 44.9771L74.7412 45.0801L75.0522 45.2501L75.6222 45.3191L75.8072 45.2921L76.0702 45.0411L76.5332 44.7981L76.5232 44.5151L76.4402 44.3601L76.3062 44.3501L76.2742 44.2631L76.3682 44.0551L76.3442 43.9851L76.0562 44.1851H75.9902L76.0222 44.0921L76.0822 44.0181L76.9262 43.5821L77.1422 43.4031L77.4342 43.2451L78.0392 42.6521L78.1682 41.5341L78.2892 41.3381L78.6902 40.9941L78.7332 40.8901L78.7592 40.6561L78.7482 40.0671L78.7702 39.6031L78.7532 39.0781L78.8252 38.6091L78.8902 38.4781L79.1202 37.7261L79.5982 37.3931L80.4272 36.9981L80.6172 36.9331L83.2582 36.5151L83.6292 36.4131L84.0832 36.1421L84.4152 36.0501L85.0202 36.0571L85.2062 36.0211L85.2432 35.9841L85.2442 35.9471L85.3562 35.9101L85.7062 35.9461L86.3602 36.1101L86.5982 36.1511L87.1832 36.3411L87.8272 36.4171L87.9192 36.3841L88.0042 36.3261L88.0692 36.2151L88.0022 36.1181L87.9392 36.1251L87.8302 36.1771L87.7002 36.1821L87.4452 36.1021L87.4962 36.0351L87.7562 36.0411L87.9232 36.0091L88.1702 35.8921L88.4332 35.9801L88.7792 36.3681L89.0252 36.4911L89.0452 37.0531L89.0822 37.1561L89.1722 37.3041L89.0492 37.7391L88.9112 38.0981L88.7382 38.3921L88.3642 38.8551L87.9102 39.2251L87.3482 40.0461L87.2202 40.4301L87.2232 40.7381L87.3182 41.0351L87.2912 41.1451L87.2222 41.2561L87.1082 41.2461L86.8862 41.3881L86.6002 41.8101L86.5942 41.9381L86.7192 42.0561L86.8822 41.9991L87.0942 41.9941L87.2132 41.9591L87.3382 41.9681L87.3102 42.2101L87.1762 42.3821L87.0912 42.4361L86.9392 42.4651L86.7692 42.5631L86.6822 42.6531L86.6902 42.9321L86.7842 42.9541L86.9842 42.7461L87.1002 42.7561L87.1232 42.8441L86.8642 43.5571L86.6972 44.2881L86.4712 44.7111L86.3912 45.3261L86.2722 45.5881L86.1342 45.8471L86.0532 45.8331L85.8352 45.3421L85.6122 45.2161L85.5632 45.0971L85.6902 44.5011L85.6322 44.1711L85.5142 44.1841L85.3662 44.3651L85.1692 44.5221L85.1732 44.7491L84.9472 45.1261L84.8912 45.2501L84.6762 45.2211L84.4262 45.2371L84.2532 45.3281L84.0762 45.7851L83.6342 46.4281L83.4582 46.7391L83.3142 46.8461L83.2012 46.8881L83.0752 46.8151L82.7732 46.6391L82.5402 46.7231L82.4592 46.9251L82.4622 47.1801H81.8722L80.8702 47.1791L79.5942 47.1781L78.3642 47.1771L77.3342 47.1761L77.3302 47.7491L77.3272 48.2561L77.3242 48.8261L76.7562 48.8211L76.1552 48.8161L76.2032 48.8731L76.4092 48.9801L76.6762 49.2351L76.9912 49.6321L77.3732 49.9481L77.8222 50.1831L78.1172 50.4131L78.2602 50.6381L78.3322 50.8291V50.9871L78.4962 51.1121L78.7892 51.1951L78.9412 51.3361V51.4511L78.8482 51.7121L78.8212 52.0001L78.8572 52.2601L78.6472 52.2641H78.1382L77.3632 52.2651H76.6502H76.0882L75.2392 52.2661L75.0062 52.6661L74.6192 53.3301L74.2682 53.9311L73.9742 54.4361L73.9262 54.5691V54.6771L74.2902 55.1491L74.2232 55.2861L74.0962 55.3581L74.0552 55.4691L74.0632 55.6491L73.9772 55.8881L74.0052 56.0531L74.0512 56.2561L73.9752 56.4321L73.9132 56.6021L73.8402 56.6761L73.7572 56.6121L73.0092 55.8281L72.2292 54.9651L71.9222 54.6831L71.6252 54.4691L71.2252 54.0711L70.1752 53.1961L69.6332 52.7961L69.1232 52.3171L68.6652 52.0511L68.2142 51.8781L68.0132 51.7781L67.8372 51.6471L67.7392 51.6391L67.6902 51.8171L67.8482 51.9061L68.0372 51.9821L68.1862 51.9871L68.3432 52.0501L68.8062 52.2931L68.8822 52.4181L67.5652 51.9321L67.0292 51.8871L66.9712 51.8111L67.2382 51.5571L67.1552 51.4651L67.0602 51.4521L66.7732 51.6281L66.6672 51.6401L66.6482 51.5241L66.6612 51.4151L66.4762 51.2551L66.3592 51.2611L66.2632 51.3731L66.0132 51.5841L66.0212 51.6671L66.5112 51.7571L66.6802 51.8081L66.6412 51.8641L66.2212 51.8631L65.7012 51.9591L64.7752 52.5461L63.9132 52.7981L62.6732 53.3621L62.1262 53.3911L61.8392 53.4811L61.0052 53.2651L59.9482 52.7351L58.3482 52.5681L57.2702 51.8731L56.2002 51.5871L55.5212 50.9191L55.1122 50.8901L54.8492 50.7831L53.8772 50.5411L52.9162 50.3811L51.9792 49.7961L51.3662 49.6101L50.8362 49.3771L49.6692 48.9791L49.2362 48.7581L48.8272 48.4161L48.1602 48.0621L47.8752 47.7661L47.5572 47.6601L47.1022 47.1021L46.8652 46.8671L46.6642 46.7571L46.4492 46.7191L45.8282 46.7641L44.9012 46.5171L44.4732 46.4541L43.5782 46.0901L42.3902 45.6831L42.0012 45.2151L41.6682 44.7781L41.0682 44.2021L40.6942 43.9561L40.0452 43.6641L39.6852 43.4271L39.1302 43.2451L38.1882 42.7831L37.8892 42.3871L37.7142 42.0351L37.2132 41.6071L36.6642 40.8081L36.5222 40.5131L36.4162 40.0601L36.2892 39.7971L36.1392 39.5911L36.2162 39.4411L36.4952 39.2561L36.9592 39.2141L37.2872 39.0141L37.3302 38.8491L37.3092 38.7471L37.0992 38.4951L36.8382 38.4281L36.6352 38.4241L36.5832 38.3281L36.7362 38.2231L36.9112 37.9771L37.1692 37.6771L37.3512 37.4001L37.3852 37.0091L37.3622 36.6181L37.4312 36.2871L36.8062 35.9051L36.7332 35.7421L36.5362 35.3031L36.1952 34.7931L36.2052 33.7721L35.7942 32.8641L35.3692 32.4121L35.1492 32.2541L34.5522 31.5511L34.0812 31.1421L33.6202 30.3711L33.1642 29.8801L32.5842 29.0551L32.1652 28.6431L30.2562 27.2481H30.3632L30.9232 27.5911L31.0172 27.5631L31.0302 27.3961L30.9662 27.1961L30.8622 27.1481L30.7132 27.1931L30.5122 27.1511L30.4112 27.0851L30.1102 27.0431L29.7332 26.8101L29.5712 26.5681L29.5532 26.2921L29.0122 25.7031L28.8072 25.3741L28.9122 25.3981L29.0562 25.5301L29.2022 25.5681L29.3722 25.5691L29.4952 25.5161L29.4512 25.4181L29.3352 25.3361L28.5472 25.0251L28.2872 24.8071L27.6412 24.4431L27.4882 24.3151L27.3862 23.9631L27.2282 23.9461L27.0892 24.0441L26.7082 24.1401L26.6112 24.0281L26.5972 23.9201L26.8662 23.8061L27.1132 23.4731L27.1082 23.3571L26.9722 23.4911L26.7662 23.6401L26.5542 23.7231L26.2392 23.7921L26.0772 23.7421L25.9362 23.6671L25.7092 23.3761L25.5952 22.4281L25.7952 22.0991L26.0292 21.7731L26.2282 21.5801L26.3432 21.7261L26.4612 21.7441L26.3782 21.5791L26.1822 21.4251L26.1132 21.2711L26.1062 21.1301L26.0132 20.8681L25.4332 20.3171L24.8912 20.3591L24.6702 20.3401L24.4632 20.1301L24.2872 19.7761L24.2012 19.4791L24.1902 19.3211L24.1382 19.1621L23.2032 18.9021L22.9222 18.6791L22.6402 18.3981L22.5232 18.1691L22.4132 18.0001L22.3232 17.7041L22.2592 17.3591L22.3632 16.9121L22.4992 16.6961L21.8562 16.5351L21.6052 16.5281L21.4022 16.6191L21.2192 16.5021L20.8392 16.3721L20.3872 15.9031L19.8562 15.0511L19.2722 14.7771L19.0842 14.4801L18.8452 14.2121L18.6362 13.8801L18.6042 13.7351L18.5412 13.6541L18.2492 13.4221L17.9212 13.0291L17.8362 12.7131L17.7482 12.2291L17.5292 12.0581L17.3142 11.9791L17.2722 11.7481L17.2852 11.6191L17.2122 11.3741L16.7682 10.7861L16.5432 10.3021L16.4192 10.1511L16.3032 9.93008L16.2442 9.47708L16.0602 8.91309L15.7042 8.2341L15.4072 7.77609L15.2592 7.31409L15.3252 6.84308L15.2752 6.55209L15.2372 6.4841L15.2672 6.3891L15.3662 6.44208L15.4492 6.35709L15.4392 6.05609L15.3352 5.96509L15.0472 5.87109L14.9202 5.80609L14.2202 5.68311L13.8192 5.51208L13.7932 5.11411L13.6052 4.93109L13.4382 4.81808L12.9102 4.5831L12.8272 4.70309L12.7562 4.92508L12.5362 4.97308L12.3442 4.98309L12.0222 4.8291L11.2232 4.2421L11.0542 4.1481L10.8052 4.09808L10.6802 4.00009L10.1402 3.69009L10.2482 3.8551L10.4042 4.02609L10.5432 4.5231L10.3802 4.8811L10.2852 6.12909L10.3892 6.37711L10.6232 6.77408L10.7852 7.40311L10.8352 7.87109L10.9812 8.2421L10.9352 9.11209L10.9912 9.3761L11.2142 9.80908L11.6272 10.2151L11.7132 10.4281L12.2552 10.7371L12.5852 11.1381L13.2392 11.6841L13.4452 11.9141L14.0352 12.7631L14.0542 13.0151L14.1632 13.3241L14.4942 13.2601L14.6422 13.4951L14.6252 13.6031L14.6652 13.6861L14.8382 13.6681L14.9872 13.7321L15.3012 14.6451L15.4692 14.7701L15.6852 14.8231L15.9262 14.9241L15.9422 15.1571L15.9332 15.3431L16.1372 15.6121L16.1022 15.9761L16.2672 16.2841L16.2422 16.5821L16.3102 16.8171L16.8192 17.3491L17.4462 17.7711L17.5772 18.3241L17.8332 18.8291L18.0952 18.9561L18.3592 19.1651L18.3262 19.3831L18.3452 19.5161L18.6992 19.9131L18.7562 20.4181L19.0612 20.7491L19.1472 20.7751L19.2142 20.7231L18.9922 20.3911L18.8852 20.1751L18.8712 19.8351L18.9462 19.7901L19.5792 20.3281L19.6462 20.7291L19.8582 20.9561L19.8742 21.2621L20.0032 21.4441L20.0422 21.7081L20.2462 22.1431L20.2512 22.7461L20.3592 23.1851L20.7582 23.8581L21.0812 23.9991L21.1392 24.3291L21.4752 25.1811L21.8632 25.6421L22.0562 26.0331L22.0822 26.2761L21.9372 26.6361L21.9212 26.8861L22.1322 27.6481L22.4472 28.0381L22.8002 28.1321L22.8612 28.1881L22.8332 28.2921L22.9512 28.3851L23.0842 28.2661L23.1492 28.0971L23.0822 27.9001L23.0702 27.7571L23.1302 27.6541L23.2452 27.6391L23.9192 28.1591L24.0322 28.3591L24.2822 28.5921L24.5122 28.8791L24.6112 29.1051L24.7952 29.2921L24.8902 29.7261L25.3592 29.9201L25.6082 30.2781L25.6252 30.5051L25.5042 31.0851L25.3992 31.2521L25.0212 31.4991L24.7462 31.7921L24.4802 31.9731L24.1982 32.0831L23.9662 32.0581L23.7422 31.7211L23.4762 30.7001L23.2982 30.4851L23.1732 30.1641L22.9652 29.8981L22.2152 29.4951L21.8372 29.0691L21.4702 28.7841L21.0752 28.3711L19.9992 27.6861L19.5532 27.3371L19.2592 26.9911L19.0702 26.9961L18.9242 27.0321L18.8682 26.9371L18.8602 26.7571L18.7952 26.6401L18.1662 26.1181L18.0362 25.8291L18.0092 25.4931L18.1512 24.6271L18.2142 24.1191L18.1742 23.8571L18.1082 23.8211L18.0482 23.6791L18.0342 23.2601L17.8822 22.8041L17.3112 21.8671L16.8942 21.6821L16.5232 21.5471L15.5062 20.7161L15.2302 20.3001L15.1632 20.0631L15.1282 19.5811L14.9882 19.8601L14.8012 20.0671L14.3702 20.0521L13.8862 20.2851L13.5982 20.0661L13.4422 19.8171L13.2052 19.5181L12.9392 19.4591L12.7692 19.4511L12.4502 19.0801L12.1922 18.9621L11.8232 18.9161L11.5092 18.7281L11.4122 18.5221L11.3602 18.2311L11.2432 18.0591L10.7502 17.7181L10.3492 17.3411L9.97119 17.0991L9.8602 16.9011L9.8512 16.7651L10.4492 16.8031L11.1602 16.9481L11.5012 16.9071L11.7132 16.7671L11.9162 16.6661L11.9482 16.7751L11.9112 16.9731L12.1062 17.1551L12.3742 17.3021L12.5642 17.2881L12.3792 17.1271L12.2662 16.7991L12.3172 16.6811L12.3142 16.5171L12.0492 16.5541L12.0122 16.4711L12.2392 16.2211L12.4992 15.5631L12.6232 14.9131L12.3512 14.3431L11.8922 13.9471L10.8962 12.7841L10.3012 12.1851L10.1292 11.9621L9.97119 11.8571L9.48619 11.7201L9.07919 11.3841L8.3662 10.9081L8.0612 10.6621L7.8512 10.0851L7.6842 10.0061L7.7372 9.60608L7.6642 8.89709L7.5442 8.71509L7.1582 8.53809L7.06619 8.05508L7.0472 7.59509L6.9722 7.27408L6.3152 6.73309L6.2782 6.4711V6.22208L6.2112 5.9751L5.8602 5.4581L5.4362 5.0061L5.28819 4.7901L5.2702 4.35208L5.12019 4.2341L5.1772 4.2041L5.31619 4.21509L5.3952 4.1571L5.40421 3.8511L4.7662 3.37009L4.5822 2.70709L4.2422 2.3551L4.1622 2.22809L3.9792 1.6001L4.7822 1.52908L5.58521 1.4581L6.3882 1.38708L7.19119 1.3161L7.9942 1.24509L8.7972 1.1741L9.6002 1.10309L10.4032 1.0321L10.7242 0.996094L10.5462 1.49609L10.4122 1.68311L11.7432 2.1731L13.0742 2.66208L14.4052 3.15009L15.7362 3.63708L17.0672 4.12408L18.3982 4.61008L19.7292 5.09509L21.0602 5.5791L22.0522 5.57709L23.0442 5.5751L24.0362 5.57309L25.0282 5.57111L26.0202 5.56909L27.0122 5.56708L28.0042 5.56509L28.9962 5.56308L28.9982 5.1951L28.9992 4.82709L29.0012 4.4581L29.0032 4.08908L29.6202 4.09308L30.2372 4.09708L30.8542 4.1001L31.4712 4.1041L32.0882 4.10709L32.7052 4.11108L33.3222 4.11508L33.9392 4.11908L33.9612 4.12509L33.9872 4.13809L34.2372 4.4191L34.4932 4.8591L34.7952 5.16608L35.1432 5.34009L35.7362 5.85208L36.5742 6.70108L37.2422 7.26511L37.7412 7.54709L38.0752 7.78909L38.2462 7.9921L38.4762 8.4321L38.9102 9.4451V9.90909L39.0762 10.3481L39.4082 10.9161L39.6982 11.2501L39.9462 11.3511L40.2172 11.5521L40.5112 11.8531L40.8502 12.0551L41.2342 12.1581L41.7642 12.4281L42.4402 12.8641L42.9042 13.0861L43.1552 13.0961L43.3752 12.9561L43.5632 12.6671L43.7482 12.4811L43.9302 12.3981L44.0042 12.2651L43.9702 12.0811L44.0932 11.6691L44.3732 11.0271L44.7072 10.6791L45.0962 10.6251L45.3502 10.5041L45.4702 10.3161L45.6782 10.2961L45.9752 10.4431L46.4582 10.5381L47.1272 10.5801L47.5222 10.5661L47.6432 10.4941L47.7062 10.4981L47.7112 10.5771L47.8102 10.6111L48.0032 10.5991L48.1712 10.7091L48.3872 11.0581L49.1292 11.6161H49.1302L49.1932 11.8071L49.4512 12.0821L49.9272 12.5051L50.1962 12.8691L50.2592 13.1751L50.5022 13.6581L50.9252 14.3171L51.1132 14.6721L51.0672 14.7231L51.1002 14.9081L51.2132 15.2271L51.4222 15.4971L51.7292 15.7181L52.0392 16.1141L52.3522 16.6851L52.7322 17.1191L53.1782 17.4151L53.4302 17.6911L53.4892 17.9461L53.4852 18.1641L53.4172 18.3451L53.4462 18.5171L53.5712 18.6801L53.6132 18.8801L53.5642 19.1571L53.5672 19.2351L53.6032 19.2981L53.9992 19.7741L54.2032 20.1581L54.3652 20.7701L54.3662 20.7751L54.5462 21.1411L54.8062 21.2901L55.2052 21.3461L55.5082 21.4731L55.7152 21.6721L55.9772 21.7921L56.2922 21.8331L56.5942 21.9651L56.8842 22.1861L57.4242 22.3311L58.2142 22.4011L58.8152 22.5811L59.2282 22.8711L59.4092 22.9301L59.4582 22.9341L59.4812 22.8901L59.5122 22.8081L59.6722 22.7141L60.0602 22.6521ZM10.8122 4.33209L10.7192 4.3461L10.5452 4.1951L10.5582 4.05609L10.5962 4.04208L10.7702 4.16409L10.8292 4.27109L10.8122 4.33209ZM15.1302 12.9221L15.1102 12.9781L14.8232 12.7801L14.1732 12.1061L13.9372 11.7681L13.8982 11.6091L13.9182 11.2551L14.1412 11.2971L14.3992 11.5341L14.5112 11.7541L14.5162 12.0051L14.9982 12.1241L15.0662 12.6671L15.1302 12.9221ZM17.8032 13.0721L17.5922 13.8241L17.3762 13.8121L16.9302 13.5751L16.8832 13.4271L17.0542 12.5531L17.1842 12.4381L17.5732 12.3201L17.6342 12.4281L17.6752 12.6861L17.8032 13.0721ZM0.853195 13.2741L0.7332 13.3961L0.411194 12.7301L0.408203 12.5691L0.502197 12.4891L0.658203 12.5041V12.6711L0.7892 12.8121L0.840195 12.9501L0.853195 13.2741ZM9.4752 16.0461L9.43719 16.1481L8.9632 15.9371L9.22321 15.5681L9.1852 15.1801L9.2982 15.0991L9.4012 15.2271L9.5372 15.7211L9.4752 16.0461ZM20.8982 22.4681L20.9332 22.5801L20.9142 22.6121L20.7992 22.5341L20.6052 22.9981L20.5482 23.0401L20.6652 22.4051L20.7882 22.3141L20.9242 22.2961L20.8982 22.4681ZM18.2122 27.0211L18.1552 27.0551L17.9152 26.7001L17.8792 26.4561L17.7812 26.3531L17.5392 26.2711L17.7482 25.7741L17.9252 24.7431L18.0032 24.9321L17.8162 25.9761L17.8252 26.1121L17.9122 26.2391L18.0062 26.4541L18.0172 26.6861L18.1822 26.9021L18.2122 27.0211ZM22.3942 25.6141L22.4742 25.9581L22.3302 25.9071L22.1422 25.7201L22.0132 25.4811L22.0252 25.3741L22.0502 25.3541L22.3172 25.4951L22.3942 25.6141ZM19.2182 27.4881L19.1802 27.6331L18.3352 27.0601L18.5382 27.0061L18.7742 27.0461L19.2182 27.4881ZM24.5332 28.2301L24.4722 28.2401L24.3282 28.0781L24.2652 27.6791L24.2942 27.6371L24.5652 28.1311L24.5602 28.1921L24.5332 28.2301ZM33.8022 35.9251L33.7202 36.1721L33.5082 36.0731L33.4322 35.9181L33.4172 35.6641L33.5352 35.6211L33.7062 35.7291L33.7412 35.8011L33.8022 35.9251ZM89.3382 37.0391L89.3882 37.1841L89.3392 37.1671L89.2752 37.0581L89.2292 36.9221L89.2682 36.9191L89.3022 36.9661L89.3382 37.0391ZM88.7052 39.8321L88.5592 39.9251L88.4802 39.5971L88.5962 39.2771L88.7372 39.0931L89.0152 39.0721L89.1992 39.0111L89.2222 39.0921L89.0712 39.3401L88.7052 39.8321ZM21.4192 44.4551L21.2502 44.5171L21.0012 44.3361L21.0672 44.1931L21.2092 44.0961L21.3422 44.2771L21.4192 44.4551ZM75.3912 44.6441L75.0752 44.7121L75.0192 44.6481L75.6562 44.3471L75.7652 44.3601L75.8032 44.4011L75.4732 44.5441L75.3912 44.6441Z" fill="#CCCCCC" stroke="white" stroke-width="0.5"/>
</svg>
