<svg width="56" height="20" viewBox="0 0 56 20" fill="none" xmlns="http://www.w3.org/2000/svg">
<path d="M49.4564 1.63516L49.2854 1.78314L49.2274 1.60416L49.2394 1.37415L49.4704 1.16016L49.7994 1.11914L49.8464 1.29016L49.8074 1.48615L49.7304 1.58716L49.4564 1.63516ZM50.6714 10.0341L50.5674 10.0322L50.3254 9.97214L49.8394 9.67514L49.3424 9.57016L48.6204 9.56116L48.2124 9.51917L48.0464 9.56314L47.9064 9.56516L47.8054 9.50516L47.6984 9.47516L47.4164 9.65015L47.2854 9.59714L47.1524 9.52316L46.9164 9.49915L46.6304 9.52014L46.3145 9.70016L45.9624 9.53815L45.8624 9.54016L45.7954 9.58215L45.6434 9.80414L45.3524 9.97314L45.2084 10.2841L45.1194 10.5822L45.0424 10.6852L45.0214 11.2602L44.9754 11.5381L45.0484 11.9052L45.0354 12.0631L44.9064 12.2982L44.8894 12.3521L44.8214 12.7252L44.8474 12.8252L44.8304 12.9502L44.7214 13.2122L44.5244 13.2841L44.3174 13.3252L44.1394 13.2361L43.9794 13.3802L43.7764 13.6021L43.6884 13.7522L43.6895 13.8911L43.7104 13.9842L43.6685 14.0801L43.6635 14.1822L43.6734 14.3292L43.8114 14.3902L43.9554 14.5172L43.9504 14.6392L43.8714 14.7231L43.6904 14.8531L43.3604 15.1191L42.9884 15.3462L42.8474 15.3991L42.7964 15.5042L42.7704 15.6451L42.8524 15.9542L42.9304 16.0452L42.9714 16.1532L42.9214 16.2822L42.8854 16.3932L42.7484 16.4632L42.6144 16.5142L42.5654 16.6021L42.4954 16.9721L42.4144 17.1652L42.2324 17.4521L42.1714 17.5832L42.0775 17.6252L41.7254 17.4911L41.4104 17.5721L40.9924 17.6241L40.6384 17.6161L40.3654 17.6751L40.1774 17.8261L39.9674 18.0172L39.7464 18.1591L39.5794 18.2281L39.2734 18.0262L39.1184 18.0442L38.8405 17.9742L38.1874 17.7481L38.0264 17.6822L37.8524 17.6761L37.8004 17.6111L37.8275 17.5022L37.8004 17.3582L37.6734 17.3041L36.3624 17.3261L35.9844 17.4502L35.7294 17.5482L35.5474 17.6612L35.4954 17.9421L35.3864 18.2061L35.2454 18.4861L34.8094 18.5702L34.4894 18.8531L34.3795 18.8871L34.1594 18.8462L33.9234 18.8232L33.7534 18.9022L33.5744 18.8982L33.0234 18.7661L32.5024 18.7451L32.2074 18.8122L32.0444 18.8372L31.1375 19.2252L30.8304 19.2701L30.7064 19.2141L30.5314 19.0551L30.2964 18.8961L29.7334 18.3552L29.5255 18.2281L29.3875 18.0981L29.2564 17.9431L29.0694 17.7762L28.8994 17.6612L28.6694 17.4272L28.4404 17.1711L28.3884 16.7202L28.2064 16.6371L28.1444 16.5192L28.1165 16.3861L28.3694 16.0201L28.5534 16.4072L28.6234 16.4932L29.0314 16.7542L29.3674 16.8842L29.7304 16.9372L30.1004 16.9482L30.2464 16.9301L30.3904 16.8781L30.5314 16.9341L31.3044 17.3571L31.6044 17.4332L31.9214 17.4012L32.0474 17.4431L32.4924 17.7682L32.6234 17.8072L32.8424 17.7822L32.5634 17.6342L32.3795 17.5291L32.2964 17.3311L32.3474 17.1201L32.5255 16.9792L32.6494 16.8261L32.6934 16.3701L32.7724 16.1392L32.9204 15.9202L32.9694 15.7082L32.8024 15.5461L32.7654 15.2682L32.8015 15.0381L32.8964 14.8812L33.0464 14.9851L33.2025 15.0811L33.3554 15.0712L33.4614 15.0331L33.4804 14.9142L33.4525 14.7072L33.4604 14.3271L33.6544 14.0232L33.9655 13.8141L34.2584 13.7141L35.3564 13.5442L37.0924 13.1092L37.6064 12.9412L37.7954 12.8542L37.9544 12.7332L38.2234 12.3471L38.7285 11.7382L39.0824 11.2382L39.8284 10.5092L40.4234 9.83316L40.5034 9.70615L40.6024 9.33716L40.6104 9.16315L40.5924 8.98715L40.6714 8.90515L40.7874 8.85614H40.8154L40.9034 8.93317L41.1104 9.04016L41.2644 9.17816L41.3684 9.35614L41.4424 9.52216L41.4484 9.66415L41.5424 9.78015L41.8054 9.80014L41.8904 9.94617L42.0734 10.1971L42.2415 10.3781L42.3444 10.4482L42.4724 10.4102L42.6714 10.2451L42.8154 10.0432L42.9124 9.77014L42.8364 9.73016L42.9704 9.52414L42.9954 9.41614L42.9334 9.31714L42.8544 9.21814L42.8244 8.96915L42.7694 8.65216L42.7324 8.50815L42.8374 8.40515L43.0634 8.27414L43.2894 8.12216L43.5184 8.00015L43.5244 8.22015L43.5184 8.58316L43.5874 8.88715L43.7434 9.42514L43.9214 9.49814L44.1354 9.54614L44.2594 9.53116L44.3394 9.49515L44.3604 9.45215L44.2274 9.24115L44.1924 8.74414L44.0834 8.41815L43.9164 8.09314L43.8374 8.00116L44.4964 7.90915L44.6434 7.80716L44.9024 7.58417L45.0004 7.45917L45.0775 7.17715L44.7545 7.01016L44.6274 6.79614L44.6194 6.56516L45.0054 6.13516L45.1394 6.03217L45.1974 6.18515L45.3674 6.22415L45.5234 6.23016L45.6804 6.22116L45.9064 6.00415L46.0224 5.69214L46.4185 5.25116L46.5594 4.91315L46.6394 4.55914L47.6394 3.45917L47.7614 3.28815L48.3554 2.18115L48.4294 2.14417L48.5884 2.25116L48.6354 2.60315L48.6144 2.75616L48.5175 2.98416L48.4624 3.22214L48.5305 3.21716L48.8134 3.07214L49.1084 2.68515L49.2755 2.35016L49.4174 2.20416L49.7025 2.28616L49.7654 2.34415L49.7454 2.58514L49.7724 2.72516L49.8814 3.02414L50.1234 3.20615L50.4574 3.32016L50.7675 3.48615L50.8694 3.59515L50.9354 3.72617L51.0034 3.94116L51.0084 4.15915L50.7844 4.37216L50.8795 4.71716L50.8644 4.91815L50.7885 5.09015L50.4624 5.24716L51.3514 5.09116L51.5704 5.00217L51.8745 4.77515L52.0364 4.97116L52.1884 5.31015L52.0664 5.39514L51.6794 5.52014L51.6604 5.57117L51.7885 5.74716L51.9494 5.73016L52.2684 5.61215L52.5614 5.42615L52.7034 5.42816L52.8535 5.46616L53.1425 5.58615L53.3044 5.68317L53.4424 5.80817L53.5314 6.06714L53.8654 6.16116L54.5494 6.52414L54.6765 6.55515L54.8094 6.56216L55.1694 6.51816L55.2964 6.56915L55.3864 6.70016L55.4164 6.86215L55.4064 7.03616L55.3694 7.16815L55.2854 7.27716L55.0404 7.44315L54.4234 7.66016L53.7484 7.82516L53.4094 7.81415L52.9334 7.67316L52.7604 7.69116L52.5924 7.75616L52.3824 8.20514L52.7714 8.65216L53.4404 9.11716L53.5324 9.23315L53.5084 9.37616L53.4024 9.46115L53.2604 9.50815L52.8844 9.58215L52.5045 9.63715L52.1914 9.71716L51.8844 9.82117L51.5694 9.78516L51.1354 9.57715L51.0104 9.56216L50.8784 9.66916L50.7495 9.96115L50.6714 10.0341ZM7.24542 4.23416L7.73041 4.34314L7.91644 4.43115L8.46143 5.29916L9.17944 5.90915L9.48444 6.13715L9.71942 6.24515L10.0404 6.57117L10.3204 6.98114L10.9344 8.13416L11.0404 8.64017L11.0824 9.41214L10.9474 10.5761L10.7824 11.1562L10.8145 11.4301L11.0404 11.8502L10.9724 12.2472L11.0164 12.5771L11.0004 13.4911L11.1284 13.7611L11.2744 13.9332L12.0454 14.4752L12.1024 14.6761L12.4824 15.3661L13.1864 16.8682L13.3824 17.5432L13.3604 17.7252L13.2755 17.8001L13.0684 17.8661L12.8954 17.7342L12.8374 17.6402L12.8554 17.5222L12.7874 17.4062L12.6184 17.2682L12.5214 17.1442L12.5484 17.3492L12.5494 17.6151L12.3344 17.6382L12.0594 17.5551L11.7155 17.6302L11.3094 17.9561L11.1144 17.9651L10.9664 17.6852L10.8904 17.4951L10.7694 17.3611L9.47845 16.6742L9.0014 16.4981L8.49945 15.9771L7.36945 15.4022L6.65143 14.8412L6.34644 14.4951L5.61243 14.1881L5.29645 13.8261L5.14044 13.7552L4.98444 13.6262L5.14941 13.2741L5.08142 12.9072L4.9964 12.5971L4.47845 11.9861L4.22443 11.5602L3.73743 11.1352L3.54242 10.8902L3.35645 10.6061L3.47241 10.5062L3.58044 10.4462L3.48145 10.2392L3.20245 9.88016L3.07245 9.46716V8.68716L2.67645 7.59015L2.3374 6.06915L2.39844 5.53616L2.3114 4.95816L2.08643 4.40216L1.79242 4.00516L1.68243 3.67514L1.73541 3.54416L1.80042 3.11514L1.84442 3.03015L1.95544 2.98917L2.08142 3.00015L2.31641 3.37314L2.92944 3.60416L3.11444 3.65915L3.35541 3.56714L3.46442 3.62515L3.5744 3.72015L3.63745 3.98615L3.7984 4.22815L4.12042 4.19315L4.23444 4.22815L4.30145 4.23514L4.36444 4.44916L4.39343 4.82117L4.3634 5.03714L4.13141 5.34616L4.1004 5.55615L4.22241 5.68616L4.38043 5.82516L4.47144 5.93216L4.56641 5.91415L4.6864 5.84216L4.79645 5.66016L4.87244 5.50415L5.2854 5.33014L5.7124 5.17316L5.77045 5.18915L5.83942 5.25815L5.9754 5.48615L6.05542 5.53415L6.17041 5.55716L6.37042 5.53314L6.60242 5.40414L6.72443 5.16315L6.77844 4.97314L7.11243 4.64417L7.14941 4.39716L7.24542 4.23416ZM0.922424 3.60715L1.12042 3.90814L1.02142 4.04214L0.971436 4.08115L0.852417 4.03714L0.738403 4.15216L0.629456 4.17514L0.520447 3.96716L0.385437 3.88416L0.356445 3.74014L0.537415 3.71515L0.645447 3.76517L0.84845 3.66516L0.922424 3.60715ZM2.15942 6.88916L2.08942 6.96716L1.88544 6.92215L1.92145 6.46317L2.03741 6.40414L2.21942 6.48715L2.29944 6.56516L2.15942 6.88916ZM51.5414 9.99014L51.1505 10.0442L50.8795 10.0381L50.9294 9.94016L50.9164 9.81116L51.0454 9.77716L51.1944 9.80515L51.5414 9.99014ZM5.04944 13.3351L4.90741 13.3861L4.89941 13.3131L4.92444 13.2112L5.02844 13.1142L5.07642 13.1692L5.04944 13.3351ZM13.1964 14.0522L13.0604 14.0811L12.9865 14.0622L12.9364 13.9532L13.0504 13.7032L13.0924 13.6612L13.2004 13.9332L13.1964 14.0522ZM33.3134 14.9352L33.2274 14.9721L33.0944 14.8731L33.0634 14.0262L33.1564 13.9502L33.2174 13.9612L33.2824 14.1151L33.2764 14.4861L33.2885 14.8141L33.3134 14.9352Z" fill="#CCCCCC" stroke="white" stroke-width="0.5"/>
</svg>
