<svg width="31" height="50" viewBox="0 0 31 50" fill="none" xmlns="http://www.w3.org/2000/svg">
<path d="M7.99353 49.4559L7.68549 49.4609L7.15851 49.4759L6.8465 49.4849L6.4975 49.4939L6.06549 49.4059L5.82251 49.4249L5.80249 48.4259L5.72351 48.2068L5.6405 47.8869L5.62048 47.6819L5.67249 47.4759L5.69751 47.1499L5.6745 46.8639L5.4165 46.7209L5.3595 46.6759L5.30353 46.4519L5.28149 46.1059L5.46252 45.6669L5.44751 44.8239L5.46851 44.5279L5.46552 43.9429L5.46149 43.2359L5.4585 42.6029L5.46552 42.0579L5.4115 41.7999L5.36652 41.6579L5.24652 41.3699L5.10651 40.7709L4.94153 40.3188L4.72949 40.0209L4.66254 39.8639L4.59448 39.6549L4.39349 39.2849L4.22949 39.0699L4.18451 38.8979L4.19049 38.4529L4.00751 37.6559L3.87451 37.0759L3.6745 36.4479L3.54053 36.0289L3.52051 35.9568L3.50549 35.7979L3.9035 35.4869L4.30151 35.0489L4.76752 34.5369L5.18353 34.0799L5.5495 33.6789L6.05054 33.1309L6.54553 32.5899L6.6615 32.5209L6.71051 32.4769L6.49652 31.9969L6.84052 31.4399L6.8595 31.0779L6.84448 30.7319L6.88654 30.5729L6.99054 30.4339L7.39252 30.1449L7.69653 29.6849L7.9455 29.2549L8.2915 28.5649L8.3255 28.4019L8.33051 28.2349L8.23651 27.9999L8.00653 27.6229L7.83954 27.2969L7.69049 26.7959L7.84052 26.3609L7.89349 26.0979V25.9559L7.82751 25.8219L7.65948 25.7198L7.51953 25.6539L7.47253 25.4739L7.4715 25.2609L7.53448 25.1429L7.90649 24.9519L7.99054 24.8479L8.03448 24.7319L8.03851 24.5669L8.1535 24.1539L8.29553 23.7619L8.30554 23.6239L8.25549 23.5029L8.21649 23.2819L8.19153 22.9489L8.18951 22.0179L8.26251 21.0589L8.23053 20.5159L7.99249 19.8919L7.96948 19.4419L8.14252 19.1279L8.17053 18.9429L8.04449 18.9189L7.78448 18.8999L7.59253 18.8419L7.29553 18.5849L6.77954 18.3709L6.19348 18.1759L5.34149 18.1179L4.63348 17.4939L4.07849 17.3939L3.89954 17.3139L3.36652 16.9399L2.53149 16.9049L1.66553 16.8679L1.12549 16.8569L1.04553 16.8069L1.01453 16.2919L1.00848 15.8349L0.962524 15.4379L0.880493 14.9859L0.754517 14.8099L0.604492 14.5049L0.528503 14.1689L0.519531 14.0059L0.547485 13.9479L1.1485 13.7089L1.40552 13.5909L1.7865 13.4539L2.46454 13.2649L3.06952 13.0959L3.62451 12.9319L4.21252 12.7579L4.45154 12.6409L4.74854 12.5239L5.45953 12.2889L5.66254 12.2079L6.0705 12.0769L6.27551 12.0259L7.0625 11.7569L7.96454 11.4489L8.28052 11.3409L8.88348 11.1349L9.00049 11.2199L9.4115 11.9279L9.7345 12.3449L10.1025 12.7309L10.1645 12.7119L10.2705 12.6219L10.4545 12.5849L11.0395 12.4979L11.2625 12.4929L11.4095 12.3889L11.7095 12.3159L12.0565 12.2719L12.1755 12.3189L12.5415 12.8189L12.5945 13.2009L12.6705 13.7539L12.6885 14.0239L12.6825 14.3849L12.6415 14.8369L12.3445 15.3579L12.2875 15.6169L12.1285 16.0179L11.9185 16.2159L11.8145 16.3779L11.8205 16.5459L11.9325 16.6869L12.1785 16.9409L12.2545 17.1059L12.2325 17.2519L12.2335 17.4509L12.2925 17.5889L12.3625 17.6689L12.6055 17.7989L12.8435 18.1259L13.2535 18.5209L13.7435 19.0839L13.9735 19.2569L14.1545 19.2989L14.2445 19.4869L14.1945 19.7069L14.0535 19.8319L14.1115 20.0119L14.1915 20.1059L14.2805 20.1539L14.4955 20.1649L14.6955 20.1279L14.7455 20.0649L14.7195 19.2219L14.5755 18.7309L14.4305 18.5389L14.3995 18.5009L14.4505 18.3399L14.6115 17.9639L14.7485 17.5909L14.8355 17.4339L14.9365 17.3389L15.6125 17.2379L15.9205 17.1509L16.0505 17.0419L16.1515 16.7529L16.2325 15.9459L16.2615 15.1889L16.1915 14.7459L16.2885 14.0789L16.4365 13.6659L16.3635 13.5849L16.3085 13.0289L15.8685 12.4369L15.3025 11.6759L14.9855 11.2669L14.6255 10.8019L13.9695 10.0739L13.6695 9.81088L13.5115 9.70789L12.9815 9.62387L12.8405 9.48389L12.7065 9.26086L12.6555 8.84888L12.6465 8.54086L12.5865 8.01688L12.4795 7.27689L12.4315 7.05887L12.2805 6.50287L12.1365 5.97388L12.1285 5.84286L12.1795 5.71588L12.4235 5.32687L12.5965 5.05087L12.6785 4.89987L12.8255 4.48987L12.8605 4.29086L12.9755 4.20087L13.4445 4.16388L13.8175 4.17087L14.4435 4.16187L15.1045 4.18588L15.1975 4.20389L15.3465 4.24689L15.5145 4.23987L15.7015 4.18188L15.9085 4.03989L16.1355 3.81387L16.4895 3.81888L16.9685 4.05386L17.2305 4.25888L17.2745 4.43387L17.5955 4.53589L18.1935 4.56387L18.6285 4.47287L18.9015 4.26288L19.1875 4.15189L19.4855 4.13889L19.7105 4.21088L19.8635 4.36688L20.1565 4.47888L20.5905 4.54688L21.0645 4.44589L21.5785 4.17688L21.8715 3.89587L21.9435 3.60388L22.0285 3.42587L22.1265 3.36288L22.3985 3.32687L22.8455 3.31686L23.2345 3.40887L23.7305 3.69989L24.0435 3.50687L24.5805 3.17587L25.1215 3.00089L25.6365 2.99988L26.0595 2.87387L26.3895 2.62387L26.7385 2.46487L27.1065 2.39789L27.4505 2.27689L27.9315 2.01688L28.4305 1.63889L28.9385 1.25287L29.2645 1.00488L29.4135 1.29688L29.6805 1.56387L29.5215 1.71887L29.3295 1.85788L29.6395 2.04388L29.4125 2.32489L29.3845 2.51987L29.4425 2.59686L29.4925 2.71088L29.3435 3.03287L29.1455 3.27988L29.0945 3.46887L29.2695 3.80188L29.1795 4.39389L29.3485 4.92688L29.3955 5.19989L29.4545 5.38287L29.3705 5.70987L29.3925 6.26187L29.4315 6.48987L29.3305 6.77386L29.5025 6.87189L29.5935 7.18387L29.5695 7.53488L29.5165 7.72388L29.2205 7.95288L29.1855 8.04187L29.1895 8.17688L29.5595 8.18088L29.5725 8.38989L29.5485 8.55487L29.5625 8.86487L29.5135 9.06589L29.5995 9.29587L29.4945 9.55087L29.5305 9.74786L29.5355 10.0029L29.6215 10.6479L29.6365 11.4459L29.6555 11.5739L29.7875 11.6639L29.9725 11.7089L29.9655 11.9279L29.7595 12.2139L29.7475 12.3919L29.7775 12.6419L30.0035 12.3019L30.1395 12.3029L30.2605 12.4359L30.2435 12.6319L30.2855 12.7289L30.2675 12.9189L30.3345 13.1599L30.3085 13.3699L30.1425 13.5169L29.9315 13.7689L29.8935 14.0049L29.9135 14.1599L29.7675 14.2089L29.6995 14.3049L29.7985 14.5279L29.7925 14.7249L29.5345 15.3389L28.8465 16.1799L28.5495 16.4789L28.2715 16.8039V16.9379L28.2445 17.0539L27.9205 17.5189L27.5725 17.5949L27.3795 17.7199L27.5305 18.1299L27.3055 18.2249L26.9145 18.5479L25.8395 19.1689L25.6695 19.3129L25.3965 19.6939L25.0365 19.7859L24.8365 19.8939L24.4795 19.9329L24.3545 19.9059L24.2325 19.9199L24.1295 20.0019L23.4205 20.2699L22.7585 20.4819L22.5955 20.5789L22.4875 20.7109L21.9015 20.9209L20.9835 21.4399L20.2325 21.9359L19.6885 22.4319L19.5445 22.5069L19.3765 22.6789L19.3195 22.9329L19.2645 23.0769L18.8615 23.6009L18.2555 24.2209L18.1375 24.3899L17.8965 24.7349L17.8735 24.9609L17.6585 25.0299L17.4785 24.8139L17.4015 25.2309L17.2545 25.2609L17.0915 25.1749L16.6845 25.3819L16.3305 25.6208L15.7625 26.1239L14.9595 27.0999L13.7885 28.0439L13.6285 28.0709L13.5205 28.0669L13.1515 27.7379L12.9505 27.7139L13.1305 27.9089L13.2495 28.0719L13.2195 28.3909L13.2335 28.8699L13.0885 29.8029L13.1085 30.0069L13.2755 30.2719L13.5905 30.5959L13.8855 30.9999L14.2655 32.1619L14.2945 32.7619L14.6865 33.5289L14.7015 33.8619L14.8605 34.6909L14.8495 35.3629L14.8215 35.7749L15.0105 35.9489L15.0805 35.7919L15.0605 35.5309L15.1105 35.1129L15.2155 34.9269L15.3205 34.9529L15.3515 35.1499L15.4225 35.3249L15.4515 35.4889L15.4565 35.7119L15.3115 36.5609L15.3545 36.9069L15.5495 37.4859L15.3215 38.1589L14.9915 39.7489L14.9725 40.0249L15.0525 40.1449L15.2295 40.1859L15.2945 39.9819L15.3985 39.9839L15.4535 40.1039L15.3065 40.8399L15.1615 41.1629L14.6465 41.9559L14.3695 42.2959L13.9095 42.6309L12.8295 43.1549L10.6645 43.9139L9.80652 44.2869L9.29352 44.5099L8.20953 45.2189L7.73553 45.6949L7.54053 46.2419L7.35352 46.4919L7.16949 46.8099L7.32953 47.0829L7.48651 47.2899L7.67249 47.4289L7.76849 47.5489L7.89453 47.6319L8.02051 47.2019L8.0835 47.0679L8.19153 47.0579L8.13153 47.5818L8.00653 49.3859L7.99353 49.4559ZM13.1385 5.68887L13.2135 5.62589L13.2425 5.54288L13.2415 5.46188L13.1945 5.41187L13.1265 5.38287L13.0285 5.39987L12.9935 5.50989L12.9785 5.66187L13.0405 5.71289L13.1385 5.68887ZM12.9205 5.41287L12.8715 5.32986L12.7795 5.29086L12.6745 5.32288L12.6395 5.42688L12.7485 5.56088L12.8645 5.56287L12.9205 5.41287Z" fill="#CCCCCC" stroke="white" stroke-width="0.5"/>
</svg>
