<svg width="40" height="38" viewBox="0 0 40 38" fill="none" xmlns="http://www.w3.org/2000/svg">
<path d="M33.3167 2.65302L33.9177 2.53302L34.4917 2.41803L35.1587 2.30298L35.6927 2.211L35.8267 2.18701L37.1117 2.29401L37.6717 2.36902L37.8667 2.44299L38.1197 2.63501L38.5877 3.10199L38.4677 3.08398L37.6057 3.18298L37.2777 3.31L36.5437 3.86102L36.3877 3.78998L36.2117 3.67603L36.0627 3.64301L35.7397 3.77502L35.4177 3.93402L35.0627 4.159L34.7697 4.37903L34.6737 4.49799L34.2147 4.953L34.0647 5.026L33.9317 5.05798L33.8777 5.03699L33.8207 4.841L33.5387 4.38501L33.0867 3.78699L32.9547 3.729L32.8637 3.70599L32.5287 3.73499L31.5547 3.90399L30.7327 4.04602L29.4737 4.28998L28.1217 4.48602L27.2887 4.60699L26.5627 4.64301L26.5637 5.23499L26.5647 6.43799L26.5667 7.64203L26.5687 8.84998L26.5707 10.06L26.5717 11.274L26.5737 12.491L26.5757 13.712L26.5777 14.936V15.471L26.5537 15.586H26.1377H25.1967H24.4057H23.7657L23.7667 16.316L23.7677 17.181V18.048L23.7687 18.917L23.7697 19.787L23.7707 20.66L23.7717 21.534L23.7727 22.411L23.7737 23.289V23.953V24.029V25.322V26.697V28.077V29.462V30.853V32.249V33.65V35.058V35.505L23.4857 35.499L22.9067 35.672L22.5377 35.897L22.3777 36.174L22.1657 36.342L21.8997 36.402L21.7827 36.543L21.8147 36.767L21.7117 36.938L21.4767 37.057L21.0957 37.022L20.5697 36.834L19.9007 36.79L19.0887 36.889L18.5037 36.843L18.1487 36.65L17.7717 36.541L17.3727 36.513L17.1407 36.433L16.6667 36.29L16.5767 36.044L16.5207 35.859L16.3857 35.664L16.3707 35.506L16.4767 35.386L16.4917 35.194L16.4167 34.928L16.2857 34.799L16.0997 34.806L15.9837 34.704L15.9377 34.494L15.8287 34.335L15.5677 34.173L15.2227 34.295L15.0597 34.48L14.9637 34.768L14.8767 34.913L14.8327 35.154L14.8127 35.325L14.7247 35.508L14.6327 35.582L14.5377 35.548L14.3607 35.622L13.9697 35.891L13.8587 36.033L13.5437 35.776L12.6237 34.809L12.2967 34.558L11.8147 33.967L10.7547 32.141L10.6037 31.79L10.4017 30.912L10.1697 30.263L10.1437 29.889L10.2547 29.677L10.1867 29.39L10.0677 29.133L9.70667 28.797L9.6037 27.679L9.36169 26.958L9.41467 26.363L9.29871 25.822L9.28772 25.476L9.33972 24.818L9.14569 24.063L8.75269 23.327L8.39771 22.267L8.34668 21.803L8.3847 20.56L8.31567 20.053L8.3197 19.459L8.17969 18.844L8.1217 18.509L8.2207 18.244L8.27869 18.328L8.38068 18.368L8.44971 18.016L8.4657 17.705L8.2887 16.939L7.89368 16.157L6.91467 14.887L6.67572 14.403L6.53967 14.003L5.44769 12.337L4.98169 11.166L4.6557 10.156L4.3017 9.69098L2.66269 6.43201L2.29968 5.914L1.64569 5.29498L1.49271 5.08899L1.24069 4.5L0.748688 3.71198L0.628693 2.97699L0.595703 2.14502L0.655701 1.509L1.1037 1.44299L1.41669 1.27301L1.69769 1.26199L1.97571 1.39499L2.27069 1.405L2.38568 1.383L2.91568 1.40201L3.2197 1.25L3.58069 1.09799L3.7887 0.963989L4.08069 0.826996L4.46771 0.687988L4.68768 0.699005L4.9577 0.751007L5.31671 0.804993L5.51971 0.89801L5.7597 1.194L6.13269 1.46301L6.40668 1.62399L6.72168 1.83499L6.81567 1.91699L6.95471 1.96201L7.03967 1.97601L7.62469 1.94299L8.15369 1.914L8.72467 1.91501L9.79767 1.91599L10.8717 1.918L11.9457 1.91901L13.0197 1.92099L14.0937 1.923L15.1667 1.92499L16.2407 1.92599L17.3147 1.92801L17.7537 1.92899L18.5207 1.93799L19.3287 1.948L19.4177 1.965L19.5077 2.021L19.5817 2.07501L19.8667 2.44702L20.2307 2.83698L20.5347 3.021L20.8967 3.13098L21.2367 3.172L21.5547 3.14502L22.0807 3.19501L22.8167 3.32098L23.5817 3.35797L24.3747 3.30701L24.9317 3.37598L25.2537 3.56702L25.5837 3.69702L25.9217 3.76501L26.3777 3.72498L26.9537 3.57703L27.4437 3.59802L27.6707 3.70502L27.8057 3.70801L28.6517 3.55298L29.3317 3.42902L30.3527 3.22998L31.1937 3.06598L32.4397 2.82397L33.3167 2.65302Z" fill="#CCCCCC" stroke="white" stroke-width="0.5"/>
</svg>
