<svg width="24" height="12" viewBox="0 0 24 12" fill="none" xmlns="http://www.w3.org/2000/svg">
<path d="M0.603149 1.56879L0.559143 1.63184L0.537109 1.16284L0.626099 0.986816L0.669128 1.35181L0.603149 1.56879ZM12.5311 4.33881L12.8471 4.52582L13.1871 4.4458L13.6141 4.73981L14.7021 5.63379L15.0841 5.82281L15.3091 5.89484L15.4791 6.04083L15.6311 6.2478L15.8381 6.3938L15.9281 6.52985L15.9501 6.71381L16.0251 6.82684L16.4041 7.12384L16.6301 7.38483L16.9441 7.51782L17.0791 7.67383L17.2551 7.74982L17.4351 7.90979L17.7391 8.03479L18.4281 8.49481L18.9601 8.93182L19.2261 9.20282L19.5121 9.44379L19.8781 9.63684L20.2221 9.85681L20.3951 10.3728L20.3001 10.5578L20.1031 10.6498L19.9201 10.6568L19.7491 10.7188L19.1781 10.3858L19.0421 10.3368L18.8901 10.3578L18.8051 10.2838L18.7451 10.1778L18.3961 10.0538L18.0721 9.85583L17.9781 9.72083L17.9231 9.5528L17.8451 9.45679L17.3881 9.31079L17.0801 9.14783L16.8561 8.91882L16.5091 8.75879L15.9681 8.43085L15.6911 8.32581L15.4481 8.1618L14.7981 7.56683L14.5661 7.45581L14.3641 7.19183L13.8031 6.56482L13.5321 6.3078L13.2381 6.0788L13.0131 5.81079L12.8401 5.4928L12.4381 5.03784L12.3891 4.84381L12.4061 4.64484L12.3091 4.51685L12.1451 4.43884L12.0671 4.30481L12.0761 4.12384L12.1301 4.03082L12.5311 4.33881ZM19.1111 5.68683L18.9621 5.71582L19.1422 5.44281L19.1481 5.27582L19.2201 4.9458L19.2111 4.83582L19.3301 4.84979L19.4591 4.94482L19.3111 5.02679L19.2611 5.1698L19.2672 5.34784L19.3241 5.3808L19.2291 5.57581L19.1111 5.68683ZM21.5081 7.06683L21.3551 7.09082L21.1501 6.87482L20.7591 6.76685L20.5871 6.57782L20.4751 6.3548L20.6971 6.2998L20.9151 5.99982L20.7672 5.88879L20.5111 5.86884L20.5401 5.75183L20.9561 5.61279L21.1391 5.69379L21.2201 5.78882L21.2081 6.26379L21.3961 6.41479L21.5911 6.75281V6.84784L21.5081 7.06683ZM23.2211 7.8728L23.3521 7.92883L23.5811 7.91882L23.5291 8.43085L23.2081 8.51282L23.0981 8.50879L23.0261 8.40082L22.8421 8.32983L22.8511 8.15485L22.6731 7.76184L22.9831 7.70184L23.1591 7.5968L23.1491 7.69281L23.1761 7.80383L23.2211 7.8728ZM21.9111 11.4648L21.8221 11.5788L21.7121 11.5558L21.6281 11.5128L21.5671 11.4508L21.6281 11.2178L21.8691 11.3318L21.9111 11.4648Z" fill="#CCCCCC" stroke="white" stroke-width="0.5"/>
</svg>
