<svg width="46" height="37" viewBox="0 0 46 37" fill="none" xmlns="http://www.w3.org/2000/svg">
<path d="M42.7382 2.74713L43.0462 4.49512L43.2802 5.99011L43.2962 6.94012L43.3072 7.18811L43.4032 7.35513L43.6212 7.52313L44.5012 8.89111L44.3132 9.12811L44.4452 9.55112L44.6732 9.73212L45.4052 10.5441L45.5002 10.7041L45.4602 10.8321L44.9472 11.7851L44.8602 12.0181L44.7582 13.2291L44.6862 14.0821L44.5862 15.2501L44.4682 16.6451L44.3732 17.8181L44.2472 19.3661L44.1282 20.8261L43.3922 21.6261L42.0862 23.0421L41.0232 24.1921L40.4902 24.9611L39.4492 26.4601L38.9872 27.4281L38.6252 27.9331L38.4422 28.1481L38.6042 28.8561L38.8862 30.0921L38.3822 30.1001L38.0932 30.1881L37.7282 30.4691L37.3202 30.5801L36.8242 30.8251L36.5102 31.0211L36.2152 31.1761L35.8092 31.5551L35.6772 31.8431L35.2732 31.9001L34.7082 31.8531L34.3492 31.5621L33.5172 31.2591L32.9772 31.1361L32.7272 31.0991L31.4562 31.0471L30.1002 31.1661L29.4092 31.3071L29.2832 31.3381L28.8912 31.5211L28.5662 31.7241L27.6872 32.6531L26.5232 32.6221L25.8392 32.5191L25.2582 32.3741L24.4312 31.9401L23.4182 31.2771L23.0272 31.1871L22.6762 31.1351L22.5592 31.1441L21.3492 31.8041L21.1162 31.7901L20.8312 31.8641L20.6432 32.0281L20.5042 32.1101L20.3592 32.1241L20.1682 32.0881L19.9822 31.9871L19.7962 31.8031L19.2972 31.0681L19.1942 30.9391L18.9812 30.7211L18.6232 30.3811L18.3802 30.2231L18.2322 30.1821L18.0562 30.2091L17.0842 29.9171L16.1132 29.6081L15.8992 29.6481L15.7472 29.7121L15.4112 29.9401L15.0152 29.9821L14.5122 29.9641L14.2362 29.9331L13.7922 30.0091L13.4962 30.1001L13.1082 30.2551L12.6052 30.6761L12.4612 30.7301L12.3392 30.8001L12.1712 31.9521L12.0342 32.2981L11.7792 32.7551L11.2782 33.1911L10.9342 33.4551L10.9262 33.8111L10.8992 34.3931L10.8942 34.7921L10.9172 35.0521L10.8592 35.1761L10.8362 35.2891L10.8542 35.4581L10.9362 35.5391L10.9842 35.6451L10.9522 35.7311L10.7902 35.8331L10.6112 35.5731L10.3812 35.3901L10.1292 35.3081L9.95819 35.1751L9.87018 34.9911L9.53918 34.6311L8.77719 33.9181L8.69919 33.9011L8.57217 33.8731L8.35718 33.9581L8.22519 34.0751L8.13217 34.1211L7.99219 34.1281L7.63019 34.2181L7.34018 34.3341L7.33218 34.4301L7.47119 34.9691L7.40518 35.2611L7.27618 35.1221L6.85818 34.5781L6.56918 34.1751L6.51819 34.0851L6.47717 33.9461L6.50519 33.8861L6.62018 33.8441L6.88519 33.7911L6.93417 33.7491L6.94717 33.6381L6.90619 33.4311L6.76117 33.1511L6.60617 32.9651L6.52017 32.9291L6.36118 32.9231L6.18918 32.9481L5.86618 33.1751L5.72318 33.2171L5.38919 33.1981L5.09219 33.1541L4.91119 33.0371L4.37317 32.5851L3.7782 32.1081L3.5282 32.0401L3.47018 31.9911L3.43118 31.6241L3.44119 31.1821L3.47418 31.0661L3.72217 31.1351L3.98618 31.1671L4.0712 31.0871L3.85919 30.9301L3.55618 30.7711L3.44318 30.5301L3.35617 30.4461L3.22018 30.3601L3.06317 30.3161L2.90619 30.2481L2.79819 30.1781L2.62119 30.1461L2.43518 30.0951L2.16617 29.7041L1.90417 29.3231L1.75018 29.0231L1.69519 28.8431L1.77319 28.5361L1.69519 28.4151L1.4032 28.1031L1.15918 27.8131L1.21918 27.3641L1.2692 26.9891L1.27118 26.7521L1.31018 26.6181L1.34119 26.4671L1.50317 26.4191L1.91519 26.4231L2.71619 26.4931L3.35818 26.4141L3.3942 26.4001L3.84717 25.9981L4.34918 25.5761L5.10419 25.5351L5.91818 25.4911L6.56018 25.4691L7.49417 25.4371L8.24817 25.4091L9.12219 25.3771L9.14819 25.1831L9.20218 25.1351L9.28818 25.1281L9.93018 25.2321L10.5342 25.3331L10.5802 24.9661L11.1102 24.5071L11.4112 24.4131L11.4852 24.3331L11.5802 24.1781L11.6392 23.9381L11.6652 23.7681L11.7772 23.6261L11.8592 23.3651L11.9672 22.9091L12.2662 22.4291L12.4372 21.7771L12.4622 21.1471L12.4952 20.6681L12.5842 20.5701L12.5812 19.7171L12.5792 18.8581L12.5762 18.1311L12.5732 17.2251L12.5712 16.4291L12.5682 15.5641L12.5662 14.7871L12.5642 14.2711L13.1772 14.1481L13.8102 14.0201L14.7362 13.8331L15.7392 13.6311L16.8322 13.4101L17.0802 13.2771L17.9052 12.5281L18.2782 12.1891L19.0182 11.5171L19.5892 10.9961L20.3152 10.3341L21.0842 9.66711L21.6972 9.13312L22.6612 8.52814L24.1142 7.61511L25.5672 6.69913L27.0212 5.78113L28.4742 4.86111L29.9272 3.94012L31.3802 3.01611L32.8342 2.09012L34.2872 1.16211L35.7492 1.51611L37.1382 1.85114L38.5352 2.18811L38.8642 2.37311L39.6052 3.03214L40.5542 3.87411L40.5952 3.88611L40.6382 3.89014L41.5502 3.39413L42.7382 2.74713Z" fill="#CCCCCC" stroke="white" stroke-width="0.5"/>
</svg>
