<svg width="35" height="28" viewBox="0 0 35 28" fill="none" xmlns="http://www.w3.org/2000/svg">
<path d="M31.8861 1.09192L32.3272 1.70892L32.8012 2.37192L33.1701 2.8869L33.4402 4.21991L33.4691 4.4729L33.4901 4.58691L33.5111 4.69189L33.5462 4.87289L33.7581 4.9509L34.1582 4.98691L34.4491 5.11792L34.6231 5.3349L34.6402 5.37091L34.7321 5.5379L34.7531 5.65891L34.7282 6.0069L34.6692 6.45392L34.5691 6.74191L34.6252 7.13391L34.6071 7.3009L34.5631 7.41492L34.3841 7.5459L34.1411 7.67392L33.5602 8.05191L33.3941 8.10791L33.1512 8.11792L32.9402 8.21191L32.6902 8.41589L32.1502 9.17392L31.6892 9.93491L31.5291 10.5639L31.3492 11.1639L30.9431 11.5469L30.8861 11.7619L30.8692 11.8869L30.8551 12.1759L30.8062 12.6539L30.7431 12.8839L30.6781 12.9519L30.2401 13.0979L29.9882 13.2729L29.8372 13.6199L29.7822 13.9949L29.6942 14.4219L29.6442 14.7969L29.5761 14.9909L29.4322 15.1949L29.2092 15.4139L29.0161 15.5379L28.5132 15.6189L28.2542 16.1149L28.0352 16.5019L28.0291 16.6569L27.8181 17.4589L27.4511 18.0629L27.4272 18.2759L27.4261 18.4509L26.9672 18.9819L26.8452 19.1389L26.7281 19.3439L26.8441 19.5419L26.9731 19.7219L26.9922 19.7829L26.7841 19.9519L26.4202 20.2459L26.2032 20.4219L26.1552 20.5179L26.1231 20.9589L26.0602 21.0779L25.9152 21.2399L25.7021 21.4179L25.4861 21.5559L25.2411 21.6519L25.0062 21.6879L24.8741 21.6319L24.7992 21.4979L24.6671 20.9579L24.6002 20.8419L24.4471 20.7369L24.1451 20.4409L23.8391 20.1419L23.4702 19.9319L23.3911 19.9469L23.3301 20.0039L23.2252 20.3049L23.1222 20.4149L22.9282 20.4529L22.5912 20.4549L22.3452 20.4129L22.2892 20.3529L22.2392 20.2229L22.1711 20.1189L21.8772 20.3299L21.4152 20.6619L21.2652 20.7159L21.1501 20.7829L20.9981 21.0919L20.8131 21.4229L20.5721 21.5959L20.3372 21.7419L20.2021 21.8689L20.0092 22.0189L19.6312 22.3939L19.1302 22.8899L18.9532 23.1459L18.7782 23.5289L18.6761 23.9529L18.5652 24.4169L18.4022 25.1629L18.1621 25.5849L17.9521 25.9199L17.7961 26.1829L17.7141 26.3999L17.6801 26.3929L17.5981 26.4859L17.3642 26.4249L17.2592 26.2359L17.1142 26.2049L16.8642 25.9279L16.8112 25.9739L17.0752 26.6779L16.9771 26.9529L16.2342 26.9589L15.5952 27.0509L15.1562 27.0429L14.9362 26.9429L14.8382 26.6789L14.8001 26.7059L14.7782 26.8469L14.6392 26.9579L14.1461 26.9789L13.9282 26.7989L13.7522 26.5969L13.5631 26.5079L13.5922 26.5919L13.8091 26.7889L13.7831 27.0719L13.3861 27.3999L13.1331 27.4189L12.9781 27.2779L12.8972 27.0479L12.8561 26.7079L12.7522 26.4859H12.6962L12.7481 26.6889L12.7652 26.8549L12.7672 27.1999L12.9561 27.4679L12.6661 27.5509L12.5482 27.5539L12.3181 27.5599L12.2741 27.4599L12.2302 27.2379L12.1692 27.1799L12.0981 27.5559L11.9452 27.5819L11.8391 27.5789L11.3831 27.6609L11.2812 27.6449L11.2602 27.5749L11.3141 27.4709L11.3022 27.3019L11.1442 27.4319L11.1191 27.6929L11.0291 27.7349L10.7581 27.6979L10.4612 27.5639L10.2802 27.4269L9.97815 27.2359L9.38614 26.7009L9.29016 26.4599L9.12115 26.1649L8.99515 25.8649L8.81314 25.3529L8.86914 25.3159L9.00616 25.3599L9.07315 25.2829L8.82715 25.2269L8.77615 25.1669L8.75916 24.9869L8.77014 24.7669L8.97015 24.6899L9.14316 24.6519L9.23016 24.5189L9.28015 24.3849L8.82117 24.5879L8.39017 24.3579L8.29715 24.2189L8.34415 24.1119L8.55014 24.0959L8.84415 24.1039L9.02014 23.9999L8.91214 23.9629L8.72214 23.9669L8.65216 23.8979L8.65814 23.7309L8.59616 23.7679L8.51416 23.9159L8.22415 24.0249L8.05414 23.9159L8.03714 23.6739L8.00015 23.5649L7.85715 23.4799L7.34915 22.8389L6.71115 22.3039L6.14417 21.9349L5.28714 21.7589L3.49316 21.7659L3.39215 21.7149L3.50217 21.6309L3.65915 21.5739L4.23615 21.2749L4.13916 21.2349L3.53915 21.4219L3.33417 21.4399L3.06815 21.7989L1.48816 21.8589L1.30316 21.8779L1.30716 21.7139L1.38416 21.2419L1.43515 21.0559L1.49414 20.9159L1.43317 20.7479L1.37314 20.5199L1.34415 20.1619L1.41815 20.0509L1.44315 19.9159L1.42514 19.7039V18.9959L1.46814 18.9189L1.51917 18.8599L1.52216 18.7659L1.42615 18.5829L1.33716 18.3739L1.34015 18.0729L1.30414 17.7819L1.24316 17.6489L1.28915 17.1529L1.31516 16.5249L1.29114 16.2459L1.34915 16.0489L1.38016 15.5639L1.37515 15.0889L1.49316 14.3379L1.83914 14.3019L2.25116 14.2389L2.43515 13.9439L2.54114 13.5699L2.50714 13.1999L2.58716 13.0779L2.75217 12.8769L3.05014 12.5899L3.03815 12.2749L3.12015 12.1779L3.26114 12.1049L3.46317 12.0679L3.68915 11.9109L3.81415 11.6359L3.93716 11.1959L3.74316 10.8889L3.74615 10.8209L3.82016 10.6559L3.93915 10.4909L4.03314 10.4379L4.25314 10.4799L4.29114 10.4659L4.32516 10.4139L4.46716 9.92691L4.45416 9.7959L4.24915 9.46991L4.21515 9.23792L4.18515 8.89291L4.13516 8.58691L4.07614 8.47092L3.96716 8.3739L3.91815 8.31091L3.49414 7.6889L3.50116 7.39392L3.67914 7.01691L3.79517 6.83392L3.95715 6.7319L3.98917 6.6449L3.94116 6.53891L3.85916 6.45892L3.84015 6.28891L3.86316 6.1759L3.92114 6.05191L3.89816 5.7919L3.90317 5.39291L3.93015 4.81091L3.93814 4.4549L4.28217 4.19092L4.78314 3.75391L5.03815 3.29691L5.17514 2.9509L5.34314 1.79892L5.46515 1.72891L5.60916 1.6749L6.11215 1.25491L6.49915 1.09891L6.79517 1.00891L7.24014 0.932922L7.51614 0.963898L8.01917 0.98291L8.41516 0.940918L8.75116 0.711914L8.90317 0.647919L9.11716 0.60791L10.0891 0.916901L11.0602 1.20892L11.2361 1.18192L11.3842 1.2229L11.6272 1.38092L11.9851 1.71991L12.1982 1.9389L12.3011 2.06689L12.8001 2.80191L12.9861 2.98691L13.1732 3.08792L13.3632 3.1239L13.5092 3.10989L13.6472 3.02692L13.8351 2.86292L14.1212 2.7879L14.3542 2.80292L15.5631 2.14191L15.6801 2.1329L16.0322 2.18491L16.4232 2.27591L17.4362 2.9389L18.2632 3.37289L18.8441 3.51791L19.5291 3.62091L20.6921 3.65192L21.5712 2.7229L21.8961 2.5199L22.2881 2.33691L22.4142 2.30591L23.1052 2.16492L24.4601 2.0459L25.7311 2.0979L25.9811 2.13492L26.5211 2.2579L27.3531 2.56091L27.7122 2.8519L28.2762 2.8999L28.6801 2.84192L28.8122 2.55389L29.2181 2.1749L29.5132 2.0209L29.8261 1.82391L30.3222 1.57892L30.7301 1.4689L31.0951 1.1879L31.3841 1.09891L31.8861 1.09192ZM14.1891 27.3409L13.9182 27.4259L13.7401 27.4049L13.9842 27.0349L14.1082 27.1149L14.2672 27.1479L14.1891 27.3409Z" fill="#CCCCCC" stroke="white" stroke-width="0.5"/>
</svg>
