<svg width="14" height="13" viewBox="0 0 14 13" fill="none" xmlns="http://www.w3.org/2000/svg">
<path d="M13.3193 0.381866L13.2413 0.487885L13.1553 0.557892L12.9763 0.902893L12.9143 0.933868L12.9013 0.678864L12.7943 0.644867L12.6693 0.73587L12.6003 0.866882L12.7093 1.03687L12.8053 1.03989L12.9213 1.08688L13.2343 2.26489L13.1673 2.47488L12.9733 2.80188L12.7893 3.07889L12.6043 3.25287L12.3753 3.99289L12.1693 5.19388L12.3173 6.27087L12.2423 7.26587L12.3083 7.49988L12.3273 7.79187L12.1753 7.84488L12.0893 7.83588L12.0013 7.65689L12.0113 7.49887L12.1023 7.31387L12.1393 7.06287L12.0963 6.93188L12.0063 7.21786L11.8483 7.34589L11.7453 7.39087L11.6453 7.53488L11.7513 7.80688L11.8883 8.00589L11.9343 8.14789L11.8833 8.31787L11.8523 8.89789L11.8033 8.88187L11.7533 8.80386L11.6083 8.79788L11.5913 9.03189L11.6023 9.16187L11.4793 9.26288L11.4353 9.36288L11.5363 9.43488L11.6473 9.47687L11.7843 9.46689L11.8963 9.75388L11.9323 9.98688L11.6703 10.2019L11.5823 10.3799L11.4343 10.5959L11.3503 10.8079L11.3253 10.9599L11.4273 11.4419L11.6063 11.7839L11.7573 12.0009L11.9593 12.0479L11.9123 12.2759L11.7603 12.4209L11.4843 12.5419L11.1813 12.5639L10.6853 12.4499L10.4823 12.4369L10.4033 12.3759L10.3793 12.2639L10.2373 12.0949L9.97729 11.8699L9.82729 11.8859L9.58229 11.8369L9.17529 11.6839L8.98729 11.6649L8.71729 11.7959L8.40329 11.9679L7.64629 11.6999L7.11429 11.5109L6.63629 11.3399L6.50929 11.2749L6.4043 11.2889L6.31329 11.3779L6.2103 11.5359L6.17628 11.5819L6.12129 11.6249L6.0593 11.6369L6.0573 11.5619L5.82329 11.2479L5.45129 10.8709L4.02629 9.71289L3.50229 9.01987L3.22128 8.52087L2.95428 8.26086L2.1843 7.72888L2.00629 7.51688L1.24429 6.80487L0.662292 6.38687L0.654297 6.20889L0.893295 5.98688L1.01028 5.99786L1.13829 6.15588L1.34428 6.33688L1.44128 6.33789L1.5853 6.25388L1.58829 6.16989L2.36929 6.13586L2.50929 6.08887L2.65028 5.95789L2.7233 5.77386L2.73529 5.59787L2.76529 5.47089L2.89029 5.34787L3.11929 5.30988L3.29529 5.29688L3.34729 5.21387L3.2943 4.94489L3.1993 4.29086L3.17929 4.10788L3.21129 3.97186L3.28329 3.92288L3.62929 3.88989L4.28429 3.94489L4.41129 3.90387L4.67329 3.53189L4.9173 3.25888L5.09129 3.13586L5.22929 3.09888L5.38728 3.34189L5.94029 3.68988L6.03429 3.66788L6.08829 3.64886L6.10629 3.59888L6.09628 3.43887L6.23428 3.29288L6.52129 3.16187L6.8093 2.93088L7.09929 2.59888L7.35129 2.40387L7.56329 2.34589L7.64529 2.25589L7.59428 2.13287L7.61128 1.95789L7.6953 1.73187L7.81929 1.60089L7.98129 1.56488L8.0463 1.49387L8.01228 1.38687L8.04329 1.26987L8.19029 1.07687L8.54028 0.911865L8.7403 0.966888L8.9063 1.18887L9.14229 1.33987L9.44629 1.41989L9.6823 1.39087L9.8503 1.25189L10.0013 1.20987L10.1353 1.26489L10.2063 1.23288L10.2143 1.11688L10.2833 1.08987L10.4153 1.15289L10.5313 1.16888L10.6333 1.13889L10.6733 1.08188L10.6943 1.02289L10.7703 0.979889L11.0333 1.02289L11.3273 0.955872L11.6543 0.776886L11.8713 0.698883L11.9783 0.718872L12.1063 0.628876L12.2553 0.428864L12.5963 0.338867L13.3193 0.381866Z" fill="#CCCCCC" stroke="white" stroke-width="0.5"/>
</svg>
