<svg width="13" height="14" viewBox="0 0 13 14" fill="none" xmlns="http://www.w3.org/2000/svg">
<path d="M6.38452 1.7168L6.2655 1.65179L6.89651 1.46478L7.2955 1.40778L7.36652 1.4328L6.64551 1.67877L6.38452 1.7168ZM7.78552 1.41278L8.33951 1.33578L8.33652 1.30679L8.19052 1.2598L7.71851 1.26779L7.5675 1.30078L7.59851 1.35577L7.78552 1.41278ZM9.47351 1.0918L9.35452 1.07178L9.00851 1.17178L8.9845 1.21777L9.08051 1.2518L9.47351 1.0918ZM6.0365 2.04379L5.80753 2.03378L5.47351 2.33279L5.51752 2.38779L6.0365 2.04379ZM10.7855 0.550781H10.6555L10.4145 0.644775L10.3395 0.769775L10.5995 0.753784L10.7855 0.550781ZM2.95651 10.8098L2.59851 10.9958L2.13052 10.9308L1.77451 10.7948L1.31552 10.8208L1.10352 10.8918L1.1875 11.2798L1.25153 11.4028L1.3345 11.4828L1.44452 11.4988L1.5715 11.4028L1.7485 11.3018L2.03351 11.3488L2.24051 11.4418L2.31451 11.5388L2.45151 11.6308L2.65152 11.6528L3.03851 11.4768L3.41052 11.2078L3.5195 11.0208L3.56052 10.8518L3.23853 10.9678L2.95651 10.8098ZM11.8985 2.16479L11.5075 2.07977L11.2555 1.95477L11.0985 1.72879L10.8285 1.4198L10.1195 1.45178L9.52951 1.54077L8.71252 1.5788L8.1835 1.72879L7.22552 2.22879L6.9845 2.4838L6.73853 3.03278L5.90451 3.66479L5.41852 3.90778L5.28152 3.81479L5.0845 3.75378L4.92752 4.0748L4.83051 4.3638L4.50452 6.05679L4.2825 6.66879L3.98352 7.1828L3.51352 7.81079L3.29752 8.02478L3.1655 8.10577L3.00052 8.40778L2.8685 8.76978L2.7785 8.93878L3.30551 9.56079L3.37152 9.7388L3.44052 9.84277L2.9415 9.90778L3.1535 10.1088L3.4205 10.2528L3.59952 10.3218L3.69751 10.4668L3.50552 10.5338L3.32452 10.5378L2.60852 10.0048L2.21051 9.9068L1.66251 9.93777L1.52451 9.99377L1.38251 10.1558L1.58353 10.4018L1.7695 10.5468L2.06851 10.5658L2.4285 10.7478L2.9465 10.5958L3.31851 10.7828L3.56351 10.8498L3.78351 10.9618L3.97751 10.9858L4.0625 10.9358L4.00851 10.6648L4.1665 10.5198L4.34152 10.4528L4.4205 10.5708L4.58151 10.6908L4.70752 10.6918L5.0495 10.3798L5.12952 10.4418L5.20352 10.5528L5.21951 10.6418L5.23251 10.7358L5.30951 10.7748L5.57852 10.7548L5.71552 10.5858L5.82251 10.4798L5.90253 10.5518L5.9415 10.7598L6.0155 11.0308L6.33652 11.3328L6.60751 11.4188L6.94052 11.3598L7.07251 11.3058L7.1615 11.3508L7.25052 11.5108L7.4425 11.6938L7.84552 11.8228L7.96951 11.8958L8.05551 12.0188L8.03052 12.1938L7.8385 12.6288L7.81351 12.7568L7.83951 12.7998L7.80151 12.8798L7.55151 13.1708L7.52951 13.2738L7.61252 13.4408L7.68152 13.5788L7.83151 13.6458L7.9725 13.6678L8.2395 13.6768L8.52451 13.6858L8.67752 13.0008L8.56052 12.8008L8.4155 12.6988L8.24652 12.6488L8.16852 12.5538L8.14151 12.4448L8.17151 12.3778L8.37051 12.3978L8.43253 12.3268L8.90652 11.9228L8.92651 11.8448L8.8605 11.8008L8.77451 11.7778L8.7525 11.6928L8.75552 11.5808L9.00851 10.9958L9.08353 10.7458L9.10052 10.5688L9.0845 10.3938L8.93851 10.1188L8.79752 9.89877L8.79251 9.72379L8.68951 9.63177L8.39752 9.1608V8.97879L8.5625 8.83679L8.79352 8.7468L8.87051 8.67178L9.00851 8.62479L9.37552 8.76077L9.53952 8.87878L9.58551 8.8548L9.73352 8.72678L9.9935 8.7468L10.6225 8.4888L10.7165 8.36478L10.7865 8.23279L10.7925 8.17477L10.5485 7.9198L10.5415 7.82578L10.5735 7.71979L10.6425 7.63577L10.7865 7.5788L10.9395 7.4668L11.2825 7.14877L11.4015 6.87277L11.4385 6.57278L11.4455 6.34879L11.3515 6.17078L11.2565 6.05579L11.1275 6.07379L10.8765 6.06479L10.6415 5.96478L10.5125 5.8028L10.4805 5.6608L10.5395 5.5708L10.5575 5.46078L10.5195 5.34979L10.5345 5.25677L10.6405 5.18179L11.3835 5.18378L11.4395 5.10178L11.4895 4.6698L11.6755 4.01077L11.8505 3.64279L11.8795 3.48779L11.8765 2.61279L11.8985 2.16479ZM2.17252 9.53879L2.41751 9.46777L2.78851 9.76978L3.13651 9.67178L3.11551 9.5878L3.05652 9.50879L2.7825 9.26178L2.33353 9.23077L2.0795 9.30679L2.08051 9.39578L2.17252 9.53879ZM5.13452 3.48279L5.41251 3.1528V2.62778L5.00153 3.05679L4.9155 3.31479L4.96451 3.39178L5.13452 3.48279Z" fill="#CCCCCC" stroke="white" stroke-width="0.5"/>
</svg>
