<svg width="75" height="89" viewBox="0 0 75 89" fill="none" xmlns="http://www.w3.org/2000/svg">
<path d="M59.507 0.998047L60.257 1.33005L60.513 1.32304L60.886 1.94205L61.08 1.88704L61.043 2.26305L60.667 2.44205L60.082 2.55005L59.995 2.62505L59.495 2.56505L59.214 2.05905L58.745 1.93405L58.746 1.77104L59.05 1.38704L59.507 0.998047ZM74.335 12.396L74.488 13.461L74.483 13.831L74.411 14.189L74.31 14.372L74.109 14.452L73.622 14.42L72.961 14.0011L72.534 13.606L72.401 13.5891L72.343 13.637L72.447 14.0331L72.419 14.3371L72.355 14.6671L72.265 14.966L72.14 15.216L71.878 15.538L71.425 15.7921L70.178 16.287L70.079 16.5051L69.677 17.875L69.568 18.075L69.421 18.244L68.992 18.463L68.784 18.161L68.618 17.702L68.656 17.246L69.157 16.368L69.626 15.743L69.758 15.526L70.024 14.8951L69.486 13.301L68.528 12.816L67.437 12.075L67.037 11.679L66.414 10.86L65.973 10.122L65.575 10.096L65.137 10.282L64.453 10.956L64.054 11.2941L63.834 11.394L63.781 11.409L63.291 11.218L62.747 11.178L62.309 11.233L62.144 11.325L61.534 12.409L61.107 12.953L60.872 13.14L60.701 13.454L60.561 13.97L60.248 15.746L60.015 16.412L59.963 16.818L60.018 18.0421L59.962 18.716L59.677 19.2701L59.476 19.519L59.211 19.5701L58.864 19.711L58.561 20.03L58.347 20.465L58.106 21.4361L57.698 21.7921L57.308 21.69L57.03 21.334L56.433 21.058L55.988 20.882L55.489 20.5L55.049 20.209L54.647 20.151L54.418 20.5201L54.234 20.864L53.548 21.1431L53.159 21.364L52.655 21.413L52.451 21.168L51.719 21.006L50.848 20.814L50.596 20.816L50.517 20.377L50.285 19.762L49.666 18.694L49.413 18.316L48.936 17.425L48.381 16.507L48.302 16.484L47.93 16.453L47.385 16.483L47.039 16.692L46.821 16.954L46.783 17.172L46.994 18.004L46.929 18.211L46.82 18.3111L46.325 18.078L45.726 18.094L45.575 18.3501L45.21 18.3781L44.157 18.4751L44.622 19.151L44.776 19.422L44.807 19.818L44.726 20.552L44.503 21.177L44.243 21.6841L43.742 22.185L44.503 22.679L43.986 23.344L43.744 23.6021L43.464 23.558L42.963 23.329L41.75 22.773L41.171 22.564L40.653 22.5L40.377 22.508L39.279 22.03L39.067 22.083L38.673 22.29L38.629 22.754L38.654 23.903L38.712 24.7831L38.567 25.289L38.422 25.632L37.983 26.553L36.995 25.927L36.321 25.511L35.888 26.064L34.803 27.0741L34.247 29.05L34.215 29.114L33.886 29.6131L33.465 29.842L33.146 29.955L32.96 30.536L33.393 31.3651L33.615 31.801L33.822 32.5031L33.784 32.948L33.736 33.224L33.271 33.788L32.279 35.269L31.361 36.803L30.985 37.241L31.155 38.5291L30.85 38.905L30.228 39.329L29.91 39.4921L29.568 39.588L28.516 39.757L28.703 41.1171L28.774 41.716L28.773 42.0701L28.664 42.415L28.534 43.0721L28.338 45.402L28.188 45.651L27.981 46.276L27.315 47.769L26.781 48.7551L26.01 50.166L26.637 50.609L27.209 50.9321L27.328 51.427L27.407 52.2511L27.388 52.81L27.169 53.3111L26.999 53.662L26.88 53.833L26.067 53.663L25.025 53.444L24.755 53.442L24.149 53.6001L23.602 53.923L23.314 54.1951L23.237 54.303L22.873 54.9211L22.225 56.013L21.87 56.4881L21.974 57.1411L21.378 58.396L21.768 59.6541L21.785 59.696L21.992 60.202L21.776 60.528L21.685 60.703L21.716 61.278L21.773 61.9191L21.723 62.2941L21.702 62.709L22.232 64.564L22.226 64.996L22.2 65.274L22.036 66.415L21.816 67.9361L22.2 68.333L22.746 68.8071L23.053 68.994L23.506 69.556L23.852 70.103L23.804 70.465L23.704 70.864L23.559 71.142L23.422 71.523L23.361 71.804L23.297 71.879L22.692 71.91L22.373 72.0161L22.206 72.135L22.263 72.773L22.63 73.9361L22.935 74.758L23.033 75.298L22.933 75.844L22.829 76.123L22.826 76.498L22.746 77.2421L22.51 77.6171L22.201 78.025L21.857 78.329L21.584 78.414L21.35 78.4491L21.192 78.603L21.049 79.056L20.917 79.53L20.486 80.112L20.498 80.314L20.662 81L20.816 81.778L20.686 82.503L20.575 83.2601L20.38 83.763L20.102 83.943L19.898 83.853L19.667 83.163L19.655 83L19.598 82.788L18.942 82.577L18.826 82.5841L18.568 82.46L18.417 82.425L18.107 82.354L17.849 81.7401L17.576 81.228L17.536 81.0141L17.546 80.051L17.462 79.621L17.436 79.151L17.264 79.5331L17.364 80.136L17.152 80.388L16.883 80.511L16.908 80.862L17.018 80.929L17.041 81.2921L16.976 81.83L16.448 83.0191L16.342 83.146L16.269 83.306L15.999 83.2001L15.652 83.53L15.323 83.5831L15.204 83.21L14.741 82.715L14.523 82.7431L14.719 82.987L14.913 83.304L14.803 83.513L14.695 83.65L14.506 83.7211L13.829 84.134L14.07 84.4111L13.865 84.7251L13.629 84.771L13.503 84.917L13.459 85.115L12.758 85.68L11.616 87.121L11.029 87.5271L10.619 87.947L10.258 87.9371L9.80399 88.2941L8.65399 88.606L7.89099 88.465L7.35999 88.589L7.07501 88.344L7.03799 88.176L7.052 88.078L7.099 87.96L7 87.921L6.79199 87.901L6.703 88.0191L6.69101 88.288L6.59201 88.358L6.19601 88.2041L6.09601 88.0661L6.23801 87.785L6.48199 87.5321L6.43799 87.4801L6.39099 87.326L6.272 87.306L5.918 87.344L5.63 87.298L4.69199 86.727L4.47299 86.421L3.716 85.9321L3.37701 85.412L3.18399 84.84L3.19901 84.3201L3.29199 83.4931L3.45099 83.288L4.13 83.5791L4.81699 84.063L4.92401 84.039L5.14001 83.659L5.55801 83.353L5.439 83.2691L4.81699 83.62L4.586 83.426L4.22699 83.03V82.8251L4.39401 82.62L4.45001 82.343L4.36301 82.081L4.40399 81.724L4.681 81.345L5.09698 80.9601L5.397 80.5871L5.70499 80.358L5.673 80.2811L5.32101 80.427L4.98401 80.675L4.58801 81.09L4.10501 81.425L3.74799 81.555L3.578 81.663L3.31601 81.767L3.04501 82.246L2.74899 82.451L2.21899 82.472L2.10199 82.1221L2.25201 80.874L2.41199 80.263L2.58801 79.83L2.86401 79.757L3.05801 79.439H3.21899L3.35901 79.586L3.89999 79.728L4.16699 79.323L4.51401 79.263L5.147 78.853L5.134 78.778L4.70599 78.868L4.44601 78.881L4.07401 78.984L3.87601 78.91L3.78299 78.603L3.93201 78.325L4.52899 77.66L4.73599 77.368L4.853 77.095L4.83401 76.909L4.93399 76.523L5.51801 75.8481L5.99399 75.538L6.14999 75.804L6.017 76.635L6.01801 76.9771L6.39401 75.767L6.56 75.478L6.74799 75.274L7.20401 75.137L7.33301 74.9451L6.80099 75.008L5.51199 75.472L4.96899 75.885L4.82401 76.202L4.44699 76.68L4.26999 76.989L4.19199 77.443L3.98001 77.689L3.69299 77.78L3.29501 78.3521L3.11899 78.8111L2.72299 79.175L2.47198 79.455L2.38901 79.555L2.25299 79.829L2.14001 79.849L2.04199 79.688L2.02499 79.334L2.065 78.7661L2.25601 78.356L2.34698 77.955L2.22101 77.58L2.30899 77.342L2.47601 77.351L2.78799 77.459L3.11899 77.442L3.664 77.1451L3.577 76.971L3.34201 76.946L2.90302 76.971L2.534 76.68L2.24701 76.1001L2.117 75.3221L2.20401 75.099L3.26599 74.303L3.552 73.94L3.38599 73.9041L2.987 74.344L2.41699 74.616L2.05701 74.237L1.87 73.828L1.76199 72.961L1.80099 72.5141L1.75601 71.925L2 71.733L2.272 71.8351L2.54099 71.873L3.14999 71.821L4.49399 71.466L5.35999 71.677L5.71201 71.6581L6.25101 71.3521L6.72198 71.321L7.07501 71.554L7.26801 71.8221L7.29199 72.179L7.45499 72.4171L7.565 72.3391L7.47699 72.056L7.45901 71.6171L8.87601 71.118L9.043 70.924L8.48001 70.856L8.319 70.399L8.616 69.705L8.58801 69.6151L8.27499 69.982L8.121 70.496L8.18301 70.9061L8.121 71.096L7.83301 71.183L7.185 71.215L6.76901 71.041L6.384 70.9471L6.25299 70.816L6.297 70.523L6.224 70.4621L6.064 70.7251L5.922 71.248L5.616 71.369L4.771 71.175L3.548 71.289L2.99899 71.551L2.64401 71.517L2.03201 71.0571L1.79401 70.69L1.70499 69.948L1.741 69.621L2.21701 69.483L2.45801 69.4921L2.68399 69.316L2.48401 69.201L2.203 68.9751L2.01199 68.523L1.72299 68.375L1.53 67.9881L1.48099 67.403L1.53601 66.995L1.69 66.864L2.061 66.953L3.039 66.884L3.95901 67.3L4.58401 67.534L5.849 67.416L6.59 67.045L6.45401 66.943L5.64999 67.157L4.90701 67.148L3.59698 66.729L3.06 66.594L2.48099 66.6541L2.17999 66.527L2.00299 66.111L2.134 65.313L2.40799 65.1411L2.556 65.349L2.73499 65.362L2.91699 65.028L3.09 64.8371L3.228 64.405L3.74701 63.994L3.966 63.959L4.28 63.7701L4.48099 63.8241L4.60901 64.0141L4.772 64.1711L5.12399 64.152L6.16599 63.8221L6.27802 63.7251L6.48099 63.454L5.82101 63.575L5.27301 63.767L4.92001 63.821L4.87 63.58L5 63.3671L5.20401 63.1391L5.30301 62.75L5.52802 62.584L5.771 62.593L6.27301 62.522L6.62701 62.4211L7.23401 62.4881L8.14001 62.637L8.72299 62.999L8.94299 62.966L9.17599 62.87L9.28201 62.739L8.82401 62.5891L8.798 62.374L8.85501 62.2121L9.603 61.913L10.419 61.847L10.279 61.606L8.491 61.97L8.02399 61.721L7.655 61.7231L7.414 61.8651L6.72601 62.037L6.60001 61.915L6.73099 61.493L7.14301 60.799L7.177 60.629L7.36801 60.461L8.436 60.056L8.94901 59.584L9.17999 59.524L9.409 59.5571L9.758 59.502L10.432 59.637L10.743 60.2271L11.022 60.412L11.899 61.146L11.86 60.9361L11.1 59.939L10.81 59.691L10.593 59.1991L10.667 58.733L10.911 58.4211L11.778 58.254L11.933 58.073L11.949 57.762L11.816 57.549L11.497 57.5611L11.234 57.429L11.162 57.093L11.267 56.8651L11.767 56.448L12.04 56.313L12.514 56.1671L13.337 56.497L13.4 56.6691L13.169 57.083L13.192 57.315L13.394 57.34L13.864 56.642L14.417 56.545L14.646 56.3951L14.912 56.3L15.291 56.9321L15.458 57.134L15.583 57.217L15.704 57.741L15.821 57.769L15.988 57.507L16.291 57.368L16.716 57.277L17.42 57.416L17.739 57.313L17.895 57.328L17.745 56.857L17.652 56.72L17.797 56.298L17.948 56.133L18.434 55.836L18.898 55.703L19.201 55.4211L19.608 55.16L19.544 54.952L19.431 54.7101L19.167 54.6951L19.06 54.563L19.394 54.249L19.852 53.899L19.772 53.761L19.428 53.605L19.167 53.722L18.779 53.993L18.327 54.4211L18.474 54.5461L18.7 54.905L18.385 55.381L16.713 56.64L15.916 57.007L15.548 56.95L15.46 56.607L15.291 56.354L15.109 55.829L14.799 55.843L14.623 55.959L14.547 55.787L14.68 55.2251L14.942 54.78L15.381 54.443L15.592 54.035L15.79 53.386L16.425 52.7661L17.349 51.224L18.102 50.729L18.378 50.1861L18.822 49.946L19.201 49.521L19.498 49.479L20.038 49.095L20.344 48.637L20.144 48.609L19.669 48.9061L19.4 49.026L19.419 48.535L19.549 48.03L19.94 47.567L21.821 46.216L22.009 46.44L22.234 46.836L22.8 46.747L23.446 45.98L23.943 45.1431L23.674 45.289L23.381 45.632L22.81 46.107L22.546 46.1821L22.395 46.12L22.311 45.803L22.113 45.7L21.934 45.771L21.749 45.545L21.716 44.986L21.952 44.151L22.139 43.597L22.341 43.176L23.135 41.976L23.306 41.318L23.665 40.97L24.131 41.047L24.272 40.946L24.112 40.512L23.604 40.168L23.573 39.951L25.266 39.3801L26.072 39.399L26.311 39.114L26.749 38.93L27.081 38.58L26.91 38.425L26.091 38.747L25.579 38.898L25.348 38.8931L25.167 39.0031L24.513 39.045L24.37 37.648L24.473 36.885L24.717 36.901L24.773 36.17L25.055 35.737L25.444 35.64L25.64 35.455L25.923 35.077L26.391 35.164L26.872 35.08L26.752 34.901L26.155 34.6711L26.008 34.275L26.218 34.053L26.447 33.89L26.649 33.861L27.048 33.084L27.291 32.7511L27.562 32.8091L27.94 32.465L28.312 32.582L28.671 32.357L29.162 32.208L30.959 32.151L31.012 31.83L30.634 31.756L29.299 31.673L28.617 31.68L28.33 31.763L28.225 31.651L28.244 31.459L28.492 31.1541L28.609 30.817L29.105 29.991L29.686 29.439L30.131 29.58L30.604 30.107L30.941 30.173L31.098 30.343L31.344 31.067L31.461 31.09L31.408 30.3951L31.733 29.827L31.649 29.67L31.161 29.8761L30.787 29.662L30.492 29.234L30.408 28.842L30.592 28.454L30.765 28.258L30.648 28.0291L29.91 28.64L29.388 28.7831L29.182 28.698L29.293 28.144L29.231 27.703L29.931 26.6131L30.172 26.487L30.565 26.575L30.92 26.883L31.217 26.834L31.539 26.6691L31.495 26.373L30.797 26.2551L30.617 26.009L30.682 25.7661L31.161 25.51L31.638 25.047L32.184 24.912L32.623 24.5611L32.708 24.6411L32.782 24.7791L32.94 26.077L33.333 27.129L33.478 27.1671L33.327 26.273L33.468 26.015L33.646 25.819L33.702 25.595L33.498 25.519L33.331 25.1971L33.093 24.164L33.175 23.894L33.692 23.34L34.34 23.213L35.03 23.601L35.273 23.605L35.673 23.5011L36.352 23.181L36.752 23.0591H36.96L37.011 22.897L36.818 22.793L36.756 22.692L36.605 22.634L35.977 22.8071L34.244 22.752L34.077 22.567L34.046 22.246L34.23 21.786L34.432 21.5311L35.086 21.0721L35.777 21.01L36.506 20.191L36.784 19.575L36.942 18.62L37.386 17.844L38.5 17.401L38.545 17.205L38.427 16.798L38.437 16.064L38.742 15.205L38.945 14.9061L39.039 14.87L39.279 15.152L39.571 15.75L40.028 16.092L40.627 16.151L40.787 15.983L40.322 15.6431L39.969 15.1971L39.941 14.748L40.108 14.51L40.368 14.536L40.694 14.486L40.998 14.183L41.042 13.97L41.055 13.68L41.131 13.385L41.577 12.678L42.951 12.217L43.051 12.405L42.977 13.7681L42.819 14.644L42.824 15.282L43.092 14.644L43.45 12.887L43.72 12.055L44.024 11.576L44.241 11.468L44.456 11.219L44.74 11.071L44.827 11.262L44.917 11.705L44.764 13.2511L44.779 13.737L44.608 14.386L43.953 15.825L43.983 16.008L44.131 15.94L44.384 15.704L45.196 14.336L45.905 14.509L45.914 14.397L45.686 13.994L45.409 13.607L45.325 13.127L45.362 11.8391L45.576 11.326L46.188 11.3801L46.555 11.3091L46.726 11.5421L47.093 11.525L47.347 10.595L47.85 10.513L48.292 11.129L48.823 11.5421L49.25 12.134L49.371 11.972L49.141 10.586L48.889 10.078L48.342 9.81305L47.759 9.18405L47.608 8.90405L47.634 8.69604L48.148 8.49504L48.826 8.72604L49.43 8.19905L49.595 8.34404L50.058 8.06804L50.346 8.44005L50.523 8.33005L50.625 7.83104L51.364 7.52104L51.833 7.80804L52.084 8.10304L52.201 8.67004L52.38 9.78505L52.746 10.384L52.974 10.677L53.243 10.758L53.373 10.4601L53.121 10.1001L53.053 9.76004L53.174 8.91405L53.315 8.58104L54.106 7.31204L54.768 6.65004L55.164 6.59404L55.858 5.10104L56.054 4.82805L56.235 4.76505L56.189 4.39705L55.81 4.16405L55.797 3.70604L56.297 3.14804L56.904 2.20705L57.203 2.14404L57.391 2.40605L57.982 2.83104L58.344 3.31604L58.606 3.56004L58.776 3.50905L58.917 3.14505L59.087 2.97404L59.462 3.07005L59.686 3.30405L59.861 3.33505L60.019 3.47705L60.056 3.78804L59.731 4.12704L59.177 5.02005L58.631 6.03004L58.451 6.56004L58.274 7.94304L57.847 8.82205L57.814 9.43605L57.986 9.72404L58.457 9.49805L59.038 8.67905L59.183 7.80504L60.636 5.41405L61.318 4.08005L62.092 2.96704L62.526 2.73604L62.73 3.47505L62.566 4.43504L62.237 5.04405L62.48 5.32304L62.434 6.04305L62.358 6.44205L62.31 6.85904L62.313 7.22505L62.541 7.12704L63.448 6.37505L63.678 5.55705L63.891 4.94104L63.993 4.40805L64.346 3.90105L65.012 3.89705L65.038 3.69705L64.23 3.00005L64.135 2.68105L64.406 2.25505L65.151 1.43904L65.534 1.52905L65.763 1.71504L66.68 1.85704L67.384 2.44005L67.357 3.34904L67.2 3.72705L67.046 3.95905L66.145 4.64305L65.997 4.98004L66.28 5.09604L66.888 4.75604L67.046 5.06505L66.852 5.83505L66.819 6.98404L66.749 7.65105V8.25705L66.825 8.58205L67.07 7.29205L67.153 6.95905L67.511 6.47005L67.644 5.48105L67.994 4.28604L68.389 3.58804L68.618 3.39705L69.378 3.42404L69.704 3.68704L69.992 4.27005L70.207 4.50305L70.885 4.75005L71.117 5.05905L71.16 5.24304L71.326 5.28004L71.784 4.84105L72.081 4.76805L72.565 5.45204L72.468 5.95705L72.496 6.11705L73.082 6.08505L73.57 6.28305L74.497 7.31105L74.594 7.78905L74.548 8.36705L73.21 9.00005L72.632 9.60405L71.686 9.83604L68.474 9.43205L68.539 9.86905L70.776 10.8201L70.904 11.091L70.832 11.659L70.831 12.114L70.873 12.424L71.038 12.7121L71.311 12.847L71.868 12.776L72.142 12.931L72.33 12.702L72.4 11.929L72.562 11.758L72.874 11.983L73.01 12.8091L73.097 12.894L73.254 12.306L73.563 12.3481L73.9 12.299L74.335 12.396ZM53.485 3.80605L53.43 4.07405L53.335 4.33405L53.105 4.60805L52.439 5.68904L52.048 5.86205L51.924 6.03105L51.768 6.13205L51.282 5.98505L51.14 6.20305L51.006 6.34904L50.654 6.40504L50.447 6.35805L49.914 5.96005L49.597 5.52805L49.425 5.15805L49.918 5.16504L50.093 5.07504L50.424 5.15305L50.623 4.77205L51.043 4.81804L51.85 4.55304L52.146 4.70105L52.823 3.81204L53.035 3.83505L53.359 3.58005L53.485 3.80605ZM55.104 5.91304L54.569 6.24904L54.259 5.96005L54.129 5.66304L54.11 5.00204L54.182 4.59805L54.433 4.38905L54.596 4.54205L54.639 4.67004L54.931 4.79504L55.274 5.21104L55.104 5.91304ZM53.976 6.06505L54.028 6.45905L54.048 6.78305L53.786 7.25005L53.182 7.86104L53.217 8.02504L53.008 8.18205L52.695 8.29704L52.53 8.18605L52.552 7.66304L52.502 7.50705L52.265 7.71504L52.018 7.44804V7.18004L52.083 6.94705L52.312 6.59204L52.693 6.34705L52.944 6.43904L53.782 5.49605L53.872 5.69405L53.976 6.06505ZM43.177 8.84305L43.32 8.94005L43.462 8.88005L43.579 8.96504L43.814 9.40105L44.067 9.57205L44.079 9.79004L43.848 10.002L43.543 10.066L43.216 9.99205L43.12 9.72005L43.019 9.26704L42.746 8.82205L42.705 8.43105L42.943 8.36905L43.177 8.84305ZM41.739 10.084L41.988 10.5311L42.209 10.4881L42.275 10.3201L42.425 10.236L42.729 10.4731L42.686 10.874L42.265 11.379L41.963 12.097L41.577 12.263L41.391 12.177L41.045 12.59L40.769 13.0181L40.482 13.558L40.464 13.836L40.419 14.048L39.368 14.258L38.986 14.397L38.581 14.218L38.389 13.862L38.451 13.6691L38.855 13.592L38.868 13.261L38.971 13.0591L39.102 12.948L39.198 12.524L39.358 12.413L39.656 12.517L39.857 12.209L39.97 12.1561L40.109 12.411L40.176 12.06L40.109 11.739L40.144 11.522L40.529 10.957L40.696 10.5441L40.936 10.277L41.167 10.319L41.234 9.92505L41.167 9.52104L41.192 9.25705L41.396 8.61505L41.62 8.58804L41.723 9.15904L41.739 10.084ZM46.016 9.89204L45.865 10.083L45.633 10.161L45.508 10.043L45.33 9.96504L45.132 10L44.966 9.64905L44.985 9.35405L45.212 8.95404L45.667 8.72604L46.035 8.82005L46.129 8.93704L46.016 9.89204ZM71.771 12.288L71.238 12.525L71.176 12.33L71.293 12.026L71.433 11.402L71.652 11.427L71.874 11.665L72.048 11.9491L71.771 12.288ZM36.822 13.9081L37.159 14.3671L37.31 14.2271L37.609 14.174L37.831 14.336L38.013 14.627L38.228 14.64L38.363 15.0201L38.432 15.513L38.276 15.8801L38.054 16.047L37.994 16.478L38.078 17.081L37.58 17.287L37.004 17.379L36.778 17.091L36.318 17.6171L35.861 18.4341L35.641 18.53L35.625 18.272L35.297 18.093L34.877 18.083L34.891 17.8911L34.968 17.756L35.33 17.555L35.402 17.1391L35.336 16.3951L35.4 16.032L35.414 15.782L35.642 15.4881L36.422 15.6261L36.517 15.345L36.458 15.168L36.055 14.858L36.117 14.649L36.408 14.4621L36.683 14.437L36.766 14.121L36.78 13.982L36.822 13.9081ZM31.931 22.038L31.965 22.092L32.347 21.3521L32.771 21.121L32.797 20.862L32.961 20.612L32.942 20.202L33.025 19.869L33.241 19.78L33.376 19.6671L33.525 19.604L33.796 19.875L33.948 20.175L34.138 20.843L34.059 21.487L33.55 21.9881L33.146 22.213L32.737 22.785L32.532 23.252L32.355 23.353L32.244 23.315L32.145 23.203H31.938L31.71 23.607L31.022 23.935L30.752 23.84L30.74 23.438L30.579 23.471L30.321 23.953L30.069 24.114L29.9 24.163L29.589 23.982L28.753 24.8L27.969 24.952L27.711 24.858L27.71 24.358L28.217 23.716L28.632 23.269L30.062 22.956L30.953 21.62L31.168 20.157L31.378 19.625L31.279 19.3241L31.04 19.271L31.025 18.8071L31.15 18.299L31.617 17.599L31.877 17.3L32.3 16.451L32.504 16.26H32.736L32.965 16.483L32.924 16.938L32.581 17.756L32.073 18.45L32.135 18.9471L32.337 19.354L32.387 20.048L32.4 20.7141L32.015 21.61L31.931 22.038ZM30.378 19.083L30.743 19.8671L30.91 20.3241L30.775 21.183L30.42 21.6151L29.873 21.692L29.489 21.6561L29.247 21.448L29.217 21.215L29.077 21.146L28.708 21.446L28.452 21.486L28.126 21.254L28.038 20.882L28.384 20.415L28.544 20.051L28.927 20.083L29.023 20.196L29.24 20.267L29.372 19.828L29.342 19.524L29.439 19.312L29.902 19.465L29.903 18.635L30.083 18.577L30.157 18.609L30.29 18.784L30.378 19.083ZM26.634 24.2921L26.801 24.4211L27.237 24.383L27.325 24.431L27.262 24.644L27.073 24.8781L26.676 25.022L26.497 25.379L26.369 25.5L26.026 25.5011L25.823 25.584L25.574 25.9L25.375 25.6671L25.319 25.833L25.283 26.129L25.172 26.215L24.828 26.3221L24.745 25.633L24.903 25.383L25.027 25.083L25.217 25.037L25.387 25.062L25.694 24.414L26.114 24.229L26.385 24.208L26.634 24.2921ZM24.104 27.23L23.689 27.623L23.84 26.905L24.064 26.175L24.374 25.756L24.528 25.92L24.457 26.271L24.458 26.6171L24.392 26.78L24.104 27.23ZM22.556 40.351L22.296 40.396L22.339 40.091L22.549 39.801L22.63 39.603L22.672 39.369L22.858 39.192L23.12 39.4191L23.125 39.803L22.995 40.153L22.556 40.351ZM22.808 41.3241L22.583 41.344L22.585 41.063L22.714 40.8071L22.918 40.636L23.181 40.591L23.475 40.571L23.564 40.707L23.395 40.898L22.808 41.3241ZM21.288 43.205L21.102 43.414L20.755 43.354L20.718 43.174L20.817 42.814L21.028 42.665L21.3 42.694L21.387 42.844L21.288 43.205ZM19.221 48.297L19.074 48.481L18.747 48.334L18.102 48.448L17.842 48.269L18.049 47.9191L18.632 47.551L18.945 47.568L19.264 48.0201L19.221 48.297ZM11.473 56.038L11.151 56.053L10.957 55.911L11.418 55.629L12.141 55.359L12.21 55.188L12.297 55.1671L12.422 55.377L12.438 55.665L12.358 55.808L11.473 56.038ZM10.439 58.108L10.164 58.112L9.83701 58.0161L9.63199 57.8111L9.60001 57.6301L9.97699 57.405L10.356 57.273L10.532 57.521L10.545 57.927L10.439 58.108ZM1.616 71.6581L1.367 71.731L1.16699 71.668L1.23801 71.114L1.34201 71.024L1.49301 70.9921L1.65601 71.289L1.616 71.6581ZM1.97299 76.106L1.98199 76.777L1.724 76.726L1.608 76.469L1.57401 76.304L1.595 75.915L1.53699 75.513L1.61301 75.313L1.707 75.286L1.87399 75.644L1.97299 76.106Z" fill="#CCCCCC" stroke="white" stroke-width="0.5"/>
</svg>
