<svg width="24" height="14" viewBox="0 0 24 14" fill="none" xmlns="http://www.w3.org/2000/svg">
<path d="M22.9793 8.67493L23.0923 8.76093L23.1043 8.90195L23.0833 9.05795L22.9673 9.39493L22.8613 9.63095L22.7383 10.1299L22.6273 10.993L22.6513 11.144L22.9823 11.6369L23.1113 12.0169L23.1243 12.2739L22.9833 12.7069L22.8243 13.1939L22.7463 13.3039L22.6563 13.3429L22.2473 13.1729L21.9663 13.1969L21.6423 13.2909L21.3043 13.2719L21.0243 13.2159L20.6713 13.4119L20.3323 13.3059L20.1153 13.1849L19.9713 12.8459L19.9103 12.8029L19.1973 13.157L19.0263 13.1789L18.5833 12.989L18.2213 12.7999L18.0853 12.7439L17.7353 12.67L17.4213 12.627L17.0783 12.5099L16.6523 12.6639L16.4803 12.6509L16.3203 12.5399L16.2363 12.3129L16.2153 12.0969L16.0703 11.9489L15.8473 11.9149L15.5323 12.0479L15.0733 12.2239L14.9253 12.1939L14.7893 12.144L14.7393 12.0969L14.6763 11.894L14.6033 11.8489L14.4963 11.8419L14.3083 11.7929L14.0743 11.6419L13.3683 11.2849L13.2793 11.1259L13.2823 10.7739L13.2433 10.6289L13.1573 10.476L12.7943 10.3199L12.0903 10.0699L11.7003 9.86993L11.5143 9.96393L11.1563 10.0469L10.9643 10.2279L10.7343 10.17L10.1873 9.97995L9.89331 9.95193L9.71631 10.0169L9.67529 10.1249L9.45129 10.2489L9.23828 10.1499L8.81732 10.0179L8.44928 9.94495L7.89032 9.78293L7.82629 9.53894L7.7323 9.29694L7.60028 9.25394L7.0993 9.30194L6.63928 9.03494L6.1463 8.69193L5.93628 8.57993L5.7973 8.53894L5.67828 8.58395L5.5423 8.66293L5.41833 8.68594L5.15033 8.53793L4.80933 8.32794L4.38928 8.06894L3.89728 7.70795L3.69531 7.50293L3.60431 7.34995L3.49933 7.20493L3.07129 6.96793L2.73328 6.78094L2.32532 6.55493L2.25732 6.50995L2.10333 6.37494L1.86633 6.20593L1.6723 6.15594L1.61029 6.24994L1.56329 6.34793L1.39429 6.32495L1.13031 6.15195L0.854309 5.97095L0.639282 5.80295L0.417297 5.62994L0.363281 5.50195L0.456299 5.10693L0.585327 4.76794L0.694275 4.69193L0.872314 4.46695L0.937317 4.07193L0.934326 3.73395L1.1073 3.25693L1.34729 2.74893L1.76031 2.20395L1.93829 2.02295L2.13928 1.89893L2.52032 1.49594L2.5993 1.42993L2.7663 1.32593L2.9303 1.29993L3.05432 1.34995L3.18134 1.56094L3.33533 1.76193L3.52228 1.75195L3.74133 1.57993L4.19531 0.789948L4.82629 0.62793L5.42432 0.70993L5.95331 0.824951L6.10931 1.08893L6.2113 1.36795L6.27728 1.50894L6.45129 1.67493L7.19733 2.06894L7.63031 2.42395L8.22931 2.89993L8.67731 3.10895L9.07428 3.12695L9.29828 3.31293L9.63531 3.68393L9.92029 4.10895L10.2753 4.50195L10.5213 4.48895L10.8563 4.36194L11.2653 4.19495L11.5063 4.27695L11.7293 4.38593L11.8033 4.58893L11.9383 4.97293L12.0863 5.37094L12.3203 5.50995L12.5983 5.71393L12.7513 5.87595L13.2713 6.17395L13.3443 6.29495L13.4493 6.37695L13.5763 6.42892L13.6813 6.48993L13.8453 6.51093L14.4453 6.33295L14.6053 6.35495L14.6973 6.38794L14.7003 6.45294L14.5923 6.73093L14.5003 7.08694L14.5953 7.26495L14.8473 7.33893L15.4033 7.39194L16.1543 7.38693L16.3833 7.56693L16.6093 7.83694L16.8383 8.29794L16.9293 8.49295L17.0423 8.54895L17.2373 8.47192L17.2703 8.28293L17.2783 8.00095L17.4423 7.90393L17.5473 7.97595L17.6693 8.19595L17.9793 8.39395L18.2043 8.49094L18.4183 8.45694L18.5083 8.38095L18.6133 7.99594L18.7823 7.93994L18.9953 7.96494L19.0773 8.04193L19.1633 8.19595L19.4223 8.26895L19.6793 8.36493L19.9203 8.49094L20.2613 8.77594L20.6803 8.82895L21.1673 8.82193L21.4233 8.82895L21.6113 8.84995L21.7803 8.82993L22.2793 8.62595L22.4833 8.61093L22.7363 8.63394L22.9793 8.67493Z" fill="#CCCCCC" stroke="white" stroke-width="0.5"/>
</svg>
