<svg width="53" height="73" viewBox="0 0 53 73" fill="none" xmlns="http://www.w3.org/2000/svg">
<path d="M51.5945 34.7039L51.4936 34.8049L51.3216 34.7999L51.0206 35.1949L51.0396 34.9L50.9496 34.7849L50.6916 34.812L50.6426 34.877L50.8156 34.955L50.8536 34.9979L50.6886 35.1689L50.8606 35.5359L51.0106 35.5229L51.1566 35.8099L51.1556 35.9L50.8216 36.0109L50.6456 36.166L50.4886 36.1599L50.4146 36.1299L50.3266 35.853L50.3196 35.7369L50.5126 35.5339L50.6216 35.327L50.5336 35.137L50.3105 35.0139L49.8246 35.0699L49.7126 35.0289L49.9556 34.7729L50.2195 34.801L50.5036 34.6169L51.5945 34.7039ZM51.5976 36.9659L51.4736 36.9999L51.4916 36.7769L51.4496 36.6329L51.6595 36.5859L51.7496 36.757L51.5976 36.9659ZM21.9786 2.80597L22.0206 2.96191L22.1756 2.85095L22.2916 2.67596L22.4786 2.49792L22.4536 2.78491L22.5496 2.84796L23.1696 3.04791L23.2975 3.21497L23.4296 3.26294L23.5036 3.16895L23.5916 3.11792L23.8156 3.22296L24.3216 3.51495L24.3636 3.61597L24.3376 3.76593L24.3625 3.92493L24.4316 4.05194L24.5995 4.08093L24.8235 3.89294L24.9286 3.86993L25.0766 4.13696L25.1326 4.28796L25.1096 4.28296L25.2065 4.43292L25.3346 4.58093L25.5556 5.01996L25.5226 5.17395L25.4576 5.31293L25.6606 5.71991L25.5276 5.74792L25.1286 5.67896L25.1416 5.76093L25.3746 6.05994L25.5706 6.48291L25.7276 6.73792L26.2816 7.53094L26.1985 7.81293L26.2115 7.99994L26.1406 8.16095L26.3296 8.58295L26.2115 8.71393L26.1335 9.14691L26.0475 9.22296L26.0586 9.38092L26.2826 9.42291L26.4176 9.48993L26.5336 9.61896L26.6056 9.46393L26.7036 9.42194L26.9706 9.62897L27.5266 9.83594L27.6796 9.91296L27.7546 10.08L27.8116 10.4839L27.9196 10.6619L28.1326 10.6959L28.3616 10.642L28.4336 10.4949L28.3876 10.0989L28.2226 9.46692L28.2216 9.26196L28.2446 9.05597L28.2065 8.85193L28.1236 8.65991L28.0345 8.51294L27.9206 8.38892L27.9606 8.19592L28.1316 8.10895L28.2356 8.27191L28.3206 8.46893L28.7516 9.05292L29.0066 9.01196L29.0296 9.25397L29.2026 9.49994L29.2986 9.78894L29.4246 10.6539L29.6176 11.4709L29.9676 11.827L30.0085 11.9979L29.7956 11.9099L29.7306 11.9609L29.7526 12.0469L29.9496 12.2039L30.1816 12.2809L30.3276 12.27L30.4646 12.327L31.3716 12.861L31.8076 13.0689L32.9076 13.4099L33.2216 13.437L33.3956 13.4279L33.7245 13.3099L34.0196 13.098L34.2746 12.7809L34.4946 12.4199L34.7336 12.2449L35.0046 12.1069L35.1416 11.9789L35.2856 11.8879L36.0226 11.9299L36.2715 12.1119L36.5945 12.2579L36.7635 12.3719L36.7065 12.6039L36.5135 12.9459L36.3656 13.3209L36.2336 14.1749L36.1446 15.041L36.0106 15.424L35.7666 15.7189L35.4966 15.9349L35.1916 16.0369L35.0676 16.5319L35.0066 17.1129L35.0246 17.2589L35.1226 17.3749L35.1626 17.5479L35.0026 17.8979L34.9095 17.8469L34.7776 17.5549L34.6586 17.4329L34.2926 17.3419L33.9196 17.2999L33.5966 17.3259L33.2845 17.4509L32.8136 17.7039L32.6676 17.8319L32.5396 17.9949L32.3235 18.3589L32.2715 18.8049L32.2816 19.0389L32.3586 19.2199L32.7596 19.4669L32.3616 20.3309L32.0085 21.2329L31.8086 21.491L31.5786 21.7299L31.3616 22.275L30.9825 22.7449L30.7266 23.1049L30.5266 23.4789L30.3516 23.877L29.9786 24.4399L29.8136 24.8129L29.5976 25.124L29.1956 25.5209L28.7676 25.8619L28.0936 26.3339L27.9056 26.4899L27.7076 26.6049L27.4615 26.4699L27.4126 26.3229L27.3536 25.9999L27.2996 25.882L26.9866 25.7839L26.5716 25.9399L26.5026 25.9069L26.4846 25.8329V25.364L26.5546 25.2319L26.4576 25.1589L26.3616 25.1879L26.3286 25.3079L26.3896 25.4119L26.1536 25.541L25.9076 25.5439L25.8336 25.4929L25.8126 25.4069L25.8726 25.265L25.9516 25.14L26.4086 24.5499L26.8835 23.7689L27.2926 22.9349L27.3986 22.507L27.5486 21.715L27.4256 21.3849L27.2736 21.0759L26.8625 20.4819L26.3136 20.1469L25.9586 20.0999L25.6226 19.9749L25.3066 19.692L25.0186 19.3589L24.4476 19.0859L23.8456 18.8719L23.5026 18.5699L23.4206 18.3909L23.3666 18.1829L23.3746 17.9899L23.4176 17.7939L23.4856 17.6439L23.5926 17.5349L24.2296 17.1459L24.9046 16.9299L25.0286 16.934L25.1476 16.8989L25.3166 16.767L25.6186 16.465L25.7065 16.262L25.7666 15.6179L25.8636 14.986L26.0386 14.2629L26.3026 13.8159L26.3885 13.5419L26.2816 13.0909L26.3806 12.926L26.5005 12.8259L26.6366 12.7679L26.4066 12.3459L26.1356 11.7089L26.0786 11.512L26.1196 11.317L26.1855 11.1259L26.0166 11.0779L25.9186 10.895L25.6756 10.28L25.7416 10.1819L25.8826 10.2479L26.0916 10.6909L26.1255 10.463L26.2856 10.322L26.4556 10.249L26.6376 10.2329L26.2256 9.73895L26.0876 9.75891L25.9056 9.83795L25.7186 9.88593L25.5356 9.84296L25.3646 9.73395L25.2766 9.52594L25.1696 9.12695L25.1026 8.97992L24.5605 8.16693L24.7195 8.14093L25.1576 8.54791L25.2426 8.41797L25.3056 8.23096L25.2845 8.02295L25.1806 7.86493L25.0256 7.76294L25.0226 7.57794L25.1406 7.40894L25.1335 7.29095L24.8826 7.04993L24.7826 7.02393L24.7375 7.13593L24.8096 7.30292L24.7426 7.32196L24.1335 6.88391L23.9456 6.53192L23.7916 6.14594L23.7756 6.30292L23.7986 6.52393L24.0396 6.96692L24.4306 7.46295L24.4976 7.59491L24.4396 7.76593L24.3036 7.81494L24.1836 7.70691L24.0046 7.28192L23.8755 7.06995L22.3806 4.88593L22.5716 4.59894L22.8676 4.35693L22.9355 4.24994L22.9806 4.11896L22.8556 4.09692L22.7436 4.15692L22.6156 4.26794L22.4986 4.39392L22.3506 4.67493L22.2806 4.73993L22.1056 4.54492L22.0386 4.42493L22.0416 4.28094L21.9946 4.18994L21.8646 4.16095L21.6736 3.87494L21.5526 3.72894L21.7546 3.44995L21.7596 3.08295L21.5536 2.69891L21.3076 2.34595L20.8336 1.77692L20.3986 1.17596L20.8696 1.09991L21.3476 1.08691L21.1226 1.44696L21.2245 1.65497L21.3766 1.83093L21.7046 2.37091L21.7325 2.52692L21.8986 2.68494L21.9786 2.80597ZM28.3586 7.42694L28.3806 7.61597L28.1656 7.54895L28.0815 7.40594L27.8406 7.25793L27.8056 7.21393L27.7786 6.92694L27.9056 6.78796L27.9266 6.72894L27.9825 6.70593L28.0815 6.85693L28.2726 7.07196L28.3586 7.42694ZM21.5456 25.3669L21.8686 25.3849L22.1696 25.1129L22.4776 24.892L22.8006 24.7089L23.2926 24.2899L23.4216 24.228L23.7406 24.1479L23.8796 24.049L24.0345 24.0259L23.8946 24.2739L23.7186 24.3569L23.6906 24.4459L23.7896 24.59L23.6366 24.791L23.6426 25.0419L23.4606 25.3389L23.7386 25.2169L23.8416 25.0239L23.7886 24.9149L23.9086 24.6989L24.0956 24.5959L24.0215 24.4329L24.0266 24.304L24.2556 24.3519L24.3686 24.3469L24.4586 24.296L24.6236 24.2759L24.6566 24.4199L24.8786 24.4019L24.7975 24.5839L24.6286 24.7949L24.5886 24.9229L24.3176 25.1359L24.1366 25.2269L24.4156 25.2499L24.8235 24.965L25.0656 24.7139L25.0586 25.028L24.8616 25.3099L24.6935 25.4879L24.5036 25.5439L24.3146 25.689L24.2226 25.926L24.2336 26.0839L24.2876 26.2089L24.4806 26.4199L24.2635 26.8279L24.5056 26.7769L24.6376 26.8539L24.8235 27.0889L24.7115 27.361L24.6335 27.4999L24.1616 28.075L23.9556 28.3669L23.7146 28.554L23.7176 28.861L23.5796 29.085L22.8755 29.8539L22.7526 30.0209L22.1976 31.2499L21.8436 31.7679L21.6406 31.9449L21.4256 32.088L20.9106 32.3329L20.6826 32.6149L20.4316 32.8489L20.1666 32.9019L20.1746 33.0059L20.3445 33.064L20.4776 33.218L20.3786 33.3909L20.1896 33.499L19.9936 33.53L19.8936 33.6409L20.3616 33.562L20.4936 33.6519L20.5176 33.843L20.5676 34.015L20.6806 34.2429L21.0746 34.3889L21.4286 34.4569L21.4976 34.5629L21.5506 34.9279L21.4866 35.1069L21.4076 35.2249L21.2886 35.267L21.0005 35.2899L20.7115 35.2069L20.5206 34.986L19.9736 35.0569L19.8276 35.1039L19.7526 35.064L20.0556 34.8319L19.8976 34.7L19.7656 34.6509L19.6226 34.728L19.5266 34.8499L19.4986 35.0499L19.3996 35.166L19.2496 35.1989L19.0366 35.0319L18.8256 34.7939L18.5156 34.554L18.5636 34.702L18.8016 35.0649L18.9206 35.306L18.6436 35.499L18.3536 35.6489L18.1096 35.7369L17.8796 35.8749L17.6086 36.09L17.4596 36.166L17.0636 36.171L16.8516 36.239L16.7816 36.5229L16.6335 36.7039L16.2856 36.7399L16.4116 36.7969L16.4886 36.8879L16.2585 37.7459L16.2086 38.103L16.1656 38.715L16.0206 39.2849L15.6075 39.2819L15.6736 39.3829L15.9866 39.5439L15.9276 39.7869L15.5836 40.2319L15.4396 40.489L15.2996 41.1149L15.0896 41.6939L14.7686 42.3539L14.7656 42.473L14.8786 42.642L15.0156 42.788L15.0236 42.994L14.9816 43.103L14.8286 43.1309L14.6946 43.202L13.9786 43.3839L13.7446 43.588L13.5516 43.9539L13.3256 44.27L12.5735 44.9719L12.1316 45.562L12.0426 45.731L11.9236 45.8539L10.9565 46.1339L10.2726 46.176L9.90057 46.1039L9.54156 45.9619L9.34259 45.9139L8.96259 46.0009L8.79657 46.0959L8.4986 46.002L8.26257 46.0729L8.19257 46.004L8.10455 45.8309L8.15356 45.601L8.08856 45.431L7.9386 45.3159L7.83759 45.1819L7.7226 45.0869L7.40857 45.0499L6.9126 45.1099L6.7486 45.1039L6.41156 44.541L6.3006 44.403L5.8996 44.2239L5.76257 44.249L5.54755 44.549L5.42059 44.5999L4.66656 44.632L3.91058 44.5349L3.63257 44.4229L3.57758 44.1639L4.15155 43.4529L3.98157 43.5479L3.62756 43.8369L3.40155 43.793L3.61859 43.478L3.63757 43.3369L3.59259 43.181L3.29755 43.4459L2.96155 43.481L2.91858 43.2349L2.94855 42.95L3.0166 42.869L3.92358 42.7199L4.25055 42.6229L4.39355 42.4699L3.85059 42.418L3.81659 42.2039L3.89459 42.033L4.35858 41.749L4.0166 41.8209L3.63757 41.796L3.6626 41.4959L3.7616 41.262L4.15857 41.2549L4.03455 41.0939L4.01556 40.8699L4.12555 40.8549L4.52856 41.1569L4.81958 41.267L4.69659 41.0399L4.71356 40.8969L4.79059 40.8329L5.02856 40.788L4.96259 40.7479L4.73956 40.6899L4.47357 40.5179L4.44556 40.3359L4.45557 40.1259L4.74158 39.8369L4.91058 40.0089L5.1106 39.9619L4.95758 39.827L4.86456 39.6249L4.92755 39.4919L5.53455 38.9569L5.68958 39.4719L5.72559 39.301L5.73456 39.1389L5.66156 38.9979L5.67255 38.856L5.74255 38.7339L6.00256 38.6129L6.34058 38.2209L6.59058 38.0389L6.79358 38.1559L6.93256 38.3129L6.91156 38.1569L6.81256 38.028L6.78558 37.6689L7.23956 37.1129L7.73859 36.585L8.21759 36.033L8.4726 35.8329L9.01556 35.606L9.36359 35.7009L9.45258 35.6829L9.96857 35.2869L10.1826 35.184L10.3776 35.325L10.4976 35.3759L10.3766 35.0139L10.4716 34.848L10.9026 34.556L11.4426 34.2549L11.8526 34.1299L12.1546 33.926L12.3365 33.921L12.3096 33.767L12.3406 33.6199L12.4966 33.6299L12.5446 33.572L12.4066 33.4919L12.8516 33.1979L13.0936 32.8729L13.2195 32.806L13.3346 32.7079L13.4766 32.4839L13.6446 32.4099L13.8006 32.4449L13.9136 32.5549L13.8516 32.3719L13.6516 32.2679L13.8666 32.1099L14.0896 31.9999L14.3066 32.0789L14.5196 32.2069L14.3066 32.0109L14.2715 31.89L14.5306 31.7499L14.6706 31.7069L14.8666 31.9689L14.8386 31.7609L14.8846 31.577L15.1616 31.2759L15.5246 30.78L15.6406 30.9529L15.6595 31.1619L15.6416 31.4149L15.7166 31.3279L15.7416 31.0989L15.6855 30.6959L16.1396 29.9529L16.2296 29.8699L16.3296 29.8199L16.4875 29.7999L16.4386 29.6879L16.3156 29.58L16.4396 29.2039L16.5135 28.775L16.6186 28.3629L16.7876 27.9609L16.9726 27.291L17.1136 27.1509L17.4946 27.103L17.6616 27.0089L17.9396 26.7679L18.2686 26.3319L18.4446 25.981L18.6756 25.0759L18.8056 24.1329L19.1796 23.4359L19.7286 22.9329L20.2115 22.551L20.4095 22.4709L20.7436 22.447L21.0616 22.5519L20.4695 22.6439L20.4086 22.8709L20.3896 23.101L20.4576 23.3069L20.5636 23.491L20.8506 23.6639L21.1866 23.767L21.3365 24.1569L21.3636 24.6199L21.4095 25.0179L21.5456 25.3669ZM23.7886 23.8259L23.4126 24.041L23.4286 23.892L23.5016 23.567L23.6725 23.403L23.7566 23.392L23.9286 23.2689L23.9095 23.541L23.7886 23.8259ZM4.32458 40.3449L4.44556 40.822L4.1886 40.731L4.08154 40.5859L4.27759 40.3469L4.32458 40.3449ZM3.67059 42.2429L3.65558 42.4399L3.62256 42.5389L3.5246 42.5399L3.3786 42.5179L3.2356 42.4269L3.14355 42.4529L3.06757 42.4199L3.16656 42.1979L3.49957 42.08L3.62756 42.1749L3.67059 42.2429ZM7.59558 47.124L7.5976 47.2869L7.30457 47.2289L7.31055 47.4119L7.54156 47.5089L7.62659 47.6409L7.86658 47.603L7.92059 47.7999L7.86456 47.9769L7.70459 48.106L7.23059 48.171L6.92255 48.4279L6.65656 48.3889L6.58459 48.4119L6.2796 48.6879L5.9386 48.7729L5.84558 48.752L5.89258 48.5059L6.14655 48.2729L6.15155 48.049L6.21655 47.8699L6.45959 47.744L6.46356 47.512L6.62756 47.3049L6.52759 46.8599L6.58057 46.4609L7.06256 46.439L7.59558 47.124ZM2.19659 63.705L2.25757 64.0779L2.10358 64.0789L1.78259 63.9749L1.68158 63.8159L1.61359 63.7769L1.49658 63.9619L1.30859 63.9709L1.2666 63.9089L1.34058 63.7119L1.78357 63.34L1.86658 62.8729L1.8606 62.723L2.20856 62.6879L2.29059 62.7449L2.32758 62.809L2.3056 62.8909L2.16455 63.0449L2.15955 63.223L2.19556 63.4089L2.08057 63.499L2.14056 63.6589L2.19659 63.705ZM10.4955 71.533L10.6506 71.767L10.3526 71.869L10.2076 71.7839L10.1056 71.6769L10.0546 71.5259L10.2156 71.5419L10.3546 71.4789L10.4955 71.533Z" fill="#CCCCCC" stroke="white" stroke-width="0.5"/>
</svg>
