<svg width="23" height="30" viewBox="0 0 23 30" fill="none" xmlns="http://www.w3.org/2000/svg">
<path d="M12.6989 2.61581L12.6439 2.68683L12.5629 2.69382L12.377 2.63281L12.2679 2.49182L12.2889 2.31982L12.2949 2.00183L12.348 1.70181L12.3329 1.38382L12.189 1.31982L12.088 1.33783L12.3229 0.888824L12.416 0.819824L12.5029 0.848816L12.7199 0.800812L12.8339 0.556824L12.9249 0.423828L13.0219 0.439819L13.0689 0.514832L13.0349 0.885803L13.0309 1.19482L12.9109 2.13882L12.7869 2.30182L12.7239 2.43381L12.6989 2.61581ZM12.653 3.8988L12.5369 3.98181L12.4539 3.9678L12.4709 3.80283L12.5209 3.68781L12.6409 3.69681L12.6699 3.76581L12.653 3.8988ZM3.68396 29.5828L3.51392 29.1988L3.34393 28.8148L3.17291 28.4308L3.00293 28.0458L2.88391 27.7758L2.68396 27.6808L2.56195 27.3958L2.43793 27.1038L2.31396 26.8118L2.18994 26.5198L2.06592 26.2278L1.94092 25.9348L1.81696 25.6418L1.69293 25.3488L1.56891 25.0558L1.44391 24.7628L1.31995 24.4698L1.19592 24.1758L1.07196 23.8818L0.947937 23.5878L0.822937 23.2938L0.698914 22.9998L0.574951 22.7058L0.970947 22.5668L1.45294 22.3978L1.93591 22.2288L2.41797 22.0598L2.90094 21.8908L3.38293 21.7218L3.86493 21.5518L4.34796 21.3828L4.82996 21.2138L5.31293 21.0438L5.79492 20.8738L6.27692 20.7048L6.75995 20.5348L7.24194 20.3648L7.72394 20.1948L8.20691 20.0248L8.68896 19.8548L8.98792 19.7498L9.11194 19.3538L9.21497 19.0248L9.31793 18.6958L9.42096 18.3658L9.52496 18.0358L9.62793 17.7058L9.73096 17.3758L9.83392 17.0448L9.93793 16.7138L10.041 16.3828L10.1439 16.0518L10.2469 15.7198L10.3499 15.3878L10.4539 15.0558L10.5569 14.7238L10.6599 14.3908L10.7629 14.0578L10.8579 13.7528L10.6799 13.4588L10.442 13.0628L10.192 12.6488L9.95795 12.2588L9.78693 11.9748L9.58093 11.6318L9.60297 11.1908L9.59796 10.9698L9.61896 10.6308L9.81592 10.1598L10.049 9.55981L10.2189 9.16083L10.366 8.81281L10.4839 8.53381L10.549 8.24582L10.5139 8.04282L10.437 7.96881L10.3719 7.8728L10.5949 7.71881L11.0129 7.6188L11.244 7.63983L11.5659 7.56583L11.822 7.49881L11.8419 7.40881L11.77 7.25681L11.6639 7.03482L11.3029 7.01181L11.1939 6.94983L11.3199 6.62183L11.3149 6.51782L11.267 6.39481L11.2139 6.18881L11.2399 5.92282L11.314 5.74182L11.3149 5.59583L11.28 5.29581L11.291 5.02881L11.3669 4.89581L11.502 4.77182L11.629 4.70883L11.7609 4.71283L11.866 4.76581L11.9109 4.90582L11.8829 5.00281L11.8079 5.01581L11.7819 5.05682L11.8889 5.2438L12.0439 5.42682L12.1639 5.39581L12.2979 5.25183L12.4399 5.1358L12.6169 5.03281L12.7459 4.83383L12.856 4.7048L12.9539 4.68683L13.2399 5.49481L13.6639 6.24982L14.038 6.6658L14.4269 7.22983L15.0179 7.7478L15.2889 7.9248L16.3879 8.28781L16.989 8.42383L17.817 8.5538L18.39 8.83582L18.5819 8.85382L18.882 8.76981L19.101 8.77682L19.6489 9.16083L19.8099 9.52481L20.038 9.71683L20.239 10.0188L20.3699 10.3348L20.8329 10.8158L21.1589 11.3568L21.491 11.7568L21.788 12.0058L22.2379 12.1038L22.5959 12.2158L22.6359 12.4828L22.5989 12.8308L22.5309 13.0878L22.197 13.5878L22.1169 13.8958L21.739 14.4038L21.3289 15.2548L21.1409 15.4448L20.4799 15.8828L19.994 16.4098L19.418 17.3238L18.9799 18.2278L18.812 18.5168L18.4589 18.5768L18.228 18.5518L18.0679 18.4668L18.1309 18.2198L18.1689 17.9448L17.9559 17.9738L17.7689 18.0308L17.3319 18.7058L17.0919 19.0018L17.041 19.3768L16.9249 19.8608L16.754 20.3058L16.6779 20.6798L16.681 20.8918L16.809 21.4088L16.8179 21.9378L16.892 22.2548L16.952 22.6348L16.7469 22.7518L16.5709 22.8098L15.8749 22.8518L15.1699 22.9738L14.554 23.1938L14.1859 23.4128L13.7069 23.9018L13.4139 25.1408L12.9449 25.6628L12.627 25.7718L11.8619 25.8178L10.7849 25.9618L10.4069 26.0868L9.77893 26.8408L9.72992 27.0778L9.85095 27.2488L9.89093 27.4378L9.83392 27.6148L9.54895 28.0918L9.24097 28.4378L8.42096 28.6548L8.11993 28.5258L7.84491 28.4608L7.31293 28.4538L6.44696 28.5358L6.12793 28.7918L5.62494 28.9728L5.16095 29.2518L4.28491 29.3578L3.68396 29.5828ZM19.502 19.0828L19.325 19.1278L19.2739 19.1068L19.275 18.7308L19.687 18.2568L19.9579 17.7088L20.145 18.1988L19.8199 18.4728L19.6439 18.9408L19.502 19.0828Z" fill="#CCCCCC" stroke="white" stroke-width="0.5"/>
</svg>
