<svg width="18" height="8" viewBox="0 0 18 8" fill="none" xmlns="http://www.w3.org/2000/svg">
<path d="M16.5505 3.43997L16.4975 3.47897L16.3425 3.70096L16.2585 3.89096L16.4585 4.09198L16.5185 4.30496L16.6315 4.53598L16.8075 4.76797L17.0055 5.19897L17.0505 5.37198L16.9945 5.48398L16.8065 5.55298L16.6305 5.75397L16.5825 5.99997L16.6165 6.12198L16.0905 6.51498L15.9545 6.57996L15.8645 6.51996L15.7525 6.32297L15.6185 6.16397L15.5465 6.10797L15.5045 6.10596L15.4625 6.14297L15.4425 6.22897L15.5125 6.59796L15.4545 6.74698L15.2755 6.86197L15.0705 7.46198L14.9905 7.38596L14.3155 6.57797L13.7315 5.57697L13.6095 5.12296L13.7605 5.09598L13.9065 5.10596L13.9855 5.03598L14.0765 4.90396L14.0025 4.59695L14.2865 4.36398L14.3935 4.20697L14.4725 4.22498L14.6585 4.49298L14.9285 4.64597L15.2595 4.86896L15.4645 4.91998L15.2055 4.68597L14.7575 4.37796L14.6325 4.17596L14.5145 3.89496L14.3395 4.01697L14.2585 4.11996L14.1675 4.17798L14.0885 4.10797L14.0745 4.01697L13.8105 3.99896L13.7425 3.91595L13.6725 3.86996L13.7045 4.04596L13.7565 4.15396L13.7285 4.28497L13.6425 4.29398L13.5695 4.15897L13.4755 4.03598L13.3505 3.52396L13.0505 3.28296L12.9125 3.20197L12.7995 3.17197L12.6325 3.00797L12.4125 2.92096L12.1125 2.66595L11.7445 2.48297L11.2945 2.41898L10.7475 2.45898L10.5635 2.56097L10.4385 2.68997L10.3805 2.74997L10.0575 2.89697L9.93547 3.10995L9.85847 3.28998L9.69748 3.49396L9.88147 3.61697L8.82848 4.30997L8.62047 4.41098L8.14748 4.48196L8.03847 4.55597L7.89447 4.69296L7.87447 4.90097L7.89647 5.07797L8.03348 5.21497L8.15648 5.30096L8.44948 5.71298L8.97047 6.23297L9.06947 6.42197L9.15047 6.70297L8.99347 6.83496L8.87148 6.89096L8.37547 6.91296L8.20447 7.02496L8.13547 7.19598L7.95047 7.33597L7.31148 7.47498L6.80948 7.49097L6.65347 7.33096L6.61548 6.87997L6.27747 6.10995L6.19647 5.57898L6.11247 5.64496L5.93347 5.70697L5.87247 5.83896L5.82747 6.22998L5.76147 6.36398L5.62347 6.35098L5.33948 6.21097L4.96147 6.08197L4.48047 5.25296L4.42847 5.09695L4.33447 4.90997L3.96248 4.83096L3.64548 4.69098L3.29947 4.66998L3.12247 4.74896L2.94147 4.64896L2.91048 4.42096L2.54747 4.52298L2.08147 4.48697L1.66447 4.38998L1.37947 4.44196L1.14047 4.60397L1.17348 5.01697L1.10347 5.09897L1.09247 4.92996L1.00948 4.73596L0.90947 4.57498L0.699478 4.40796L0.688477 4.34695L0.771469 4.26297L1.15247 4.02097L1.19948 3.91998L1.20547 3.70996L1.16847 3.50897L0.996475 3.21298L1.09447 3.02997L1.29147 2.88297L1.49347 2.76697L1.52747 2.71796L1.49048 2.61697L1.37247 2.50797L1.09647 2.32297L0.930466 2.31097L0.923477 1.77798L0.931473 1.21198L0.97348 1.15598L1.07448 1.12198L1.15547 1.03598L1.20047 0.867981L1.32147 0.807983L1.53947 0.936981L1.76247 1.05096L1.85448 1.01297L1.92348 0.95697L1.97247 0.901978L1.98848 0.849976L2.16647 1.00098L2.52948 1.26898L2.55048 1.39996L2.51648 1.52597L2.61647 1.88797L2.80447 1.93997L2.99448 1.86996L3.04147 1.93698L3.00647 2.00397L2.90848 2.07898L2.88448 2.38998L3.19548 2.53497L3.35147 2.66196L3.86748 2.60196L4.05748 2.63596L4.18747 2.59897L4.04347 2.34897L3.85048 2.16397L3.86647 2.08096L4.01247 2.14297L4.12447 2.26898L4.37848 2.42496L4.84547 2.96698L5.38147 3.09796L5.80547 3.08096L6.20047 3.00797L6.82947 2.79797L7.28548 2.41797L7.64847 2.24896L8.82648 1.88797L9.24448 1.50998L9.42148 1.46097L9.58948 1.41397L9.95947 1.12796L10.1585 0.904968L10.3685 0.792969L10.9915 0.873962L11.3955 0.978973L11.6745 0.964966L11.9425 1.03998L12.0595 1.20197L12.1815 1.27097L12.8405 1.25296L13.3805 1.33298L14.5635 1.81296L15.2715 2.28796L15.6465 2.79196L16.5505 3.43997ZM2.91248 1.39996L2.88147 1.53198L2.66447 1.29498L2.79347 1.25598L2.83948 1.26096L2.91248 1.39996ZM12.2725 4.52197L12.2165 4.64096L12.0855 4.37497L12.1065 4.30698L12.0975 4.06696L12.2225 4.00397L12.3145 3.99896L12.3905 4.03296L12.4385 4.31598L12.3985 4.44397L12.2725 4.52197ZM11.8035 4.57898L11.6775 4.70398L11.6295 4.58597L11.7175 4.46298L11.7485 4.46198L11.8035 4.57898ZM4.68147 7.17197L4.52747 7.18698L4.21347 7.06598L3.98347 6.83298L3.96448 6.75797L3.96947 6.67996L4.09447 6.44196L4.26247 6.35995L4.32848 6.36096L4.48947 6.63596L4.38048 6.74197L4.42447 6.91196L4.65247 7.03796L4.68147 7.17197Z" fill="#CCCCCC" stroke="white" stroke-width="0.5"/>
</svg>
