<svg width="37" height="53" viewBox="0 0 37 53" fill="none" xmlns="http://www.w3.org/2000/svg">
<path d="M32.3407 12.4901L32.3237 12.6721L32.2337 12.7451L32.0957 12.7611L31.8837 12.6311L31.7287 12.6641L31.5737 12.6721L31.3557 12.5211L31.2807 12.3721L31.1097 12.2501L30.7557 12.2991L30.4637 12.3021L30.2197 12.2741L30.0007 12.3151L29.8147 12.4721L29.6757 12.6561L29.5127 12.8101L29.0337 12.9131L28.7787 12.9161L28.5497 13.0171L28.2087 13.0541L27.9757 13.1441L27.5627 13.1931L27.0677 13.2401L26.7917 13.3771L26.6817 13.4371L26.4007 13.6261L25.9117 13.9241L25.6417 14.0281L25.3157 14.3511L24.9247 14.6541L24.6707 14.8151L24.2977 14.8891L24.1427 14.9711L24.0857 15.0681L24.1187 15.1821L24.0547 15.4741L23.9407 16.0131L23.9097 16.2781L23.8817 16.4041L23.6347 16.8381L23.3687 17.2411L23.2377 17.5081L23.1647 17.7041L23.2467 17.8661L23.3547 18.1591L23.4457 18.3931L23.4717 18.5521L23.4397 18.7341L23.3277 18.9011L23.1507 19.0101L22.9127 19.0401L22.4227 19.3331L21.8767 19.7671L21.6977 19.9691L21.6467 20.1601L21.5677 20.4581L21.6007 20.6131L21.6977 20.7191L21.7957 20.9721L21.8037 21.1031L21.7227 21.1761L21.5677 21.1921L21.4287 21.2171L21.3227 21.2821L21.2167 21.2661L21.1197 21.2981V21.4051L21.1517 21.5271L21.1357 21.6581L21.0707 21.7391L21.0137 21.7961L21.0707 21.8781L21.1677 21.9521L21.3147 22.0741L21.5187 22.3111L21.6737 22.3521L21.8037 22.4341L21.8197 22.5641L21.7707 22.6951L21.6567 22.7521L21.6487 22.8671L21.8037 23.0061L21.9097 23.1041L22.0157 23.2511L22.1137 23.4561V23.5861L22.2197 23.7501L22.2847 23.8891V24.0201L22.4557 24.1501L22.6027 24.2491L22.7077 24.3391L22.8137 24.3961L22.8387 24.4941L22.8247 24.6431L22.9767 24.8891L23.2557 25.0731L23.4817 25.3401L23.6277 25.5341L23.8987 25.8461L23.9087 26.2041L23.5737 26.6151L23.2377 27.0271L23.7867 27.0161L24.3467 27.0241L24.9327 27.1421L25.3277 27.2551L25.5687 27.3061L25.7397 27.4381L25.8207 27.6431L25.8857 27.8111L25.9027 28.0531L26.1467 28.2501L26.1297 28.4381L26.1227 28.7031L26.2307 28.7071L26.9477 28.7081L27.7317 28.7091L28.4857 28.6601L28.7707 28.5961L29.1147 28.2741L29.3217 28.1791L29.5207 28.0291L29.7627 27.7551L29.9547 27.6321L30.1167 27.4801L30.3577 27.3281L30.4577 27.2161L30.5397 27.1751L30.7267 27.1011L30.6457 27.2491L30.5827 27.4001L30.5637 27.6181L30.6527 27.8561L30.5787 28.0341L30.4577 28.1931L30.4557 28.6121L30.4537 29.2061L30.4507 29.7151L30.4477 30.3531L30.4447 31.0761L30.4427 31.5571L30.5707 31.4621L30.7487 31.3771L30.9797 31.5981L31.1447 31.6941L31.2857 31.7171L31.4307 31.7101L31.6277 31.6631L32.0597 31.4781L32.3557 31.3291L32.6947 31.3391L33.1597 31.3971L33.4277 31.3911L33.7787 32.0071L34.0357 32.4591L34.3287 32.9741L34.5637 33.3891L34.9217 34.0191L35.2307 34.5641L35.5607 35.1451L35.9357 35.8061L35.8147 35.9741L35.7167 36.1081L35.7277 36.3351L35.5797 36.4561L35.4227 36.5291L35.2377 36.7211L35.1117 36.8861L35.1057 37.1231L35.1297 38.3251L35.0987 38.6521L35.0027 38.9331L34.9037 39.0751L34.8437 39.1871L34.9867 39.4661L35.1237 40.0281L35.2277 40.1401L35.3557 40.3691L35.4137 40.5861L35.3877 40.6691L35.1307 40.7721L35.0387 40.8601L35.0147 41.1831L34.9037 41.2991L34.7157 41.4511L34.5947 41.6251L34.4927 41.7461L34.3927 41.8161L34.3437 42.0291L34.2767 42.2451L34.0427 42.3881L34.0027 42.6531L33.9997 42.8721L34.1237 43.0911L34.5267 43.5521L34.5677 43.6621L34.3377 43.9401L34.2047 44.1331L33.8767 44.7231L33.8707 44.8311L33.9517 45.1101L34.4407 46.3061L34.5237 46.4031L34.6747 46.5171L34.9217 46.5041L35.2947 46.6331L35.4757 46.7811L35.4927 46.8541L35.4507 46.9031L35.2537 47.0021L35.0347 47.1321L34.9587 47.2551L34.9437 47.4501L34.9937 47.7391L34.8987 47.8331L34.6797 47.9451L34.4907 48.1071L34.3017 48.3761L33.9807 48.7861L33.8697 48.8981L33.8217 49.0401L33.6387 49.0871L33.2977 49.3661L33.2397 49.5071L33.2947 49.6411L33.4697 49.7541L33.5867 49.9171L33.6177 50.1261V50.2561V50.2601L33.4057 50.4561L33.1297 50.6812L32.7897 50.7251L32.6607 50.8381L32.6897 51.0771L32.7997 51.4141L32.7987 51.6781L32.6947 51.9801L32.4517 52.3111L32.0797 52.5391L31.7287 52.6611L31.4527 52.6621L31.1857 52.6861L31.0717 52.7211L30.8657 52.5211L29.9507 51.8601L29.6027 51.5071L29.2797 51.3421L28.4927 50.7761L28.4147 50.5951L28.3177 50.0141L28.2157 49.8511L27.9447 49.6411L27.2657 49.3621L27.0017 49.2231L26.7257 48.9691L26.3197 48.7891L25.8777 48.4201L25.6147 48.1261L25.3197 47.9311L24.4037 47.6591L23.9447 47.3861L23.0857 47.0011L22.7027 46.7561L21.7837 46.4581L21.5107 46.3161L20.6067 45.6191L19.9727 45.3911L19.4617 45.0001L17.9197 44.1691L17.6777 43.9031L17.4417 43.4931L17.0997 43.2491L16.7147 42.6881L16.1427 42.3581L15.5917 41.9211L15.3887 41.5241L15.0227 41.0191L14.9147 40.7501L14.5947 40.4801L14.5727 39.9491L14.3497 39.7051L14.5097 39.5841L14.6787 39.5311L14.8897 38.7061L14.7787 38.2931L14.2067 37.5441L13.9967 37.1851L13.8477 36.7251L13.6187 36.4521L13.2787 35.8771L13.0707 35.3681L12.6167 34.9991L12.4927 34.8661L12.4237 34.6781L12.1707 34.5451L12.1577 34.1551L11.9817 33.4151L11.7297 33.0421L10.8227 32.3461L10.8077 32.0781L10.7357 31.5911L10.5337 31.0641L9.5247 29.4301L9.27171 28.9441L9.0197 28.1551L8.79271 27.7081L8.54271 26.9121L8.16571 26.3071L7.9277 25.7831L7.6757 25.1321L7.65372 24.7841L7.19571 24.1861L6.95271 23.6381L6.52571 23.1791L6.1087 22.8301L5.9277 22.5831L5.33371 21.4111L5.25272 21.0641L4.84871 20.4201L4.44771 19.9581L4.19472 19.5851L3.87071 19.2501L1.90271 18.2191L1.20972 17.7911L0.975708 17.5871L0.867706 17.2661L0.912704 17.0781L1.11571 16.9021L1.39671 17.0381L1.56871 16.9811L1.70271 16.7521L1.7057 16.4051L1.53371 15.9581L0.90271 15.0951L0.950714 14.9121L1.06972 14.7051L0.826706 14.2901L0.561707 13.9571L0.428711 13.7021L0.578705 12.7311L0.722717 12.4851L1.67671 11.5001L1.93871 11.0791L2.34871 10.8191L2.76671 10.4221L3.26971 10.1201L3.34271 10.1721L3.4127 10.2231L3.41672 10.3251L3.43571 10.4131L3.49171 10.4961L3.4967 10.6481L3.56171 10.7501L3.5657 10.8651L3.57071 11.0221L3.5377 11.1011L3.56972 11.2371L3.6777 11.4891L3.63571 11.5671L3.53371 11.6181L3.43172 11.6881L3.32971 11.8451L3.1757 11.8401L2.9537 11.7711L2.8047 11.8581L2.74971 12.0251L2.79572 12.1641L2.80971 12.2931L2.90671 12.4041L3.18971 12.4131L2.93471 12.7691L2.80971 12.9311L2.83672 13.0331L2.98972 13.1201L3.10371 13.1261L3.3567 12.9961L3.52872 12.8061L3.62572 12.7001L3.78871 12.6581L4.00171 12.7461L4.28471 12.9221L4.61472 13.0771L4.74971 13.1621L4.99171 13.1381L5.19472 13.1021L5.36571 13.2301L5.53871 13.3381L5.5787 13.7051L5.7077 13.9731L5.86571 14.1791L6.05771 14.4251L6.23471 14.5081L6.46271 14.5101L6.77271 14.6011L6.89371 14.5411L6.99971 14.3691L7.05571 14.2721L7.21371 14.2301L7.22771 14.1201L7.19472 13.9851L7.2467 13.8281L7.37572 13.6891L7.7077 13.4871L7.86771 13.4021L7.90071 13.2781L7.96071 13.1111L7.93771 13.0191L7.87071 12.9041L7.8867 12.7411L7.97472 12.5241L8.09972 12.2701L8.2077 11.9461L8.2487 11.7941L8.36472 11.6971L8.40871 11.5571L8.47171 11.3921L8.61472 11.2071L8.6107 11.0081L8.67072 10.9201L8.6757 10.6981L8.81871 10.2421L8.82372 10.1471L8.8867 10.1221L8.99571 10.1511L9.08971 10.2551L9.1187 10.3571L9.1577 10.4031L9.24672 10.3941L9.34871 10.3361L9.34172 10.2441L9.26772 10.1541L9.24672 10.1001L9.2787 10.0151L9.4337 9.83011L9.60271 9.61511L9.96571 9.16812L10.1847 8.98611L10.7497 8.79312L11.1787 8.64612L11.5887 8.50613L12.1467 8.30511L12.9347 8.02112L13.4997 7.81711L14.0047 7.45312L14.3957 7.17111L14.7297 6.92813L15.1537 6.61813L15.7277 5.95013L16.1237 5.48914L16.4117 5.15213L16.6117 4.93912L16.7707 4.34012L16.9527 3.65714L17.0327 3.35312L17.0677 3.24713L17.1457 3.29211L17.2357 3.36612L17.3447 3.36911L17.4477 3.36612L17.5127 3.32413L17.4167 2.64212L17.4307 2.49313L17.4847 2.31512L17.4737 2.21912L17.2997 2.08313L17.0207 1.81012L16.9047 1.56711L16.8347 1.36313L16.6397 1.22812L16.4387 1.11011L16.4557 1.01312H16.5747L16.8767 1.10812L17.0947 1.07812L17.2567 1.06711L17.4147 0.967133L17.5827 0.787109H17.6957L17.8247 0.811127L18.0597 0.996124L18.1987 1.10513L18.3667 1.19513L18.5247 1.22711L18.6687 1.23712L18.7697 1.22913L18.8287 1.35211L18.8987 1.50311L19.0777 1.60513L19.2897 1.70212L19.4607 1.86911L19.5767 1.98111L19.7137 2.11313L19.8467 2.28912L19.9667 2.59811L20.0277 2.80814L20.0967 2.92413L20.0807 3.04211L20.2227 3.25711L20.3277 3.37613L20.5117 3.45212L20.8667 3.53812L21.0567 3.73212L21.2247 3.80713L21.4027 4.00711L21.5607 4.06613L21.7607 4.05511L21.9607 4.15213L22.1127 4.34113L22.2107 4.57812L22.3627 4.71213L22.4377 4.95511L22.3517 5.24011L22.4327 5.39111L22.5897 5.51514L22.8447 5.64413L23.0777 5.61212L23.1967 5.65512L23.2727 5.77313L23.3157 5.91412L23.4177 6.25613L23.4707 6.47311L23.3757 6.68314L23.3407 6.82913L23.3927 7.02313L23.6347 7.11813L23.8547 7.19513L23.9907 7.34613L24.1427 7.38712L24.3557 7.37811L24.6277 7.34113L24.7797 7.25412L24.8767 7.22812L24.9857 7.26611L25.2277 7.34912L25.5217 7.44312L25.7887 7.38913L26.0197 7.36414L26.2487 7.30911L26.4807 7.15213L26.6767 7.15811L26.8217 7.05212L27.0047 6.88211L27.1857 6.71112L27.3267 6.67313L27.5547 6.75513L27.8687 6.87311L28.0467 7.02612L28.1827 7.06613L28.3247 7.17911L28.5967 7.18112L28.8877 7.12012L29.1207 6.93213L29.3617 6.87714L29.5267 6.82413L29.6787 6.85611L30.2657 7.20111L30.4267 7.37912L30.6287 7.41412L30.7947 7.51111L31.0717 7.61612L31.2237 7.72412L31.4177 7.78912L31.5597 7.93912L31.7827 8.03214L31.9767 8.08313L32.0637 8.20511V8.28613L32.0377 8.34012L31.8327 8.65811L31.4307 9.28113L31.0687 9.84213L30.4997 10.7261L30.1827 11.2201L30.2637 11.2411L30.7587 11.4571L30.8817 11.4651L31.0627 11.4101L31.1807 11.3241L31.2917 11.3121L31.4077 11.3951L31.5707 11.5021L31.6877 11.8171L31.7747 11.9711L31.9787 12.0881L32.1967 12.2831L32.3407 12.4901Z" fill="#CCCCCC" stroke="white" stroke-width="0.5"/>
</svg>
