<svg width="44" height="30" viewBox="0 0 44 30" fill="none" xmlns="http://www.w3.org/2000/svg">
<path d="M36.5973 28.8809L37.0663 29.0298L37.2253 29.1949L37.0563 29.2698L36.6463 29.3209L36.5503 29.2198L36.1563 29.1179L36.0933 28.9338L35.8973 28.9969L35.9973 28.8679L35.7503 28.7218L35.6733 28.5269L35.6633 28.4478L35.9533 28.5388L36.5973 28.8809ZM38.6873 28.5548L38.6463 28.7098L38.5433 28.6578L38.2383 28.7379L38.0783 28.7198L37.9863 28.5808L37.9643 28.5168L38.2293 28.5668L38.1853 28.4128L38.5673 28.4919L38.6873 28.5548ZM29.1953 26.2939L29.1553 26.5158L28.9253 26.4499L28.8783 26.4019L28.9163 26.2618L29.1203 26.2559L29.1953 26.2939ZM29.7063 24.7488H29.8253L30.0243 24.5378L30.1973 24.4738L30.3103 24.5699L30.1263 25.2438L29.9713 25.1418L29.3643 24.9539L29.3453 24.6869L29.1873 24.6009L29.0893 24.3409L28.8883 24.0529L28.8503 23.8679L28.9643 23.9438L29.0923 24.1318L29.6233 24.5179L29.6023 24.6429L29.7063 24.7488ZM28.1553 22.8438L28.5513 23.0749L28.7683 23.0078L28.8863 23.0458L29.1403 23.3138L29.1543 23.5099L29.1953 23.6779L29.1823 23.7519L29.0413 23.8518L29.0543 23.7379L28.9463 23.7159L28.5773 23.7209L28.2913 23.6498L27.8973 23.6309L28.0633 23.4529L28.1003 23.3799L27.8933 23.0938L27.8843 22.9579L27.9013 22.8828L28.0743 22.8419L28.1553 22.8438ZM27.6423 23.2599L27.6033 23.3298L27.4393 23.2788L26.9813 22.8878L27.0523 22.5978L27.2583 22.4478L27.5713 22.6118L27.6753 22.8518L27.7063 22.9858L27.6423 23.2599ZM34.0573 21.7498L34.2203 21.7918L34.5593 21.7708L34.6713 21.9329L34.8263 21.9889L34.9603 22.0619L35.0793 22.1678L35.0783 22.2328L35.0503 22.2888L34.9783 22.3398L34.9993 22.4539L34.8753 22.4369L34.7213 22.4969L34.4173 22.3639L34.3073 22.3339L34.2743 22.2198L34.0773 22.0288L33.7323 21.8918L33.9063 21.7798L34.0573 21.7498ZM8.68433 20.8308L8.73529 20.9548L8.32733 20.7859L7.93732 20.5028L7.7403 20.4258L7.60828 20.2389L7.85028 20.3778L8.27228 20.5078L8.68433 20.8308ZM29.7793 21.1129L29.8273 21.3148L29.6083 21.0988L29.7063 20.8549L29.7233 20.7228L29.7123 20.6488L29.4933 20.5229L29.6093 20.3168L29.7323 20.2469L29.8093 20.2268L29.8053 20.5179L29.8683 20.6479L29.7793 21.1129ZM8.67432 20.4029L8.55231 20.4118L8.05731 20.2209L7.93134 20.0818L8.51031 20.1129L8.6593 20.1479L8.69031 20.3428L8.67432 20.4029ZM21.1323 12.9409L21.0193 12.9619L20.9703 12.8348L20.7073 12.7249L20.4453 12.3828L20.4493 12.0898L20.4833 12.0059L20.6293 12.0019L21.2133 12.3398L21.2743 12.4478L21.2303 12.7689L21.1323 12.9409ZM43.3933 15.3539L43.3253 15.6169L43.2733 15.6618L43.2093 15.5628L42.9653 15.6588L42.8493 15.7679L42.7253 15.8478L42.4393 15.8279L42.1683 15.7559L41.9053 15.6228L41.6723 15.4518L41.4383 15.1829L41.2923 14.9048L41.3643 14.5818L41.2733 14.2899L40.8313 14.0829L40.7343 14.0158L40.5383 13.7259L40.3433 13.5999L40.0943 13.3459L40.0313 13.2358L39.9253 12.9138L39.8913 12.7198L39.9813 12.1548L39.9483 11.8728L40.0693 11.8998L40.1983 12.0108L40.3443 12.0879L40.6993 12.1399L40.9703 12.3648L41.2313 12.8038L41.2623 12.9478L41.3453 13.0518L41.6133 13.2389L41.7533 13.3589L42.0183 13.8379L42.1643 13.9398L42.3383 13.9808L42.4993 14.0498L42.7683 14.2599L43.0163 14.4978L43.1833 14.7478L43.3113 15.0158L43.3933 15.3539ZM18.7483 11.8358L18.5913 11.8518L18.3353 11.5858L18.2703 11.4868L18.2953 11.3478L18.6213 11.1618L18.8323 11.3318L18.8763 11.6959L18.7483 11.8358ZM39.7153 11.8379L39.6593 11.8598L39.5373 11.5059L39.5163 11.2438L39.4793 11.0508L39.4153 10.9359L39.5993 10.7238L39.6753 10.6649L39.8143 10.7769L39.8353 11.0258L39.9413 11.2368L39.8603 11.6978L39.7153 11.8379ZM15.5013 9.86084L15.3133 9.94385L15.1783 9.88086L15.1203 9.69684L15.1663 9.51984L15.3313 9.37985L15.4353 9.33786L15.5523 9.43286L15.5973 9.62085L15.5013 9.86084ZM32.0493 8.65985L32.1953 8.71585L32.6153 8.42386L32.8403 8.62784L33.1273 8.72684L33.4253 8.78284L33.3073 9.20285L33.3423 9.39685L33.4193 9.58984L33.4093 9.87485L33.2723 10.1288L33.0093 10.4998L32.8913 10.5678L32.7533 10.6078L32.3233 10.6378L32.2403 10.8348L32.2683 11.0439L32.5003 11.3178L32.6863 11.6259L32.5013 11.9088L32.1963 12.1068L31.9073 12.2079L31.4283 12.1479L30.9233 12.1729L30.8283 12.2809L30.8263 12.4598L30.7553 12.5959L30.6633 12.7198L30.4073 12.9768L30.1203 13.2039L29.7293 13.4189L29.5983 13.4698L29.2513 13.5038L28.9403 13.6278L28.8013 13.7488L28.6503 13.8468L28.3203 13.9539L27.9993 14.1658L27.8723 14.2018L27.2053 14.2389L26.2513 14.2488L25.9693 14.2708L25.6953 14.2419L25.5443 14.1588L25.2203 13.7779L24.9383 13.6469L24.6303 13.6508L24.2203 13.7859L24.1433 13.7559L23.3253 13.1928L23.0773 13.0548L22.8123 12.9529L22.4893 12.8809L22.1843 12.7679L22.0043 12.4998L22.0253 12.1508L22.2703 11.9459L22.6433 12.0468L22.7863 12.0458L22.9263 11.9879L23.0913 12.0068L23.2573 12.0579L23.8623 11.9818L24.2123 12.0879L24.5533 12.2299L24.8713 12.2599L25.1983 12.2299L25.6363 12.0699L25.7753 12.0909L26.1973 12.0919L26.5663 11.8778L26.7043 11.0149L26.7983 10.7209L26.9243 10.6569L27.0143 10.6748L27.1493 10.8218L26.9763 11.0049L26.9003 11.1458L26.8753 11.4898L26.9703 11.8239L27.1863 12.0888L27.5103 12.1228L27.8073 11.9478L28.1303 11.9109L28.4283 12.0808L28.7343 12.0518L28.8743 11.9409L29.0373 11.8929L29.1993 11.8748L29.3463 11.8088L29.5413 11.5198L29.6713 11.1949L29.8653 10.9388L30.3943 10.5118L30.5473 10.4589L30.7123 10.4298L31.0843 10.4489L31.3613 10.2968L31.3823 9.95483L31.3423 9.60785L31.0263 8.79285L31.0053 8.66385L31.0503 8.51886L31.1423 8.38885L31.4533 8.38684L31.7773 8.43384L31.9053 8.55685L32.0493 8.65985ZM36.9423 8.10785L36.9173 8.17386L36.7523 8.09784L36.8883 7.95483L36.9533 7.94485L36.9423 8.10785ZM34.1683 5.40985L34.1003 5.65485L33.9283 5.51083L33.8113 5.30383L33.8853 5.21185L34.0783 5.15686L34.1683 5.40985ZM32.5643 4.89084L32.5343 5.03186L32.4463 5.02383L32.2053 4.74783L32.1583 4.67584L32.2153 4.60684L32.4953 4.80984L32.5643 4.89084ZM32.1663 4.56284H32.0993L32.0893 4.33984L32.1353 4.22284L32.2913 4.30484L32.3173 4.50385L32.1663 4.56284ZM10.1763 7.31384L10.5303 7.32184L10.8853 7.27884L11.0313 7.29785L11.1753 7.34186L11.3063 7.42584L11.3723 7.58685L11.5933 7.81085L11.9053 7.91183L12.2023 8.11484L12.4693 8.35684L12.6653 8.60086L12.8883 8.80685L13.2253 8.89386L13.5803 8.90784L14.7943 10.1328L14.8533 10.3218L14.8673 11.1259L14.7333 11.7538L15.0353 11.9468L15.4473 12.0189L16.0253 12.1529L16.5813 12.3528L18.3523 13.2008L18.5953 13.2729L18.9523 13.3008L19.3123 13.2888L19.4413 13.3318L19.7113 13.4858L19.8463 13.5869L20.0883 13.8608L20.3043 14.1588L20.3973 14.2438L20.5063 14.3098L20.5693 14.4718L20.6533 14.9718L20.6283 15.2838L20.5293 15.3998L20.2463 15.4558L19.2543 15.5089L18.5903 15.4508L18.1253 15.7658L18.1123 15.9038L18.1453 16.0319L18.5493 16.7008L18.7873 17.2949L18.9843 17.5359L19.2793 17.7318L19.5423 17.9638L19.7843 18.2308L20.2873 18.6959L20.5603 18.8688L20.8813 18.9749L21.4153 19.3358L21.4863 19.4948L21.6383 19.9969L21.7043 20.3379L21.7143 20.4789L21.7523 20.6049L22.2223 20.9149L22.3263 21.0009L22.5353 21.6888L22.6963 22.0089L22.9673 22.1219L23.2823 22.1148L24.1393 21.9099L24.2633 21.9029L24.4223 21.9499L24.5613 22.0619L24.6073 22.3719L24.4723 22.6978L24.4353 23.0108L24.6043 23.2679L25.0413 23.4678L25.2013 23.5229L25.9873 23.5869L26.2963 23.6408L26.5993 23.7278L26.7033 23.8058L26.6303 23.9438L26.4723 24.0118L26.2923 24.0388L26.0033 24.1389L26.0083 24.3168L26.1713 24.5019L26.3203 24.7249L26.4453 24.8058L26.5813 24.8608L26.9213 24.9378L27.2523 25.0439L27.4703 25.1488L27.6953 25.2249L28.1853 25.2729L28.5453 25.4158L29.0573 25.3558L28.6143 25.5879L28.4613 25.6448L27.9263 25.5579L27.8253 25.6479L28.0463 25.8939L28.3733 26.0588L28.4903 26.1548L28.4083 26.2668L28.0273 26.4919L27.8683 26.5248L27.5713 26.5428L27.0733 26.4459L26.7203 26.3218L26.6213 26.1529L26.5273 26.0538L26.2093 25.8159L25.9823 25.6859L25.6943 25.6418L25.3933 25.6439L24.8553 25.5059L23.6883 25.4078L23.4103 25.3478L23.0603 25.1578L22.8953 25.1309L22.7183 25.1909L22.2673 25.2278L22.1353 25.2108L21.8133 25.0489L21.4823 24.9889L21.3433 25.0378L21.2033 25.0489L20.7503 24.9329L20.4093 24.8839L20.1293 24.7218L19.9773 24.5709L19.8053 24.4369L19.6463 24.0919L19.3993 23.7649L19.0913 23.4958L18.4333 23.0619L18.3013 22.9539L18.0433 22.5569L18.0573 22.2928L18.1513 22.0269L18.0093 22.1179L17.8493 22.1058L17.4013 21.9298L17.2163 21.7209L16.9173 21.1529L16.7263 20.8528L16.2793 20.3228L16.1503 20.0089L15.9623 19.7339L15.8473 19.6318L15.7513 19.5139L15.6663 19.3608L15.5393 19.2549L14.9153 19.0198L14.8063 18.9459L14.6853 18.9069L14.2213 18.8828L13.9523 18.8438L13.4463 18.6508L13.1843 18.5928L12.8703 18.5558L12.5653 18.4828L12.4173 18.4109L12.3173 18.2899L12.2583 18.0028L12.0023 18.0338L11.7523 17.9839L11.5103 17.8828L11.2633 17.8218L11.0943 17.9088L11.0423 18.1378L10.9643 18.1498L10.8193 18.1028L10.7473 18.1309L10.5903 18.2358L10.4653 18.3788L10.2333 18.3568L9.7583 18.2129L9.54633 18.1228L9.36633 17.9598L9.21228 17.7748L9.05634 17.6288L8.86432 17.5229L9.10828 17.7748L9.67133 18.8839L9.53033 18.9048L9.38531 18.8769L9.51831 19.0898L9.3653 19.1219L9.21332 19.1198L8.89331 19.0279L8.57532 18.9969L8.48132 19.0418L8.54828 19.1219L8.66028 19.3578L8.74933 19.6049L8.28931 19.7159L7.81732 19.7838L7.2923 19.9168L6.76129 19.9258L6.48932 19.8499L6.21033 19.8069L5.94629 19.8499L5.69128 19.9468L5.47632 19.9308L5.34033 19.7568L5.27728 19.6259L5.19629 19.5118L4.9953 19.5298L4.80133 19.5919L5.1333 19.5988L5.23328 19.7448L5.31927 19.9208L5.55432 20.0808L5.83728 19.9858L6.46033 20.0118L7.06531 20.2908L7.20929 20.3228L7.34131 20.3778L7.65332 20.6529L7.88831 20.9029L8.0863 21.1888L8.1283 21.3008L8.11432 21.6009L8.05432 21.7498L7.66333 21.9608L7.24628 22.1208L6.63129 22.4319L6.03632 22.7859L5.72333 22.7169L5.44128 22.5288L5.33228 22.4778L5.04132 22.3759L4.86432 22.3388L4.16028 22.4189L3.45532 22.4598L3.15729 22.4568L2.86932 22.3969L2.55231 22.2859L2.23828 22.3348L2.02332 22.4648L1.78833 22.4848L1.34833 22.1949L1.34729 22.1578V21.5839V21.0108V20.4378L1.34631 19.8648V19.2918V18.7198V18.1479V17.5758L1.34528 17.0038V16.4329V15.9629L1.18933 15.7798L1.0293 15.4988L1.06329 15.1378L1.25732 14.6918L1.3443 14.3939V14.1508V13.5808V13.0108L1.34332 12.4409V11.8719V11.3029V10.7339V10.1649L1.34229 9.59586V9.02786V8.45984V7.89185V7.32385L1.34131 6.75586V6.18784V5.61984L1.34033 5.05286V4.48584V4.14386V3.95584V3.94485L1.42432 3.94586L1.70831 3.94885L1.93628 3.99484L3.34229 4.60086L3.76233 4.84384L3.90631 4.90085L4.0473 4.90286L4.18231 4.93085L4.81628 5.26584L5.76331 5.60385L6.76331 5.92786L7.0733 5.99585L7.39429 6.02383L8.09033 6.13583L8.45728 6.23584L8.99432 6.63284L9.26532 6.75586L9.51929 6.97986L9.8783 7.22086L10.0203 7.28186L10.1763 7.31384ZM34.9963 9.94485L34.7883 10.1578L34.6593 9.95886L34.4933 9.78485L34.3623 9.60684L34.1953 9.22284L34.1873 9.02985L34.2313 8.82486L34.2413 8.61786L34.1613 8.19785L33.9653 7.81485L33.2843 6.90186L33.0703 6.66284L32.8253 6.44885L32.6683 6.39685L32.3513 6.34586L32.2103 6.30286L31.9483 6.15384L31.7053 5.98083L31.1023 5.46585L30.7843 5.31985L30.6163 5.13986L29.6673 4.55984L29.3903 4.42285H29.0523L28.7673 4.30884L28.9933 4.23685L29.0403 4.04285L28.9903 3.84586L29.4673 4.16785L29.9703 4.44885L30.1163 4.67584L30.3643 4.68985L30.8153 4.87784L31.1253 5.04684L31.4173 5.24185L31.7463 5.52084L32.3803 5.73984L32.4703 5.81985L32.7913 6.18384L33.2123 6.49286L33.3563 6.66284L35.1413 8.12585L35.4433 8.53586L35.4663 8.81586L35.4073 8.92584L35.2193 9.16284L35.2223 9.44284L35.1593 9.69385L34.9963 9.94485ZM27.8983 4.09283L27.3383 4.13086L27.1373 4.08884L26.9573 3.92786L26.7943 3.67685L26.6303 3.61786L26.5643 3.56885L26.9603 3.37686L27.3113 3.31885L27.8783 3.55884L27.9363 3.67883L27.9413 3.75684L27.9253 4.01184L27.8983 4.09283ZM20.7143 3.03683L20.6233 3.18384L20.4113 3.17084L20.3173 3.12784L20.4703 3.09985L20.5323 2.97885L20.5983 2.93585L20.7143 3.03683ZM18.4423 2.13583L19.3783 2.31683L19.4403 2.31485L19.4293 2.24985L19.4453 2.23184L19.5013 2.27884L19.4833 2.41086L19.3363 2.44385L19.1983 2.43085L19.1003 2.49985L18.8323 2.75485L18.6523 2.71286L18.4323 2.76984L18.0463 2.77484L17.5453 2.66284L17.4073 2.75784L17.2293 2.73184L17.0523 2.83585L16.9793 2.83084L16.9363 2.67883L16.9393 2.60086L17.1493 2.53586L17.1183 2.29684L17.2873 2.17685L17.5793 2.18686L17.8513 2.10583L18.4423 2.13583ZM26.0153 0.999847L26.0083 1.10086L25.8063 1.04984L25.7503 1.06586L25.3983 0.773834L25.4043 0.595856L25.4973 0.443848L25.6433 0.467834L25.9023 0.658844L26.0153 0.999847Z" fill="#CCCCCC" stroke="white" stroke-width="0.5"/>
</svg>
