<svg width="29" height="47" viewBox="0 0 29 47" fill="none" xmlns="http://www.w3.org/2000/svg">
<path d="M14.7487 1.40601L14.6127 1.64899L14.5037 1.647L14.5197 1.51099L14.6647 1.229L14.7187 1.23499L14.7487 1.40601ZM14.9787 2.646L14.9267 2.68201L14.8497 2.66501L14.9257 2.384L15.0667 2.30701L15.1787 2.33701L14.9787 2.646ZM13.7457 5.62399L13.7747 5.892L13.6087 5.88599L13.3587 5.72299L13.3357 5.64001L13.3397 5.57101L13.3837 5.51199L13.7457 5.62399ZM12.9917 6.44901L12.9757 6.64801L12.8337 6.543L12.8027 6.39401L12.8167 6.28299L12.8817 6.151L12.9707 6.271L12.9917 6.44901ZM14.8707 7.00299L14.6927 7.215L14.5997 7.15601L14.6997 6.95001L14.6967 6.87799L14.7787 6.71701L14.9307 6.66101L15.0557 6.82001L14.8707 7.00299ZM12.5687 7.82599L12.9987 7.979L13.9487 8.52899L14.2957 8.66501L14.6577 8.767L14.9427 8.797L15.1987 8.67099L15.3057 8.543L15.5017 8.20499L15.7107 8.16299L15.8347 8.28601L15.9317 8.45099L15.9747 8.69299L15.9147 8.94601L15.7157 9.173L15.5937 9.44501L15.5137 10.347L15.5177 10.617L15.5817 10.877L15.7547 11.289L15.8447 11.405L16.1067 11.552L16.1777 11.663L16.1927 11.863L16.2337 12.039L16.4037 12.106L16.5477 12.194L16.4937 12.389L16.4037 12.587L16.2857 13.075L15.7237 14.203L15.6917 14.446L15.4697 14.93L15.0187 15.008L14.4977 15.242L14.2077 15.424L13.9547 15.66L13.8587 15.969L13.9407 16.11L13.9937 16.261L13.9877 16.424L13.9097 16.559L13.6587 16.888L13.5527 17.157L13.4407 17.278L13.3857 17.424L13.4047 17.591L13.5057 17.737L13.8117 18.364L14.1397 18.969L14.2097 19.039L14.2367 19.12L14.0437 19.28L14.0477 19.57L14.1057 19.858L14.3957 20.57L14.4367 20.76L14.5327 20.916L14.6807 21.062L14.8437 21.185L15.3157 21.395L15.4977 21.437L15.6867 21.444L15.7337 21.302L15.8987 21.254L15.8627 21.115L15.6607 20.922L15.6527 20.818L15.7587 20.74L15.8847 20.695L16.1687 20.485L16.4697 20.317L16.8527 20.331L17.2277 20.425L17.4947 20.523L17.7147 20.703L17.9407 21.015L18.0987 21.36L18.0977 21.524L18.0597 21.689L18.0677 21.852L18.1857 21.963L18.5487 21.971L18.7337 21.715L18.7567 21.427L18.6267 21.316L18.6867 21.174L18.7977 21.068L18.9587 21.163L19.1117 21.342L19.6747 21.537L19.8187 21.541L19.9357 21.578L20.1877 21.713L20.3057 21.821L20.1607 22.045L19.6017 22.095L19.4397 22.263L19.6047 22.6L19.8727 22.877L20.0447 23.101L20.1967 23.342L20.1897 23.565L20.1007 23.797L20.3467 23.779L20.5777 23.828L20.8977 24.022L20.9977 24.042L21.1037 24.011L21.0887 24.711L20.8707 25.352L20.5957 25.272L20.3607 25.001L20.4087 24.671L20.5587 24.352L20.4727 24.285L20.3217 24.311L20.1487 24.383L19.9617 24.408L19.6547 24.366L19.0247 24.019L18.7687 23.987L18.7107 23.83L18.7247 23.497L18.4737 23.101L18.4337 22.959L18.3537 22.848L17.6047 22.417L17.5127 22.344L17.2827 22L16.7607 21.51L16.6147 21.46L16.4557 21.446L16.4037 21.57L16.4757 21.761L16.5047 21.925L16.4937 22.097L16.5147 22.23L16.7617 22.502L16.7987 22.63L16.9637 22.979L16.9837 23.387L16.7727 23.556L16.5357 23.368L16.5277 23.214L16.4867 23.071L16.2317 22.7L16.1457 22.62L15.6657 22.254L15.2937 21.852L14.4667 21.423L14.3677 21.4L14.2237 21.432L14.0887 21.485L13.6887 21.697L13.5477 21.844L13.5347 22.071L13.2477 22.251L12.8527 22.276L12.5497 22.163L12.2987 21.937L12.0917 21.926L11.8347 21.573L11.5217 21.528L11.2627 21.804L11.2077 21.256L11.2057 20.702L11.2777 20.54L11.4067 20.405L12.0617 19.823L12.1447 19.636L12.1167 19.386L11.9677 19.182L11.7327 19.058L11.4617 19.006L11.2667 18.892L11.1137 18.704L11.0097 19.037L11.1107 19.531L11.1277 19.852L11.0347 19.973L10.8667 19.976L10.7067 19.938L10.5877 19.823L10.5007 19.491L10.2717 19.272L10.1787 18.958L10.0747 18.913L9.86169 18.937L9.70471 18.791L9.60071 18.424L9.57867 18.03L9.48969 17.698L9.36169 17.377L9.28668 17.115L9.17169 15.937L9.14368 15.829L9.08167 15.74L8.93671 15.606L8.8277 15.442L8.8067 15.307L8.83667 14.726L8.88672 14.586L8.99969 14.519L9.15472 14.633L9.27869 14.774L9.43268 14.842L9.56866 14.931L9.82269 15.275L9.92267 15.329L10.2357 15.318L10.4207 15.275L10.5097 15.15L10.5667 15.001L10.5677 14.825L10.3867 14.305L10.3317 13.93L10.3287 13.592L10.3757 13.253L10.6227 12.689L10.6537 12.297L10.6307 11.772L10.6737 11.459L10.6667 11.279L10.5197 10.996L10.4807 10.694L10.8927 9.15701L11.0217 8.85901L11.1157 8.55099L11.1587 8.142L11.4667 8.03L11.7597 7.86099L11.9107 7.87399L12.0717 7.91501L12.4257 7.83099L12.5687 7.82599ZM15.1857 18.348L15.2367 18.449L15.1797 18.444L15.1397 18.463L15.0077 18.671L15.1517 19.056L15.0627 19.336L14.9027 19.354L14.8397 19.324L14.8727 19.185L14.9067 19.122L14.8747 18.939L14.7797 18.824L14.7037 18.601L14.5867 18.467L14.6417 18.252L15.0117 18.228L15.1857 18.348ZM15.5827 21.103L15.5737 21.22L14.9687 20.794L14.9407 20.721L14.9397 20.653L14.9767 20.585L15.5827 21.103ZM21.6957 22.299L21.6217 22.485L21.5297 22.419L21.3997 22.43L21.1957 22.588L20.8637 22.376L20.8127 22.21L21.0497 21.845L21.0477 21.302L21.1347 21.168L21.2257 21.072L21.3337 21.02L21.5677 21.395L21.6477 21.441L21.8737 21.613L21.8147 21.96L21.8357 22.163L21.6957 22.299ZM10.2387 21.959L10.2427 22.153L9.76971 21.867L9.75568 21.768L9.7677 21.694L9.81671 21.65L10.0707 21.757L10.2387 21.959ZM14.8517 22.563L15.0257 22.571L15.0797 22.544L15.4127 22.784L15.3927 22.906L15.4347 23.066L15.2447 23.342L15.2107 23.435L15.1057 23.525L14.7447 23.305L14.6127 23.171L14.5737 22.897L14.7177 22.49L14.8517 22.563ZM11.4547 22.737L11.5977 22.761L12.0467 22.675L12.2307 22.718L12.3537 22.883L12.5067 22.934L12.6277 23.018L12.8537 22.872L13.0827 23.039L13.2857 23.351L13.5247 23.572L13.7517 23.736L13.7957 23.857L13.6587 24.056L13.6167 24.307L13.6307 24.578L13.8017 25.147L13.7417 25.301L13.5697 25.519L13.4407 25.761L13.4577 25.859L13.4067 25.939L13.3907 26.11L13.2857 26.074L13.1887 26.101L13.0947 26.178L12.9487 26.343L12.7197 26.293L12.6127 26.244L12.5867 26.101L12.5187 26L12.4207 25.94L12.1797 25.693L12.0667 25.507L12.0647 25.309L12.0017 25.124L11.8767 24.959L11.7117 24.832L11.6567 24.71L11.6357 24.566L11.6207 24.197L11.3877 23.737L11.3057 23.627L11.0867 23.513L10.9037 23.366L10.8267 23.22L10.7557 22.984L10.7067 22.95L10.5647 22.961L10.4267 22.93L10.4667 22.757L10.6037 22.631L10.7917 22.615L11.3117 22.686L11.4547 22.737ZM18.6877 24.53L18.9267 24.967L18.6657 24.669L18.3627 24.466L18.0487 24.13L17.8217 24.012L17.7527 23.944L17.7767 23.805L17.9437 23.779L18.0177 23.787L18.4747 24.382L18.6877 24.53ZM20.0737 25.672L20.0837 25.922L19.9787 25.83L19.6397 25.339L19.5457 25.16L19.6417 25.041L19.8867 25.224L20.0737 25.672ZM15.3547 25.955L15.1287 26.666L14.9787 26.421L15.0397 26.267L14.9097 26.139L14.8757 26.022L14.9257 25.868L15.0617 25.725L15.0957 25.259L15.3827 25.11L15.4977 25.104L15.4567 25.218L15.4607 25.433L15.3547 25.955ZM15.9627 25.458L15.8757 25.545L15.8227 25.531L15.7867 25.377L15.8707 25.274L15.8977 25.284L15.9627 25.458ZM19.9077 26.148L20.4457 26.485L20.8167 27.062L20.8597 27.504L20.8317 27.672L20.6547 27.483L20.2757 27.213L20.0127 27.153L19.9317 27.104L19.9617 26.958L19.7897 26.823L19.7697 26.768L19.6137 26.708L19.3857 26.405L19.2247 26.348L19.0717 26.412L18.7177 26.862L18.3387 27.178L18.3337 27.057L18.4867 26.662L18.5847 26.03L18.6467 25.838L18.5697 25.554L18.5597 25.301L18.8427 25.418L19.1967 25.536L19.4667 25.697L19.5107 25.805L19.9077 26.148ZM24.1827 25.461L24.3807 25.694L24.4297 25.862L24.4087 26.049L24.4987 26.132L24.6577 26.154L24.8607 26.248L25.0127 26.421L24.9217 26.579L24.9497 26.81L24.7907 27.101L24.8117 27.617L24.9037 27.782L24.9127 27.948L24.8897 28.122L24.9287 28.265L25.1737 28.737L25.2187 28.894L25.1437 29.018L25.1197 29.136L25.2707 29.148L25.4857 29.344L25.6127 29.603L25.5747 29.671L25.4027 29.468L25.2727 29.436L24.7217 29.491L24.3837 29.407L24.1647 29.399L23.9457 29.052L23.7557 28.994L23.6057 28.841L23.3557 28.448L23.2767 28.223L23.4507 27.995L23.5057 27.813L23.4957 27.635L23.3297 27.664L23.1847 27.605L23.0077 27.386L22.9367 27.26L22.8077 27.155L22.6027 26.905L22.3077 26.807L22.1877 26.739L21.9547 26.529L21.7837 26.269L21.6177 25.813L21.5307 25.34L22.2917 25.463L23.0617 25.439L23.9317 25.331L24.1827 25.461ZM16.9277 26.086L16.7837 26.153L16.4917 25.873L16.3217 25.742L16.2777 25.669L16.4147 25.564L16.7847 25.565L16.9807 25.757L17.0077 25.877L16.9277 26.086ZM9.75867 26.489L9.91168 26.532L10.0207 26.49L10.1177 26.339L10.2087 26.562L10.4367 26.745L10.3607 26.931L10.1617 26.952L9.96667 26.91L9.7597 26.984L9.50867 26.942L9.3587 26.768L9.18768 26.455L9.10272 26.397L9.11371 26.269L9.1767 26.188L9.14368 26.167L9.15967 26.11L9.19067 26.071L9.24567 26.055L9.3797 26.194L9.69769 26.401L9.75867 26.489ZM9.58667 27.813L9.37671 27.91L9.32269 27.849L9.28571 27.708L9.2887 27.611L9.08771 27.099L9.2417 27.021L9.35571 27.081L9.4707 27.162L9.5777 27.204L9.67572 27.366L9.65271 27.478L9.68268 27.586L9.58667 27.813ZM16.4827 28.064L16.8097 28.209L17.1277 28.084L17.4417 28.119L17.7027 28.308L17.6177 28.428L17.5997 28.559L18.1837 28.274L18.3397 28.291L18.3347 28.556L18.2997 28.781L18.2317 28.999L18.1077 29.254L17.9417 29.483L17.7237 29.649L17.4647 29.75L17.3417 29.842L17.3047 29.981L17.3097 30.155L17.2497 30.314L16.9787 30.379L16.5547 30.688L15.6437 30.884L15.3937 31.019L15.2347 31.193L15.0567 31.351L14.9597 31.39L14.9157 31.315L14.9027 31.251L15.0327 30.84L15.0117 30.669L14.9487 30.503L14.9887 30.178L15.1467 29.873L15.2307 29.537L15.2557 28.889L15.3787 27.986L15.3717 27.878L15.2757 27.756L14.9217 27.657L14.7817 27.564L14.8517 27.383L14.9857 27.26L15.1697 27.265L15.3317 27.38L15.9037 27.617L16.2077 27.816L16.4827 28.064ZM23.1017 28.122L23.0497 28.268L22.9677 28.227L22.8967 28.161L22.7917 27.94L22.7557 27.778L22.9177 27.869L23.0107 28.03L23.1017 28.122ZM22.4107 28.414L22.0597 28.432L21.9067 28.302L21.7157 27.92L21.9317 27.837L22.1377 27.859L22.2887 27.994L22.4497 28.25L22.4107 28.414ZM22.3157 28.838L22.5107 28.938L22.7357 28.898L23.0077 28.672L23.3137 28.754L23.4927 29.087L23.5847 29.212L23.6347 29.429L23.6217 29.95L23.5477 30.422L23.6057 30.519L23.7467 30.604L23.8687 30.708L23.9717 30.842L24.0377 30.991L24.0637 31.353L24.2407 31.658L24.2637 31.777L24.2217 31.902L23.9267 31.878L23.9037 31.983L23.9107 32.113L23.8067 32.031L23.6337 31.733L23.4757 31.608L23.5247 32.091L23.5767 32.322L23.5857 32.555L23.3127 32.377L22.9867 32.267L22.8967 32.172L22.9267 31.87L22.9207 31.72L22.7747 31.402L22.9457 30.714L22.9417 30.573L22.9127 30.432L22.7777 30.153L22.5637 29.919H22.4327L22.1157 30.083L21.9547 30.029L21.8597 29.384L21.7317 28.758L21.6327 28.598L21.5697 28.43L21.6327 28.291L21.7547 28.348L21.9287 28.513L22.1387 28.608L22.2437 28.691L22.3157 28.838ZM9.08868 28.319L9.14972 28.469L9.07068 28.695L9.00372 28.744L8.9137 28.65L8.72168 28.584L8.70868 28.462L8.80969 28.465L8.99371 28.346L9.08868 28.319ZM1.9317 37.057L1.67169 37.261L1.69971 37.009L1.7757 36.772L2.03967 36.285L2.23071 36.135L2.54468 35.752L2.72272 35.566L3.14868 35.199L3.54071 34.797L3.67267 34.767L3.81769 34.761L3.9317 34.715L4.18768 34.498L4.83069 33.774L5.36267 33.234L5.90771 32.551L6.16772 32.352L6.23669 32.279L6.73871 31.649L6.89569 31.557L7.07367 31.491L7.19366 31.406L7.29968 31.299L7.47668 31.025L7.54871 30.704L7.50372 30.523L7.40369 30.256L7.52869 29.891L7.62769 29.723L7.97772 28.981L8.07867 28.831L8.22467 28.925L8.24469 29.058L8.17267 29.371L8.16669 29.528L8.24969 29.687L8.14972 29.95L8.4007 30.648L8.59271 31.089L8.59967 31.235L8.34167 31.499L8.18872 31.579L7.85767 31.65L7.70868 31.727L7.47168 31.941L7.32367 32.223L7.28668 32.369L7.21069 32.481L6.52869 32.672L6.20868 32.797L6.06268 32.891L5.98572 33.044L6.03967 33.314L5.46667 34.287L5.28369 34.541L5.08868 34.758L4.84869 34.912L4.51172 35.006L4.24371 35.194L4.06171 35.527L3.83771 35.827L3.55469 36.05L3.24872 36.246L2.96869 36.389L2.66571 36.49L2.57471 36.621L2.51068 36.783L2.37671 36.859L2.21771 36.902L1.9317 37.057ZM20.0217 29.008L20.1857 29.385L19.9637 29.383L19.8827 29.109L19.9777 29.02L20.0217 29.008ZM18.9367 34.206L18.8287 34.281L18.7847 34.094L18.8157 33.842L19.0307 32.962L18.9817 32.742L19.3407 32.251L19.5617 31.791L19.8947 31.307L19.9367 31.056L20.2317 30.577L20.5067 29.916L20.4917 29.697L20.5627 29.588L20.6027 29.422L20.6107 29.281L20.8127 29.035L20.8657 29.195L20.8057 29.509L20.8157 29.66L20.8507 29.731L20.8527 30.023L20.7807 30.471L20.8467 30.988L20.7167 31.514L20.5687 31.75L20.3497 31.917L20.1107 32.021L19.8627 32.283L19.7027 32.589L19.6767 32.868L19.2827 33.808L18.9367 34.206ZM18.2647 35.295L18.0787 35.325L17.8827 35.309L17.7507 35.17L17.5227 34.572L17.2577 34.426L16.9547 34.316L16.8027 34.223L16.6687 34.111L16.2427 33.514L16.2107 33.149L16.2837 32.942L16.4127 32.757L16.5587 32.707L16.9097 32.7L17.0917 32.676L17.4917 32.402L17.5197 32.294L17.5227 31.843L17.4827 31.528L17.3827 31.22L17.4907 31.079L17.6327 30.94L17.7797 30.668L17.8077 30.477L17.8107 30.277L17.8487 30.134L17.9637 30.062L18.5177 29.844L18.6157 29.829L19.3287 30.031L19.4747 30.335L19.4887 30.435L19.3777 30.772L19.2787 30.998L19.0387 31.348L18.8597 31.726L18.7267 32.295L18.6427 32.48L18.4187 32.836L18.3507 33.031L18.3527 33.454L18.3147 33.61L18.3167 33.76L18.7607 34.465L18.7987 34.576L18.7947 34.702L18.7187 34.859L18.5367 35.13L18.4347 35.225L18.2647 35.295ZM16.9137 31.31L16.8357 31.349L16.7667 31.344L16.6017 31.446L16.5407 31.255L16.5997 30.929L16.8477 30.68L16.9107 30.602L16.9777 30.556L17.0587 30.551L17.1367 30.648L17.1587 30.795L17.0017 31.239L16.9137 31.31ZM21.5917 30.932L21.5137 30.945L21.6437 30.647L21.7467 30.69L21.7777 30.723L21.7747 30.857L21.5917 30.932ZM9.24268 31.272L8.89667 31.359L8.81671 31.086L9.06171 30.835L9.33667 30.936L9.50067 31.034L9.42371 31.123L9.24268 31.272ZM25.4467 32.891L25.3977 32.97L25.3307 32.807L25.1677 32.654L25.0107 32.394L24.8997 32.313L24.9757 32.107L24.9827 31.772L25.1387 31.619L25.2107 31.574L25.3287 31.411L25.3817 31.402L25.4317 31.538L25.3257 31.954L25.4847 32.446L25.4307 32.753L25.4537 32.822L25.4467 32.891ZM22.3707 33.251L22.3437 33.355L22.1227 33.347L22.0437 33.363L21.8357 33.629L21.7137 33.696L21.0477 33.783L20.5237 33.713L20.3437 33.567L20.2267 33.326L20.1907 33.167L20.3227 32.993L20.4487 32.878L20.8727 32.65L20.9687 32.477L21.1907 32.268L21.6477 32.198L21.6917 32.25L21.7527 32.283L21.8447 32.292L22.0717 32.464L22.3257 32.574L22.2637 32.991L22.3397 33.132L22.3707 33.251ZM24.2987 32.699L24.3177 32.839L23.9577 32.47L23.8847 32.209L24.0047 32.22L24.1587 32.32L24.2987 32.699ZM26.4827 33.311L26.4477 33.326L26.2917 33.106L26.3127 32.856L26.5237 32.482L26.6797 32.809L26.6777 32.957L26.6557 33.03L26.8017 33.215L26.7007 33.306L26.4827 33.311ZM26.3337 34.569L26.5627 34.739L26.8597 34.694L26.8557 35.123L26.9037 35.248L27.1727 35.611L27.2147 35.914L27.0557 36.198L26.9367 36.333L26.7147 36.527L26.7097 36.616L26.8037 36.717L27.1107 36.775L27.3427 36.931L27.3837 37.374L27.6057 37.723L27.5997 37.875L27.5117 38.499L27.5397 38.765L27.7057 38.978L27.8457 39.068L27.9177 39.202L27.9827 39.569L27.9707 40.192L27.9497 40.41L27.8517 40.612L27.5487 41.071L27.1427 41.436L26.9257 41.412L26.8567 41.52L26.9917 41.853L26.9377 42.556L26.8487 43.043L26.7167 42.796L26.6247 42.538L26.5417 41.854L26.4377 41.546L26.2747 41.264L26.2097 41.012L26.0407 40.777L25.8247 40.169L25.6817 40.2L25.4447 40.367L25.3917 40.481L25.3637 40.654L25.3087 40.81L25.0327 41.059L24.8147 41.355L24.6357 41.679L24.5787 41.976L24.7247 42.208L24.8747 42.302L25.0937 42.51L25.1607 42.605L25.3907 43.28L25.3827 43.971L25.2147 44.275L24.7877 44.852L24.4797 45.035L24.3157 44.942L24.1837 44.592L24.1627 44.448L24.2517 44.119L24.2617 43.818L24.1577 43.716L24.0447 43.736L23.9967 43.779L23.7217 44.174L23.6077 44.274L23.4387 44.288L23.3047 44.261L22.4887 43.916L21.8217 43.576L21.2997 43.258L20.9217 42.778L20.8427 42.419L20.8377 42.043L20.6687 41.492L20.6487 41.304L20.6607 41.124L20.8297 40.786L21.0327 40.615L21.1467 40.492L21.2377 40.356L21.3007 40.174L21.2827 39.993L21.2147 39.88L20.8937 39.483L20.6147 39.239L20.0437 39.02L19.9107 38.899L19.7647 38.808L19.6057 38.769L19.4497 38.768L19.2807 38.836L19.2367 38.981L19.2487 39.111L19.2337 39.237L18.9947 39.962L18.6887 39.803L18.3967 39.619L18.3197 39.49L18.2867 39.336L18.2367 39.232L18.1687 39.138L18.0347 39.38L17.8677 39.571L17.6637 39.615L17.4567 39.618L17.3887 39.535L17.3137 39.074L17.0947 38.928L16.8207 38.959L16.4887 39.213L16.4237 39.308L16.3507 39.527L15.9897 40.149L15.7987 40.627L15.5867 41.093L15.4927 41.246L15.3677 41.347L15.1707 41.305L14.9917 41.194L14.8237 40.894L14.8807 40.545L15.0687 40.322L15.2257 40.084L15.4147 39.251L15.4297 38.955L15.4627 38.828L15.7757 38.449L16.0397 38.214L16.1787 38.165L16.7477 38.031L16.9817 37.919L17.3507 37.917L17.6507 37.853L17.8897 37.672L17.9077 37.485L17.8967 37.29L17.9497 37.171L18.0417 37.071L18.1697 36.939L18.3137 36.84L18.7227 36.768L18.8587 36.686L18.9677 36.559L19.1197 36.311L19.3007 36.373L19.4827 36.469L19.8097 36.545L20.0987 36.751L20.2847 37.075L20.3157 37.235L20.3637 37.762L20.2967 37.885L20.0147 38.13L20.1447 38.156L20.5147 37.933L20.6997 37.847L21.1557 37.727L21.2627 37.648L21.3417 37.53L21.5027 37.207L21.6197 36.862L21.7127 36.718L21.8437 36.604L21.9747 36.585L22.4537 36.821L22.7607 36.707L22.8467 36.349L22.9167 35.829L22.9717 35.688L23.1477 35.552L23.3577 35.596L23.6457 35.783L23.9117 35.845L24.0107 35.695L24.1047 35.399L24.2117 35.4L24.5697 35.498L24.9157 35.433L25.0137 35.077L24.9487 34.696L24.6777 33.584L24.8387 33.336L24.9787 33.329L25.3197 33.625L25.9767 34.025L26.1957 34.269L26.3337 34.569ZM26.2337 33.799L26.1827 33.871L26.0977 33.72L26.1717 33.387L26.2257 33.331L26.2957 33.542L26.2337 33.799ZM19.8547 34.806L19.8787 35.099L19.6207 35.184L19.4137 35.109L19.2807 34.933L19.2817 34.867L19.3977 34.872L19.6527 34.718L19.7337 34.688L19.8547 34.806ZM22.9677 35.073L22.8877 35.241L22.5727 35.102L22.4977 34.981L22.5377 34.838L22.6917 34.789H22.7717L22.9217 34.939L22.9677 35.073ZM2.05573 37.69L1.86469 37.756L1.82269 37.58L1.84668 37.407L1.9837 37.426L2.05072 37.48L2.05573 37.69ZM1.28271 38.623L1.13672 38.837L0.97168 38.591L0.989685 38.248L1.04071 38.153L1.27368 38.101L1.28271 38.623ZM17.7207 39.958L17.7517 40.023L17.7387 40.093L17.4467 40.223L17.3487 40.219L17.3257 40.002L17.3977 39.903L17.5357 39.991L17.6577 39.889L17.7207 39.958ZM25.7127 41.212L25.6687 41.372L25.4957 40.995L25.4277 40.902L25.5157 40.587L25.7087 40.741L25.7127 41.212ZM15.3517 42.712L15.0677 42.751L14.9767 42.748L14.7537 42.462L14.7327 42.336L14.5537 42.193L14.6187 42.051L14.8507 42.017L15.2527 41.836L15.8977 42.122L15.9977 42.225L15.7967 42.288L15.6537 42.559L15.3517 42.712ZM12.7307 43.701L12.8837 43.903L13.0757 43.85L13.3817 43.907L13.4467 44.012L13.4367 44.081L13.1097 44.276L12.8947 44.072L12.5157 44.211L12.3347 44.127L12.0877 44.202L11.9357 44.044L11.9977 43.892L12.3897 43.642L12.7307 43.701ZM10.1807 45.996L10.1047 46.165L10.0157 46.244L9.89972 46.2L9.81067 46.113L9.76068 46.243L9.51569 46.293L9.36072 46.493L9.1347 46.547L8.97668 46.521L8.99371 46.343L9.43073 46.076L9.7027 45.977L9.94171 45.784L10.0617 45.763L10.1227 45.92L10.1807 45.996Z" fill="#CCCCCC" stroke="white" stroke-width="0.5"/>
</svg>
