<svg width="50" height="44" viewBox="0 0 50 44" fill="none" xmlns="http://www.w3.org/2000/svg">
<path d="M40.7401 0.476868L40.8751 0.569885L41.0431 0.514893L41.3381 0.448883L41.5941 0.497864L42.1591 0.706879L42.2441 0.810883L42.3771 1.31787L42.4781 1.36389L42.7961 1.24487L43.0591 1.30487L43.3541 1.46887L43.5441 1.62689L43.67 1.79688L43.8051 2.07288L43.8571 2.29288L43.9211 2.55588L43.9041 3.29587L43.808 3.41687L43.7261 3.57388L43.746 3.71088L43.8391 3.81888L44.022 3.89288L44.191 3.93887L44.282 4.05588L44.407 4.46988L44.4911 4.53387L44.699 4.53189L45.0751 4.44186L45.4011 4.29987L45.54 4.26987L45.574 4.66287L45.7661 4.81287L46.0341 4.98788L46.1451 5.04587L46.459 5.21188L47.0521 5.42288L47.6271 5.57388L48.053 5.68588L48.259 5.69287L48.4061 5.69788L48.8311 5.66788L49.0431 5.61588L48.7551 5.79587L48.4031 6.01788L47.9871 6.27789L47.621 6.50787L47.2711 6.72687L46.936 6.93689L46.8851 7.09988L46.8021 7.33887L46.4951 7.52087L46.1891 7.65189L46.118 7.72888L46.095 7.83188L45.9471 8.03787L45.6611 8.21188L45.4241 8.19489L45.274 8.14288L44.4771 8.44287L44.1071 8.43588L43.819 8.62988L43.605 8.80789L43.1771 9.00189L42.886 9.00287L42.4561 8.88788L41.9271 8.66788L41.7131 8.54086L41.519 8.54788L41.0511 8.51788L40.5931 8.40887L40.0471 8.27988L39.777 8.22488L39.2231 8.11087L38.8621 8.26288L38.5361 8.39886L38.2711 8.49188L38.0521 8.91388L37.959 9.06287L37.8531 9.27487L37.803 9.42487L37.847 9.60388L38.1681 9.72989L38.3021 9.90387L38.3221 10.0569L38.2061 10.2139L38.1091 10.3379L38.11 10.4469L38.162 10.5569L38.2391 10.6389L38.6951 10.6899L38.9661 10.6909L39.071 10.7349L39.084 10.8839L38.9841 11.0839L38.6 11.2449L38.3831 11.4149L38.313 11.6399L38.316 11.8189L38.3911 11.9379L38.5751 12.0749L38.748 12.2309L38.8011 12.3579L38.7791 12.5319L38.7101 12.7699L38.5211 13.0469L38.363 13.2439L38.3521 13.3139L38.3911 13.4199L38.5181 13.5739L38.7341 13.8009L39.0031 13.9839L39.1761 14.0349L39.2311 14.0799L39.285 14.2919L39.3061 14.5149L39.2371 14.6829L39.3751 14.8209L39.7361 14.8139L40.0301 14.8729L40.1541 14.8139L40.2411 14.8579L40.186 15.3559L40.2261 15.6499L40.3051 15.7329L40.5941 15.8529L41.1501 15.8379L41.4791 15.9769L41.842 16.1359L42.035 16.3119L42.1221 16.4429L42.0981 16.6539L41.899 16.9009L41.576 17.0189L41.3871 17.0699L40.4551 17.5319L40.1641 17.7269L39.938 17.9609L39.855 18.1369L39.811 18.3079L40.0131 18.9279L40.0471 19.1199L39.881 19.7869L39.832 20.0339L39.8951 20.2069L40.0931 20.2709L40.136 20.4159L40.1551 20.5269L39.811 20.7709L39.4471 20.9869L39.332 20.9859L38.9841 21.3909L38.4051 22.1999L38.097 22.4739L38.0751 22.6069L38.0511 22.7429L38.1681 22.9709L38.1921 23.1639L38.0621 23.3569L37.8441 23.5799L37.42 23.7729L36.8851 23.9719L36.6451 24.0919L36.4641 24.6119L36.2971 25.1329L36.222 25.3259L35.9341 25.9249L35.4301 26.8049L35.3021 26.9969L34.522 27.4199L33.7271 27.8799L33.5861 28.0539L33.423 28.4719L33.2701 28.9299L33.1271 29.1689L32.621 29.7049L32.4551 30.1159L32.402 30.3839L31.972 30.5339L31.4841 30.6769L30.774 30.7229L30.4791 30.7979L29.6091 31.1669L29.3931 31.1829L29.2231 31.1219L29.095 30.9959L28.9761 30.7859L28.9191 30.4629L28.751 30.3169L28.5251 30.1919L28.287 30.1869L28.0471 30.3239L27.8401 30.4739L27.6981 30.5979L27.5601 30.7429L27.2931 31.2289L26.8621 31.9259L26.381 32.4319L26.2031 32.5829L26.092 32.6979L25.941 32.8659L25.8541 33.0279L25.735 33.5569L25.6661 34.0249L25.6981 34.1299L25.7701 34.2189L26.0331 34.3539L26.412 34.5799L26.9051 34.7079L27.3201 34.7299L27.4761 34.8259L27.5681 34.9559L27.5941 35.0649L27.5721 35.4509L27.5251 35.8649L27.3721 36.3089L27.3741 36.5629L27.4351 36.8119L27.8961 37.4419L28.066 37.5069L28.412 37.5209L28.5731 37.5079L28.7521 37.4439L28.8791 37.4879L28.9741 37.5649L28.998 37.6929L28.983 38.3199L29.1251 38.6039L29.4001 38.9899L29.6171 39.4309L29.8221 39.9579L30.019 40.3699L30.095 40.5849L29.967 40.6889L29.894 40.7969L29.8751 40.9409L29.902 41.0929L29.8851 41.1999L29.9781 41.3319L30.087 41.3759L30.084 41.4679L29.912 41.5869L29.759 41.5829L29.6411 41.6409L29.4131 41.8909L29.3071 41.9409L29.1641 41.9639L29.0051 41.9389L28.7791 41.8379L28.7141 41.6789L28.7391 41.5119L28.688 41.4119L28.5261 41.4309L27.9651 41.6019L27.4301 41.8129L27.337 41.9569L27.2131 42.1059L26.9681 42.1679L26.6061 42.1869L26.3571 42.1639L26.1271 42.0029L25.9171 41.8569L25.592 41.8499L25.0071 41.8719L24.683 41.8699L24.4921 41.8159L24.3041 41.8569L24.069 41.7969L23.9641 41.8769L23.8651 41.8849L23.7861 41.7469L23.733 41.7319L23.6711 41.7519L23.6161 41.7989L23.584 41.8799L23.5731 42.7999L23.1871 42.7939L22.912 42.7919L22.61 42.8419L22.334 42.9119L22.1981 42.9959L22.0041 43.1269L21.9581 43.3109L21.8651 43.4449L21.7311 43.2469L21.6451 43.1549L21.545 43.2229L21.4031 43.2149L21.147 42.9889L21.0331 43.2169L20.61 43.2689L20.5571 43.0969L20.5471 42.9369L20.3141 43.0529L20.147 42.8749L20.0721 42.6359L20.0081 42.5699L19.9351 42.4939L19.759 42.4119L19.6031 42.1579L19.5881 41.8879L19.5441 41.5669L19.2161 40.3749L19.0171 40.2649L17.9001 40.0529L17.8431 39.8439L17.92 39.2819L17.889 38.9269L17.527 38.4579L17.4261 38.1299L17.131 37.8489L16.8381 37.7669L16.5421 37.8039L16.3831 37.9149L16.2961 38.1029L16.928 38.0589L17.0701 38.1279L17.2401 38.2509L17.0591 38.2459L16.8491 38.1879L16.5861 38.1919L15.6011 38.3299L15.0291 38.5289L14.2621 38.4699L13.2941 38.6659L12.4941 38.6769L12.1641 39.0579L11.9811 38.9889L11.8411 38.8959L10.7411 38.5969L10.665 38.4719L10.4811 38.3819L10.2791 38.5419L10.134 38.5679L9.53107 38.4349L9.07007 38.5359L8.89905 38.7079L8.88708 38.9749L8.31104 38.9229L7.98505 38.8389L7.55109 38.9319L6.56708 38.8089L6.30908 38.8389L5.95007 39.0169L5.80005 39.1549L5.58704 39.2089L5.39905 39.0169L5.25903 38.9319L5.12909 38.9879L4.95306 39.1459L4.44305 39.2199L3.98206 39.1989L3.48608 39.0509L3.54504 39.0009L3.62207 38.7429L3.69104 37.8199L3.77905 37.4859L3.75305 37.3039L3.77106 37.2489L3.96606 37.0869L4.01306 37.0189L4.08704 36.5449L4.16907 36.0189L4.26007 35.8299L4.33606 35.7789L4.95105 35.5419L5.05609 35.3849L5.37305 35.4219L5.40204 35.3839L5.43109 35.2019L5.57806 35.0049L5.78204 34.8429L5.93506 34.7859L6.48804 34.6839L6.81207 34.5419L6.90906 34.5269L7.77008 34.5629L7.95105 34.5089L7.97906 34.4589L8.03009 33.9209L8.18707 33.8369L8.21106 33.7919L8.15808 33.4189L8.18805 33.1699L8.36505 33.0219L8.35406 32.9379L8.22809 32.7609L8.05908 32.6479L7.97705 32.6209L7.27106 32.7279L6.97906 32.6929L6.84308 32.6279L6.81409 32.5799L6.84204 32.4709L6.84705 32.2939L6.94904 32.0179L6.98004 31.8529L6.89703 30.8959L6.77808 30.2589L6.84204 29.6259L6.82904 29.4949L6.80505 29.4649H6.71606L6.28607 29.5209L5.92004 29.1129L5.69208 28.9519L5.06805 28.7489L4.79407 28.7089L4.39307 28.5329L4.02203 28.1479L3.64404 27.7529L3.49109 27.4999L3.32208 27.0689L2.84406 26.2419L2.84808 26.0279L2.78906 25.8969L2.32208 25.3519L1.99109 24.9639L1.45605 24.3359L2.52509 24.6879L3.35803 24.9569L4.70508 25.3909L5.75006 25.7279L6.03906 25.7829L9.10205 25.4949L10.233 25.7129L10.592 25.8349L10.6461 25.7639L10.798 25.6159L11.0621 25.4659L11.42 25.3469L11.777 25.2819L12.2891 25.2729L12.6371 25.2829L12.894 25.3189L13.3901 25.2979L13.6281 25.2399L14.4431 25.0019L14.9911 24.8419L15.8201 24.5929L16.425 24.4099L16.576 24.3129L16.7321 24.1389L16.8071 23.9819L16.621 23.7399L16.597 23.5269L16.7191 23.2559L16.785 22.8429L16.772 22.2539L16.7321 21.9139L16.9011 21.2809L17.0421 20.9249L17.3231 20.7549L17.519 20.6509L17.6 20.5739L17.6801 20.4889L17.98 20.0049L18.2551 19.7789L18.5211 19.6419L18.813 19.6599L19.0601 19.8469L19.54 19.9289L20.0051 19.8739L20.4081 19.7329L20.5911 19.6179L20.8051 19.5169L20.7931 19.4009L20.55 19.3009L20.4111 19.1589L20.3571 18.9849L20.493 18.8789L20.811 18.8479L21.5891 18.4229L21.9061 18.1429L21.9921 18.0119L22.1421 17.9979L22.438 18.1279L22.785 18.1709L23.0021 18.0409L23.2181 18.0119L23.4301 18.1539L23.5441 18.3239L23.7361 18.5259L23.9791 18.5659L24.272 18.4579L24.5801 18.2239L24.8721 17.8959L25.131 17.5719L25.0671 16.5419L25.024 15.9329L25.1611 15.6109L25.3561 15.4139L25.485 15.1069L25.4821 14.8359L25.6191 14.6079L25.7551 13.9849L25.9401 13.8379L26.3221 13.7359L26.9301 13.6769L27.407 13.3919L27.8871 13.0879L27.951 12.8199L27.7711 12.5339L27.5301 11.9779L27.313 11.6449L26.7831 11.0469L26.8441 10.6779L27.139 10.5269L27.8651 10.7829L28.0671 10.8329L28.3201 10.8689L28.9891 10.8629L29.535 10.7629L30.105 10.5349L30.217 10.2969L30.2101 10.0139L30.22 9.77988L30.2291 9.45486L30.024 9.24588L29.9001 9.05887L29.863 8.90887L30.006 8.82687L30.1451 8.67389L30.2781 8.39587L30.5941 8.06287L30.785 7.76288L30.9651 7.62088L31.2371 7.42487L31.4111 7.13788L31.4911 6.96588L31.6481 6.79788L31.701 6.68787L31.6581 6.58887L31.5801 6.46487L31.4911 6.32489V6.18887L31.5651 6.04587L31.6461 5.91687L31.608 5.73587L31.5651 5.44089L31.4171 5.26688L31.3171 4.86389L31.16 4.45389L31.076 4.29388L30.9221 4.09189L30.5781 3.87787L30.4791 3.73486L30.613 3.45889L30.8381 3.28787L31.261 2.86487L31.4921 2.57288L31.701 2.36887L31.9711 2.40289L32.1291 2.38489L32.2681 2.19589L32.5441 2.02887L33.035 1.68289L33.207 1.44888L33.4681 1.33087L33.6851 1.30386L33.9771 1.22186L34.2581 1.09589L34.5151 0.999878L34.9171 0.979889L35.5561 0.922882L35.9001 0.862885L36.7271 0.816864L37.6271 0.795868L37.7311 0.793884L38.121 0.917877L38.3851 1.02188L38.4891 1.01288L38.9261 0.764893L39.5901 0.460876L39.899 0.325867L40.0651 0.275879L40.3221 0.27887L40.5291 0.358887L40.7401 0.476868Z" fill="#CCCCCC" stroke="white" stroke-width="0.5"/>
</svg>
