<svg width="29" height="28" viewBox="0 0 29 28" fill="none" xmlns="http://www.w3.org/2000/svg">
<path d="M15.7186 2.5762L15.8306 2.63422L16.6166 2.6972L17.4136 2.76022L18.6946 2.82922L20.0296 2.8992L21.4156 2.97421L22.9146 3.05322L24.4955 3.10022L24.5926 3.06821L24.7536 2.88123L24.9506 2.90622L25.1836 3.02222L25.2916 3.10822L25.3376 3.20721L25.3666 3.32123L25.4936 3.3432L25.7266 3.43021L26.0406 3.62723L26.2866 3.81821L26.5215 4.09021L26.5995 4.39822L26.6036 4.74722L26.5886 4.97122L26.6086 5.06223L26.9296 6.6752L27.4636 8.2182L27.6595 8.96021L27.7375 9.35422L27.8006 9.92422L27.8196 10.3242L27.8176 10.5482L27.7776 10.8562L27.6196 11.0382L26.5945 11.5582L26.4016 11.7202L26.0995 12.1242L25.8206 12.5392L25.7566 12.6812L25.7396 12.7742L25.8016 12.9102L26.1666 13.1312L26.5345 13.3092L26.6546 13.4422L26.9266 13.6122L27.0256 13.7652L27.0796 13.8972L27.0756 14.2042L26.9536 14.6272L27.0046 14.9462L26.8796 15.1592L26.7776 15.3952L26.7626 15.8072L26.9466 16.2612L27.0976 16.5712L27.1556 16.8142L27.0945 17.0042L27.1125 17.1942L27.2476 17.3962L27.6716 18.0162L27.8806 18.6112L28.0146 18.8432L28.3235 19.1432L28.3516 19.2662L28.2276 19.3792L28.1276 19.3942L28.0466 19.4242L27.9946 19.5292L28.0756 19.6422L28.1846 19.8072L28.3206 20.2742L28.3076 20.6562L28.2026 20.7532L28.0685 20.9792L27.9786 21.1862L27.2455 21.3292L27.0696 21.5502L26.6686 21.9752L26.3956 22.2202L25.9906 22.6612L25.3506 23.4172L25.1146 23.7332L24.9416 23.9942L24.4236 24.6862L24.2646 24.9762L24.2956 25.2142L24.4626 25.7732L24.4976 26.0252L24.4676 26.2572L24.4126 26.4642L24.4225 26.5562L24.5756 26.7062L24.8185 26.9412L24.8326 27.0202L24.7986 27.1222L24.7146 27.1992L24.4095 27.1172L24.0696 26.9582L23.9536 26.9782L23.7696 26.9402L23.0106 26.6332L22.4986 26.3922L22.4476 26.2352L22.3516 26.0082L22.1335 25.8172L21.6335 25.6522L21.4306 25.5232L20.6186 25.4512L20.2666 25.4482L20.0176 25.5012L19.8575 25.4962L19.6385 25.8332L19.4875 25.9312L19.2666 25.9412L19.0726 25.8812L18.8746 25.7042L18.5586 25.6102L18.3296 25.6552L18.1606 25.6172L18.0156 25.6072L17.9646 25.6432L17.8476 25.6382L17.6786 25.7232L17.4926 25.8422L17.2886 25.9342L17.1306 26.1302L16.9906 26.5132L16.5936 26.3412L16.4615 26.4162L16.2736 26.4662L16.1456 26.4142L16.1756 26.2822L16.2336 26.1332L16.2306 25.9252L16.1946 25.6942L16.0716 25.6192L15.8866 25.5922L15.7916 25.5462L15.7816 25.4702L15.6866 25.3722L15.5226 25.1242L15.3686 24.8142L15.2616 24.7232L15.1066 24.8702L14.8716 25.0372L14.7245 25.0952L14.4416 25.5752L13.9336 25.5912L13.9026 25.3672L13.8486 25.1512L13.5516 25.0982L13.5426 24.9712L13.4806 24.6532L12.8846 24.0302L12.8126 23.7702L12.8356 23.6692L12.7946 23.5032L12.6646 23.4032L12.1935 23.2842L12.0726 23.3522L11.9636 23.2822L11.7916 23.1322L11.4946 23.0102L11.4615 22.9472L11.3546 22.8392L11.2956 22.8252L11.2566 22.8902L11.1706 22.9822L10.8646 23.0992L10.7426 23.0512L10.6316 22.9502L10.5046 22.7312L10.3206 22.5392L10.1696 22.4712L10.0826 22.3702L10.0636 22.2922L10.3996 22.1342L10.4736 21.9712L10.4306 21.6742L10.3806 21.6372L10.2466 21.7372L9.96558 21.8252L9.70758 21.8662H9.57458L8.83557 21.3252L8.35559 21.1592L8.07257 21.1112L8.0426 21.1662L8.16956 21.4702L8.3916 21.8452L8.38055 21.9442L8.1156 22.0972L7.96558 22.1642L7.78857 22.2932L7.63855 22.4732L7.50854 22.5542L7.39655 22.5332L7.27759 22.4472L6.97156 21.8942L6.58655 21.4702L6.54059 21.3752L6.42059 21.3532L6.25055 21.2552L6.19257 21.1252L6.27856 20.9892L6.39557 20.8652L6.60358 20.7882L6.66656 20.7152L6.70355 20.6062L6.78058 20.4652L6.76056 20.4152L6.61359 20.2552L6.39557 20.1042L5.78955 20.2172L5.6236 20.2982L5.5296 20.1932L5.45856 20.0402L5.3056 20.0102L5.09558 19.8702L4.84656 19.7322L4.60358 19.6922L4.09857 19.4932L3.90356 19.4822L3.79156 19.4142L3.67358 19.2632L3.57355 19.0982L3.52155 18.7622L3.1496 18.6102L2.77856 18.5142L2.75256 18.5632L2.76855 18.9012L2.7486 19.0822L2.5036 19.1932L2.2616 19.2042L2.2746 19.1482L2.56458 18.5392L2.69458 18.1542L2.84357 17.4512L2.66455 16.8942L2.6156 16.6322L2.53259 16.5072L2.02356 16.2342L1.98456 16.1402L2.06256 15.7702L2.0246 15.6142L1.90155 15.4492L1.7406 15.1212L1.67859 14.8422L1.88354 14.5142L1.93457 14.2722L2.02356 13.9412L2.0896 13.7592L2.1026 13.7092L1.96759 13.5802L1.93359 13.3982L1.96954 13.1362L1.89758 12.9412L1.71759 12.8152L1.60059 12.6472L1.54657 12.4392L1.58856 12.1112L1.72858 11.6642L1.43256 11.1242L0.701599 10.4912L0.351562 10.0482L0.379578 9.79422L0.533569 9.56421L0.812561 9.35822L1.0246 8.99121L1.14355 8.5542L1.14655 8.47122L1.15356 8.15921L0.828552 6.87723L0.775574 6.55521L0.736572 6.16522L0.716553 6.0592L1.35858 6.33221L1.62756 6.48621L1.59357 6.3132L1.53955 6.16422L1.57556 5.94623L1.55756 5.61621L0.974548 5.4472L0.5896 5.39023L0.54657 5.16022L0.582581 5.0112L0.689575 5.09921L1.06757 5.13321L1.9986 4.6882L3.60559 4.10721L5.32257 3.56223L5.72357 3.50223L6.12555 3.38721L6.2746 3.18222L6.42358 3.04523L6.65656 2.68323L7.17358 2.1192L8.08759 1.91321L8.42957 1.6452L9.14459 1.26923L10.7746 0.846222L11.4565 0.752228L12.1236 0.741211L12.7176 1.07523L13.3466 1.48721L13.4596 1.73422L13.1196 1.5802L12.6236 1.21121L12.4396 1.19522L12.8636 2.31622L13.0956 2.71222L13.5626 3.00623L13.9556 3.1062L15.1656 2.92722L15.5945 2.69321L15.7186 2.5762Z" fill="#CCCCCC" stroke="white" stroke-width="0.5"/>
</svg>
