<svg width="72" height="35" viewBox="0 0 72 35" fill="none" xmlns="http://www.w3.org/2000/svg">
<path d="M40.4543 33.489L40.8373 33.6639L41.1893 33.5799L41.6253 33.8049L41.8523 33.8569L41.6503 34.0179L41.4473 34.2219L40.9403 34.174L40.5113 33.9779L40.3573 33.8289L40.3153 33.6949L40.4543 33.489ZM18.4603 19.5439L18.4483 19.6079L18.2893 19.5829L18.0883 19.6019L17.9803 19.4159L18.0783 19.3389L18.3043 19.3199L18.4123 19.403L18.4603 19.5439ZM16.7163 16.4449L16.8943 16.4689L17.7893 16.4169L18.0273 16.4549L18.0023 16.7149L17.8333 16.8189L17.3063 16.8889L16.4773 16.7209L16.1993 16.4969L16.1593 16.3329L16.1643 16.256L16.3393 16.1949L16.7163 16.4449ZM9.70529 14.2709L9.93631 14.4139L9.5853 14.4449L9.4693 14.515L9.1853 14.4139L8.84232 14.4289L8.62732 14.2369L8.57831 14.0369L8.68631 13.9129L8.98932 13.9119L9.70529 14.2709ZM8.3183 14.0129L8.0303 14.0219L7.75531 13.7499L8.16031 13.6069L8.2793 13.6939L8.36731 13.7929L8.41931 13.92L8.3183 14.0129ZM10.7403 13.903L10.6073 13.946L9.85931 13.6709L9.59232 13.5459L9.24631 13.2289L10.2233 13.614L10.7403 13.903ZM12.7133 13.5889L12.6573 13.6229L12.0743 13.5259L11.9083 13.3949L11.8413 13.1509L11.9393 13.0679L12.1953 13.019L12.5673 13.0649L12.8063 13.2399V13.463L12.7133 13.5889ZM1.31329 10.8419L1.1893 11.0159L0.975311 10.9539L0.904297 10.8889L0.966309 10.5169L1.1373 10.4299L1.3093 10.5799L1.31329 10.8419ZM65.7613 1.95395L65.8203 1.98395L65.9833 1.97595L66.2733 1.83395L66.4703 1.71494L66.5393 1.76395L67.1103 1.69693L67.2453 1.75095L67.3353 1.81195L67.6163 1.89395L67.9223 1.90295L68.3013 1.78793L68.4673 1.67194L68.4993 1.54395L68.5073 1.44693L68.5563 1.38495L68.6423 1.34995L68.7773 1.41293L68.9703 1.46393L69.4333 1.48492L69.5243 1.41394L69.6813 1.43494L69.8883 1.52493L70.1273 1.49594L70.2483 1.60593L70.2983 1.75195L70.3123 2.06894L70.2943 2.38895L70.3413 2.50693L70.5033 2.53793L70.7643 2.53394L70.9993 2.61993L71.1813 2.77094L71.2413 2.92493L71.2673 3.03094L71.1783 3.09094L71.0523 3.31894L70.7323 3.61594L70.2753 3.88293L69.9263 4.21494L69.6863 4.61093L69.3853 4.77893L69.2933 4.86893L69.2573 4.97595L69.4563 5.45993L69.5173 5.83295L69.5663 6.28894L69.5343 6.41693L69.5173 6.91693L69.4713 7.06293L69.4833 7.18195L69.5563 7.30893L69.5893 7.43094L69.4523 7.58594L69.2013 7.76593L69.0153 7.92395L68.9653 8.07193L68.9793 8.16394L69.2923 8.47693L69.3493 8.60495L69.3073 8.91394L69.1273 9.41895L68.9553 9.72595L68.9253 9.75595L68.7283 9.84293L67.7843 9.84595L67.5553 9.91495L67.5873 9.97693L67.8093 10.3709L68.0403 10.5799L68.1173 10.6279L68.2003 11.0869L68.5753 11.8189L68.9383 11.92L69.0643 12.1029L69.0413 12.3589L68.9293 12.64L68.7063 12.9279L68.4413 13.1299L68.2683 13.3309L68.2543 13.5639L68.1993 13.8589L68.1163 14.0919L68.0953 14.2489L68.7593 15.2339L69.1293 15.1859L69.1773 15.209L69.1113 15.4429L68.9943 15.7169L68.8543 15.769L68.5373 15.8529L68.2373 16.2069L67.9943 16.6319L67.8113 16.838L67.6443 17.3419L67.6653 17.5599L67.7463 17.8959L67.9173 18.7699L67.6713 18.8089L66.7153 19.3779L66.4193 19.3789L65.8663 19.1289L64.8903 19.0479L64.5723 18.9729L64.1753 19.1369L63.8683 19.1329L63.6243 19.3419L63.4493 19.2849L63.6503 18.8159L63.9653 17.8859L63.9523 17.3169L64.0273 16.821L63.9413 16.3289L63.7833 16.0209L63.9983 15.2219L63.9743 14.8089L63.7773 14.2849L64.3743 14.3649L64.1893 14.157L64.0073 14.0299L63.8313 14.0589L63.6823 14.0509L63.1743 14.2539L62.9193 14.3149L62.8453 14.2789L62.8733 13.9549L62.7413 13.5339L62.9453 13.4229L63.1823 13.3909L63.3843 13.2109L63.5093 13.0099L63.4433 12.6509L63.6183 12.3099L64.0293 12.0209L63.8163 12.0649L63.5723 12.2449L63.1883 12.8969L63.0633 13.2269L62.7363 13.334L62.4433 13.3869L62.2933 13.3519L62.1133 13.269L62.0973 13.0259L62.1113 12.8319L62.2333 12.446L62.2813 11.8999L62.4543 11.4099L62.4413 11.2789L62.3923 11.084L62.5463 10.8929L62.7373 10.7669L63.0273 10.3449L63.4323 9.33594L63.8993 8.25894L63.8613 8.12695L63.7623 8.02493L63.8023 7.73294L64.0833 6.45993L64.1973 6.29294L64.3293 5.91794L64.3593 5.31195L64.4113 4.89395L64.3993 4.68393L64.3573 4.43094L64.1783 3.94693L63.9903 2.92093L63.9753 2.57693L64.1303 2.40295L63.8753 2.37793L63.7593 2.15494L63.7853 1.90195L64.0693 1.49295L64.3343 1.23895L64.5963 1.07294L64.7413 1.00995L65.3463 0.836945L65.5053 0.75293L65.6543 0.766937L65.6793 0.849945L65.7653 1.00995L65.8613 1.12094L65.8873 1.20294L65.6533 1.54593L65.6213 1.66293L65.7433 1.88394L65.7613 1.95395Z" fill="#CCCCCC" stroke="white" stroke-width="0.5"/>
</svg>
