<svg width="25" height="26" viewBox="0 0 25 26" fill="none" xmlns="http://www.w3.org/2000/svg">
<path d="M13.4751 3.09717L13.5371 3.31317L13.5741 3.48016L13.6671 3.59821L13.7591 3.75519L13.8521 3.84418L13.9171 3.99219L13.8981 4.15918L13.9361 4.37616L13.9821 4.56317L14.0281 4.61316L14.1621 4.66217L14.2281 4.83215L14.1801 4.91821L14.1991 5.01721L14.2471 5.11316L14.2031 5.20819L14.2261 5.27917L14.3161 5.3432L14.4001 5.5802L14.4091 5.98621L14.3161 6.20416L14.2421 6.3822L14.2241 6.49121L14.2791 6.64917L14.1861 6.83716L14.0751 7.06519L14.1031 7.22418L14.1211 7.37317L14.1301 7.53217L14.1581 7.68121L14.1211 7.84021L14.0841 7.97919L14.0651 8.13818L14.1121 8.3172L14.0281 8.48621L13.9821 8.60516L13.9631 8.72516L14.0471 8.91418L14.2611 8.9942L14.4281 9.01416L14.5851 8.91418L14.7061 8.88416L14.9291 8.97418L15.1331 9.13318L15.3931 9.1532L15.6251 9.18317L15.8011 9.23315L16.0611 9.17316L16.3311 9.23315L16.6461 9.32318L16.9061 9.40216L17.1661 9.3822L17.3611 9.37317L17.5651 9.2832L17.7601 9.29321L17.9081 9.13318L17.9921 8.9942L18.0661 8.89417L18.2801 8.81421L18.4281 8.8642L18.5491 9.12421L18.7621 9.27319L18.8461 9.3822L19.0031 9.43317L19.3471 9.4422L19.5611 9.43317L19.8021 9.51221H19.9591L20.0991 9.65216L20.2291 9.82117L20.2471 10.1312L20.3681 10.3712L20.5261 10.4612L20.6091 10.6112L20.5821 10.8212L20.5071 11.0312L20.5171 11.2622L20.6001 11.4722V11.6832L20.6561 11.8932L20.7671 12.0742L20.8041 12.3652L20.7861 12.5762L20.8601 12.6972L20.8881 12.8682L20.8411 13.0082L20.8231 13.2002L20.8321 13.3712L20.8881 13.5122L21.0551 13.6932L21.1011 14.0162V14.2382L21.1751 14.5002L21.3151 14.6222L21.5381 14.6622L21.7971 14.7022L22.1131 14.6422L22.3921 14.5712L22.5491 14.5002L22.8551 14.3092L23.1251 14.1972L23.2641 14.1272L23.3941 14.0762L23.6631 14.1972L23.9141 14.3492L24.1081 14.5612L24.4711 14.7932L24.4001 14.8502L24.2561 15.0412L24.2591 15.2642L24.3611 15.5852L24.2711 16.2662L23.9901 17.3082L23.8751 17.9172L23.9251 18.0902L23.8211 18.3952L23.4361 19.0512L23.4211 19.4942L23.3761 20.8272L23.2471 21.7692L23.0301 22.4672L22.8331 22.8402L22.6541 22.8852L22.5271 22.9972L22.4491 23.1742L22.3051 23.3222L22.0931 23.4412L21.9791 23.5712L21.9611 23.7122L21.7591 23.8032L21.3721 23.8442L21.1461 23.9572L21.0781 24.1422L20.9491 24.2892L20.7571 24.3982L20.6671 24.5792L20.6761 24.8322L20.5661 25.0482L20.3371 25.2292L20.1251 25.2342L19.9321 25.0632L19.6721 24.9502L19.3471 24.8932L19.0761 24.9372L18.8581 25.0792L18.6651 25.3052L18.4971 25.6152L18.3101 25.6672L18.1041 25.4592L17.8431 25.3962L17.5281 25.4782L17.2761 25.4502L17.0901 25.3112L16.8031 25.2962L16.4161 25.4042L15.6321 25.2792L14.4501 24.9212L13.4511 24.7852L12.2261 24.9142L12.1221 24.5422L12.1871 24.3422L12.3861 24.1912L12.5111 24.0202L12.5621 23.8292L12.6991 23.6832L12.9231 23.5832L13.0181 23.4822L12.9841 23.3792L13.0321 23.2892L13.1611 23.2102L13.2341 23.0862L13.2511 22.9172L13.3001 22.8332L13.3861 22.7712L13.3961 22.6532L13.3481 22.2922L13.3541 21.9952L13.4141 21.7642L13.4891 21.6252L13.5421 21.5902L13.5921 21.5082L13.6111 21.3692L13.6921 21.2392L14.0831 20.9732L14.2301 20.8292L14.2431 20.6972L14.3021 20.5202L14.5341 20.1372L14.6051 19.9582L14.6111 19.8692L14.6941 19.7762L14.9741 19.5642L15.1251 19.3652L15.1491 19.1782L15.0821 18.9662L14.9231 18.7292L14.4241 18.1362L14.0361 17.8672L13.5401 17.6462L13.2141 17.5742L13.0571 17.6522L12.8981 17.5902L12.7371 17.3902L12.4651 17.2322L11.8921 17.0602L10.5911 16.3712L10.0701 16.0382L9.89511 15.8332L9.40912 15.4652L8.61212 14.9352L8.00113 14.6772L7.57513 14.6912L6.89212 14.5382L5.95312 14.2162L5.41211 13.9032L5.26611 13.6012L4.91913 13.2982L4.37012 12.9952L4.08511 12.7962L4.06412 12.7002L3.90112 12.5752L3.59711 12.4212L3.26312 12.1582L2.89911 11.7862L2.51013 11.2102L2.09613 10.4332L1.65213 9.90918L1.17813 9.63916L0.940125 9.46021L0.941132 9.37317L0.870117 9.29016L0.934113 9.1402L1.10611 8.55121L1.35611 7.69916L1.61612 6.81915L1.92111 5.78418V5.05121L1.92212 4.28119L2.35611 3.64819L2.66412 3.19916L2.93112 2.77216L3.20013 2.04218L3.38013 1.55621L4.06711 1.44019L5.23413 1.18817L5.81613 1.06219L7.04312 0.79718L8.29013 0.527161L9.59912 0.510193L10.8631 0.493164L11.8431 1.09717L12.5921 1.5592L13.4171 2.0672L13.4741 2.17719L13.5311 2.60419L13.4751 3.09717Z" fill="#CCCCCC" stroke="white" stroke-width="0.5"/>
</svg>
