<svg width="28" height="20" viewBox="0 0 28 20" fill="none" xmlns="http://www.w3.org/2000/svg">
<path d="M22.8771 11.9193L23.173 12.3302L23.548 12.5493L24.4161 12.7802L24.4941 12.7523L24.5021 12.7093L24.4421 12.6492L24.433 12.5732L24.475 12.4792L24.595 12.4742L24.7911 12.5583L25.165 12.4362L25.7151 12.1082L26.2211 12.0422L26.6811 12.2362L26.9171 12.4622L27.069 12.6772L27.0211 12.9422L26.9921 13.1072L26.871 13.7882L26.787 14.0422L26.652 14.3262L25.2231 14.6653L25.3151 14.5023L25.282 14.2173L25.222 14.0013L25.355 13.8073L25.0341 13.7362L24.8931 13.8432L24.7831 14.0292L24.8801 14.4583L24.7241 14.6953L24.6641 14.8272L24.657 15.1403L24.5641 15.2742L24.5461 15.4222L24.774 15.3842L24.6711 15.6533L24.243 16.1693L24.0931 16.4772L24.1301 17.6922L23.9391 18.4162L23.9241 18.6292L23.47 18.6362L23.334 18.6192L22.9041 18.5112L22.4211 18.3192L22.1381 17.9453L21.957 17.6783L21.5471 17.7993L21.47 17.7672L21.3571 17.6382L21.0491 17.5512L20.6681 17.5493L19.813 17.0602L19.7191 16.9782L19.0471 17.0602L18.0411 17.3022L17.274 17.6013L16.4811 18.1322L16.16 18.5342L15.787 18.7473L15.2571 18.9052L14.3101 18.8463L13.3231 18.6443L12.264 18.4272L11.691 18.5472L10.9171 18.4572L9.74908 18.1982L8.87909 18.1192L8.02106 18.2722L7.87708 18.1552L7.84607 18.0212L7.87909 17.8322L8.00006 17.6792L8.20807 17.5632L8.31708 17.4453L8.32904 17.3262L8.09607 17.1342L7.61804 16.8692L7.42108 16.7032L7.37305 16.6622L7.36005 16.5132L7.26105 16.3962L7.07507 16.3102L6.93207 16.1552L6.83008 15.9302L6.85205 15.7182L6.99707 15.5193L7.18304 15.4323L7.40906 15.4593L7.50305 15.4023L7.46509 15.2632L7.24408 15.0843L6.83905 14.8672L6.42706 14.9852L6.00604 15.4392L5.70404 15.5122L5.51807 15.2072L5.18805 15.0242L4.71307 14.9673L4.42108 14.8503L4.31207 14.6732L4.10406 14.5372L3.64606 14.3922L3.64008 14.2542L3.71405 14.2213L3.87708 14.2083L4.09503 14.1792L4.13007 14.1003L4.13208 14.0283L3.96008 13.9373L3.78705 13.8752L3.69604 13.8132L3.63806 13.7442L3.62604 13.6722L3.67706 13.6232L3.74707 13.6202L3.81604 13.5772L3.85504 13.4102L3.94904 13.2722L4.01605 13.2242L4.01208 13.1223L3.94208 13.0273L3.84705 12.9453L3.70703 12.8952L3.27106 12.7513L3.05109 12.5512L2.91608 12.5432L2.70306 12.4323L2.47308 12.2582L2.27307 12.0103L2.05804 11.8492L2.00208 11.7832L1.99707 11.7213L2.03705 11.6512L2.03503 11.5753L1.97906 11.3322L2.01709 11.0742L2.00708 10.8312L2.00409 10.7222L1.96204 10.6882L1.92505 10.7253L1.87207 10.7712L1.82007 10.7802L1.66107 10.6032L1.46008 10.2422L1.32404 10.1212L1.05908 9.95523L0.835083 9.81525L0.675049 9.51324L0.508057 9.27924L0.618042 9.18124L1.25507 9.04324L1.55206 9.17825L1.68506 9.12924L1.81409 9.02023L1.88605 8.93225L1.89905 8.83923L1.96307 8.72324L2.17804 8.66824L2.74805 8.73926L2.97705 8.57623L3.06207 8.48825L3.11407 8.29224L3.17407 8.13425L3.37805 8.05023L3.37506 7.90625L3.34406 7.75024L3.46204 7.39923L3.53406 7.25525L3.65009 7.20325L3.78906 7.09225L4.03107 6.86224L3.97504 6.66223L4.02307 6.51324L4.27509 6.15125L4.46704 5.80124L4.46405 5.62524L4.49207 5.47223L4.66205 5.30423L4.84009 5.08524L5.07507 4.39923L5.16003 4.28424L5.31409 4.15326L5.42908 4.02325L5.44104 3.57126L5.54907 3.44025L5.75604 3.29324L5.96204 3.05725L6.12909 2.77725L6.25806 2.64624L6.42908 2.61124L6.61407 2.50125L6.82104 2.46024L7.02203 2.51425L7.14905 2.48624L7.34204 2.35025L7.83307 1.83426L7.90204 1.73123L8.00409 1.66025L8.40204 1.48325L8.50305 1.30524L8.64008 1.14523L8.81708 1.15726L9.39508 1.55325L10.0131 1.52826L10.126 1.54324L10.1631 1.55124L10.2391 1.58325L11.061 1.77924L11.188 1.75723L11.2231 1.74225L11.5541 1.90326L11.847 1.88223L12.1251 1.77023L12.4141 1.73224L12.6801 1.79926L12.8821 2.02625L13.407 2.50824L13.563 2.68823L13.803 2.66125L14.069 2.57126L14.3381 2.25024L15.165 1.88425L15.7961 1.79324L16.412 1.64624L17.1251 1.54224L17.3311 1.24225L17.4451 1.03723L17.5261 0.657257L17.91 0.547241L18.2751 0.469238L18.4051 0.421234L18.6711 0.40625L18.8781 0.438232L19.1971 0.626251L19.4211 0.861237L19.509 1.04825L19.7001 1.31226L19.9011 1.68124L20.123 2.17224L20.1711 2.41925L20.2551 2.68726L20.42 3.01224L20.735 3.37225L20.7791 3.43924L20.9221 3.69223L21.1981 4.25125L21.4291 4.47424L21.6301 4.71725L21.7271 4.96124L21.871 5.18225L22.209 5.47525L22.483 5.74124L22.7021 6.50424L22.855 6.85425L22.9531 7.12125L22.9061 7.66125L22.967 7.89224L22.842 8.31323L22.6161 9.15726L22.561 9.82724L22.6 10.1873L22.605 10.4182L22.66 10.5652L22.72 10.8692L22.7291 11.1332L22.6481 11.2083L22.535 11.2712L22.4911 11.3262L22.595 11.4453L22.7371 11.6662L22.8771 11.9193Z" fill="#CCCCCC" stroke="white" stroke-width="0.5"/>
</svg>
