<svg width="13" height="17" viewBox="0 0 13 17" fill="none" xmlns="http://www.w3.org/2000/svg">
<path d="M3.05634 1.10419L3.39331 1.12817L3.64532 1.06519L4.28229 1.14517L4.41931 1.20819L4.5083 1.27917L4.67529 1.51318L4.83533 1.81519L5.05933 1.95517L5.32428 2.12119L5.46033 2.24219L5.66132 2.60318L5.82031 2.78018L5.87231 2.77118L5.92529 2.72519L5.96228 2.68817L6.00433 2.72217L6.00732 2.83118L6.01733 3.07419L5.97931 3.33218L6.03528 3.5752L6.03729 3.65118L5.99731 3.72119L6.00232 3.78317L6.05829 3.84918L6.27332 4.01019L6.47333 4.25818L6.70331 4.43219L6.91632 4.54318L7.05133 4.55118L7.2713 4.75119L7.70728 4.89517L7.84729 4.94519L7.94232 5.02719L8.01233 5.12219L8.0163 5.22418L7.94928 5.27219L7.85529 5.41019L7.81628 5.57718L7.74731 5.62018L7.67731 5.62317L7.62628 5.67218L7.63831 5.74417L7.69629 5.81317L7.78729 5.87518L7.96033 5.93719L8.13232 6.0282L8.13031 6.10019L8.09528 6.17917L7.87732 6.20819L7.71429 6.22119L7.64032 6.25418L7.6463 6.39218L8.10431 6.53717L8.31232 6.67319L8.42133 6.85019L8.71332 6.96719L9.18829 7.02417L9.51831 7.20718L9.70428 7.51218L10.0063 7.43918L10.4273 6.98517L10.8393 6.86719L11.2443 7.0842L11.4653 7.26318L11.5033 7.40219L11.4093 7.4592L11.1833 7.43219L10.9973 7.5192L10.8523 7.71817L10.8303 7.93018L10.9323 8.15518L11.0753 8.31018L11.2613 8.39618L11.3603 8.51318L11.3733 8.66217L11.4213 8.70319L11.3153 8.77118L11.2013 8.87317L11.1363 9.05118L11.1193 9.33618L10.7593 9.55917L10.6243 9.60019L10.5633 9.74817L10.4683 10.1652L10.4793 10.4782L10.5283 10.6372L10.5503 10.7672L10.6673 10.9262L10.7733 11.1702L10.8433 11.4922L10.9993 11.7402L11.3983 11.9842L11.5963 12.1262L11.7433 12.3322L11.8553 12.5182L12.1843 12.7652L12.1593 12.9412L12.0873 13.1132L12.0113 13.1942L11.8473 13.4152L11.6873 13.5392L11.4243 13.9282L11.0093 13.9492L10.9103 13.9802L10.7523 14.0862L10.6753 14.2802L10.7493 14.4362L10.7423 14.5932L10.6673 14.8982L10.7673 15.2252L10.9143 15.3742L10.9373 15.4602L10.9123 15.6122L10.6933 15.9222L10.6273 16.0372L10.4083 16.0932L10.3333 16.0642L10.2203 15.9582L10.1153 15.9262L9.85431 16.0512L9.58832 16.1282L9.37933 16.0702L9.17328 16.0632L9.03033 16.1142L8.9223 16.1342L8.71033 16.2682L8.37128 16.3652L8.21429 16.3442L8.15631 16.2182L8.09229 16.0392L8.12329 15.9572L8.34833 15.8152L8.37329 15.6802L8.68732 15.0262L8.74731 14.8132L8.74933 14.7442L8.6673 14.6972L8.4953 14.6992L7.7323 14.4332L7.76733 14.1282L7.54333 13.9632L7.30133 13.8162L7.26129 13.6522L6.99231 13.3202L6.79633 13.1342L6.54529 13.0412L6.32928 12.9042L6.19928 12.8202L6.1413 12.6652V12.5732L6.07629 12.4842L5.97229 12.4942L5.79529 12.6182L5.57831 12.7242L5.54028 12.8022L5.61932 12.9852L5.67529 13.1032L5.64929 13.2132L5.5813 13.3542L5.16333 13.6642L5.11633 13.7732L5.19629 13.9472L5.14532 14.0272L4.79633 14.1422L4.8053 14.0472L4.78333 13.8942L4.58331 13.7312L4.30029 13.6052L3.6723 13.1722L3.43134 13.1152L3.21533 13.0642L2.90631 12.8572L2.74731 12.8202L2.57129 12.6722L2.18732 12.1702L1.86029 11.8962L1.63733 11.7582L1.57428 11.6232L1.56128 11.4842L1.5683 11.4372L1.7373 11.2392L1.86731 11.2112L2.0343 11.2042L2.14532 11.3042L2.28931 11.3262L2.3703 11.1982L2.41229 11.0142L2.39331 10.7792L2.04431 10.2322L1.7453 9.85019L1.71033 9.7652L1.77533 9.69318L1.88031 9.65518L1.99231 9.68719L2.2843 9.71518L2.56531 9.67917L2.66132 9.58618V9.46017L2.55933 9.34317L2.23029 9.0282L1.9743 8.75018L1.6723 8.53619L1.44928 8.4502L1.3833 8.34119L1.35529 8.22519L1.38031 8.01218L1.39532 7.74017L1.44733 7.57019L1.64929 7.24719L1.84229 6.90417L1.9613 6.57419L2.02429 6.26718L2.00128 6.17819L1.90033 6.11319L1.68829 6.04617L1.39233 6.10419L1.1413 6.21619L1.04333 6.22519L1.01031 6.08719L1.04932 6.02618L1.1283 6.03418L1.1933 6.06018L1.26233 5.99719L1.30432 5.81219L1.19928 5.16418L1.38733 5.10718L1.39032 5.01318L1.40729 4.93018L1.60132 5.04318L1.87329 5.0452L2.1123 5.02219L2.14832 4.95819L2.1463 4.86618L2.09631 4.79318L2.01129 4.73517L1.95032 4.64517L1.78931 4.60519L1.2843 4.37119L1.03632 4.12219L1.04431 3.85718L1.11633 3.71219L1.20331 3.66119L1.17731 3.61218L0.893311 3.4892L0.792297 3.31818L0.875305 3.09918L0.727295 2.65219L0.571289 2.3772L0.724304 2.25818L0.7453 2.0882L0.757324 1.99118L0.820312 1.99319L1.06732 1.87918L1.15729 1.78717L1.20929 1.67819L1.26831 1.65118L1.43329 1.7692L1.60828 1.77917L1.80328 1.70517L1.95032 1.60217L2.12531 1.51617L2.20532 1.45718L2.30731 1.36517L2.51233 1.09119L2.7453 1.03418L3.05634 1.10419Z" fill="#CCCCCC" stroke="white" stroke-width="0.5"/>
</svg>
