<svg width="7" height="6" viewBox="0 0 7 6" fill="none" xmlns="http://www.w3.org/2000/svg">
<path d="M5.32452 0.645782L5.23248 0.688782L5.2135 0.823792L5.31952 1.03879L5.66754 1.48279L5.88849 1.56378L6.03253 1.73679L6.1745 2.0278L6.21649 2.39279L6.15753 2.83078L6.1925 3.15579L6.3205 3.36978L6.35352 3.64679L6.29352 3.98679L6.21948 4.1908L6.13251 4.25879L6.03351 4.28378L5.89954 4.26077L5.73651 4.28979L5.55951 4.35379L5.44751 4.36279L5.3775 4.3508L5.2475 4.29578L5.04053 4.11978L4.65454 4.2168L4.5495 4.21478L4.40851 4.2988L4.29254 4.40179L4.22351 4.40878L4.15149 4.39478L3.81952 4.18777L3.69751 4.19379L3.64752 4.77679L3.59253 5.10178L3.5235 5.24579L3.28552 5.3848L3.04651 5.46378L2.91553 5.4588L2.38849 5.5018L2.1825 5.50278L2.06848 5.45578L1.92053 5.12479L1.64154 4.97778L1.37354 4.90878L1.26453 4.9278L1.16754 5.1008L1.1275 5.2558L0.867493 5.14978L0.78949 5.0188L0.782532 4.79678L0.6875 4.4928L0.74054 4.3638L0.842529 4.27979L1.05853 4.11978L1.38654 3.89679L1.45648 3.79178L1.5025 3.61478L1.48151 3.2038L1.4505 2.85678L1.4895 2.7338L1.63953 2.46579L1.83954 2.1908L2.07452 1.90079L2.21552 1.87277L2.40051 1.76379L2.5965 1.6008L2.70648 1.53979L2.79852 1.53778L3.4035 1.3938L3.4635 1.43878L3.56152 1.71777L3.61353 1.75879L3.69751 1.7688L3.86749 1.70477L4.17853 1.48578L4.31451 1.35379L4.47449 1.16678L4.6795 0.956787L4.79352 0.772797L4.90454 0.665771L5.05054 0.633789L5.21252 0.642792L5.32452 0.645782Z" fill="#CCCCCC" stroke="white" stroke-width="0.5"/>
</svg>
