<svg width="61" height="50" viewBox="0 0 61 50" fill="none" xmlns="http://www.w3.org/2000/svg">
<path d="M34.2897 10.7811L34.8317 10.8501L35.5547 10.9421L35.9937 11.0051L36.8197 11.1221L37.0667 11.6061L37.1567 11.9451L37.2397 12.2751L37.4877 12.5761L38.0507 12.5691L38.5497 12.5631L39.1647 12.5531L39.6527 12.5461L39.8097 12.8451L39.8787 13.1431L40.1687 13.8481L40.5827 14.3971L40.6817 14.5971L40.7477 14.8981L40.6757 15.0101L40.6477 15.1391L40.9547 15.4391L41.4607 15.6931L41.6587 15.7571L41.8837 15.8691L41.7087 16.0421L42.0077 16.4421L42.3547 16.8491L42.7267 16.9411L43.2287 17.5551L43.9857 17.9521L44.4447 18.4721L44.4017 18.4821L44.2667 18.4291L44.0977 18.3581L44.0467 18.4221L44.0557 18.6401L44.1007 18.8961L44.3347 19.1171L44.5427 19.2761L44.6237 19.5771L44.4597 20.2241H44.4027L44.2927 20.1681L44.1757 20.1551L44.1127 20.1921L44.2517 20.6571L44.3907 21.0131L44.5567 21.2951L44.6957 21.7071L44.8147 21.8831L45.3017 22.3201L45.4517 22.6851L45.5907 23.3641L45.8967 23.7421L46.0617 24.0331L46.2827 24.2801L46.4267 24.6171L46.6307 24.8761L46.7367 24.9411L46.8957 24.9681L47.0937 24.9691L47.3307 24.9021L47.5837 24.8391L47.7807 24.9701L47.9847 24.9501L48.0057 25.0721L47.8687 25.2381L47.7007 25.6561L47.9397 25.7221L48.1687 25.7551L48.3307 25.8221H48.4257V25.9091L48.4367 26.3051L48.4937 26.4561L48.5977 26.5901L48.7517 26.7901L48.9057 26.9901L49.0597 27.1901L49.2137 27.3901L49.3677 27.5901L49.5227 27.7901L49.6767 27.9891L49.8307 28.1891L49.9847 28.3881L50.1387 28.5871L50.2927 28.7861L50.4467 28.9851L50.6007 29.1841L50.7547 29.3831L50.9097 29.5821L51.0637 29.7801L51.1907 29.9441L51.4267 29.9751L51.5017 29.9851L51.7147 30.0131L52.0447 30.0561L52.4727 30.1131L52.9797 30.1801L53.5447 30.2541L54.1497 30.3341L54.7737 30.4161L55.3987 30.4981L56.0027 30.5781L56.5677 30.6531L57.0747 30.7191L57.5037 30.7761L57.8337 30.8191L58.0467 30.8471L58.1217 30.8571L58.3447 30.8861L58.3867 30.8791L58.5737 30.6361L58.7797 30.9791L58.9507 31.2631L59.1847 31.6531L59.4347 32.0671L59.6727 32.4631L59.8507 32.7571L59.7557 33.0621L59.6527 33.3951L59.5497 33.7281L59.4467 34.0601L59.3427 34.3921L59.2397 34.7241L59.1367 35.0561L59.0337 35.3871L58.9307 35.7181L58.8267 36.0491L58.7237 36.3801L58.6207 36.7101L58.5177 37.0401L58.4137 37.3701L58.3107 37.7001L58.2077 38.0291L58.1047 38.3581L57.9807 38.7541L57.6817 38.8591L57.1997 39.0291L56.7167 39.1991L56.2347 39.3691L55.7527 39.5391L55.2697 39.7091L54.7877 39.8781L54.3057 40.0481L53.8227 40.2181L53.3407 40.3871L52.8577 40.5561L52.3757 40.7261L51.8937 40.8951L51.4107 41.0641L50.9287 41.2331L50.4457 41.4021L49.9637 41.5711L49.5677 41.7101L48.9087 41.8031L48.2687 41.8931L47.5487 41.9951L46.6837 42.1181L46.0047 42.2141L45.0147 42.3541L44.1257 42.4791L43.2927 42.5971L42.4597 42.7151L41.7507 42.8151L41.3277 42.9311L40.8307 43.1861L40.0677 43.5771L39.2897 43.9741L38.8867 44.1801L38.4647 44.7081L38.2507 44.9751L37.8647 45.4581L37.5727 45.8221L37.2237 46.2571L37.0717 46.6431L36.8367 47.2391L36.6337 47.3891L36.3017 47.5831L35.9997 47.7211L35.5287 47.7011L35.2597 47.3351L34.9747 46.9461L34.8317 46.7901L34.7037 46.7821L34.2307 46.8311L33.6607 46.8911L32.9887 46.8281L32.2137 46.7541L31.4867 46.6851L31.1247 46.6331L30.6477 46.3811L30.5247 46.3311L30.3997 46.3191L29.8337 46.3131L29.2727 46.3071L28.7107 46.3871L28.1727 46.3581L27.6147 46.4041L27.4187 46.5001L27.2007 46.4951L27.0647 46.5801L26.9447 46.6201L26.8027 46.5471L26.6287 46.5631L26.3727 46.5001L26.2057 46.3351L26.0477 46.1901L25.8847 46.1101L25.7027 46.0601L25.5447 46.0591L25.3427 46.1471L25.2197 46.2321L24.9077 46.5171L24.8947 46.6191L25.0367 46.7891L24.9937 46.8691L24.8097 46.9691L24.7527 47.2381L24.7257 47.3851L24.6987 47.7371L24.7807 48.0141L24.8897 48.1161L24.8947 48.2351L24.8347 48.4731L24.6657 48.5461L24.5417 48.7721L24.4657 48.8771L24.3337 48.9971L23.8087 49.3961L23.7827 49.1641L23.6157 48.8201L23.6037 48.5771L23.5257 48.3331L23.3817 48.1451L23.1157 47.9491L23.0917 47.6831L22.8977 47.4201L22.6407 47.2081L22.4977 46.8161L22.3897 46.2951L21.7117 45.6091L20.8637 44.9751L20.6057 44.6181L20.1837 43.8891L19.9707 43.3121L19.4037 42.6471L19.3797 42.3911L19.2957 42.0791L19.1647 41.7311L19.0857 41.4571L18.5167 40.2511L18.3327 40.0591L18.1747 39.7891L18.1337 39.5801L18.0837 39.4661L17.6817 39.2681L17.3067 38.7601L16.1797 37.9501L15.6277 37.8691L15.1907 37.5791L14.8687 37.2001L14.5257 36.5461L13.9217 35.8381L13.4097 34.8321L13.5707 34.4651L13.5607 34.2071L13.4027 33.7721L13.2317 33.4361L13.1137 33.1181L13.2067 32.6611L13.2427 32.1491L13.3437 31.8771L13.4167 31.5781L13.3217 30.9761L13.1517 30.6531L13.1687 30.4381L12.9757 30.3331L12.8197 30.0991H12.9827L12.6867 29.7741L12.5777 29.5931L12.4657 29.1511L12.3227 28.8131L11.8637 28.0451L11.6437 27.5761L11.1517 26.9691L10.6177 26.5201L10.2787 26.3161L10.1147 26.1301L9.83771 26.1241L9.53571 25.8581L9.32471 25.8481L9.05768 25.8051L8.74371 25.2921L8.48468 24.8111L8.04272 24.1841L8.15369 24.0201L8.28271 23.7531L8.21869 23.4031L8.14868 23.1651L7.95367 22.7311L7.31268 21.6491L7.1427 21.4901L6.86969 21.3071L6.70172 20.8371L6.62469 20.4151L6.18567 20.2101L5.43073 18.6841L4.99268 18.1491L4.8197 17.7891L4.31372 17.1961L4.0647 16.6051L3.55469 16.0591L3.11267 15.1101L2.42969 14.1591L2.1427 13.9941L1.43872 13.9261L1.1427 13.8561L0.870667 14.0651L0.84668 13.8001L1.03467 13.4331L1.30573 12.6611L1.35968 11.9831L1.78571 9.96109L2.38367 10.0651L2.87567 10.1511L3.59467 10.2771L4.33868 10.4071L4.77368 10.4831L4.92267 10.4501L5.52472 9.9541L6.06671 9.5061L6.39172 8.95709L6.70569 8.4241L6.84967 8.31409L7.33167 8.21408L8.09668 8.05508L8.8537 7.8981L8.91467 7.84409L9.0907 7.4151L9.3147 6.87009L9.36072 6.81308L9.41571 6.75708L9.9577 6.45108L10.2867 6.26511L9.81769 5.71609L9.37567 5.19708L8.8797 4.61508L8.45972 4.1611L7.83069 3.48108L7.4187 3.0351L8.13971 2.82309L8.91968 2.59409L9.70667 2.3631L10.6537 2.08508L11.3947 1.8671L12.5007 1.54108L13.0417 1.38208L13.1397 1.34009L13.5557 0.954102L14.1817 1.0621L15.1227 1.2251L16.0317 1.3811L16.9897 1.5661L17.2967 1.71609L18.2217 2.2681L18.8227 2.6261L19.5247 3.04309L20.4017 3.56409L21.0037 3.92108L21.7747 4.37808L22.3757 4.89908L23.1367 5.55811L23.9727 6.28009L24.6607 6.84009L25.6087 7.61008L26.5427 8.3671L27.4577 9.10608L28.1897 9.69708L29.1167 10.4431L29.1887 10.4711L30.1257 10.5551L31.3847 10.6691L32.6497 10.7831L33.7917 10.8861L34.2897 10.7811ZM6.40369 21.4231L6.37769 21.4651L6.2597 21.3561L6.26672 21.1171L6.36871 20.9811L6.36072 21.1671L6.40472 21.3551L6.40369 21.4231ZM7.26367 22.4431H7.1897L6.99268 22.2341L6.87769 22.0801L6.7597 21.9761L6.22168 21.7671L6.14868 21.6321L6.23071 21.4971L6.2887 21.6311L6.38672 21.7101L6.83167 21.8991L7.3277 22.3111L7.41272 22.3451L7.26367 22.4431ZM21.5377 48.3881L21.7547 48.4051L21.6647 48.3121L21.6457 48.2671L21.7397 48.1331L22.0497 48.4091L22.0407 48.7361L22.0147 48.8111L21.9307 48.7411L21.8757 48.6721L21.8587 48.5981L21.7727 48.5181L21.4707 48.5701L21.2827 48.4811L21.0137 48.2061L20.9417 48.0071L21.0537 47.9681L21.1727 47.8721L21.2477 47.7151L21.1787 47.5521L21.3387 47.5781L21.4247 47.7451L21.4417 48.1241L21.4657 48.2041L21.4217 48.2911L21.5377 48.3881Z" fill="#CCCCCC" stroke="white" stroke-width="0.5"/>
</svg>
