<svg width="49" height="41" viewBox="0 0 49 41" fill="none" xmlns="http://www.w3.org/2000/svg">
<path d="M28.0101 1.5L27.9201 1.76801H28.4451H29.3661H30.2871H31.2081L32.1292 1.767H33.0491H33.9701H34.8911H35.8121H36.7331H37.6531L38.5751 1.76599H39.4951H40.4161H41.3371H42.2581L43.1791 1.76501L43.2101 2.45099L43.3341 2.99799L43.7681 3.77899L44.1341 4.19901L44.2661 4.42999L44.2781 4.53699L44.2611 4.63699L44.1501 4.522L43.9621 4.444L43.9361 4.80899L43.9791 5.06799L44.0241 5.55499L44.1781 6.077L44.0671 6.55899L44.0821 7.375L44.2761 8.35101L44.2371 8.97299L44.5541 10.421L44.8621 11.223L45.0311 11.42L45.2221 11.526L45.5881 11.594L46.1271 12.001L46.5541 12.431L46.7061 12.656L46.9121 12.902L47.0541 12.858L47.1411 12.792L47.2802 12.991L47.9571 13.42L48.0571 13.619L47.8131 13.814L47.5321 14.15L47.4611 14.284L47.4281 14.363L47.3951 14.463L47.3211 14.562L47.1601 14.698L47.0961 14.757L47.0581 14.851L46.9611 14.912L46.8551 14.915L46.7631 14.957L46.6241 15.021L46.4171 14.988L46.2061 15.047L46.1292 15.121L45.9611 15.186L45.7941 15.2L45.7351 15.222L45.5771 15.331L45.3831 15.484L45.1561 15.581L45.0761 15.613L44.9721 15.718L44.8111 16.242L44.6931 16.379L44.4951 16.393H44.2381L44.0151 16.438L43.7121 16.38L43.5651 16.387L43.5261 16.499L43.4721 16.948L43.4791 17.141L43.3591 17.368L43.2251 17.653L43.2741 18.133L43.2971 18.608L43.0511 19.322L43.0161 19.486L42.7672 20.051L42.6391 20.262L42.3211 21.316L42.1971 21.64L41.9312 21.981L41.9911 22.536L42.0551 23.123L42.1151 23.677L42.2051 24.504L41.9791 25.276L41.9881 25.697L41.8301 26.317L41.7051 26.604L41.5941 26.773L41.5011 26.949L41.3291 27.335L41.1831 27.844L41.1181 28.365L41.1131 28.668L41.0841 28.806L41.0351 28.894L40.6981 28.951L40.2291 29.013L39.9771 29.081L39.8081 29.187L39.6001 29.434L39.1881 30.11L38.9731 30.524L38.6351 31.09L38.2421 31.49L38.1591 31.685L38.0941 32.047L37.9491 32.62L37.8161 33.026L37.8401 33.354L37.7161 33.921L37.7341 34.197L37.5961 34.351L37.4111 34.497L37.2851 34.534L37.0151 34.367L36.8091 34.198L36.7251 34.153L36.5461 34.259L36.3311 34.416L36.0851 34.782L35.8941 35.152L36.0042 35.937L35.9941 36.108L35.9381 36.295L35.6401 36.879L35.5661 37.064L35.4581 37.414L35.3431 38.025L35.3391 38.172H35.3361L34.8141 38.17L34.8051 38.167L34.7971 38.158L34.7891 38.145L34.7802 38.126L34.7601 38.046L34.7491 37.921L34.7672 37.705L34.8251 37.448L35.0061 37.087L35.0151 37.057L35.0172 37.04V37.021L35.0001 36.956L34.9791 36.9L34.9691 36.816L35.0001 36.628L35.0031 36.57L34.9991 36.496L34.9851 36.448L34.8591 36.135L34.8171 36.085L33.6021 35.088L33.3801 34.817L33.3561 34.799L33.3261 34.785L32.7091 34.557L32.6791 34.534L32.6831 34.501L32.7021 34.458L32.7761 34.326L32.7861 34.292L32.7971 34.239L32.5191 32.131L32.5201 32.09L32.5321 32.062L32.5421 32.045L32.5791 32L32.6111 31.954L32.6481 31.872L32.6571 31.842L32.6961 31.464L32.6931 31.134L32.8551 30.583L32.8731 30.348L31.5331 30.331L31.5251 30.343L31.5241 30.358L31.5271 30.374L31.5291 30.392L31.5281 30.429L31.5181 30.497L31.5151 30.534L31.5161 30.57L31.5371 30.703L31.5721 30.802L31.5771 30.835L31.5791 30.871L31.5751 30.94L29.7101 30.948L30.4481 31.776L30.4571 31.793L30.4701 31.838L30.4751 31.872L30.4891 32.163L30.4501 32.623L30.4581 32.919L30.5011 33.111L30.7011 33.489L30.6881 33.56L30.6422 33.649L29.3191 34.771L29.2821 34.824L29.0981 35.292L28.9231 35.563L28.8461 35.641L28.5391 36.022L27.3321 37.217L27.1341 37.297L26.5331 37.33L26.2151 37.339L26.1791 37.348L26.1251 37.368L26.0921 37.399L26.0531 37.422L26.0141 37.41L25.9691 37.377L25.2271 36.708L23.9031 35.863L23.7761 35.94L23.0271 36.304L22.8731 36.398L22.7871 36.465L22.7831 36.872L22.6521 37.078L22.4161 37.304L21.7681 37.447L21.4312 37.569L21.0861 37.752L21.0302 37.798V37.797L20.8981 37.924L20.6371 38.179L20.6091 38.377L20.6511 38.555L18.4182 38.548L18.2711 38.406L17.9611 37.782L17.9471 37.776L17.7191 37.815L15.6831 37.742L15.3922 37.807L14.8101 38.065L14.5172 38.108L14.2151 37.99L13.1441 36.746L12.9131 36.597L12.8281 36.517L12.6701 36.299L12.4411 36.169L12.3641 36.075L12.3391 35.942L12.3461 35.668L12.2711 35.497L12.1021 35.458L10.6621 35.747L10.4561 35.714L10.1541 35.766L10.0501 35.817L9.9281 35.981L9.90314 36.151L9.9071 36.323L9.87012 36.492L9.76013 36.681L9.3501 37.103L9.25909 37.287L9.27814 37.751L9.2511 37.986L9.18915 38.095L9.01111 38.273L8.94611 38.376L8.91614 38.521L8.90613 38.827L8.87415 38.97L8.65015 39.33L8.59711 39.457L8.58411 39.716L8.5481 39.795L7.89709 40L7.65411 40.131L7.50513 40.333L7.46912 40.419L7.19012 40.347L6.83612 40.295L6.15515 40.231L5.88611 40.137L5.75714 39.996L5.7981 39.636L5.7301 39.559L5.62213 39.495L5.54712 39.339L5.56311 39.152L5.92212 38.736L5.99609 38.514L6.0531 37.741L6.09015 37.469L6.06311 37.15L5.77814 36.563L5.53015 36.155L5.12512 35.55L4.9671 35.352L4.14911 34.518L4.05414 34.394L3.85614 34.041L3.9541 33.73L4.0741 33.268L4.08813 33.054L4.0321 32.833L3.82513 32.667L3.64111 32.647L3.55914 32.563L3.39911 32.441L3.24115 32.346L3.10114 32.164L3.00415 31.909L3.07312 30.996L3.02612 30.874L2.81714 30.84L2.76813 30.774L2.77612 30.599L2.66412 30.078L2.53815 29.646L2.6051 29.408L2.43115 29.082L2.09711 28.942L1.7821 28.985L1.44409 29.05L1.24011 29.032L1.10114 28.971L1.00214 28.852L0.952148 28.71L0.998108 28.498L1.18414 28.108L1.4151 27.788L1.88611 27.495L2.01111 27.34L2.08313 27.167L2.09509 26.969L2.06311 26.76L2.01013 26.569L1.87109 26.316L1.74414 26.018L1.74115 25.818L1.80212 25.674L1.9281 25.5L2.1781 25.304L2.2381 25.265L2.39514 25.16L2.5321 25.083L2.87415 24.877L2.9541 24.778L2.92511 24.659L2.84113 24.562L2.70312 24.426L2.67511 24.259L2.63513 23.974L2.56415 23.792L2.51312 23.659L2.61011 23.559L2.75513 23.42L2.9361 23.335L3.21515 23.263L3.32513 23.163L3.35712 22.973L3.34814 22.791L3.4491 22.656L3.58411 22.366L3.69312 22.234L3.8761 22.083L4.05914 21.894L4.14014 21.674L4.16315 21.463L4.06311 20.821L4.27411 20.553L4.54413 20.331L4.93213 20.346L5.53412 20.297L5.94409 20.205L6.23615 20.208L6.90314 20.328L6.95813 20.299L6.97314 20.275L7.00909 20.105L7.00812 19.677L7.00714 18.381L7.0061 17.083L7.00513 15.782L7.00415 14.477L7.00311 13.169L7.00214 11.858L7.0011 10.543L7.00012 9.22501V8.85501V8.48599V8.116V7.745L7.69214 7.746H8.38513H9.07715L9.7691 7.74701L9.77814 7.741L9.78711 7.73599L9.7951 7.73001L9.80414 7.72601L9.80511 6.24399V4.75699L9.80615 3.26501V1.76801H10.8781L11.9511 1.76901H13.0231H14.0951H15.1671H16.2391H17.3121L18.3841 1.76999H19.4561H20.5281H21.6001H22.6721L23.7441 1.771H24.8161H25.8891H26.9611H27.2881L27.4321 1.74899L27.7071 1.18799L27.8241 1.146L28.0031 1.17899L28.0651 1.311L28.0101 1.5Z" fill="#CCCCCC" stroke="white" stroke-width="0.5"/>
</svg>
