<svg width="38" height="85" viewBox="0 0 38 85" fill="none" xmlns="http://www.w3.org/2000/svg">
<path d="M37.4916 23.986L36.7476 24.144L36.1886 23.827L35.9095 23.986L35.4225 23.993L34.8686 24.118L34.6816 24.365L34.5345 24.464L34.0215 24.115L33.5366 23.536L33.1826 23.977L32.9536 24.06L32.7466 23.661L32.5666 23.596L32.4695 23.729L32.3846 24.082L32.2486 24.359L32.2126 24.534L32.1896 25.238L32.1546 25.401L31.6836 25.31L31.7115 25.495L31.8146 25.588L31.8566 25.705L31.6855 25.858L31.2186 25.843L31.1706 26.006L31.3016 26.262L31.1985 26.487L31.1036 26.575L30.5446 26.714L30.2216 26.682L30.1286 26.827L30.1036 27.015L30.1646 27.2L30.3076 27.298L30.3546 27.415L30.3445 27.668L30.2256 27.714L29.8896 27.269L29.7866 27.292L29.8636 27.523L30.0556 27.775L30.1666 28.032L30.2635 28.34L30.2446 28.574L29.8266 29.326L29.4586 29.799L29.1846 30.224L29.0226 30.674L29.2106 30.9L29.4186 31.226L29.5656 31.851L29.7406 32.407L30.0936 32.936L30.0226 33.241L29.9406 33.478L29.3536 33.999L28.6876 34.781L27.9695 36.765L27.7306 37.03L27.1026 37.363L26.8716 37.685L26.4036 38.067L25.5865 38.395L25.2166 38.851L25.0496 39.321L24.8636 39.355L24.6786 39.171L24.4326 39.034L24.4006 39.341L24.4116 39.566L24.0176 39.233L23.8315 39.539L23.6866 40.048L23.1196 40.732L22.5085 40.609L22.4406 40.729L22.6026 40.816L22.6276 40.925L22.5166 40.983L22.3486 40.977L22.0896 41.112L21.9196 41.102L21.8386 41.424L21.7065 41.813L21.3616 41.974L21.1836 42.007L21.0956 42.228L21.6266 42.274L21.5846 42.461L21.5726 42.648L21.5176 42.848L20.9136 43.136L20.8206 43.362L20.6946 43.502L20.4256 43.494L20.4355 43.364L20.4796 43.217L20.0796 43.23L19.9546 42.905L19.8786 42.988L19.9236 43.25L20.0276 43.522L20.1446 43.921L20.0496 44.172L19.9446 44.297L20.0215 44.412L20.2346 44.5L20.3206 44.657L20.0676 44.791L19.7516 45.251L19.4236 45.262L19.2236 45.566L19.0106 45.565L18.8376 45.374L18.5605 45.217L18.4716 45.493L18.4576 45.713L18.6136 46.268L18.9116 46.696L19.1876 46.881L18.9886 47.006L18.8406 47.282L18.6616 48.142L18.5646 48.48L18.4596 49.074L18.5256 49.574L18.5796 49.819L18.7146 50.152L18.3476 50.109L17.9596 49.915L18.0135 50.318L17.7756 50.794L17.8196 51.212L17.8696 51.483L17.7956 51.932L17.9076 52.073L17.9686 52.34L17.8676 52.537L17.9116 52.706L17.9286 53.303L18.0046 54.234L17.9766 54.43L18.1896 55.234L18.1406 55.515L18.1116 55.872L18.4176 56.215L18.6896 56.21L18.9656 56.205L19.0706 56.29L19.1766 56.532L19.2616 56.818L19.4886 56.795L19.8516 56.563L20.0876 56.508L20.2436 56.954L20.6676 57.542L20.9146 57.805L21.3336 57.944L21.7756 58.416L21.7136 58.984L21.8976 59.173L22.4186 59.396L22.6036 59.697L22.6926 59.953L22.8296 60.165L22.9906 60.804L22.9346 61.197L22.7245 61.332L22.2276 61.752L22.0066 62.065L21.8336 62.259L21.3406 62.676L21.1595 62.751L20.9866 62.967L20.8196 63.062L20.6696 63.008L20.1096 63.399L19.7316 63.291L19.5726 63.098L19.6736 62.33L19.6106 62.082L19.5376 61.957L19.2896 62.1L19.3336 62.394L18.9046 62.406L18.5005 62.157L18.4485 62.647L17.5806 62.241L17.3416 62.344L16.9586 62.14L16.7096 62.384L16.4136 62.296L16.2086 62.006L15.9246 62.516L15.3046 62.661L14.7216 62.742L15.0026 62.912L16.3105 62.88L16.6806 63.006L17.1616 62.922L17.5876 63.322L17.8946 63.418L18.2576 63.877L18.4435 63.752L18.7356 63.771L19.0056 63.902L19.8625 63.885L20.1536 63.565L20.5826 63.635L20.8016 63.552L20.9695 63.356L21.1536 63.311L21.3206 63.348L21.4986 63.193L21.6385 63.131L21.7826 63.206L21.9435 63.577L21.6096 63.769L21.3726 63.778L21.2566 64.384L21.1136 64.644L21.0106 64.769L20.4856 65.026L20.1385 65.351L19.7296 65.612L19.5516 65.555L19.2826 65.82L18.6855 66.133L18.3786 66.555L17.6916 66.931L17.3416 67.237L16.3906 67.253L15.4825 67.186L15.1976 67.331L15.4896 67.376L15.6935 67.518L15.9386 67.458L16.5146 67.529L16.8105 67.607L17.1906 68.105L16.9116 68.281L16.4276 68.417L16.6096 69.119L16.7585 69.591L16.5626 69.875L16.5475 71.162L16.2726 71.186L16.1556 71.716L16.2416 71.986L16.2346 72.611L16.2916 72.995L16.4266 73.348L16.3666 73.715L15.9316 74.572L15.9406 74.973L16.0196 75.211L16.0776 75.59L15.8796 76.317L15.7406 76.922L15.5746 77.43L15.2036 78.037L15.0186 78.49L14.5865 79.897L14.3726 80.175L14.1096 80.388L13.8166 80.191L13.5475 80.084L13.2195 80.097L12.7056 80.259L11.9326 80.151L11.1776 80.203L10.9866 80.342L11.1016 80.849L10.8226 80.915L10.5506 80.771L10.3105 80.943L10.1106 81.131L9.71759 81.577L9.58557 81.851L9.55157 82.366L9.75854 82.827L9.94159 83.366L9.47058 84.013L9.20758 84.035L8.43958 83.855L7.07855 84.26L5.85657 83.94L6.00958 83.593L6.00458 83.338L6.07355 82.945L6.11456 82.542L6.10358 82.272L6.01355 81.983L5.71259 81.605L5.03357 80.324L4.83258 79.781L4.69257 79.554L4.79358 79.542L5.35358 79.834L5.48358 79.798L5.62057 79.689L5.45358 79.27L5.30957 79.081L5.21259 78.797L5.53958 78.72L5.77658 78.737L5.95056 78.417L5.84958 77.898L5.59558 77.738L5.38358 77.668L4.97656 76.848L4.55258 76.422L3.79556 74.771L3.51859 73.629L3.26157 73.738L3.13657 73.239L3.04657 72.764L3.02856 72.415L2.62457 72.215L2.60858 71.969L2.53558 70.869L2.10257 70.721L1.82257 70.101L1.77258 68.922L1.48758 68.707L1.25858 68.767L1.26956 68.474L1.32458 68.198L1.19058 67.1L1.14557 66.093L1.03757 65.787L0.975586 65.429L1.03058 65.119L1.11258 64.94L1.39157 64.893L1.65259 65.167L1.88358 65.857L2.08759 65.947L2.36557 65.767L2.56058 65.264L2.67157 64.507L2.80157 63.782L2.64758 63.004L2.48358 62.318L2.47156 62.116L2.90259 61.534L3.03458 61.06L3.17758 60.607L3.33557 60.453L3.56958 60.418L3.84256 60.333L4.18658 60.029L4.49557 59.621L4.73157 59.246L4.81158 58.502L4.81458 58.127L4.91858 57.848L5.01859 57.302L4.92056 56.762L4.61557 55.94L4.24857 54.777L4.19156 54.139L4.35858 54.02L4.67758 53.914L5.28256 53.883L5.34656 53.808L5.40756 53.527L5.54459 53.146L5.68958 52.868L5.78958 52.469L5.83759 52.107L5.49158 51.56L5.03857 50.998L4.73157 50.811L4.18558 50.337L3.80157 49.94L4.02158 48.419L4.18558 47.278L4.21158 47L4.21756 46.568L3.68756 44.713L3.70859 44.298L3.75858 43.923L3.70157 43.282L3.67056 42.707L3.76157 42.532L3.97757 42.206L3.77057 41.7L3.75357 41.658L3.36359 40.4L3.95956 39.145L3.85556 38.492L4.21057 38.017L4.85858 36.925L5.22256 36.307L5.29956 36.199L5.58759 35.927L6.13458 35.604L6.7406 35.446L7.01056 35.448L8.05255 35.667L8.8656 35.837L8.98456 35.666L9.1546 35.315L9.3736 34.814L9.39258 34.255L9.3136 33.431L9.19458 32.936L8.62256 32.613L7.99554 32.17L8.7666 30.759L9.3006 29.773L9.96655 28.28L10.1736 27.655L10.3235 27.406L10.5196 25.076L10.6496 24.419L10.7585 24.074L10.7596 23.72L10.6886 23.121L10.5016 21.761L11.5536 21.592L11.8956 21.496L12.2136 21.333L12.8356 20.909L13.1406 20.533L12.9706 19.245L13.3466 18.807L14.2646 17.273L15.2566 15.792L15.7216 15.228L15.7696 14.952L15.8076 14.507L15.6006 13.805L15.3786 13.369L14.9456 12.54L15.1316 11.959L15.4506 11.846L15.8716 11.617L16.2006 11.118L16.2325 11.054L16.7886 9.078L17.8736 8.06799L18.3066 7.515L18.9806 7.931L19.9686 8.55701L20.4076 7.636L20.5526 7.293L20.6976 6.787L20.6396 5.907L20.6146 4.758L20.6586 4.29401L21.0526 4.08701L21.2646 4.034L22.3625 4.51199L22.6385 4.504L23.1566 4.56799L23.7356 4.77699L24.9485 5.33299L25.4496 5.562L25.7296 5.606L25.9716 5.34801L26.4886 4.683L25.7276 4.189L26.2286 3.688L26.4886 3.181L26.7115 2.556L26.7926 1.82201L26.7616 1.42599L26.6075 1.155L26.1426 0.479004L27.1956 0.382004L27.5605 0.354004L28.3266 0.800003L28.3606 0.897003L28.3656 1.129L28.3926 1.369L29.1356 1.976L29.3495 2.297L29.8066 2.783L29.9276 3.045L30.3506 3.351L30.6536 3.67799L31.0076 3.942L31.4206 4.35201L31.9756 4.67799L32.4435 4.784L33.6236 5.341L33.8246 5.521L34.1646 5.908L34.5085 6.354L34.7466 7.26801L35.1276 7.315L35.2316 7.62801L35.5646 8.16299L36.0266 8.634L36.0096 8.79201L35.6416 9.224L35.6016 9.808L35.6366 10.551L35.7526 11.155L35.7406 11.331L35.6496 11.539L35.5406 11.864L35.5005 12.147L35.5106 12.285L35.5475 12.361L35.7416 12.367L36.0886 12.434L36.2926 12.559L36.4086 13.246L36.3696 13.378L36.0776 13.688L35.9916 13.934L35.9836 14.294L36.0356 14.69L36.1366 15.131L36.3656 15.602L36.6756 16.093L36.8796 16.495L36.9756 16.777L37.0106 16.975L36.8716 17.223L36.7466 17.712L36.7236 18.27L36.6666 18.633L36.3946 19.132L36.2056 19.308L36.1516 19.57L36.1286 20.009L36.1846 20.543L36.2036 20.903L36.2616 21.162L36.3476 21.331L36.7845 21.628L37.0296 22.236L37.1826 22.723L37.4916 23.986ZM21.8866 62.782L21.8166 62.965L21.7455 62.741L21.7736 62.697L21.8216 62.476L21.9576 62.355L22.1746 62.428L22.1736 62.483L21.9656 62.662L21.8866 62.782ZM21.3835 65.2L21.2585 65.252L21.1966 65.236L21.2736 64.983L21.3306 64.874L21.5196 64.772L21.5776 64.79L21.3835 65.2ZM23.4615 71.128L23.4106 71.457L23.2646 71.432L23.1316 71.189L23.4006 70.818L23.8116 70.838L23.9526 70.916L23.4615 71.128ZM23.2366 71.585L23.0046 71.71L22.8686 72.081L22.6806 72.144L22.5005 72.267L22.4366 73.433L22.7656 73.874L22.5846 73.936L22.4196 74.068L22.3016 74.263L22.1806 74.682L21.7276 74.919L21.5566 75.094L21.3036 75.483L21.1716 76.046L20.9156 76.286L20.6276 76.343L20.7956 75.883L21.0166 75.507L20.8046 75.248L20.6766 74.843L20.5106 74.531L20.6426 74.182L20.5776 73.61L20.5986 73.049L20.7906 72.766L21.0106 72.535L21.3526 72.002L21.7236 71.614L22.2416 71.44L22.4756 71.601L22.5766 71.248L22.7436 71.167L22.9006 71.249L23.2366 71.585ZM16.0865 79.548L15.9416 79.802L15.8136 79.784L15.7286 79.445L15.7086 78.571L15.7596 78.137L16.3716 76.565L16.6446 76.436L17.0286 75.466L17.1326 75.032L17.2996 74.641L17.3976 74.29L17.4806 74.148L17.6595 74.214L17.7396 74.279L17.5506 74.483L17.5726 74.748L17.5596 74.857L17.0826 76.006L16.9556 76.748L16.7866 76.929L16.0865 79.548Z" fill="#CCCCCC" stroke="white" stroke-width="0.5"/>
</svg>
