<svg width="122" height="115" viewBox="0 0 122 115" fill="none" xmlns="http://www.w3.org/2000/svg">
<path d="M1.57111 114.606L1.3121 114.661L1.16309 114.471L1.5401 113.949L2.7861 112.962L3.28308 112.015L4.2431 111.688L4.30609 112.216L4.24109 112.87L3.3981 113.388L2.4631 113.738L1.57111 114.606ZM80.6381 81.1492L80.2991 81.5532L79.7911 80.9442L79.4541 80.1592L79.6331 79.8602L80.5361 79.8202L80.7571 80.2292L80.7941 80.4622L80.6381 81.1492ZM87.3421 30.2332L87.7281 30.5682L88.5631 30.4992L89.0241 32.8802L89.2831 35.3672L89.7031 35.5452L90.5041 35.2052L91.2181 35.0392L91.5841 35.2232L92.2361 35.9422L92.5171 36.4462L92.2721 36.8412L91.6751 37.2822L91.5761 38.5902L92.1771 39.0432L93.1691 40.1482L93.7281 40.2912L94.7251 39.8392L95.6611 40.6952L96.5881 41.7282L94.4211 43.0242L94.2311 43.3862L93.9311 44.3382L93.6121 45.1172L93.3171 45.5752L92.6691 46.3602L92.3201 46.6312L91.5361 46.5712L91.2421 46.8822L90.9701 47.5152L90.6961 47.9692L90.0001 48.0852L89.6451 47.4572L89.7621 47.2632L89.8121 46.8912L89.6881 46.0012L90.3521 45.0862L90.5021 44.5772L90.3701 44.3932L90.1871 44.4432L89.7041 44.1632L89.5611 44.1772L89.1611 44.7132L88.6061 45.0732L88.0431 45.1642L85.7801 45.8522L85.4381 45.6112L85.2841 44.2402L86.2041 43.5322L86.3451 42.3312L86.5771 41.5272L86.8481 40.9922L87.3461 39.6052L87.4711 39.5052L86.2291 38.3982L85.7381 37.6762L85.2031 36.2232L85.0391 35.0382L84.3141 34.0232L84.4031 32.7172L83.8771 32.8202L83.4711 31.8982L83.8491 31.3782L85.7691 30.7862L86.9141 30.2072L87.3421 30.2332ZM102.127 29.4762L101.715 29.5112L100.958 28.4562L100.812 27.5342L100.947 27.1562L101.312 27.1422L101.881 28.4022L102.495 28.7812L102.127 29.4762ZM58.2731 30.0202L58.3051 30.9972L58.7621 30.9002L59.3011 31.9362L59.8891 32.4832L60.0551 32.8572L60.1801 33.3372L60.5361 34.2992L60.7051 35.3072L60.2801 35.4132L59.6951 33.9752L59.2171 33.1522L58.6161 32.4462L58.1301 32.4112L57.9111 32.1022L57.1231 29.5362L56.9781 28.9392L56.5281 27.9742L56.3291 26.7662L56.3301 25.8152L56.9321 26.0402L57.4601 26.6372L57.9181 27.9812L58.0001 28.3962L57.7911 28.9462L58.0061 29.5952L58.2731 30.0202ZM108.22 25.6812L109.057 25.7732L109.898 25.5422L110.043 25.7892L108.96 26.5552L107.754 26.1482L106.669 26.0442L105.388 26.8932L104.97 26.5542L105.621 25.7352L106.331 25.4632L106.445 24.9612L106.716 24.8752L107.654 24.8232L108.22 25.6812ZM73.8111 10.4842L73.9571 10.5162L74.0991 10.3462L74.2021 9.8962L74.3161 9.6472L75.0261 9.9392L76.0331 10.8372L76.3321 11.2782L76.7521 12.1832L77.0931 13.6942L76.8221 14.7772L76.4651 15.7962L76.3391 16.3562L76.4691 17.1572L76.4161 17.9332L76.2861 18.6172L76.8261 17.8372L77.9801 15.3152L78.1521 15.1582L78.3321 15.2442L78.8491 15.7652L79.3181 17.0532L79.4211 17.4772L79.5051 17.9962L79.5531 18.6362L79.5271 19.3662L79.4841 19.8732L79.2391 20.2002L79.1201 20.4982L79.3851 20.5202L79.6881 20.9102L79.9651 21.7362L80.2751 22.0672L81.4001 21.7882L82.1311 22.2192L82.5321 23.5642L83.1501 23.2612L83.1521 22.5442L83.2881 22.2362L84.1171 22.4812L84.5461 22.8162L84.9841 23.5202L84.2361 24.6662L84.8531 25.7582L85.8891 26.5452L86.5141 27.3672L86.6271 27.7102L86.7291 28.1652L86.3221 28.7532L85.9081 29.0842L84.8651 29.1412L83.9171 29.5552L82.1821 29.8482L81.9241 30.0352L81.8631 30.2022L81.7611 30.7082L81.0941 31.8692L80.4481 33.2732L80.1811 34.1132L79.9801 35.2822L79.9061 35.9932L80.0501 36.6792L80.0121 37.3702L79.5261 37.9102L79.2181 37.9312L78.8321 37.8252L78.4521 38.1352L78.4281 38.6002L78.4501 39.2532L78.3531 41.2302L78.2351 42.7052L78.0581 44.0642L77.8591 44.7922L77.6051 44.9942L76.7901 45.1272L76.1621 46.3842L75.6551 48.6082L75.3911 49.4732L74.8411 50.8302L74.9411 51.3092L75.1121 51.8262L74.8121 52.7472L74.3481 53.7752L74.3571 54.1712L74.5131 54.8932L74.5891 55.6412L74.2311 56.2822L73.5731 56.6072L72.9031 56.2432L72.5771 55.8132L72.2751 55.1232L71.9541 54.6712L71.6201 54.3992L70.3351 52.8532L69.1491 50.3782L68.0661 49.4052L67.3601 48.9422L67.0201 48.4922L66.6881 47.8862L66.4011 47.2022L66.1341 46.3352L66.0051 45.7942L65.9811 44.9792L66.0661 44.4992L66.1931 44.2522L67.0531 44.0492L67.3621 44.1642L67.6661 44.5922L67.9431 44.7602L68.5771 42.6192L72.1841 41.3822L73.3431 41.1672L74.5061 41.1802L74.3251 40.5922L74.1711 39.8442L74.0001 39.6622L73.1211 40.0822L71.7751 40.5232H71.1191L70.4421 40.2292L69.7671 40.3912L69.0711 41.0302L68.3691 41.4332L67.6871 41.5952L66.2451 41.5302L65.8881 41.2002L65.4071 40.4342L65.2901 40.0402L65.1901 39.5562L65.0961 38.0932L65.2001 37.6932L65.3471 37.4632L65.4981 37.3212L65.8151 37.3142L66.1261 37.5682L66.8541 38.4042L66.6881 37.5072L68.7831 36.4202L69.7561 35.4642L70.2561 35.3032L70.7571 35.3732L70.6471 34.8622L70.6431 34.3872L70.9991 33.9992L71.2551 33.8322L72.0261 33.6412L73.7851 33.6742L74.4191 33.4112L74.8941 32.7452L74.3881 32.9772L73.8811 33.0212L73.6441 32.8832L73.1071 32.3002L72.8631 31.5312L73.5591 29.9852L73.8011 29.2632L73.0931 29.3672L72.8571 29.6202L72.0461 31.0432L71.4471 31.6792L70.7081 31.9842L69.9691 31.9582L69.8081 31.7572L69.5821 30.8192L69.5111 30.3242L69.5411 30.0522L69.7751 29.2702L69.8971 28.4392L69.8761 27.7202L69.7041 27.5752L69.4311 28.2792L69.1841 29.2532L68.8451 29.7392L68.4951 29.6062L68.3461 29.2332L68.2161 28.6612L68.0791 28.4402H67.9271L67.6141 28.6692L67.3041 29.0922L67.4111 29.7322L67.4391 30.4412L67.3051 31.0022L67.2041 31.6852L67.5231 32.1142L67.7831 32.7772L67.3931 33.0882L67.0111 33.5402L66.6601 34.2352L66.3011 34.7742L65.7321 34.8312L65.0231 35.1292L63.6061 35.2342L62.9401 34.3572L62.8181 33.9392L62.6851 33.6582L62.2431 33.1952L61.5981 31.8212L61.1011 30.2432L60.7661 30.0892L60.2701 29.5652L60.0001 29.1152L59.7431 28.5122L59.6661 27.7952L59.6911 27.1392L59.9881 26.8472L59.2861 26.1062L58.5971 25.1222L58.8511 24.7902L59.1071 24.6442L61.1491 25.7932L61.2851 25.6502L61.5091 25.0802L61.4291 24.8882L61.0871 24.7562L60.6211 24.7602L60.5051 24.6422L60.3251 24.0212L60.1681 23.2542L60.1011 22.7412L60.0751 22.1382L60.4221 21.2302L60.6121 20.4122L60.3161 20.0322L59.4771 20.0552L59.1981 20.1712L59.3011 21.3462L59.0341 22.1532L58.5221 22.7802L58.1551 22.4752L57.8721 20.9312L57.5021 19.8472L57.3631 19.1602L57.2571 18.1672L57.1071 17.4402L56.8351 16.5582L56.7991 16.0122L56.8331 15.6072L57.0401 14.6852L56.8831 13.9132L56.6911 13.2332L56.6791 12.8442L56.8591 12.3632L57.0211 12.2032L57.1951 12.2382L57.7101 12.8112L57.9931 13.4942L58.0911 13.4392L58.2751 12.4232L58.5361 12.1932L59.5431 11.8572L60.6641 13.1702L60.9541 13.4612L61.1861 13.5552L61.0661 12.9742L60.9931 12.2172L61.1641 11.9302L62.0691 12.6072L62.4931 12.5662L63.4871 11.6802L65.1301 11.2142L65.7511 11.9152L65.7831 12.2882L65.7701 12.7892L65.7301 12.9392L65.3671 13.5202L63.2951 13.9932L61.9371 15.7962L63.7891 15.5072L64.1221 15.7132L64.2621 17.1642L64.3971 17.3162L64.8731 17.5262L65.1961 17.9562L65.5261 18.7722L65.8731 19.3192L66.0761 19.2512L66.1501 18.6582L66.0671 17.9532L66.0241 17.1462L66.0481 16.2712L66.1041 15.5442L66.4931 15.0302L67.0581 13.3512L67.6581 12.2032L68.3261 12.7142L68.9451 14.1462L69.5031 16.1672L70.0441 18.2982L70.6501 20.9012L70.9421 21.8092L71.2071 22.0232L72.4311 24.6702L72.5691 24.7432L72.3161 22.7352L71.6821 19.2782L71.2541 16.5722L71.1571 15.5262L71.0881 14.0452L71.1151 13.6192L71.1701 13.2322L71.4801 11.6262L71.8861 10.8402L71.7631 9.7262L71.8671 8.8652L72.2931 8.1812L72.6891 8.1312L73.0741 8.6512L73.8111 10.4842ZM117.983 7.04819L115.321 7.6632L115.052 7.2322L119.366 5.4242L119.589 5.2472L120.39 5.0212L121.078 5.4332L120.874 5.7512L117.983 7.04819ZM79.2981 4.04819L78.6901 4.9672L77.6721 4.2602L77.7931 3.5322L78.0351 3.0882L78.6741 3.2552L79.2981 4.04819ZM85.3491 4.8962L85.6311 5.0802L87.1771 5.0132L87.4731 5.4172L87.5901 6.3942L87.8261 6.7282L88.1551 6.8322L88.9761 8.0192L89.2551 8.1892L89.4981 7.5312L89.6841 5.8822L89.6941 3.9262L89.6151 2.9702L89.7071 2.35419L89.9821 2.1142L90.3281 2.1782L90.6661 1.8342L90.9581 1.2262L91.2711 1.1422L91.9541 1.60419L92.1341 1.9662L91.9511 2.7122L91.8801 3.7712L91.5711 5.93719L92.2411 6.0702L93.1801 5.6142L93.4181 4.9882L93.9231 3.9882L94.4571 4.1462L94.7131 4.0132L94.8421 3.57619L94.8911 3.0552L95.1861 3.1422L95.5901 4.1452L95.7781 4.3002L96.1221 4.0422L96.2611 4.0522L96.6011 4.45119L98.1851 5.1742L98.7341 5.5592L98.9701 5.9182L99.2091 6.1292L100.894 6.1242L102.084 6.3782L102.523 6.9442L102.891 8.0242L103.032 10.4872L102.699 11.1462L100.289 14.1152L99.6851 15.0582L99.3931 15.9222L98.9001 17.7952L98.6611 18.3572L97.5331 19.2392L97.2691 19.3332L96.4211 18.9022L96.1621 18.9422L95.1311 19.8972L94.7761 20.4722L94.4281 21.1942L93.9081 21.5112L93.3781 21.3412L90.9781 20.9662L90.6571 20.4592L90.3941 19.4812L90.8711 18.2212L88.1941 18.6912L85.2461 18.4362L85.0901 18.2582L84.9641 17.7692L83.9501 17.4342L83.1881 17.0312L82.5481 16.3502L81.9151 15.4622L82.1181 15.0452L82.3261 14.8012L82.8701 14.6982L83.3531 14.8222L84.2131 14.8152L84.4131 13.9122L84.7551 13.6512L85.0281 13.0002L84.1201 12.5882L83.1741 12.5262L82.5431 13.0682L81.8121 13.3132L81.1441 13.3452L79.8591 13.1922L79.2501 12.8072L78.4171 11.7972L78.1271 11.2372L78.0151 10.7962L77.9321 10.1262L78.8841 9.5222L79.2541 9.0462L79.6181 8.3932L78.1801 8.0202L77.5781 7.4692L76.9811 6.6562L77.4651 6.1962L79.4011 5.8282L79.9141 6.1362L80.4221 6.72919L80.9851 7.0932L81.5291 6.32619L81.0171 5.9622L80.5591 4.6762L80.4621 4.0332L80.5231 3.5382L80.7631 3.4642L80.9421 3.6792L81.6181 4.8952L82.1311 5.2722L82.2751 4.1522L82.2981 3.6162L82.2041 3.1722L81.9631 2.3502L81.7471 1.3342L82.0811 1.0752L82.4121 1.18719L83.1221 1.8852L83.8381 2.3742L84.1651 2.8662L84.7751 4.0862L85.3491 4.8962Z" fill="#CCCCCC" stroke="white" stroke-width="0.5"/>
</svg>
