<svg width="18" height="9" viewBox="0 0 18 9" fill="none" xmlns="http://www.w3.org/2000/svg">
<path d="M16.9544 2.97815L16.9135 3.15414L16.7984 3.35916L16.6555 3.57117L16.5354 3.82715L16.3754 4.37216L16.2714 4.62415L15.8434 5.12015L15.8134 5.80914L15.7554 5.85916L14.7885 6.09216L14.6614 6.05716L14.5294 5.92316L14.4564 5.82516L14.4114 5.75415L14.3275 5.56314L14.2164 5.42816L14.0524 5.31714L13.9024 5.18915L13.7094 5.18414L13.1874 5.36514L12.8254 5.38516L12.5834 5.32715L12.2614 5.21716L11.6344 5.20016L11.2054 5.29614L11.1624 5.43115L10.7664 6.27115L10.1904 6.58115L9.69043 6.89716L9.54541 6.96115L9.29645 6.86115L9.01343 6.67416L8.77844 6.57614L8.60645 6.61914L8.41943 6.83215L8.33344 7.04715L7.76746 7.20514L6.78241 7.29816L6.43842 7.51016L6.32141 7.76416L6.31641 7.95917L6.40045 8.12515L6.29541 8.31815L6.24945 8.39914L5.55341 8.44116L4.62543 8.49814L4.07043 8.48315L3.5484 8.47015L3.19342 8.30414L2.7594 7.98016L2.30042 7.54916L2.25641 7.53915L2.18842 7.49316L1.90045 7.46014L1.82343 7.48615L1.65143 7.34515L1.60144 7.16214L1.33344 6.68115L1.03241 5.88715L1.02441 5.65717L1.14246 5.39514L1.2514 5.19415L1.26746 5.03516L1.27844 4.99216L1.36945 4.66116L1.5874 4.22116L1.79144 3.96515L1.93842 3.88016L2.24341 3.95715L2.7644 4.02115L3.16541 3.96115L3.53943 3.76416L3.74243 3.59216L3.91541 3.41116L3.97345 3.29315L4.05042 3.23715L4.35944 3.13214L4.45844 3.01016L4.49841 2.77817L4.52545 2.52014L4.58844 2.32816L4.66846 2.18716L5.24042 1.84915L5.29242 1.72916L5.38342 1.61417L5.55341 1.48416L5.71741 1.29614L5.89142 1.18115L6.11444 1.19415L6.32043 1.17017L6.48145 1.10416L6.55243 1.09814L6.84943 1.15115L6.90344 1.36716L6.93445 1.59116L7.44244 1.57516L7.7254 1.09515L7.87244 1.03714L8.10742 0.870148L8.26245 0.723145L8.36945 0.814148L8.52344 1.12415L8.68744 1.37216L8.78241 1.47015L8.79242 1.54614L8.88745 1.59216L9.07245 1.61914L9.19543 1.69415L9.23145 1.92514L9.23444 2.13315L9.17645 2.28217L9.14642 2.41415L9.27441 2.46616L9.4624 2.41614L9.59442 2.34116L9.99146 2.51315L10.1314 2.13016L10.2894 1.93414L10.4934 1.84216L10.6794 1.72314L10.8484 1.63815L10.9655 1.64316L11.0164 1.60715L11.1614 1.61716L11.3304 1.65515L11.5594 1.61014L11.8754 1.70416L12.0734 1.88116L12.2675 1.94116L12.4884 1.93115L12.6394 1.83316L12.8584 1.49615L13.0184 1.50116L13.2675 1.44815L13.6194 1.45114L14.4315 1.52316L14.6344 1.65216L15.1344 1.81714L15.3524 2.00815L15.4484 2.23514L15.4995 2.39215L16.0114 2.63315L16.7704 2.94016L16.9544 2.97815Z" fill="#CCCCCC" stroke="white" stroke-width="0.5"/>
</svg>
