<svg width="10" height="10" viewBox="0 0 10 10" fill="none" xmlns="http://www.w3.org/2000/svg">
<path d="M8.84045 4.92792L8.83347 5.01492L8.75247 5.41891L8.62646 5.76492L8.54346 5.84991L8.18646 5.94092L8.03445 6.0929L7.90347 6.5849L7.81946 6.97092L7.69647 7.03592L7.17245 7.5929L6.82947 7.80389L6.59045 7.9859L6.36346 8.22189L6.07846 8.4519L5.77246 8.8399L5.55444 9.24292L5.40546 9.36792L5.29346 9.25391L4.77246 8.8569L4.22244 8.5899L3.05145 8.1459L2.66147 8.0209L2.67545 7.86292L2.80945 7.57391L2.59146 7.23489L2.67545 6.98792H2.59146L2.42346 7.13589L2.06647 7.0929L1.82947 6.88092L1.63644 6.80292L1.55246 6.6969L1.42847 6.13791L1.33945 5.88391L1.16046 5.7269L0.801453 5.6879L0.653473 5.34689L0.454468 5.08191L0.487457 4.91891L0.649445 4.92792L0.776459 5.04691L0.981445 5.09592L1.23645 4.8089L1.46445 4.65292L1.51746 4.51691L1.48947 4.44189L1.35147 4.55792L0.97345 4.52792L0.879456 4.6319L0.710449 4.66492L0.579468 4.3299L0.585449 4.1319L0.639465 3.91492L1.02045 3.87692L1.05347 3.80692L0.788452 3.75992L0.457458 3.5069L0.397461 3.33191L0.561462 3.27292L0.718445 3.29892L0.854462 3.33691L1.00247 3.2739L1.14047 3.17792L1.22345 3.0549L1.33545 2.72592L1.69345 2.61591L1.90445 2.41391L2.10547 2.10092L2.19745 1.88092L2.28046 1.7709L2.33246 1.6759L2.37146 1.5719L2.46146 1.47592L2.55545 1.24292L2.61945 1.03091L2.82547 0.928894L3.24747 0.838898L3.62747 0.99292L4.24347 0.858917L4.27646 0.659912L4.84045 0.656921L5.50845 0.652924L6.06445 0.649902L6.25546 0.702911L6.32446 0.850922L6.50745 1.08292L6.69846 1.2439L6.93546 1.59689L7.21146 2.0079L7.50946 2.37891L7.70047 2.5799L7.72244 2.6499L7.70847 2.72992L7.61346 2.91791L7.53247 3.12192L7.54047 3.19891L7.59744 3.23691L7.90945 3.2999L7.93747 3.52692V3.84091L8.08847 4.13391L8.23245 4.34891L8.22546 4.4259L7.87344 4.79291L7.73645 5.1579L7.66644 5.26089L7.63846 5.3429L7.70847 5.3819L7.80545 5.35791L7.94147 5.38791L8.07147 5.3989L8.24347 5.26791L8.53046 4.93292L8.62646 4.89191L8.84045 4.92792ZM2.54547 7.88092L2.50446 7.95392L2.31744 7.77292L1.35046 7.50192L1.62344 7.35791L2.29446 7.31491L2.49445 7.3989L2.58347 7.4689L2.61646 7.6019L2.54547 7.88092Z" fill="#CCCCCC" stroke="white" stroke-width="0.5"/>
</svg>
