<svg width="19" height="14" viewBox="0 0 19 14" fill="none" xmlns="http://www.w3.org/2000/svg">
<path d="M15.2343 5.91412L15.4983 6.37714L15.4413 6.60013L15.3813 6.92413L15.5303 7.16013L15.7053 7.31311L15.8303 7.45511L15.9683 7.64911L15.9903 8.03711L15.9653 8.31613L16.0553 8.44211L16.1313 8.60211L16.1163 8.73413L16.0663 8.85211L15.8983 9.00812L15.8703 9.29712L16.1423 9.64713L16.3173 9.83813L16.3163 9.94711L16.3653 10.0671L16.4943 10.2071L16.5743 10.1741L16.6613 10.0601L16.7003 9.98111L16.9363 10.0161L17.0463 10.0521L17.1973 10.2811L17.2523 10.4331L17.2883 10.6241L17.4453 10.8621L17.5823 11.0301L17.6103 11.1351L17.7323 11.2771L17.6573 11.5921L17.6653 11.7531L17.5823 12.1761L17.5633 12.3761L17.5693 12.4491L17.7553 12.6001L17.7353 12.8131L17.5463 12.7761L17.2183 12.7511L16.5613 12.8621L16.3344 12.8171L15.9034 12.8321L15.5953 12.8931L15.2053 13.0321L14.9023 12.9971L14.7383 12.8881L14.5223 12.8961L14.2793 12.8371L14.0213 12.7311L13.7843 12.6781L13.5293 12.4831L13.4103 12.4491L13.3263 12.5001L13.2553 12.5641L13.1823 12.6041L13.0433 12.5691L12.9913 12.4371L13.0353 12.3091L13.0473 12.2121L12.9823 12.1591L12.8273 12.1421H12.5753L12.1693 12.1021L12.0773 12.0771L11.1683 12.0441L10.2273 12.0401L9.42932 12.0371L8.42133 12.0321L7.71335 12.0291L7.05234 12.0261L6.54233 12.2871L5.98935 12.5681L5.24634 12.7181L4.39133 12.6621L4.11835 12.7031L3.83533 12.8281L3.62735 12.9181L3.33334 12.9731L2.95233 12.9281L2.79834 12.9551L2.70334 12.8271L2.59332 12.6191L2.66232 12.4671L2.89435 12.3691L3.24335 12.2411L3.42633 12.3071L3.53333 12.3101L3.55334 12.2281L3.51935 12.1841L3.25534 12.0731L3.11932 11.9261L3.00635 12.0121L2.90833 12.1921L2.82733 12.2461L2.70834 12.2961L2.64133 12.1741L2.61133 12.0551L2.66632 11.9621L2.63834 11.4451L2.67035 11.1691L2.65335 10.9281L2.81833 10.7691L2.97534 10.6701L3.58633 10.6611L4.15533 10.6521L4.70334 10.6581L5.26132 10.6631L5.31635 10.1801L5.49335 10.1421L5.75732 10.0921L6.25034 10.0331L6.79935 9.97711L6.91632 9.88211L7.00732 9.72211L7.06433 9.57812L7.17834 9.51712L7.33234 9.56512L7.53333 9.64111L7.74234 9.75711L7.98132 9.86511L8.14035 9.93411L8.52335 10.1041L9.17834 10.3411L9.71634 10.4361L10.3673 10.2621L10.8373 10.1511L10.8953 9.94312L10.8223 9.74011L10.4723 9.55411L9.99634 9.57513L9.85034 9.62512L9.62833 9.68713L9.49533 9.71112L9.27133 9.66812L8.98633 9.50711L8.80734 9.34512L8.55634 9.27011L8.25934 9.19312L7.78235 8.86011L7.53433 8.80011L7.29834 8.78311L6.84634 8.84912L6.40433 9.02713L6.17233 9.43112L5.73035 9.42511L4.79132 9.41312L3.92932 9.40112L3.21832 9.42813L3.14633 9.13513L2.97833 8.90112L2.70435 8.70212L2.64435 8.51611L2.73633 8.35413L3.00134 8.22211L3.06134 8.12613L2.92233 8.14111L2.71335 8.22711L2.57434 8.23111L2.55734 7.97513L2.32535 7.64413L2.06332 7.08313L1.76733 6.85413L1.51834 6.39911L1.25833 6.22513L1.01935 6.14413L0.815338 6.16013L0.740326 6.36813L0.486328 6.06912L0.833344 5.96213L1.57632 5.58713L2.42932 4.51312L3.19434 3.23813L3.29333 2.93713L3.38733 2.70813L3.44833 2.18613L3.55835 1.87512L3.66135 1.81512L3.79132 1.57611L3.94733 1.15714L4.12534 0.924133L4.32333 0.878113L4.47833 0.899109L4.58835 0.985107L4.91135 1.03912L5.44635 1.05911L5.86032 0.996124L6.15234 0.851135L6.53635 0.77713L7.01132 0.775116L7.26233 0.714111L7.28635 0.594116L7.34833 0.558136L7.44733 0.605133L7.54132 0.586121L7.62833 0.500122L7.71634 0.495117L7.80334 0.569122L8.20132 0.591125L8.91135 0.562134L9.56635 0.782135L10.1683 1.25113L10.4793 1.56412L10.4983 1.72113L10.5983 1.87912L10.7784 2.03812L10.9423 2.06711L11.0923 1.96713L11.2094 1.97812L11.2933 2.10013L11.4653 2.12512L11.6563 2.05011L11.7923 2.07611L11.8173 2.14813L11.8493 2.18713L11.9413 2.20413L12.0653 2.29611L12.2403 2.54514L12.3823 2.89212L12.4913 3.33713L12.6363 3.57913L12.8153 3.61813L12.9203 3.70914L12.9403 3.81512L12.9933 3.88712L13.0793 3.92712L13.2313 3.90314L13.4093 4.05313L13.6013 4.37912L13.6313 4.52512L13.6013 4.60413L13.6123 4.66211L13.7403 4.71713L13.8603 4.82312L13.9583 4.98312L14.1703 5.12512L14.4963 5.25012L14.7313 5.43613L14.8753 5.68314L15.1733 5.89111L15.2343 5.91412Z" fill="#CCCCCC" stroke="white" stroke-width="0.5"/>
</svg>
