<svg width="31" height="41" viewBox="0 0 31 41" fill="none" xmlns="http://www.w3.org/2000/svg">
<path d="M2.26099 39.3972L2.27399 39.1682L2.22998 39.0541L1.96399 38.7112L1.46698 38.0732L1.091 37.5901L0.705994 37.0971L0.703979 36.7021L0.700012 35.5272L0.690002 33.1782L0.682007 30.8282L0.671997 28.4781L0.666992 27.3022L0.666016 26.8212L0.705994 26.7432L1.14502 26.3122L1.72498 25.7401L2.487 24.6552L2.901 24.0641L3.24701 23.5732L3.33398 23.4232L3.64001 23.1252L4.21301 22.9471L4.56897 22.9171L5.79401 22.6942L5.97601 22.6042L6.08301 22.5012L6.185 22.2661L6.42297 21.9362L6.73102 21.7082L7.31598 21.4121L7.88898 21.1612L8.01599 21.1201L8.70599 20.9622L8.875 20.9081L9.15399 20.8531L9.26398 20.8512L10.222 20.9062L10.972 20.9502L11.743 20.9941L11.825 20.9601L12.364 20.3741L13.222 19.4391L13.77 18.8431L14.616 17.9211L15.266 17.2552L15.985 16.5192L16.684 15.8452L17.523 15.0341L18.053 14.5232L18.875 13.7292L19.658 12.9721L20.35 12.3032H19.395H18.462H17.543L17.379 12.2221L16.607 11.9622L15.629 11.6331L14.415 11.2252L13.55 10.9352L12.628 10.6302L11.693 10.3221L10.959 10.0801L10.044 9.77817L9.24902 9.51517L9.14001 9.45114L8.69897 9.05014L8.12 8.52316L8.00897 8.51416L7.73297 8.40414L7.48499 8.11914L7.229 7.75516L6.992 7.29916L6.88898 6.98917L6.57202 6.85815L6.41998 6.61316L6.133 6.25015L5.93402 6.07416L5.86298 5.92017L5.771 5.60214L5.60699 5.25516L5.45001 5.04114L5.414 4.94815L5.42297 4.88815L5.71399 4.41815L5.84497 4.25015L5.99402 4.08817L6.11499 3.92615L6.16199 3.81516L6.51501 3.26114L6.82599 2.77316L7.06897 2.39215L7.617 2.82816L8.15002 3.71216L8.771 4.42615L9.62903 5.08817L9.96899 5.31216L10.27 5.43015L11.831 5.41214L12.939 4.80817L13.945 4.37015L14.283 4.27914L14.867 4.39914L15.511 4.43515L16.09 4.56815L16.384 4.53415L17.53 4.02515L18.25 3.52914L18.741 3.31815L18.934 3.31616L19.604 3.49515L20.465 3.41714L21.643 2.98917L22.018 2.90216L22.304 2.89615L22.945 3.08914L23.045 3.07916L23.392 3.04315L24.307 2.83914L25.02 2.53116L26.333 2.30817L27.332 1.74414L27.507 1.47116L27.809 1.12717L28.247 1.01416L29.367 1.41815L29.546 1.45016L29.481 1.69415L29.442 1.94315L29.213 2.37717L29.066 2.85916L29.174 3.59515L29.226 4.78714L29.199 4.96014L29.125 5.13016L29.094 5.26517L28.973 5.31216L28.92 5.38916L29.008 5.41916L29.358 5.29016L29.352 5.14716L29.372 5.07715L29.66 5.23615L29.866 5.30215L29.926 5.45215L29.91 5.55414L29.583 5.50714L29.416 5.42816L28.931 5.55817L28.634 5.69815L28.545 5.93216L28.476 6.86417L28.361 7.46814L28.339 8.26715L27.946 8.79517L27.814 9.16714L27.23 9.91315L26.926 10.5492L26.826 10.8601L26.313 11.7321L25.608 12.4001L25.354 13.2531L25.102 13.7881L24.817 14.2722L24.195 15.1342L23.877 15.7321L23.478 16.7701L23.355 17.4261L22.232 19.3301L21.067 20.8462L20.342 22.1212L19.04 23.5992L17.265 25.5062L14.941 27.7682L14.311 28.2292L11.768 29.6241L10.119 30.7921L9.27698 31.5872L8.39301 32.2791L7.69098 32.9381L5.57001 35.1602L5.35199 35.3691L5.146 35.5662L4.87903 35.9431L4.69299 36.0922L4.18701 36.7281L3.87 37.0572L3.51599 37.3831L3.36499 37.6132L3.25897 37.8781L3.14001 38.0251L2.82098 38.6572L2.539 39.0712L2.26099 39.3972Z" fill="#CCCCCC" stroke="white" stroke-width="0.5"/>
</svg>
