<svg width="13" height="13" viewBox="0 0 13 13" fill="none" xmlns="http://www.w3.org/2000/svg">
<path d="M11.7115 2.70914L11.4755 2.90714L11.2185 3.18912L10.8805 3.67612L10.8955 3.82913L10.8215 3.95312L10.8035 4.17111L10.8275 4.41611L10.9145 4.57611L10.9545 4.88013L10.8875 5.15411L10.9135 5.31412L10.9815 5.56613L11.0375 5.83612L11.0315 5.94412L11.1135 6.03311L11.1895 6.11911L11.1655 6.35913L11.4325 6.78711L11.5955 6.97311L11.8335 7.15512L11.9195 7.33212L12.0535 7.54611L12.1335 7.57114L12.1765 7.65714L12.1325 7.82211L12.1235 8.05112L11.9725 8.31711L11.6225 8.80411L11.5795 8.91711L11.6705 9.32114L11.6225 9.65314L11.6015 9.81213L11.4295 10.1031L11.0215 10.8061L10.7875 10.9331L10.6455 11.1361L10.5545 11.1381L10.4525 11.1571L10.4205 11.1821L10.2925 11.1801L10.1925 11.0901L10.1765 10.9841L10.1235 10.8621L9.9975 10.8251L9.75949 10.8681L9.69049 10.8371L9.5495 10.7071L9.4325 10.5641L9.4025 10.4261L9.32748 10.4391L9.14648 10.5641L9.02249 10.5891L8.92548 10.5571L8.8165 10.5661L8.5405 10.7001L8.3775 10.7301L8.26147 10.8651L7.49448 10.9261L7.29248 10.9611L6.8345 10.7291L6.71649 10.6531L6.65649 10.6421L6.6055 10.6541L6.55548 10.7061L6.47949 10.9981L6.41049 11.0771L6.2905 11.1421L6.17349 11.2581L6.15048 11.3711L6.33047 11.4341L6.4805 11.6531L6.64349 11.8291L6.77448 11.9831L6.7565 12.1591L6.7345 12.4081L6.6395 12.4931L6.4805 12.5341L5.89948 12.4141L5.45349 12.3061L5.26648 12.2831L5.18149 12.2551L5.0705 12.1641L4.95749 12.0801L4.77649 12.0491L4.56049 11.9921L4.40048 11.7731L4.23547 11.4621L4.17749 11.3211L4.04849 11.1851L3.92249 10.9911L3.88348 10.8191L3.78848 10.6621L3.73849 10.6091L3.66449 10.3951L3.6485 10.3151L3.61249 10.3051L3.56049 10.2361L3.4585 10.0071L3.43549 9.95013L3.3905 9.93011L3.27148 9.76913L3.17648 9.71313L3.14148 9.63013L3.14948 9.40613L3.09848 9.29514L3.0835 9.08414L3.08047 9.00012L3.03149 8.90613L2.9505 8.84512L2.93649 8.69211L2.91647 8.31613L2.8775 8.25012L2.53549 8.25513L2.5015 8.29211L2.35349 8.31412L2.18848 8.31812L2.03848 8.26813L1.9155 8.20212L1.88849 8.12012L1.9075 7.85913L1.7085 7.66113L1.39349 7.41611L1.29849 7.10513L1.1825 6.91113L0.833496 6.50513L0.771484 6.22711V6.03012L0.893494 5.85013L1.06448 5.53214L1.1355 5.24411L1.1875 5.09412L1.27548 4.89713L1.3555 4.64212L1.29449 4.48511L1.19049 4.33212L1.15649 4.21613L1.25748 4.04813L1.35849 3.92911L1.47348 3.91312L1.61948 3.84113L1.7345 3.73914L1.90948 3.71213L2.1275 3.70111H2.57349L2.80148 3.65714L2.8725 3.57513L2.86148 3.41711L2.97449 3.27411L3.09348 3.21411L3.14148 3.16711L3.1485 3.11414L3.11749 3.06613L3.06949 3.03412L2.9455 3.02313L2.83649 2.77512L2.9115 2.66711L3.00748 2.46811L3.03448 2.35513L3.1835 2.17911L3.21948 2.23312L3.3345 1.91113L3.34848 1.64911L3.43649 1.39111L3.5715 1.08511L3.81448 0.933136L5.22949 1.08813L5.87549 1.23413L6.70648 1.48611L6.82449 1.75613L6.83047 1.48611L6.78949 1.21411L7.0195 1.02112L7.5235 0.953125L8.2785 1.04611L8.92749 0.932129L9.81049 0.946136L11.1505 1.16611L11.7505 1.31613L11.9975 1.45212L12.0445 1.69614L12.0215 2.00912L11.9235 2.30814L11.7115 2.70914Z" fill="#CCCCCC" stroke="white" stroke-width="0.5"/>
</svg>
