<svg width="33" height="26" viewBox="0 0 33 26" fill="none" xmlns="http://www.w3.org/2000/svg">
<path d="M28.0057 7.08707L27.8248 7.44806L27.7668 7.70505L27.7488 7.92105L27.7598 8.04605L27.7798 8.12607L27.7888 8.14505L27.7968 8.15805L27.8047 8.16705L27.8138 8.17007L28.3358 8.17206H28.3387L28.3358 8.28705L28.3568 8.85907L28.3748 9.35907L28.4048 10.1761L28.4058 10.3891L28.3857 10.6541L28.3237 10.7591L28.1758 10.9091L27.9888 11.0461L27.5168 11.0811L27.1227 11.076L26.8438 11.0461L26.4617 11.0341L26.1028 11.063L25.9708 11.179L25.7767 11.5881L25.4968 12.1811L25.3488 12.4321L25.3107 12.5781L25.3547 12.6651L25.5397 12.791L25.9478 12.9691L26.4147 13.0731L26.7628 13.1181L26.9998 13.1671L27.1827 13.2211L27.8458 13.675L28.0577 13.886L28.1768 14.0731L28.2048 14.2721L28.2997 14.4731L28.6827 14.8701L28.9037 15.0991L29.4788 15.3931L29.6998 15.7261L29.9128 15.8871L30.1147 16.0611L30.2228 16.3201L30.4717 17.0711L30.6398 17.4651L30.8118 17.787L30.8798 18.3101L31.0157 18.5441L31.1558 18.8291L31.3878 19.0871L31.6348 19.2831L31.6797 19.3361L31.1638 19.8411L30.5848 20.4071L29.9158 21.063L29.1868 21.7751L28.6158 22.3391L28.0527 22.8951L27.3948 23.5521L26.9088 24.037L26.8278 24.1051L26.6868 24.1951L26.2238 24.1971L25.7457 24.1401L25.3058 23.8451L24.8588 24.0741L24.5757 24.1461L24.4067 24.1721L24.0078 24.2091L23.4487 24.3321L23.1957 24.485L23.0588 24.606L22.9457 24.8291L22.8887 24.8521L22.7858 24.826L22.6428 24.7361L22.3438 24.6071L22.1927 24.3231L22.0547 24.1521L21.9398 24.0621L21.4658 24.3451L21.2358 24.4111L21.0477 24.4031L20.7037 24.244L20.3237 24.1081L20.1277 24.1091L19.8348 24.2791L19.5018 24.5331L19.3307 24.7841L19.2477 24.9331L19.1868 24.8141L19.1307 24.7031L19.0187 24.5611L18.8577 24.5051L18.7117 24.5331L18.5408 24.5611L18.4637 24.4801L18.4478 24.2851L18.4008 24.1051L18.3207 23.9701L18.0748 23.8351L17.4407 23.5611L16.9537 23.0141L16.7087 22.7601L16.5298 22.5961L16.2758 22.166L15.9868 21.8701L15.6368 21.7321L15.4058 21.8L15.1678 22.1171L14.7188 22.4151L14.5128 22.425L14.2488 22.2641L13.9167 22.149L13.3218 22.0991L13.0757 22.2401L12.7538 22.468L12.4808 22.6041L12.3118 22.6201L12.1537 22.5651L11.9747 22.5361L11.8198 22.5311L11.5018 22.3231L11.3367 22.1701L11.2267 22.0231L11.0468 21.9231L10.8367 21.8391L10.6868 21.7081L10.6118 21.5441L10.4927 21.3341L10.3387 21.1451L9.85278 20.8051L9.70776 20.6041L9.60577 20.4081L9.40778 20.192L9.19476 19.9031L9.12677 19.4801L9.11774 19.1391L9.07275 18.981L8.98273 18.8231L8.87775 18.6891L8.70874 18.5391L8.31274 18.3201L7.90277 18.0661L7.70673 17.9181L7.33374 17.8641L7.11078 17.7191L6.92377 17.4001L6.84875 17.1451L6.65973 16.9461L6.57874 16.8021L6.53375 16.636L6.68378 16.1311L6.46674 15.9521L6.14374 15.7201L5.91174 15.4661L5.77075 15.2331L5.35577 14.925L4.45178 14.4641L3.92975 14.1701L3.64478 13.9061L3.39575 13.6471L3.37073 13.541L3.53174 13.2831L3.55579 13.0701L3.42377 12.8361L2.88177 12.3941L2.44977 11.9081L2.12274 11.7561L1.33478 11.6211L1.10876 11.567L0.872742 11.4741L0.639771 11.2551L0.56073 10.9961L0.674744 10.5811L0.601746 10.4541L0.46875 10.4191L0.504761 10.3331L0.653748 10.1311L0.896729 10.0001L1.54773 9.79507L1.58374 9.71606L1.59674 9.45706L1.64978 9.33005L1.87378 8.97006L1.90576 8.82706L1.91577 8.52106L1.94574 8.37607L2.01074 8.27307L2.18878 8.09506L2.25073 7.98605L2.27777 7.75107L2.25873 7.28705L2.34973 7.10306L2.75977 6.68106L2.86975 6.49207L2.90674 6.32306L2.90277 6.15106L2.92773 5.98105L3.04974 5.81705L3.15375 5.76605L3.45575 5.71405L3.66174 5.74707L5.10175 5.45807L5.27075 5.49707L5.34576 5.66806L5.33875 5.94205L5.36377 6.07507L5.44073 6.16907L5.66974 6.29907L5.82776 6.51706L5.91278 6.59705L6.14374 6.74606L7.21478 7.99005L7.51678 8.10806L7.80975 8.06506L8.39178 7.80707L8.68274 7.74207L10.7188 7.81506L10.9468 7.77606L10.9608 7.78207L11.2708 8.40607L11.4178 8.54807L13.6508 8.55505L13.6088 8.37708L13.6368 8.17905L13.8978 7.92407L14.0298 7.79706V7.79807L14.0858 7.75208L14.4308 7.56906L14.7678 7.44705L15.4158 7.30405L15.6517 7.07806L15.7828 6.87207L15.7867 6.46506L15.8727 6.39807L16.0267 6.30405L16.7758 5.94006L16.9028 5.86307L18.2267 6.70807L18.9688 7.37708L19.0137 7.41006L19.0527 7.42206L19.0917 7.39905L19.1248 7.36807L19.1788 7.34805L19.2148 7.33905L19.5328 7.33005L20.1337 7.29706L20.3317 7.21707L21.5388 6.02206L21.8458 5.64105L21.9227 5.56305L22.0978 5.29205L22.2817 4.82407L22.3187 4.77106L23.6418 3.64905L23.6877 3.56006L23.7007 3.48907L23.5007 3.11105L23.4578 2.91907L23.4498 2.62305L23.4888 2.16306L23.4747 1.87207L23.4697 1.83807L23.4567 1.79306L23.4478 1.77606L22.7098 0.948059L24.5748 0.940063L24.5787 0.871063L24.5768 0.835052L24.5718 0.802063L24.5367 0.703064L24.5157 0.570068L24.5148 0.534058L24.5178 0.49707L24.5278 0.429047L24.5287 0.392059L24.5267 0.374054L24.5237 0.358063L24.5248 0.343048L24.5328 0.331055L25.8727 0.348053L25.8547 0.583069L25.6927 1.13406L25.6957 1.46405L25.6567 1.84207L25.6478 1.87207L25.6108 1.95407L25.5787 2.00006L25.5417 2.04507L25.5317 2.06207L25.5198 2.09006L25.5187 2.13107L25.7968 4.23907L25.7858 4.29205L25.7758 4.32605L25.7018 4.45807L25.6827 4.50107L25.6788 4.53406L25.7087 4.55707L26.3257 4.78506L26.3558 4.79907L26.3798 4.81705L26.6017 5.08807L27.8168 6.08505L27.8588 6.13507L27.9847 6.44806L27.9988 6.49606L28.0027 6.57007L27.9998 6.62805L27.9688 6.81607L27.9788 6.90005L27.9998 6.95605L28.0168 7.02106V7.04007L28.0148 7.05707L28.0057 7.08707Z" fill="#CCCCCC" stroke="white" stroke-width="0.5"/>
</svg>
