<svg width="20" height="18" viewBox="0 0 20 18" fill="none" xmlns="http://www.w3.org/2000/svg">
<path d="M19.5803 1.0238V1.07083L19.5552 1.1918L19.2382 1.53983L18.8082 2.01181L18.4993 2.30981L17.9792 2.80981L17.5903 2.91681L16.9362 3.0968L16.7603 3.27081L16.5963 3.55283L16.5002 3.93781L16.4722 4.17783L16.4553 4.62582L16.6082 5.09082L16.7552 5.53583L16.7742 5.8298L16.7592 6.1188L16.6172 6.42783L16.4622 6.85083L16.3732 7.32782L16.3262 8.21881L16.3253 8.97583L16.3123 9.09882L16.0433 9.63083L15.7292 10.2528L15.5833 10.3958L14.8942 10.5808L14.1423 11.0348L13.3013 11.5418L12.5383 12.0008L11.7372 12.4818L10.9062 12.9798L10.3123 13.3348L9.51727 13.8098L8.79327 14.2628L8.06024 14.7218L7.50226 15.0688L6.65625 15.6178L6.16022 15.9398L5.43127 16.4118L4.78925 16.8268L4.03027 17.3168L3.07825 17.1718L2.77722 17.0868L2.53125 16.8538L2.35022 16.7288L1.90027 16.6008L1.61127 16.1598L1.43823 16.0038L1.13623 15.9338L1.17627 15.7758L1.33221 15.5098L1.49023 15.2198L1.40222 15.0588L1.37323 14.9208L1.36322 14.7568L1.47125 14.5998L1.42023 14.4098L1.33722 14.2198L1.27625 14.1238V13.9488L1.31622 13.8148L1.36627 13.6098L1.49426 13.4978L1.52722 13.3808L1.64227 13.2658L1.79523 13.1718L1.83026 13.0968L1.80823 13.0538L1.65424 12.9688L1.57123 12.8198L1.64526 12.6028L1.69421 12.5348L1.78625 12.4288L1.99225 12.2688L2.15326 12.2428L2.29224 12.2418L2.52826 12.2558L2.71124 12.2848L2.75824 12.2428L2.75122 12.1898L2.52527 12.0588L2.51324 11.9538L2.56921 11.8418L2.72925 11.6638L2.92023 11.5338L3.01727 11.5108L3.23523 11.2488L3.37524 10.9558L3.14825 10.2418L3.01227 10.1268L2.79022 10.0288L2.65924 10.0138L2.64923 9.96683L2.82422 9.78583L2.94824 9.62683L2.81122 9.47681L2.56427 9.40582L2.47327 9.56183L2.15723 9.57581L1.66724 9.57382L1.45123 8.81583L1.41827 8.48682L1.42426 8.1058L1.57324 7.54782L1.50323 7.28882L1.49725 7.11383L1.45923 6.87381L1.07227 6.3558L1.28326 5.39981L1.43225 5.16782L1.64227 5.18982L2.09027 5.46182L2.16425 5.45383L2.30023 5.09583L2.43225 4.97482L2.70825 4.86783L2.78723 4.28781L2.91626 4.17682L3.07227 4.11682L3.31226 4.10483L3.52026 4.07083L3.53326 3.96881L3.24127 3.29581L3.26727 3.12482L3.40826 2.44681L3.49725 2.18082L3.58221 2.09381L3.91327 2.12781L4.37622 2.2478L4.49927 2.44281L4.72626 2.61682L5.06525 2.60483L5.45825 2.63782L5.76422 2.6488L6.00922 2.52682L6.56226 2.29883L6.83527 2.22281L7.08423 2.12183L7.88422 1.7478L8.20526 1.77682L8.42426 1.82581L8.59222 1.8858L8.96826 2.14081L9.27924 2.3988L9.49823 2.47583L9.89026 2.46982L10.4572 2.51981L11.1533 2.51581L11.5602 2.44382L12.0792 2.3168L13.0052 2.01181L14.2233 1.3728L14.9393 1.06183L15.2482 1.02481L15.6503 1.02182L16.0522 1.10281L16.5082 1.16083L16.7192 1.15582L17.2122 1.09183L17.8522 0.961823L18.2543 0.855804L18.7402 0.681824L19.0433 0.391815L19.1412 0.361816L19.2673 0.414825L19.3262 0.434814L19.4503 0.598816L19.5803 1.0238Z" fill="#CCCCCC" stroke="white" stroke-width="0.5"/>
</svg>
