<svg width="31" height="48" viewBox="0 0 31 48" fill="none" xmlns="http://www.w3.org/2000/svg">
<path d="M30.0004 12.2248L30.0013 13.5428L30.0024 14.8578L30.0034 16.1688L30.0044 17.4768L30.0054 18.7818L30.0063 20.0828L30.0074 21.3808L30.0084 22.6768L30.0093 23.1048L29.9734 23.2748L29.9584 23.2988L29.9034 23.3278L29.2364 23.2078L28.9443 23.2048L28.5344 23.2968L27.9324 23.3458L27.5444 23.3308L27.2744 23.5528L27.0634 23.8208L27.1634 24.4628L27.1404 24.6738L27.0594 24.8938L26.8763 25.0828L26.6934 25.2338L26.5844 25.3658L26.4493 25.6558L26.3484 25.7908L26.3574 25.9728L26.3254 26.1628L26.2154 26.2628L25.9363 26.3348L25.7554 26.4198L25.6104 26.5588L25.5134 26.6588L25.5644 26.7918L25.6354 26.9738L25.6754 27.2588L25.7034 27.4258L25.8414 27.5618L25.9254 27.6588L25.9543 27.7778L25.8744 27.8768L25.5323 28.0828L25.3954 28.1598L25.2383 28.2648L25.1783 28.3038L24.9283 28.4998L24.8024 28.6738L24.7414 28.8178L24.7444 29.0178L24.8713 29.3158L25.0104 29.5688L25.0634 29.7598L25.0953 29.9688L25.0834 30.1668L25.0114 30.3398L24.8864 30.4948L24.4153 30.7878L24.1844 31.1078L23.9984 31.4978L23.9524 31.7098L24.0024 31.8518L24.1014 31.9708L24.2404 32.0318L24.4443 32.0498L24.7823 31.9848L25.0974 31.9418L25.4314 32.0818L25.6053 32.4078L25.5384 32.6458L25.6644 33.0778L25.7764 33.5988L25.7684 33.7738L25.8174 33.8398L26.0264 33.8738L26.0734 33.9958L26.0044 34.9088L26.1014 35.1638L26.2414 35.3458L26.3994 35.4408L26.5594 35.5628L26.6414 35.6468L26.8254 35.6668L27.0323 35.8328L27.0884 36.0538L27.0743 36.2678L26.9543 36.7298L26.8564 37.0408L26.7364 37.0198L26.4924 36.9428L26.1943 36.8768L25.8284 36.8238L25.4803 36.9508L25.1044 37.1138L24.9864 37.2348L24.8813 37.3068L24.7154 37.2948L24.5634 37.3158L24.4814 37.4318L24.3434 37.5608L23.8014 37.8268L23.6874 37.9238L23.6194 38.0198V38.1248L23.6744 38.3408L23.6733 38.6098L23.5524 38.8278L23.4124 38.9738L23.2513 39.0298L23.1183 39.0608L23.0304 39.1508L22.7474 39.6448L22.6254 39.7358L22.3763 39.7208L21.6624 40.4598L21.5914 40.6778L21.3304 40.9868L21.0004 41.3298L20.7054 41.4958L20.6814 41.5598L20.6024 41.6248L20.4203 41.6988L19.7903 42.1168L19.0334 42.0998L18.6993 42.2638L18.3744 42.3358L17.8984 42.4168L17.7563 42.4088L17.1464 42.4428L16.4314 42.4308L16.1573 42.4898L15.9004 42.6478L15.7094 42.7868L15.6824 42.8338L15.7104 42.8918L15.7034 42.9378L16.2034 43.2788L16.3284 43.4458L16.2024 43.6078L16.1424 43.6318L16.1354 43.6418L16.0533 43.7698L15.7604 44.1538L15.3144 44.6078L15.0864 44.7378L14.9954 44.8228L14.8763 45.1238L14.8004 45.1658L14.4933 45.2048L13.8874 45.2378L13.0483 45.3358L12.5453 45.3688L12.2324 45.3408L11.7924 45.5488L11.6354 45.6018L11.5394 45.6198L11.1034 45.8208L10.7414 46.1338L10.6124 46.1928L10.1024 46.3258L9.89935 46.5408L9.8064 46.5588L9.47937 46.2748L9.25635 46.0178L9.14734 45.7568L9.13434 45.6738L9.07239 45.6888L8.89337 45.8048L8.73834 45.9358L8.66736 46.1858L8.14038 46.3538L7.68939 46.4988L7.48438 46.6808L7.1684 46.7708L6.76538 46.7338L6.45135 46.6598L6.14435 46.6348L6.29138 46.4078L6.34839 46.2388L6.36237 46.0318L6.34039 45.8918L6.15637 45.8218L6.04034 45.7118L5.77637 45.0588L5.50537 44.3868L5.12335 43.7248L4.70734 43.3018L4.40637 43.0438L4.31036 43.0108L4.1554 42.9298L4.04736 42.8548L3.49536 42.4048L2.92334 41.9008L2.77637 41.6708L2.49036 41.3278L2.17035 40.9738L2.00439 40.8128L1.92737 40.5218L2.14734 40.2588L2.38336 39.9268L2.67334 39.7058L3.04938 39.6908L3.6684 39.7818L4.33636 39.8138L4.99835 39.7448L5.16937 39.6968L5.33936 39.7008L5.69537 39.7778L6.31537 39.7608L6.63538 39.6268L6.29034 39.3978L5.91937 39.0348L5.57239 38.6368L5.36139 38.2758L5.1684 37.8108L4.99036 37.2358L4.88135 36.4898L4.89734 36.0668L4.95337 35.7658L5.13934 35.2738L5.01636 34.9858L5.0434 34.7528L5.02539 34.4078L4.96539 34.2318L4.72437 33.6588L4.67535 33.5958L4.46234 33.1988L4.36835 32.5348L4.12738 32.0958L3.74036 31.8838L3.52039 31.6248L3.43939 31.1688L3.28638 31.0488L2.67834 30.8898L2.17035 30.8858L1.80139 30.3708L1.32739 29.7078L0.886353 29.0918L0.60437 27.8558L0.442383 27.1478L0.625366 26.9328L0.987366 26.4278L1.44934 25.4598L2.49036 23.9608L3.02338 23.1918L4.08636 22.0418L5.3924 20.6258L6.12836 19.8258L6.24738 18.3658L6.37335 16.8178L6.46838 15.6448L6.58636 14.2498L6.68634 13.0818L6.75836 12.2288L6.86035 11.0178L6.94739 10.7848L7.46039 9.83182L7.50037 9.70383L7.4054 9.54382L6.67334 8.73181L6.44537 8.55081L6.31335 8.12781L6.50134 7.89081L5.62134 6.52283L5.40338 6.35483L5.30737 6.18781L5.29639 5.93982L5.2804 4.98981L5.04639 3.49481L4.73834 1.74683L5.77234 1.2478L6.55737 0.867828L7.55939 0.382812L8.48737 0.879822L9.83234 1.59781L11.1774 2.31381L12.5214 3.02982L13.8664 3.74481L15.2104 4.45782L16.5554 5.16882L17.8994 5.87982L19.2444 6.58981L20.5884 7.29782L21.9333 8.00482L23.2773 8.71082L24.6224 9.4158L25.9664 10.1198L27.3113 10.8228L28.6554 11.5238L30.0004 12.2248Z" fill="#CCCCCC" stroke="white" stroke-width="0.5"/>
</svg>
