<svg width="7" height="16" viewBox="0 0 7 16" fill="none" xmlns="http://www.w3.org/2000/svg">
<path d="M4.22726 0.831879L4.15527 1.13788L4.00629 1.51587L3.91028 1.63586L3.84229 2.55386L3.88928 2.62988L3.92328 2.65289L4.38928 2.96289L5.00027 3.36987L5.43228 3.65689L5.46826 3.75388L5.47528 4.35587L5.48029 4.87286L5.56927 5.16788L5.58829 5.45486L5.69727 5.67087L6.09528 6.08789L6.19028 6.33389L6.20126 7.12189L6.20828 7.71887L6.25928 8.53189V9.20987V10.0659V11.0699V12.1149L5.99628 12.1279L6.14029 12.4529L6.16428 12.7469L6.19827 12.8429L6.12729 12.9849L6.18628 13.2019L6.30026 13.2819L6.59229 13.7179L6.68927 14.0869L6.22128 14.2099L6.25327 14.3049L5.37827 14.5009L5.03229 14.6629L5.02527 14.5069L4.89828 14.4789L4.74329 14.4259L4.64627 14.3449L4.51227 14.1599L4.46426 14.0149L4.26028 13.9919L4.00827 13.8299L3.76828 13.6439L3.68427 13.4579L3.70828 13.3729L3.67029 13.2839L3.58829 13.2509L3.37228 12.8309L3.23727 12.6619L3.17526 12.5259L3.19727 12.4209L3.16727 12.2789L3.20929 12.1639L3.32626 12.0959L3.36227 12.0119L3.37326 11.8349L3.43826 11.4709L3.48126 11.1129L3.35828 11.0149L3.20828 10.9869L3.13028 10.8839L3.10028 10.7159L3.10327 10.5699L3.39828 10.0599L3.33728 8.88388L3.38129 8.70486L3.51627 8.58087L3.63028 8.43787L3.62527 8.29489L3.42926 7.94388L3.05627 7.67389L2.86526 7.45587L2.76227 7.25989L2.74527 7.15488L2.97128 7.00089L3.07129 6.89487L3.08429 6.77188L2.99228 6.54889L3.00827 6.14987L3.09528 5.85089L3.18427 5.46387L3.17526 5.35089L2.95627 5.11887L2.83728 5.08789L2.74127 5.10388L2.51227 5.25589L2.42926 5.27188L2.37729 5.22787L2.35428 5.16687L2.43527 5.07587L2.40527 4.96289L2.47327 4.86389L2.61829 4.81888L2.66129 4.76889L2.46527 4.72186L2.44226 4.65387L2.45627 4.58887L2.51328 4.57587L2.57428 4.57986L2.60828 4.53287L2.63928 4.20389L2.66226 4.08887L2.68729 3.86087L2.71729 2.97888L2.76227 2.88788L2.76929 2.82187L2.63129 2.77887L2.30627 2.54187L2.11627 2.35986L1.95029 2.17389L1.81128 2.05087L1.53827 1.86188L1.45828 1.74088L1.44629 1.62088L1.52927 1.37888L1.66129 1.12189L1.72629 0.752869L1.68628 0.654877L1.50726 0.483887L2.14627 0.614868L3.05829 0.835876L3.07727 0.874878L3.08328 0.940887L3.24127 0.938873L3.50427 0.86087L4.22726 0.831879Z" fill="#CCCCCC" stroke="white" stroke-width="0.5"/>
</svg>
