<svg width="25" height="44" viewBox="0 0 25 44" fill="none" xmlns="http://www.w3.org/2000/svg">
<path d="M8.69244 0.791962L8.67145 0.96698L8.74042 1.00397L8.8374 0.921967L8.96045 0.722961L9.0954 0.610962L9.24146 0.585968L9.39642 0.721954L9.56042 1.01797L9.72845 1.18597L9.80743 1.20496L9.86444 1.33997L9.87341 1.46997L9.79346 1.74396L9.65845 2.06198L9.46545 2.45596L9.52844 2.78696L9.79144 3.05698L10.1044 3.21597L10.4364 3.17197L10.6134 3.09097L10.7584 2.96396L10.8925 2.90396L11.0624 2.88797L11.5905 2.98096L11.7514 3.07297L11.7755 3.25598L11.7104 3.72498L11.7924 4.06897L11.9414 4.43097L11.9594 4.76096L11.7744 5.30396L11.6204 5.81796L11.4544 6.06796L11.3254 6.22897L11.2874 6.33798L11.2984 6.44098L11.4164 6.59497L11.5424 6.79398L11.5734 6.98398L11.5594 7.21698L11.4734 7.53696L11.1534 8.22998L10.8994 8.85498L11.0324 8.97998L11.2844 9.07098L11.4514 9.15997L11.6264 9.10297L11.9974 8.73398L12.3164 8.45996L12.7134 8.18597L12.7365 8.16196L13.0844 7.95996L13.2434 7.77396L13.3294 7.53696L13.4525 7.44598L13.6115 7.49896L13.8134 7.39597L14.0584 7.13596L14.2464 7.01596L14.3774 7.03598L14.6115 7.19696L14.9494 7.49896L15.2495 7.67896L15.5125 7.73697L15.6414 7.84897L15.6344 8.01596L15.6934 8.12198L15.8164 8.16696L15.8714 8.14896L15.8574 8.06796L15.9764 7.94897L16.2285 7.79297L16.4844 7.70096L16.7444 7.67398L16.9135 7.54996L17.0244 7.22797L17.1854 6.98297L17.3294 6.87198L17.5074 6.81598L17.5544 6.73798L17.4684 6.63797L17.4764 6.53598L17.5794 6.43298L17.8004 6.38898L18.1404 6.40396L18.5374 6.50797L18.9934 6.70197L19.2924 6.76498L19.4354 6.69498L19.7134 6.99496L20.1274 7.66498L20.4814 8.17096L20.7784 8.51297L21.0905 8.77496L21.4174 8.95798L21.6524 9.20697L21.8665 9.67896L21.7064 10.33L21.6635 10.893L21.6834 11.582L21.8764 12.11L22.2424 12.477L22.4554 12.773L22.5154 12.999L22.8004 13.193L23.3114 13.354L23.5244 13.5L23.4374 13.631L23.4304 13.783L23.5024 13.956L23.6804 14.1L23.9614 14.213L24.1295 14.333L24.1824 14.459L24.1765 14.664L24.1115 14.947L23.9944 15.164L23.8244 15.315L23.8034 15.435L23.7594 15.617V15.99L23.8804 16.238L23.9174 16.553L23.8514 16.81L23.7874 17.335L23.7794 17.538L23.7184 17.713L23.5704 17.881L23.3434 18.039L23.0674 18.18L22.8984 18.242L22.8584 18.271L22.7374 18.43L22.5914 18.584H22.4785L22.3934 18.506L22.3334 18.405L22.2984 18.184L22.0435 18.075L21.7634 18.006L21.1934 18.115L20.7324 18.174L20.2155 18.099L19.7294 18.193L19.5264 18.207L19.2935 18.192L19.0674 18.194L18.8524 18.16L18.4564 18.025L18.3044 18.036L17.9854 18.148L17.6514 18.226L17.3314 18.28L16.8584 18.51L16.5164 18.843L16.4154 19.078L16.2454 19.315L16.0104 19.69L15.7054 20.049L15.4934 20.213L15.5524 20.31L15.4995 20.426L15.1674 20.478L14.9084 20.499L14.8615 20.557L14.8925 21.279L14.9834 21.552L15.1505 21.881L15.2594 22.062L15.3414 22.596L15.3654 23.049L15.7304 23.335L15.9364 23.553L16.0834 23.745L16.0324 23.867L15.9444 24.232L16.0294 24.705L16.5394 25.725L16.5834 25.797L16.5224 25.805L16.4424 25.609L16.1834 25.278L16.1035 24.925L15.7994 24.536L15.6295 24.382L15.5744 24.511L15.4774 24.649L15.1794 24.449L14.9234 24.24L14.6884 23.835L14.6584 23.929L14.6054 24.014L14.3374 23.696L14.0574 23.442L13.8054 23.351L13.6505 23.267L13.5004 23.132L13.1864 22.992L12.4044 23.194L11.4094 23.037L11.0264 23.187L10.8694 23.094L10.7724 22.921L10.8654 22.625L10.8864 22.005L11.0054 21.569L10.9494 21.237L11.0074 21.081L11.0515 20.868L10.8944 20.781L10.1914 20.612L10.0435 20.478L9.85541 20.632L9.01141 20.718L8.69342 20.847L8.39941 21.095L8.32343 21.409L8.49341 21.616L8.60242 21.975L8.29944 22.759L8.24841 22.992L8.36542 23.95L8.31842 24.475L8.15344 24.827L7.89246 25.143L7.78442 25.678L7.57941 25.926L7.30444 26.492L7.11841 27.197L6.98645 27.523L6.90942 28.123L6.34241 29.032L6.20941 29.545L6.00641 29.739L6.07745 29.892L6.08942 30.148L6.01843 30.831L5.99542 31.397L6.08142 31.7L6.35242 32.301L6.28845 32.475L6.25641 32.723L6.48541 32.835L6.64941 32.868L7.57544 32.584L7.88843 32.657L8.00641 32.922L8.0824 33.153L8.23944 34.399L8.32043 34.63L8.50745 34.85L8.7124 35.084L8.78241 35.042L8.79541 34.955L8.80945 34.857L8.99243 35.093L9.13544 35.533L9.62341 37.858L9.7644 38.153L9.88141 38.464L9.58344 38.313L9.50342 37.797L9.41846 37.58L9.31342 37.548L9.1474 37.552L9.13641 37.46L9.26141 37.292L9.24146 37.09L9.07043 36.924L8.79443 37.056L8.80243 37.418L8.92542 37.695L9.39343 38.315L9.53943 38.574L9.7254 38.648L9.9964 38.607L10.3204 38.871L10.5754 39.116L11.2084 39.491L11.5914 39.451L12.0054 39.358L12.2824 39.382L12.5544 39.478L12.8814 39.791L13.4005 40.575L14.2484 41.227L14.1564 41.389L14.1194 41.636L13.7854 41.965L13.7314 42.155L13.6094 42.396L13.3774 42.525L13.1774 42.549L13.0624 42.526L12.9824 42.478L12.8464 42.25L12.7774 42.181L12.7194 42.165L12.2924 42.322L11.8795 42.496L11.8034 42.652L11.6934 42.834L11.5734 42.906L11.4785 42.924L11.3875 42.817L11.2294 42.678L11.1074 42.548L11.1384 42.338L11.3704 42.029L11.4005 41.813L11.3714 41.441L11.3084 41.227L11.2415 41.22L11.1274 41.185L10.8054 41.22L10.6444 40.978L10.5814 40.712L10.4714 40.617L10.3624 40.559L10.1214 40.651L9.9364 40.596L9.32343 40.365L9.08844 39.992L8.9624 39.981L8.85144 40.022L8.80743 40.107L8.74243 40.536L8.68945 40.667L7.98645 39.803L7.50244 39.447L7.57043 38.802L7.4234 38.677L7.23944 38.665L7.1004 38.486L7.22345 38.102L7.03345 38.175L6.77045 38.161L6.55444 38.055L6.39142 37.523L6.28741 37.361L6.06244 37.082H5.76544L5.66644 36.948L5.69043 36.604L5.47345 36.393L5.18842 36.221L4.95441 36.12L4.71545 35.565L4.5274 35.429L4.36743 35.318L4.14441 35.393L4.07141 35.593L3.9234 35.786L3.75446 35.762L3.59943 35.652L3.4104 35.097L3.37946 34.757L3.42145 34.125L3.65741 33.558L3.78442 32.65L3.98541 32.079L4.1264 31.885L4.3194 31.104L4.71442 30.105L4.7594 29.891L4.83942 29.651L4.89941 29.424L4.91943 29.066L4.86841 28.878V28.772L4.95142 28.637L5.23242 28.41L5.6214 28.036L6.08344 27.51L6.55743 26.702L6.79242 26.233L6.89142 26.067L6.99542 26.015L7.15741 25.854L7.26843 25.676L7.27441 25.586L7.01746 24.707L6.84845 24.42L6.76343 24.081L6.71741 23.836L6.65546 23.611L6.68542 23.399L6.59241 23.267L6.38245 23.1L6.16443 22.851L6.03442 22.444V22.217L5.89545 22.018L5.84845 21.81L5.93243 21.611L6.04144 21.439L6.02844 20.683L5.98444 20.457L5.93042 20.053L5.78845 19.748L5.5874 19.391L5.35944 19.096L4.76343 18.562L4.33844 18.205L4.12842 17.879L3.86145 17.504L3.67041 17.234L3.42944 16.893L3.30646 16.428L3.2384 15.932L3.27545 15.768L3.39044 15.66L3.54144 15.573L3.66345 15.553L4.00745 15.325L4.2464 15.345L4.30243 15.296L4.32544 15.192L4.29443 14.74L4.30542 14.135L4.34943 13.642L4.40143 13.317L5.0354 12.939L5.16846 12.775L5.23242 12.598V12.442L5.17841 12.319L5.08344 12.251L4.6734 12.577L4.59344 12.505L4.40546 11.969L4.3244 11.805L4.2074 11.609L4.08142 11.335L4.0614 10.861L3.9704 10.626L3.45844 10.125L3.22943 9.85498L2.91644 9.46497L2.54144 8.99698L2.15845 8.56396L1.97845 8.28696L1.91541 8.22397L1.89441 8.11697L2.01044 7.81897L1.95245 7.51898L1.76245 7.11896L1.68042 6.87097L1.7074 6.77597L1.61542 6.73898L1.4024 6.75998L1.19843 6.57196L1.0014 6.17596L0.982422 6.10596L1.04645 6.10696L1.29346 6.17496L1.37744 6.16498L1.55243 6.07397L1.81744 5.97797L1.97443 5.94598L2.02643 5.89896L2.0484 5.80298L1.91345 4.88696L1.9364 4.69598L2.18744 4.29996L2.15942 3.89996L2.22345 3.32596L2.50342 2.93298L2.71344 2.75198L2.77942 2.46796L2.87543 2.40796L3.04944 2.42996L3.40845 2.64197L3.5614 2.65198L3.77942 2.64597L4.01343 2.62997L4.12244 2.60995L4.8714 2.40298L5.03644 2.38098L5.1944 2.40698L5.30945 2.39697L5.42444 2.30197L5.50641 2.13498L5.6004 1.59897L5.65442 1.50397L5.7514 1.42798L5.9104 1.37698L6.09644 1.38098L6.33942 1.48398L6.49146 1.48798L6.66345 1.44498L6.80945 1.37097L6.90643 1.27698L6.95044 1.16397L6.91144 0.94696L6.80042 0.674957L6.83142 0.641968L7.0354 0.701965L7.33545 0.768982L7.56445 0.753967L7.71344 0.70697L7.85944 0.577972L8.04346 0.458984L8.22241 0.485962L8.36145 0.59198L8.69244 0.791962ZM15.1594 25L15.1685 25.068L15.0224 25.016L14.9714 25.04L14.8084 25.021L14.7285 24.626L14.7404 24.533L14.8564 24.562L15.0224 24.758L15.1074 24.894L15.1594 25ZM15.6635 25.889L15.6174 26.186L15.4574 26.064L15.4954 25.914L15.5584 25.846L15.6635 25.889ZM8.55743 31.507L8.53046 31.554L8.42145 31.464L8.34442 31.362L8.30341 31.232L8.47144 31.237L8.55444 31.357L8.55743 31.507ZM8.54742 31.82L8.56042 31.98L8.49945 32.172L8.24341 32.285L8.15546 32.131L8.17841 31.894L8.21741 31.834L8.46844 31.846L8.54742 31.82ZM3.59943 33.331L3.44043 33.361L3.46143 33.207L3.50342 33.11L3.58044 33.084L3.61243 33.25L3.59943 33.331ZM3.8844 36.571L3.85443 36.778L3.73944 36.775L3.62244 36.908L3.56744 36.926L3.47241 36.504L3.58142 35.912L3.64044 35.828L3.72144 35.985L3.95642 36.055L3.85443 36.396L3.8844 36.571ZM4.39642 36.481L4.3634 36.528L4.2204 35.989L4.43146 36.134L4.39642 36.481ZM5.76245 37.443L5.83545 37.782L5.73242 37.713L5.6474 37.565L5.64844 37.348L5.66943 37.318L5.76245 37.443ZM7.4024 40.449L7.34943 40.466L7.24445 40.239L7.37744 39.91L7.51044 40.313L7.4024 40.449Z" fill="#CCCCCC" stroke="white" stroke-width="0.5"/>
</svg>
