<svg width="23" height="17" viewBox="0 0 23 17" fill="none" xmlns="http://www.w3.org/2000/svg">
<path d="M10.8417 3.81387L10.8507 3.88089L10.8097 4.00189L10.2267 4.20789L9.96167 4.38187L9.90472 4.69089L9.83472 4.77988L9.71667 4.85287L9.59967 4.86987L9.42072 4.50687L9.21667 4.43188L8.92371 4.30386L8.35468 4.05588L8.06067 3.94788L7.49567 4.10986L6.83569 4.33188L6.73267 4.46689L6.66272 4.61188L6.66968 4.72186L6.71771 4.86887L6.68469 4.98087L6.56067 5.01688L6.37372 4.88089L6.21069 4.80188L6.13068 4.98788L6.03467 5.31787L5.99072 5.55789L6.1347 5.90387L6.18372 6.41489L6.44769 6.38788L6.64868 6.38889L7.02869 6.23788L7.21967 6.23389L7.51471 6.29987L8.03168 6.31287L8.4397 6.28589L8.5387 6.29688L8.63568 6.19989L8.74268 6.23389L8.84271 6.35089L9.25568 6.20889L9.56268 6.18887L9.75067 6.23087L9.86169 6.27289L10.0607 6.61087L10.2127 6.81989L10.3987 6.88687L10.9757 6.82489L11.1447 6.52988L11.2927 6.45688L11.5307 6.43488L11.7267 6.37787L11.8827 6.25687L12.0957 6.15088L12.2817 6.12988L12.3737 6.20789L12.4137 6.31088L12.3817 6.44388L12.3747 6.58289L12.4947 6.67587L12.8487 6.69788L13.0157 6.78488L13.0257 6.94888L12.9987 7.20587L13.1467 7.30988L13.2237 7.31888L13.7427 7.04688L13.8887 7.04288L14.0047 7.19287L14.1817 7.37286L14.4137 7.56488L14.4697 7.53488L14.5737 7.32587L14.7717 7.09787L15.1437 7.02289L15.3487 6.95187L15.5637 6.91989L16.2157 7.01187L16.4317 7.02386L16.8807 7.00589L17.2337 6.95987L17.5177 6.82288L17.6617 6.71289L17.8947 6.64886L18.1897 6.65988L18.3467 6.69186L18.3607 6.87988L18.3237 7.23688L18.2787 7.48486L18.5117 7.93387L18.6607 8.14987L18.8067 8.30289L18.8337 8.42389L18.8037 8.52188L18.6227 8.61789L18.5577 8.71988L18.5277 8.83487L18.5867 8.96786L18.6907 9.39188L18.8247 9.72089L19.0137 9.87888L19.2967 9.98288L19.4517 9.96088L19.5627 9.71487L19.7487 9.52689L19.9057 9.53989L20.1587 9.53189L20.8227 9.74487L21.4707 10.0669L21.6587 10.2449L21.7247 10.4449L21.5457 10.9069L21.5537 11.2009L21.5947 11.5149L21.7427 11.7469L21.8787 12.1449L21.9047 12.4739L21.9637 12.5719L22.0117 12.6869L21.9397 12.9879L21.8887 13.2909L21.9497 13.3919L22.1477 13.5409L22.4597 13.8199L22.5197 14.0499L22.4087 14.1959L22.2107 14.3739L21.9567 14.5269L21.8817 14.5909L21.8367 14.5549L21.7107 14.3999L21.4307 14.1499L21.2317 14.0179L20.8517 14.0599L20.6287 14.0139L20.3597 13.9319L20.1087 13.9439L19.9507 14.0949L19.8487 14.2459L19.5977 14.2919L19.2367 14.4079L18.6767 14.5889L18.4067 14.5619L18.3337 14.4839L18.3947 14.3799L18.5857 14.2449L18.6327 14.0819L18.5957 13.9309L18.4167 13.8899L18.3487 13.8659L18.2697 13.8349L17.9237 13.7449L17.6477 13.7779L17.1667 13.9669L16.2807 14.4629L15.8917 14.7959L15.6117 15.2989L14.7737 15.4609L14.1977 15.7489L13.6037 16.2169L13.2107 16.4689L13.0197 16.5049L12.8287 16.4599L12.6377 16.3349L12.4507 15.9429L12.2847 15.3489L12.1757 14.9549L12.2377 14.4489L12.3077 13.8719L12.3787 13.2839L12.4937 12.6029L12.5897 12.3599L12.5947 12.1979L12.5097 12.1159L12.3297 12.1199L12.0547 12.2109L11.8597 12.2269L11.7437 12.1679L11.7557 11.8509L11.8957 11.2739L11.6807 10.7879L11.1087 10.3919L10.6227 10.2539L10.2217 10.3749L9.8847 10.6889L9.61267 11.1959L9.32971 11.6099L9.03668 11.9309L8.82672 12.0859L8.7597 12.1459L8.71771 12.2819L8.87268 12.7089L8.86267 13.0659L8.68671 13.3549L8.49371 13.4919L8.28271 13.4789L8.11469 13.4119L7.99072 13.2909L7.65472 13.2579L7.10669 13.3129L6.73169 13.4569L6.52972 13.6909L6.4707 13.9989L6.55573 14.3799L6.51367 14.6719L6.34271 14.8749L6.2027 14.9909L6.09369 15.0209L5.85571 14.8459L5.49072 14.4659L5.23969 14.2599L5.10272 14.2289L5.02869 14.2499L4.9447 14.2899L4.89667 14.3389L4.85571 14.4519L4.73871 14.4969L4.57367 14.4609L4.42267 14.4949L4.33167 14.6139L4.0777 14.7579L3.6297 14.9189L3.3847 15.0909L3.34369 15.2739L3.27771 15.3559L3.13971 15.3259L2.73572 15.5769L2.4267 15.4989L2.07971 15.1759L1.8877 14.9099L1.86768 14.7979L1.97668 14.5429L2.02271 13.6919L2.16168 13.3969L2.57471 12.8669L2.78967 12.4619L3.03271 12.1319L3.2077 12.0219L3.36969 11.7619L3.50171 11.4639L3.5387 11.2759L3.52667 11.1289L3.4787 11.0339L3.24969 10.8319L2.94867 10.5169L2.7887 10.1939L2.70172 9.78189L2.67871 9.49387L2.96069 8.70087L2.91571 8.56787L2.83472 8.44489L2.6687 8.36688L2.4317 8.33389L2.19568 8.36987L1.89471 8.37286L1.68671 8.32788L1.63672 8.27789L1.61072 7.91586L1.55768 7.83688L1.46869 7.76788L0.861694 7.60089L0.742676 7.52887L0.720703 7.43689L0.935669 6.62888L1.02869 6.56787L1.11969 6.43588L1.2627 6.29489L1.75769 6.06387L2.28967 6.16388L2.7627 6.27087L3.23468 6.32889L3.39771 6.36789L3.66669 6.39987L3.84772 6.37189L3.9707 6.27689L4.19269 6.01489L4.26068 5.62088L4.3407 5.27289L4.47571 5.24588L4.61169 5.28287L4.67572 5.21289L4.7027 5.11688L4.72968 5.03488L4.78571 5.01688L4.88367 5.10687L4.9397 5.08289L4.98572 5.02188L4.97168 4.94989L4.86169 4.82788L4.7627 4.63687L4.77271 4.57089L4.80573 4.50189L5.09668 4.43689L5.22968 4.42487L5.2757 4.35687L5.25867 4.24887L5.14868 4.18787L4.75067 4.22089L4.34369 4.21387L4.29468 4.14789L4.31769 4.07489L4.3797 4.01788L5.21967 3.87189L5.66467 3.92288L5.99567 3.99988L6.12567 3.96188L5.97168 3.63187L6.1817 3.60089L6.20868 3.48788L5.93372 2.60889L6.08472 2.53088L6.23572 2.35788L6.22272 2.02887L6.35669 1.86887L6.51569 1.75888L6.75171 1.86987L7.11768 2.19489L7.23572 2.25787L7.3537 2.27588L7.52368 2.17487L8.17572 1.85388L8.54169 1.67288L8.97968 1.40988L9.05469 1.30789L9.20471 0.906891L9.28668 0.879883L9.39771 0.922882L9.78168 1.33789L10.0037 1.60388V1.69489L9.94067 1.76288L9.9527 1.82889L10.2667 1.97287V2.03787L10.1957 2.16287L10.1577 2.23187L10.1187 2.26086L9.69867 2.62286L9.23267 3.02487L9.21667 3.07687L9.19568 3.17688L9.20068 3.27887L9.2757 3.36288L9.47668 3.42188L9.6557 3.49786L9.7467 3.70789L9.85071 3.90189L9.9917 3.94989L10.6827 3.82687L10.8417 3.81387ZM9.98468 1.24588L9.9007 1.25388L9.74969 1.07889L9.69672 0.955872L9.75867 0.918884L9.88867 1.00388L9.97571 1.15488L9.98468 1.24588ZM10.1227 5.32388L9.87067 5.46387L9.72369 5.44888L9.60968 5.31287L9.52667 5.18588L9.50867 5.11389L9.55072 5.11487L9.74469 5.17288L10.0167 5.21289L10.1127 5.24786L10.1227 5.32388Z" fill="#CCCCCC" stroke="white" stroke-width="0.5"/>
</svg>
