<svg width="41" height="30" viewBox="0 0 41 30" fill="none" xmlns="http://www.w3.org/2000/svg">
<path d="M40.3936 21.182L40.2516 21.195L39.9106 21.113L39.2316 20.949L38.6486 20.62L38.2676 20.405L38.2076 20.434L38.0366 20.581L37.9196 20.762L37.8266 21.112L37.6776 21.524L36.9726 21.54L36.3716 21.571L35.9836 21.727L35.6036 21.942L35.5085 22.197L35.4266 22.528L35.2046 23.277L35.0036 23.959L34.8996 24.4L34.7466 24.702L34.3166 25.099L33.8296 25.366L33.5706 25.491L33.4565 25.647L33.4316 25.794L33.3396 25.839L33.1385 25.813L32.9266 25.838L32.4606 25.992L31.9565 26.181L31.3526 26.369H31.0076L30.8705 26.411L30.8096 26.506L30.8705 26.685L30.9296 26.818L30.9825 26.99L30.8406 27.129L30.7416 27.368L30.6646 27.788L30.4506 27.913L30.1066 28.117L29.7276 28.385L29.6296 28.44L29.4116 28.516L29.1946 28.493L28.9976 28.454L28.7836 28.523L28.5616 28.73L28.4586 28.667L28.4066 28.458L28.2956 28.322L27.9485 28.015L27.6516 27.796L27.5236 27.781L27.2516 27.838L26.9106 27.879L26.6335 27.835L26.4136 27.747L26.0746 27.445L25.9506 27.282L25.8575 27.157L25.6266 27.191L25.5616 27.055L25.5526 26.895L25.6166 26.702L25.5976 26.337L25.4676 26.075L25.3196 25.961L25.3386 25.881L25.4036 25.698L25.4866 25.538L25.4856 25.222L25.3816 24.879L25.3406 24.382L25.3666 23.897L25.2256 23.652L24.0696 23.651L23.0416 23.67L22.9836 23.614L22.5836 23.001L22.2596 22.535L21.9396 22.26L21.2065 21.921L20.8556 21.779L20.5546 21.52L20.3086 21.235L20.2455 20.845L20.1956 20.717L20.1246 20.613L20.0475 20.567L19.9536 20.577L19.1016 20.123L18.7596 20.003L18.4376 20.099L18.2956 20.116L18.0156 19.987L17.6935 20.162L17.5566 20.173L17.3646 20.131L17.2056 20.066L16.7766 19.651L16.4166 19.484L16.1576 19.377L15.6586 19.219L15.1276 19.137L14.8546 19.069L14.6586 18.978L14.6075 18.919L14.6106 18.767L14.5956 18.567L14.5306 18.421L14.3956 18.246L14.2086 18.115L13.8866 18.138L13.4036 18.127L13.0336 17.996L12.7396 17.973L12.3856 17.998H12.0956L11.8885 18.094L11.7686 18.206L11.6926 18.548L11.6226 18.599L11.5016 18.624L11.3406 18.606L11.0005 18.609L10.4136 18.548L9.67657 18.53L9.12158 18.703L8.68359 18.951L8.26556 19.23L7.77356 19.67L7.6286 19.866L7.33856 20.645L7.20959 20.757L7.04156 20.846L6.87158 20.862L6.53357 20.977L6.08759 21.167L5.78455 21.241L5.00555 21.202L4.95959 20.955L4.81958 20.053L4.75159 19.139L4.75555 18.717L4.83759 17.868L4.83057 17.439L4.79755 17.05L4.82959 16.668L4.89258 16.238L4.92456 15.8L4.87756 15.494L4.7276 15.247L4.4726 14.941L4.43256 14.759L4.4176 14.557L4.17358 14.534L3.95355 14.325L3.77258 14.211L3.38257 14.084L3.1886 14.078L3.00958 14.171L2.8786 14.358L2.78656 14.063L2.78955 13.754L3.10059 13.115L3.29559 13.302L3.53259 13.377L3.83459 13.388L4.13159 13.339L4.07355 13.12L3.93555 12.995L3.76355 12.897L3.70258 12.607L3.72357 12.306L3.80457 12.021L3.71155 11.906L3.57159 11.835L3.24658 11.843L2.82556 11.768L2.40155 11.735L2.30157 12.071L2.53558 12.511L2.33759 12.295L2.1496 12.009L1.88757 11.493L1.71857 10.887L1.6886 10.231L1.83154 9.68802L2.01556 9.17603L2.12555 8.51904L2.27759 7.87302L2.42859 8.16302L2.6026 8.42303L2.84259 8.66202L2.97455 8.71902L3.37054 8.81802L3.62555 8.78104L3.89655 8.63904L4.16357 8.68503L4.38458 8.95102L4.58057 9.24902L4.8786 9.31204L5.49255 9.09702L5.78455 9.04803L6.03857 9.14703L6.16956 9.16504L6.30255 9.14804L6.18756 8.88403L6.14056 8.62704L6.29456 8.49103L6.77856 8.63602L7.08759 8.54004L7.16656 8.48602L7.2356 8.41904L7.27258 8.19702L7.25757 7.96802L7.21759 7.75302L7.12756 7.56403L6.9046 7.29904L6.04156 6.66602L5.75055 6.41302L5.50854 6.08502L5.35455 5.62204L5.22955 5.13803L5.11359 4.77805L4.81256 3.94003L4.69556 3.84003L4.54858 3.79602L4.19159 3.77002L3.82959 3.83102L3.23755 3.97604L2.89856 3.93103L2.74158 4.02002L2.35358 4.37402L2.17157 4.67603L1.9176 5.36603L2.10956 5.58804L2.10559 5.73404L1.95959 6.74802L2.04858 7.23904L2.0166 7.27502L1.94757 7.16104L1.7276 6.66104L1.34058 6.04904L1.0166 5.11002L1.58557 4.49402L2.07257 4.05603L2.47058 3.79202L2.59259 3.72803L3.13757 3.50903L3.84058 3.31104L4.35956 3.16504L5.03558 3.04004L5.25757 3.01703L5.58258 3.01904L5.84656 3.13602L6.00555 3.22803L6.56958 3.60504L7.14459 3.98904L7.63855 4.41403L7.77856 4.58704L7.85657 4.79404L7.91559 4.99704L8.33459 5.63904L8.50458 5.93204L8.74957 6.31302L8.94659 6.49902L9.13855 6.72803L9.26758 6.91602L9.41455 7.00504L9.57855 7.04004L9.95258 6.98004L10.4026 6.86102L10.6716 6.81104L10.7916 6.81802L11.5336 6.86002L12.2016 6.89804L13.0256 6.94504L13.2706 6.98904L13.5646 7.03003L13.7106 7.03604L13.8406 6.87302L13.9266 6.78403L13.9936 6.71304L13.9796 6.63303L13.8755 6.56503L13.7115 6.33902L13.6176 5.52203L13.5586 4.82004L13.7536 4.60104L13.9786 4.44202L14.3016 3.96304L14.4756 3.81503L14.7306 3.69202L15.5846 3.66003L15.9446 3.56604L16.0605 3.41104L16.2496 3.01703L16.3126 2.69604L16.4186 2.54904L16.5456 2.44003L16.6766 2.44403L16.9296 2.53802L17.1216 2.59103L17.2585 2.66202L17.3835 2.77603L17.5046 2.97302L17.5236 3.10303L17.5796 3.17804L17.6766 3.17902L17.7486 3.18002L17.7975 3.15204L17.8286 3.08603L17.8046 2.99802L17.6396 2.74603L17.2766 2.28903L17.0396 2.10202L16.9216 2.00104L16.8926 1.90503L17.0466 1.76004L17.1956 1.67703L17.4576 1.73904L17.8066 1.77304L17.9606 1.70004L18.1196 1.33203L18.5156 1.72202L18.9276 2.15802L19.0786 2.23904L19.3736 2.28503L19.6186 2.30103L19.7216 2.34802L19.8315 2.46103L20.0496 2.93704L20.2676 3.06204L20.5386 3.15204L21.4136 3.14404L21.6826 3.16803L21.9016 3.39102L22.0386 3.48303L22.0976 3.56204L22.0826 3.66003L22.0286 3.78503L22.0215 4.02502L22.0076 4.21103L21.9376 4.29904L21.9166 4.38104L21.9745 4.45303L22.3796 4.62903L22.5166 4.81802L22.6196 4.90204L22.6436 5.02002L22.5756 5.09802L22.3856 5.05902L22.2926 5.18304V5.40503L22.4286 5.61304L22.4686 5.80304L22.3786 5.98602L22.2736 6.24402L22.2706 6.42603L22.3326 6.53003L22.6436 6.71802L23.3586 7.19202L23.5236 7.21204L24.2006 7.10202L24.5156 7.09103L24.7016 7.16504L25.2256 7.23203L25.3916 7.30804L25.5696 7.31302L25.8116 7.29102L25.9756 7.07904L26.0596 7.03104L26.1335 6.99603L26.2826 6.99103L26.6966 7.12604L27.1335 7.41003L27.4216 7.66904L27.5646 7.90305L27.7446 8.40903L27.9626 9.18604L28.2245 9.70905L28.5326 9.98004L28.7486 10.478L28.9366 11.561L29.0526 11.782L29.1716 11.897L29.5236 12.209L30.2426 12.725L30.6666 13.029L31.3226 13.513L31.9246 13.956L32.5276 14.638L32.6476 14.738L33.1776 15.106L33.7676 15.482L34.1806 15.397L34.8026 15.975L35.0556 16.189L35.1626 16.262L35.6136 16.49L36.3315 16.966L37.2375 17.646L37.8376 18.039L37.9996 18.085L38.1616 18.083L38.3346 17.999L38.5226 17.933L38.8426 18.02L39.1896 18.177L39.4106 18.296L39.6646 18.468L39.8656 18.632L40.0176 18.707L40.5366 18.85L40.6255 18.935L40.6826 19.03L40.6916 19.129L40.3996 19.647L40.3606 20.306L40.3586 20.801L40.3936 21.182ZM2.75055 16.017L2.72455 16.185L2.57257 15.679L2.49658 15.12L2.59357 14.962L2.70258 14.971L2.59857 15.173L2.75055 16.017Z" fill="#CCCCCC" stroke="white" stroke-width="0.5"/>
</svg>
