<svg width="13" height="26" viewBox="0 0 13 26" fill="none" xmlns="http://www.w3.org/2000/svg">
<path d="M11.9874 15.445L11.9814 15.533L11.8824 16.166L11.8604 16.393L11.8454 16.778V17.24L12.0694 17.63L12.0754 17.801L11.9884 17.999L11.5754 18.225L11.0424 18.517L10.5844 18.794L10.0824 19.098L9.92844 19.294L9.67941 19.445L9.47144 19.596L9.43344 19.741L9.28741 20.014L9.09741 20.232L8.62042 20.335L8.53244 20.4L8.31143 20.728L8.20944 20.856L8.08344 21.125L8.24542 21.821L8.44342 22.535L8.48242 22.832L8.47943 23.079L8.36844 23.345L8.11444 23.725L7.92844 24.004L7.57144 24.505L7.46643 24.629L7.22043 24.775L6.74542 24.968L6.41043 25.139L6.24042 24.375L6.09442 23.722L5.97443 23.182L5.76343 22.229L5.58344 21.417L5.40442 20.606L5.24142 19.868L5.07742 19.123L5.00742 19.014L4.51642 18.662L4.06442 18.337L3.59341 17.967L3.08344 17.566L3.00143 17.06L2.73944 16.294L2.46344 15.866L2.35944 15.754L1.80243 15.477L1.48141 15.273L1.39343 15.154L1.33142 14.841L1.10242 14.217L0.841431 13.649L0.745422 13.264L0.732422 12.779L0.783417 12.428L0.89743 12.278L1.44144 11.84L1.69342 11.313L2.00543 11.115L2.27542 10.966L2.49442 10.792L2.68842 10.513L2.83643 10.215L2.86142 9.89203L2.92343 9.37903L3.02243 9.02002L3.25244 8.61304L3.15543 8.28503L3.03342 7.93103L3.06842 7.31604L3.03741 7.06604L2.93842 6.84503L2.83743 6.56104L2.83444 6.32404L2.93143 5.70102L3.00543 5.22403L3.12341 4.60303L3.08142 4.42902L2.99344 4.29904L2.72943 4.16202L2.72644 4.07904L2.79044 3.98703L3.18042 3.68304L3.38943 3.23602L3.56442 3.14304L3.83041 2.98102L3.82043 2.80704L3.76044 2.62003L4.45343 2.40903L5.11343 1.85504L5.34644 1.71902L6.87842 1.20703L7.07742 1.24203L7.30042 1.31702L7.23642 1.50803L7.14844 1.65903L7.27844 1.92603L7.46442 1.76303L7.41742 1.65402L7.40643 1.50903L7.72144 1.49603L8.00043 1.51904L8.30643 1.67804L8.28543 2.28104L8.69342 2.87003L8.57843 3.16302L8.91241 3.33603L9.20944 3.12802L9.35843 2.82104L9.90543 2.64304L10.4254 2.19104L10.7134 2.14502L10.7784 2.51602L10.9174 2.84003L10.7204 2.95404L10.4704 3.29803L9.99542 4.16803L9.55844 4.42303L9.23044 4.75702L9.12442 4.99402L9.09244 5.27002L9.17444 5.76404L9.41342 6.26505L9.68942 6.56702L9.95541 6.66104L10.5744 7.13702L10.5644 7.41904L10.6504 7.75403L10.6834 8.16104L10.8984 8.48602L10.4384 9.19202L10.1864 9.70102L9.69443 10.401L9.25644 10.855L8.31842 11.528L8.08844 11.751L7.93842 11.982L7.86942 12.223L7.89444 12.506L8.20343 13.201L8.61444 13.61L9.03244 13.831L9.75943 13.742L9.73444 14.009L9.78644 14.328L10.0814 14.313L10.2794 14.263L10.4464 13.952L10.8014 14.165L10.9864 14.813L11.2874 15.015L11.3224 15.09L11.2164 15.14L11.1334 15.214L11.2224 15.267L11.5134 15.347L11.6894 15.296L11.9874 15.445ZM11.3514 10.151L10.9184 10.396L11.0014 10.183L11.2874 9.92502L11.3614 9.98703L11.3514 10.151ZM10.4524 13.637L10.3784 13.653L10.2424 13.744L10.1704 13.754L9.96643 13.651L9.88843 13.652L9.79044 13.58L9.82343 13.188L9.85544 13.077L10.3514 13.062L10.6204 13.297L10.6644 13.359L10.6754 13.426L10.5504 13.557L10.4524 13.637Z" fill="#CCCCCC" stroke="white" stroke-width="0.5"/>
</svg>
