<svg width="55" height="24" viewBox="0 0 55 24" fill="none" xmlns="http://www.w3.org/2000/svg">
<path d="M7.32227 1.39383L7.24622 1.82281L7.42322 2.29483L7.83722 2.94781L8.25427 3.27682L9.93927 4.08881L10.2493 4.15781L10.1793 4.48981L10.0773 4.78381L9.96625 4.97983L9.47223 5.1058L8.11023 4.74481L7.76526 4.71082L7.52222 4.78281L7.07227 5.04483L6.57324 4.96082L5.87726 5.10883L5.68323 5.60181L5.20026 6.16483L4.40527 6.6188L3.83722 6.86182L2.98322 7.72983L2.59625 8.2348L2.43323 8.33282L2.23926 8.41083L2.30426 8.16782L2.40027 7.94583L2.37823 7.77783L2.38226 7.53381L2.66626 7.25681L2.92523 7.05582L3.69025 6.69083L3.89227 6.38681L3.29224 6.39383L2.68225 6.46082L2.29926 6.41782L1.96527 6.44281L1.86023 6.17682L1.77924 6.01682L1.86627 5.96683L1.97626 5.93182L2.17224 5.64783L2.34723 5.43881L2.59924 5.1748L2.66327 5.01682V4.86981L2.60223 4.76782L2.59027 4.64581L2.58221 4.47482L2.59625 4.11981L3.17426 3.73181L3.35925 3.69083L3.42224 3.51282L3.38025 3.10083L3.30023 2.76782L3.19623 2.74582L3.05725 2.6488L2.96625 2.53583L2.82025 2.41281L2.56921 2.33682L2.56122 2.23181L2.58722 2.12683L2.68024 2.01883L3.10425 1.92581L3.15424 1.84982L3.21124 1.6618L3.29523 1.46982L3.39526 1.40683L3.57422 1.41281L3.91425 1.3688L4.15125 1.30582L4.38623 1.17383L4.50726 1.0538L5.01727 0.984802L5.16022 0.923828L5.30225 0.97583L5.49323 1.18082L5.80725 1.47482L5.97522 1.57281L6.10126 1.52783L6.32922 1.42081H6.54724L6.72327 1.43982L6.80823 1.3468L6.94122 1.32681L7.32227 1.39383ZM45.1973 3.08582L45.3832 3.16083L45.7352 3.25681L45.9532 3.3728L46.0773 3.40381L46.3643 3.16782L46.7902 3.17383L47.1652 3.20081L47.3582 3.24481L47.5952 3.32281L47.8812 3.37582L47.9982 3.26282L48.1652 2.92981L48.2302 2.88782L48.2762 2.85782L48.4882 2.83182L48.6893 2.85681L48.7842 2.91382L48.8793 3.18082L49.1182 3.27582L49.5402 3.70081L49.7982 3.87082L49.8613 3.9418L49.7762 4.02783L49.8102 4.13382L49.9572 4.27182L50.1642 4.32382L50.3882 4.30481L50.5103 4.35483L50.5972 4.43283L50.6202 4.54282L50.6143 4.61282L50.6583 4.76981L50.8333 4.99182L51.0413 5.12781L51.1533 5.27283L51.3353 5.77182L51.4092 6.04681L51.3812 6.31183L51.2552 6.58282L50.9792 6.91983L51.0472 7.06082L51.1093 7.24683L51.0883 7.38181L51.2842 7.81183L51.3732 8.07883L51.2993 8.14081L51.2512 8.22583L51.6033 8.43082L52.0253 8.60281L52.2032 8.6358L52.6873 8.55682L52.9993 8.53983L53.3093 8.70282L53.7603 9.09781L54.2473 9.61182L54.3442 9.76782L54.3862 9.83682L54.4813 9.96082L54.3823 9.95883L54.2222 9.84781L53.8353 9.53183L53.6373 9.66782L53.4662 9.90182L53.2792 10.7888L53.1282 10.8828L52.8613 10.8808L52.5342 10.8498L52.3093 10.8938L52.2512 10.9498L52.2812 11.0448L52.3483 11.1908L52.3953 11.3748L52.4092 11.5248L52.5272 11.6608L52.6862 11.7898L52.6932 11.9218L52.6693 12.1088L52.6323 12.2508L52.5922 12.3318L52.6663 12.5478L52.8392 12.8028L52.9492 12.9008L52.9083 13.3858L52.9733 13.6008L53.0233 13.8968L53.0032 14.3888L53.0242 14.5098L53.0833 14.5508L53.2413 14.5698L53.3953 14.6148L53.4492 14.6958L53.4482 14.7548L53.2552 14.9798L53.2322 15.1398L53.1652 15.3648L53.1102 15.4968L52.9382 15.7468L52.8292 16.0008L52.7792 16.2098L52.8123 16.3088L53.1302 16.3388L53.3022 16.4888L53.7612 16.7878L53.8422 16.9088L53.7172 17.0928L53.7192 17.1698L53.7792 17.2678L53.8073 17.4388L53.7963 17.6278L53.7982 17.8778L53.8823 17.9188L54.1942 18.1528L54.4163 18.3868L54.4232 18.4598L54.3162 18.6448L54.3392 18.8578L54.3353 18.9068L54.2393 18.8268L54.0662 18.7978L53.8882 18.7888L53.7762 18.8518L53.5803 19.0188L53.3162 19.2008L53.1022 19.3678L52.9792 19.4828L52.8773 19.4638L52.7982 19.3638L52.7543 19.2238L52.7733 18.6948L52.7263 18.5288L52.6262 18.4128L52.5082 18.3468L52.3682 18.3098L52.2233 18.3058L52.0182 18.4608L51.7272 18.6218L51.2762 18.6088L50.9733 18.5788L50.8273 18.5488L50.2402 18.3028L50.1182 18.2968L49.8992 18.1968L49.6392 18.1178L49.2012 18.2678L49.0123 18.2318L48.7473 18.1018L48.6533 18.1368L48.3572 18.5328L47.8533 18.9558L47.5812 19.0268L47.4523 18.6018L47.3273 18.4368L47.2682 18.4168L47.1423 18.3638L47.0443 18.3938L46.7413 18.6838L46.2552 18.8578L45.8533 18.9638L45.2133 19.0928L44.7192 19.1568L44.5092 19.1618L44.0532 19.1038L43.6512 19.0228L43.2493 19.0258L42.9402 19.0628L42.2242 19.3738L41.0062 20.0128L40.0803 20.3178L39.5612 20.4448L39.1542 20.5168L38.4583 20.5208L37.8912 20.4718L37.4982 20.4768L37.2803 20.3998L36.9692 20.1418L36.5933 19.8868L36.4252 19.8268L36.2062 19.7778L35.8862 19.7488L35.0862 20.1228L34.8372 20.2248L34.5632 20.3008L34.0103 20.5288L33.7653 20.6508L33.4583 20.6398L33.0662 20.6078L32.7263 20.6188L32.4993 20.4458L32.3762 20.2508L31.9133 20.1308L31.5822 20.0958L31.4973 20.1828L31.4092 20.4488L31.2682 21.1278L31.2422 21.2978L31.5342 21.9708L31.5212 22.0728L31.3132 22.1078L31.0742 22.1198L30.9183 22.1798L30.7892 22.2908L30.7112 22.8708L30.4343 22.9768L30.3022 23.0978L30.1663 23.4558L30.0922 23.4638L29.6442 23.1928L29.4343 23.1708L29.6152 22.8898L29.4193 22.3328L29.2053 21.8108L29.4072 21.4768L29.8253 21.0728L30.2642 20.5988V20.3058L30.2413 20.0818L30.1152 19.9268L29.8732 19.7208L29.4683 19.9408L29.1793 20.1838L28.9902 20.2328L28.7852 20.3708L28.6852 20.6208L28.4373 20.8148L28.0322 20.8908L27.4232 20.6828L26.7692 20.3668L26.3992 20.1098L26.0972 20.0478L25.8102 20.1608L24.9633 20.7888L24.1882 21.7048L23.9962 21.8628L23.2662 22.2558L22.7842 22.3868L22.5573 22.3568L21.5963 22.5288L21.1193 22.5538L20.7413 22.7608L20.0082 22.5368L19.5703 22.2498L19.3063 21.9578L18.8762 21.3288L18.5712 21.0298L17.8862 20.7598L16.6923 20.1038L16.3782 20.0318L15.5632 19.9378L14.7042 19.8778L14.5303 20.1168L14.4642 21.0618L14.3173 21.3208L14.2543 21.8098L14.1492 21.9498L13.9843 22.0418L13.7263 21.8878L13.5472 21.8198L13.1302 22.0208L12.3052 22.3018L12.0242 22.3418L11.0682 21.9878L10.7183 21.7598L10.4922 21.5078L10.4163 21.0808L10.2742 20.8378L10.2532 20.6708L10.1973 20.4788L10.0043 20.4028L9.79724 20.5488L9.57526 20.5428L9.29724 20.4538L8.64026 20.0948L8.13623 20.0658L7.83221 20.5038L7.59625 20.6428L7.33826 20.6848L7.32324 20.5608L7.51923 20.2768L6.73224 20.3288L6.31726 20.5448L5.99323 20.5108L5.75024 20.4138L5.78625 20.2948L6.03223 20.2508L6.24622 20.1538L7.09827 20.0748L7.29724 19.9958L7.51526 19.6868L7.91125 19.4208L7.96222 19.3068L7.65723 19.3058L6.35126 19.3828L5.45526 19.3408L5.34924 19.4728L5.21423 19.4918L5.17725 19.1328L5.31921 18.9658L5.50922 18.9818L5.97827 18.8368L5.93622 18.5378L5.60126 18.3358L5.53326 18.2158L5.28925 18.1878L5.09222 18.0448L5.04926 17.6848L4.89227 17.2888L4.66827 17.0978L4.69623 16.9928L5.10724 16.8588L5.19226 16.3038L5.12927 15.9628L4.92224 15.9338L4.31921 15.6638L4.13623 15.6928L3.93622 15.3958L3.58624 15.1828L3.41327 15.2608L3.30426 15.3578L3.14227 15.3118L2.87122 15.1268L2.60425 15.0268L2.48627 14.9028L2.63422 14.5718L2.83826 14.5798L2.87524 14.3208L2.71423 13.8878L2.73022 13.6648L2.90826 13.6038L3.11127 13.6458L3.31622 13.9048L3.38324 14.1548L3.34027 14.3988L3.47021 14.6348L3.56323 14.6948L3.62524 14.4458L3.71222 14.3988L3.83221 14.5068L4.08923 14.5608L4.75525 14.4088L4.88324 14.2798L4.39526 14.2948L4.21722 14.1738L4.02325 13.9028L3.90424 13.6568L3.88324 13.5358L3.81622 13.3588L3.89026 13.2638L4.22424 13.1218L4.51727 12.7228L4.39423 12.6078L4.25427 12.5528L4.10223 12.5938L3.95825 12.4568L3.93927 12.2668L4.05426 12.1128L4.06622 11.9008L3.68927 11.3778L3.58423 11.2638L3.66626 11.0928L3.95422 10.8058L4.22827 10.4498L4.19525 10.3328L3.99225 10.2848L3.03027 10.4378L2.65625 10.5698L1.98926 10.6308L1.94122 10.4368L1.95624 10.2628L2.10626 9.94482L2.09222 9.15881L2.18127 8.73181L2.55225 8.60382L3.00726 7.97482L3.74426 7.2308L4.51422 7.24481L4.82227 7.03882L5.27924 7.02682L5.36224 7.17581L5.41425 7.31882L5.81525 7.52481L6.52325 7.49182L6.69525 7.41083L6.86224 7.29782L6.53424 6.93182L6.63824 6.82782L6.93524 6.81583L7.25726 6.90182L7.27222 6.98581L7.18726 7.10083L7.08722 7.30182L7.18225 7.34082L8.09827 7.21881L9.05627 7.3168L9.36127 7.26382L10.1143 7.26782L10.2493 7.14182L10.0212 6.98282L9.79822 6.92783L9.64825 6.85083L9.49823 6.73782L9.97626 6.38281L10.2462 6.31482L11.5192 6.09583L12.4662 5.98682L12.4783 5.90482H12.3412L11.1182 5.72281L10.8232 5.58282L10.4142 5.2478L10.3253 5.15283L10.2222 4.98883L10.2842 4.63983L10.3602 4.35883L10.5112 4.19583L11.0002 4.17081L12.6763 4.45682L13.8702 4.28583L15.1752 4.70181L16.4243 4.61783L16.6813 4.43082L16.9943 3.82782L18.7582 2.82382L19.3752 2.29883L20.0372 2.0108L21.1722 1.69083L22.1212 1.26682L22.3923 1.2178L24.6702 1.42081L26.2352 1.44681L26.9532 1.04581L27.3702 1.18082L27.3312 1.32382L27.2552 1.44681L27.2783 1.69382L27.5222 2.05682L27.7712 2.3038L28.5012 2.65781L29.5162 2.3598L29.6802 2.39282L29.8873 2.47583L30.2452 3.43283L30.5233 3.76981L30.8793 3.99881L31.1722 4.04382L31.3892 3.80481L31.5573 3.70883L31.9243 3.66782L32.5253 3.99582L32.7332 4.33383L33.7562 4.59482L34.6953 4.72583L35.1002 5.01181L36.4222 5.29782L36.9163 5.25381L37.7443 4.95383L39.3563 4.62482L40.4272 5.08383L40.7172 5.14383L40.9672 5.10382L41.3273 5.22983L41.7112 5.1618L42.8962 4.61981L43.2673 4.31183L43.6602 4.23282L44.0082 4.04782L44.9362 3.44281L45.1973 3.08582ZM1.58423 8.18881L0.93927 8.30182L0.739258 8.19083L0.941223 7.96982L1.31726 7.83282L1.43927 7.8168L1.60425 8.0368L1.58423 8.18881Z" fill="#CCCCCC" stroke="white" stroke-width="0.5"/>
</svg>
