<svg width="12" height="12" viewBox="0 0 12 12" fill="none" xmlns="http://www.w3.org/2000/svg">
<path d="M8.30988 8.88394L8.13586 9.23795L7.99585 9.61194L7.93988 9.96494L7.94287 10.3279L7.90289 10.6559L7.8349 10.9799L7.56287 10.8869L7.41589 10.6549L7.3819 10.2739L7.18488 9.81393L7.1109 9.68195L6.82587 9.42395L6.56689 9.29593L6.36688 9.10495L6.39288 9.12094L6.24487 8.86395L6.13287 8.59094L5.90186 7.81293L5.8219 7.62494L5.7149 7.45294L5.68488 7.28293L5.72089 7.09393L5.8219 6.81094L5.88287 6.52594L5.83386 6.13794L5.85291 5.75394L5.92786 5.58295L7.2489 3.23093L7.60687 2.72794L7.82788 2.48093L8.01288 2.20193L8.18787 1.84894L8.40289 1.52594L8.55591 1.42593L9.31488 1.13593L9.54987 0.858948L9.73889 0.772949L9.95386 0.777954L10.0929 0.909943L10.2169 1.06693L10.3469 1.15094L10.6819 1.30392L10.8289 1.45193L10.8949 1.70593L10.6909 1.94794L10.5889 2.16592L10.5699 2.40594L10.6059 2.73093L10.6109 3.05695L10.3549 3.81995L10.0818 4.29495L10.0079 4.53094L9.92487 5.11694L9.76385 5.70395L9.62689 6.44693L9.40289 7.21194L9.27588 7.53094L9.11786 7.83594L8.73987 8.41193L8.30988 8.88394ZM1.00885 3.09393L1.13086 3.29794L1.07886 3.42395L0.692871 3.35693L0.670898 3.23395L0.816895 3.25595L1.00885 3.09393Z" fill="#CCCCCC" stroke="white" stroke-width="0.5"/>
</svg>
