<svg width="33" height="31" viewBox="0 0 33 31" fill="none" xmlns="http://www.w3.org/2000/svg">
<path d="M30.149 19.9822L29.997 20.0192L29.938 19.9832L29.845 19.8652L30.007 19.7652L30.164 19.5712L30.529 19.2862L30.654 19.0982L30.699 19.0582L30.673 19.2802L30.467 19.7652L30.291 19.7972L30.149 19.9822ZM29.546 14.9172L29.761 15.5142L29.734 15.6262L29.582 15.6942L29.503 15.7002L29.409 15.6042L29.343 15.4032L29.228 15.4512L29.032 15.2102L28.838 15.1982L28.666 14.9112L28.733 14.6612L28.694 14.2342L28.903 14.0162L29.021 13.6482L29.157 13.8992L29.188 14.2912L29.371 14.7512L29.524 14.8932L29.546 14.9172ZM30.58 11.3642L30.597 11.5052L30.554 11.6382L30.563 12.0612L30.546 12.3422L30.386 12.7312L30.255 12.8702L30.138 12.8292L30.042 12.7652L29.967 12.6582L30.119 11.9452L30.041 11.4232L30.342 11.4732L30.58 11.3642ZM5.20599 0.456177L5.26501 0.464172H5.55902H6.05798H6.55701H7.05603H7.55499H8.05402H8.55298H9.052H9.55103H10.05H10.549H11.048H11.547H12.046H12.545H13.044H13.543H13.85H14.064L14.266 0.569183L14.491 0.694183L15.09 1.02618L15.688 1.35818L16.286 1.69019L16.884 2.02219L17.482 2.35419L18.081 2.68619L18.679 3.01819L19.278 3.35019L19.876 3.68219L20.474 4.01419L21.072 4.34619L21.67 4.67819L22.269 5.01019L22.867 5.34219L23.465 5.67419L24.063 6.0062L24.349 6.16519L24.392 6.23419L24.441 6.53717L24.472 6.7262L24.455 6.89319L24.296 7.17618L24.25 7.32419L24.249 7.42719L24.288 7.46817L24.423 7.48318L24.538 7.55017L24.58 7.60318L24.668 7.81619L24.779 7.92319L25.032 8.10419L25.463 8.41318L25.894 8.72217L26.325 9.03119L26.756 9.34018L27.187 9.64917L27.618 9.95819L28.049 10.2672L28.48 10.5762L28.689 10.7272L28.778 10.7692L28.722 11.0042L28.501 11.5752L28.488 11.8132L28.402 12.0932L28.319 12.2782L28.094 13.0822L27.906 13.3832L27.649 14.0882L27.608 14.6282L27.75 15.0062L27.802 15.3602L28.104 15.7082L28.345 15.8322L28.508 15.9912L28.797 16.3542L28.963 16.7182L29.482 16.8972L29.689 17.3062L29.614 17.5872L29.373 17.8202L29.148 18.1972L28.967 18.6932L28.963 19.4522L29.085 19.3372L29.36 19.5232L29.395 20.0822L29.112 20.7332L29.025 21.0382L29.011 21.3002L29.217 22.0812L29.529 22.4782L29.5 22.6002L29.419 22.7042L29.953 23.4082L29.909 24.0212L30.109 24.4992L30.196 24.9132L30.328 25.2312L30.353 25.4502L30.188 25.6932L30.577 25.7542L30.806 25.9532L30.914 26.1432L31.195 26.1352L31.347 26.2652L31.567 26.3732L32.052 26.6932L32.183 26.8542L32.23 26.9472L32.261 27.0082L31.935 27.2562L31.427 27.6422L30.928 28.0202L30.447 28.2802L30.103 28.4012L29.735 28.4682L29.386 28.6272L29.056 28.8772L28.633 29.0032L28.118 29.0042L27.577 29.1792L27.04 29.5102L26.727 29.7032L26.231 29.4122L25.842 29.3202L25.395 29.3302L25.123 29.3662L25.025 29.4292L24.94 29.6072L24.868 29.8992L24.575 30.1802L24.061 30.4492L23.587 30.5502L23.153 30.4822L22.86 30.3702L22.707 30.2142L22.482 30.1422L22.184 30.1552L21.898 30.2662L21.625 30.4762L21.19 30.5672L20.592 30.5392L20.271 30.4372L20.227 30.2622L19.965 30.0572L19.486 29.8222L19.132 29.8172L18.905 30.0432L18.698 30.1852L18.511 30.2432L18.343 30.2502L18.194 30.2072L18.101 30.1892L17.44 30.1652L16.814 30.1742L16.794 30.0762L16.751 29.8472L16.621 29.6482L16.509 29.5292L16.369 29.4982L16.293 29.5002L16.232 29.4082L16.16 29.2052L16.054 29.0332L15.913 28.8902L15.828 28.7572L15.799 28.6352L15.821 28.5012L15.952 28.1682L15.994 27.9392L15.979 27.7052L15.908 27.4652L15.76 27.1802L15.777 27.0982L15.727 26.9042L15.722 26.7682L15.751 26.5982L15.723 26.3752L15.595 25.8992V25.7772L15.46 25.5472L15.044 25.0032L15.024 24.9322L14.372 24.3842L14.111 24.2642L14.017 24.3672L13.982 24.4622L14.009 24.6382L13.993 24.7252L13.966 24.7652L13.811 24.7592L13.714 24.7392L13.467 24.5922L13.275 24.5562L12.797 24.5822L12.63 24.6172L12.499 24.5842L12.246 24.3332L11.95 24.2802L11.684 24.2672L11.245 23.9822L11.142 23.9952L11.093 24.0172L10.934 23.9422L10.635 23.7762L10.219 23.6302L9.87903 23.4672L9.72699 23.3082L9.40802 23.2472L9.13202 23.2212L8.87598 23.0732L8.61102 23.0562L8.35101 23.0182L8.29303 22.9212L8.284 22.7032L8.19299 22.6462L8.00201 22.5902L7.79602 22.5932L7.67102 22.6242L7.59698 22.6082L7.42603 22.4802L7.26703 22.3172L7.20697 22.0572L6.96698 21.8902L6.69 21.7582L5.91998 21.7722L5.79901 21.7322L5.61603 21.6002L5.40198 21.3822L5.22998 21.1332L5.07898 20.7962L5.00702 20.5922L4.922 20.3412L4.73401 19.9652L4.46802 19.4332L4.26202 18.9972L4.04102 18.5292L3.95099 18.1862L3.77899 17.8072L3.49701 17.3412L3.354 17.1592L3.198 16.9962L2.79303 16.6822L2.33398 16.3702L2.08502 16.1602L1.75098 15.5352L1.61102 15.3092L1.51398 14.9122L1.44098 14.5002L1.47101 14.3332L1.76703 13.8022L1.797 13.6532L1.76099 13.4522L1.61499 13.0292L1.50598 12.7532L1.42999 12.5172L1.27197 12.1242L1.05499 11.5832L1 11.3472L1.00702 11.1702L1.12402 10.7032L1.22699 10.2222L1.224 10.0902L2.10699 10.1082L2.25201 10.0032L2.75098 9.69318L3.31201 9.07217L3.42401 8.81418L3.65302 8.41617L3.87701 8.21918L3.96301 8.08218L4.02197 7.86719L4.09198 7.68518L4.38599 7.41617L4.672 7.2092L4.651 7.12619L4.61298 7.06418L4.65503 7.01117L4.81097 6.90518L5.11499 6.8082L5.17499 6.6012L5.17401 6.36618L5.125 6.23517L5.13397 6.0842L5.08698 6.00018L4.888 5.97919L4.59302 5.86218L4.34302 5.81317L4.17603 5.74518L4.11401 5.69318L4.08698 5.55219L4.13599 5.39819L4.16101 5.35419L4.22498 5.18918L4.11603 5.09018L4.08801 5.04218L4.138 4.9632L4.39502 4.44119L4.45099 4.36819L4.56299 4.35919L4.73999 4.2952L4.90399 4.26617L5.03802 4.28818L5.13702 4.26318L5.224 4.1962L5.29797 3.99219L5.35901 3.65219L5.32501 3.37518L5.19702 3.16119L5.16199 2.83517L5.22101 2.39719L5.17902 2.03317L5.03699 1.74219L4.89203 1.56918L4.67102 1.48718L4.323 1.04318L4.21698 0.828186L4.23602 0.694183L4.328 0.651184L4.35602 0.638184L4.578 0.658173L4.78601 0.607178L4.97998 0.485168L5.16803 0.450195L5.20599 0.456177Z" fill="#CCCCCC" stroke="white" stroke-width="0.5"/>
</svg>
