<svg width="52" height="35" viewBox="0 0 52 35" fill="none" xmlns="http://www.w3.org/2000/svg">
<path d="M45.9476 23.2769L45.8456 23.3229L44.8646 23.2589L44.0637 23.3459L43.4926 23.9929L43.1526 23.9909L42.6736 24.1589L42.3486 24.3679L41.9636 24.8199L41.6656 24.6169L41.3007 24.6229L40.9446 24.7459L40.5167 25.0479L40.2786 25.1009L39.8026 25.0149L39.2476 25.1879L38.0496 26.1749L37.6466 26.8939L37.4996 27.0339L37.2976 27.2089L37.0816 27.2969L36.9677 27.2889L37.5386 26.7789L37.7136 26.5879L37.7437 26.4469L37.7466 26.2179L37.5736 25.9339L37.1066 26.6369L36.8416 26.7389L36.5046 26.9499L36.4876 27.4189L36.5266 27.7669L36.6646 28.2039L36.9907 28.9169L37.6566 29.9319L37.9756 30.3039L38.2097 30.4519L38.4916 30.4729L39.0336 30.1599L39.2646 30.1109L39.7686 30.2299L39.9486 30.0219L40.2106 29.9059L40.5466 29.8909L40.9307 29.9849L41.3466 30.1429L41.1757 30.4999L40.9976 30.7839L40.9346 31.0979L40.8356 31.4469L40.3766 31.6029L39.8856 31.5839L39.3676 31.6849L39.1807 31.5499L39.0566 31.4259L38.8267 31.3019L38.5236 31.2339L38.2516 31.3169L37.9296 31.7919L37.3596 32.1159L37.1716 32.4859L36.6107 32.4029L36.1306 32.4679L35.4376 32.8049L34.9096 33.5249L34.3276 33.9739L33.8666 34.1159L33.4337 34.0719L33.1536 33.9379L32.5776 33.4659L32.6116 33.2969L32.6917 33.2119L32.8007 32.9679L33.0306 32.0719L32.9996 31.7799L32.8706 31.3209L32.4136 30.9629L32.0466 31.0309L31.8376 30.9359L31.0847 30.3259L30.6746 30.2829L30.2216 30.4059L30.0546 30.3169L29.9316 30.1039L30.8297 29.3489L31.7116 28.7239L32.0986 28.6599L32.6206 28.3679L33.1786 27.9299L33.0996 27.5849L32.9796 27.3289L32.7126 27.3989L32.5186 27.4839L32.0516 27.2099L31.8806 27.0079L31.1497 27.2179L30.7426 27.1869L29.8446 27.3799L29.4316 27.1919L28.6066 26.6639L28.2966 26.5579L28.0327 26.5809L27.8886 26.4069L28.0646 26.3199L28.2697 26.3099L28.4826 26.2459L28.5427 26.1539L28.5297 25.9799L28.1006 25.8479L27.7017 25.8099L27.4486 25.6539L27.2556 25.4749L27.7076 25.4719L28.1627 25.6079L28.8737 25.6579L29.5197 25.7979L29.6807 25.6239L30.0557 25.3219L30.1266 25.2259L29.4987 25.4329L28.8616 25.3009L28.6296 25.1169L28.4326 24.8459L28.3496 24.5369L28.4036 24.2489L28.3347 23.7279L28.1246 23.2629L28.0507 23.0079L27.8286 22.7789L28.0466 23.2969L28.1276 23.6409L28.2586 23.9569L28.2277 24.7929L28.1466 25.0859L27.8846 25.1599L27.5406 25.1159L27.1906 25.0249L27.2776 24.5659L27.0906 24.7249L26.8276 25.1719L26.5956 25.2379L26.0806 25.1889L25.1246 25.4839L25.0587 25.8049L24.9146 26.2379L24.7756 26.4899L24.7326 26.6419L24.3256 27.2929L24.2736 27.3549L23.5046 28.2539L23.4066 28.3209L22.9086 28.5299L22.6136 28.7129L22.3876 28.7949L22.0056 28.7039L21.8466 28.8329L21.7716 28.9929L21.7706 29.3239L21.9647 29.5609L22.1237 30.3479L22.0646 30.6799L21.9136 30.4649L21.6766 30.2379L21.2166 30.0439L20.7116 30.1109L20.1606 30.4389L19.7866 30.5609L19.5906 30.4769L19.4706 30.4819L19.4286 30.5759L19.4376 30.6529L19.4976 30.7129L19.4896 30.7559L19.4116 30.7829L18.5436 30.5519L18.1686 30.3329L17.8737 29.9219L18.0206 29.7889L18.1486 29.7299L18.6006 29.6959L18.6786 29.6539L18.6866 29.5589L18.7206 29.4349L18.7086 29.2539L18.6586 29.0619L18.8566 28.7809L19.1516 28.5489L19.3246 28.3159L19.3506 27.9739L19.6616 27.8069L19.9366 27.5199L20.0046 27.2069L20.1016 27.0099L19.9257 26.5569L19.8886 26.2579L19.8806 26.0069L19.9666 25.8679L20.2236 25.7109L20.4937 25.5889L20.6057 25.6009L20.6466 25.6779L20.6566 26.1879L20.7106 26.1979L20.7966 26.1349L20.9376 25.8349L21.0346 25.9219L21.1846 25.9549L21.2966 25.8769L21.3696 25.8859L21.4597 25.9629L21.6396 26.0719L21.8076 26.1079L21.9467 26.0359L22.0656 25.9059L22.1926 25.9499L22.4337 26.3039L22.5457 26.2649L23.1006 26.1939L23.1896 26.0979L23.2556 26.0109L22.6757 25.5409L22.7047 25.1899L22.7266 24.7869L22.6577 24.5469L22.5446 24.3569L22.1016 24.1359L21.7586 23.9069L21.6866 23.8029L21.6776 23.6689L21.6627 23.4609L21.5266 23.2819L21.5156 23.1299L21.6016 22.8929L21.6226 22.6409L21.5936 22.5409L21.5136 22.4589L21.3596 22.4509L21.1566 22.3049L21.0176 22.1079L20.6436 21.8239L20.5297 21.7779L20.4597 21.6369L20.4257 21.4689L20.5046 21.2599L20.6036 20.9369L20.6726 20.6339L20.6736 20.4529L20.6287 20.0049L20.4337 19.6619L20.3427 19.6169L20.1856 19.7129L20.0067 19.7939L19.8657 19.7179L19.7047 19.5319L19.4467 19.0129L18.9636 18.9089L18.7636 18.8839L18.5746 19.1339L18.5156 19.0579L18.4626 18.8979L18.3626 18.8349L18.2307 18.9089L18.1926 18.8379L18.2496 18.6209L18.0927 18.5139L17.7216 18.5159L17.5236 18.4359L17.5006 18.2729L17.3836 18.1659L17.1736 18.1139L16.9686 17.9809L16.7706 17.7659L16.4736 17.6259L16.0786 17.5609L16.0466 17.5379L16.0096 17.5069L15.7546 17.6529L15.6016 17.7689L15.4136 17.6969L15.1096 17.9549L14.4916 17.9679L14.1887 17.9519L14.0386 17.8879L13.4586 18.2799L13.3976 18.4239L13.2676 18.4719L12.9026 18.5499L12.5186 18.6599L12.4376 19.0389L12.3236 19.2439L12.1176 19.5439L11.4047 19.6479L10.7886 19.7939L10.1577 19.8849L9.33063 20.2509L9.06165 20.5729L8.79565 20.6629L8.55463 20.6899L8.39862 20.5099L7.87366 20.0279L7.67163 19.7999L7.40564 19.7329L7.11664 19.7709L6.83862 19.8829L6.54663 19.9039L6.21564 19.7419L6.18066 19.7579L6.05365 19.7799L5.23163 19.5839L5.15564 19.5509L5.11963 19.5429L5.00665 19.5279L4.38763 19.5519L3.81061 19.1559L3.63361 19.1439L3.49664 19.3039L3.39563 19.4819L2.99762 19.6589L2.89563 19.7299L2.83765 19.6749L2.81061 19.5219L2.84064 19.3859L2.78162 19.2579L2.63062 19.1119L2.59363 19.0509L2.40363 19.0619L2.35162 19.0759L2.33264 19.0729L2.0686 18.9489L1.89465 18.6499L1.62366 18.4909L1.41663 18.4369L1.32263 18.3079L1.26166 18.1369L1.19763 18.0079L1.19061 17.9949L1.14661 17.7989L1.08362 17.7789L1.07263 17.7739L0.805664 17.8079L0.836609 17.1189L1.26361 16.6219L1.36865 16.3709L1.52863 15.8259L1.64862 15.5699L1.79266 15.3579L1.90765 15.1529L1.94861 14.9769L2.06464 14.9569L2.40466 15.1159L2.70966 15.1979L2.79364 15.1199L2.82861 15.0179L2.81464 14.9389L2.57062 14.7039L2.41766 14.5539L2.40765 14.4619L2.46265 14.2549L2.49261 14.0229L2.45764 13.7709L2.29065 13.2119L2.25964 12.9739L2.41864 12.6839L2.93665 11.9919L3.10962 11.7309L3.34564 11.4159L3.98663 10.6599L4.39062 10.2189L4.66461 9.97388L5.06561 9.54889L5.24164 9.32788L5.97363 9.18387L6.06464 8.97687L6.19861 8.75089L6.30261 8.65387L6.31665 8.27289L6.18066 7.80588L6.07166 7.64087L5.99066 7.52789L6.04364 7.42288L6.12463 7.39288L6.22461 7.37787L6.34863 7.26489L6.32062 7.14188L6.01166 6.84189L5.87762 6.61087L5.66864 6.01489L5.24463 5.39487L5.11066 5.19388L5.09161 5.00388L5.15363 4.81387L5.0946 4.57089L4.94464 4.26086L4.96863 4.22687L4.95361 3.84387L5.06061 3.76086L5.22961 3.70486L5.46765 3.72388L5.67163 3.78287L5.91565 3.95789L5.99164 3.92987L6.40863 3.59988L6.83862 3.10187L6.96161 2.81287L7.0686 2.68088L7.44263 2.61087L7.76862 2.58188L7.97565 2.58688L8.48462 2.53787L8.78564 2.48288L9.04663 2.39487L9.60962 2.36188L10.4876 2.42087L11.0646 2.42487L11.4566 2.47186L12.4156 2.73688L12.7726 2.78488L12.9387 2.92587L13.2576 2.97787L13.8376 3.11887L14.3406 3.19489L14.6807 3.16388L14.8706 3.20389L15.2307 3.82889L15.3046 3.90189L15.4486 3.91687L15.7426 3.86288L16.1606 3.88388L16.4086 4.01489L16.3726 4.38586L16.4376 4.43988L16.5536 4.41888L16.6866 4.20987L16.7986 3.99289L16.8817 3.92487L17.3087 4.07187L17.5037 4.04788L17.6837 3.88287L17.7936 3.85489L18.0966 3.97186L18.4696 4.05386L18.7716 4.05887L18.9597 4.14789L19.0966 4.53488L19.2156 4.61487L19.3306 4.63889L19.5046 4.29288L19.6627 4.15887L19.8817 4.05988L20.0226 4.01688L20.1226 3.89389L20.2567 3.77487L20.3726 3.76489L20.4666 3.81088L20.5746 3.97589L20.7326 4.35187L20.9246 4.72888L21.0587 4.86588L21.4047 4.74988L21.6386 4.63187L22.0676 4.60986L22.6367 4.52689L23.0717 4.41888L23.3436 4.43787L23.5086 4.55789L23.7596 4.78888L23.8276 5.12088L24.1536 5.34988L24.4207 5.39188L24.5117 5.15387L24.6677 4.98788L24.6086 4.75888L24.5826 4.46689L24.4656 4.19589L24.3876 3.90387L24.5306 3.48587L24.6866 3.11987L24.7646 2.92087L25.0117 2.55289L25.2646 2.28989L25.6436 1.86688L25.9207 1.72687L26.1707 1.79086L26.3096 1.84888L26.6686 1.59787L27.3076 1.58487L27.8397 1.61688L27.8936 1.62488L28.1556 1.75488L28.4307 1.86487L28.6206 1.87189L28.8466 1.84686L29.1126 1.69989L29.2976 1.55789L29.5226 0.835876L29.6027 0.731873L29.7266 0.674866L29.9296 0.668884L30.3156 0.803864L30.7676 0.924866L31.0297 0.907867L31.7277 0.522888L32.1166 0.462891L32.5786 0.552887L33.0327 0.557892L33.3746 0.501892L33.6096 0.634888L33.8997 0.928864L34.1616 1.36487L34.4356 2.16788L35.2346 3.07089L35.2476 3.24689L35.1826 3.35986L34.7896 3.46887L34.4576 3.52789L34.4417 3.68188L34.5297 3.84888L34.6816 4.09286L34.7047 4.40689L34.6967 4.69489L34.7617 4.94888L34.8886 5.05289L34.9047 5.17987L34.7586 5.33588L34.7177 5.43188L34.7747 5.48389L35.4956 5.51389L35.8486 5.66489L36.1166 5.80289L36.2516 5.81589L36.5557 5.72787L36.8976 5.67188L37.1046 5.66388L37.1846 5.76587L37.2487 6.03287L37.3687 6.29987L37.4807 6.37589L37.6807 6.36288L37.8007 6.37589L37.8646 6.47687L37.7927 6.62888L37.8087 6.79388L37.8966 6.99588L38.0006 7.46289L38.0966 7.60187L38.1606 7.77789V7.97989L38.0806 8.15588L38.0247 8.29388L38.0806 8.60788L38.2966 8.95889L38.4566 9.04587L38.5847 9.35889L38.8167 9.45889L39.1606 9.19589L39.4246 9.05789L39.7546 9.13489L40.0596 9.18387L40.2646 9.36288L40.4156 9.60889L40.5916 9.74588L40.7676 9.67389L41.1346 9.74588L41.3026 9.94489L41.4706 10.0569L41.6866 9.89487L41.8626 9.69489L42.5067 9.48587L42.9066 9.43387L43.0186 9.39288L43.2537 9.24289L43.5016 9.14288L43.7246 9.16989L43.9446 9.48087L44.1726 9.69489L44.2366 10.0319L44.5146 10.4939L45.2056 11.1249L45.4766 11.3169L45.6606 11.2829L45.7567 11.2329L45.8016 11.1669L45.8436 10.8579L45.9307 10.7439L46.0706 10.7409L46.6116 11.1249L46.8947 11.1669L47.1636 11.1739L47.5256 11.4719L47.9226 11.7309L48.2296 11.7579L48.4746 11.6559L48.6426 11.5939L48.7466 11.6929L48.8427 11.9159L49.0026 12.0889L49.1866 12.1379L49.4517 12.1489L49.9116 12.4829L50.3436 12.8229L50.6136 12.8419L50.8427 12.7419L51.0446 12.7159L51.1856 12.8019L51.2256 12.9489L51.1216 13.1459V13.4279L51.3137 13.6979L51.3196 13.9629L51.2646 14.2019L51.1556 14.4219L50.8926 14.7239L50.6497 15.0049L50.2846 15.1219L50.0797 15.2449L50.1336 15.4509L50.2676 15.6429L50.5776 15.7979L50.9296 15.9109L50.9706 16.0359L50.9166 16.0989L50.6906 16.1569L50.3787 16.0979L50.2747 16.2069L50.1306 16.3879L50.0346 16.7139L49.9626 17.0159L50.3016 17.0979L50.4987 17.2209L50.5606 17.4679L50.6306 17.7429L50.6516 17.9899L50.5396 18.1099L50.5327 18.2329L50.5856 18.2939L50.7316 18.3209L50.8427 18.3759L50.8516 18.5059L50.6386 18.7979L50.4396 19.3559L50.3326 19.6519L50.3406 19.9729L50.2206 20.1509L49.9996 20.1739L49.2496 20.2049L48.5966 20.1889L48.3146 20.1429L47.8726 20.1149L47.6536 20.1909L47.3636 20.7029L47.1436 20.9029L46.7806 21.0839L46.3817 21.1359L46.1526 21.3459L46.0717 21.6759L46.0656 21.9679L46.0286 22.1139L45.9426 22.2419L45.9116 22.3329L45.9307 22.4329L46.0236 22.4689L46.1346 22.5149V22.5869L46.0916 22.6779L45.9677 22.7779L45.9116 22.9319L45.9246 23.0959L45.9476 23.2769ZM28.5416 26.8939L28.9286 27.0929L28.5336 27.0399L27.6666 26.8529L27.2836 26.6759L27.1846 26.4779L27.1287 26.2079L27.3427 26.4909L27.4926 26.6149L28.5416 26.8939Z" fill="#CCCCCC" stroke="white" stroke-width="0.5"/>
</svg>
