<svg width="17" height="18" viewBox="0 0 17 18" fill="none" xmlns="http://www.w3.org/2000/svg">
<path d="M12.8491 15.464H12.5421H12.0431H11.5441H11.045H10.5461H10.048H9.54907H9.05005H8.55109H8.05206H7.55304H7.05408H6.55505H6.05707H5.55804H5.05908H4.56006H4.26508L4.20605 15.456L4.16504 15.444L3.97705 15.479L3.78204 15.602L3.57507 15.652L3.35309 15.633L3.32507 15.646L3.21307 15.643L3.05109 15.634L2.90509 15.666L2.79407 15.773L2.68005 15.957L2.47504 16.167L2.31506 16.354L2.17908 16.486L1.86804 16.705L1.69806 16.769L1.61407 16.759L1.56207 16.718L1.46405 16.439L1.40405 16.394L0.799072 16.538L0.707031 16.54L0.715088 16.453L0.670044 15.797L0.665039 15.395L0.74408 15.144L0.790039 14.854L0.795044 14.598L0.906067 14.163L0.865051 13.902L1.00806 12.987L1.04608 12.838L1.10205 12.396L1.19104 12.26L1.27106 12.207L1.37408 11.936L1.57306 11.502L1.71008 11.279L1.68005 10.792L1.70306 10.46L1.73407 10.387L2.02704 10.263L2.40704 9.95703L2.56805 9.59604L2.79504 9.36603L3.23505 9.21704L3.23608 9.21603L4.54004 7.97903L5.14606 7.31204L5.41003 6.97003L5.41907 6.84702L5.47003 6.68604L5.36407 6.56003L5.23804 6.44604L5.19507 6.34003L5.08704 6.28802L4.93109 6.29004L4.82806 6.21304L4.71106 6.06302L4.59406 5.96902L4.22406 5.97702L3.93909 5.82303L3.94305 5.61404L4.05408 5.20203L4.27008 4.73004L4.28204 4.60004L4.25104 4.48904L4.19904 4.39404L4.10205 4.30002L4.01007 4.18704L4.08105 3.84702L4.21704 3.51505L4.32904 3.34802L4.43805 3.16202L4.40704 3.00903L4.24805 2.93304L4.33105 2.78403L4.50208 2.53302L4.83508 2.27902L5.12805 2.10904L5.32404 2.10803L5.70404 2.24402L6.04803 2.40305L6.23608 2.41104L6.46606 2.34503L6.94006 2.06204L7.05505 2.15204L7.19305 2.32303L7.34406 2.60703L7.64307 2.73602L7.78607 2.82602L7.88904 2.85202L7.94604 2.82904L8.05908 2.60602L8.19604 2.48502L8.44904 2.33203L9.00806 2.20905L9.40704 2.17203L9.57605 2.14603L9.85907 2.07404L10.3061 1.84503L10.746 2.14005L11.2241 2.19702L11.6871 2.19504L11.8281 2.10504L11.9091 2.03702L12.3951 1.55203L13.053 0.89502L13.4911 1.82004L13.6421 1.87503L13.6201 1.95502L13.5831 2.03302L13.8701 2.25604L14.2231 2.37302L14.3491 2.48703L14.36 2.61002L14.2411 3.15103L14.2631 3.30502L14.3771 3.84702L14.587 3.96802L14.7731 4.51404L15.1501 4.74503L15.204 4.81104L15.2911 5.07504L15.4061 5.36502L15.496 5.43204L15.5511 5.44904L15.662 5.75504L15.5981 5.92804L15.6851 6.45203L15.826 6.92004L15.8641 7.47903L15.8651 7.72504L15.86 7.87604L15.829 8.08804L15.7621 8.21103L15.6421 8.33102L15.5081 8.51904L15.3921 8.72104L15.319 8.82004L15.376 9.12204L15.3611 9.20102L15.3311 9.23904L15.16 9.28503L14.9421 9.36603L14.8101 9.44604L14.6221 9.60004L14.472 9.76505L14.2731 10.252L13.941 10.632L13.8851 10.757L13.5721 10.983L13.4341 11.262L13.3461 11.604L13.225 11.849L12.9601 12.186L12.9001 12.718L12.9081 13.779L12.8391 14.989L12.8491 15.464Z" fill="#CCCCCC" stroke="white" stroke-width="0.5"/>
</svg>
