<svg width="288" height="238" viewBox="0 0 288 238" fill="none" xmlns="http://www.w3.org/2000/svg">
<path d="M79.9793 15.4688V17.8089V20.1178V22.3958V24.6449V26.8649V29.0558V31.2198V33.3568V35.4678V37.5538V39.6158V41.6528V43.6669V45.6579V47.6268V49.5739V51.4998V53.4048V55.2898V57.1548V58.9998V60.8268V62.6358V64.4268V66.1998V67.9548V69.6938V71.4158V73.1228V74.8129V76.4879V78.1478L80.6513 78.3799L81.3173 78.6098L81.5213 78.1508L82.2393 78.5029L82.8663 78.8098L83.2663 78.4158L83.6993 77.9888L84.2833 77.9588L84.9383 77.9249L85.3753 77.9028V78.2668L85.2133 78.8689L85.0783 79.3698L85.4763 79.8768L85.9663 80.1429L86.4243 80.3918L86.6303 81.0779L87.1313 81.6059L87.5123 82.0058L87.8783 82.3889L88.4013 82.9348L88.7673 83.3168L89.2553 83.8239L89.5453 84.1248L89.6843 84.7089L89.8513 85.4078L89.7483 85.8199L89.9793 85.8858L90.4313 85.4239L90.8563 85.1368L91.3813 84.7819L91.7353 84.5418L92.3933 84.5298L92.7073 83.8308L92.7083 82.8458L93.0413 82.8629L93.2373 82.7289L93.3233 82.4379L93.1143 82.0398L93.7443 81.8539L94.2003 81.7188L94.8513 81.3519L95.4873 80.9928L95.7903 81.2708L96.0903 81.5388L96.6793 82.1839L96.7193 82.3389L96.6793 82.6409L96.6213 82.9418L96.9793 83.7838L97.0823 83.8779L97.3763 83.9939L97.7273 84.2719L97.8823 84.5118L98.3903 84.8939L98.4763 85.0518L98.5243 85.3079L98.6073 85.5279L98.7023 85.6848L98.7943 85.9088L99.0143 86.1729L99.4333 86.4669L99.7243 86.6708L100.131 86.9558L100.543 87.5368L100.901 88.0399L101.309 88.5359L101.249 88.9308L101.662 89.5388L102.097 90.3098L102.431 90.9908L102.668 91.3708L102.953 91.9189L103.301 92.5879L103.697 93.3468L104 93.8318L104.395 94.5089L104.59 94.9118L104.457 95.1869L104.293 95.5269L104.801 95.6878L105.153 95.7989L105.065 96.1748L104.949 96.6708L105.347 96.8658L105.617 96.9988L105.561 97.2578L105.71 97.5498L105.734 98.0328L106.219 98.0019L106.433 97.9879L106.723 98.2018L107.105 98.4839L107.488 98.7478L107.815 98.9728L108.244 99.1058L108.773 99.2968L109.033 99.6869L109.515 99.8539L109.695 100.397L110.252 100.596L110.58 100.463L110.698 100.684L110.791 100.938L110.816 101.258L110.785 101.57L110.646 101.83L110.541 102.11L110.471 102.411L110.444 102.733L110.461 103.077L110.517 103.377L110.688 103.931L110.745 104.27L110.752 104.495L110.373 105.285L110.242 105.66L110.254 105.828L109.978 106.218L109.471 106.762L109.241 107.075L109.127 106.971L108.471 106.89L108.233 106.195L108.107 105.654L107.916 105.182L107.921 105.075L108.095 104.759L108.751 104.499L108.757 104.395L108.513 104.326L108.454 104.213L108.387 103.698L108.405 103.245L108.388 102.944L108.279 102.328L108.115 101.95L107.692 101.21L107.656 101.023L107.842 100.788L107.958 100.569L107.243 100.95L106.267 101.349L105.849 101.627L105.761 101.738L105.731 101.832L105.807 102.094L105.795 102.178L105.71 102.333L105.609 102.769L105.397 103.23L105.29 103.325L104.909 103.153L104.807 103.006L104.616 102.403L104.66 102.242L104.799 102.106L104.988 101.813L105.226 101.361L105.681 100.208L105.978 100.203L106.502 99.9738L105.68 99.8589L105.557 99.7989L105.447 99.6408L105.349 99.3849L105.182 99.0999L104.869 98.9998L104.732 98.8948L104.525 98.5479L104.386 98.3918L104.31 98.1989L104.297 97.9688L104.238 97.8528L104.023 97.8109L103.907 97.7318L103.875 97.1358L103.447 96.9828L103.272 96.8509L102.99 96.4768L102.912 96.2949L102.887 96.1429L102.956 95.7289L102.927 95.6508L102.677 95.6928L101.127 95.0498L101.209 94.1968L100.922 93.0659L100.614 92.6058L100.675 92.4258L100.741 92.3308L100.879 92.3289L101.474 92.6638L102.034 93.0598L102.106 93.0019L101.211 92.1599L100.987 91.9078L100.931 91.6039L100.928 91.4409L100.999 91.3558L101.838 91.4319L101.888 91.3688L101.037 91.1208L100.863 91.1219L100.677 91.4778L100.589 91.5619L100.406 91.5449L100.344 91.4898L100.128 91.0588L99.9223 90.7578L99.5393 90.3409L99.4673 90.0428L99.4483 89.6039L99.4993 89.1878L99.8123 88.2339L99.9393 88.0678L99.9723 87.9638L99.8753 87.9799L99.7833 88.0709L99.5243 88.5149L99.2573 89.2408L99.0393 89.4879L98.9023 89.4279L98.6953 89.1328L98.2633 88.7719L97.7633 88.6788L97.4473 88.3088L96.9803 87.2748L96.9173 86.7578L96.8573 86.6309L96.6043 86.4629L96.4483 86.2138L96.2083 84.9438L95.8913 84.0558L95.8123 83.5849L95.8383 83.1169L95.7973 83.0648L95.6883 83.4298L95.6603 83.6198L95.4603 83.6738L95.6483 84.0428L95.6953 84.2268L95.6013 84.2119L95.4093 84.2578L95.7353 84.8849L95.8813 85.8528L96.0973 86.5668L96.2373 87.1439L96.3003 87.5808L96.3923 87.9978L96.6443 88.9149L96.6783 89.0968L96.6483 89.2448L96.5653 89.4208L96.4213 89.4868L95.9693 89.3669L95.7993 89.1408L95.5553 88.7249L95.2133 88.5328L94.3663 88.6278L94.2983 88.5959L94.3013 88.2559L94.3983 87.6488L94.3203 87.4029L93.8823 86.5059L93.8893 86.3298L94.4973 85.9158L94.2023 85.8849L93.9643 86.0468L93.8723 85.9428L93.7283 85.3639L93.6353 85.1479L93.5893 85.1018L93.5633 85.6529L93.6643 85.9418L93.6793 86.1089L93.6633 86.3419L93.6003 86.5089L93.4893 86.6098L93.3783 86.6349L93.1733 86.5189L92.9453 86.2998L92.7463 86.1968L92.6723 86.1098L92.5783 85.8679L92.4243 85.6838L91.6813 85.4508L91.2383 85.1748L91.2013 85.2478L91.3393 85.5418L91.3523 85.7159L91.2403 85.7689L91.0403 86.0479L91.0983 86.0858L91.3093 85.9938L91.5453 86.0049L91.9353 86.1739L92.2893 86.3958L92.4173 86.5198L92.4703 86.7039L92.5143 86.7689L92.8603 86.9828L92.8773 87.0948L92.6543 87.4288L93.1143 87.3918L93.3813 87.5108L93.7233 88.0269L93.8393 88.3138L93.8553 88.6808L93.7843 88.7868L93.6483 88.8608L92.7143 88.9808L92.3773 89.4218L92.3073 89.4279L92.0503 89.3079L91.5843 88.9558L91.0033 88.6208L89.6783 87.6238L89.6423 87.5768L89.6203 87.3839L89.5293 87.2849L89.3493 87.2008L89.0993 86.9468L88.7803 86.5229L88.5833 86.1909L88.5083 85.9518L88.3223 85.6779L87.7223 85.1049L87.4083 84.8849L87.1313 84.7599L86.8903 84.7328L86.8253 84.6559L86.9363 84.5298L86.9533 84.4558L86.4213 84.3369L85.9163 84.0668L84.6353 83.3058L83.9733 82.8279L83.5873 82.5988L83.4223 82.4698L83.3493 82.3649L83.4423 82.2549L83.7003 82.1409L83.8753 82.0108L84.1513 81.5238L84.1723 81.3669L84.0243 81.0118L83.9583 80.6879L83.9613 80.5078L84.0003 80.3279L84.0423 80.2108L84.1593 80.0979L84.2413 80.0408L84.3433 80.0798L84.6683 80.5258L84.7143 80.6879L84.6993 81.2959L84.7923 82.0049L84.8223 81.9529L84.8523 81.7188L84.8713 81.2708L84.9083 81.0548L84.9783 80.8448L85.0963 80.7338L85.4633 80.7979L85.6323 80.7598L84.9183 80.4379L84.4693 79.8328L84.3883 79.7699L84.1423 79.7428L83.8823 79.9879L83.2133 80.7849L83.0253 80.9249L82.1843 81.3649L81.6143 81.4529L80.9723 81.3839L80.4253 81.2408L79.0533 80.5448L78.8393 80.3828L79.1583 79.9509L79.1713 79.8158L79.0603 79.3748L78.9683 79.2488L78.8383 79.1788L78.8013 79.2289L78.8003 79.3598L78.8353 79.6028L78.7303 79.7309L78.4973 79.8689L78.1043 80.0089L76.8863 79.6528L75.6383 79.3578L74.5243 79.2968L72.9513 79.5318L72.1123 79.7679L71.6233 79.7908L71.1523 79.7488L71.1133 79.5838L71.3283 79.4868L71.3163 79.3669L71.0443 78.9928L70.6313 78.7659L70.0773 78.6859L69.7603 78.5759L69.6803 78.4368L69.4843 78.3048L69.1723 78.1788L69.0353 77.9518L69.1443 77.2478L69.2503 76.8248L69.3563 76.5338L69.6243 76.0508L69.5313 76.0869L69.1423 76.4408L68.8033 76.8058L68.4893 77.2798L68.3023 77.4968L68.0623 77.6969L67.6873 77.6498L67.1783 77.3539L66.7423 77.2009L66.3793 77.1918L66.2353 77.1409L66.4833 76.8759L66.6263 76.6628L66.8213 76.3208L66.8643 76.1539L65.5333 76.0988L65.4843 75.9178L65.4823 75.7849L65.4403 75.6749L65.2473 75.5928L64.9773 75.6559L64.5403 75.8698L64.3513 75.7068L64.4183 75.6158L64.5613 75.5488L64.8523 75.2379L64.4593 75.0768L64.2583 74.8918L64.1603 74.7399L64.1673 74.1908L64.2713 73.8378L65.1533 73.4948L64.8743 73.3608L64.3173 73.4068L63.9433 73.6989L63.4993 74.1189L63.2013 74.2758L63.0493 74.1698L62.8483 74.1328L62.5983 74.1658L62.4303 74.2728L62.3443 74.4548L62.2443 74.5779L62.1313 74.6409L62.0493 74.6198L61.9293 74.4339L61.6773 74.3178L61.5533 74.1758L61.4823 74.2648L61.3963 74.5329L61.3053 74.6689L60.8793 74.8078L60.6453 74.7818L60.3653 74.4458L60.3253 74.3288L60.4203 74.0368L61.0353 72.8768L60.9733 72.8839L60.7743 73.0668L60.3773 73.5309L60.2003 73.6689L59.8953 73.6868L59.7533 73.6368L59.5813 73.6749L59.3793 73.7988L59.2483 73.9348L59.1863 74.0818L59.2283 74.1068L59.5323 73.9388L59.7053 73.8938L59.7533 73.9758L59.5163 74.4968L59.3723 74.9939L59.2353 75.1189L59.0173 75.0979L58.7783 75.1469L58.7753 75.2858L59.2203 75.6808L59.3813 75.7368L59.5873 75.8779L59.6193 76.0179L59.5413 76.3949L59.4833 76.5428L59.3893 76.6198L59.0263 76.6068L58.9083 76.6458L58.6643 76.8819L58.5423 77.0768L58.5863 77.0938L58.7973 76.9328L59.1043 76.8468L59.5073 76.8349L59.8073 76.7498L60.0043 76.5898L60.1963 76.6348L60.3833 76.8848L60.4393 77.1039L60.3633 77.2919L60.2093 77.4258L59.9763 77.5058L59.8293 77.6259L59.7673 77.7858L59.7323 78.0228L59.7243 78.3358L59.7833 78.8988L59.7383 78.9749L59.6503 79.0168L59.5203 79.0238L59.4033 79.1559L59.1293 79.9018L59.0323 79.9828L58.9173 79.9028L58.8153 79.9118L58.7263 80.0089L58.5313 80.0828L58.2303 80.1339L57.9723 80.1149L57.5193 79.9538L57.3343 79.8398L57.1903 79.6528L56.7833 79.8508L56.6763 79.7648L56.4233 79.2478L56.3683 79.2789L56.3193 79.8358L56.2423 80.0309L55.9913 80.4328L55.8543 81.1228L55.8123 81.1438L55.7653 81.0439L55.6103 80.4268L55.5283 80.2908L55.3013 80.6469L55.2763 80.7758L55.3363 81.2348L55.2833 81.3038L54.8243 81.0569L54.7113 81.0448L54.6813 81.0869L54.8383 81.4418L54.8203 81.5699L54.1703 82.2538L54.0013 82.2298L53.8953 82.1618L53.7783 82.1729L53.3653 82.4268L53.2513 82.4158L53.0953 82.2659L53.0233 82.2719L52.9843 82.4288L52.9793 82.7348L52.8263 83.0248L52.3343 83.4928L52.2043 83.7078L52.1053 84.0019L52.0313 84.0298L51.7423 83.8409L51.4083 83.7178L51.3623 83.7789L51.4643 83.9578L51.4433 84.0678L51.2983 84.1089L51.1153 84.0928L50.8933 84.0198L50.5823 84.1018L50.1833 84.3388L49.8503 84.3318L49.3853 83.9418L49.2573 83.9128L49.2163 83.8028L49.3073 83.4868L49.4393 83.2468L49.5363 83.1368L49.9773 82.8288L50.4823 82.7159L50.7993 82.5298L51.1853 82.1469L51.3893 81.8588L51.7903 81.1138L51.7603 81.0558L51.6703 81.0148L50.7883 81.7218L50.6583 81.7868L50.4833 81.7818L49.7783 81.5108L49.6293 81.3949L49.5273 81.0548L49.7233 80.2789L49.8603 79.9028L50.2043 79.3208L50.6543 78.6978L50.8103 78.2928L51.0443 77.2048L51.0303 76.7088L50.9253 76.1028L50.9213 75.7419L51.0193 75.6279L52.0523 75.0638L52.5413 74.6398L53.4903 74.0118L53.7483 74.0168L53.9383 74.2328L54.1593 74.4059L54.4113 74.5349L54.7353 74.5219L55.1313 74.3649L55.7593 74.4249L57.0493 74.8378L57.3233 74.8608L57.3343 74.8089L57.1353 74.5199L56.2463 74.3519L55.8713 74.1839L54.8183 73.4428L54.5783 73.1559L54.6753 73.0219L54.9333 72.9108L55.0213 72.8038L55.0583 72.6169L55.2063 72.3618L55.4653 72.0358L55.8613 71.7208L56.6103 71.2509L56.3173 71.2309L55.7783 71.3178L55.5823 71.4068L55.2223 71.7428L55.0823 71.9789L54.8813 72.4388L54.7953 72.5258L54.4213 72.5918L53.4023 72.6378L53.2303 72.4028L53.1353 72.3649L53.0093 72.3978L52.0733 72.9978L51.7383 73.3028L51.4993 73.6508L51.1293 73.9048L50.6293 74.0658L50.2553 74.2648L49.8613 74.6618L49.7273 74.9659L49.7193 75.1088L49.8153 75.5578L49.7173 75.6418L49.4903 75.6768L49.1253 75.9738L48.3543 76.8539L48.2533 77.1718L48.2573 77.2809L48.3823 77.5289L48.2953 77.6898L48.0783 77.9438L47.5953 78.3448L47.2783 78.4968L47.0723 78.5049L46.8743 78.4478L46.5223 78.1898L46.2373 78.1738L46.2193 78.2099L46.6073 78.4858L47.0023 78.8398L47.2483 79.1339L47.3453 79.3669L47.3493 79.6068L47.2603 79.8528L46.9813 80.2798L46.7083 80.4068L46.0093 80.5349L45.7843 80.6368L45.7143 80.7159L46.1943 80.8958L46.2373 80.9879L46.1713 81.3438L46.0443 81.4599L45.6443 81.6718L45.2863 81.7338L45.2313 81.6928L45.2983 81.4138L45.2793 81.3448L45.1443 81.2878L44.9533 81.3938L44.4763 81.8048L44.4253 81.8718L44.5973 81.9818L44.5613 82.0728L44.3033 82.3669L44.1963 82.5629L44.0233 82.7618L43.2533 83.3698L43.3123 83.5179L43.1123 84.0449L43.0003 84.5099L43.1363 84.7048L43.7823 84.9329L44.0953 84.9879L44.4643 85.1469L45.1323 85.5749L45.3553 85.8539L45.3883 85.9848L45.3673 86.1278L45.2873 86.3209L45.0783 86.6848L44.5733 87.2249L44.3453 87.3778L44.0003 87.4978L43.8873 87.5848L43.4443 88.0938L43.3243 88.3679L43.3433 88.6068L43.2583 88.7738L42.6883 89.1018L42.7083 89.1599L42.9153 89.1848L42.8393 89.4738L42.8053 89.8738L42.7063 89.9409L42.3503 89.9378L41.8973 90.0928L41.8653 90.1368L41.8573 90.4239L40.6733 90.6339L40.4143 91.1758L40.2793 91.3419L39.8153 91.7348L39.5313 91.8929L39.2063 91.9889L39.0363 92.1219L39.0203 92.2918L38.9283 92.4388L38.6473 92.6819L38.5093 92.9868L38.4093 93.0349L37.8863 93.1078L37.7823 93.2048L37.7313 93.6158L37.6343 93.6288L37.4483 93.5328L37.2063 93.6068L36.6623 94.0709L36.5433 94.2379L36.5563 94.3268L36.6403 94.4149L36.7693 94.6898L36.7613 94.8748L36.5523 95.3899L36.4783 95.4698L36.2243 95.5968L36.1203 95.8809L35.8863 95.8499L35.6973 95.9038L35.5733 96.0928L35.4393 96.2018L35.2943 96.2299L35.1113 96.3799L34.8923 96.6498L34.6883 96.8218L34.5013 96.8958L34.3193 96.9149L34.1423 96.8769L33.9833 96.9078L33.8423 97.0078L33.7043 97.1638L33.5943 97.6058L33.4553 97.8029L33.3673 97.8369L33.1873 97.8079L32.9153 97.7148L32.6393 97.7478L32.1933 98.0189L32.0513 98.2228L32.3323 98.2679L32.4713 98.3258L32.4683 98.3828L32.3223 98.4378L32.0723 98.4338L31.9223 98.4808L31.7403 98.5968L31.2823 98.7218L31.1083 98.8109L30.7633 99.3188L30.7213 99.4338L30.7653 99.4589L30.9593 99.4059L31.1873 99.4898L31.3053 99.5968L31.3813 99.7289L31.4533 99.9828L31.4973 100.021L31.0593 100.447L30.9353 100.628L30.8553 100.695L30.8023 100.643L30.7483 100.169L30.7153 100.088L30.6113 100.08L30.5113 100.23L30.2923 100.79L30.0533 101.072L28.2583 101.792L28.0003 101.958L27.9493 102.264L27.8753 102.529L27.7563 102.739L27.6173 102.872L27.5873 102.777L27.6013 102.032L27.5643 101.884L27.3833 101.789L27.3033 101.802L27.1943 101.844L27.0143 102.006L26.9043 102.046L26.7673 102.033L26.5333 102.192L25.9773 102.701L25.6143 102.827L25.5183 102.932L25.3633 103.21L25.2603 103.312L25.1083 103.321L24.9063 103.238L24.7443 103.297L24.6213 103.499L24.4963 103.579L24.1433 103.43L23.9873 103.532L23.7853 103.792L23.5743 103.963L23.3543 104.046L22.7823 104.132L22.5523 104.077L22.5053 104.002L22.5163 103.671L22.6083 103.432L22.6933 103.319L22.8073 103.219L22.9743 103.207L23.2863 103.282L23.2503 103.202L23.1373 103.107L22.8503 102.942L22.5653 102.858L22.4023 102.912L22.1733 103.038L22.0173 103.184L21.9353 103.35L21.8323 103.89L21.7723 104.036L21.1023 104.983L20.8393 105.274L20.5793 105.252L20.4533 105.362L20.2763 105.597L20.1123 105.71L19.9623 105.7L19.8453 105.655L19.7623 105.576L19.7763 105.502L19.8883 105.433L19.8483 105.245L19.6563 104.935L19.5253 104.767L19.2763 104.747L19.2373 104.888L19.3213 105.606L19.3083 105.768L19.1533 105.972L18.7453 106.2L18.6183 106.178L18.2513 105.729L17.9033 105.64L17.8803 105.786L17.9583 106.085L17.8713 106.363L17.6203 106.622L17.4293 106.747L17.2983 106.739L17.2913 106.558L17.4083 106.203L17.4383 105.907L17.3813 105.669L17.3883 105.487L17.4573 105.36L17.9183 105.006L18.1123 104.953L18.2163 105.04L18.3453 105.055L18.5013 104.997L18.5993 104.884L18.6403 104.715L18.8393 104.499L19.1963 104.234L19.6053 103.745L20.0653 103.029L20.6043 102.41L21.2233 101.889L21.8943 101.474L23.2463 100.903L23.3503 100.938L23.2263 101.124L23.3103 101.24L23.4433 101.255L23.9383 101.163L24.1353 101.043L24.1933 101.159L24.1243 101.305L23.8273 101.453L23.8353 101.576L24.2683 102.151L24.4043 102.238L24.5173 102.227L24.5653 102.153L24.5293 101.738L24.6753 101.659L24.9743 101.639L25.1693 101.693L25.2603 101.82L25.4313 101.925L25.6823 102.009L25.8383 101.983L25.8993 101.848L25.7923 101.687L25.3113 101.333L25.1773 101.185L25.1453 100.978L25.2133 100.713L25.3643 100.319L25.5983 99.7958L25.8103 99.4298L26.2393 99.0139L26.5283 98.8079L27.2613 98.1758L28.6703 97.5298L29.0183 97.1139L29.4913 96.6538L29.6943 96.5408V96.7188L29.7593 96.8778L30.0753 96.9839L30.2813 97.0208L30.3763 96.9889L30.4023 96.8199L30.3603 96.5128L30.3493 96.2228L30.3703 95.9499L30.4163 95.7339L30.6273 95.3488L30.9413 94.9099L31.3703 94.3988L31.6413 94.1668L31.8963 94.0428L32.1433 93.8188L32.5683 93.2878L32.7043 93.2008L33.0093 93.0959L33.1213 93.1418L33.1863 93.2758L33.2663 93.3589L33.5753 93.4338L33.7813 93.3159L33.7473 93.2528L33.5803 93.2119L33.4733 93.1349L33.3723 92.8178L33.1673 92.6269L33.1213 92.4099L33.1583 92.0718L33.3343 91.2758L33.3633 90.4539L33.5203 89.9808L33.8353 89.8098L34.5343 89.6928L34.1253 89.4789L33.9733 89.4778L33.7073 89.3769L33.6063 88.8589L33.6083 88.4818L33.7843 88.0439L34.4353 87.3029L35.1483 86.7878L35.0513 86.7458L34.9633 86.5928L35.2923 85.5569L35.6133 84.6278L35.1803 85.4199L34.6793 86.0238L33.2093 86.7228L32.2093 87.3069L31.7353 87.4459L31.4223 87.2979L31.1783 86.7379L31.0383 86.5378L30.8593 86.1718L30.9353 85.6938L31.0773 85.3629L31.3893 85.3088L31.7413 85.4688L32.0463 85.4828L31.6533 85.1559L31.0863 84.8698L30.8293 84.9629L30.6323 85.4258L30.3693 85.7429L30.1383 85.6299L30.0013 85.5009L30.0963 85.8878L29.9213 86.4759L29.8553 86.8818L30.1053 87.9499L30.0593 88.3748L29.6043 88.5699L29.2333 88.2209L28.4603 86.8688L28.1903 86.4818L27.5843 85.8419L27.3843 85.9329L27.1293 86.2488L26.8823 86.3358L26.2303 85.8698L25.9263 85.5139L25.6393 85.0808L25.1993 85.3199L24.8153 85.6039L24.3653 86.0558L24.0643 86.0518L23.2463 86.4388L23.1593 86.4468L23.0443 86.6548L22.9313 86.7478L22.8383 87.1479L21.7323 87.4579L20.6393 87.2849L21.0213 87.0648L21.4483 86.8918L21.8193 86.4749L21.6613 85.9158L21.6343 85.6309L21.6383 85.2698L22.0433 84.7618L21.6223 84.7628L21.3513 84.9449L21.0983 84.5628L20.9793 83.8089L21.2693 83.3608L21.4033 83.0148L21.5173 82.5388L21.5253 82.1288L21.3013 81.4328L20.6573 79.9498L20.3643 78.8358L19.8623 78.2399L20.2373 77.2598L20.6553 76.3629L21.1953 75.9599L21.1523 75.8998L20.8543 75.9028L20.6583 75.9558L20.4853 76.2488L20.3023 76.4718L19.7313 77.6129L19.3633 78.1669L19.1243 78.3248L19.5093 78.5388L19.5683 78.7188L19.6423 79.1279L19.5433 79.6228L19.4443 79.8958L18.9903 79.8738L18.5823 80.2708L17.6243 80.7018L16.3303 80.9478L15.6943 80.9189L15.0323 80.4169L15.0373 80.1248L15.0643 79.8718L14.1133 79.0009L13.5753 78.1288L13.1883 78.1098L12.8523 77.8768L12.4553 77.5139L12.4903 77.2208L12.5533 77.0139L12.3093 76.8689L11.9973 76.8828L11.6343 76.7829L12.5823 75.6469L12.9083 74.8819L13.1743 74.7728L13.5193 74.8909L13.9953 75.1928L14.3963 75.3259L14.5413 75.4678L14.6893 75.7348L14.5333 76.1819L14.3903 76.4948L14.5663 76.4108L15.0653 75.9258L15.4373 75.4988L15.6153 75.5428L15.7313 75.6178L15.9383 76.0578L16.1943 76.5049L16.7593 76.0788L17.0613 75.5468L16.8063 75.3138L16.4943 75.1749L15.6983 74.9939L15.8923 74.8409L16.4033 74.8578L16.5953 74.7119L16.3933 74.5089L16.1403 74.3268L15.4513 74.9319L14.1973 74.9018L13.3213 74.5479L12.4463 74.6098L12.3083 74.5398L12.1383 74.3508L12.6313 73.8998L12.9803 73.6498L12.9993 73.5049L12.7963 73.4868L12.4153 73.6068L12.2453 73.3988L12.2733 73.0368L12.2103 73.0699L12.0593 73.2679L11.8463 73.1698L11.6613 72.9998L11.7573 72.8259L11.9453 72.5858L11.8623 72.5499L11.6943 72.6008L11.5303 72.9138L11.5663 73.1669L11.5623 73.5298L11.2823 73.5958L11.0423 73.5528L10.8693 73.1879L10.6903 72.4039L10.2063 72.1949L10.0873 71.7968L10.3933 71.2838L10.2583 71.0188L9.9323 70.9328L9.5603 71.1918L9.3953 70.9619L9.3653 70.7088L9.3523 70.3448L9.4563 70.3058L9.5423 70.3779L10.2893 70.1758L10.3613 70.0768L9.7693 69.7679L9.6043 69.4428L9.8493 69.2578L10.2913 69.2419L10.9113 69.0488L10.6503 68.7029L10.5953 68.5128L10.5433 68.2009L10.6463 67.6698L11.3753 66.4469L12.0853 65.4209L12.3063 65.1839L12.6313 65.0558L12.9343 65.1548L13.2503 65.3759L13.3103 65.2809L13.2033 65.1908L13.0683 64.7688L13.5073 64.6028L13.7643 64.1248L13.7833 63.9858L13.5043 64.1848L13.2133 64.5118L13.1403 64.1828L13.0653 63.4249L13.1933 62.7058L13.2933 62.3819L13.5363 62.0739L14.2363 61.9498L14.3603 62.0118L14.3853 61.8658L13.9643 61.4099L14.1373 61.0528L14.2893 60.8669L15.1353 60.5768L15.5973 60.6669L16.1773 61.0049L16.5143 61.4249L16.4653 61.6398L16.3823 61.7648L16.2083 61.9039L16.1433 62.0118L16.1743 62.0979L16.4233 61.8479L16.8303 61.5439L17.0583 61.6758L17.2383 61.9158L17.4373 61.9118L18.0703 61.7058L18.3913 61.4879L18.7843 60.9189L19.3063 60.5508L20.0413 59.3828L20.2573 58.9018L20.5083 58.8279L20.7353 58.8698L20.8933 59.2648L21.1243 59.3799L22.4393 59.2838L23.1113 59.1028L23.5783 58.7198L24.0643 58.0728L24.3453 57.6378L24.4803 57.0699L24.3063 56.3318L24.1283 55.7168L23.8943 54.3028L23.2413 53.3629L22.7773 53.0808L22.4823 53.1208L22.6953 52.5179L23.3173 52.5828L23.7223 52.4648L24.0503 52.1738L24.1573 51.9529L24.3193 51.5009L24.2633 51.0179L24.1763 50.7549L23.9503 50.4648L23.6813 50.0398L23.4933 49.8978L23.3343 49.9068L22.5503 50.7598L22.0793 50.7758L21.7273 50.6198L21.4213 51.1039L20.5683 51.5278L20.1123 51.9548L19.2673 53.0108L19.0563 53.4868L18.7863 53.5078L18.5913 52.5838L17.6723 51.6978L17.3943 51.9998L17.5473 52.2778L17.7553 52.4758L18.0983 52.5618L17.9503 52.8298L17.8383 53.1859L17.4943 52.8519L16.8793 52.3658L16.2423 52.1149L14.5843 52.1429L13.4963 52.6418L13.3963 52.5378L13.2913 52.4968L13.1093 52.6158L13.0313 52.8188L12.9123 52.9458L12.6903 52.9908L12.2423 52.9158L11.3783 52.6059L9.4233 52.1498L8.9113 51.8689L8.4733 51.1978L8.4823 50.7408L8.6773 50.5468L8.6583 49.8898L8.2783 49.7148L7.5033 48.7648L7.2183 48.3588L7.2803 48.3138L7.4193 48.4238L7.6843 48.5069L8.3343 48.3748L8.5573 47.7558L9.0393 47.5788L9.4833 47.6658L9.3833 47.4978L9.2703 47.3658L8.1143 47.0488L7.9573 47.1458L5.8843 46.5818L4.2473 45.5979L4.1133 45.4088L3.9643 44.9868L4.1853 44.5688L4.4073 44.3708L4.4173 44.6008L4.4533 44.8268L5.3913 44.3018L5.8823 43.6108L6.8113 43.4888L7.0273 43.2979L7.3163 42.9249L7.7283 42.2858L8.3113 41.9489L8.7083 41.6458L9.2253 41.4659L9.6663 41.7648L9.8023 41.8058L10.6023 41.8669L10.8653 41.7379L10.9773 41.6418L11.0613 41.4899L10.2753 40.9478L10.3553 40.6458L10.4553 40.4328L11.3723 39.7979L12.0773 39.5878L12.4543 39.6028L13.5483 38.7789L14.1473 38.5428L15.2763 38.3858L16.2043 38.3448L16.4553 38.6398L15.9563 38.5779L15.7373 38.6319L15.8933 38.7328L16.0693 38.9478L16.0183 39.2188L15.7123 40.0199L15.7373 40.6588L15.5383 40.8658L15.3453 41.1568L16.2953 42.0699L17.7653 42.1279L18.5653 41.9628L19.0273 42.2348L19.4053 42.2968L20.4513 42.1568L21.2393 42.3508L21.5683 42.2768L22.2973 40.9118L22.5823 40.6969L22.8923 40.9348L23.2963 41.1279L23.5543 40.9879L23.7643 41.3409L23.6653 40.6048L23.5223 40.3279L22.3323 39.8188L21.5363 40.0719L21.2873 39.7849L21.3703 39.2148L20.5183 37.8028L20.1633 37.5148L19.7433 37.5009L19.5293 37.0069L19.3503 36.3708L19.7123 36.1098L20.0403 35.9919L20.3433 36.1978L20.6863 37.0338L21.0053 37.1568L20.9123 37.9858L21.3083 38.7468L22.2023 39.4509L22.9183 39.1918L23.4243 39.1998L23.7263 39.3479L24.4663 39.9778L24.8423 40.0569L26.0173 39.7269L26.0293 39.1068L25.9303 38.6568L25.6543 38.3738L24.8603 38.4268L24.2423 37.9608L23.7163 38.0889L22.7433 38.8018L22.2563 38.5219L21.9503 38.1409L21.4563 37.7529L21.3943 37.0168L21.8083 36.1689L22.1143 35.7639L21.8403 35.4678L21.1513 35.2598L19.9553 35.4729L19.8993 35.1819L19.9053 34.8678L19.4183 35.4828L18.9183 35.3539L18.2443 35.4198L16.7563 34.8779L16.2263 34.2068L16.0043 33.6608L15.6033 32.1548L15.0913 31.2068L11.5523 27.9458L9.9423 27.1169L9.1673 26.1949L8.6813 25.9668L8.2173 25.8738L7.6223 25.5748L8.0223 25.2068L8.2973 25.0818L8.0113 25.4668L8.2283 25.5638L8.5743 25.3418L8.7613 25.0759L9.0353 23.9428L9.3183 22.2148L9.2423 21.5298L11.2053 21.6678L12.5123 21.5518L12.9453 21.3958L14.5933 21.1308L15.0203 20.9388L15.8123 20.3479L16.7453 19.2988L17.5453 17.9108L17.6723 17.5358L17.7233 17.6319L17.7953 17.5719L17.8803 17.0419L17.9853 15.7888L18.3823 14.5979L20.0713 11.8528L20.8553 10.7529L21.1163 10.2509L21.3883 9.88385L21.5803 10.2328L21.6713 10.3369L21.7243 10.5009L21.5633 10.5768L21.3013 10.9328L20.9353 11.1709L20.8473 11.2928L21.0623 11.2659L21.7053 11.0069L22.0683 10.6928L23.8723 10.1098L24.8503 9.14285L24.8883 8.92685L26.3393 7.70885L26.5403 7.75584L26.7713 7.90285L26.3693 8.70685L26.6523 8.91685L26.4013 9.87184L26.9273 9.88684L27.0453 10.3248L27.0743 9.94785L27.0683 9.40585L27.1103 8.87184L27.1883 8.50185L27.5583 8.66885L28.3913 8.27084L27.3823 8.22084L26.7773 7.34685L26.4413 7.33984L27.5663 6.04985L28.5943 5.26585L28.8263 5.28085L28.9383 5.42685L28.9623 5.66385L28.7403 5.81784L28.5223 6.09584L28.6223 6.34085L28.7713 6.37585L29.2653 6.17485L29.4863 5.92285L30.5393 5.94485L30.8483 5.76485L30.9223 5.58585L32.2863 5.54985L32.5363 5.42384L33.3893 4.72784L34.1783 3.88084L34.5413 3.41685L35.1643 2.22885L35.6983 1.45184L36.5763 0.672852L36.7863 0.769852L36.5013 0.92485L36.3033 1.25485L36.5763 1.69284L38.4253 2.59184L38.8903 2.64085L39.0763 3.17685L38.9213 3.69185L38.4443 4.26184L37.4843 4.84384L37.7783 5.06285L37.9703 5.57884L38.2543 5.64185L38.7153 5.44785L39.0763 5.13084L39.8233 4.09384L40.0583 3.51285L40.2343 3.36584L40.8603 3.50584L41.2143 3.80484L41.6183 4.33385L41.4703 4.84384L41.3053 5.13084L41.8283 5.52684L42.4083 5.60985L42.9613 5.92784L43.7383 5.27684L44.3473 5.13785L44.9183 5.15884L45.6613 4.80284L46.9183 5.28784L47.2383 5.16185L47.7423 5.24585L48.2783 5.53784L48.4673 5.84885L47.8933 6.50584L47.8003 7.18085L48.0003 7.46185L48.3633 7.50984L48.4093 7.90285L48.6353 8.00085L49.7693 7.97185L49.6823 8.15884L49.6273 8.38385L49.2763 8.88084L51.2973 9.15985L51.5683 8.88484L51.9863 8.77585L52.8743 8.39584L53.2083 8.56184L53.6023 8.94984L53.9663 9.03085L54.3063 8.95184L55.0983 8.39784L56.0133 8.37085L56.3883 8.55185L56.7843 8.47285L57.9763 9.10684L58.4153 9.18085L59.0023 10.0018L59.3053 10.0258L59.6483 9.67784L59.9463 9.68884L60.2373 10.0219L60.7133 10.1238L60.9353 10.6478L61.1743 10.8378L62.9773 11.2258L63.8703 11.0488L65.1713 11.0948L65.7983 11.3428L66.4563 11.3109L67.5313 12.2099L68.1013 12.3499L68.2123 12.5569L69.8353 12.7748L70.4033 12.3078L71.3933 12.1839L72.2843 11.7898L72.7893 11.7939L73.3773 11.8918L73.6033 11.8448L73.7663 11.6729L75.1993 12.3508L76.0013 13.1228L76.3523 13.6908L78.0303 14.4998L78.5153 14.9509L78.8473 15.4469L79.0423 15.4998L79.1793 15.3548L79.7653 15.3969L79.9793 15.4688ZM9.5143 41.0748L9.4063 41.1138L9.4123 41.0078L9.7323 40.7249L10.3223 40.3738L10.3003 40.4498L9.9853 40.7218L9.5143 41.0748ZM60.5343 75.1488L60.1793 75.1958L60.0163 75.1228L59.9933 75.0439L60.0603 74.7529L60.0553 74.6299L60.2343 74.5838L60.4403 74.7218L60.5003 74.8649L60.5343 75.1488ZM49.0553 77.7988L48.9203 77.8199L49.1013 77.5398L49.2273 76.9928L49.3963 77.0688L49.4303 77.1689L49.1513 77.7298L49.0553 77.7988ZM61.2983 77.2959L61.2973 77.4449L61.2093 77.5889L61.2933 77.8519L61.1473 78.3028L61.0913 78.5889L61.0133 78.7688L60.9353 78.8378L60.8563 78.7968L60.8393 78.6978L60.8853 78.5398L60.7003 78.5448L60.6433 78.1508L60.7463 78.0258L60.7833 77.8578L60.7953 77.7439L60.9163 77.2408L60.9593 77.2058L60.9733 77.3259L61.0123 77.3608L61.0763 77.3118L61.1723 77.0878L61.2133 77.0618L61.2983 77.2959ZM64.8473 77.3008L64.9103 77.4568L65.4503 77.4189L65.6053 77.4469L65.6673 77.5188L65.5943 77.6238L65.3863 77.7628L64.7783 78.0069L64.2843 78.3268L64.2203 78.2968L64.1303 77.9469L64.0393 77.8048L63.9833 77.6068V77.5329L64.0743 77.3958L64.2553 77.1958L64.3833 77.1238L64.8473 77.3008ZM68.4263 77.9388L68.3363 78.0768L68.0913 78.0278L67.9603 77.9398L68.3983 77.5759L68.4703 77.6488L68.4263 77.9388ZM9.4423 77.6758L9.7003 77.9568L9.8373 77.9729L10.2693 77.8878L10.4283 77.9478L10.5813 78.0688L10.6763 78.2538L10.6943 78.5779L10.6243 78.8669L10.6453 79.2738L10.6303 79.4489L10.8593 79.6788L10.9313 79.9899L10.9683 80.3239L10.4703 80.4348L9.9723 80.4529L9.5423 80.6788L9.4543 80.8458L9.5233 81.0928L9.4053 81.1559L9.2963 81.1019L9.0883 80.8728L8.8603 80.7639L8.0613 80.5948L7.0583 79.9278L6.6263 79.7898L6.1883 79.2999L5.7923 78.6749L6.0503 78.5739L6.3103 78.5228L7.4763 78.6158L7.6223 78.1669L7.7723 78.0548L8.1423 77.9278L8.4883 77.6778L8.6433 77.6839L8.8013 77.7798L9.1293 77.6308L9.3033 77.5988L9.4423 77.6758ZM61.0813 80.8808L60.7713 80.9619L60.6983 80.7968L60.8613 80.3858L60.9913 80.1528L61.0883 80.0979L61.4443 79.6328L61.8393 79.2939L62.2023 78.7968L62.5703 78.0858L62.6383 77.8199L62.8093 77.7919L63.0903 77.9668L63.2643 78.2128L63.1833 78.4079L62.2523 79.4158L62.1743 79.5468L62.0903 79.8878L62.0133 80.0069L61.8903 80.0609L61.8013 80.2088L61.7453 80.4518L61.6303 80.5788L61.4563 80.5898L61.3363 80.6568L61.2693 80.7798L61.0813 80.8808ZM60.2783 79.4708L60.1313 79.6429L59.5763 79.5388L59.6913 79.1998L60.1153 78.9858L60.5793 79.3188L60.2783 79.4708ZM69.9783 80.8528L69.8433 80.8848L70.0453 80.5188L70.3163 80.1138L70.5713 79.8598L70.9033 79.7538L70.8663 79.9388L70.4333 80.2809L69.9783 80.8528ZM24.0833 87.6448L23.8773 87.7308L23.6593 87.6878L23.4873 87.1548L23.6193 87.1378L23.8953 86.7859L24.5063 86.5009L24.6563 86.4688L24.0833 87.6448ZM47.7503 88.1389L47.6673 88.1729L47.4623 88.0089L47.3273 87.8348L47.4163 87.7018L47.8133 87.4218L48.0033 87.4168L48.0813 87.4608L48.1123 87.5479L48.0973 87.6768L48.0123 87.8379L47.7503 88.1389ZM47.9433 88.8058L48.0453 88.8488L48.1513 88.5309L48.2263 88.5208L48.5583 88.7899L48.7623 88.7299L48.8933 89.0609L49.0113 89.0909L49.1203 89.0508L49.1863 89.0739L49.1633 89.4229L48.9203 89.7758L48.8073 89.8648L48.6493 89.7738L48.5903 89.7398L48.4863 89.5839L48.4073 89.3868L48.3603 89.3839L48.1753 89.6158L48.1793 89.7308L48.2563 89.9029L48.2453 90.0099L48.0433 90.0609L47.8453 90.0338L47.6033 90.1838L47.5453 90.0909L47.5083 89.8279L47.4333 89.8578L47.3193 90.1798L47.1943 90.3839L46.9673 90.5529L46.9173 90.6349L46.7513 90.6458L46.5053 90.7519L46.3533 90.7339L45.4473 90.3849L45.2343 90.2568L45.9793 89.4539L46.3713 89.1418L46.5983 89.1588L46.8253 89.2559L46.9453 89.2398L46.9543 88.8828L46.7433 88.6158L46.7513 88.5049L47.2183 88.3218L47.3933 88.3478L47.5863 88.4418L47.7693 88.5938L47.9433 88.8058ZM97.7213 89.8629L98.4343 89.9839L98.9563 89.9568L99.4333 90.7488L99.7263 91.3858L99.8983 91.8308L99.9963 92.2599L100.127 92.6729L100.115 92.7308L99.8403 92.4529L99.6423 91.8878L99.5413 91.6668L99.4413 91.5668L99.3363 91.3578L99.1313 90.8159L99.1243 90.6628L99.0333 90.5208L98.9283 90.4619L98.8093 90.4848L98.7683 90.5399L98.7863 90.9149L98.8803 91.3308L99.3953 92.2368L99.7393 92.7509L99.8073 92.9208L99.8523 93.3889L99.7043 93.5999L99.8863 94.0298L99.8793 94.1139L99.8393 94.1959L99.3493 94.3858L98.9003 95.1788L98.4083 95.6418L98.1813 95.7159L98.0723 95.6389L97.9693 95.4619L97.9083 95.2249L97.8903 94.9279L98.0133 94.7398L98.2563 93.7618L98.2633 93.4398L97.9603 92.9919L97.7773 92.6248L97.6783 92.1118L97.5123 90.7478L97.4353 90.3098L97.3273 89.9438L97.1873 89.6508L97.0823 89.3279L97.0103 88.9749L97.0373 88.8379L97.2803 89.0219L97.5723 89.5279L97.7213 89.8629ZM98.7523 89.5059L98.7323 89.6378L98.3493 89.6248L97.9633 89.4308L97.7733 89.1758L97.8113 89.0609L98.1703 88.9539L98.5103 89.1959L98.7523 89.5059ZM94.7743 89.4239L95.1753 89.9418L95.1783 90.0609L95.0963 90.4158L94.8783 90.5158L94.9403 90.6569L95.1023 90.7628L95.2183 90.6748L95.6413 90.1779L95.7713 90.0739L95.8503 90.0628L96.3663 90.2129L96.8173 90.4499L96.9503 90.6389L97.0253 90.9698L96.9053 91.6838L96.5353 91.8079L96.3603 91.7949L96.1733 91.6909L95.8723 91.9388L96.1223 92.1278L96.8823 92.1708L97.1123 92.5709L97.1783 92.8788L97.0143 93.4428L96.5833 93.2868L96.2033 92.9598L95.4243 92.4958L95.2373 92.4749L95.1123 92.5569L95.0783 92.8379L95.0863 93.4459L94.8783 93.7608L94.2643 93.6219L94.0233 93.1618L93.7983 92.4319L92.9513 91.5628L92.7223 91.3889L92.4173 90.8669L92.5393 90.4518L92.5753 90.2119L92.7383 90.1479L92.9763 89.9619L93.1093 89.5588L93.3233 89.8849L93.6093 90.1978L93.6133 89.9038L93.7483 89.6689L94.0293 89.6779L94.1613 89.6288L94.3453 89.4088L94.6113 89.2949L94.7743 89.4239ZM46.5933 91.6479L46.6133 91.9369L46.7273 91.9019L47.1593 91.6049L47.3843 91.5179L47.6773 91.5038L47.9093 91.6399L47.9563 91.7438L47.9353 91.8679L47.7493 92.1188L47.7573 92.2819L47.9573 92.5818L48.4483 92.7448L48.5083 92.8348L48.5063 92.9428L48.1683 93.4378L48.0443 93.5529L47.9563 93.5808L47.3423 93.4919L46.7803 93.3298L46.5533 93.3018L46.4723 93.3549L46.3133 93.5068L46.4273 93.5518L46.9193 93.5879L47.0933 93.8088L47.1693 93.9718L47.2073 94.1508L47.1093 94.2238L46.8993 94.2779L46.6473 94.2769L46.3353 94.4778L46.1633 94.7079L45.5383 94.7658L45.0623 95.0718L44.8953 95.2228L44.8363 95.4029L44.6563 95.5328L44.2513 95.6638L44.4933 95.7809L44.5313 95.8799L44.5353 96.0168L44.5023 96.1349L44.1823 96.6599L43.5783 97.0909L43.4253 97.0709L43.3593 97.0168L43.3053 96.9348L43.3033 96.8518L44.0823 95.9858L44.0513 95.9438L43.8393 95.9149L43.5043 95.6758L43.2673 95.8298L43.2133 95.8239L43.2763 95.6188L43.4303 95.3748L43.4033 95.3058L43.3183 95.2448L43.1233 95.2079L42.8173 95.1959L42.5903 95.2538L42.4433 95.3818L42.4313 95.4359L42.7443 95.4208L42.8293 95.4858L42.9133 95.6068L42.9643 95.7469L42.9833 95.9059L42.9173 96.1188L42.7683 96.3858L42.5493 96.3388L42.1003 95.7438L41.9023 94.8698L41.5183 94.1999L41.5013 94.0388L41.6103 93.6238L41.9973 93.0328L42.4133 92.8708L42.7093 92.6219L42.9963 92.5468L43.1733 92.5529L43.4163 92.6599L43.5143 92.8868L43.4553 92.9929L43.4773 93.0489L43.6473 93.1848L43.8313 93.6599L44.0453 94.0798L44.1883 94.2498L44.3763 94.3549L44.1823 94.0349L44.0673 93.6378L44.0093 92.8438L43.9533 92.6328L44.0623 92.5768L44.3693 92.6078L44.3613 92.4889L44.0373 92.2198L43.8383 91.9969L43.7633 91.8209L43.7673 91.6678L43.9443 91.4418L44.0443 91.3778L44.1483 91.3499L44.3543 91.3979L44.4463 91.4688L44.7103 91.9768L44.8343 92.1349H44.9373L45.0323 92.0508L45.1203 91.8828L45.2113 91.7819L45.3043 91.7488L45.5983 91.8239L45.6963 91.7958L45.7443 91.6689L45.7423 91.4409L45.8153 91.3589L45.8333 91.1909L45.6733 90.9428L45.8573 90.8669L46.4673 91.0558L46.7283 91.2628L46.5933 91.6479ZM45.6323 91.5108L45.5533 91.6569L45.4793 91.6188L45.3223 91.4478L45.0023 91.1978L44.8563 91.0269L44.8473 90.9539L44.9573 90.8728L45.3333 91.0749L45.4933 91.2589L45.6323 91.5108ZM96.9093 94.1179L97.1473 94.6869L97.3203 95.1269L97.4743 95.6548L97.7313 96.7438L97.8513 97.1538L97.8893 97.3778L97.9173 97.9629L97.8783 98.0888L97.8013 98.2039L97.7863 98.3708L97.8573 98.8148L97.8613 99.4879L97.7943 99.8658L97.7153 99.9229L97.5233 99.7989L97.3653 99.5938L97.2493 99.3809L96.9623 98.7058L96.8773 98.3908L96.8723 98.1638L96.9163 97.9978L97.0103 97.8948L97.1733 97.6188L97.1503 97.5749L97.0263 97.6368L96.7733 97.6718L96.5503 97.4539L96.3763 97.3388L96.4113 96.9449L96.3653 96.8339L96.0233 96.9558L95.8953 96.8459L95.8673 96.6978L95.8733 96.4768L95.9383 96.2828L96.2623 95.7918L96.2293 95.7008L96.0713 95.6808L95.8633 95.5128L95.7683 94.9608L95.5443 94.6458L95.4123 94.6748L95.1123 95.5648L94.9643 95.7589L94.5423 95.8839L94.6283 95.6368L94.6683 95.4158L94.5183 94.7448L94.5143 94.4858L94.6143 94.2949L94.9123 94.2148L95.0703 94.1018L95.1933 93.9168L95.2243 93.7368L95.4553 93.2589L95.5633 93.1658L95.8513 93.1718L96.4563 93.7008L96.6403 93.7788L96.9093 94.1179ZM46.2873 95.2908L45.9303 95.4568L45.8673 95.4499L45.6473 95.7859L45.4793 95.9308L45.2573 95.6658L45.3143 95.2538L45.5083 94.9799L46.4903 95.0718L46.5663 95.1488L46.5683 95.2138L46.4963 95.2679L46.2873 95.2908ZM101.409 95.9158L101.596 96.0768L101.698 95.9078L101.887 95.9158L102.239 96.0659L102.448 96.2908L102.566 96.5479L102.576 96.7008L102.54 97.0479L102.566 97.4029L102.551 97.5869L102.504 97.7389L102.425 97.8589L102.339 97.8738L102.066 97.5558L101.753 96.9808L101.515 96.8058L101.505 96.8658L101.57 97.0309L101.765 97.3409L101.8 97.5269L101.937 97.7538L101.998 97.9248L102.033 98.1498L102.032 98.3459L101.994 98.5139L101.931 98.6208L101.842 98.6678L101.364 98.6208L101.079 98.7328L100.746 98.6699L100.666 98.5678L100.616 98.4019L100.591 97.9978L100.507 97.4178L100.527 96.9709L100.312 96.5659L100.128 96.3209L99.8633 96.1018L99.6893 95.8839L99.7373 95.7098L100.008 95.5798L100.452 95.6108L101.409 95.9158ZM99.6603 96.7289L99.8423 97.0829L100.106 97.0538L100.254 97.3218L100.366 97.7218L100.284 97.9778L100.167 97.9208L100.037 98.0688L99.9573 98.5598L99.9943 99.0508L99.9543 99.5388L99.8033 100.035L99.7723 100.367L99.7133 100.466L99.6483 100.5L99.5643 100.41L99.4423 100.34L99.2883 100.619L99.1003 100.621L98.9443 99.9858L99.0833 98.9239L99.3953 98.7068L99.2093 98.4168L98.8173 98.0789L98.8503 97.8908L98.5523 97.3459L98.5353 97.2159L98.5823 96.7599L98.8603 96.3518L99.2283 96.2798L99.4853 96.4548L99.6293 96.6039L99.6603 96.7289ZM103.147 98.3568L103.117 98.4308L102.76 98.4239L102.631 98.3629L102.583 98.1458L102.616 97.9449L102.699 97.7888L102.8 97.4879L102.879 96.9858L103.402 97.5479L103.563 97.7979L103.649 98.1028L103.463 98.2169L103.238 98.2719L103.147 98.3568ZM42.9153 98.4118L42.7773 98.4229L42.5693 98.2888L42.5973 98.1278L42.8933 97.9338L43.1923 97.9638L43.2143 98.0718L43.2003 98.1938L43.1763 98.2639L43.0813 98.3369L42.9153 98.4118ZM41.5843 98.8128L41.3923 98.9329L41.3293 98.8908L41.3203 98.7918L41.3653 98.6339L41.4543 98.4759L41.7503 98.1758L42.0483 97.9768L42.2003 97.9889L42.2523 98.1158L42.0663 98.3788L41.5843 98.8128ZM104.928 100.459L104.87 101.292L104.759 101.245L104.653 101.244L104.437 101.362L104.209 101.31L104.102 101.218L104.063 101.111L104.104 100.863L103.978 100.725L103.552 100.675L103.392 100.616L103.304 100.355L103.283 100.013L103.35 99.8849L103.565 99.7949L103.732 99.3778L103.825 99.3218L104.179 98.4938L104.357 98.5518L104.668 99.0558L105.058 99.7819L104.928 100.459ZM103.055 99.7658L102.911 99.7819L102.741 99.7048L102.338 99.2939L102.331 99.1729L102.389 99.0349L102.618 98.7828L102.712 98.7218L103.262 98.7488L103.438 98.8159L103.478 98.9338L103.469 99.0538L103.411 99.1748L103.398 99.3008L103.429 99.4329L103.365 99.5638L103.055 99.7658ZM100.848 99.3018L101.38 99.4099L101.867 99.3988L102.034 99.6068L102.144 99.8258L102.208 100.032L102.226 100.225L102.213 100.361L102.154 100.507L102.167 100.556L103.119 101.033L103.568 101.533L103.747 101.795L103.851 102.016L104.039 102.569L104.435 103.209L104.643 103.403L104.761 103.592L104.695 103.599L104.416 103.459L103.812 103.031L103.762 103.048L103.707 103.28L103.613 103.483L103.474 103.629L103.585 103.672L104.072 103.58L104.482 103.996L104.641 104.071L104.795 104.369L104.8 104.483L104.71 104.703L104.641 104.793L104.664 104.854L104.778 104.885L105.23 104.823L105.311 104.931L105.244 105.787L105.308 106.101L105.307 106.244L105.255 106.433L105.253 106.593L105.294 106.757L105.299 106.903L105.184 107.284L105.063 107.348L104.868 107.351L104.714 107.243L104.498 106.915L104.288 106.405L104.207 106.332L103.931 106.255L103.881 106.194L103.705 106.183L103.58 105.973L103.595 105.697L103.487 105.414L103.5 105.288L103.379 105.235L103.277 105.315L103.33 105.592L103.27 105.806L103.051 105.716L102.685 105.03L102.269 104.478L102.106 104.347L102.149 104.186L102.354 104.101L102.52 104.108L102.554 104.012L102.207 103.476L102.219 103.324L102.345 103.053L102.187 102.94L101.754 103.025L101.601 102.968L101.476 102.75L101.403 102.561L101.028 102.527L100.886 102.55L100.641 102.263L100.53 102.082L100.574 101.989L100.799 101.826L100.931 101.849L101.184 102.023L101.283 102.017L101.534 101.786L101.572 101.578L101.76 101.406L101.73 101.225L101.626 100.916L101.396 100.83L100.926 101.014L100.517 101.297L100.353 101.187L100.317 101.014L100.755 100.542L100.947 100.281L100.91 100.126L100.769 99.9248L100.757 99.4218L100.848 99.3018ZM108.108 103.55L108.01 104.092L107.817 104.645L107.522 104.942L107.314 104.876L107.161 104.636L107.019 104.649L106.868 104.6L106.783 104.401L106.863 104.144L106.792 103.945L106.717 104.119L106.584 104.278L106.249 104.486L106.018 104.882L105.909 105.14L105.773 104.859L105.686 104.192L105.675 103.908L105.918 103.479L106.232 103.071L106.295 101.848L107.293 101.23L107.386 101.262L107.71 101.723L108.055 102.366L108.144 102.655L108.146 103.158L108.108 103.55ZM39.1053 101.902L38.9963 102.059L38.7833 102.048L38.6643 101.997L38.6243 101.859L38.9523 101.443L39.0273 101.387L39.0863 101.403L39.1123 101.575L39.1053 101.902ZM101.581 103.28L101.643 103.419L101.647 103.507L101.241 103.835L101.234 103.903L101.139 104.105L101.054 104.179L100.903 104.398L100.614 104.634L100.657 103.925L100.37 103.512L100.659 103.303L100.848 103.363L101.162 103.387L101.468 103.205L101.581 103.28ZM24.7393 104.41L24.7823 104.413L24.8683 104.375L25.0503 104.098L25.1103 104.086L25.1113 104.171L25.0253 104.445L25.1713 104.811L25.3073 104.986L25.2933 105.048L24.9523 105.174L24.6923 105.083L24.5553 105.115L24.4303 105.242L24.3453 105.101L24.2863 104.426L24.3063 104.308L24.4483 104.073L24.6313 103.967L24.7103 103.998L24.7763 104.092L24.7933 104.19L24.7393 104.41ZM25.7373 104.297L25.6983 104.685L25.3123 104.438L25.2093 104.315L25.2783 104.224L25.6453 104.201L25.7373 104.297ZM102.823 106.467L102.892 106.533L102.962 106.487L103.076 106.314L103.277 106.348L103.423 106.406L103.512 106.478L103.465 106.73L103.429 107.14L103.346 107.285L103.264 107.489L102.979 107.368L102.748 107.108L102.413 106.66L102.226 106.336L102.211 106.199L102.093 106.1L101.863 105.54L101.733 105.096L101.526 105.045L101.265 104.921L101.164 104.677L101.234 104.463L101.606 104.355L102.165 104.905L102.25 105.138L102.45 105.41L102.488 105.789L102.59 105.937L102.823 106.467ZM27.0183 105.323L26.8473 105.43L26.7933 105.566L26.6633 105.624L26.5543 105.735L26.1863 106.237L26.0253 106.329L26.2033 105.901L26.2313 105.765L26.2343 105.674L26.1793 105.35L26.2863 105.364L26.3743 105.297L26.5523 105.009L26.7123 104.984L26.8843 104.641L26.9773 104.614L27.0233 104.66L26.9473 104.868L27.1123 105.059L27.0703 105.244L27.0183 105.323ZM107.096 105.563L107.383 106.2L107.398 106.423L107.125 106.501L106.91 106.469L106.799 106.396L106.77 106.292L106.84 105.97L106.698 105.781L106.534 105.716L106.388 105.827L106.38 105.509L106.49 105.28L106.429 104.969L106.427 104.734L106.464 104.659L106.612 104.666L106.915 104.909L107.096 105.563ZM28.0223 105.21L28.0073 105.6L27.9663 105.661L27.8913 105.557L27.7333 105.673L27.6473 105.589L27.6843 105.453L27.6723 105.347L27.7893 105.338L27.8173 105.144L27.7963 105.062L27.8543 104.887L27.9373 104.846L28.0223 105.21ZM28.4523 106.087L28.3613 106.112L28.2863 106.059L28.1823 105.782L28.1733 105.665L28.3743 105.752L28.4503 105.954L28.4523 106.087ZM16.9063 106.047L17.1783 106.852L17.2963 107.009L17.4713 107.094L17.7173 107.18L17.8633 107.299L17.9913 107.48L18.0083 107.563L17.2373 107.24L16.7523 107.712L16.6063 107.774L15.2303 107.796L14.9553 107.883L14.7773 108.036L14.4633 108.465L14.3033 108.632L14.1353 108.731L13.7783 108.841L13.3493 108.826L13.1253 108.77L13.0053 108.566L12.8993 108.164V108.052L12.9443 107.859L13.3263 107.593L13.4533 107.452L13.9483 106.535L14.0923 106.409L14.2443 106.378L14.6673 106.442L15.0283 106.173L15.8063 105.763L15.9773 105.714L16.5373 105.705L16.6903 105.769L16.8083 105.884L16.9063 106.047ZM20.2123 106.698L20.1453 106.72L19.9523 106.571L19.8823 106.46L19.8313 106.286L20.2253 106.036L20.3073 106.033L20.3813 106.174L20.3943 106.284L20.2853 106.6L20.2123 106.698ZM19.4933 108.854L19.2503 108.959L18.9923 108.849L18.7713 108.646L18.7463 108.404L19.2383 108.561L19.3433 108.635L19.4933 108.854ZM11.0543 110.123L10.9313 110.159L10.9023 110.11L10.8873 109.9L10.7933 109.566L10.9723 109.445L11.0843 109.417L11.1313 109.468L11.2603 109.718L11.3893 109.784L11.4843 109.837L11.3173 109.913L11.0543 110.123ZM10.2683 110.438L10.1623 110.522L10.0773 110.54L10.0133 110.493L9.7203 110.55L9.6633 110.516L9.5343 110.231L9.5263 110.084L9.5773 109.968L9.7073 109.862L9.9173 109.767L10.1243 109.787L10.4843 110.05L10.6533 110.204L10.6853 110.299L10.5593 110.389L10.2683 110.438ZM8.0963 111.246L8.2173 111.472L8.4263 111.329L8.5803 111.133L8.7003 110.88L8.7783 110.78L8.8813 110.914L9.1753 111.096L8.9273 111.376L8.4513 111.794L8.2913 112.074L8.2813 112.195L8.7433 112.103L8.8723 112.116L8.9543 112.212L8.8283 112.325L8.5773 112.428L8.3593 112.627L7.8533 112.971L7.6623 113.257L7.4363 113.366L7.1283 113.392L6.5863 113.578L6.2573 113.753L6.1743 113.847L6.0703 113.89L5.9463 113.885L5.8133 113.962L5.6693 114.12L5.5493 114.194L5.3533 114.211L5.2513 114.273L5.1373 114.271L4.8243 114.082L4.7463 113.972L5.0233 113.751L5.2233 113.677L5.5283 113.644L5.8273 113.439L6.4433 113.168L6.6343 113.02L6.7573 112.503L6.8973 112.415L6.9723 112.208L7.3133 112.214L7.4693 112.446L7.5243 112.478L7.5513 112.456L7.5663 112.27L7.7413 112.14L7.6403 112.044L7.3253 111.924L7.0913 111.867L6.9383 111.874L6.8143 111.807L6.7183 111.665L6.6753 111.524L6.6833 111.384L6.7613 111.227L6.9083 111.053L7.0763 110.954L7.4393 110.883L7.7613 110.767L7.9313 110.749L8.0603 110.798L8.0963 111.246ZM9.2343 112.089L9.1943 112.103L9.1223 111.986L9.1193 111.879L9.1653 111.801L9.2963 111.619L9.3893 111.555L9.5043 111.522L9.5353 111.571L9.4343 111.786L9.3083 111.931L9.2343 112.089ZM4.3103 113.87L3.4513 114.371L3.1723 114.737L2.9593 115.089L2.7923 115.281L2.6703 115.314L2.5343 115.407L2.2503 115.652L2.1303 115.682L1.2183 116.253L1.1543 116.262L1.1983 116.113L1.4763 115.902L1.6583 115.709L1.8633 115.391L1.9763 115.273L2.0123 115.113L2.0273 114.789L2.0783 114.666L2.2743 114.422L2.4173 114.289L2.6053 114.243L2.9853 114.284L3.1433 114.159L3.1923 114.065L3.0963 113.979L3.0743 113.83L3.0993 113.572L3.2093 113.343L3.4043 113.143L3.6703 112.987L4.0063 112.875L4.2523 112.87L4.6943 113.106L4.7593 113.214L4.6503 113.45L4.5883 113.672L4.3103 113.87ZM213.636 134.917L213.972 134.865L214.261 134.88L214.552 134.903L214.707 134.937L215.155 135.123L215.447 135.275L215.866 135.557L216.098 135.682L216.21 135.975L216.34 136.35H216.526L216.666 136.13L217.022 136.09L217.49 136.244L217.902 136.682L218.494 137.072L218.856 137.266L219.224 137.265L219.691 137.072L220.188 136.698L220.546 136.633L220.758 136.67L220.879 136.961L221.027 137.072L221.413 137.039L222.218 137.095L222.859 137.016L223.005 137.183L223.135 137.446L223.395 137.529L223.748 137.446L224.303 137.503L224.227 137.545L224.145 137.536L224.038 137.599L223.905 137.733L223.598 137.924L223.118 138.173L222.564 138.401L221.441 138.812L220.741 139.238L220.431 139.493L219.226 140.769L218.499 141.446L217.322 142.394L217.21 142.514L217.203 142.626L217.299 142.731L217.539 142.883L217.726 142.902L217.965 142.871L218.91 142.609L219.308 142.427L219.699 142.121L219.739 142.111L219.902 142.167L219.953 142.194L220.461 141.841L220.628 141.796L220.759 141.805L220.922 141.944L220.96 142.028L220.905 142.19L220.759 142.429L220.688 142.63L220.692 142.793L220.629 142.969L220.469 143.208L220.527 143.272L220.956 143.1L221.019 143.033L221.026 142.993L221 142.945L221.049 142.923L221.387 143.158L221.612 143.288L221.801 143.35L222.159 143.275L222.686 143.063L223.136 142.805L223.508 142.499L223.972 142.311L224.529 142.242L224.927 142.134L225.167 141.986L225.489 141.697L225.67 141.612L225.898 141.586L226.069 141.474L226.184 141.276L226.402 141.051L226.722 140.799L226.905 140.697L226.95 140.745L226.967 140.834L226.955 140.965L227.035 141.07L227.206 141.151L227.284 141.258L227.269 141.391L227.315 141.504L227.423 141.598L227.451 141.802L227.401 142.115L227.395 142.318L227.433 142.41L227.471 142.462L227.532 142.412L227.609 142.302L227.637 142.234L227.657 142.165L228.125 141.849L228.216 141.833L228.369 141.915L229.077 142.029L229.356 142.11L229.649 142.291L229.749 142.361L230.108 142.945L230.272 143.173L230.374 143.236L230.432 143.325L230.478 143.531L230.534 143.593L231.06 143.637L231.298 143.6L231.443 143.517L231.604 143.571L231.781 143.761L231.955 143.814L232.126 143.731L232.287 143.733L232.438 143.822L232.508 143.886L232.554 143.883L232.853 143.593L233.213 143.335L233.694 143.056L233.973 142.932L234.05 142.962L234.493 142.869L234.892 142.861L235.421 142.917L235.911 142.852L236.362 142.665L236.761 142.561L237.108 142.539L237.239 142.591L237.154 142.718L237.108 142.935L237.102 143.243L237.072 143.437L237.019 143.519L237.013 143.597L237.053 143.671L237.39 143.719L237.567 143.819L237.77 143.823L237.999 143.732L238.174 143.767L238.296 143.926L238.473 143.955L238.645 143.841L238.766 143.734L238.87 143.687L238.951 143.677L239.037 143.731L239.095 143.822L239.241 144.072L239.313 144.241L239.357 144.492L239.388 144.575L239.384 144.721L239.286 144.82L239.26 144.899L239.319 144.978L239.651 145L239.802 145.078L239.858 145.165L239.82 145.261L239.841 145.364L239.922 145.472L240.188 145.636L240.253 145.714L240.234 145.797L240.155 145.85L240.016 145.874L239 145.72L238.701 145.695L238.657 145.752L238.629 145.76L238.581 145.745L238.494 145.742L238.45 145.705L238.413 145.602L238.325 145.536L238.184 145.507L238.063 145.585L237.922 145.89L237.944 145.947L237.921 146.142L237.957 146.195L237.955 146.239L237.915 146.276L237.832 146.271L237.706 146.225L237.229 145.764L236.868 145.534L236.421 145.365L236.067 145.282L235.807 145.286L235.593 145.405L235.426 145.637L235.165 145.769L234.81 145.801L234.618 145.864L234.588 145.957L234.46 145.959L234.234 145.871L234.001 145.846L233.76 145.885L233.584 145.976L233.397 146.261L233.36 146.401L233.225 146.523L232.866 146.713L232.848 146.783L232.659 146.999L232.599 147.118L232.6 147.235L232.537 147.228L232.41 147.097L232.405 146.921L232.522 146.699L232.627 146.592L232.719 146.599L232.776 146.5L232.798 146.296L232.765 146.194L232.586 146.234L232.492 146.315L232.373 146.333L232.23 146.287L232.104 146.398L231.995 146.667L231.865 146.843L231.714 146.926L231.612 146.834L231.56 146.567V146.358L231.621 146.105L231.59 146.056L231.526 146.137L231.43 146.348L231.302 146.808L231.22 146.957L231.109 147.02L230.933 147.298L230.693 147.79L230.422 148.267L230.12 148.727L229.938 148.974L229.877 149.009L229.85 149.091L229.835 149.386L229.781 149.586L229.623 149.743L229.21 149.941L229.145 150.076L229.136 150.187L228.87 150.646L228.74 150.927L228.655 151.219L228.682 151.403L228.821 151.478L228.934 151.449L229.02 151.316L229.152 151.195L229.331 151.087L229.461 150.928L229.642 150.541L229.845 150.318L229.953 150.305L229.983 150.311L230.194 150.21L230.364 150.243L230.467 150.395L230.572 150.499L230.595 150.597L230.543 150.815L230.446 151.045L230.305 151.286L230.177 151.647L230.062 152.128L230.038 152.491L230.104 152.736L230.041 152.955L229.849 153.147L229.694 153.404L229.577 153.725L229.511 153.994L229.495 154.212L229.512 154.375L229.584 154.595L229.579 154.706L229.371 155.189L229.296 155.423L229.283 155.608L229.231 155.79L229.072 156.159L229.022 156.364L229.013 156.552L229.049 156.86L229.029 156.964L229.038 157.043L229.077 157.096V157.193L229.036 157.334L229.052 157.443L229.124 157.521L229.17 157.67L229.191 157.889L229.246 158.072L229.335 158.218L229.351 158.431L229.294 158.709L229.265 159.231L229.264 159.996L229.306 160.486L229.392 160.703L229.488 160.863L229.594 160.966L229.716 161.282L229.854 161.812L229.981 162.162L230.099 162.332L230.205 162.426L230.289 162.481L230.351 162.489L230.386 162.572L230.544 162.622L230.833 162.643L231.099 162.61L231.341 162.524L232.111 162.078L232.41 161.835L232.576 161.617L232.737 161.33L232.892 160.974L233.208 160.44L233.362 160.117L233.51 159.707L233.622 159.277L233.697 158.826L233.733 158.357L233.729 157.871L233.653 157.381L233.506 156.886L233.427 156.633L233.396 156.566L233.13 155.93L232.83 155.042L232.834 154.966L233.114 154.435L233.121 154.363L233.091 153.931L233.031 153.714L232.888 153.422L232.893 153.348L233.184 152.975L233.36 152.691L233.52 152.346L233.624 151.943L233.671 151.482L233.67 151.174L233.619 151.02L233.624 150.901L233.685 150.818L233.997 150.71L234.102 150.527L234.124 150.205L234.188 150.045L234.294 150.048L234.392 149.982L234.482 149.847L234.601 149.808L234.749 149.867L234.956 149.667L235.222 149.208L235.426 148.951L235.569 148.897L235.596 148.939L235.508 149.076L235.481 149.227L235.515 149.391L235.485 149.55L235.419 149.767L235.46 149.835L235.346 150.184L235.341 150.358L235.41 150.49L235.492 150.444L235.587 150.219L235.616 150.099L235.577 150.084L235.592 149.988L235.659 149.812L235.719 149.728L235.771 149.738L235.785 149.834L235.762 150.017L235.611 150.448L235.581 150.579L235.615 150.616L235.797 150.346L235.949 149.916L236.065 149.586L236.086 149.406L236.051 148.941L236.058 148.75L236.102 148.618L236.26 148.469L236.531 148.303L236.799 148.214L237.064 148.203L237.249 148.158L237.354 148.079L237.317 148.015L237.139 147.968L237.003 147.864L236.911 147.703L236.88 147.518L236.911 147.31L237.024 147.105L237.22 146.904L237.282 146.757L237.209 146.662L237.293 146.628L237.533 146.655L237.701 146.629L237.796 146.55L237.822 146.56L238.023 146.635L238.382 146.882L238.723 147.026L239.046 147.067L239.282 147.154L239.43 147.287L239.537 147.436L239.602 147.601L239.756 147.694L239.999 147.715L240.19 147.785L240.329 147.904L241.101 148.211L241.424 148.373L241.602 148.531L241.652 148.633L241.637 148.733L241.655 148.84L241.787 149.048L241.837 149.067L241.868 149.167L241.879 149.349L241.918 149.471L241.984 149.533L241.943 149.558L241.705 149.453L241.57 149.485L241.507 149.621L241.497 149.75L241.54 149.871L241.844 150.235L241.923 150.567L241.938 150.968L241.9 151.124L241.868 151.467L241.842 151.997L241.836 152.178L241.736 152.355L241.465 152.609L241.461 152.561L241.396 152.548L241.326 152.587L241.228 152.804L241.144 153.2L241.042 153.415L240.921 153.449L240.848 153.506L240.824 153.586L240.695 153.64L240.46 153.668L240.299 153.788L240.179 154.126L240.184 154.288L240.128 154.489L240.132 154.661L240.195 154.804L240.385 154.947L240.701 155.09L240.89 155.112L241.02 155.052L241.156 154.818L241.288 154.726L241.449 154.687L241.51 154.581L241.775 154.112V154.008L241.678 153.968L241.692 153.939L241.817 153.92L241.925 153.857L242.017 153.749L242.178 153.669L242.57 153.546L242.78 153.406L242.913 153.383L243.107 153.458L243.361 153.63L243.562 153.881L243.71 154.21L243.897 155.061L244.123 156.428L244.277 157.19L244.36 157.352L244.401 157.433L244.202 158.494L244.042 158.931L243.762 159.184L243.484 159.429L243.137 159.839L242.756 160.041L242.561 160.16L242.519 160.237L242.472 160.213L242.368 160.435L242.275 160.742L242.238 160.979L242.271 161.109L242.192 161.192L242.049 161.348L242.022 161.405L242.032 161.496L242.002 161.54L241.933 161.538L241.88 161.582L241.751 161.745L241.529 162.171L241.487 162.26L241.524 162.326L241.778 162.367L241.951 162.445L242.086 162.562L242.573 162.791L242.722 162.933L242.87 163.011L243.017 163.025L243.118 162.98L243.172 162.876L243.241 162.869L243.325 162.959L243.599 163.057L243.608 163.088L242.848 163.258L242.689 163.337L242.879 163.392L243.071 163.379L243.264 163.297L243.486 163.301L243.681 163.34L243.743 163.307L243.768 163.29L244.1 163.513L244.224 163.546L244.353 163.521L244.486 163.437L244.779 163.328L245.231 163.193L245.666 163.138L246.084 163.163L246.348 163.125L246.59 162.985L247.124 162.525L247.737 162.154L248.746 161.693L250.246 161.138L250.478 161.009L250.713 160.882L250.835 160.809L250.971 160.743L252.015 160.161L252.553 159.817L252.822 159.567L253.106 159.359L253.404 159.193L253.64 158.98L253.815 158.72L254.008 158.526L254.219 158.399L254.333 158.265L254.349 158.125L254.309 157.935L254.215 157.696L254.202 157.508L254.27 157.37L254.285 157.277L254.247 157.229L253.804 157.092L253.823 156.432L253.817 156.413L253.84 156.405L254.861 156.112L255.512 156.011L256.305 155.984L257.25 156.129L257.617 156.261L257.849 156.429L258.117 156.474L258.421 156.396L258.842 156.37L259.381 156.396L259.669 156.436L259.707 156.489L259.744 156.473L259.781 156.389L259.925 156.296L260.329 156.157L260.383 156.186L260.466 156.116L260.578 155.946L260.784 155.758L261.084 155.552L261.355 155.445L261.598 155.436L261.76 155.386L261.842 155.293L261.867 155.211L261.835 155.14L261.849 155.061L261.863 155.022L261.851 154.99L261.822 154.923L261.799 154.585L261.752 154.426L261.686 154.308L261.602 154.232L261.612 154.153L261.758 154.055L261.747 154.146L261.785 154.174L261.853 154.132L262.009 153.928L262.027 153.851L262.133 153.772L262.212 153.649L262.125 153.631L261.918 153.668L261.871 153.631L261.978 153.467L261.958 153.374L261.924 153.335L261.856 153.319L261.623 153.463L261.551 153.476L261.541 153.4L261.421 153.231L261.743 152.931L262.881 152.094L262.997 151.967L263.04 151.853L263.009 151.753L262.977 151.728L262.994 151.703L264.091 150.621L264.714 150.12L265.228 149.84L265.62 149.707L265.885 149.726L266.035 149.707H266.163L266.816 149.706L267.984 149.704L269.152 149.703L270.32 149.701L271.487 149.699L272.655 149.697L273.823 149.695L274.99 149.693L275.267 148.929L275.524 148.572L275.877 148.69L276.065 148.68L276.274 148.496L276.443 148.384L276.554 148.401L276.649 148.569L276.728 148.681L276.821 148.648L276.9 148.489L276.897 148.268L277.005 148.114L277.134 148.091L277.253 148.096L277.313 148.021L277.306 147.914L277.264 147.74L277.279 147.531L277.576 147.16L277.94 146.909L278.067 146.783L278.104 146.528L278.313 146.263L278.417 146.11L278.442 145.977L278.388 145.813L278.393 145.5L278.465 145.126L278.551 144.718L278.743 144.35L279.058 143.948L279.14 143.418L279.225 142.858L279.607 142.311L280.04 141.688L280.287 141.333L280.731 140.686L281.047 140.224L281.206 140.012L281.372 139.76L281.643 139.836L281.913 139.911L281.873 140.277L281.917 140.543L282.045 140.696L282.23 140.8L282.37 140.835L282.535 140.833L282.985 140.626L283.513 140.492L283.804 140.367L283.857 140.25L283.989 140.209L284.2 140.244L284.59 140.537L285.045 140.979L285.404 141.328L285.415 141.932L285.422 142.57L285.429 143.24L285.434 143.717L285.443 144.371L285.45 144.889L285.459 145.564L285.464 145.924L285.513 146.028L285.483 146.169L285.47 146.24L285.473 146.297L285.493 146.368L285.49 146.467L285.444 146.556L285.421 146.66L285.415 146.829L285.464 146.933L285.546 146.994H285.615L285.704 147.055L285.819 147.163L285.994 147.257L286.175 147.29L286.3 147.267L286.451 147.328L286.504 147.478L286.474 147.619L286.389 147.685L286.297 147.736L286.28 147.844L286.326 147.956L286.392 148.054L286.464 148.226L286.434 148.376L286.368 148.502L286.339 148.632L286.395 148.744L286.543 148.893L286.635 149.037L286.78 149.116L286.849 149.06L286.905 148.985L286.964 148.929L287.066 148.962L287.185 149.004L287.314 149.054L287.298 149.175L287.377 149.378L287.438 149.768L287.344 149.945L287.364 150.179L287.624 150.247L287.687 150.319L287.699 150.405L287.126 151.004L286.641 150.921L286.378 151.08L286.103 151.126L285.982 151.393L285.831 151.45L285.624 151.434L285.445 151.359L285.309 151.396L285.118 151.877L284.962 151.835L284.9 152.008L284.818 152.084L284.698 152.148L284.594 151.935L284.528 151.732L284.43 151.688L284.3 151.636L284.167 151.638L284.078 151.667L283.967 151.798L283.807 151.911L283.686 151.817L283.591 151.666L283.51 151.909L283.392 152.165L283.412 152.463L283.361 152.64L283.249 152.593L283.138 152.438L282.826 152.314L282.577 152.325L282.628 152.159L282.863 151.921L282.79 151.875L282.675 151.908L282.625 151.875L282.708 151.658L282.716 151.419L282.611 151.502L282.479 151.754L282.159 151.955L282.174 152.291L281.873 152.977L281.859 153.269L281.666 153.501L281.416 153.701L281.083 153.645L280.829 153.818L280.7 154.017L280.588 154.047L280.53 153.794L280.488 153.716L280.394 154.09L280.299 154.113L280.263 153.848L280.218 153.673L280.088 153.824L280.002 154.224L279.912 154.19L279.883 154.042L279.818 153.997L279.796 154.167L279.828 154.406L279.781 154.533L279.691 154.465L279.601 154.35L279.452 154.437L279.315 154.472V154.355L279.341 154.211L279.069 154.29L278.742 154.555L278.488 154.921L278.576 154.982L278.675 155.098L278.234 155.661L277.782 156.167L277.441 156.99L277.304 157.086L277.186 157.236L277.061 157.731L276.917 158.17L276.998 158.366L277.051 158.567L277.179 158.765L277.288 158.783L277.406 158.747L277.492 158.755L277.548 158.839L277.524 158.94L277.388 158.965L277.134 159.141L276.911 159.209L276.8 159.421L276.633 159.666L276.308 160.048L276.447 160.166L276.948 160.298L277.172 160.434L277.51 161.144L277.433 161.215L277.402 161.345L277.703 161.527L277.799 162.035L278.046 162.208L278.414 162.314L278.865 162.161L279.24 161.95L279.227 161.777L278.991 161.373L278.934 161.184L278.759 161.061L278.693 161.165L278.58 161.03L278.567 160.954L278.672 160.917L278.795 160.932L278.938 161.003L279.306 161.444L279.408 162.02L279.43 162.385L279.388 162.51L279.281 162.484L279.077 162.509L278.108 162.698L277.893 162.864L277.4 163.044L277.369 162.954L277.405 162.768L277.374 162.386L277.277 162.368L276.51 162.991L276.214 163.03L275.965 163.212L275.909 163.111L275.865 162.645L276.021 162.253L275.938 162.259L275.678 162.494L275.567 162.349L275.511 162.19L275.431 162.1L275.344 162.066L275.419 162.413L275.242 162.673L275.194 163.344L274.972 163.622L274.28 163.801L273.829 163.763L273.425 163.819L272.888 163.947L272.591 163.871L272.287 164.006L271.255 164.043L271.037 163.971L270.759 164.226L270.314 164.377L269.189 164.948L268.941 165.156L268.639 165.479L268.436 165.653L268.269 165.71L268.166 165.855L268.054 165.949L268.162 165.627L268.279 165.355L268.377 164.826L268.348 164.398L268.227 164.222L268.102 164.104L268.248 164.527L268.272 165.045L268.221 165.348L267.945 165.931L267.828 166.066L267.691 166.186L267.587 166.237L267.491 166.33L267.38 166.477L267.275 166.769L267.339 167.035L267.877 167.132L268.022 167.05L268.095 167.24L268.137 167.504L268.096 167.79L268.006 168.08L267.938 168.44L267.88 168.987L267.793 169.478L267.781 169.329L267.836 168.731L267.748 168.794L267.687 168.932L267.523 169.702L267.297 170.111L267.089 170.394L266.874 170.347L266.922 170.572L266.863 170.689L266.813 170.933L266.685 171.094L266.565 171.079L266.393 171.19L266.325 171.275L266.32 171.438L266.204 171.581L265.787 172.323L265.425 172.541L265.339 172.509L265.434 172.159L265.499 171.805L265.279 171.651L265.069 171.569L264.828 171.58L264.561 171.304L264.218 171.104L263.739 170.56L263.753 170.409L263.741 170.155L263.887 169.754L264.026 169.473L264.219 169.327L264.779 169.179L264.919 168.956L265.002 168.768L264.725 169.091L264.31 169.201L264.086 169.322L263.907 169.506L263.801 169.737L263.561 170.015L263.578 170.201L263.618 170.333L263.599 170.609L263.751 170.877L264.051 171.316L264.109 171.996L264.338 172.45L264.69 172.978L264.96 173.128L264.974 173.324L264.849 173.648L264.684 173.796L264.898 173.766L265.004 173.84L265.108 174.11L265.1 174.385L265.065 174.539L265 174.601L265.002 174.443L264.956 174.388L264.88 174.456L264.831 174.534L264.81 174.841L264.758 174.994L264.574 175.039L264.387 175.441L264.214 175.669L263.533 177.205L263.559 177.461L263.434 177.543L263.246 177.61L263.055 177.763L262.928 177.931L262.81 178.383L262.584 178.891L262.443 178.68L262.407 178.499L262.47 178.025L262.714 177.248L262.983 176.764L263.188 176.534L263.356 176.064L263.143 175.994L262.818 176.002L262.879 175.785L262.974 175.594L262.805 175.403L262.705 175.379L262.602 175.301L262.723 175.142L262.782 174.974L262.746 174.769L262.797 174.614L262.713 174.637L262.577 174.801L262.493 174.866L262.442 174.721L262.383 174.754L262.345 174.854L262.258 174.908L262.075 174.772L261.808 174.617L261.66 174.349L261.575 174.141L261.661 173.765L261.846 173.698L262.086 173.759H262.4L262.355 173.676L262.243 173.69L261.912 173.384L261.805 173.199L261.622 173.148L261.539 173.326L261.446 173.373L261.56 172.984L261.71 172.968L261.931 172.86L261.867 172.634L261.727 172.535L261.475 172.659L261.478 172.5L261.525 172.297H261.715L261.882 172.363L262.024 172.034L262.03 171.887L261.795 172.101L261.742 171.64L261.973 171.195L262.194 171L262.47 171.006L262.75 170.975L262.574 170.893L262.393 170.849L262.529 170.672L262.645 170.64L262.759 170.486L262.486 170.509L262.518 170.217L262.385 170.277L262.226 170.304L262.164 170.428L262.176 170.634L262.13 170.769L262.006 170.877L261.797 170.961L261.777 170.815L261.708 170.749L261.682 171.062L261.627 171.168L261.474 170.875L261.428 170.934L261.434 171.017L261.395 171.161L261.264 171.236L261.272 171.42L261.221 171.521L260.802 171.361L260.792 171.415L261.029 171.76L261.202 171.878L261.223 172.066L261.074 172.222L260.869 172.088L260.834 172.098L260.946 172.328L261.016 172.529L260.944 172.697L260.955 172.905L260.939 173.093L260.895 173.257L260.995 174.01L261.115 174.215L261.233 174.41L261.296 174.593L261.171 174.619L260.971 174.469L260.795 174.354L260.586 173.987L260.552 173.84L260.501 173.724L260.525 173.99L260.6 174.287L261.254 174.951L261.375 175.205L261.467 175.405L261.444 175.595L261.273 175.46L261.126 175.288L260.735 175.093L260.242 174.97L259.964 174.516L259.965 174.705L259.903 174.866L259.733 174.67L259.626 174.503L259.59 174.32L259.378 174.332L259.156 174.492L258.941 174.454L258.916 174.143L258.974 173.978L259.215 173.588L259.443 173.388L259.543 173.13L259.509 172.73L259.467 173.137L259.337 173.338L259.132 173.492L258.863 173.766L258.798 174.019L258.714 174.492L258.827 174.652L258.943 174.694L259.285 174.587L259.462 174.635L259.856 175.203L260.59 175.427L260.858 175.567L261.076 175.863L261.404 176.033L261.659 176.28L261.666 176.441L261.578 176.631L261.543 176.888L261.435 177.05L261.176 177.069L261.019 177.027L260.176 176.122L260.075 176.039L259.762 175.564L259.395 175.309L259.281 175.314L259.803 175.785L260.016 176.114L260.391 176.574L260.659 176.769L260.856 177.073L261.04 177.215L261.541 177.417L261.367 177.563L261.645 177.687L261.685 177.914L261.66 178.173L261.274 178.07L261.261 178.261L261.296 178.373L261.126 178.466L260.889 178.34L260.274 177.65L260.279 177.742L260.329 177.849L260.686 178.293L261.005 178.559L261.275 178.679L261.483 178.902L261.557 179.036L261.606 179.24L261.452 179.378L261.276 179.455L261.105 179.317L260.979 179.171L260.711 178.924L260.63 178.647L260.426 178.661L259.574 178.31L258.889 178.269L258.956 178.34L259.042 178.387L259.587 178.473L259.802 178.635L260.25 178.779L260.513 178.818L260.619 179.258L260.982 179.561L261.029 179.785L261.277 179.81L261.713 179.591L261.994 179.668L262.4 179.731L262.493 179.908L262.562 180.244L262.706 180.622L263.078 182.108L263.637 183.317L263.706 183.525L263.576 183.342L263.161 182.542L262.932 181.962L262.697 180.936L262.629 180.706L262.548 180.614L262.495 180.689L262.472 180.82L262.511 180.921L262.418 181.259L262.458 181.414L262.608 181.574L262.772 181.973L262.903 182.51L262.726 182.292L262.538 182.177L262.245 182.089L261.984 181.934L262.003 182.156L261.978 182.396L261.777 182.323L261.64 182.243L261.762 182.498L261.499 182.422L261.323 182.438L261.209 182.665L261.056 182.802L260.83 182.846L260.494 182.639L260.386 182.387L260.341 182.106L260.323 182.438L260.383 182.783L260.362 183.045L260.685 183.093L260.987 183.051L261.395 183.062L261.661 183.013L261.821 182.93L262.205 183.002L262.232 183.318L262.188 183.632L262.166 183.965L262.272 183.963L262.397 183.856L262.46 183.257L262.811 183.035L262.929 183.051L263.041 183.243L263.079 183.438L263.119 183.706L263.037 184.114L262.498 184.59L262.112 185.029L261.914 185.118L261.63 185.067L261.307 184.957L261.148 184.935L261.028 184.972L260.955 184.836L260.908 184.589L260.783 184.507L260.688 184.516L260.624 184.778L260.323 184.853L259.914 184.744L259.485 184.524L259.669 184.76L260.732 185.201L260.852 185.284L260.964 185.404L260.816 185.593L260.699 185.806L260.682 185.973L260.641 186.078L260.217 186.361L259.988 186.311L259.401 185.8L259.669 186.242L259.883 186.429L260.315 186.529L261.124 186.364L261.39 186.544L261.172 186.863L260.956 187.086L260.672 187.111L260.422 187.172L260.348 187.325L260.17 187.335L259.891 187.344L259.46 187.358L259.223 187.322L258.892 187.635L258.767 187.678L258.593 187.619L258.52 187.367L258.442 187.243L258.44 187.714L258.471 187.841L258.534 187.936L258.147 188.191L257.776 188.509L257.643 188.595L257.492 188.754L257.183 189.213L257.107 189.547L256.995 189.919L256.981 189.752L257 189.47L256.924 189.147L256.875 189.739L256.755 190.013L255.653 189.994L255.171 190.143L254.431 190.644L254.21 190.864L253.598 191.711L253.442 192.252L253.317 192.025L253.348 191.855L253.35 191.715L253.197 192L253.343 192.436L253.212 192.602L252.808 192.912L252.587 192.962L252.339 193.05L252.261 193.355L251.924 193.636L251.728 193.76L251.368 193.685L251.479 193.955L251.347 194.16L251.119 194.317L250.836 194.419L250.674 194.406L250.536 194.46L250.427 194.59L250.162 194.712L249.887 194.644L249.575 194.603L249.401 194.676L249.693 194.797L249.85 194.971L249.818 195.206L249.74 195.296L249.555 195.419L249.474 195.401L249.425 195.291L249.365 195.061L249.279 195.11L249.264 195.217L249.19 195.256L248.928 194.889L248.941 195.169L249.032 195.384L249.12 195.493L249.209 195.557L249.231 195.657L249.052 195.9L248.96 195.954L248.796 195.993L248.704 196.142L248.731 196.271L248.587 196.55L248.244 196.724L248.14 196.717L248.055 196.768L248.105 196.892L248.19 196.982L248.187 197.066L248.097 197.18L247.918 197.212L247.818 197.341L247.85 197.464L247.909 197.532L247.896 197.649L247.693 197.767L247.645 197.883L247.746 197.917L247.824 197.883L247.881 197.908L247.759 198.102L247.65 198.22L247.546 198.432L247.305 198.491L247.314 198.56L247.45 198.621L247.564 198.784L247.35 199.085L247.216 199.06L247.134 198.994L247.082 199.231L247.102 199.357L247.051 199.616L246.969 199.926L246.913 200.053L246.925 200.29L246.96 200.519L247.091 200.813L247.292 202.014L247.429 202.43L247.675 203.55L248.082 204.632L248.656 205.935L249.598 207.507L249.711 207.73L249.588 207.919L249.551 208.115L249.54 208.41L249.574 208.698L249.685 209.049L249.899 209.585L249.779 209.479L249.469 208.709L249.433 208.257L249.477 207.614L249.404 207.63L249.345 207.839L249.312 208.084L249.233 208.179L249.126 207.804L249.134 207.635L249.248 207.437L249.215 207.366L249.03 207.264L248.991 207.105L249.016 206.947L248.911 206.863L248.828 206.867L248.884 207.256L248.971 207.494L249.079 208.065L249.254 208.41L249.356 208.699L250.546 211.769L250.828 212.158L250.932 212.437L251.04 213.02L251.064 213.767L250.87 215.128L250.826 216.053L250.798 216.025L250.779 215.927L250.734 215.914L250.566 216.337L250.337 216.718L250.261 217.31L250.151 217.606L249.82 217.919L249.615 217.911L249.113 218.146L248.76 218.085L248.34 218.217L248.064 218.202L247.904 217.923L247.928 217.798L247.991 217.673L248.099 217.644L248.47 217.937L248.54 217.813L248.428 217.667L248.213 217.585L248.055 217.495L247.736 216.827L247.405 216.368L247.349 216.06L246.778 215.872L246.365 215.587L246.095 215.081L245.94 214.182L245.758 214.081L245.681 214.011L245.859 213.676L246.047 213.395L245.899 213.465L245.79 213.569L245.651 213.817L245.549 213.855L245.456 213.817L245.349 213.341L245.38 212.756L245.53 212.537L245.299 212.531L245.06 212.614L245.095 212.809L245.061 212.916L244.887 212.888L244.754 212.82L244.575 212.616L244.33 212.228L243.827 211.156L243.729 211.005L243.562 210.846L243.641 210.797L243.784 210.768L244.107 210.284L244.36 209.991L244.444 209.788L244.429 209.701L244.317 209.575L244.17 209.685L244.107 209.654L243.941 209.399L243.783 209.327L243.673 209.382L243.789 209.59L243.893 209.668L243.852 209.971L243.81 210.069L243.712 210.156L243.559 210.109L243.482 210.184L243.391 210.105L243.301 209.972L243.2 209.753L243.467 208.517L243.714 207.727L243.742 206.823L243.761 206.689L243.74 206.448L243.409 205.925L241.946 204.644L240.813 203.12L239.831 202.547L239.086 202.673L238.957 202.788L238.902 202.938L238.948 203.109L238.881 203.18L238.681 203.171L238.412 203.211L237.709 203.612L237.461 203.597L237.236 203.701L237.067 203.779L236.627 203.821L236.254 203.91L236.093 203.862L235.988 203.629V203.388L236.073 203.573L236.205 203.718L236.266 203.66L236.288 203.532L236.157 203.281L235.734 202.959L235.253 202.488L235.4 202.504L235.437 202.403L235.288 202.27L235.351 202.117L235.456 201.956L235.253 201.98L235.07 202.093L235.064 202.232L235.028 202.343L234.93 202.327L234.748 202.19L233.852 201.808L233.068 201.592L233.67 201.495L233.996 201.57L233.957 201.454L233.878 201.38L233.621 201.287L233.293 201.322L233.086 201.278L232.875 201.371L232.643 201.508L232.436 201.578L231.628 201.677L230.973 201.784L231.078 201.671L231.19 201.598L231.577 201.487L231.635 201.257L231.544 201.035L231.442 201.088L231.335 201.261L231.204 201.136L231.059 201.137L231.019 201.412L230.832 201.597L230.748 201.783L230.201 201.929L230.131 201.881L230.291 201.704L230.278 201.606L230.096 201.69L229.79 202.024L228.713 202.133L228.772 202.057L229 202.041L229.319 201.936L229.254 201.758L229.131 201.562L229.017 201.54L228.942 201.425L228.946 201.063L228.873 200.851L228.698 200.633L228.639 200.675L228.51 201.049L228.403 201.538L228.35 201.696L228.031 201.707L227.748 201.673L226.788 201.732L226.43 201.566L226.281 201.534L226.19 201.538L225.773 201.69L225.297 201.806L225.185 201.769L225.025 201.764L224.68 202.159L224.273 202.344L223.247 202.011L222.992 201.744L222.765 201.687L222.486 201.654L222.187 201.983L221.959 202.426L222.318 202.669L222.626 202.785L223.134 202.688L223.415 202.473L223.644 202.48L223.754 202.437L223.854 202.325L224.05 202.413L224.057 202.502L223.918 202.627L223.742 202.732L223.636 202.856L223.836 203.105L224.151 203.189L224.269 203.153L224.342 202.873L224.536 202.692L224.799 202.731L224.762 202.845L224.799 202.952L224.92 203.135L224.906 203.397L224.929 203.46L224.646 203.575L224.435 203.614L224.266 203.765L224.355 203.852L224.183 203.929L224.067 203.898L224.008 203.926L223.99 204.019L223.901 204.104L224.03 204.363L224.295 204.531L224.482 204.743L225.234 205.021L225.416 205.013L225.595 205.293L225.74 205.389L225.879 205.438L225.863 205.63L225.615 205.771L225.548 205.939L225.486 206.033L225.374 205.914L225.26 205.827L224.995 206.09L224.867 206.146L224.93 205.862L224.83 205.751L224.679 205.466L224.458 205.29L224.302 205.231L224.181 205.12L224.034 205.075L223.909 205.087L223.697 205.022L223.683 204.87L223.624 204.756L223.458 204.622L222.667 204.368L222.662 204.473L222.717 204.552L222.831 204.605L222.967 204.707L222.966 205.01L222.907 205.138L222.882 205.32L222.829 205.506L222.732 205.652L222.516 205.751L222.421 205.668L222.267 205.269L222.049 205.144L221.703 205.129L221.468 205.219L221.212 205.606L221.005 205.669L220.298 205.469L219.492 205.163L219.513 205.061L219.64 205.028L219.884 205.07L219.871 204.965L219.622 204.623L219.577 204.469L219.609 204.281L219.528 204.285L219.379 204.443L218.865 204.309L218.723 204.148L218.421 203.696L217.995 203.681L217.802 203.407L217.453 203.522L217.277 203.649L217.122 203.846L217.182 203.948L217.337 204.11L217.267 204.189L216.77 204.304L215.618 204.175L215.281 204.054L214.829 203.798L214.203 203.59L213.901 203.556L213.606 203.597L212.746 203.618L212.547 203.673L212.377 203.762L212.267 203.664L212.216 203.489L212.316 203.461L212.427 203.358L212.527 203.154L212.539 203.03L212.469 202.95L212.336 202.942L212.042 203.473L212.21 203.77L212.199 203.877L211.612 203.938L210.279 204.535L209.759 204.857L209.786 204.749L210.414 204.332L210.192 204.268L209.835 204.372L209.707 204.332L209.858 203.987L209.809 203.682L209.555 203.674L209.393 203.917L209.281 203.907L209.134 203.803L209.02 203.836L209.104 204.387L209.264 204.613L209.398 204.902L209.033 205.257L208.694 205.55L208.657 205.833L208.316 206.201L207.996 206.41L207.243 206.9L207.028 207.004L206.688 207.231L206.22 207.401L205.77 207.671L205.619 207.712L205.906 207.483L206.246 207.257L205.954 207.288L205.504 207.184L205.229 207.178L205.228 207.261L205.019 207.378L204.802 207.207L204.708 207.092L204.663 206.992L204.571 206.968L204.483 207.014L204.807 207.714L204.945 207.744L205.097 207.813L204.907 207.976L204.702 208.1L204.38 208.182L204.108 207.927L204.049 208.247L204.014 208.566L203.923 208.648L203.777 208.765L203.698 208.677L203.66 208.553L203.566 208.663L203.429 208.746L203.203 208.763L203.034 208.807L203.038 208.939L203.077 209.072L203.377 208.967L203.268 209.308L202.992 209.645L202.767 209.724L202.423 209.675L202.338 209.709L202.262 209.779L202.663 210.304L202.405 211.095L202.24 211.382L202.126 211.419L202 211.428L201.556 211.174L201.314 210.977L201.528 211.512L202.11 211.668L202.14 211.871L202.137 212.043L202.022 212.246L201.915 212.515L201.994 212.702L202.086 213.165L202.165 213.377L202.251 214.02L202.343 214.298L202.872 215.32L203.05 215.328L203.078 215.438L203.061 215.65L202.681 215.712L202.521 215.806L202.49 215.888L202.467 215.932L202.418 215.928L202.237 215.869L201.824 215.579L201.223 215.399L200.433 215.329L199.893 215.184L199.603 214.963L199.301 214.831L198.986 214.79L198.724 214.67L198.517 214.471L198.214 214.344L197.815 214.288L197.555 214.139L197.375 213.773L197.374 213.768L197.212 213.156L197.008 212.772L196.612 212.296L196.576 212.233L196.573 212.155L196.622 211.878L196.58 211.678L196.455 211.515L196.426 211.343L196.494 211.162L196.498 210.944L196.439 210.689L196.187 210.413L195.741 210.117L195.361 209.683L195.048 209.112L194.738 208.716L194.431 208.495L194.222 208.225L194.109 207.906L194.076 207.721L194.122 207.67L193.934 207.315L193.511 206.656L193.268 206.173L193.205 205.867L192.936 205.503L192.46 205.08L192.202 204.805L192.139 204.614H192.138L191.396 204.056L191.18 203.707L191.012 203.597L190.819 203.609L190.72 203.575L190.715 203.496L190.652 203.492L190.531 203.564L190.136 203.578L189.467 203.536L188.984 203.441L188.687 203.294L188.479 203.314L188.359 203.502L188.105 203.623L187.716 203.677L187.382 204.025L187.102 204.667L186.979 205.079L187.013 205.263L186.939 205.396L186.757 205.479L186.572 205.665L186.384 205.954L186.164 206.094L185.913 206.084L185.449 205.862L184.773 205.426L184.243 205.156L183.859 205.053L183.52 204.851L183.226 204.55L182.955 204.349L182.707 204.248L182.417 203.914L182.085 203.346L181.919 202.907V202.443L181.485 201.43L181.255 200.99L181.084 200.787L180.75 200.545L180.251 200.263L179.583 199.699L178.745 198.85L178.152 198.338L177.804 198.164L177.502 197.857L177.246 197.417L176.996 197.136L176.97 197.123L176.948 197.117L176.331 197.113L175.714 197.109L175.097 197.105L174.48 197.102L173.863 197.098L173.246 197.095L172.629 197.091L172.012 197.087L172.01 197.456L172 197.828L171.999 198.196L171.997 198.564L171.005 198.566L170.013 198.568L169.021 198.57L168.029 198.572L167.037 198.574L166.045 198.576L165.053 198.578L164.061 198.58L162.73 198.096L161.399 197.611L160.068 197.125L158.737 196.638L157.406 196.151L156.075 195.663L154.744 195.174L153.413 194.684L153.547 194.497L153.725 193.997L153.404 194.033L152.601 194.104L151.798 194.175L150.995 194.246L150.192 194.317L149.389 194.388L148.586 194.459L147.783 194.53L146.98 194.601L146.974 194.58L146.954 194.217L146.824 194.089L146.657 194.168L146.581 193.696L146.623 193.473L146.603 193.255L146.446 192.718L146.029 192.066L145.128 191.253L144.669 190.981L144.309 190.637L144.08 190.541L143.792 190.515L143.709 190.67L143.383 190.564L143.432 190.179L143.114 189.643L142.854 189.583L142.199 189.619L141.324 189.324L141.066 189.148L140.977 188.833L140.567 188.559L140.027 188.29L139.726 188.353L139.333 188.311L138.772 188.117L138.445 188.093L137.808 188.15L137.57 188.109L137.349 187.864L137.111 187.741L137.161 187.439L137.131 187.166L137.167 186.953L137.06 186.486L137.143 186.052L137.071 185.895L136.936 185.774L136.514 185.596L136.437 185.373L136.506 185.063L136.396 184.858L136.05 184.667L135.727 184.233L135.317 183.995L135.149 183.596L134.897 183.349L134.809 183.13L134.249 182.347L133.651 181.734L133.559 181.38L133.536 180.895L133.77 180.599L133.896 180.338L133.883 180.099L133.847 179.923L133.641 179.617L132.845 179.435L132.198 178.676L132.16 178.094L131.906 177.498L131.903 177.109L131.864 176.688L132.057 176.596L132.229 176.63L132.212 176.797L132.27 177.098L132.473 177.324L132.666 177.423L132.842 177.642L132.974 177.708L133.11 177.724L133.037 177.583L132.959 177.493L132.864 177.201L132.684 176.828L132.477 176.622L132.372 176.246L132.282 176.159L132.226 176.019L132.426 175.853L132.699 175.735L133.065 175.703L134.103 175.759L134.324 175.662L134.507 175.693L134.641 175.681L134.359 175.581L134.201 175.614L134.014 175.593L133.643 175.613L133.493 175.571L133.328 175.453L133.22 175.441L132.877 175.647L132.724 175.622L132.362 175.397L132.204 175.365L131.95 175.493L131.919 176.044L131.998 176.453L131.846 176.495L131.669 176.327L131.398 176.227L131.174 176.074L130.858 175.789L130.692 175.685L130.504 175.922L130.497 175.813L130.59 175.537L130.564 175.074L130.847 175.444L130.759 175.184L130.539 174.897L130.372 174.797L130.162 174.283L129.689 173.974L129.31 173.474L128.534 172.643L128.483 171.911L128.2 170.982L128.319 170.452L128.303 170.076L128.164 169.506L128.019 169.196L127.39 168.343L126.785 167.767L126.694 167.33L126.652 166.889L126.784 166.496L126.899 166.081L126.982 165.971L127.015 166.017L126.992 166.105L127.078 166.132L127.111 165.949L127.162 165.855L127.072 165.843L127.081 165.785L127.135 165.669L127.323 165.123L127.303 164.433L127.504 163.584L127.494 163.303L127.366 162.697L127.238 162.333L127.01 162.075L127.111 161.697L127.103 161.336L126.7 160.815L126.546 160.13L126.517 159.84L126.557 159.072L126.452 158.743L126.183 158.2L126.298 157.727L126.422 157.438L126.725 156.175L126.798 156.072L126.924 156.075L127.145 155.86L127.043 155.81L126.889 155.913L127.026 155.411L127.18 154.98L127.28 154.825L127.331 153.413L127.419 152.328L127.564 151.969L127.513 151.598L127.572 151.095L127.53 150.585L127.841 148.116L127.8 147.816L127.895 147.413L127.806 146.348L127.846 145.15L127.767 144.997L127.727 144.831L127.801 144.806L127.945 144.981L128.613 144.979L129.039 144.817L129.194 144.87L129.374 145.09L129.601 145.134L129.884 145.095L129.798 145.04L129.665 145.025L129.367 144.822L129.198 144.619L128.677 144.633L128.571 144.503L127.989 144.633L127.809 144.5L127.492 144.586L127.57 144.208L127.556 143.73L127.573 143.264L127.651 143.604L127.848 143.965L127.943 143.556L128.008 143.04L127.816 142.842L127.496 142.695L127.381 142.213L128.138 141.801L127.736 141.714L127.578 141.529L127.383 141.506L127.368 141.649L127.305 141.836L127.237 141.587L127.217 141.294L127.137 140.793L126.827 139.984L126.639 138.931L126.403 138.409L125.951 137.909L125.833 137.617L125.725 136.874L125.786 136.31L125.702 135.912L125.919 135.935L126.49 136.248L127.201 136.493L127.416 136.671L127.761 136.803L129.673 137.008L129.798 136.988L130.045 136.861L130.15 136.877L130.431 137.168L130.572 137.203L130.755 137.188L130.89 137.133L131.121 136.934L131.152 137.008L131.148 137.193L131.23 137.456L131.399 137.796L131.463 138.007L131.121 138.601L131.056 138.614L131.046 138.413L131.001 138.373L130.357 139.375L130.131 139.848L130.109 140.061L130.117 140.186L130.207 140.217L130.413 140.168L130.718 139.972L130.733 139.929L130.449 139.999L130.313 140.005L130.332 139.781L130.364 139.675L130.55 139.343L130.745 139.144L131.022 138.932L131.182 138.757L131.292 138.501L131.6 138.195L131.657 138.11L131.644 137.858L131.663 137.81L131.812 137.844L131.874 138.278L131.837 138.471L131.571 138.706L131.538 138.789L131.584 139.11L131.543 139.141L131.442 139.103L131.411 139.124L131.662 139.472L131.742 139.742L131.753 139.983L131.685 140.444L131.612 140.521L131.487 140.493L131.321 140.349L131.284 140.395L131.152 140.753L131.109 140.722L131.027 140.297L130.982 140.265L130.727 140.459L130.624 140.645L130.536 140.941L130.424 141.08L130.742 141.11L131.029 141.05L131.259 141.191L131.337 141.195L131.547 141.057L131.611 140.964L131.785 140.517L131.872 140.437L132.001 140.434L132.126 140.367L132.312 140.121L132.32 140.023L132.252 139.472L132.272 139.159L132.237 139.06L132.154 138.957L132.164 138.857L132.229 138.692L132.234 138.543L132.178 138.41L132.203 138.259L132.379 137.933L132.412 137.789L132.626 137.464L132.572 137.333L132.414 137.173L132.314 137.032L132.214 136.812L132.138 136.738L132.113 136.772L132.22 137.132L132.197 137.156L131.919 136.962L131.854 136.839L131.82 136.672L131.844 136.547L131.994 136.423L132.173 136.378L132.158 136.274L131.934 135.936L131.785 135.782L131.67 135.707L131.515 135.687L131.446 135.632L131.428 135.553L131.461 135.449L131.544 135.415L131.783 135.457L131.912 135.383L131.9 135.248L131.861 135.173L131.867 134.689L131.776 134.295L131.729 134.228L131.678 134.221L131.624 134.274L131.474 134.288L131.381 134.159L131.278 133.909L131.092 133.313H131.38H132.577H133.773H134.97H136.167H137.363H138.56H139.757H140.954H142.15H143.347H144.544H145.74H146.937H148.134H149.331H150.527H151.724H152.921H154.117H155.314H156.511H157.708H158.904H160.101H161.298H162.494H163.691H164.888H166.085H167.281H168.478H169.675H170.871H172.068H173.265H174.462H175.658H176.855H178.052H179.248H180.445H181.642H182.838H184.035H185.232H186.429H187.625H188.822H190.019H191.215H192.412H193.609H194.806H196H197.197H198.394H199.59H200.787H201.984H203.181H204.377H205.574H206.771H207.967L208.629 133.319L208.64 132.416L208.648 131.702L209.254 131.789L209.435 131.919L209.493 131.981L209.476 132.178L209.526 132.775L209.636 133.271L209.89 133.866L209.891 133.867L209.912 134.099L209.995 134.244L210.148 134.379L210.728 134.542L211.735 134.733L212.306 134.952L212.441 135.199L212.71 135.298L213.113 135.25L213.395 135.147L213.636 134.917ZM131.113 134.679L131.15 134.771L131.037 134.861L130.957 134.875L130.829 134.731L130.773 134.713L130.818 134.935L130.802 135.011L130.541 134.875L130.493 134.767L130.566 134.653L130.731 134.535L130.788 134.521L131.113 134.679ZM130.465 135.406L130.539 135.545L130.237 135.456L130.11 135.376L130.072 135.298L130.027 135.043L130.048 134.96L130.183 134.931L130.435 135.247L130.465 135.406ZM131.004 135.699L130.96 135.741L130.81 135.686L130.722 135.592L130.692 135.475L130.748 135.25L130.823 135.192L130.87 135.205L130.89 135.403L131.023 135.612L131.004 135.699ZM131.701 136.855L131.838 137.404L131.897 137.175L132.279 137.571V137.766L132.233 137.831L132.153 137.854L132.08 137.797L132.013 137.66L131.927 137.588L131.744 137.542L131.649 137.386L131.616 137.28L131.607 136.972L131.561 136.876L131.464 136.855L131.371 136.782L131.227 136.566L131.207 136.508L131.275 136.332L131.431 136.037L131.544 135.897L131.614 135.912L131.701 136.001L131.805 136.163L131.785 136.277L131.365 136.5L131.351 136.552L131.555 136.615L131.63 136.671L131.701 136.855ZM226.048 137.82L226.034 137.889L226.136 137.91L226.117 137.945L226.006 138.008L225.692 138.136L225.482 138.177L225.374 138.131L225.363 138.046L225.448 137.921V137.859H225.361L225.382 137.809L225.511 137.71L226.609 137.079L227.078 136.849L227.328 136.776L227.368 136.812L227.097 137.05L227.054 137.147L227.064 137.212L226.975 137.337L226.172 137.779L226.048 137.82ZM131.913 139.199L131.898 139.279L131.743 139.184L131.692 139.096L131.698 138.899L131.737 138.771L131.766 138.745L131.857 138.801L131.883 138.834L131.913 139.199ZM132.202 140.025L132.189 140.119L132.082 140.192L132.026 140.173L132.022 140.062L131.993 140.045L131.877 140.178L131.886 139.915L131.943 139.638L131.993 139.633L132.067 139.815L132.202 140.025ZM228.106 140.787L228.054 140.92L228.064 141L227.723 141.352L227.599 141.574L227.496 141.609L227.413 141.458V141.336L227.497 141.244L227.58 141.113L227.59 140.932L227.558 140.866L227.454 141.029L227.512 141.064L227.529 141.092L227.509 141.151L227.117 141.064L227 140.937L227.02 140.76L227.151 140.533L227.622 140.052L227.83 139.918L228.42 139.706L228.745 139.657H229.072L229.309 139.727L229.456 139.866L229.317 139.958L228.671 140.037L228.653 140.062L228.777 140.138L228.8 140.192L228.686 140.333L228.106 140.787ZM130.914 140.811L130.887 140.892L130.847 140.888L130.759 140.723L130.748 140.607L130.823 140.523L130.924 140.764L130.914 140.811ZM221.918 141.546L221.826 141.61L221.791 141.58L221.813 141.454L221.859 141.381L221.93 141.36L221.965 141.391L221.964 141.473L221.918 141.546ZM221.129 141.95L221.087 141.979L220.98 141.91L220.965 141.853L220.994 141.796L221.044 141.809L221.114 141.892L221.129 141.95ZM221.582 141.983L221.488 142.006L221.287 141.97L221.29 141.91L221.499 141.827L221.592 141.804L221.614 141.839L221.582 141.983ZM221.122 142.539L220.961 142.595L220.894 142.585L220.921 142.508L221.004 142.416L221.378 142.186L221.443 142.19L221.463 142.245L221.282 142.358L221.214 142.418L221.206 142.481L221.122 142.539ZM239.582 144.253V144.34L239.496 144.32L239.424 144.261L239.366 144.163L239.294 143.918L239.184 143.744L239.349 143.547L239.448 143.524L239.554 143.568L239.569 143.683L239.491 143.869L239.495 144.059L239.582 144.253ZM239.616 144.724L239.576 144.746L239.435 144.588L239.405 144.491L239.426 144.41L239.48 144.406L239.568 144.48L239.618 144.566L239.629 144.664L239.616 144.724ZM241.348 145.664L241.375 145.754L241.307 145.886L241.11 145.953L240.71 145.946L240.451 145.895L240.332 145.801L240.306 145.752L240.317 145.647L240.375 145.64L240.46 145.697L240.587 145.673L240.756 145.567L240.845 145.487L240.853 145.434L240.799 145.332L240.842 145.289L241.054 145.329L241.133 145.395L241.276 145.623L241.348 145.664ZM238.391 146.438L238.75 146.494L238.785 146.463L238.887 146.569L238.903 146.659L238.86 146.734L238.797 146.776L238.716 146.783L238.586 146.707L238.374 146.505L238.391 146.438ZM235.6 147.312L235.504 147.332L235.431 147.285L235.443 147.097L235.541 146.769L235.637 146.619L235.767 146.68L235.741 146.72L235.767 147.07L235.72 147.223L235.6 147.312ZM231.923 148.31L231.839 148.35L231.685 148.336L231.629 148.246L231.71 148.017L231.743 148.059L231.877 148.062L231.923 148.084L231.938 148.141L231.923 148.31ZM231.558 148.752L231.506 148.803L231.419 148.769L231.385 148.844L231.405 149.027L231.376 149.111L231.299 149.097L231.295 149.131L231.363 149.212L231.37 149.301L231.317 149.398L231.265 149.443L231.216 149.436L231.139 149.546L231.035 149.773L230.999 149.904L231.032 149.94L231.008 150.016L230.749 150.36L230.649 150.393L230.54 150.345L230.463 150.245L230.418 150.092L230.405 149.974L230.423 149.89L230.651 149.585L230.752 149.386L230.81 149.162L230.915 149.019L231.069 148.957L231.194 148.818L231.289 148.601L231.399 148.507L231.523 148.535L231.577 148.617L231.558 148.752ZM234.408 149.303L234.375 149.359L234.297 149.354L234.235 149.3L234.174 149.125L234.194 149.087L234.345 149.112L234.398 149.186L234.408 149.303ZM284.333 152.333L284.169 152.409L283.99 152.376L283.994 152.582L283.974 152.656L283.776 152.55L283.703 152.482L283.709 152.209L283.884 151.95L284.018 151.847L284.19 151.918L284.322 152.208L284.333 152.333ZM262.094 152.548L262.006 152.58L261.985 152.534L261.999 152.491L262.072 152.437H262.195L262.181 152.48L262.094 152.548ZM283.109 152.866L283.003 152.943L282.889 152.918L282.885 152.726L282.92 152.661L282.959 152.632L283.018 152.686L283.109 152.866ZM261.671 153.667L261.629 153.679L261.633 153.596L261.676 153.542L261.758 153.518L261.756 153.56L261.671 153.667ZM254.184 157.399L254.098 157.53L254.015 157.517L253.954 157.475L253.933 157.392L253.948 157.288L254.022 157.242L254.223 157.282L254.23 157.324L254.184 157.399ZM275.762 163.181L275.623 163.283L275.468 163.265L275.547 163.127L275.577 162.924L275.654 162.701L275.698 162.633L275.789 162.573L275.762 163.181ZM275.414 163.206L275.336 163.275L275.307 163.095L275.362 162.887L275.417 162.883L275.445 162.993L275.414 163.206ZM277.814 163.612L277.041 163.794L276.918 163.677L277.111 163.622L277.354 163.343L277.516 163.311L277.77 163.469L277.814 163.612ZM279.307 164.025L279.091 164.085L278.591 163.948L279.002 163.832L279.069 163.791L279.123 163.62L279.13 163.534L279.286 163.902L279.307 164.025ZM272.202 165.063L272.003 165.302L272.183 165.326L272.338 165.256L272.484 165.114L272.825 164.922L273.116 164.838L273.207 164.82L273.346 164.955L273.621 164.847L273.904 164.786L272.681 165.403L272.431 165.472L272.073 165.656L271.735 165.786L271.492 165.833L270.281 166.289L270.185 166.299L270.081 166.255L269.083 166.489L268.674 166.515L268.301 166.597L268.577 166.408L268.583 166.337L268.517 166.282L268.37 166.298L268.219 166.492L267.978 166.557L267.93 166.346L268.011 166.182L268.12 166.026L268.359 165.781L268.702 165.626L268.876 165.492L268.997 165.61L269.023 165.45L269.116 165.358L269.217 165.308L269.459 165.307L269.59 165.282L269.684 165.229L269.781 165.219L270.047 165.292L270.306 165.271L270.515 165.171L270.733 165.137L271.308 165.115L271.879 165.042L272.108 164.912L272.588 164.546L272.864 164.444L272.434 164.869L272.202 165.063ZM267.492 166.772L267.358 166.787L267.492 166.434L267.738 166.272L267.827 166.306L267.83 166.431L267.796 166.537L267.631 166.702L267.492 166.772ZM267.646 169.85L267.317 170.399L267.31 170.294L267.721 169.612L267.646 169.85ZM264.278 176.277L264.15 176.335L264.578 175.625L264.827 175.028L264.938 174.821L264.83 175.239L264.642 175.623L264.278 176.277ZM263.429 183.377L263.387 183.447L263.2 183.066L263.392 183.189L263.426 183.292L263.429 183.377ZM263.686 185.492L263.31 185.585L263.277 185.555L263.708 185.36L263.844 184.672L263.863 184.354L263.799 183.792L263.801 183.676L263.871 183.857L263.933 184.381L263.91 184.777L263.785 185.354L263.686 185.492ZM263.019 185.663L262.509 185.907L262.451 185.892L262.786 185.718L263.019 185.663ZM260.993 187.527L260.923 187.566L261.18 187.142L261.687 186.603L261.824 186.52L261.402 186.98L260.993 187.527ZM260.874 187.487L260.811 187.495L260.701 187.458L260.549 187.386L260.515 187.333L260.66 187.352L260.874 187.487ZM139.251 189.434L139.822 189.607L140.13 189.524L140.186 189.607L140.15 189.68L139.456 189.81L139.243 189.719L139.224 189.594L139.152 189.474L139.251 189.434ZM138.061 189.618L137.912 189.627L137.682 189.591L137.763 189.512L137.89 189.455L137.931 189.498L138.061 189.618ZM138.799 189.976L138.602 190.023L138.453 189.979L138.215 189.657L138.72 189.614L138.938 189.754L138.967 189.793L138.799 189.976ZM143.558 191.765L143.7 192.011L143.496 191.981L143.283 191.995L143.218 191.861L143.155 191.674L143.112 191.627L142.966 191.61L142.955 191.593L142.938 191.502L142.979 191.459L143.437 191.667L143.558 191.765ZM140.498 192.328L140.373 192.334L140.201 192.303L140.113 192.123L140.254 192.111L140.384 192.136L140.487 192.277L140.498 192.328ZM143.551 193.626L143.387 193.656L143.206 193.588L143.05 193.267L142.878 193.016L142.971 192.944L143.11 193.186L143.459 193.554L143.551 193.626ZM247.198 199.732L247.073 200.525L247.019 200.244L247.014 199.972L247.108 199.81L247.198 199.732ZM228.528 202.066L228.281 202.135L227.915 202.128L227.841 202.104L227.987 202.058L228.421 201.996L228.528 202.066ZM227.163 202.184L227.127 202.22L226.878 202.153L226.727 202.09L226.7 202.027L227.117 202.14L227.163 202.184ZM225.293 202.609L225.303 202.759L225.165 202.684L224.961 202.677L225.051 202.626L225.114 202.576L225.146 202.522L225.403 202.335L225.33 202.472L225.293 202.609ZM226.406 203.5L226.327 203.603L226.405 203.112L226.296 202.698L226.411 202.88L226.449 203.096L226.406 203.5ZM226.233 203.806L226.081 203.974L226.088 203.91L226.2 203.742L226.28 203.676L226.233 203.806ZM237.407 204.031L237.125 204.147L236.82 204.063L237.009 204.047L237.146 204.081L237.493 203.915L237.675 203.79L237.885 203.743L237.407 204.031ZM218.082 204.486L217.978 204.532L217.514 204.254L217.485 204.135L217.714 204.027L217.854 204.037L218.075 204.179L218.156 204.218L218.194 204.275L218.173 204.364L218.082 204.486ZM208.972 205.623L208.832 205.654L209.444 205.162L209.572 204.998L209.736 205.005L209.463 205.28L208.972 205.623ZM204.131 208.783L204.028 208.796L204.156 208.625L204.364 208.539L204.82 208.21L205.006 208.187L205.103 208.074L205.145 208.057L205.118 208.196L204.752 208.394L204.131 208.783ZM203.43 209.577L203.369 209.585L203.505 209.326L203.53 209.222L203.753 208.894L203.871 208.845L203.92 208.985L203.691 209.215L203.43 209.577ZM250.656 211.54L250.702 211.771L250.444 211.234L250.125 210.391L249.955 209.738L250.07 209.915L250.183 210.28L250.656 211.54ZM202.478 211.472L202.39 211.653L202.414 211.384L202.642 210.771L203.105 209.964L203.3 209.829L202.766 210.714L202.478 211.472ZM202.991 215.037L202.952 215.182L202.72 214.507L202.342 212.975L202.328 212.099L202.388 211.797L202.485 213.035L202.903 214.6L202.991 215.037ZM245.333 213.813L245.329 213.996L245.187 213.689L245.093 213.349L245.228 213.459L245.333 213.813ZM245.463 214.121L245.363 214.203L245.16 214.143L245.05 214.036L245.002 213.827L245.178 214.049L245.241 214.099L245.463 214.121ZM250.109 218.187L249.551 218.766L249.613 218.621L249.831 218.311L249.901 218.165L250.048 218.073L250.185 217.906L250.195 217.71L250.394 217.573L250.459 217.553L250.109 218.187ZM249.389 218.923L249.314 218.938L249.425 218.807L249.456 218.817L249.389 218.923ZM248.853 219.229H248.8L248.826 219.185L248.937 219.098L248.977 219.132L248.973 219.176L248.853 219.229ZM248.25 219.496L248.122 219.569L247.989 219.515L248.135 219.442L248.57 219.364L248.406 219.461L248.25 219.496ZM247.435 219.7L247.351 219.763L247.311 219.743V219.651L247.191 219.447L247.195 219.394L247.469 219.593L247.476 219.647L247.435 219.7ZM246.784 219.855L246.602 219.885L246.749 219.764L246.796 219.58L246.882 219.723L246.881 219.81L246.784 219.855ZM246.174 220.025L246.103 220.032L246.097 219.985L246.22 219.927L246.302 219.931L246.299 219.995L246.174 220.025ZM28.4223 227.959L28.1753 228.128L28.0313 228.055L27.7593 228.028L27.6543 227.901L27.3693 227.786L27.2543 227.63L27.4293 227.334L27.8433 227.084L28.4813 227.095L28.6143 227.292L28.6263 227.439L28.5433 227.604L28.5053 227.836L28.4223 227.959ZM26.1563 228.233L26.0993 228.366L26.0023 228.345L25.9783 228.227L26.0413 228.064L26.2013 227.923L26.3793 227.709L26.5253 227.741L26.4463 227.882L26.4373 228.034L26.2313 228.12L26.1563 228.233ZM32.8383 229.388L32.9343 229.405L33.0583 229.384L33.1013 229.623L33.2453 229.755L33.2983 229.834L33.1423 229.917L32.8393 229.95L32.6973 229.884L32.5503 229.735L32.3913 229.776L32.3633 229.656L32.3353 229.621L32.2263 229.653L32.3283 229.808L32.0523 229.82L31.9653 229.801L31.8883 229.626L31.6043 229.29L31.6053 229.159L31.5083 229.003L31.9293 228.958L32.2173 228.683L32.3803 228.654L32.6923 229.098L32.6843 229.222L32.7533 229.344L32.8383 229.388ZM34.4813 230.11L35.0743 230.192L35.2143 230.157L35.3133 230.224L35.8043 230.266L35.8883 230.291L35.7883 230.445L35.4743 230.586L35.0223 230.462L34.2663 230.418L34.2973 230.299L34.3693 230.215L34.3803 230.068L34.4813 230.11ZM36.5213 230.956L36.5943 231.009L36.8933 230.929L37.1093 230.9L37.4713 231.097L37.5973 231.232L37.8353 231.376L37.9163 231.48L37.8503 231.606L37.5873 231.814L37.2293 231.862L37.0183 231.951L36.7413 231.932L36.6583 231.894L36.6283 231.63L36.5403 231.347L36.3613 231.38L36.1603 231.285L35.9523 231.047L35.9293 230.905L36.0443 230.679L36.2453 230.65L36.3943 230.775L36.5213 230.956ZM35.5033 231.434L35.3373 231.518L35.1563 231.479L35.1143 231.275L34.9403 231.016L35.2463 230.963L35.4183 231.038L35.5083 231.119L35.6173 231.258L35.5033 231.434ZM39.0633 236.657L38.9393 236.799L38.7843 236.788L38.2213 236.484L38.1533 236.321L38.1953 235.562L37.9843 234.946L37.7523 234.474L37.9213 234.232L38.1443 234.044L38.3933 233.69L38.1893 233.235L38.2413 232.96L38.3613 232.913L38.9493 233.247L40.1373 233.749L40.4533 234.102L40.5093 234.48L40.7253 234.528L40.8283 234.787L41.1403 235.014L41.2443 235.143L41.1153 235.351L40.5453 235.75L39.8263 235.924L39.1933 236.37L39.0633 236.657Z" fill="#CCCCCC" stroke="white" stroke-width="0.5"/>
</svg>
