<svg width="16" height="18" viewBox="0 0 16 18" fill="none" xmlns="http://www.w3.org/2000/svg">
<path d="M14.9163 12.7711L14.7784 12.8961L14.6303 13.1311L14.4563 13.6981L13.8713 14.4801L13.7523 14.9231L13.1213 15.3861L12.6763 15.9081L12.3863 15.8951L12.1243 16.1191L10.6173 16.7991L10.0763 16.6711L9.67532 16.6731L9.30334 16.3731L8.45435 16.2651L7.92133 16.3851L7.20633 16.7151L6.99033 16.7101L6.83533 16.6921L6.44833 16.5551L6.23734 16.2641L5.13632 15.9281L4.25134 15.1671L3.20532 15.1521L2.40335 15.2521L2.27933 15.1511L2.19833 14.9571L2.03235 14.6751L1.34235 14.0061L0.800323 13.3441L0.694336 12.6941L0.769348 11.9891L0.932343 11.1561L0.903351 10.8961L1.10434 10.7491L1.30133 10.7191L1.49234 10.5042L1.66333 10.1801L1.69232 9.93512L1.56033 9.48114L1.46832 8.84912L1.35934 8.53412L1.57834 8.03912L1.58734 7.7981L1.46133 7.58612L1.42734 7.36914L1.48434 7.14612L1.47333 6.93311L1.39334 6.72815L1.45334 6.55811L1.65433 6.4231L1.80533 6.21814L1.90433 5.9411L1.95532 5.7301L1.95734 5.58411L1.89633 5.44714L1.77234 5.31812L1.83032 5.06213L2.06833 4.6781L2.22333 4.33813L2.29233 4.04211L2.28833 3.80212L2.20935 3.62109L2.24234 3.49811L2.38934 3.43311L2.45532 3.24115L2.43335 2.7641L2.28134 2.37213L2.39734 2.0611L2.72934 1.70215L2.90335 1.41315L2.91733 1.19312L3.02133 1.0661L3.18033 1.30414L3.65234 1.36713L4.12833 1.37512L4.20532 1.31512L4.39233 0.926147L4.63834 0.815125L4.90634 0.786133L5.19934 0.806152L5.51132 1.06311L6.39435 1.90613L7.04233 2.4931L7.23935 2.77014L7.41135 2.97815L7.53934 3.17114L7.48434 3.67511L7.49335 3.89612L7.52335 3.95911L7.67133 3.96515L7.89133 3.9281L8.07632 3.82111L8.22034 3.65912L8.36133 3.5271L8.47635 3.45709L8.51733 3.3501L8.58334 3.23914L8.65033 3.21515L8.77835 3.29712L9.08133 3.58514L9.31534 3.85211L9.37332 4.00415L9.46335 4.16315L9.56033 4.30212L9.62833 4.43811L9.85535 4.61414L10.0873 4.72614L10.2423 4.61115L10.6353 4.97913L11.5003 5.28613L11.6593 5.47211L11.8093 5.73712L12.1113 6.13812L12.5303 6.50012L12.8673 6.65314L13.1913 6.74011L13.3723 6.82013L13.4963 6.95911L13.6933 7.10809L13.8183 7.16412L13.8603 7.2981L13.9883 7.59113L14.1223 7.9621L14.2673 8.30713L14.5823 8.6391L14.9383 8.89709L15.3073 9.04315L15.5143 9.2251L15.6043 9.41315L15.3553 9.69312L15.0853 10.0461L14.8473 10.3231L14.6013 10.5172L14.5193 10.6511L14.4643 10.8581L14.4673 11.9601L14.4473 12.3711L14.4643 12.4801L14.5003 12.5531L14.6553 12.6631L14.8403 12.7551L14.9163 12.7711Z" fill="#CCCCCC" stroke="white" stroke-width="0.5"/>
</svg>
