<svg width="50" height="33" viewBox="0 0 50 33" fill="none" xmlns="http://www.w3.org/2000/svg">
<path d="M42.8111 13.3401L42.9021 13.2732L43.0621 13.2051L43.3261 13.3362L43.5571 13.5012L43.6131 13.5771L43.6021 13.6652L43.0511 13.9861L42.7091 14.1361L42.5581 14.1631L42.5172 14.2051L42.4091 14.5702L42.1971 14.6352L41.9251 14.7462L41.7351 14.9142L41.4321 15.3102L40.6621 15.8852L40.6511 16.0022L40.7181 16.0971L40.9681 16.1631L41.2981 16.3391L41.4771 16.4771L41.9661 16.2992L42.0871 16.3382L42.2151 16.5222L42.3501 17.0362L42.5691 17.1761L42.8561 17.2831L43.0341 17.3181L43.2711 17.4442L43.5871 17.4911L43.7991 17.4452L44.0641 17.5532L44.1071 17.5062L44.1422 16.7401L44.3641 16.8682L44.4921 16.8661L44.6041 16.7722L44.6621 16.6451L44.7001 16.3922L44.6511 16.1392L44.7501 16.0232L44.8271 15.9972L44.8841 16.0282L44.9182 16.0931L44.9281 16.3221L45.0881 16.4192L45.1861 16.4752L45.2791 16.6692L45.3701 16.8542L45.4281 17.2871L45.6531 17.3171L45.9171 17.4001L46.0941 17.3192L46.2311 17.3672L46.2781 17.5721L46.2771 17.7632L46.2971 17.9152L46.3681 17.9582L46.5981 17.8632L46.7911 17.8502L46.9691 17.9412L47.1901 18.0792L47.5111 18.4412L47.6171 18.4932L48.1011 18.5211L48.2021 18.5952H48.3681L48.5481 18.5302L48.9471 18.6472L48.9601 18.7132L48.8931 18.8041L47.9421 19.3041L47.8721 19.4582L47.6781 19.6532L47.4661 19.7642L47.3631 19.7682L46.8981 19.5702L46.8441 19.6182L46.8062 19.6982L46.8081 19.7852L46.9101 19.9932L46.8631 20.1241L46.7741 20.2191L46.4831 20.1361L46.4291 20.0832L46.4231 20.0251H46.3111L46.1381 20.0832L45.8051 20.4421L45.6891 20.6302L45.6461 20.7432L45.4981 20.8072L45.3371 20.8311L45.1292 21.0002L44.9031 21.1312L44.8311 21.0352L44.7871 20.9282L44.7271 20.8942L44.5881 20.9192L44.4201 20.9232L44.2431 20.8022L44.0141 20.6801L43.8141 20.6371L43.2241 20.6942L42.9321 20.7542L42.8401 20.8131L42.6761 20.8292L41.9851 20.9521L41.8441 20.9041L41.7401 20.7101L41.6491 20.5002L41.4701 20.4242L41.2691 20.3651L41.1941 20.2812L41.1891 20.1791L41.2101 20.0792L41.2261 20.0272L41.6921 19.6252L42.1121 19.2632L42.1511 19.2342L42.1891 19.1652L42.2601 19.0402V18.9752L41.9461 18.8311L41.9341 18.7652L41.9971 18.6971V18.6061L41.7751 18.3401L41.3911 17.9251L41.2802 17.8821L41.1981 17.9091L41.0481 18.3102L40.9731 18.4121L40.5351 18.6751L40.1691 18.8561L39.5172 19.1772L39.3471 19.2782L39.2291 19.2602L39.1111 19.1971L38.7451 18.8722L38.5091 18.7611L38.3501 18.8712L38.2161 19.0312L38.2291 19.3601L38.0781 19.5331L37.9271 19.6111L38.2021 20.4901L38.1751 20.6031L37.9651 20.6342L38.1191 20.9641L37.9891 21.0022L37.6581 20.9251L37.2131 20.8741L36.3731 21.0201L36.3111 21.0771L36.2881 21.1501L36.3371 21.2162L36.7441 21.2231L37.1422 21.1902L37.2521 21.2512L37.2691 21.3592L37.2231 21.4272L37.0901 21.4391L36.7991 21.5042L36.7661 21.5732L36.7561 21.6392L36.8551 21.8301L36.9651 21.9521L36.9791 22.0241L36.9331 22.0851L36.8771 22.1092L36.7791 22.0192L36.7231 22.0371L36.6961 22.1191L36.6691 22.2151L36.6051 22.2852L36.4691 22.2481L36.3341 22.2751L36.2542 22.6231L36.1861 23.0172L35.9641 23.2791L35.8411 23.3741L35.6601 23.4022L35.3911 23.3701L35.2281 23.3311L34.7561 23.2732L34.2831 23.1661L33.7511 23.0662L33.2561 23.2971L33.1131 23.4381L33.0221 23.5702L32.9291 23.6312L32.7141 24.4391L32.7361 24.5312L32.8551 24.6031L33.4621 24.7701L33.5511 24.8391L33.6041 24.9182L33.6301 25.2802L33.6801 25.3301L33.8881 25.3752L34.1891 25.3722L34.4251 25.3362L34.6621 25.3691L34.8281 25.4471L34.9091 25.5702L34.9541 25.7032L34.6721 26.4962L34.6951 26.7841L34.7821 27.1962L34.9421 27.5192L35.2431 27.8342L35.4721 28.0362L35.5201 28.1312L35.5321 28.2782L35.4951 28.4662L35.3631 28.7642L35.2011 29.0241L35.0261 29.1342L34.7831 29.4641L34.5681 29.8691L34.1552 30.3991L34.0161 30.6942L33.9701 31.5452L33.8611 31.8001L33.8441 31.7032L33.6951 31.6061L33.4351 31.6231L33.2641 31.5771L33.1821 31.4681L32.9701 31.4991L32.6281 31.6682L32.2791 31.5782L31.9241 31.2281L31.2471 31.1002L30.3901 31.1801L30.3581 30.7921L30.3601 30.2971L30.3991 29.6382L30.6911 29.1201L30.6821 29.0211L30.6251 28.9261L30.5361 28.8412L30.0172 28.6982L29.8651 28.6231L29.6641 28.4592L29.4101 28.2871L29.1891 28.1682L28.8421 28.0111L28.5221 27.9242L28.3341 27.9901L28.1611 28.0742L27.9991 28.0761L27.8371 28.0302L27.2371 27.6371L26.3311 26.9572L25.6131 26.4811L25.1621 26.2531L25.0551 26.1801L24.8021 25.9662L24.1801 25.3882L23.7672 25.4731L23.1771 25.0971L22.6471 24.7292L22.5271 24.6292L21.9241 23.9471L21.3221 23.5042L20.6661 23.0201L20.2421 22.7162L19.5231 22.2002L19.1711 21.8882L19.0521 21.7732L18.9361 21.5522L18.7481 20.4691L18.5321 19.9712L18.2241 19.7002L17.9621 19.1772L17.7441 18.4001L17.5641 17.8942L17.4211 17.6602L17.1331 17.4012L16.6961 17.1172L16.2821 16.9821L16.1331 16.9872L16.0591 17.0222L15.9751 17.0702L15.8111 17.2822L15.5691 17.3041L15.3911 17.2992L15.2251 17.2231L14.7011 17.1562L14.5151 17.0822L14.2001 17.0931L13.5231 17.2032L13.3581 17.1832L12.6431 16.7092L12.3321 16.5211L12.2701 16.4171L12.2731 16.2351L12.3781 15.9771L12.4681 15.7942L12.4281 15.6042L12.2921 15.3961V15.1742L12.3851 15.0501L12.5751 15.0891L12.6431 15.0111L12.6191 14.8932L12.5161 14.8091L12.3792 14.6201L11.9741 14.4442L11.9161 14.3722L11.9371 14.2902L12.0071 14.2021L12.0211 14.0161L12.0281 13.7762L12.0821 13.6512L12.0971 13.5532L12.0381 13.4742L11.9011 13.3821L11.6821 13.1591L11.4131 13.1352L10.5381 13.1432L10.2672 13.0532L10.0491 12.9282L9.83112 12.4521L9.72113 12.3391L9.6181 12.2921L9.37311 12.2762L9.07812 12.2302L8.92712 12.1491L8.51514 11.7132L8.11914 11.3232L7.96014 11.6912L7.80615 11.7642L7.45709 11.7302L7.19513 11.6682L7.04614 11.7512L6.89215 11.8961L6.92114 11.9922L7.03912 12.0931L7.27612 12.2802L7.6391 12.7372L7.80414 12.9892L7.82812 13.0771L7.79712 13.1432L7.74811 13.1711L7.67615 13.1702L7.5791 13.1692L7.52313 13.0941L7.50415 12.9641L7.38312 12.7672L7.25812 12.6532L7.12109 12.5822L6.92914 12.5291L6.67615 12.4352L6.5451 12.4312L6.41815 12.5402L6.31213 12.6872L6.24915 13.0081L6.06012 13.4022L5.94409 13.5572L5.58411 13.6512L4.7301 13.6832L4.4751 13.8062L4.30115 13.9542L3.97815 14.4332L3.75311 14.5922L3.55811 14.8112L3.61713 15.5132L3.71112 16.3301L3.87512 16.5562L3.97913 16.6241L3.9931 16.7042L3.92615 16.7751L3.84015 16.8642L3.71014 17.0272L3.56415 17.0211L3.27014 16.9802L3.02515 16.9362L2.20111 16.8892L1.53314 16.8512L0.791138 16.8091L0.7901 15.9532V15.0941V14.2321L0.789124 13.3672V12.4981V11.6262L0.788147 10.7512V9.87314V8.99216V8.10715L0.787109 7.21915V6.32715V5.43115L0.786133 4.53217V3.63016V2.72415L1.13611 2.61215L1.57812 2.46915L2.00214 2.33316L2.50714 2.17017L3.07611 1.98615L3.56213 1.82916L4.14215 1.64215L4.58411 1.49915L4.99915 1.36514L5.53015 1.20514L6.35614 0.957153L6.81714 0.818146L7.28314 0.678162L7.72711 0.544159L8.02411 0.494141L8.34314 0.68515L8.73114 0.947144L9.11914 1.20917L9.50714 1.47116L9.89514 1.73315L10.2831 1.99414L10.6711 2.25516L11.0591 2.51614L11.4471 2.77615L11.8351 3.03616L12.2231 3.29614L12.6111 3.55515L12.9991 3.81415L13.3871 4.07315L13.7751 4.33115L14.1631 4.58914L14.5511 4.84714L14.9111 5.08716L15.0731 5.26517L15.1621 5.65717L15.3411 5.96814L15.6521 6.30414L15.9701 6.64816L16.3661 7.10117L16.6401 7.41516L16.9191 7.73514L17.3811 8.26215L17.6691 8.59015L17.8981 8.60117L18.3631 8.52316L18.9851 8.41916L19.4761 8.33615L20.0701 8.23615L20.6361 8.14114L21.0821 8.06516L21.7501 8.12216L22.4091 8.17914L22.8821 8.22015L23.3451 8.26016L23.8941 8.30716L24.2011 8.33316L24.5531 8.36316L24.7011 8.28415L25.0042 8.12216L25.2901 7.97015L25.5871 7.81116L25.8501 7.73114L26.1241 7.98416L26.3531 8.27615L26.5941 8.58316L26.8731 8.87814L27.1441 9.05316L27.5071 9.29016L27.7161 9.69415L27.9951 10.2332L28.1791 10.5872L28.3681 10.9502L28.6431 10.8072L28.9361 10.6541L29.2021 10.5152L29.1701 10.9641L29.1422 11.3712L29.0971 11.9861L29.0611 12.4882L28.9651 13.0862L28.9581 13.5411L28.9521 13.9402L28.9481 14.2562L29.4631 14.2701L29.8441 14.2802L30.3211 14.2932L30.3671 14.6891L30.4312 15.2451L30.5281 15.7472L30.6101 16.1682L30.7321 16.7112L30.7981 17.0012L30.9121 17.3422L31.0251 17.4242L31.2061 17.4781L31.8361 17.4372L32.3581 17.4032L32.7701 17.3772L33.2081 17.3492L33.7891 17.3112L33.9861 17.3982L34.1561 17.3372L34.3521 17.2762L34.5081 17.5232L34.5871 17.6482L34.6981 17.7782L34.8481 17.8991L34.7851 18.1522L34.6921 18.5211L34.6661 18.7101L34.8471 18.9142L34.9821 19.0331L35.3511 19.2751L35.6981 19.4102L35.9241 19.4502L36.1401 19.3982L36.2191 19.2611L36.1991 19.0721L36.0951 18.8731L36.1031 18.6361L36.1721 18.4632L36.3931 18.1482L36.6021 17.8502L36.9221 17.5461L37.3031 17.2451L37.4611 17.0251L37.5221 16.6422L37.7711 16.4251L38.0401 16.2952L38.3741 16.1822L38.4661 15.9901L38.9271 15.6642L39.2031 15.5031L39.5521 15.4091L40.0341 15.1971L40.4151 14.9471L40.7802 14.4762L41.0701 14.1671L41.3141 13.9771L41.5191 13.9702L41.6631 14.1241L41.7871 14.1371L41.8681 14.0671L42.0061 13.8691L42.1541 13.6382L42.2932 13.5421L42.5621 13.4932L42.8111 13.3401ZM41.9851 18.2462L41.9751 18.1562L41.8881 18.0052L41.7581 17.9202L41.6961 17.9572L41.7491 18.0801L41.9001 18.2552L41.9851 18.2462ZM43.5391 22.0792L43.3981 22.1122L43.1401 22.1071L42.9931 22.0692L43.0831 21.7732L43.0861 21.7141L43.0751 21.7061L43.0011 21.6661L42.8891 21.5452L42.8501 21.3661L42.8941 21.2002L42.9761 21.1312L43.0281 21.1432L43.1861 21.3961L43.3271 21.4702L43.6021 21.5121L43.4631 21.7621L43.5661 22.0291L43.5391 22.0792ZM45.1481 21.8691L45.0731 22.0262L44.9411 21.9882L44.8371 21.8842L44.8711 21.8022L45.0261 21.7571L45.1071 21.7122L45.1751 21.7042L45.1481 21.8691Z" fill="#CCCCCC" stroke="white" stroke-width="0.5"/>
</svg>
