<svg width="40" height="33" viewBox="0 0 40 33" fill="none" xmlns="http://www.w3.org/2000/svg">
<path d="M38.2612 10.748L38.7822 11.4341L38.7902 11.5101L38.7332 11.5961L38.4082 11.757L38.3352 11.8401L38.2182 12.1451L37.8092 12.3121L37.5262 12.5221L37.3362 12.7061L37.2412 12.7801L36.8672 12.8211L36.7472 12.9371L36.5962 13.2851L36.4862 13.4311L36.2922 13.6021L36.2912 13.7061L36.5592 14.0861L36.6072 14.2061L36.5242 14.3871L36.5322 14.5151L36.6732 14.6691L36.8412 14.7041L37.0052 14.6401L37.2092 14.6461L37.3422 14.6871L37.3972 14.7321L37.4062 14.8501L37.3222 15.1001L37.2012 15.2621L36.6652 15.5101L36.4272 15.6541L36.2952 15.7601L36.0062 15.7031L35.8592 15.7071L35.7462 15.7891L35.6772 15.8591L35.4832 15.8771L35.2092 15.9191L35.0942 15.9661L35.0052 16.0891L34.9312 16.2641L34.9932 16.4741L35.0792 16.662L35.0752 16.8341L35.1412 17.313L35.0552 17.425L34.8712 17.5511L34.6522 17.7751L34.4062 18.0861L34.4452 18.175L35.0332 18.8271L35.6312 19.4901L36.2262 20.149L36.3102 20.1781L36.4222 20.2541L36.5262 20.4841L36.6112 20.7291L36.6132 20.8551L36.5462 21.0141L36.4012 21.1971L36.2252 21.3451L35.9682 21.4711L35.7632 21.5901L35.5942 21.9031L35.4912 22.0131L35.3972 22.0571L35.2112 22.0981L34.9112 22.0881L34.7132 22.0641L34.4672 22.2981L34.1542 22.3841L33.9442 22.7041L33.1962 22.9581L32.4642 23.1551L32.2632 23.2331L31.5402 23.0701L31.3662 23.1211L31.1662 23.2731L30.9812 23.3901L30.8252 23.3971L30.6942 23.4581L30.6162 23.675L30.5472 24.4221L30.2872 24.6441L29.9742 24.6431L29.7592 24.3841L29.5042 24.1891L29.0592 23.7261L28.9352 23.6651L28.8202 23.6681L28.4072 23.8061L28.2112 23.7461L28.0532 23.6741L27.7892 23.6971L27.3192 23.7021L27.0192 23.7061L26.8732 23.58L26.7372 23.3211L26.6462 23.2281L26.5392 23.1531L26.3622 23.1151L25.6052 23.1161H25.4622L25.3582 23.0661L25.2122 22.8441L25.0532 22.7401L24.8662 22.7361L24.7842 22.8591L25.1082 23.2581L25.2022 23.4751L25.4862 23.7881L26.3072 24.451L26.4592 24.6611L26.4422 24.9301L26.4372 25.3411L26.4652 25.7301L26.6762 26.2881L26.9722 26.8551L27.0532 27.2171L26.9982 27.4841L26.9412 27.6271L26.9472 27.6901L27.0082 27.7471L27.2912 27.8291L27.8852 27.8801H28.2442L28.7922 27.942L28.8332 28.1411L28.7792 28.4701L28.6712 28.6571L28.5832 28.7111L28.2852 28.7541L27.9712 28.9561L27.5152 29.1551L27.2552 29.1821L27.1472 29.2211L27.0552 29.2811L26.9792 29.3571L26.8912 29.731L26.7572 30.1531L26.5042 30.4031L26.2262 30.61L25.9432 30.6331L25.7162 30.6161L25.6032 30.6771L25.4402 30.847L25.2072 31.0591L25.0272 31.1721L24.7852 31.1611L24.5262 31.2651L24.1992 31.4361L23.9822 31.576L23.7972 31.8161L23.5322 32.067L23.2602 32.244L23.1302 32.4621L22.9442 32.7381L22.7122 32.7471L22.6932 32.5811L22.8042 32.3141L22.6832 32.0841L22.4622 31.9601L22.3582 31.9231L22.2552 31.938L21.9932 32.0521L21.6722 32.2591L21.4742 32.4081L21.2952 32.4761L20.9272 32.5381L20.6172 32.5701L20.4892 32.5281L20.2592 32.3761L19.7262 31.9001L19.0052 31.2561L18.9502 31.0691L18.9812 30.8791L18.8502 30.6011L18.7732 30.3051L18.7082 30.2031L18.6892 29.981L18.5332 29.5821L18.4052 29.2551L18.2872 29.0891L18.3372 28.9471L18.2872 28.8061L18.1922 28.6911L18.0522 28.3201L18.1012 28.1601L18.0642 28.0001L17.9462 27.8901L17.7792 27.7721L17.5562 27.5261L17.2902 27.2921L17.1542 27.2001L17.0612 27.1631L16.9802 26.9411L16.9182 26.873L16.7822 26.8551L16.5032 26.7621L16.2432 26.873L16.2372 26.701L16.3112 26.597L17.2092 25.7751L17.6612 25.3971L17.7102 25.3411L17.7502 25.2541L17.7812 25.1371L17.6782 25.0031L17.2542 24.3681L17.1072 24.248L16.9622 24.1501L16.7962 23.8831L16.5972 23.2621L16.4542 22.9501L16.4112 22.7101L16.4202 22.4391L16.3672 22.231L16.2522 22.0861V21.6431L16.3672 20.9011L16.3952 20.3371L16.3372 19.951L16.4402 19.6571L16.7032 19.455L16.8502 19.1431L16.8812 18.7211L17.0392 18.3741L17.3232 18.1031L17.4202 17.8351L17.3302 17.5701L17.3012 17.4011L17.0602 17.2291L16.6132 17.1081L16.2432 17.0941L16.0192 17.2291L15.4462 17.3541L14.5242 17.4691H13.7812L13.2182 17.3531L12.7902 17.3921L12.4962 17.5861L12.2892 17.6301L12.1692 17.524L12.0392 17.4951L11.8422 17.5621L11.8082 17.5311L11.3712 17.0081L10.9672 16.5231L10.5032 15.9451L9.96817 15.2781L9.87219 15.2341L9.70618 15.2381L9.48718 15.2501L9.14719 15.1811L8.91418 15.0841L8.73218 14.9901L8.39618 14.8711L8.16617 14.8501L7.9592 14.8851L7.3902 15.1181L7.06717 15.1401L6.81717 15.1441L6.14517 15.0291L5.68619 15.0101L5.15219 15.0861L4.92319 15.1291L4.60318 15.0101L4.38519 14.8291L4.18219 14.399L4.03918 14.0611L3.79019 13.9931L3.51419 13.9351L3.37817 13.8231L3.29617 13.6281L3.27618 13.3781L3.30417 12.9711L3.33017 12.8251L3.36819 12.386L3.52017 12.1561L3.61618 12.0451L3.59717 11.86L3.52417 11.4821L3.4502 11.2141L3.1442 10.9111L2.7522 10.5221L2.58319 9.89905L2.38419 9.16306L2.22818 9.08905L2.08118 9.12607L1.92517 9.08905L1.78717 8.79306L1.64917 8.73706L1.42917 8.84106L1.27017 8.92206L0.867188 8.99606L0.78418 8.92206L0.812195 8.83005L0.982178 8.56107L1.18219 8.21707L1.41519 7.90405L1.6312 7.58307L1.79318 7.24106L1.9032 6.56006L1.97919 6.09006L2.17917 5.25208L2.54419 4.58307L2.68219 4.27505L3.01318 3.87405L3.16519 3.65607L3.36719 3.48407L3.92218 3.25107L4.58517 2.09805L4.73718 1.91406L5.4072 1.74207L5.92218 1.60806L6.30319 1.46707L6.42819 1.39206L6.52917 1.35706L6.4462 1.49106L6.26318 1.66107L6.05618 1.76508L4.9892 2.02606L4.88019 2.08105L4.74118 2.18906L4.74017 2.43707L4.7692 2.63107L5.08319 3.26907L5.20618 3.42606L5.62619 3.77106L5.53018 3.81906L5.37518 3.82507L5.48819 4.27707L5.74619 4.58707L5.75818 4.78207L5.56018 5.38806L5.19919 5.75006L4.94318 6.17105L4.74417 6.33807L4.30319 7.16605L4.63818 7.65906L4.68619 7.90906L4.9762 8.26407L5.16519 8.38007L5.29117 8.52405L5.23318 8.76605L5.34918 9.09406L5.49918 9.26706L5.68719 9.33606H5.9202L6.58917 9.11707L6.74817 9.01907L6.85019 8.84406L7.18518 8.48907L7.20618 8.03006L7.2782 7.47806L7.1962 7.11807L6.84418 6.60406L6.69019 6.23907L6.34119 5.89905L6.1272 5.31607L6.03918 5.13406L5.97318 4.88306L5.89819 4.43805L6.13217 4.27606L6.10818 3.91107L6.68417 3.81006L7.93018 3.21606L8.70117 3.06607L9.57919 2.74905L9.78317 2.59207L9.9592 2.33105L10.0962 2.30106L10.5542 2.54605L10.7802 2.46106L10.8692 2.27005L10.7442 1.89807H10.4812L9.69019 2.03305L9.61319 1.87305V1.73206L9.42618 1.28806L9.54218 0.954071L9.66119 0.683075L9.88818 0.574066L10.2202 0.456055L10.4712 0.637054L10.6232 0.809052L10.7062 0.976074L10.7632 1.42905L10.8982 1.88705L11.0402 2.20505L11.2662 2.44507L11.4392 2.42905L11.5632 2.38907L12.3862 2.33505L12.8862 2.49905L13.5222 2.58206L14.1162 2.93005L14.7272 3.35205L14.8832 3.66006L14.9342 3.95407L15.0822 4.15106L14.9352 4.35406L15.0152 4.69205L15.1902 5.03305L15.4542 5.25006L16.2072 5.30905L17.0212 5.16306L18.2792 5.03006L18.6842 4.91605L20.7662 4.85406L21.1632 5.01807L21.2022 5.18106L21.2062 5.30606L21.8762 5.91605L22.4262 5.99905L22.8932 6.19406L23.3762 6.29907L23.9042 6.44705L24.2012 6.42807L24.4242 6.37607L24.6862 6.36707L26.5442 5.34705L27.5402 5.37305L27.6932 5.30707L27.8252 5.21805L27.4582 5.06305L26.6292 5.00305L26.3782 5.10706L26.2362 4.84406L26.5062 4.85107L27.4282 4.76306L28.4852 4.82108L29.3462 4.63406L29.7792 4.60306L30.0292 4.64008L30.7152 4.51907L32.0062 4.66205L33.0242 4.54407L32.9062 4.71307L32.5722 4.81607L32.0312 4.84805L31.6182 5.09506L30.7382 5.05005L30.1202 5.13907L30.3182 5.20807V5.46106L30.4022 5.51205L30.4912 5.51407L30.7012 5.70206L30.7582 5.82507L30.8262 6.08307L30.7332 6.36206L30.6052 6.48706L30.8562 6.44507L30.9982 6.31406L30.9772 6.18207L30.9982 6.02905L31.1392 6.07706L31.2382 6.14606L31.5592 6.87607L31.7852 7.25906L31.8432 7.24506L31.8972 7.23105L31.9642 7.15805L32.0642 6.97806L32.1502 7.09207L32.2022 7.13605L32.2542 7.15005L32.2062 6.98706L32.2702 6.77808L32.2482 6.70505L32.3482 6.68906L32.4682 6.71707L32.6382 6.77505L32.9412 7.01508L33.1412 7.26407L33.1582 7.40308L33.2312 7.48105L33.3622 7.56305L33.4262 7.69107L33.4382 7.48907L33.3612 7.34207L33.3422 7.17407L33.7362 7.16705L33.8392 6.94608L34.0542 7.07907L34.6242 7.68607L34.8342 7.78607L35.4552 7.90207L35.8462 8.19406L36.0752 8.45605L35.9392 8.73007L35.5742 8.86707L35.4282 9.03806L35.3442 9.20605L35.3432 9.37506L35.2322 9.57108L35.2162 9.64008L35.1502 9.91605L35.0002 10.2491L34.8002 10.6021L33.7582 10.61L34.0152 10.7551L34.2522 10.86L34.6412 11.1371L34.9502 10.9191L35.3932 10.9031L35.8722 10.6611L36.0532 10.623L36.9492 10.7491L37.1652 10.5721L37.3452 10.5201L37.8302 10.5531L38.2612 10.748ZM27.5072 3.44107L27.5972 3.81207L27.5702 3.88205L27.3162 4.13205L27.1032 4.15005L26.9312 4.14105L26.8012 4.09305L26.6342 3.93005L26.4712 3.97906L26.0682 3.92206L25.9562 3.86505L26.1072 3.66507L26.3842 3.58408L26.4862 3.56705L26.5672 3.69006L26.7692 3.79605L27.0062 3.80707L27.0652 3.61807L27.3862 3.33707L27.5072 3.44107ZM23.6822 4.07907L23.5312 4.14307L23.2542 4.07907L23.1152 3.99005L23.2032 3.88806H23.4302L23.6432 4.01205L23.6822 4.07907ZM36.0062 9.08505L35.6692 9.17807L35.6742 9.10306L35.7642 8.97205L35.9392 8.93506L36.0052 8.89008L36.1162 8.86005L36.1802 8.86505L36.2442 8.90207L36.0912 8.97607L36.0062 9.08505ZM35.5102 9.85107L35.3362 9.90805L35.3102 9.62506L35.3632 9.54907L35.6592 9.32108L35.7412 9.27808L35.8012 9.32605L35.7862 9.38705L35.9292 9.49005L35.8942 9.62006L35.7402 9.76205L35.5102 9.85107Z" fill="#CCCCCC" stroke="white" stroke-width="0.5"/>
</svg>
