<svg width="22" height="44" viewBox="0 0 22 44" fill="none" xmlns="http://www.w3.org/2000/svg">
<path d="M16.7243 6.23407L16.5923 6.26105L16.2653 6.26605L15.9793 6.53906L15.7823 6.65308L15.4733 6.74805L15.1453 6.90207L15.0503 7.17307L15.0413 7.36905L14.9883 7.58807L14.4563 7.90607L14.3083 7.87305L14.2053 7.75507L14.0483 7.77905L13.9423 7.83807L13.8163 7.83005L13.6753 7.90207L13.4903 7.88007L13.3203 7.77905L13.2223 7.75305L13.1053 7.75208L13.0833 7.87106L13.2573 8.33206L13.3023 8.54407L12.7333 9.16605L12.7963 9.56607L12.6423 9.87305L12.2983 10.1201L11.6533 10.7561L11.3623 10.7701L11.1433 10.9141L10.6653 11.9561L10.6603 12.313L10.5853 12.5741L10.6013 12.8241L10.3923 13.3161L10.1743 13.524L10.1263 13.7921L10.4353 14.343L10.4703 14.4401L10.6503 14.7361L10.7373 14.9471L10.8753 15.1581L11.3723 15.705L11.5943 15.8721L11.8613 15.985L12.3453 16.4771L12.5893 16.7901L12.4783 17.0031L12.5333 17.4541L12.1883 17.3211L12.2283 17.3741L12.6393 17.6211L13.2533 18.485L13.7883 18.9111L14.3313 19.3951L14.5013 19.8541L14.9913 20.1581L15.5363 20.5981L15.5133 20.6971L15.6603 20.8151L16.0263 21.0481L16.2493 21.2951L16.3353 21.5291L16.4703 21.567L16.6233 21.5091L16.7753 21.4871L16.8833 21.5051L17.0473 21.7621L17.2763 21.9911L17.3863 22.2021L17.4763 22.1741L17.5503 22.2061L17.5693 22.382L17.6023 22.498L17.9093 22.8361L18.0553 23.1541L18.4213 23.6701L18.6923 23.9631L18.8843 24.1281L19.1053 24.2691L19.3213 24.8401L19.4383 25.3581L19.6693 25.9311L19.8443 26.1811L19.8503 26.6521L19.9923 27.1371L20.1433 27.4641L20.1883 27.7981L20.2353 27.9641L20.2933 28.0891L20.4583 28.6541L20.4153 28.9171L20.3003 28.6601L20.3153 29.4181L20.4163 29.8191L20.3713 30.3101L20.4763 30.4821L20.6643 31.037L20.7973 31.2361L20.7853 31.9131L20.8553 32.2551L20.6773 32.0511L20.5483 31.8191L20.3753 31.942L20.2203 32.123L20.4613 32.8511L20.1873 32.7821L20.2113 33.7601L20.3253 33.9881L20.3333 34.097L20.3003 34.2271L20.2243 34.0841L20.2083 33.9371L20.1653 33.9701L20.1673 34.0461L20.0753 34.218L20.0483 34.4311L20.1473 34.6131L20.1643 34.7511L20.0933 34.9221L19.9793 35.1031L19.7183 35.1271L19.6583 35.481L19.5693 35.856L19.1033 35.916L18.7653 36.2471L18.3473 36.3701L17.9743 36.6971L17.5633 37.0001L17.2953 37.0401L17.0663 37.1051L16.8033 37.6071L16.3653 37.6651L15.5783 38.0751L15.3133 38.2731L15.0723 38.3501L14.7273 38.5211L14.6533 38.4601L14.5383 38.313L14.2403 38.2371L14.0943 38.0721L14.0523 37.86L14.0133 37.7771L13.9493 37.8971L13.8993 38.4011L13.8463 38.5151L13.7193 38.5651L13.4683 38.4221L13.2293 38.1311L12.8883 38.3321L12.9923 38.356L13.1473 38.3401L13.2673 38.3901L13.3693 38.5841L13.3653 38.6891L13.3123 38.8121L12.9933 38.8321L12.5673 38.7891L12.4893 38.8051L12.8783 38.994L13.2333 39.1031L13.3903 39.222V39.3211L13.1913 39.4801L13.0373 39.675L13.0343 39.7961L13.0313 39.9311L12.8583 40.0471L12.7513 40.024L12.4473 39.8211L11.5703 39.0221L11.7023 39.248L12.6113 40.1561L12.7713 40.455L12.7933 40.666L12.6993 40.7721L12.5453 40.8971L12.2473 40.9061L11.7593 40.5691L10.9783 39.7591L10.7123 39.649L11.5023 40.5751L11.6323 40.8L11.7653 41.0591L11.7273 41.2131L11.6593 41.3581L9.78729 42.2151L9.50732 42.5841L9.28528 43.0391L8.9173 43.2921L8.70129 43.5231L8.07733 43.6531L7.73633 43.6121L8.09033 43.192L7.87128 43.0361L7.86029 41.9531L7.94629 40.7641L8.10931 40.1701L8.3443 40.0221L8.64032 39.9311L8.64728 39.8061L8.61829 39.6631L8.45929 39.4601L8.28528 39.3661L8.02533 39.3251L7.82532 39.076L7.67328 39.0861L7.43732 39.1691L7.29431 39.0621L7.24133 38.8951L7.02228 38.6871L6.77032 38.485L6.88428 38.4531L7.0163 38.3371L7.15833 38.188L7.51031 38.1671L7.86328 38.1741L7.96228 38.1351L8.10529 37.9771L8.3363 37.774L8.51233 37.6611L8.55432 37.5701L8.48431 37.356L8.44531 37.136L8.51031 37.067L8.82928 37.106L9.1803 37.2091L9.26532 37.2551L9.46631 36.985L9.5213 36.9521L9.65332 36.9531L10.0013 36.9031L10.3413 36.8321L10.5023 36.8441L10.6583 37.0251L10.7773 37.2031L10.8393 37.2171L11.0163 37.1411L11.1623 37.2361L11.4683 37.3911L11.6513 37.3981L11.5603 37.037L11.6623 36.7801L11.6423 36.7101L11.4703 36.5921L10.8863 36.1201L10.7863 35.9791L10.8003 35.757L10.7803 35.4311L10.7283 35.2261L10.7373 35.106L10.7733 35.0101L10.8803 34.972L10.9843 34.9591L11.0673 34.8751L11.2073 34.6601L11.4793 34.679L11.8613 34.8011L12.1433 34.8771L12.3103 34.8621L12.3473 34.8311L12.3423 34.7151L12.3623 34.2211L12.3513 34.1161L12.5923 34.0681L12.9603 34.0571L13.1543 34.0281L13.3353 33.8201L13.8013 33.748L14.1383 33.4671L14.4423 33.1781L14.5913 33.1011L14.7803 33.0511L14.9223 33.0581L15.1003 33.2251L15.2473 33.1241L15.4173 32.9281L15.5063 32.7361L15.5553 32.4271L15.5223 31.9531L15.4323 31.5821L15.3473 31.304L15.3303 31.0261L15.5263 30.4671L15.6953 29.8581L15.6633 29.6181L15.4793 29.2381L15.2923 28.7751L15.0883 28.2651L15.0113 28.1891L14.9563 28.0471L14.9253 27.8811L15.0063 27.36L15.0183 27.1851L15.2533 26.9471L15.3793 26.675L15.4973 26.3741L15.4523 26.2151L15.4363 25.8911L15.4663 25.7341L15.4103 25.6071L15.3423 25.4221L15.3873 25.3021L15.5523 25.1991L15.6493 25.0221L15.7733 24.8151L15.8283 24.6261L15.7393 24.468L15.5783 24.231L15.2843 24.0171L14.9453 23.7431L14.7793 23.5741L14.6473 23.4021L14.5263 23.2021L14.4603 23.0421L14.5243 22.9371L15.0063 22.6961L15.0943 22.6091L15.1453 22.4751L15.1073 22.3441L14.9773 22.2731L14.8263 22.2251L14.6043 22.0731L14.1903 21.6561L14.0003 21.563L13.8003 21.4431L13.6943 21.317L13.5783 20.9711L13.5253 20.9401L13.4103 21.0451L13.2643 21.1541L13.1423 21.1351L13.0313 21.037L12.9783 20.9051L12.8553 20.7241L12.7213 20.5771L12.6863 20.0811L12.6653 19.9191L12.5993 19.6931L12.4953 19.6121L12.3853 19.5521L12.1253 19.1401L11.9453 18.9271L11.2073 18.347L11.1153 18.2541L10.9163 18.0151L10.5703 17.6761L10.3233 17.4031L10.1433 17.1201L10.0593 16.8741L10.0343 16.6821L9.83832 16.4071L9.66931 16.1811L9.50531 16.1081L9.3183 16.0771L9.14929 15.9431L8.84033 15.6391L8.70331 15.4441L8.62231 15.3121L8.62628 15.1761L8.70032 14.9501L8.79028 14.8211L8.79333 14.7201L8.70532 14.6381L8.3623 14.4921L7.5863 14.2711L7.29633 14.1021L7.02832 13.886L6.82629 13.7391L5.88031 13.1141L5.59332 13.0101L5.34729 12.899L5.27228 12.791L5.28528 12.6871L5.38629 12.61L5.6543 12.4491L5.75433 12.2651L5.72229 12.024L5.61633 11.7801L5.66833 11.6961L5.75531 11.6861L5.9353 11.679L6.30829 11.6651L7.1123 11.8871L7.22833 11.8631L7.66528 11.4601L7.82928 11.2191L7.86731 11.0181L7.95331 10.8901L8.18329 10.6801L8.18628 10.4881L8.0733 10.231L7.95831 10.132L7.85931 10.0891L7.54028 10.123L7.47833 10.0651L7.43628 9.87405L7.42133 9.75705L7.31628 9.62006L6.97131 9.50305L6.67932 9.47006L6.61133 9.42105L6.72333 9.28906L6.9223 9.15906L7.0733 9.08307L7.19232 8.94806L7.21429 8.81006L7.06628 8.68707L6.87329 8.55005L6.5603 8.28906L6.12628 8.01205L5.8623 7.91705L5.7243 7.93005L5.24628 8.16806L4.98932 8.32306L4.77533 8.59906L4.55231 8.65805L4.32629 8.53607L4.07031 8.41107L3.36133 8.22906L3.06232 8.07706L2.4433 7.14706L2.35229 6.95807L2.41132 6.74405L2.45428 6.43707L2.5163 6.23807L2.62531 6.04807L2.65533 5.87906L2.6283 5.71307L2.53931 5.61807L2.4223 5.59006L2.33533 5.55206L2.2533 5.33408L2.20331 5.36206L2.12732 5.62708L2.03632 5.72205L1.91528 5.76907L1.82129 5.72705L1.76129 5.62106L1.73529 5.44107L1.67328 5.19907L1.59729 5.04105L1.33032 4.88007L1.20428 4.67105L0.808289 4.21606L0.476318 3.89706L0.321289 3.61005L0.457275 3.50305L0.628296 3.34805L0.812317 3.10605L1.01831 2.80206L1.10431 2.61606L1.16528 2.54105L1.28632 2.48605L1.41632 2.51605L1.64429 2.63907L1.98828 2.79605L2.29529 2.98206L2.41931 3.16907L2.59033 3.34805L2.72131 3.40207L2.78729 3.38806L2.98431 3.25305L3.1543 3.11807L3.15833 2.96506L3.31433 2.82706L3.51831 2.60007L3.6153 2.44608L3.68829 2.43005L3.7713 2.47507L4.09332 2.95105L4.15533 2.98007L4.24628 2.90906L4.37329 2.53705L4.51331 2.39307L4.56128 2.42905L5.34033 3.13007L5.41431 3.12506L5.49829 3.09406L5.55328 2.98605L5.61432 2.74307L5.73029 2.48306L5.98029 2.33807L6.17529 2.31006L6.24731 2.43405L6.41632 2.60507L6.62128 2.62906L7.05731 2.32605L7.20032 2.27808L7.35229 2.28305L7.50732 2.27106L7.65533 2.15506L7.81128 2.00208L7.86432 1.70007L7.89728 1.42905L8.00433 1.31906L8.13232 1.24606L8.37231 1.14307L8.91431 0.880066L9.05432 0.755066L9.15729 0.685059L9.36829 0.799072L9.6203 1.01907L9.77228 1.18506L9.87433 1.36407L9.92328 1.51306L10.3243 1.64307L10.5803 1.82706L10.7503 1.96805L10.9183 1.96207L11.0863 1.92407L11.1943 1.81107L11.3833 1.80905L11.6073 1.82605L11.7073 1.87106L11.8923 2.13107L11.9753 2.16705L12.1403 2.14905L12.4573 2.05707L12.7123 2.01306L12.9423 2.11707L13.3803 2.40607L13.2573 2.61206L13.1593 2.83408L12.9673 2.99005L12.8253 3.02905L12.7353 3.24606L12.6953 3.56607L12.7443 3.72906L12.8543 3.78107L12.9763 3.88907L13.0263 4.03207L13.0433 4.34805L13.0363 4.70407L13.0533 4.82205L13.1483 4.80005L13.2383 4.75806L13.4203 4.81305L13.6463 4.90607L13.7893 5.00006L13.9173 4.98807L14.0173 5.08005L14.0543 5.25607L14.1723 5.37906L14.5003 5.61005L14.7633 5.63007L14.9853 5.93506L15.2153 5.83505L15.3213 5.96707L15.7983 5.92105L16.1303 5.79706L16.2493 5.82605L16.5483 6.08005L16.7243 6.23407ZM15.6863 7.10605L15.2823 7.48105L15.1273 7.47507L15.2653 7.05106L15.3313 6.95007L15.5743 7.09607L15.6863 7.10605ZM15.4573 7.97406L15.3003 8.05206L15.1143 8.04306L15.3373 7.89706L15.4503 7.71606L15.5413 7.65308L15.5403 7.81107L15.4573 7.97406ZM13.6163 8.30505L13.5843 8.36307L13.4413 8.22205L13.3463 8.16107L13.4183 7.97107L13.5863 8.17905L13.6163 8.30505ZM14.0823 8.51007L13.9663 8.52206L13.7433 8.28006L13.8633 8.15207L14.1163 8.24207L14.1753 8.30106L14.1733 8.35306L14.1123 8.46805L14.0823 8.51007ZM14.4643 38.524L14.2293 38.6951L14.2133 38.5511L14.4173 38.4581L14.4893 38.3851L14.5413 38.386L14.4643 38.524ZM5.75433 38.5421L5.80731 38.6831L5.78729 39.0131L5.67828 39.3361L5.71033 39.4771L5.62628 39.567L5.43933 38.9621L5.20428 38.7001L5.15228 38.5991L5.28931 38.606L5.5343 38.4401L5.65228 38.4361L5.75433 38.5421ZM12.9203 43.3711L12.8413 43.3771L12.7813 43.3191L13.0353 43.1341L13.0103 43.257L13.0193 43.3191L12.9203 43.3711Z" fill="#CCCCCC" stroke="white" stroke-width="0.5"/>
</svg>
