<svg width="36" height="21" viewBox="0 0 36 21" fill="none" xmlns="http://www.w3.org/2000/svg">
<path d="M30.6843 7.5831L29.2692 8.1011L28.8962 8.33109L28.5573 8.61508L28.3032 8.97009L28.1252 9.59308L28.2603 10.1621L28.2473 10.4671L27.8823 10.6691L27.5413 10.8141L27.1622 11.0361L26.9323 11.0911L26.7443 11.2671L26.5253 11.3901L25.7363 11.7101L24.8743 11.9571L23.5043 12.2531L22.9752 12.5741L22.4943 12.7941L21.7632 12.8601L20.7592 13.1651L20.2012 13.4091L19.5082 13.8061L19.3552 13.9311L19.2332 14.2231L19.0203 14.4751L18.6033 14.8881L18.2902 15.1001L18.0812 15.1111L17.6752 15.2271L17.1942 15.2511L16.3862 15.1061L16.1782 15.2071L16.0073 15.3681L15.3842 15.6511L14.7512 16.2161L14.2883 16.3661L13.5392 16.5431L13.0153 16.7781L12.6633 16.8721L12.2103 16.9211L11.3712 16.8971L10.5762 16.9821L9.83923 17.1411L9.49323 17.4421L9.09827 17.9191L8.45325 18.1161L8.30127 18.2871L8.10223 18.6381L7.68524 18.7291L7.30725 18.7881L6.92126 18.6351L6.19324 19.0591L5.91827 19.1291L5.50024 19.1461L5.20325 19.2351L4.99023 19.2101L4.72522 19.0441L4.16125 18.8431L3.74927 18.9741L3.71423 18.5731L3.03125 17.3471L3.17322 16.2781V16.1271L3.03723 15.6491L2.63025 15.2121L2.64227 14.6581L2.50623 14.2621L2.39825 13.8541L2.43323 13.7461L2.43927 13.6481L2.23126 13.0191L2.16223 12.8921L2.13623 12.7601L2.20422 12.6591L2.20227 12.5421L2.09222 12.3491L1.97522 11.9811L1.42023 11.6921L1.53326 11.4211L1.64124 11.5161L1.78723 11.5971L1.81726 11.4221L1.81921 11.2911L1.58722 10.4721L1.93127 9.37808L1.81824 8.39108L2.34326 7.9921L2.47522 7.8721L2.55127 7.76709L2.67523 7.54108L2.84424 7.46808L2.90424 7.2301L2.89923 7.11108L2.79022 7.00909L2.70825 6.73209L2.73523 6.3801L2.76227 6.23309L2.81921 5.96408L3.00323 5.86411L3.04626 5.78409L2.90424 5.61411L2.91724 5.51208L3.22925 5.22708L3.35223 5.14209L3.55426 5.05408L3.71222 5.05508L3.89423 5.1051L4.05725 5.18509L4.21527 5.33008L4.38226 5.49509L4.63824 5.55811L4.81226 5.54208L4.95422 5.61508L5.07422 5.5751L5.21027 5.49008L5.42822 5.49509L5.62427 5.39908L6.18225 5.35309L6.72021 5.38208L7.28223 5.30209L7.84326 5.30811L8.40924 5.31409L8.53424 5.32608L8.65723 5.3761L9.13422 5.62808L9.49622 5.68008L10.2233 5.74908L10.9982 5.82309L11.6702 5.88608L12.2402 5.82608L12.7133 5.7771L12.8412 5.7851L12.9843 5.9411L13.2692 6.33008L13.5383 6.69611L14.0092 6.71609L14.3112 6.57809L14.6432 6.38409L14.8463 6.2341L15.0812 5.63809L15.2332 5.25211L15.5822 4.81708L15.8743 4.45309L16.2603 3.97009L16.4742 3.70309L16.8962 3.17508L17.2993 2.96909L18.0773 2.57208L18.8403 2.18109L19.3372 1.92609L19.7603 1.81009L20.4692 1.71008L21.3022 1.5921L22.1353 1.47409L23.0242 1.34909L24.0142 1.20911L24.6932 1.1131L25.5582 0.990082L26.2783 0.888092L26.9183 0.798096L27.5773 0.705078L27.7012 0.999084L27.8253 1.29309L27.9503 1.5871L28.0742 1.8811L28.1982 2.17508L28.3223 2.46909L28.4462 2.76208L28.5712 3.05508L28.6953 3.34808L28.8192 3.64108L28.9432 3.93408L29.0682 4.22708L29.1923 4.5191L29.3162 4.8111L29.4402 5.10309L29.5643 5.39508L29.6862 5.68008L29.8862 5.77509L30.0052 6.0451L30.1752 6.43008L30.3463 6.81409L30.5162 7.19809L30.6843 7.5831ZM1.22925 11.4861L1.14124 11.5501L1.11426 11.4381L1.17224 11.1861L1.26422 11.1131L1.32623 11.3001L1.28625 11.4031L1.22925 11.4861ZM1.78223 15.3251L1.74524 15.3861L1.69421 15.3731L1.52026 15.2201L1.71124 15.0491L1.81323 15.2081L1.78223 15.3251ZM1.69324 16.0931L1.50726 16.1811L1.63422 15.9531L1.76422 15.9061L1.80023 15.9151L1.69324 16.0931ZM32.5853 19.1501L32.7592 19.1841L33.0222 19.0851L33.7762 19.0721L34.6852 19.3901L34.5132 19.4731L34.4113 19.5881L34.0123 19.6931L33.6143 19.9381L32.4622 20.0571L32.1243 19.9911L31.8463 19.7541L31.3312 19.4461L31.5342 19.2491L31.5782 19.1591L31.6542 19.0731L31.9453 18.9241L32.2363 18.9481L32.5853 19.1501Z" fill="#CCCCCC" stroke="white" stroke-width="0.5"/>
</svg>
