<svg width="62" height="87" viewBox="0 0 62 87" fill="none" xmlns="http://www.w3.org/2000/svg">
<path d="M42.5083 1.79694L42.5233 1.95593L42.5433 2.02795L42.6773 2.44696L42.8773 3.07495L43.0103 3.65497L43.1933 4.45197L43.1873 4.89691L43.2323 5.06891L43.3963 5.28394L43.5973 5.65393L43.6653 5.86292L43.7323 6.01996L43.9443 6.31793L44.1093 6.76996L44.2493 7.36896L44.3693 7.65692L44.4143 7.79895L44.4683 8.05695L44.4613 8.60193L44.4643 9.23492L44.4683 9.94196L44.4713 10.5269L44.4503 10.8229L44.4653 11.666L44.2843 12.1049L44.3063 12.4509L44.3623 12.6749L44.2883 12.71L44.1473 12.7499L43.4993 12.395L42.8673 12.02L42.7763 12.0089L42.6433 12.0479L42.2853 12.3199L41.9503 12.7459L41.7963 13.1099L41.5493 13.486L41.1513 14.0919L41.1103 14.223L41.1063 14.7169L41.1253 15.1879L41.1603 15.254L41.3753 15.2759L41.5293 15.6619L41.8813 16.278L42.4723 16.674L43.0213 16.8539L43.7873 16.8989L44.3933 16.8859L44.3583 16.4699L44.4183 15.8029L44.4953 15.3549L44.5803 15.335L44.7393 15.3779L44.8273 15.424L45.0703 15.405L45.5023 15.4929L45.8513 15.4839L46.1633 15.4749L46.6903 15.46L46.9983 15.455L46.8943 16.1779L46.4923 17.3129L46.3553 17.835L46.0123 19.7059L45.5643 20.653L45.3133 21.0449L44.5873 21.739L44.3853 21.8799L44.2063 21.9699L43.8883 22.0499L42.6443 23.46L42.1813 24.142L41.7693 25.1389L41.3603 25.6879L40.7593 26.8619L40.2223 27.7709L39.7073 28.603L38.8163 29.7509L38.4203 30.0839L38.1533 30.236L37.4453 30.905L36.4483 31.9849L35.6853 32.9449L34.5443 34.0389L33.8833 34.5189L32.8913 35.4659L32.6143 35.606L31.4963 36.489L30.6923 37.0269L29.3913 37.6519L28.8743 37.827L27.6393 37.6649L27.1243 37.7509L26.6933 38.129L26.6533 38.6729L26.4733 38.7549L26.2013 38.731L25.3383 38.504L24.8703 38.5469L24.5973 38.838L24.3773 39.2059L23.7273 39.2249L22.5693 38.8439L21.2073 38.6119L20.8923 38.5859L20.2323 38.869L20.0023 38.9099L19.0413 38.8489L18.5083 38.671L17.9983 38.6699L17.6073 38.817L17.1333 38.869L15.8523 39.8939L15.1903 39.895L14.6193 40.0139L14.3363 40.0099L13.8063 39.866L13.6093 39.8759L13.3073 39.9399L13.0053 40.1209L12.3173 40.1989L12.0503 40.3539L10.8883 41.2949L10.6233 41.257L10.4093 41.1959L9.8053 41.184L9.12231 40.6829L8.86029 40.715L8.9303 40.5649L8.95129 40.299L8.80634 40.111L8.70929 40.0269L8.44128 40.043L8.29828 39.817L7.88831 39.796L7.74628 39.853L7.54932 39.8649L7.53229 39.6359L7.5473 39.4919L7.53528 39.2709L7.48633 38.9999L7.32733 38.9139L7.20532 38.8779L6.91528 38.8969L6.71533 38.926L6.62128 39.0049L6.51428 39.2039L6.51331 39.8079L6.36932 39.6349L6.20532 39.2729L6.15228 38.887L6.2113 38.4319L6.52228 38.2589L6.49829 37.952L6.43231 37.6859L6.08533 37.0059L5.95032 36.6949L5.65631 36.4849L5.42731 35.9789L5.19733 35.796L5.10132 35.442L4.87628 35.1599L4.80029 34.7139L4.92432 34.4589L5.1203 34.3189L5.32031 34.5399L5.56927 34.4539L5.9223 34.132L6.13129 33.6439L6.14429 32.8649L6.09033 32.3799L5.8103 31.1299L5.67828 30.843L5.04633 29.952L4.31329 28.7629L3.38629 26.8979L2.9433 25.7819L2.27228 23.5419L1.68134 22.2809L0.955322 21.1089L0.862305 21.033L0.973328 20.8909L1.36432 20.6209L1.54132 20.5479L1.63629 20.5819L1.72833 20.5079L1.81732 20.325L1.83728 20.1539L1.88129 19.9119L1.96832 19.767L2.06433 19.4789L2.22729 19.2939L2.57233 19.171L2.83331 19.3339L2.94232 19.4929L2.9873 19.7029L3.10333 19.8049L3.28931 19.7979L3.42029 19.9269L3.49628 20.1929L3.48132 20.3849L3.37531 20.5049L3.39032 20.6619L3.52533 20.8569L3.5813 21.043L3.67133 21.2889L4.14532 21.4319L4.37732 21.512L4.77631 21.5389L5.15332 21.6489L5.5083 21.8409L6.09229 21.887L6.90533 21.788L7.57428 21.8319L8.0993 22.02L8.48029 22.0549L8.71631 21.9359L8.81927 21.765L8.78729 21.541L8.9043 21.4L9.16931 21.34L9.38129 21.1719L9.54132 20.895L9.91028 20.6699L10.4893 20.4969L10.7773 20.5029V20.056V18.6479V17.2469V15.851V14.46V13.075V11.6959V10.3209V9.02795L10.9123 9.12091L11.8013 9.80695L12.0413 10.168L12.1603 10.3969L12.5423 11.2299L12.8263 11.9789L13.0573 12.5449L13.0753 12.804L13.1083 13.0569L13.1413 13.1819L13.1203 13.3199L12.9573 13.629L12.7913 13.8649L12.5913 14.1879L12.5723 14.6149L12.6323 15.119L12.7553 15.3699L12.9093 15.4529L13.2773 15.3279L13.5103 15.3669L13.8393 15.463L14.9173 15.4039L15.0473 15.4349L15.4543 15.4709L15.5903 15.429L15.7123 15.322L15.8533 15.02L15.9793 14.9199L16.2083 14.869L16.4793 14.7869L16.7033 14.6129L17.0583 14.0159L17.7693 13.4869L17.9873 13.361L18.1253 13.2189L18.2453 13.028L18.4943 12.364L18.6823 11.812L18.7463 11.5519L18.9143 11.1279L19.1173 10.8569L19.3163 10.7139L19.4163 10.6779L19.6723 10.6049L20.0013 10.5369L20.3473 10.6129L20.7183 10.7769L21.1373 11.0529L21.5663 11.395L21.7633 11.5689L21.9763 11.6469L22.3553 11.674L22.6033 11.668L22.9893 12.0079L23.1843 12.0289L23.6213 12.132L24.1613 12.2379L24.5003 12.226L24.8643 12.0419L25.1263 12.0339L25.4653 12.049L25.8383 11.999L26.1113 11.9199L26.3203 11.7599L26.5043 11.585L26.7163 11.064L26.8383 10.6459L27.0263 10.1649L27.2573 9.51392L27.3403 9.06091L27.4243 8.93591L27.7603 8.79791L28.0373 8.70294L28.7853 8.52496L28.9383 8.42993L29.0783 8.21692L29.4043 7.85596L29.8063 7.55493L30.0143 7.38293L30.3943 5.92493L30.4403 5.74493L30.7163 5.35895L30.8873 5.19592L30.9973 5.19293L31.1533 5.09094L31.3563 4.89093L31.5973 4.76697L31.8763 4.72095L32.0573 4.58795L32.1403 4.36993L32.2843 4.26392L32.4893 4.26996L32.6063 4.20093L32.6343 4.05597L32.7583 3.93097L32.9773 3.82794L33.0913 3.70496L33.1023 3.56396L33.3633 3.22095L33.8743 2.67596L34.3553 2.37292L34.8073 2.31091L35.2363 2.19794L35.6413 2.03296L35.9383 1.77393L36.1283 1.42194L36.4553 1.22491L37.1143 1.16693L37.1503 1.16394L37.9523 1.02393L38.6233 1.13794L39.4323 1.45996L40.1893 1.57391L40.8953 1.47992L41.4693 1.45892L41.9103 1.51093L42.2583 1.62292L42.5083 1.79694ZM35.3493 25.7889L35.8103 25.5839L36.0183 25.4589L36.1683 25.356L36.3623 25.2L36.4293 24.8209L36.4863 24.499L36.6343 24.34L36.7863 24.2349L36.9113 24.0679L37.0663 23.6669L37.1723 23.275L37.1833 23.1149L37.1283 22.9509L37.0293 22.7759L36.9323 22.5399L36.8153 22.5029L36.5863 22.3709L36.2493 22.1049L35.9573 21.874L35.6833 21.5389L35.5713 21.4839L35.3063 21.257L35.1923 21.127L35.1123 20.9709L35.0373 20.9199L34.9183 20.96L34.6053 21.0289L33.9343 21.301L33.5183 21.551L33.1683 21.8489L32.8053 21.963L32.5393 22.062L32.3283 22.403L32.1313 22.7209L31.9543 23.0079L31.8523 23.137L31.7603 23.2199L31.6673 23.4039L31.4763 23.71L31.3013 23.9149L31.0573 24.0269L30.7423 24.1719L30.6353 24.2559L30.6203 24.3799L30.7323 24.668L30.8403 24.9459L31.0173 25.2719L31.1473 25.5109L31.3523 25.8029L31.4723 25.9739L31.4563 26.2609L31.4973 26.364L31.5653 26.4829L31.6223 26.5129L31.6863 26.556L31.8563 26.6389L31.8973 26.6939L32.0163 26.7919L32.1303 26.9709L32.3463 27.2169L32.5893 27.4039L33.0063 27.481L33.3323 27.541L33.4403 27.504L33.5513 27.353L33.6423 27.1609L33.6713 26.9169L33.7753 26.7869L34.1663 26.168L34.3813 25.939L34.5133 25.9219L34.6823 25.8779L34.8983 25.8589L35.0603 25.8779L35.0953 25.8709L35.3493 25.7889ZM60.9443 86.46L60.8233 86.5359L60.2563 86.4689L60.1953 86.312L60.3623 86.0699L60.4613 85.968L60.7543 86.0229L60.9883 86.2189L61.0303 86.2849L60.9443 86.46Z" fill="#CCCCCC" stroke="white" stroke-width="0.5"/>
</svg>
