<svg width="34" height="30" viewBox="0 0 34 30" fill="none" xmlns="http://www.w3.org/2000/svg">
<path d="M31.0891 4.01581L31.0991 4.09082L31.1761 4.23282L31.2571 4.33481L31.264 4.4848L31.3021 4.62482L31.42 4.65881L31.5171 4.66782L31.6071 4.56781L31.7291 4.56982L31.863 4.63382L31.9111 4.79483L32.0161 5.0108L32.1851 5.15881L32.2991 5.30182L32.2601 5.56183L32.188 5.79883L32.4181 6.03381L32.717 6.25681L32.798 6.3558L32.8221 6.68781L32.868 6.7998L33.071 7.07581L33.17 7.25882L33.1631 7.36481L32.618 7.9118L32.4451 7.96481L32.2811 7.99582L32.1351 8.10782L32.0471 8.22482L32.079 8.2868L32.1371 8.47382L32.264 8.76981L32.3791 8.97681L32.2831 9.23581L32.0671 9.67581L31.967 9.71481L31.949 10.0478L32.0151 10.1698L32.123 10.2658L32.1671 10.4918L32.17 10.8038L32.1581 11.0548L32.022 11.6938L32.2681 12.2528L32.3521 12.3138L32.6931 12.3178L32.751 12.3648L32.67 12.5238L32.522 12.6878L32.4311 12.7708L31.9971 12.9618L31.3741 13.1728L31.2441 13.3748L31.1611 13.6698L31.2311 13.8428L31.313 13.9418L31.287 14.1988L31.2321 14.4708L31.251 14.6848L31.2231 14.8738L31.1411 14.9668L31.032 15.2518L30.8981 15.5388L30.7921 15.6698L30.636 15.8068L30.389 15.9208L30.3931 15.9788L30.673 16.1108L30.7451 16.2028L30.7711 16.2658L30.7111 16.3258L30.6541 16.4108L30.7831 16.4988L30.941 16.5728L31.0901 16.7638L31.2231 17.0308L31.261 17.1248L31.2921 17.1618L31.3401 17.1658L31.433 17.1258L31.6041 16.9798L31.7291 16.9278L31.8801 17.1358L31.277 17.3418L30.9611 17.4498L30.0601 17.7578L29.2731 18.0268L29.0681 18.0778L28.66 18.2088L28.457 18.2898L27.746 18.5248L27.449 18.6418L27.2101 18.7588L26.623 18.9328L26.0681 19.0968L25.462 19.2668L24.7841 19.4558L24.4031 19.5928L24.1461 19.7108L23.545 19.9508L23.5171 20.0088L23.5251 20.1718L23.6021 20.5078L23.7521 20.8128L23.8781 20.9888L23.9601 21.4408L24.006 21.8378L23.5981 21.8388L22.8801 21.8408L22.1351 21.8418L21.4551 21.9938L20.8961 22.2248L20.2291 22.5858L20.0121 22.7278L19.8441 22.8368L19.738 22.9778L19.686 23.2858V23.7618L19.618 24.1038L19.4161 24.4188V24.4178L18.4031 24.7988L17.7411 25.1098L17.0911 25.4788L16.5981 25.9578L16.2621 26.5468L15.704 27.2768L15.136 27.9098L14.5331 28.5838L13.8571 28.8278L13.2891 28.7728L12.6041 28.4998L12.0601 28.4478L11.657 28.6178L11.285 28.5648L10.9431 28.2908L10.657 28.1908L10.425 28.2648L10.1291 28.2518L9.58807 28.1018L9.12006 27.6348L8.86707 27.4428L8.67206 27.3688L8.11206 27.2938L6.82709 27.1868L6.69305 27.2108L6.15906 27.3028L5.49207 27.4178L4.91809 27.5328L4.31708 27.6528L3.75806 27.1668L3.12506 26.6158L2.46808 26.0008L1.97504 25.5198L1.73108 25.2428L1.29803 24.8768L0.986084 24.6978L0.865051 24.6078L0.555054 23.6358L0.386047 22.7438V22.0728L0.385071 21.1438V20.2158V19.2898L0.384033 18.3648V17.4408V16.5198L0.383057 15.5988V14.6788V14.2318H1.03009H1.76404H2.53107H3.36505H4.19904H5.03308H5.61505L5.76807 14.2248L5.95209 14.1968L5.96509 14.1058L5.72504 13.6548L5.73706 13.4948L5.80109 13.1888L5.90009 12.9248L6.03107 12.5778L6.04504 12.3738L5.94006 11.7088L5.95007 11.3388L5.98004 10.9538L6.01007 10.5898L5.97406 10.3358L6.01807 10.1978L6.09705 9.99982L6.13806 9.77582L6.18707 9.67981L6.17108 9.59082L6.12708 9.4248L6.08307 9.05283L6.02203 8.53583L5.96106 8.16382L6.06305 8.18481L6.27509 8.21982L6.37805 8.40182L6.43805 8.60181L6.58105 8.61282L6.95306 8.7308L7.08203 8.89581L7.16705 9.25281L7.11609 9.43582L6.99603 9.58282L7.11609 9.71283L7.36505 9.7998L7.51105 9.7738L7.93109 9.53082L8.09906 9.48782L8.31805 9.43982L8.51605 9.37781L9.07507 9.26682L9.38007 9.2178L9.55206 9.13083H9.67206L9.75806 9.20081L9.68109 9.45282L9.65509 9.6788L9.76208 10.1018L9.84204 10.2988L10.022 10.4428L10.1531 10.5178L10.298 10.6708L10.5991 10.6448L11.261 10.8608L11.462 10.9608L11.7411 11.0608L11.9391 11.0978L12.6221 11.1738L12.8741 11.2248L13.342 11.2928L13.7161 11.3048L13.9811 11.2738L14.1671 11.2118L14.2811 11.1438L14.3331 11.0848L14.41 10.8738L14.5491 10.4158L14.6041 10.2788L14.7421 10.2158L14.9211 10.1748L15.0261 10.2478L15.1431 10.7558L15.6641 11.2148L15.842 11.6008L15.972 11.9308L16.0851 12.0208L16.2831 12.1338L16.5991 12.1738L16.881 12.1858L17.475 12.4238L17.9471 12.6128L18.285 12.7488L18.4401 12.8518L18.548 13.0208L18.6121 13.1518L18.7161 13.4918L18.8271 13.7608L19.0081 13.8118L19.17 13.8328L19.3301 14.0168L19.451 14.1778L19.691 14.5718L19.868 14.8438L19.9261 15.1088L20.1271 15.2858L20.4011 15.3608L20.6541 15.3708L20.8 15.2918L21.1591 15.1538L21.4391 14.9968L21.6431 14.9418L21.764 14.9758L21.8561 15.0848L21.9051 15.2978L21.9171 15.4168L22.1161 15.5298L22.2631 15.4848L22.3201 15.3538L22.3231 15.2888L22.3221 14.7088V14.2068L22.321 13.7348V13.1598L22.3201 12.6588V12.2468L22.319 11.8168L22.191 11.8408L22.0301 11.9388L21.6591 11.9508L21.514 12.0238L21.4691 12.1348L21.4971 12.2788L21.5051 12.4748L21.4501 12.5668L21.2881 12.6038L21.0521 12.5278L20.6251 12.4298L20.269 12.3688L20.0131 12.1088L19.6671 11.7168L19.4401 11.5198L18.894 11.1108L18.8011 11.0288L18.6351 10.8378L18.493 10.5138L18.423 10.2988L18.3571 10.1388L18.2841 9.90082L18.4161 9.53482L18.6011 8.83881L18.735 8.33783L18.8091 7.96683L19.074 7.58881L19.0931 7.25082L18.9861 6.81781L19.0131 6.57883L19.0311 5.9718L19.0461 5.46182L19.05 5.21381L18.9771 4.78281L18.798 4.30582L18.4041 3.64182L18.4061 3.49982L18.6401 3.3428L19.011 3.06882L19.1931 2.90582L19.4111 2.6748L19.5081 2.55682L19.722 2.2608L19.8571 2.01981L19.9041 1.70883L19.8021 1.41281L20.0101 1.35483L20.6931 1.25082L21.4451 1.1358L22.238 1.01382L23.0381 0.891815L23.813 0.772827L24.5161 0.665802L25.0021 0.59082L25.074 0.793823L25.2261 1.13181L25.397 1.37982L25.6121 1.59781L25.7941 1.72983L25.915 1.76981L26.6851 1.75583L26.9611 1.88782L27.2021 2.05582L27.2621 2.31583L27.42 2.47882L27.5911 2.60681L27.665 2.6228L27.7911 2.59183L27.9971 2.58881L28.188 2.64481L28.2791 2.70181L28.2881 2.91983L28.3461 3.01682L28.6061 3.05481L28.871 3.07181L29.1271 3.21982L29.4031 3.24582L29.7231 3.30682L29.8751 3.46582L30.2141 3.62881L30.6301 3.77481L30.9301 3.93982L31.0891 4.01581Z" fill="#CCCCCC" stroke="white" stroke-width="0.5"/>
</svg>
