<svg width="23" height="22" viewBox="0 0 23 22" fill="none" xmlns="http://www.w3.org/2000/svg">
<path d="M17.5082 20.7969L17.2543 20.6249L16.9072 20.5129L16.4653 20.4609L15.8923 20.4819L15.1862 20.5769L14.4293 20.4619L13.6202 20.1399L12.9492 20.0259L12.1472 20.1659L12.1113 20.1689L11.9733 20.0599L11.7532 19.8249L11.3882 19.7829L11.2892 19.7289L11.2072 19.6409L11.1533 19.5289L11.1323 19.4039L11.1923 19.0179L11.1592 18.9749L11.0623 18.9279L10.8613 18.8819L10.3802 18.7068L9.77423 18.5369L8.79126 18.3509L8.40924 18.3029L8.32025 18.2458L8.21027 18.1039L8.02124 17.6609L7.84424 17.3689L7.42126 16.9179L7.35425 16.7789L7.37524 16.4209L7.40625 16.1329L7.45123 15.8889L7.43127 15.6599L7.42523 15.3759L7.43823 15.1859L7.38123 15.1039L7.22827 15.0459L6.79126 15.0199L6.26324 15.0309L6.24622 14.7429L6.19525 14.2969L6.09723 14.0409L5.97522 13.9079L5.73224 13.7689L5.24127 13.5789L4.57227 13.2899L4.00024 12.8619L3.34521 12.3309L3.14026 12.2389L2.89825 11.7409L2.53027 10.8889L2.55426 10.6059L2.49823 10.4669L2.14026 10.0499L2.06122 9.83289L1.99823 9.61389L1.42926 9.00391L1.23523 8.73785L1.08722 8.39587L0.940247 8.12286L0.816223 8.01288L0.654236 7.82788L0.542236 7.61591L0.490234 7.45789L0.533264 7.24689L0.588257 7.10187L1.12927 7.25189L1.42523 7.26489L1.65723 7.19086L1.94324 7.29089L2.28522 7.56488L2.65723 7.61786L3.06024 7.44788L3.60425 7.49988L4.28925 7.77289L4.85724 7.82788L5.53326 7.58386L6.13623 6.90985L6.70422 6.27686L7.26227 5.54688L7.59827 4.95789L8.09125 4.47888L8.74127 4.10986L9.40326 3.79889L10.4163 3.41788V3.41888L10.6182 3.10388L10.6862 2.76187V2.28589L10.7382 1.97787L10.8442 1.83688L11.0123 1.72787L11.2292 1.58588L11.8962 1.22488L12.4553 0.993866L13.1353 0.841888L13.8802 0.840881L14.5983 0.838867L15.0062 0.837891L15.0123 1.29489L15.0433 1.80988L15.1232 1.85889L15.6633 1.86987L16.5292 1.90689L17.3643 1.94089L17.8972 2.31488L18.0762 2.39487L18.6302 2.49487L19.3383 3.11789L20.1902 3.17587L20.7762 3.37088L21.2922 3.58487L21.5892 3.84189L21.7812 3.89987L22.0413 3.91888L22.1672 3.94287L22.1403 4.12787L21.9662 4.44186L21.9893 4.89188L22.2283 5.51587L22.2603 6.05988L22.1873 7.01886L22.1893 7.94989L22.2142 8.2829L22.2532 8.50287L22.3043 8.6239L22.2943 8.7619L22.1522 9.15387L22.0383 9.56586L22.0342 9.7309L21.9902 9.8479L21.9053 9.95087L21.5333 10.1419L21.4702 10.2599L21.4713 10.4739L21.5182 10.6539L21.6583 10.7198L21.8262 10.8219L21.8923 10.9559L21.8932 11.0979L21.8392 11.3609L21.6893 11.7959L21.8392 12.2979L22.0062 12.6239L22.2372 12.9999L22.3333 13.2328L22.3282 13.3999L22.2933 13.5629L21.9482 14.2529L21.6992 14.6829L21.3953 15.1429L20.9932 15.4319L20.8892 15.5709L20.8483 15.7289L20.8622 16.0749L20.8442 16.4379L20.5002 16.9949L20.7133 17.4749L20.6652 17.5199L20.5493 17.5879L20.0543 18.1289L19.5532 18.6779L19.1873 19.0789L18.7712 19.5349L18.3052 20.0469L17.9062 20.4859L17.5082 20.7969Z" fill="#CCCCCC" stroke="white" stroke-width="0.5"/>
</svg>
